<svg width="1216" height="388" viewBox="0 0 1216 388" fill="none" xmlns="http://www.w3.org/2000/svg">
<path d="M2.36523 241.317C2.36523 215.185 23.549 194 49.6804 194H333.571C359.703 194 380.887 215.185 380.887 241.317C380.887 267.45 359.703 288.634 333.571 288.634H49.6804C23.549 288.634 2.36523 267.45 2.36523 241.317Z" stroke="#667085" stroke-width="4.73161"/>
<path d="M238.94 383.269C212.809 383.269 191.625 362.084 191.625 335.951L191.625 52.049C191.625 25.9165 212.809 4.73196 238.94 4.73193C265.072 4.73193 286.255 25.9165 286.255 52.049L286.255 335.951C286.255 362.084 265.072 383.269 238.94 383.269Z" stroke="#667085" stroke-width="4.73161"/>
<path d="M16.8963 274.427C-1.58139 255.949 -1.58139 225.989 16.8963 207.511L205.136 19.263C223.614 0.784548 253.572 0.784509 272.05 19.263C290.528 37.7414 290.528 67.701 272.05 86.1794L83.8101 274.427C65.3324 292.905 35.3741 292.905 16.8963 274.427Z" stroke="#667085" stroke-width="4.73161"/>
<path d="M835.111 241.317C835.111 215.185 856.295 194 882.427 194H1166.32C1192.45 194 1213.63 215.185 1213.63 241.317C1213.63 267.45 1192.45 288.634 1166.32 288.634H882.427C856.295 288.634 835.111 267.45 835.111 241.317Z" stroke="#667085" stroke-width="4.73161"/>
<path d="M1071.69 383.269C1045.56 383.269 1024.37 362.084 1024.37 335.951L1024.37 52.049C1024.37 25.9165 1045.56 4.73196 1071.69 4.73193C1097.82 4.73193 1119 25.9165 1119 52.049L1119 335.951C1119 362.084 1097.82 383.269 1071.69 383.269Z" stroke="#667085" stroke-width="4.73161"/>
<path d="M849.642 274.427C831.165 255.949 831.165 225.989 849.642 207.511L1037.88 19.263C1056.36 0.784548 1086.32 0.784509 1104.8 19.263C1123.27 37.7414 1123.27 67.701 1104.8 86.1794L916.556 274.427C898.078 292.905 868.12 292.905 849.642 274.427Z" stroke="#667085" stroke-width="4.73161"/>
<ellipse cx="598.536" cy="194" rx="189.261" ry="189.268" stroke="#667085" stroke-width="4.73161"/>
<ellipse cx="598.537" cy="194" rx="94.6303" ry="94.6341" stroke="#667085" stroke-width="4.73161"/>
</svg>
