<svg width="271" height="271" viewBox="0 0 271 271" fill="none" xmlns="http://www.w3.org/2000/svg">
<path d="M114.17 23.2363H6.99609V111.336H114.17V23.2363Z" fill="white"/>
<path d="M114.171 111.809H6.99769C6.73617 111.809 6.52344 111.598 6.52344 111.335V23.2369C6.52344 22.9754 6.73617 22.7627 6.99769 22.7627H114.171C114.433 22.7627 114.646 22.9741 114.646 23.2369V111.336C114.646 111.598 114.433 111.811 114.171 111.811V111.809ZM7.47194 110.862H113.697V23.7112H7.47194V110.862Z" fill="black"/>
<path d="M85.0547 29.1377C72.59 29.1377 62.4492 39.2772 62.4492 51.7432C62.4492 64.2092 72.59 74.3486 85.0547 74.3486C97.5193 74.3486 107.66 64.2092 107.66 51.7432C107.66 39.2772 97.5234 29.1377 85.0547 29.1377ZM85.5289 30.0903C91.079 30.2109 96.121 32.4276 99.8919 35.9818L85.5289 50.5846V30.0903ZM100.568 36.6458C104.265 40.4438 106.583 45.5901 106.706 51.2689H86.1861L100.568 36.6458ZM85.0547 73.4001C73.1131 73.4001 63.3977 63.6848 63.3977 51.7432C63.3977 39.9587 72.857 30.345 84.5804 30.0916L84.5831 51.7919C84.5967 51.9383 84.6793 52.0792 84.8284 52.1605C84.972 52.2296 84.8325 52.2052 106.708 52.2188C106.454 63.9436 96.8391 73.4028 85.056 73.4028L85.0547 73.4001Z" fill="black"/>
<path d="M78.6003 97.5261H18.941C18.6795 97.5261 18.4668 97.3147 18.4668 97.0519V43.8817C18.4668 43.2543 19.4153 43.2543 19.4153 43.8817V96.579H78.6003C79.2277 96.579 79.2277 97.5261 78.6003 97.5261Z" fill="black"/>
<path d="M23.2913 105.688C23.981 96.6557 27.8956 55.0749 36.9538 56.2347C42.1 56.9014 44.2992 69.4582 46.6271 82.7521C48.5634 93.8116 50.5661 105.251 54.0349 105.251C60.1243 105.251 61.2164 87.0095 64.7448 74.1126C64.9101 73.5123 65.8261 73.7576 65.6594 74.3646C61.9088 88.0799 61.1717 106.199 54.0349 106.199C49.7693 106.199 47.8805 95.4105 45.6922 82.916C43.6271 71.1221 41.287 57.7537 36.8318 57.1751C28.9294 56.2632 24.8401 97.8278 24.2384 105.76C24.1897 106.397 23.2466 106.295 23.2926 105.688H23.2913Z" fill="black"/>
<path d="M264.004 26.0303H159.066V111.336H264.004V26.0303Z" fill="white"/>
<path d="M264.004 111.809H159.066C158.805 111.809 158.592 111.598 158.592 111.335V26.0309C158.592 25.7694 158.805 25.5566 159.066 25.5566H264.004C264.266 25.5566 264.478 25.768 264.478 26.0309V111.336C264.478 111.598 264.267 111.809 264.004 111.809ZM159.54 110.862H263.531V26.5038H159.54V110.862Z" fill="black"/>
<path d="M184.635 107.381H166.091C165.83 107.381 165.617 107.169 165.617 106.906V63.3688C165.617 63.1073 165.83 62.8945 166.091 62.8945H184.635C184.896 62.8945 185.109 63.1059 185.109 63.3688V106.906C185.109 107.168 184.896 107.381 184.635 107.381ZM166.566 106.433H184.16V63.843H166.566V106.433Z" fill="black"/>
<path d="M208.845 107.381H190.3C190.039 107.381 189.826 107.169 189.826 106.907V36.6471C189.826 36.3856 190.039 36.1729 190.3 36.1729H208.845C209.106 36.1729 209.319 36.3842 209.319 36.6471V106.907C209.319 107.168 209.106 107.381 208.845 107.381ZM190.776 106.434H208.371V37.1214H190.776V106.434Z" fill="black"/>
<path d="M233.054 107.381H214.509C214.248 107.381 214.035 107.17 214.035 106.907V64.9342C214.035 64.6727 214.248 64.46 214.509 64.46H233.054C233.315 64.46 233.528 64.6713 233.528 64.9342V106.907C233.528 107.168 233.317 107.381 233.054 107.381ZM214.985 106.434H232.581V65.4098H214.985V106.434Z" fill="black"/>
<path d="M257.263 107.381H238.718C238.457 107.381 238.244 107.17 238.244 106.907V48.0758C238.244 47.8143 238.456 47.6016 238.718 47.6016H257.263C257.524 47.6016 257.737 47.8129 257.737 48.0758V106.907C257.737 107.169 257.526 107.381 257.263 107.381ZM239.193 106.434H256.789V48.5501H239.193V106.434Z" fill="black"/>
<path d="M180.77 47.1754H166.091C165.83 47.1754 165.617 46.9641 165.617 46.7012V36.6471C165.617 36.3856 165.83 36.1729 166.091 36.1729H180.77C181.032 36.1729 181.244 36.3842 181.244 36.6471V46.7012C181.244 46.9627 181.032 47.1754 180.77 47.1754ZM166.566 46.2283H180.296V37.1214H166.566V46.2283Z" fill="black"/>
<path d="M177.777 52.2157H166.092C165.464 52.2157 165.464 51.2686 166.092 51.2686H177.777C178.405 51.2686 178.405 52.2157 177.777 52.2157Z" fill="black"/>
<path d="M175.915 55.5702H166.092C165.464 55.5702 165.464 54.623 166.092 54.623H175.915C176.543 54.623 176.543 55.5702 175.915 55.5702Z" fill="black"/>
<path d="M193.623 231.145L208.721 227.457C210.698 217.133 210.874 206.938 209.386 196.784L191.58 196.397C189.535 207.034 188.666 221.496 193.623 231.145Z" fill="white"/>
<path d="M193.623 231.618C193.448 231.618 193.284 231.521 193.2 231.362C188.172 221.576 189.038 207.11 191.113 196.306C191.157 196.08 191.306 195.923 191.59 195.923L209.396 196.309C209.627 196.313 209.822 196.485 209.854 196.714C211.367 207.032 211.148 217.302 209.186 227.544C209.151 227.727 209.014 227.872 208.833 227.916L193.623 231.618ZM191.971 196.878C190.028 207.224 189.185 221.11 193.876 230.593L208.312 227.066C210.176 217.161 210.395 207.225 208.974 197.247L191.971 196.878Z" fill="black"/>
<path d="M209.501 222.729C207.637 219.693 204.114 217.853 200.339 218.312C193.904 219.095 190.197 225.979 193.008 231.75C193.604 224.96 201.833 220.826 209.501 222.729Z" fill="#81F889"/>
<path d="M209.86 222.821C201.516 220.538 192.605 225.504 192.989 232.904C193.116 235.366 194.651 237.567 196.98 238.63C203.308 241.522 215.944 242.3 229.599 241.987C227.691 240.342 229.781 232.247 232.842 231.985C224.599 228.218 217.64 224.952 209.861 222.823L209.86 222.821Z" fill="white"/>
<path d="M233.036 231.553C226.155 228.398 217.448 224.3 209.798 222.315C207.812 219.228 204.172 217.369 200.281 217.84C193.612 218.653 189.664 225.767 192.527 231.846C192.276 235.172 194.097 237.835 196.781 239.061C204.56 242.615 221.041 242.657 229.608 242.459C230.814 242.435 232.511 239.201 233.067 237.568C233.698 235.714 234.147 232.062 233.036 231.553ZM200.395 218.782C203.556 218.396 206.539 219.717 208.413 222.019C201.991 220.942 194.655 223.786 192.857 230.014C191.402 224.714 195.025 219.438 200.395 218.782ZM197.174 238.198C190.595 235.192 192.734 224.226 203.865 222.852C205.762 222.617 207.796 222.749 209.731 223.278C217.383 225.371 224.301 228.61 231.605 231.942C229.154 233.53 227.715 239.146 228.719 241.53C213.497 241.821 202.603 240.677 197.173 238.198H197.174Z" fill="black"/>
<path d="M203.295 205.045C210.018 204.176 214.629 196.983 213.596 188.977C212.56 180.972 206.273 175.187 199.55 176.056C192.828 176.925 188.216 184.117 189.25 192.122C190.284 200.128 196.573 205.913 203.295 205.045Z" fill="#81F889"/>
<path d="M201.963 205.605C191.207 205.605 184.839 190.912 191.092 181.158C197.799 170.693 212.349 175.647 214.065 188.918C215.192 197.644 209.704 205.605 201.963 205.605ZM191.89 181.67C185.705 191.319 192.714 205.919 203.234 204.575C209.687 203.74 214.123 196.77 213.124 189.038C211.517 176.605 198.129 171.938 191.891 181.67H191.89Z" fill="black"/>
<path d="M183.36 208.817C172.054 210.744 162.969 221.041 154.037 221.24C152.331 230.304 150.9 239.549 151.373 247.721H193.886L196.306 217.004C196.394 212.651 191.558 207.42 183.36 208.817Z" fill="#81F889"/>
<path d="M149.156 178.829C154.135 175.483 166.88 171.355 177.786 173.282C181.941 174.015 194.159 170.702 202.864 179.455C211.726 190.428 206.118 211.494 196.306 217.005C196.396 212.652 191.56 207.421 183.361 208.818C172.023 210.751 164.767 219.898 154.759 221.187C141.618 222.878 138.525 185.98 149.158 178.831L149.156 178.829Z" fill="white"/>
<path d="M203.201 179.121C194.358 170.231 181.746 173.493 177.869 172.815C166.727 170.847 153.994 175.006 148.893 178.437C138.424 185.474 140.765 220.913 153.471 221.702C151.7 229.805 150.492 236.543 150.82 247.626C150.826 247.88 151.036 248.085 151.292 248.085L193.887 248.195C194.135 248.195 194.339 248.005 194.36 247.758L196.759 217.291C206.755 211.417 212.189 190.23 203.201 179.121ZM195.39 222.586C189.429 210.814 183.349 213.904 172.887 219.635C166.013 223.399 160.414 226.52 153.517 226.101C153.802 224.657 154.114 223.2 154.443 221.695C164.063 220.931 172.21 211.2 183.44 209.286C191.105 207.982 195.902 212.733 195.831 216.977L195.39 222.588V222.586ZM168.97 247.184C174.928 244.733 179.566 241.838 183.361 240.361C187.18 238.884 189.169 243.949 191.218 247.241L168.97 247.184ZM193.446 247.246L192.349 247.243C190.238 244.146 187.96 237.551 183.017 239.478C178.589 241.2 173.471 244.563 166.378 247.177L151.752 247.139C151.723 246.031 151.71 244.966 151.712 243.94C165.039 243.242 173.661 235.647 183.216 232.027C187.35 230.463 190.867 235.548 192.97 238.586C193.364 239.154 193.712 239.659 194.013 240.048L193.446 247.246ZM194.128 238.59C191.278 234.512 187.677 229.322 182.88 231.139C173.279 234.773 164.76 242.287 151.718 242.989C151.748 240.227 151.886 237.738 152.112 235.397C164.702 235.703 173.929 226.721 182.949 223.947C188.288 222.299 192.064 228.188 194.094 231.349C194.292 231.655 194.471 231.936 194.632 232.174L194.127 238.589L194.128 238.59ZM182.672 223.039C173.51 225.859 164.471 234.708 152.21 234.451C152.489 231.875 152.874 229.462 153.334 227.038C164.123 228.366 176.273 217.053 184.203 215.631C190.323 214.538 193.281 220.479 194.873 223.675L195.243 224.41L194.754 230.622C192.692 227.418 188.562 221.23 182.672 223.039ZM196.742 216.185C196.243 211.587 191.105 207.009 183.28 208.348C171.803 210.303 164.594 219.437 154.698 220.714C142.206 222.276 139.081 186.172 149.42 179.221C154.591 175.747 167.294 171.912 177.703 173.747C181.793 174.469 194.003 171.217 202.494 179.752C210.872 190.127 206.071 210.158 196.742 216.187V216.185Z" fill="black"/>
<path d="M167.33 200.615L200.51 199.905C202.646 199.859 204.312 198.053 204.186 195.922L203.805 189.46C203.692 187.525 202.085 185.969 200.148 185.919L167.257 186.338C165.169 186.365 163.504 188.082 163.542 190.171L163.666 196.924C163.704 198.942 165.313 200.565 167.33 200.617V200.615Z" fill="white"/>
<path d="M204.66 195.893L204.279 189.43C204.15 187.251 202.342 185.5 200.16 185.443L167.25 185.863C165.343 185.888 163.804 187.147 163.271 188.792C162.785 189.679 162.299 190.914 162.315 191.829L162.44 198.581C162.482 200.839 164.282 202.655 166.537 202.714L199.739 202.006C202.533 201.945 204.823 198.722 204.657 195.894L204.66 195.893ZM200.136 186.391C201.829 186.434 203.233 187.794 203.332 189.485L203.713 195.949C203.824 197.813 202.365 199.39 200.5 199.431L167.342 200.14C165.579 200.095 164.174 198.678 164.141 196.912L164.017 190.159C163.983 188.366 165.407 186.835 167.263 186.809L200.136 186.391Z" fill="black"/>
<path d="M200.449 196.947C200.908 196.937 201.261 196.553 201.234 196.094L200.854 189.632C200.831 189.231 200.473 188.884 200.072 188.873L167.296 189.293C167.073 189.296 166.882 189.378 166.728 189.538C166.407 189.872 166.491 189.525 166.626 196.868C166.634 197.298 166.977 197.644 167.408 197.656L200.449 196.947Z" fill="white"/>
<path d="M201.707 196.067L201.326 189.605C201.288 188.957 200.731 188.418 200.065 188.4L167.289 188.82C166.593 188.829 166.011 189.396 166.026 190.124L166.15 196.877C166.163 197.562 166.71 198.112 167.417 198.131L200.459 197.422C201.188 197.406 201.749 196.795 201.707 196.067ZM200.673 196.368C200.52 196.533 200.634 197.324 167.42 197.185C167.244 197.185 167.103 197.039 167.099 196.861L166.974 190.108C166.97 189.913 167.125 189.773 167.301 189.77L200.058 189.35C200.211 189.354 200.37 189.509 200.378 189.662C200.785 196.765 200.811 196.217 200.672 196.368H200.673Z" fill="black"/>
<path d="M199.454 192.445L196.188 192.502L194.031 190.743C193.791 190.552 193.475 190.632 193.332 190.854L191.253 194.08L188.385 191.121C188.17 190.899 187.783 190.937 187.626 191.225L186.855 192.656L184.994 192.693C184.718 192.698 184.763 192.721 183.302 194.373C181.986 192.778 181.917 192.599 181.666 192.675L179.274 192.728L177.55 190.56C177.332 190.285 176.913 190.336 176.757 190.637L174.718 194.58L173.951 193.099C173.868 192.939 173.698 192.836 173.519 192.844L167.868 192.984C167.607 192.991 167.4 193.208 167.406 193.469C167.413 193.731 167.653 193.989 167.893 193.931L173.248 193.8L174.299 195.83C174.475 196.17 174.965 196.17 175.142 195.83L177.267 191.724L178.681 193.502C178.871 193.741 178.937 193.683 181.46 193.628C183.05 195.553 182.993 195.572 183.284 195.576C183.595 195.576 183.576 195.498 185.223 193.636C187.211 193.596 187.386 193.672 187.561 193.348L188.156 192.246L190.989 195.168C191.195 195.38 191.557 195.361 191.729 195.095L193.842 191.812L195.723 193.346C195.901 193.491 195.8 193.451 199.471 193.39C200.032 193.381 200.157 192.5 199.454 192.443V192.445Z" fill="black"/>
<path d="M161.407 177.163C162.154 183.469 158.754 200.848 154.056 203.829C147.101 208.244 145.287 191.181 146.994 181.028L161.407 177.163Z" fill="black"/>
<path d="M149.662 164.213C152.905 157.822 163.319 169.098 161.055 177.377L149.662 164.213Z" fill="#81F889"/>
<path d="M161.056 177.852C160.717 177.852 160.911 177.975 149.305 164.524C149.179 164.378 149.153 164.17 149.241 163.998C152.823 156.943 163.917 168.718 161.514 177.503C161.461 177.699 161.281 177.852 161.056 177.852ZM150.237 164.153L160.791 176.349C161.959 168.921 153.186 159.212 150.237 164.153Z" fill="black"/>
<path d="M131.645 165.922C131.645 165.922 134.067 180.922 150.76 194.098C151.617 194.775 152.386 195.271 153.085 194.989C159.133 192.54 160.799 180.552 161.135 177.4C161.186 176.922 161.058 176.442 160.773 176.052C156.369 170.017 149.617 158.574 145.23 156.9L131.645 165.922Z" fill="white"/>
<path d="M153.262 195.428C152.278 195.829 151.297 195.128 150.465 194.47C133.821 181.333 131.2 166.15 131.176 165.997C131.147 165.813 131.227 165.63 131.382 165.525L144.967 156.504C145.096 156.42 145.255 156.401 145.398 156.456C149.969 158.199 156.636 169.577 161.155 175.772C161.509 176.256 161.669 176.852 161.606 177.448C161.224 181.028 159.495 192.903 153.262 195.428ZM132.17 166.142C132.623 168.302 135.991 181.837 151.053 193.726C151.843 194.349 152.457 194.726 152.907 194.548C158.799 192.162 160.402 179.8 160.663 177.348C160.701 176.986 160.605 176.626 160.389 176.33C156.193 170.58 149.499 159.344 145.281 157.435L132.17 166.142Z" fill="black"/>
<path d="M144.509 154.3C143.814 158.48 141.989 161.086 135.435 162.168C132.898 162.588 129.982 161.366 128.405 159.507C126.826 165.439 131.687 171.171 138.299 171.171C143.927 171.171 148.489 166.958 148.489 161.76C148.489 158.721 146.929 156.019 144.509 154.3Z" fill="#81F889"/>
<path d="M142.594 122.724C142.594 136.142 146.65 149.738 143.785 157.02C142.583 160.074 139.441 161.508 135.436 162.169C134.451 162.332 133.441 162.279 132.485 161.994C125.467 159.91 125.868 153.328 127.421 145.168C128.546 139.261 130.624 133.988 131.58 122.974C131.58 122.974 132.505 124.53 137.516 124.477C141.998 124.43 142.594 122.724 142.594 122.724Z" fill="white"/>
<path d="M145.024 154.096C146.176 146.47 143.101 134.467 143.07 122.906C143.497 120.917 139.189 120.822 137.161 120.822C135.234 120.822 130.955 121.049 131.105 122.954C130.153 133.916 128.081 139.158 126.955 145.079C125.859 150.838 125.184 156.264 127.883 159.644C126.424 165.816 131.521 171.647 138.3 171.647C144.18 171.647 148.964 167.213 148.964 161.762C148.964 158.673 147.426 155.91 145.024 154.096ZM127.886 145.256C128.974 139.536 130.958 134.421 131.955 124.065C133.811 125.093 139.791 125.254 142.131 123.959C142.359 136.975 146.067 149.921 143.344 156.845C142.329 159.425 139.791 160.968 135.357 161.7C134.435 161.856 133.487 161.799 132.619 161.539C126.389 159.689 126.147 154.39 127.886 145.256ZM128.683 160.494C129.987 161.674 131.937 162.489 133.444 162.677C133.696 165.399 135.103 168.716 137.466 170.665C131.977 170.234 127.886 165.623 128.683 160.494ZM139.146 170.663C136.414 169.178 134.714 165.559 134.405 162.732C134.775 162.728 135.145 162.696 135.512 162.636C142.131 161.541 144.043 158.812 144.831 155.151C151.112 160.411 147.513 169.995 139.146 170.663Z" fill="black"/>
<path d="M144.687 112.68C144.45 112.265 144.027 111.823 143.504 111.539L143.552 107.947C139.842 107.375 136.352 107.2 133.424 108.042C133.424 108.042 132.431 112.253 132.619 114.051C132.783 115.607 132.568 117.765 133.754 118.655L133.412 124.028C134.592 124.724 139.629 124.433 140.384 124.212C141.138 123.991 140.981 123.016 140.981 123.016L141.134 119.653C141.744 119.471 142.316 119.093 142.747 118.403C144.403 115.753 145.255 113.672 144.687 112.677V112.68Z" fill="white"/>
<path d="M149.103 106.836C147.611 106.847 145.341 108.068 144.001 109.863C144.019 108.531 144.001 108.083 144.078 107.577C144.242 106.489 144.647 103.797 144.722 103.099C144.817 102.218 145.067 98.6667 145.067 97.7548C145.067 96.8428 144.658 96.4025 144.029 96.4973C143.401 96.5922 143.212 97.2521 142.992 98.2575C142.771 99.2629 142.332 102.942 142.206 103.444C142.115 103.805 141.75 105.993 141.551 107.202C141.41 107.187 141.271 107.172 141.132 107.157C141.112 106.267 141.107 104.779 141.225 103.218C141.292 102.336 140.534 97.1816 140.534 96.271C140.534 95.3605 140.124 94.9187 139.496 95.0136C138.867 95.1084 138.638 95.7168 138.553 96.7426C138.427 98.252 138.786 103.051 138.71 103.564C138.554 104.615 138.47 106.051 138.429 106.993C138.33 106.992 138.233 106.99 138.135 106.99C138.122 106.179 138.127 104.97 138.223 103.707C138.283 102.915 137.601 98.2832 137.601 97.4634C137.601 96.6437 137.193 96.2236 136.628 96.309C136.063 96.3943 135.857 96.9404 135.782 97.8632C135.669 99.2195 135.992 103.532 135.923 103.993C135.78 104.954 135.706 106.274 135.669 107.118C135.527 107.134 135.387 107.153 135.249 107.172C135.242 106.528 135.253 105.65 135.322 104.736C135.371 104.098 134.874 100.367 134.822 99.71C134.76 98.9295 134.284 98.5163 133.76 98.7805C133.349 98.9878 133.139 99.2886 133.077 100.031C132.986 101.123 133.246 104.595 133.191 104.966C133.092 105.634 133.034 106.518 133 107.184C132.936 108.482 131.936 112.103 132.146 114.099C132.297 115.519 132.112 117.623 133.161 118.759L132.936 124.004C132.925 124.267 133.218 124.524 133.57 124.595C135.413 124.956 138.582 125.015 140.711 124.481C141.245 124.347 141.357 124.108 141.364 123.905L141.492 120.032C142.113 119.802 142.696 119.376 143.149 118.653C145.101 115.528 145.723 113.558 145.104 112.452C146.642 110.816 148.294 108.996 149.706 108.634C150.795 108.356 150.678 106.818 149.1 106.831L149.103 106.836ZM140.429 123.582C138.463 124.061 135.593 124 133.904 123.688L134.088 119.366C135.458 119.856 136.918 119.477 137.749 119.795C138.618 120.126 139.612 120.334 140.538 120.249L140.429 123.582ZM142.347 118.156C141.302 119.829 139.23 119.347 138.089 118.91C136.862 118.439 136.162 118.95 134.543 118.517C132.997 118.101 133.282 115.816 133.093 114.004C132.942 112.564 133.614 109.377 133.826 108.427C136.194 107.805 139.15 107.782 143.074 108.358L143.042 110.847C142.291 110.642 141.421 110.793 140.653 111.415C138.464 113.191 138.011 114.927 137.993 115C137.841 115.604 138.754 115.836 138.912 115.233C138.916 115.217 139.328 113.713 141.25 112.152C141.704 111.784 142.189 111.652 142.689 111.74C143.338 111.864 143.971 112.382 144.279 112.919C144.519 113.339 144.586 114.577 142.348 118.157L142.347 118.156Z" fill="black"/>
<path d="M171.138 163.475L169.869 174.579C169.741 175.688 170.199 176.782 171.077 177.472C175.776 181.166 182.924 181.922 187.507 177.509C187.859 177.17 188.066 176.705 188.08 176.216L188.423 164.93L171.138 163.474V163.475Z" fill="#81F889"/>
<path d="M179.7 132.239C173.717 132.239 169.077 135.167 167.412 138.636C165.747 142.105 164.35 146.432 164.35 146.432L166.252 150.349L164.419 154.114L167.737 167.635L180.263 168.342L189.82 164.139C191.191 158.785 193.095 147.547 193.256 141.609C193.256 136.434 187.187 132.239 179.7 132.239Z" fill="white"/>
<path d="M193.259 141.611C193.096 147.574 191.177 158.872 189.822 164.141L180.266 168.344L183.291 154.596L184.907 151.047C185.081 150.662 185.034 150.756 183.21 146.856C183.21 146.856 183.728 141.715 185.707 137.592C186.783 135.351 189.703 134.351 192 137.667C192.806 138.866 193.259 140.202 193.259 141.608V141.611Z" fill="#81F889"/>
<path d="M164.32 146.351L167.114 146.324C167.114 146.324 167.621 144.505 169.49 144.378C171.713 144.226 172.32 146.374 172.32 146.374L174.865 146.42C174.865 146.42 175.682 144.26 178.051 144.469C180.419 144.677 180.698 146.558 180.698 146.558L183.194 146.75L185.075 150.6L183.228 154.571L164.53 154.048L166.307 150.356L164.32 146.351Z" fill="white"/>
<path d="M169.515 159.91C169.225 159.355 170.068 158.917 170.356 159.474C171.786 162.22 175.657 161.784 177.78 159.508C178.213 159.047 178.901 159.699 178.474 160.154C175.927 162.888 171.268 163.281 169.515 159.91Z" fill="black"/>
<path d="M179.703 131.767C173.13 131.767 168.58 135.115 166.987 138.433C165.327 141.891 163.915 146.245 163.901 146.288C163.819 146.543 163.793 146.376 165.684 150.262C165.751 150.399 165.824 150.177 163.995 153.909C163.878 154.147 163.893 153.944 167.278 167.749C167.328 167.951 167.504 168.098 167.712 168.11L170.115 168.246L169.397 174.525C169.254 175.789 169.785 177.062 170.783 177.846C175.688 181.701 183.114 182.395 187.835 177.85C188.282 177.422 188.537 176.846 188.553 176.232L188.892 165.068C190.07 164.549 190.206 164.551 190.279 164.259C191.573 159.211 193.645 147.886 193.73 141.626C193.813 135.609 186.52 131.768 179.701 131.768L179.703 131.767ZM167.842 138.844C170.932 132.409 181.827 130.863 188.545 135.061C187.084 135.141 185.896 136.105 185.28 137.388C183.61 140.867 182.969 144.982 182.793 146.349C182.207 146.299 181.608 146.254 180.992 146.215C179.966 143.311 175.478 143.176 174.672 145.979C174.672 145.979 173.222 145.945 172.74 145.937C171.781 143.414 167.626 143.025 166.728 145.937C166.194 145.941 165.564 145.947 165.014 145.953C165.462 144.632 166.58 141.471 167.842 138.844ZM166.538 150.854C166.691 150.541 166.693 150.165 166.538 149.848L165.106 146.899C165.77 146.891 166.537 146.884 167.102 146.88C167.328 146.88 167.523 146.718 167.564 146.494C168.012 144.112 171.422 144.433 171.928 146.517C171.98 146.727 172.167 146.876 172.382 146.879C172.961 146.887 174.646 146.926 174.646 146.926C175.058 146.915 175.416 146.676 175.535 146.289C176.165 144.273 179.52 144.491 180.144 146.684C180.22 146.945 180.453 147.132 180.721 147.149C181.469 147.195 182.192 147.249 182.897 147.311L184.473 150.681C184.534 150.817 184.587 150.602 182.997 154.119L165.168 153.662L166.535 150.854H166.538ZM168.118 167.182L165.031 154.606L182.706 155.059L179.89 167.848L168.118 167.182ZM187.182 177.167C182.591 181.586 175.611 180.43 171.373 177.099C170.63 176.515 170.235 175.571 170.342 174.633L170.457 173.631C175.064 177.709 182.362 179.144 187.633 175.388C187.604 176.314 187.653 176.712 187.18 177.169L187.182 177.167ZM187.673 174.075C187.587 174.207 187.478 174.323 187.348 174.419C182.141 178.368 174.991 176.509 170.904 172.755C170.793 172.652 170.689 172.54 170.595 172.421L170.955 169.272C175.439 173.472 182.627 174.889 187.767 171.007L187.673 174.075ZM187.813 169.495C187.726 169.742 187.572 169.957 187.363 170.121C182.339 174.075 175.459 172.246 171.534 168.514C171.466 168.451 171.403 168.383 171.343 168.314L180.267 168.816C180.417 168.816 179.921 169.013 187.934 165.49L187.812 169.495H187.813ZM189.421 163.799L180.93 167.533L183.724 154.792L185.337 151.245C185.477 150.938 185.477 150.589 185.335 150.28L183.696 146.777C183.791 145.964 184.386 141.441 186.135 137.798C186.627 136.773 187.53 136.09 188.493 136.015C190.812 135.807 192.783 139.077 192.784 141.605C192.63 147.247 190.864 158.063 189.42 163.8L189.421 163.799Z" fill="black"/>
<path d="M169.489 151.03C170.248 151.03 170.863 150.415 170.863 149.656C170.863 148.897 170.248 148.282 169.489 148.282C168.73 148.282 168.115 148.897 168.115 149.656C168.115 150.415 168.73 151.03 169.489 151.03Z" fill="white"/>
<path d="M169.484 151.505C168.61 151.505 167.806 150.87 167.663 149.94C167.507 148.933 168.199 147.988 169.206 147.83C170.209 147.675 171.158 148.368 171.316 149.374C171.488 150.482 170.637 151.505 169.484 151.505ZM169.488 148.757C168.938 148.757 168.515 149.252 168.599 149.795C168.672 150.267 169.103 150.619 169.626 150.547C170.718 150.377 170.593 148.759 169.488 148.759V148.757Z" fill="black"/>
<path d="M177.53 151.03C178.289 151.03 178.904 150.415 178.904 149.656C178.904 148.897 178.289 148.282 177.53 148.282C176.771 148.282 176.156 148.897 176.156 149.656C176.156 150.415 176.771 151.03 177.53 151.03Z" fill="white"/>
<path d="M175.706 149.94C175.549 148.934 176.237 147.987 177.249 147.83C178.874 147.578 179.989 149.427 179.023 150.749C178.053 152.072 175.955 151.56 175.707 149.938L175.706 149.94ZM177.531 148.757C176.665 148.757 176.301 149.872 177 150.383C177.392 150.669 177.959 150.595 178.256 150.188C178.692 149.59 178.26 148.755 177.53 148.755L177.531 148.757Z" fill="black"/>
<path d="M171.918 152.003C172.025 151.867 172.242 151.914 172.281 152.084C172.536 153.2 172.661 154.775 172.452 156.362C172.399 156.768 172.014 157.047 171.613 156.973C170.867 156.834 169.807 156.509 169.786 155.772C169.758 154.862 171.294 152.801 171.918 152.003Z" fill="#81F889"/>
<path d="M171.526 157.437C169.726 157.106 169.327 156.356 169.311 155.785C169.283 154.819 170.506 153.031 171.545 151.708C171.898 151.26 172.615 151.419 172.743 151.975C173.052 153.322 173.116 154.942 172.922 156.423C172.834 157.096 172.199 157.562 171.526 157.437ZM171.932 152.765C170.689 154.425 170.249 155.407 170.258 155.757C170.268 156.052 170.833 156.346 171.699 156.506C171.845 156.531 171.964 156.43 171.98 156.302C172.131 155.154 172.11 153.875 171.93 152.766L171.932 152.765Z" fill="black"/>
<path d="M191.06 159.34C188.411 159.34 186.264 156.017 186.264 151.92C186.264 147.822 188.411 144.5 191.06 144.5H194.735V159.341L191.06 159.34Z" fill="white"/>
<path d="M194.701 159.34C197.052 159.34 198.957 156.017 198.957 151.92C198.957 147.822 197.052 144.5 194.701 144.5C192.35 144.5 190.445 147.822 190.445 151.92C190.445 156.017 192.35 159.34 194.701 159.34Z" fill="white"/>
<path d="M199.432 151.919C199.432 147.525 197.384 144.077 194.761 144.026H191.062C188.155 144.026 185.791 147.566 185.791 151.919C185.791 156.273 188.155 159.813 191.062 159.813H194.761C197.386 159.761 199.432 156.314 199.432 151.919ZM191.062 158.866C188.679 158.866 186.74 155.75 186.74 151.919C186.74 148.089 188.679 144.972 191.062 144.972H192.421C189.155 147.911 189.155 155.927 192.421 158.866H191.062ZM194.703 158.866C192.653 158.866 190.921 155.685 190.921 151.919C190.921 148.154 192.653 144.972 194.703 144.972C196.753 144.972 198.485 148.154 198.485 151.919C198.485 155.685 196.753 158.866 194.703 158.866Z" fill="black"/>
<path d="M194.7 155.822C192.641 155.822 192.642 148.016 194.7 148.018C196.759 148.019 196.759 155.824 194.7 155.822Z" fill="white"/>
<path d="M194.701 156.295C193.209 156.295 192.682 153.935 192.682 151.913C192.682 149.898 193.213 147.543 194.701 147.543C197.407 147.543 197.426 156.295 194.701 156.295ZM193.989 154.443C194.188 155.009 194.455 155.346 194.701 155.348C195.775 155.35 196.207 150.664 195.198 148.913C194.107 147.029 193.046 151.754 193.989 154.443Z" fill="black"/>
<path d="M201.889 153.326C202.406 153.338 202.832 152.915 202.822 152.398L202.462 131.894L201.344 131.868L200.41 150.404C200.405 150.524 200.305 150.616 200.185 150.613L194.771 150.488C194.401 150.48 194.34 153.151 194.71 153.16L201.89 153.326H201.889Z" fill="white"/>
<path d="M203.233 128.2C202.415 127.806 201.577 127.784 200.741 128.144C200.558 128.222 200.45 128.412 200.474 128.611C200.936 132.234 200.878 131.687 200.87 131.845L199.949 150.134L194.782 150.016C194.077 150.085 194.008 150.997 193.989 151.792C193.958 153.055 194.176 153.623 194.698 153.635L201.905 153.802C202.68 153.802 203.309 153.161 203.293 152.386C202.812 128.736 202.713 133.045 203.48 128.68C203.514 128.484 203.415 128.288 203.234 128.2H203.233ZM202.215 152.725C202.024 152.914 202.585 152.87 194.98 152.693C194.905 152.281 194.926 151.378 195.019 150.971L200.175 151.089C200.541 151.077 200.866 150.809 200.883 150.431L201.794 132.355L201.995 132.36C202.348 152.72 202.42 152.52 202.215 152.725Z" fill="black"/>
<path d="M139.35 111.88C139.015 111.01 138.011 111.278 136.874 112.281C135.236 113.726 133.328 115.426 133.328 115.426C133.328 115.426 134.533 107.529 134.667 105.321C134.801 103.113 135.202 100.838 134.332 100.703C133.462 100.569 133.058 101.614 132.791 103.153C132.523 104.693 131.321 111.477 131.321 111.477C131.524 109.317 131.969 103.302 131.722 101.171C131.522 99.4311 130.048 99.9799 129.913 100.716C129.88 100.899 129.797 101.603 129.691 102.558C129.491 101.678 128.744 100.922 128.136 101.217C127.621 101.468 127.85 102.58 127.595 104.279C127.136 107.35 127.565 106.044 126.935 103.758C126.737 103.042 125.255 102.796 125.198 104.105C125.117 105.976 125.342 110.202 125.025 111.469C124.623 113.075 126.102 116.694 126.035 118.033C125.968 119.371 125.766 119.458 125.634 120.508C125.366 122.649 125.568 122.182 125.3 124.188C124.743 128.371 115.148 145.375 111.359 156.157C114.388 156.624 116.328 156.729 118.525 158.212C121.161 159.994 123.063 164.127 123.848 166.493C129.001 157.284 131.863 126.845 133.463 120.976C133.463 120.976 135.125 117.606 136.207 116.291C138.081 114.016 139.687 112.745 139.352 111.874L139.35 111.88Z" fill="white"/>
<path d="M124.235 167.973C124.059 166.612 121.892 160.494 118.522 158.217C116.205 156.65 114.174 156.622 110.849 156.081C106.964 155.448 107.802 157.442 102.703 162.003C99.0416 165.278 93.4509 165.329 88.558 165.757C80.2017 166.489 85.7857 166.07 66.21 169.92C65.0799 170.142 63.1274 169.595 61.1707 170.61C60.0407 171.195 58.9214 173.181 56.874 175.385C54.7345 177.685 52.8063 178.353 51.515 182.811C50.37 186.769 50.992 191.454 51.6586 196.13C52.6586 203.124 51.2589 222.24 55.1898 229.24C55.8524 234.681 55.4689 240.754 56.4987 247.437L106.214 247.525C104.898 238.141 101.162 224.895 101.057 219.11C100.952 213.326 101.097 207.882 101.097 207.882C102.451 196.44 101.773 191.607 98.9536 187.191C109.593 180.814 106.643 183.809 111.115 182.17C112.787 181.558 114.067 180.218 115.541 179.218C117.691 177.76 120.372 176.933 121.924 174.851C122.728 173.769 124.505 170.053 124.237 167.973H124.235Z" fill="#81F889"/>
<path d="M139.792 111.709C139.588 111.177 139.219 110.986 138.946 110.919C138.147 110.723 137.206 111.357 136.561 111.926C135.666 112.714 134.692 113.579 133.992 114.202C135.834 101.796 135.605 100.42 134.404 100.236C132.841 99.9801 132.484 102.152 132.322 103.074C132.157 104.023 132.382 102.756 132.192 101.12C131.931 98.846 129.677 99.3663 129.446 100.635C129.432 100.709 129.41 100.864 129.383 101.083C128.917 100.647 128.375 100.575 127.925 100.796C127.219 101.14 127.318 102.055 127.225 103.293C126.553 102.339 124.79 102.491 124.722 104.091C124.654 105.616 124.847 110.223 124.562 111.361C124.103 113.198 125.626 116.693 125.559 118.015C125.494 119.324 125.302 119.328 125.161 120.456C124.904 122.506 125.08 122.237 124.826 124.134C124.297 128.119 114.874 144.948 111.041 155.634C108.282 155.198 107.618 155.835 106.023 157.79C100.377 164.719 97.9364 164.52 86.9867 165.413C84.194 165.641 77.1372 165.94 76.7754 168.558L77.8011 168.425C78.9122 167.013 83.4298 166.654 87.0612 166.359C97.7305 165.49 100.801 165.698 106.757 158.39C108.753 155.942 108.886 156.29 112.443 156.805C114.851 157.156 116.442 157.387 118.256 158.612C121.501 160.805 123.599 166.756 123.764 168.036C124.008 169.92 122.34 173.498 121.542 174.57C119.889 176.79 117.26 177.211 113.864 179.883C112.286 181.124 110.89 182.164 108.336 182.311C106.974 182.388 105.943 182.447 98.6912 186.796C98.87 187.062 99.0394 187.329 99.202 187.597C109.734 181.288 106.694 184.296 111.276 182.619C113.042 181.971 114.344 180.601 115.806 179.612C117.932 178.166 120.668 177.329 122.301 175.135C123.15 173.994 124.993 170.16 124.703 167.913C124.664 167.608 124.545 167.123 124.355 166.523C129.521 156.875 132.318 127.065 133.906 121.148C135.828 117.296 136.507 116.61 138.069 114.882C139.311 113.508 140.134 112.601 139.792 111.709ZM137.367 114.246C135.866 115.908 135 116.788 133.04 120.762C131.841 123.114 128.944 154.795 123.932 165.325C122.97 162.839 121.171 159.435 118.787 157.824C116.629 156.366 114.7 156.175 111.996 155.778C113.881 150.572 117.027 144.022 119.873 138.103C125.118 127.188 125.811 125.488 125.939 122.412C126.107 118.267 127.076 119.575 126.024 115.388C125.691 114.061 125.276 112.414 125.482 111.587C125.702 110.712 125.68 108.702 125.661 106.759C125.634 104.105 125.577 103.708 125.989 103.652C126.204 103.624 126.44 103.759 126.475 103.887C126.608 104.366 126.742 105.124 126.866 106.08C126.664 107.591 126.414 109.507 126.298 110.415C126.188 111.258 127.141 111.29 127.245 110.481C128.184 103.223 128.133 104.186 128.211 102.697C128.234 102.271 128.261 101.74 128.341 101.647C128.378 101.629 128.462 101.591 128.612 101.678C129.07 101.952 129.157 102.622 129.18 102.861C128.866 105.717 128.397 110.276 128.37 110.542C128.343 110.803 128.532 111.041 128.792 111.064C129.042 111.086 129.286 110.9 129.313 110.641C129.637 107.487 130.276 101.372 130.379 100.804C130.414 100.617 131.114 100.044 131.25 101.228C131.482 103.238 131.08 108.972 130.848 111.434C130.792 112.03 131.681 112.162 131.787 111.563C133.26 103.228 133.429 101.056 134.248 101.169C134.932 101.754 133.008 114.419 132.859 115.357C132.792 115.796 133.311 116.076 133.643 115.782C137.111 112.724 138.116 111.689 138.719 111.841C138.754 111.849 138.837 111.869 138.908 112.05C139.042 112.397 138.189 113.336 137.367 114.246Z" fill="black"/>
<path d="M105.753 247.637C104.78 243.675 101.333 224.346 100.633 221.439C99.9912 218.766 100.597 208.299 100.623 207.854C102.379 193.001 100.623 189.392 95.536 183.545C91.1851 177.398 89.3531 173.581 86.7637 171.04C84.093 168.414 83.2773 168.09 80.5239 168.55C79.8952 168.64 79.757 167.716 80.3681 167.613C83.5835 167.084 84.6987 167.681 87.4277 170.363C90.1322 173.017 91.9249 176.799 96.2812 182.961C101.539 189.001 103.367 192.732 101.568 207.94C101.564 208.019 100.948 218.683 101.556 221.22C101.842 222.414 106.186 245.428 106.674 247.415C106.823 248.026 105.902 248.247 105.753 247.64V247.637Z" fill="black"/>
<path d="M81.0662 217.872C79.4063 215.511 77.2478 215.094 75.7018 215.48C76.1489 212.587 74.298 211.042 73.5568 208.514C72.6625 205.468 72.5053 201.671 73.0758 196.908C73.6693 191.941 72.9945 186.686 71.1734 182.11C70.9417 181.533 70.0595 181.876 70.2926 182.463C72.0568 186.893 72.7113 191.983 72.1341 196.794C70.3834 211.424 75.8061 211.247 74.6625 215.84C72.9565 216.426 72.4647 216.067 71.8373 215.178C71.4769 214.668 70.6991 215.21 71.0622 215.725C72.1259 217.229 73.256 217.434 75.5459 216.523C76.7776 216.034 78.7586 216.236 80.2912 218.415C81.535 220.186 80.6719 224.042 80.1015 225.352L76.611 233.365C75.8102 235.201 74.2546 237.164 72.9091 238.028C69.3929 240.283 65.649 237.071 62.2846 235.087C55.6952 231.203 54.2047 227.756 53.5651 220.461C53.4635 219.296 53.3578 218.09 53.1708 216.853C52.1437 210.023 52.6451 202.924 51.8538 196.014C50.3416 182.792 52.1939 180.43 56.1871 176.736C57.1627 175.834 58.3361 174.426 59.5786 172.934C61.4932 170.632 61.4499 170.136 64.8631 170.493C65.4715 170.555 65.9973 170.608 66.397 170.541C67.0176 170.436 66.8496 169.498 66.2357 169.608C65.9688 169.655 65.4796 169.602 64.962 169.549C61.1396 169.147 60.9146 169.85 58.851 172.327C57.6288 173.795 56.4757 175.18 55.5448 176.04C51.4283 179.847 49.3524 182.469 50.9148 196.121C51.702 203.011 51.1966 210.076 52.2359 216.991C52.9012 221.409 52.5218 225.464 54.8158 229.416C55.0461 235.377 55.2345 242.213 56.0814 247.692C56.1762 248.313 57.1152 248.167 57.0177 247.547C56.225 242.416 56.0245 236.202 55.8212 230.909C57.1301 232.602 59.0258 234.264 61.8035 235.902C63.8279 237.098 65.2791 238.286 67.5284 239.169C69.5514 239.965 71.6273 239.978 73.424 238.823C74.9321 237.852 76.6015 235.762 77.4822 233.74L80.9727 225.728C81.5472 224.408 82.6367 220.096 81.0689 217.866L81.0662 217.872Z" fill="black"/>
<path d="M84.7681 135.082C85.8196 136.574 87.1949 139.187 87.8331 140.821C88.2233 141.83 88.3643 142.225 87.8534 143.176C87.3792 144.063 87.0811 144.315 87.7017 145.877C89.3277 150 92.2694 151.4 88.6326 152.531C88.6353 155.198 88.0065 157.809 87.9835 161.168C87.9835 161.168 87.6515 162.791 85.8954 162.832C84.1407 162.873 78.4118 161.932 78.4118 161.932C78.4118 161.932 78.802 168.312 83.092 169.675C79.3196 173.515 68.859 172.935 62.8496 171.595C62.8496 171.595 66.1152 168.037 64.4553 155.477C62.7954 142.919 68.9187 127.372 84.7681 135.082Z" fill="white"/>
<path d="M89.6554 149.476C89.7665 149.454 90.5836 149.677 91.0023 147.949C91.1188 147.467 91.3885 146.814 91.5226 146.096C91.9223 143.974 91.0877 143.565 90.3831 143.351C88.772 142.863 87.7218 143.295 87.3926 144.879C87.6663 146.367 89.1839 148.715 89.6554 149.476Z" fill="white"/>
<path d="M84.8918 153.428C84.5489 152.754 84.4866 152.168 84.7075 151.69C85.0733 150.901 86.0042 150.725 86.8104 150.519C87.427 150.362 87.6627 151.267 87.0652 151.433C85.8348 151.778 85.1438 151.831 85.7373 153C86.0205 153.556 85.1722 153.985 84.8918 153.428Z" fill="black"/>
<path d="M85.8904 144.258C85.8742 144.021 85.7455 143.805 85.5436 143.678C84.1967 142.825 80.4704 142.821 79.2008 143.694C79.0138 143.823 78.8973 144.031 78.8878 144.259C78.8566 144.953 78.8973 146.752 79.1724 148.022C79.4 149.069 80.0084 149.292 81.2265 149.468C82.8783 149.706 85.0409 149.774 85.5341 148.441C86.0273 147.107 85.9433 145.035 85.8891 144.259L85.8904 144.258Z" fill="white"/>
<path d="M84.3675 146.275C84.3052 146.218 82.9041 145.035 80.8608 146.315C80.3228 146.646 79.8283 145.842 80.3567 145.51C82.4949 144.173 84.3296 144.962 85.0016 145.567C85.4678 145.986 84.835 146.683 84.3689 146.273L84.3675 146.275Z" fill="black"/>
<path d="M83.6614 146.388C83.8021 145.998 83.6245 145.576 83.2647 145.446C82.9051 145.317 82.4994 145.527 82.3587 145.918C82.2181 146.308 82.3957 146.729 82.7555 146.859C83.1152 146.988 83.5208 146.778 83.6614 146.388Z" fill="black"/>
<path d="M90.5201 142.898C89.1366 142.476 87.9781 142.73 87.4225 143.571C87.3223 143.722 87.0486 144.185 86.9822 144.513C86.9022 144.91 87.0418 144.605 86.3954 144.827C86.3724 144.185 86.3873 143.647 85.7979 143.276C84.2708 142.31 80.3562 142.323 78.9335 143.302C78.6245 143.513 78.4307 143.863 78.4145 144.237C78.4009 144.524 78.3996 145.017 78.424 145.594L74.0229 145.987C73.4254 146.041 73.4633 146.933 74.0649 146.933L78.485 146.54C78.7018 149.009 79.0364 149.63 81.1611 149.934C82.9253 150.186 85.3656 150.264 85.9808 148.602C86.2776 147.804 86.3792 146.776 86.4022 145.88C86.5635 145.784 86.8114 145.67 87.0282 145.68C87.3358 145.715 86.806 145.803 89.2518 149.724C89.3737 149.921 89.5472 149.982 89.7003 149.947C90.6881 150.04 91.2287 149.022 91.4618 148.058C91.5797 147.573 91.8425 146.956 91.9875 146.181C92.436 143.798 91.4388 143.173 90.5201 142.895V142.898ZM85.0919 148.275C84.7234 149.27 82.8264 149.219 81.2966 148.997C80.0866 148.822 79.7925 148.631 79.6381 147.921C79.3671 146.67 79.3359 144.897 79.363 144.279C79.3942 143.548 83.7532 143.102 85.2925 144.078C85.3656 144.124 85.4131 144.204 85.4185 144.289C85.4605 144.903 85.5621 147.005 85.0919 148.275ZM91.0566 146.009C90.9252 146.708 90.6705 147.302 90.5404 147.838C90.3846 148.486 90.1691 148.865 89.8981 148.971C89.2396 147.922 88.68 147.043 88.1827 145.803C88.2518 145.647 88.2355 145.462 88.1231 145.318C87.9198 145.056 87.9469 145.211 87.8751 144.883C88.0783 143.897 88.722 143.342 90.245 143.807C90.7341 143.955 91.4035 144.158 91.0566 146.01V146.009Z" fill="black"/>
<path d="M81.8633 156.035C82.5421 156.558 83.2318 157.092 83.7223 157.794C83.9418 158.108 84.1478 158.478 84.5109 158.602C85.4852 158.934 86.5123 157.92 86.4581 157.316C85.9594 157.047 84.3768 156.862 83.8294 156.69C83.1709 156.482 82.5245 156.232 81.8633 156.035Z" fill="white"/>
<path d="M84.909 159.142C84.1529 159.142 83.7965 158.746 83.4158 158.188C82.9036 157.437 82.3806 157.033 81.573 156.41C81.1611 156.094 81.4903 155.433 81.9971 155.579C82.661 155.779 83.302 156.028 83.97 156.238C84.5187 156.411 86.0716 156.569 86.6813 156.899C87.4469 157.312 86.3886 159.14 84.9076 159.14L84.909 159.142ZM83.8561 157.191C84.2315 157.64 84.413 158.069 84.6624 158.154C85.1176 158.303 85.6461 157.978 85.8832 157.613C85.283 157.449 84.4212 157.331 83.8561 157.191Z" fill="black"/>
<path d="M79.3188 141.413C83.5667 138.664 85.5585 140.935 85.6425 141.035C86.0423 141.508 85.3336 142.126 84.9203 141.65C84.8512 141.571 83.3336 139.943 79.835 142.21C79.3093 142.548 78.7944 141.754 79.3188 141.413Z" fill="black"/>
<path d="M88.1426 145.702C87.6101 144.361 87.8228 144.227 88.2713 143.402C88.8987 142.248 88.6738 141.679 88.2754 140.651C87.6399 139.025 86.3852 136.643 85.3771 135.133C86.4678 133.976 85.8988 131.618 83.8459 131.552C83.7023 130.879 83.2402 130.242 82.5573 129.807C80.7782 128.677 78.8284 129.198 77.0181 127.961C75.9585 127.238 74.5262 127.128 73.3406 127.697C72.973 127.872 72.6296 127.856 72.3108 127.647C70.7512 126.625 68.6117 126.673 67.0859 127.731C65.8732 127.017 64.0819 127.438 63.3949 128.731C63.0914 129.303 62.9491 130.099 62.544 130.227C61.9085 130.429 61.8949 130.013 61.0846 131.106C60.4193 132.003 59.0738 131.127 57.8638 133.724C55.9112 137.914 53.7473 145.752 58.025 148.552C58.6511 148.962 58.6483 148.962 58.7622 149.423C59.1212 150.873 59.6592 151.41 60.964 152.568C61.8407 153.346 62.8177 154.179 62.7486 155.309C62.6659 156.628 63.0277 157.634 64.3217 157.897C64.5643 160.56 64.9803 167.983 62.5426 171.37C62.4423 171.508 62.3082 172.004 62.9044 172.125C69.4436 173.436 76.3961 174.16 82.3825 170.926C82.7253 170.741 83.0343 170.526 83.3026 170.282C83.5289 170.079 83.5045 169.713 83.2511 169.539C79.8622 167.22 79.5194 165.927 78.9408 162.51C81.3676 163.017 85.4475 164.302 87.5478 162.63C88.1115 162.183 88.4285 161.56 88.4218 160.92C88.3689 157.124 89.0261 155.004 89.0369 152.893C89.3743 152.775 89.7077 152.63 89.9895 152.445C92.2415 150.966 89.5992 149.404 88.1399 145.7L88.1426 145.702ZM89.4719 151.655C88.7307 152.141 87.5952 152.243 86.9204 152.544C86.354 152.801 86.7307 153.663 87.3107 153.41C87.5396 153.305 87.7077 153.274 88.0844 153.176C87.9597 155.794 87.4218 156.903 87.476 160.937C87.4773 161.098 87.4326 161.517 86.9624 161.891C86.3933 162.342 84.8703 162.96 81.0628 162.022C75.3568 160.617 73.5655 161.105 72.4206 159.485C72.0601 158.972 71.2837 159.521 71.6469 160.033C72.8257 161.701 74.4924 161.657 77.9557 162.315C78.4381 165.805 78.9232 167.591 82.1833 169.947C77.0181 173.218 69.1957 172.249 63.7133 171.302C65.8258 167.611 65.5615 161.083 65.2797 157.933C66.3231 157.802 67.5764 157.181 67.9667 156.653C68.6117 155.784 68.1171 154.817 68.0155 154.033C70.0005 155.347 71.7024 154.941 72.4504 153.869C72.8108 153.354 72.0303 152.812 71.674 153.327C71.2688 153.904 70.2648 154.266 68.7675 153.387C67.006 152.35 65.6469 149.918 65.8597 148.183C66.1428 145.877 69.5141 145.906 70.6103 148.392C70.6875 148.568 70.861 148.716 71.0507 148.675C74.5859 148.626 75.2688 146.881 73.6455 144.662C73.2783 144.162 73.1536 143.994 73.5195 143.383C73.8447 142.838 73.6577 142.197 73.0371 141.626C73.6685 140.93 73.7173 139.717 73.0439 139.017C74.2024 138.835 74.8934 137.803 74.7241 136.857C77.5411 137.17 78.0912 139.196 80.9096 136.744C81.9462 136.861 83.5614 136.547 84.2565 135.719C84.3676 135.698 84.4733 135.67 84.5763 135.636C85.541 137.078 86.7876 139.44 87.3933 140.991C87.8445 142.16 87.8242 142.252 87.3039 143.193C87.0207 143.705 86.7714 144.145 86.9258 144.965C87.2036 146.484 88.5613 148.617 89.2524 149.725C90.1385 151.145 90.045 151.279 89.4719 151.655Z" fill="black"/>
<path d="M77.7718 222.083C77.7718 222.083 91.9979 229.602 97.5656 232.82C103.133 236.037 108.205 236.932 111.053 236.904C117.422 236.838 118.168 235.301 119.672 236.495C121.611 238.033 121.667 237.9 123.027 239.137C123.591 239.649 123.82 240.847 124.46 241.959C125.366 243.535 126.938 244.993 127.663 245.501C127.663 245.501 128.269 246.184 127.877 246.924C127.485 247.664 125.395 247.447 124.132 246.619C124.132 246.619 123.122 249.005 119.987 246.568C116.851 244.13 115.32 242.854 115.32 242.854C115.32 242.854 111.461 244.05 110.023 243.92C108.586 243.79 104.494 242.309 104.494 242.309L84.0725 239.783C84.0725 239.783 77.3666 239.087 69.2461 235.428C71.9859 230.397 74.6837 224.54 77.7718 222.083Z" fill="white"/>
<path d="M127.736 245.109C127.63 244.971 125.905 243.846 124.374 240.498C123.774 239.189 123.711 238.908 121.625 237.384C119.212 235.625 119.454 235.27 116.931 235.796C110.744 237.086 104.977 236.555 97.8025 232.41C92.9205 229.589 81.2621 223.396 78.5588 221.964C78.8244 221.785 78.9884 221.703 78.9884 221.703C79.5534 221.426 79.1388 220.577 78.5778 220.848C78.4775 220.895 76.0887 222.068 74.0643 225.804C72.8434 228.058 69.1294 234.917 68.0955 235.605C67.7121 235.858 67.8828 236.473 68.3584 236.473C68.6416 236.473 68.937 236.137 69.1565 235.88C79.1361 240.003 83.3 240.251 92.9476 241.271C103.639 242.396 104.105 242.517 106.527 243.553C109.304 244.744 110.271 244.492 113.579 243.71C115.881 243.167 115.652 243.27 116.641 244.175C118.031 245.446 120.748 248.038 122.735 248.038C123.358 248.038 124.065 247.601 124.183 246.952C125.075 247.377 126.171 247.892 126.865 247.892C128.636 247.892 129.68 245.93 127.736 245.109ZM127.827 246.416C127.753 246.683 127.3 247.01 126.653 246.93C126.161 246.864 124.404 246.023 123.385 245.498C122.094 244.544 120.014 242.617 119.239 241.53C118.874 241.018 118.102 241.57 118.468 242.08C119.382 243.361 121.637 245.391 122.852 246.284C123.167 246.514 123.277 246.709 123.247 246.803C123.202 246.941 122.935 247.093 122.737 247.093C121.118 247.093 118.403 244.498 117.286 243.477C116.094 242.388 116.075 242.148 113.365 242.79C110.077 243.561 109.362 243.739 106.905 242.685C104.529 241.666 104.323 241.518 93.0506 240.331C83.7756 239.351 79.7282 239.174 69.7568 235.101C70.8191 233.595 72.4451 230.791 74.899 226.258C75.8732 224.461 76.9383 223.303 77.7377 222.604C79.4382 223.505 92.1766 230.257 97.3283 233.232C104.097 237.144 109.542 237.435 111.059 237.38C117.202 237.316 118.163 235.902 119.378 236.869C121.259 238.361 121.411 238.311 122.71 239.491C123.156 239.898 123.576 241.187 124.178 242.229C124.542 242.862 124.957 243.48 125.38 244.028C124.161 243.328 123.014 242.271 121.3 239.8C120.942 239.284 120.161 239.826 120.52 240.339C123.213 244.22 124.508 244.762 127.52 246.047C127.766 246.151 127.87 246.277 127.831 246.418L127.827 246.416Z" fill="black"/>
<path d="M207.271 243.363L216.897 197.763H255.718L245.448 247.646H183.943V243.363H207.271Z" fill="white"/>
<path d="M183.469 243.364V247.646C183.469 247.907 183.681 248.12 183.943 248.12H245.448C245.682 248.12 245.881 247.949 245.917 247.716L256.181 197.862C256.361 197.015 257.567 197.29 216.897 197.29C216.672 197.29 216.479 197.446 216.433 197.665L206.886 242.89H183.943C183.681 242.89 183.469 243.101 183.469 243.364ZM255.132 198.237L245.705 242.89H207.853L217.28 198.237H255.132ZM245.04 247.171H207.179L207.679 243.837H245.54L245.039 247.171H245.04ZM184.417 243.837H206.719L206.219 247.171H184.417V243.837Z" fill="black"/>
<path d="M231.709 228.871C227.633 228.871 225.065 224.172 226.422 219.602C227.457 216.123 230.468 213.901 233.411 214.429C233.694 214.481 233.87 214.769 233.778 215.048C232.632 218.428 234.408 221.172 237.628 220.562C237.931 220.51 238.187 220.735 238.19 221.023C238.232 225.055 235.397 228.871 231.71 228.871H231.709ZM227.332 219.872C226.335 223.231 227.686 226.735 230.346 227.685C233.739 228.906 236.996 225.466 237.228 221.574C233.758 221.849 231.775 218.895 232.712 215.303C230.575 215.208 228.219 216.891 227.332 219.872Z" fill="black"/>
<path d="M235.27 218.608C234.853 218.605 234.674 218.336 234.717 218.061C235.051 215.906 236.698 211.903 240.502 212.104C240.774 212.12 240.981 212.361 240.945 212.641C240.433 216.635 238.529 218.634 235.27 218.608ZM239.929 213.054C237.175 213.253 236.106 216.342 235.777 217.639C238.777 217.401 239.616 215.042 239.929 213.054Z" fill="black"/>
<path d="M63.7299 243.362L54.104 197.761H15.2832L25.5527 247.645L87.0576 247.644V243.362H63.7299Z" fill="white"/>
<path d="M87.0569 242.889H64.1141L54.5667 197.664C54.5207 197.445 54.3269 197.289 54.1033 197.289H15.2826C14.9777 197.289 14.7568 197.568 14.8192 197.861L25.0833 247.715C25.1185 247.948 25.3177 248.119 25.5521 248.119H87.0569C87.3184 248.119 87.5312 247.908 87.5312 247.645V243.363C87.5312 243.102 87.3184 242.889 87.0569 242.889ZM53.7185 198.236L63.1452 242.889H25.2933L15.8666 198.236H53.7185ZM25.4586 243.836H63.32L63.82 247.171H25.9586L25.4586 243.836ZM86.5813 247.171H64.7794L64.2794 243.836H86.5813V247.171Z" fill="black"/>
<path d="M38.8938 229.318C35.8721 229.318 32.9819 226.665 32.238 223.047C31.509 219.491 33.1093 216.113 35.9588 215.188C36.2244 215.096 36.5252 215.272 36.5726 215.56C37.1634 219.096 40.0292 220.656 42.5685 218.605C42.788 218.426 43.1363 218.48 43.2826 218.746C45.8896 223.503 43.5387 229.316 38.8924 229.316L38.8938 229.318ZM35.7542 216.289C33.6811 217.284 32.5808 219.995 33.1675 222.857C33.8735 226.291 36.7271 228.727 39.5103 228.324C43.0726 227.795 44.3327 223.245 42.6959 219.688C39.9859 221.461 36.681 220.136 35.7542 216.289Z" fill="black"/>
<path d="M38.8237 217.772C38.1015 215.713 37.653 211.4 41.1136 209.791C41.3724 209.669 41.6651 209.804 41.7573 210.053C43.203 213.853 42.4266 216.503 39.4903 218.034C39.2437 218.164 38.9199 218.049 38.8237 217.772ZM41.0567 210.899C38.6895 212.385 39.222 215.604 39.5554 216.903C42.0933 215.278 41.718 212.801 41.0567 210.899Z" fill="black"/>
<path d="M264.225 248.118H6.77521C6.14785 248.118 6.14785 247.171 6.77521 247.171H264.225C264.853 247.171 264.853 248.118 264.225 248.118Z" fill="black"/>
</svg>
