<svg width="721" height="136" viewBox="0 0 721 136" fill="none" xmlns="http://www.w3.org/2000/svg">
<g clip-path="url(#clip0_4005_16497)">
<path opacity="0.2" d="M100.415 18.2935L68.4922 18.2935L68.4922 25.2976L100.415 25.2976L100.415 18.2935Z" fill="#00BF4D" fill-opacity="0.5"/>
<path d="M68.4895 25.9873L31.9766 25.9873L31.9766 35.6313L68.4895 35.6313L68.4895 25.9873Z" fill="#00BF4D" fill-opacity="0.5"/>
<path opacity="0.5" d="M9.36242 61.3525L-47.0781 61.3525L-47.0781 66.1745L9.36242 66.1745L9.36242 61.3525Z" fill="#00BF4D" fill-opacity="0.5"/>
<path opacity="0.2" d="M378.345 18.2935L346.422 18.2935L346.422 25.2976L378.345 25.2976L378.345 18.2935Z" fill="#00BF4D" fill-opacity="0.5"/>
<path d="M346.427 25.9873L309.914 25.9873L309.914 35.6313L346.427 35.6313L346.427 25.9873Z" fill="#00BF4D" fill-opacity="0.5"/>
<path opacity="0.5" d="M287.3 61.3525L230.859 61.3525L230.859 66.1745L287.3 66.1745L287.3 61.3525Z" fill="#00BF4D" fill-opacity="0.5"/>
<path d="M656.282 18.2935L624.359 18.2935L624.359 25.2976L656.282 25.2976L656.282 18.2935Z" fill="#00BF4D" fill-opacity="0.5"/>
<path d="M624.357 25.9873L587.844 25.9873L587.844 35.6313L624.357 35.6313L624.357 25.9873Z" fill="#00BF4D" fill-opacity="0.5"/>
<path d="M565.222 61.3525L508.781 61.3525L508.781 66.1745L565.222 66.1745L565.222 61.3525Z" fill="#00BF4D" fill-opacity="0.5"/>
<path opacity="0.2" d="M186.734 96.323L127.484 96.323L127.484 102.18L186.734 102.18L186.734 96.323Z" fill="#00BF4D" fill-opacity="0.5"/>
<path opacity="0.2" d="M464.656 96.323L405.406 96.323L405.406 102.18L464.656 102.18L464.656 96.323Z" fill="#00BF4D" fill-opacity="0.5"/>
<path d="M742.586 96.323L683.336 96.323L683.336 102.18L742.586 102.18L742.586 96.323Z" fill="#00BF4D" fill-opacity="0.5"/>
</g>
<defs>
<clipPath id="clip0_4005_16497">
<rect width="745" height="380.368" fill="white"/>
</clipPath>
</defs>
</svg>
