<svg width="674" height="281" viewBox="0 0 674 281" fill="none" xmlns="http://www.w3.org/2000/svg">
<g clip-path="url(#clip0_4005_16397)">
<path opacity="0.2" d="M29.4152 120.051L-2.50781 120.051L-2.50781 127.055L29.4152 127.055L29.4152 120.051Z" fill="#00BF4D" fill-opacity="0.5"/>
<path opacity="0.2" d="M115.734 -3.15747L56.4844 -3.15747L56.4844 2.69915L115.734 2.69915L115.734 -3.15747Z" fill="#00BF4D" fill-opacity="0.5"/>
<path opacity="0.2" d="M165.22 36.9172L133.297 36.9172L133.297 43.9214L165.22 43.9214L165.22 36.9172Z" fill="#00BF4D" fill-opacity="0.5"/>
<path d="M133.286 44.6106L96.7734 44.6106L96.7734 54.2546L133.286 54.2546L133.286 44.6106Z" fill="#00BF4D" fill-opacity="0.5"/>
<path opacity="0.5" d="M74.1593 79.9761L17.7188 79.9761L17.7188 84.7981L74.1593 84.7981L74.1593 79.9761Z" fill="#00BF4D" fill-opacity="0.5"/>
<path opacity="0.2" d="M257.859 79.9761L198.609 79.9761L198.609 85.8327L257.859 85.8327L257.859 79.9761Z" fill="#00BF4D" fill-opacity="0.5"/>
<path opacity="0.2" d="M307.345 120.051L275.422 120.051L275.422 127.055L307.345 127.055L307.345 120.051Z" fill="#00BF4D" fill-opacity="0.5"/>
<path d="M275.427 127.745L238.914 127.745L238.914 137.389L275.427 137.389L275.427 127.745Z" fill="#00BF4D" fill-opacity="0.5"/>
<path opacity="0.5" d="M216.3 163.11L159.859 163.11L159.859 167.932L216.3 167.932L216.3 163.11Z" fill="#00BF4D" fill-opacity="0.5"/>
<path opacity="0.2" d="M393.656 -3.15747L334.406 -3.15747L334.406 2.69915L393.656 2.69915L393.656 -3.15747Z" fill="#00BF4D" fill-opacity="0.5"/>
<path opacity="0.2" d="M443.142 36.9172L411.219 36.9172L411.219 43.9214L443.142 43.9214L443.142 36.9172Z" fill="#00BF4D" fill-opacity="0.5"/>
<path d="M411.224 44.6106L374.711 44.6106L374.711 54.2546L411.224 54.2546L411.224 44.6106Z" fill="#00BF4D" fill-opacity="0.5"/>
<path opacity="0.5" d="M352.097 79.9761L295.656 79.9761L295.656 84.7981L352.097 84.7981L352.097 79.9761Z" fill="#00BF4D" fill-opacity="0.5"/>
<path opacity="0.2" d="M535.781 79.9761L476.531 79.9761L476.531 85.8327L535.781 85.8327L535.781 79.9761Z" fill="#00BF4D" fill-opacity="0.5"/>
<path opacity="0.2" d="M585.282 120.051L553.359 120.051L553.359 127.055L585.282 127.055L585.282 120.051Z" fill="#00BF4D" fill-opacity="0.5"/>
<path d="M553.357 127.745L516.844 127.745L516.844 137.389L553.357 137.389L553.357 127.745Z" fill="#00BF4D" fill-opacity="0.5"/>
<path opacity="0.5" d="M494.222 163.11L437.781 163.11L437.781 167.932L494.222 167.932L494.222 163.11Z" fill="#00BF4D" fill-opacity="0.5"/>
<path d="M671.586 -3.15747L612.336 -3.15747L612.336 2.69915L671.586 2.69915L671.586 -3.15747Z" fill="#00BF4D" fill-opacity="0.5"/>
<path d="M689.154 44.6106L652.641 44.6106L652.641 54.2546L689.154 54.2546L689.154 44.6106Z" fill="#00BF4D" fill-opacity="0.5"/>
<path opacity="0.5" d="M630.019 79.9761L573.578 79.9761L573.578 84.7981L630.019 84.7981L630.019 79.9761Z" fill="#00BF4D" fill-opacity="0.5"/>
<path opacity="0.2" d="M115.734 198.075L56.4844 198.075L56.4844 203.931L115.734 203.931L115.734 198.075Z" fill="#00BF4D" fill-opacity="0.5"/>
<path opacity="0.2" d="M165.22 238.149L133.297 238.149L133.297 245.154L165.22 245.154L165.22 238.149Z" fill="#00BF4D" fill-opacity="0.5"/>
<path d="M133.286 245.843L96.7734 245.843L96.7734 255.487L133.286 255.487L133.286 245.843Z" fill="#00BF4D" fill-opacity="0.5"/>
<path opacity="0.2" d="M393.656 198.075L334.406 198.075L334.406 203.931L393.656 203.931L393.656 198.075Z" fill="#00BF4D" fill-opacity="0.5"/>
<path opacity="0.2" d="M443.142 238.149L411.219 238.149L411.219 245.154L443.142 245.154L443.142 238.149Z" fill="#00BF4D" fill-opacity="0.5"/>
<path d="M411.224 245.843L374.711 245.843L374.711 255.487L411.224 255.487L411.224 245.843Z" fill="#00BF4D" fill-opacity="0.5"/>
<path opacity="0.2" d="M671.586 198.075L612.336 198.075L612.336 203.931L671.586 203.931L671.586 198.075Z" fill="#00BF4D" fill-opacity="0.5"/>
<path d="M689.154 245.843L652.641 245.843L652.641 255.487L689.154 255.487L689.154 245.843Z" fill="#00BF4D" fill-opacity="0.5"/>
</g>
<defs>
<clipPath id="clip0_4005_16397">
<rect width="745" height="380.368" fill="white" transform="translate(-71 -99.4805)"/>
</clipPath>
</defs>
</svg>
