<svg width="114" height="44" viewBox="0 0 114 44" fill="none" xmlns="http://www.w3.org/2000/svg">
<g clip-path="url(#clip0_1149_447)">
<path fill-rule="evenodd" clip-rule="evenodd" d="M82.959 4.57153V34.5952H85.5034V14.7491H90.7193L90.8524 34.5952H101.024V11.4591H93.2637V7.07003L114 6.93514V0.246094C114 0.246094 93.1588 3.09136 82.959 4.57153ZM85.4867 11.0987L85.4855 6.3526H90.5921V11.0987H85.4867Z" fill="white"/>
<path d="M106.367 34.3977L114 29.1238V11.5898H106.367V34.3977Z" fill="white"/>
<path d="M0.163386 29.0223C0.163386 31.0646 0.0816932 33.2703 0 34.6183H4.28889L4.53397 31.6365H4.61566C6.04529 34.0873 8.3327 35.0676 10.906 35.0676C15.3992 35.0676 19.9331 31.5139 19.9331 24.3658C19.974 18.3205 16.502 14.2767 11.6413 14.2767C8.65948 14.2767 6.49461 15.5429 5.26921 17.4627H5.18752V5.61719H0.163386V29.0223ZM5.18752 23.1812C5.18752 22.6911 5.26921 22.2418 5.3509 21.8742C5.88191 19.6684 7.76085 18.198 9.80318 18.198C13.1526 18.198 14.8273 21.0572 14.8273 24.57C14.8273 28.6138 12.9075 31.1055 9.76233 31.1055C7.59746 31.1055 5.84106 29.635 5.31006 27.5927C5.22836 27.2251 5.18752 26.8166 5.18752 26.4081V23.1812Z" fill="white"/>
<path d="M38.8029 14.7266H33.7787V26.7355C33.7787 27.3073 33.697 27.8792 33.4928 28.2877C33.0026 29.5948 31.6955 30.9835 29.6532 30.9835C26.9982 30.9835 25.9362 28.8595 25.9362 25.5509V14.7266H20.9121V26.4087C20.9121 32.9033 24.2206 35.0682 27.8151 35.0682C31.4096 35.0682 33.3703 33.0259 34.228 31.6371H34.3506L34.5957 34.6189H38.9662C38.8845 32.985 38.8029 31.0244 38.8029 28.6553V14.7266Z" fill="white"/>
<path d="M54.5006 5.61719V16.85H54.4189C53.5202 15.3795 51.5596 14.2767 48.8229 14.2767C44.0438 14.2767 39.8775 18.2388 39.9183 24.8968C39.9183 31.0238 43.6762 35.0676 48.4553 35.0676C51.3145 35.0676 53.7245 33.6788 54.909 31.4731H54.9907L55.2358 34.6183H59.6881C59.6064 33.2703 59.5247 31.0646 59.5247 29.0223V5.61719H54.5006ZM54.5006 25.9997C54.5006 26.5307 54.4597 27.0208 54.3372 27.4701C53.847 29.635 52.0498 31.0238 50.0074 31.0238C46.8214 31.0238 45.0242 28.3688 45.0242 24.6926C45.0242 21.0164 46.8214 18.1571 50.0483 18.1571C52.3357 18.1571 53.9287 19.7501 54.378 21.6699C54.4597 22.0784 54.5006 22.6094 54.5006 23.0179V25.9997Z" fill="white"/>
<path d="M79.8694 20.4451C79.8694 17.7084 79.9511 16.0745 80.0328 14.7266H75.6622L75.458 17.3816H75.3763C74.4368 15.7478 72.6804 14.2773 69.6169 14.2773C64.8379 14.2773 60.5898 18.2394 60.5898 24.7749C60.5898 30.4117 64.1026 34.4963 69.0451 34.4963C71.7001 34.4963 73.7016 33.3118 74.8453 31.5554H74.927V33.2709C74.927 37.5598 72.4762 39.2754 69.2085 39.2754C66.7985 39.2754 64.6745 38.4993 63.4082 37.7641L62.3054 41.5628C64.0209 42.584 66.7168 43.1558 69.2493 43.1558C71.986 43.1558 74.8861 42.584 76.9285 40.7459C79.0116 38.8669 79.8694 35.8851 79.8694 31.7188V20.4451ZM74.8453 25.9186C74.8453 26.4904 74.8044 27.1848 74.6411 27.675C74.0692 29.5131 72.4353 30.7385 70.5564 30.7385C67.4112 30.7385 65.6957 28.0017 65.6957 24.6115C65.6957 20.5677 67.7788 18.1169 70.5972 18.1169C72.7213 18.1169 74.1509 19.5057 74.6819 21.3437C74.8044 21.7522 74.8453 22.2015 74.8453 22.6917V25.9186Z" fill="white"/>
</g>
<defs>
<clipPath id="clip0_1149_447">
<rect width="114" height="44" fill="white"/>
</clipPath>
</defs>
</svg>
