<svg width="616" height="420" viewBox="0 0 616 420" fill="none" xmlns="http://www.w3.org/2000/svg">
<g clip-path="url(#clip0_437_56994)">
<path fill-rule="evenodd" clip-rule="evenodd" d="M222.654 332.538L136.681 333.81C136.681 333.81 134.898 356.849 137.608 361.525C140.318 366.201 172.853 376.382 188.618 379.749L283.972 376.323C283.972 376.323 230.031 362.277 224.437 355.8C220.066 350.742 222.654 332.538 222.654 332.538Z" fill="white"/>
<path fill-rule="evenodd" clip-rule="evenodd" d="M24.3906 121.402L332.524 165.658L330.372 309.247H24.3906V121.402Z" fill="white"/>
<path fill-rule="evenodd" clip-rule="evenodd" d="M330.372 309.055H24.3906V320.228C24.3911 322.219 24.787 324.188 25.5554 326.025C26.3241 327.86 27.4498 329.524 28.8675 330.92C30.2849 332.317 31.9659 333.42 33.8128 334.161C35.6597 334.902 37.6354 335.268 39.6253 335.239L320.17 331.085C322.815 331.047 325.339 329.98 327.208 328.111C329.079 326.242 330.148 323.718 330.189 321.073L330.372 309.055Z" fill="#81F889"/>
<path fill-rule="evenodd" clip-rule="evenodd" d="M332.571 165.466L332.68 158.349C332.736 154.611 331.457 150.975 329.068 148.098C326.679 145.222 323.341 143.294 319.657 142.662L45.4877 95.6677C42.8975 95.2246 40.2416 95.3522 37.7059 96.042C35.1701 96.7315 32.8155 97.9666 30.8063 99.6605C28.7974 101.355 27.1824 103.467 26.0741 105.849C24.966 108.232 24.3915 110.828 24.3906 113.456V121.21L332.571 165.466Z" fill="#81F889"/>
<path fill-rule="evenodd" clip-rule="evenodd" d="M180.834 128.953C181.676 128.801 182.543 128.912 183.32 129.271C184.096 129.629 184.743 130.218 185.172 130.957C185.602 131.697 185.794 132.55 185.721 133.402C185.649 134.254 185.316 135.063 184.768 135.719C184.22 136.375 183.483 136.846 182.657 137.069C181.832 137.291 180.958 137.255 180.154 136.963C179.35 136.672 178.656 136.14 178.165 135.439C177.674 134.739 177.411 133.905 177.411 133.05C177.331 132.055 177.645 131.068 178.285 130.302C178.926 129.536 179.841 129.052 180.834 128.953Z" fill="white"/>
<path d="M180.835 137.867C179.852 138.014 178.847 137.856 177.957 137.415C177.066 136.974 176.331 136.271 175.851 135.401C175.371 134.53 175.169 133.534 175.272 132.545C175.375 131.556 175.779 130.623 176.428 129.87C177.076 129.117 177.941 128.581 178.903 128.333C179.866 128.086 180.881 128.138 181.813 128.485C182.745 128.831 183.548 129.454 184.115 130.27C184.683 131.087 184.987 132.057 184.987 133.051C185.068 134.239 184.678 135.41 183.901 136.312C183.124 137.214 182.022 137.773 180.835 137.867ZM180.835 129.674C180.135 129.52 179.405 129.586 178.745 129.864C178.084 130.142 177.526 130.618 177.148 131.226C176.77 131.835 176.59 132.546 176.633 133.261C176.676 133.977 176.941 134.661 177.39 135.219C177.838 135.778 178.449 136.184 179.138 136.38C179.827 136.577 180.561 136.554 181.236 136.316C181.912 136.078 182.498 135.636 182.911 135.051C183.325 134.466 183.548 133.767 183.547 133.051C183.624 132.246 183.384 131.442 182.877 130.811C182.371 130.181 181.638 129.773 180.835 129.674Z" fill="#244D3B"/>
<path d="M200.916 133.062C199.417 133.062 198.242 134.603 198.242 136.574C198.242 138.544 199.417 140.086 200.916 140.086C202.414 140.086 203.589 138.542 203.589 136.574C203.589 134.605 202.405 133.062 200.916 133.062Z" fill="#244D3B"/>
<path d="M319.79 141.953L45.6091 94.9582C32.9034 92.7841 13.6391 101.942 11.8244 123.735C9.62087 150.208 11.0266 314.533 11.0402 316.167C11.1841 320.951 13.1579 325.496 16.5545 328.868C22.5481 334.864 31.3802 336.084 39.6337 335.96L129.159 334.633L129.125 356.241C129.125 356.662 129.396 366.581 137.686 370.66C146.712 375.106 178.343 388.846 189.32 388.846C194.53 388.846 282.333 388.702 284.629 383.958C285.151 382.706 285.422 381.361 285.422 380.003C285.422 378.645 285.151 377.3 284.629 376.048C284.579 375.933 284.502 375.833 284.403 375.759C284.148 375.567 230.513 361.747 224.979 355.34C221.304 351.089 222.89 336.428 223.284 333.25L320.177 331.815C323.011 331.784 325.72 330.645 327.725 328.64C329.732 326.638 330.871 323.928 330.905 321.094L333.391 158.374C333.472 154.46 332.141 150.648 329.644 147.634C327.149 144.619 323.65 142.603 319.79 141.953ZM223.891 356.268C228.637 361.765 265.781 372.172 279.115 375.772L188.767 379.042C171.516 375.345 140.642 365.308 138.233 361.15C136.174 357.593 136.861 341.312 137.352 334.509L221.833 333.257C221.372 336.968 219.857 351.604 223.891 356.268ZM329.465 321.058C329.44 323.517 328.45 325.869 326.71 327.607C324.97 329.347 322.617 330.335 320.158 330.36L39.6133 334.518C37.7194 334.545 35.8389 334.195 34.0813 333.49C32.3237 332.782 30.7238 331.734 29.3746 330.405C28.0254 329.076 26.9537 327.492 26.2217 325.745C25.4897 323.998 25.1123 322.122 25.1109 320.228V309.699L329.641 309.683L329.465 321.058ZM329.662 308.237L25.1109 308.252V122.042L331.838 166.098L329.662 308.237ZM331.958 158.333L331.861 164.639L25.1109 120.569V113.456C25.1102 110.933 25.661 108.439 26.7241 106.15C27.7874 103.861 29.3376 101.832 31.2665 100.205C33.1956 98.5778 35.4565 97.3913 37.8917 96.7285C40.3268 96.0658 42.8774 95.9429 45.365 96.3684L319.537 143.376C323.058 143.965 326.249 145.8 328.529 148.547C330.81 151.293 332.028 154.768 331.958 158.338V158.333Z" fill="#244D3B"/>
<path d="M187.391 386.909L187.904 380.728C187.915 380.538 188.001 380.357 188.144 380.231C188.287 380.104 188.474 380.039 188.665 380.05C188.856 380.059 189.035 380.145 189.162 380.29C189.289 380.432 189.355 380.62 189.344 380.809L188.831 386.988C188.819 387.178 188.732 387.354 188.59 387.481C188.448 387.605 188.262 387.671 188.072 387.662C187.882 387.65 187.705 387.565 187.577 387.424C187.45 387.284 187.383 387.099 187.391 386.909Z" fill="white"/>
<path d="M148.012 356.861C147.828 356.854 147.654 356.775 147.525 356.644C147.396 356.51 147.323 356.334 147.32 356.151C147.318 355.966 147.386 355.787 147.511 355.652C147.636 355.516 147.808 355.435 147.992 355.421L214.357 353.331C214.548 353.324 214.734 353.396 214.873 353.527C215.012 353.658 215.094 353.839 215.099 354.031C215.105 354.221 215.035 354.406 214.903 354.546C214.772 354.684 214.591 354.768 214.4 354.772L148.012 356.861Z" fill="#244D3B"/>
<path fill-rule="evenodd" clip-rule="evenodd" d="M197.168 314.75C198.483 314.639 199.801 314.928 200.949 315.577C202.097 316.228 203.023 317.211 203.604 318.395C204.185 319.579 204.395 320.913 204.206 322.219C204.017 323.525 203.438 324.743 202.545 325.715C201.652 326.687 200.486 327.367 199.201 327.666C197.915 327.964 196.569 327.867 195.34 327.388C194.11 326.908 193.053 326.068 192.309 324.978C191.564 323.889 191.165 322.601 191.165 321.281C191.099 319.62 191.693 318 192.818 316.777C193.943 315.552 195.507 314.824 197.168 314.75Z" fill="white"/>
<path d="M197.171 328.534C195.714 328.644 194.257 328.312 192.991 327.582C191.724 326.852 190.708 325.756 190.073 324.438C189.438 323.123 189.215 321.645 189.432 320.201C189.65 318.755 190.298 317.408 191.292 316.336C192.286 315.265 193.58 314.517 195.004 314.192C196.43 313.866 197.92 313.977 199.28 314.51C200.641 315.046 201.809 315.977 202.633 317.184C203.456 318.391 203.897 319.819 203.897 321.281C203.964 323.134 203.293 324.938 202.032 326.296C200.772 327.657 199.024 328.461 197.171 328.534ZM197.171 315.471C195.998 315.358 194.819 315.604 193.788 316.174C192.757 316.745 191.923 317.615 191.395 318.669C190.868 319.722 190.672 320.911 190.832 322.077C190.993 323.245 191.503 324.337 192.296 325.209C193.088 326.079 194.126 326.692 195.273 326.963C196.419 327.234 197.621 327.15 198.72 326.726C199.819 326.301 200.764 325.555 201.43 324.583C202.097 323.611 202.453 322.459 202.453 321.281C202.518 319.812 201.999 318.375 201.01 317.288C200.02 316.198 198.64 315.545 197.171 315.471Z" fill="#244D3B"/>
<path fill-rule="evenodd" clip-rule="evenodd" d="M41.7188 156.582C41.7188 156.582 87.434 161.977 111.799 165.945C111.799 165.945 113.792 241.167 111.966 263.238L43.1652 261.175C42.2612 224.653 41.8091 191.368 41.7188 156.582Z" fill="#244D3B"/>
<path fill-rule="evenodd" clip-rule="evenodd" d="M46.6133 152.118C46.6133 152.118 92.3263 157.513 116.691 161.481C116.691 161.481 118.685 236.701 116.859 258.772L48.0529 256.709C47.1512 220.189 46.7105 186.902 46.6133 152.118Z" fill="white"/>
<path d="M117.413 161.456C117.408 161.289 117.345 161.129 117.235 161.003C117.125 160.877 116.975 160.792 116.809 160.765C92.7065 156.839 47.1517 151.451 46.6952 151.397C46.5942 151.386 46.4916 151.396 46.3946 151.427C46.2974 151.458 46.2082 151.509 46.1322 151.576C46.0561 151.644 45.9955 151.727 45.9537 151.82C45.9121 151.913 45.8906 152.014 45.8906 152.116C45.9923 187.722 46.4511 220.962 47.3302 256.722C47.3354 256.908 47.4107 257.082 47.5411 257.213C47.6713 257.344 47.8464 257.418 48.0308 257.425L116.859 259.488C117.04 259.488 117.214 259.421 117.348 259.299C117.481 259.177 117.563 259.009 117.578 258.829C119.155 239.811 117.896 180.562 117.413 161.456ZM47.7868 206.18L116.841 212.571C116.884 217.843 116.907 223.123 116.898 228.19L48.0489 222.813C47.9572 217.251 47.8697 211.708 47.7868 206.18ZM116.626 194.048L47.5495 186.346C47.4939 180.572 47.4471 174.772 47.4093 168.944L116.339 178.409C116.443 183.037 116.54 188.364 116.626 194.048ZM116.649 195.499C116.721 200.53 116.787 205.811 116.834 211.12L47.7664 204.729C47.6896 199.09 47.6218 193.445 47.563 187.797L116.649 195.499ZM48.0806 224.262L116.9 229.634C116.889 234.308 116.85 238.778 116.778 242.866L48.3879 239.878L48.0806 224.262ZM115.985 162.096C116.03 163.857 116.168 169.353 116.321 176.949L47.3913 167.484L47.3257 152.929C53.5204 153.668 93.5631 158.476 115.985 162.096ZM48.7563 256.008L48.4173 241.318L116.751 244.308C116.638 249.793 116.459 254.519 116.195 258.028L48.7563 256.008Z" fill="#244D3B"/>
<path d="M309.042 188.849V173.972L292.849 171.829C292.659 171.804 292.487 171.705 292.372 171.553C292.255 171.401 292.203 171.209 292.23 171.019C292.255 170.83 292.354 170.658 292.505 170.541C292.657 170.425 292.849 170.374 293.039 170.399L309.86 172.625C310.034 172.648 310.192 172.733 310.307 172.865C310.423 172.997 310.486 173.166 310.486 173.341V188.849C310.475 189.034 310.396 189.208 310.26 189.335C310.127 189.462 309.948 189.532 309.765 189.532C309.58 189.532 309.401 189.462 309.268 189.335C309.132 189.208 309.053 189.034 309.042 188.849Z" fill="#244D3B"/>
<path d="M300.858 208.632L273.987 204.935C273.815 204.912 273.657 204.826 273.542 204.695C273.427 204.564 273.363 204.397 273.363 204.223V177.449C273.363 177.346 273.386 177.244 273.429 177.15C273.472 177.056 273.533 176.972 273.612 176.905C273.689 176.837 273.779 176.787 273.879 176.757C273.978 176.728 274.082 176.72 274.184 176.734L300.958 180.423C301.13 180.447 301.288 180.533 301.401 180.664C301.516 180.795 301.579 180.963 301.579 181.137C301.579 208.612 301.914 208.632 300.858 208.632ZM274.807 203.592L300.137 207.084V181.772L274.814 178.276L274.807 203.592Z" fill="#244D3B"/>
<path d="M264.465 183.5V167.438C264.465 167.336 264.487 167.234 264.53 167.14C264.571 167.047 264.634 166.963 264.711 166.896C264.788 166.828 264.878 166.777 264.978 166.747C265.075 166.717 265.179 166.709 265.281 166.722L281.645 168.889C281.835 168.914 282.007 169.014 282.122 169.166C282.24 169.318 282.292 169.51 282.265 169.699C282.24 169.889 282.14 170.061 281.989 170.177C281.837 170.294 281.645 170.345 281.456 170.32L265.907 168.261V183.5C265.907 183.691 265.83 183.874 265.697 184.01C265.561 184.145 265.378 184.221 265.186 184.221C264.994 184.221 264.811 184.145 264.675 184.01C264.542 183.874 264.465 183.691 264.465 183.5Z" fill="#244D3B"/>
<path d="M281.55 214.906L265.091 212.732C264.917 212.709 264.759 212.623 264.643 212.492C264.528 212.361 264.465 212.191 264.465 212.017V195.63C264.465 195.438 264.542 195.255 264.675 195.119C264.811 194.986 264.994 194.909 265.186 194.909C265.378 194.909 265.561 194.986 265.697 195.119C265.83 195.255 265.907 195.438 265.907 195.63V211.385L281.645 213.468C281.831 213.489 282 213.579 282.12 213.721C282.237 213.864 282.299 214.047 282.285 214.232C282.274 214.418 282.19 214.592 282.052 214.716C281.917 214.842 281.736 214.91 281.55 214.906Z" fill="#244D3B"/>
<path d="M292.849 216.408C292.659 216.383 292.487 216.284 292.372 216.132C292.255 215.979 292.203 215.786 292.23 215.599C292.255 215.409 292.354 215.235 292.505 215.12C292.657 215.005 292.849 214.953 293.039 214.977L309.042 217.095V198.048C309.053 197.862 309.132 197.691 309.268 197.562C309.401 197.435 309.58 197.365 309.765 197.365C309.948 197.365 310.127 197.435 310.26 197.562C310.396 197.691 310.475 197.862 310.486 198.048C310.486 219.439 310.613 218.135 310.24 218.46C309.905 218.756 311.105 218.835 292.849 216.408Z" fill="#244D3B"/>
<path fill-rule="evenodd" clip-rule="evenodd" d="M380.603 125.482L372.218 120.98L355.678 125.482L348.516 122.756L373.565 115.05L391.991 122.406L380.603 125.482Z" fill="white"/>
<path fill-rule="evenodd" clip-rule="evenodd" d="M359.098 124.264V115.515L377.562 114.742V124.166L372.228 121.599L359.098 124.264Z" fill="#81F889"/>
<path fill-rule="evenodd" clip-rule="evenodd" d="M87.0391 20.7733L424.746 112.504L440.397 104.922L102.287 12.3955L87.0391 20.7733Z" fill="white"/>
<path fill-rule="evenodd" clip-rule="evenodd" d="M393.113 92.0086L393.457 84.0986L407.679 88.2344V91.2018L432.43 98.4542V95.932L440.257 98.4564L440.698 104.841L393.113 92.0086Z" fill="white"/>
<path d="M392.688 122.23L385.354 93.2451C385.325 93.131 385.269 93.0259 385.19 92.9382C385.11 92.8505 385.013 92.7829 384.902 92.7411C371.365 87.8392 372.348 88.1488 372.063 88.2211L354.069 92.2394C353.931 92.2706 353.807 92.3411 353.708 92.4421C353.611 92.5434 353.545 92.6706 353.518 92.8089L347.814 122.621C347.78 122.797 347.814 122.98 347.909 123.133C348.001 123.287 348.148 123.4 348.32 123.452C350.654 124.512 353.052 125.43 355.498 126.2C355.665 126.199 355.828 126.139 355.954 126.032C356.083 125.924 356.171 125.775 356.2 125.611C356.232 125.446 356.205 125.276 356.124 125.129C356.045 124.983 355.916 124.868 355.76 124.806L350.713 122.835L373.539 115.811L389.721 122.27L380.425 124.783C380.256 124.829 380.109 124.934 380.014 125.08C379.917 125.225 379.876 125.401 379.899 125.574C379.921 125.747 380.007 125.906 380.138 126.022C380.269 126.137 380.439 126.2 380.613 126.2C380.839 126.2 380.839 126.167 391.965 123.158C392.62 122.982 392.788 122.627 392.688 122.23Z" fill="#244D3B"/>
<path fill-rule="evenodd" clip-rule="evenodd" d="M385.82 90.0152L371.404 35.0972L369.437 34.8418L355.543 74.1409L358.528 76.4574L368.552 46.4944L369.456 85.5426L373.605 86.6726L371.679 47.2695L382.215 89.0253L385.82 90.0152Z" fill="white"/>
<path d="M385.818 90.7385C385.592 90.7385 385.289 90.6165 382.012 89.7238C381.89 89.6904 381.777 89.6248 381.687 89.534C381.599 89.4429 381.535 89.3299 381.504 89.2063L372.742 54.4769C374.337 87.2062 374.489 86.8807 374.044 87.2468C373.648 87.5587 373.752 87.4728 369.252 86.2457C369.103 86.2052 368.97 86.1175 368.873 85.9953C368.778 85.873 368.723 85.7232 368.719 85.5677L367.926 50.6416C359.026 77.2418 359.292 76.9797 358.739 77.1469C358.223 77.2961 358.233 77.1266 355.102 74.7106C354.985 74.6166 354.899 74.4878 354.858 74.3425C354.818 74.1974 354.824 74.043 354.876 73.9016L368.769 34.6024C368.823 34.446 368.929 34.3131 369.069 34.2266C369.212 34.14 369.377 34.1052 369.542 34.1278L371.508 34.3832C371.65 34.4022 371.783 34.463 371.892 34.5579C371.998 34.6528 372.077 34.7776 372.113 34.9165L386.528 89.8345C386.555 89.9421 386.559 90.0549 386.537 90.1641C386.514 90.273 386.467 90.3754 386.397 90.4628C386.329 90.5505 386.241 90.6208 386.139 90.6687C386.04 90.7166 385.929 90.7404 385.818 90.7385ZM382.799 88.4446L384.803 88.9916L370.828 35.7528L369.924 35.633L356.4 73.8902L358.169 75.2643L367.871 46.2663C367.926 46.1069 368.036 45.972 368.181 45.8848C368.326 45.7978 368.495 45.7639 368.662 45.789C368.83 45.8143 368.981 45.897 369.094 46.0229C369.207 46.149 369.27 46.3101 369.277 46.4787L370.154 84.9891L372.828 85.7191L370.952 47.2991C370.943 47.1206 371.002 46.9452 371.115 46.8069C371.228 46.6688 371.39 46.5779 371.567 46.5517C371.743 46.5255 371.924 46.5659 372.073 46.6652C372.222 46.7644 372.328 46.9156 372.371 47.0889L382.799 88.4446Z" fill="#244D3B"/>
<path fill-rule="evenodd" clip-rule="evenodd" d="M87.0684 6.92204L87.0391 20.7736L102.287 12.3958L101.874 -0.120117L97.9458 2.1783V10.3143L90.5963 14.0094V4.80442L87.0684 6.92204Z" fill="white"/>
<path d="M426.159 95.5341L375.114 33.9288C375.467 33.2404 375.664 32.4819 375.691 31.7083C375.716 30.9347 375.569 30.1652 375.261 29.4549C374.954 28.7448 374.493 28.1116 373.912 27.601C373.329 27.0903 372.642 26.7151 371.898 26.502C371.153 26.2889 370.371 26.2437 369.607 26.3691C368.843 26.4945 368.117 26.7876 367.48 27.2277C366.843 27.6675 366.312 28.2431 365.925 28.913C365.537 29.5828 365.301 30.3302 365.238 31.1015L227.69 36.4374C227.595 36.439 227.503 36.4593 227.414 36.4971C227.329 36.5348 227.249 36.5893 227.184 36.6573C227.118 36.7255 227.066 36.8058 227.032 36.8939C226.996 36.9821 226.98 37.0761 226.98 37.1708C226.983 37.2655 227.003 37.3588 227.041 37.4458C227.08 37.5326 227.134 37.611 227.202 37.677C227.27 37.7428 227.349 37.7945 227.437 37.8291C227.525 37.8639 227.62 37.8809 227.715 37.8793L365.317 32.5412C365.503 33.4843 365.943 34.3582 366.592 35.0676C367.238 35.7768 368.07 36.2943 368.992 36.5631C369.916 36.832 370.895 36.8417 371.822 36.5915C372.75 36.3413 373.591 35.8408 374.253 35.1447L425.049 96.454C425.176 96.5835 425.347 96.6603 425.528 96.6698C425.709 96.679 425.888 96.6198 426.028 96.5041C426.166 96.3884 426.258 96.2246 426.281 96.0449C426.306 95.8652 426.263 95.6828 426.159 95.5341Z" fill="#244D3B"/>
<path d="M366.597 32.1844C366.561 31.541 366.663 30.8971 366.895 30.2967C367.13 29.6959 367.49 29.1529 367.953 28.704C368.816 27.9924 369.921 27.6439 371.038 27.7322C371.228 27.7523 371.402 27.8473 371.524 27.996C371.644 28.1447 371.7 28.3352 371.68 28.5255C371.659 28.7158 371.564 28.8903 371.415 29.0107C371.266 29.1312 371.076 29.1874 370.886 29.1673C370.489 29.1312 368.075 29.043 368.05 32.1957C368.048 32.3885 367.971 32.5727 367.833 32.7078C367.695 32.843 367.51 32.9183 367.318 32.9167C367.126 32.9151 366.94 32.8371 366.805 32.6999C366.672 32.5625 366.595 32.3772 366.597 32.1844Z" fill="white"/>
<path d="M391.61 342.379C391.271 342.069 391.639 342.135 382.837 343.014L381.553 125.01L378.287 123.428C378.287 114.015 378.378 114.517 378.061 114.214C377.745 113.911 378.891 113.947 359.077 114.785C358.892 114.794 358.716 114.873 358.587 115.007C358.458 115.142 358.386 115.32 358.386 115.506V123.966L355.267 124.743L356.727 342.944C349.181 342.686 349.396 342.602 349.086 342.901C348.776 343.199 348.824 342.901 348.598 372.543C348.595 372.719 348.659 372.889 348.774 373.022C348.892 373.155 349.052 373.241 349.226 373.264C376.604 376.916 376.396 376.907 376.622 376.862L391.065 374.132C391.23 374.1 391.377 374.012 391.486 373.885C391.592 373.757 391.651 373.594 391.653 373.427C391.847 342.383 391.981 342.709 391.61 342.379ZM380.577 335.967L375.788 335.547L380.473 318.597L380.577 335.967ZM380.439 313.039L375.639 297.825L380.353 298.623L380.439 313.039ZM380.339 296.27L375.494 295.45L380.24 280.986L380.339 296.27ZM380.204 273.806L375.51 256.643L380.107 257.421L380.204 273.806ZM380.091 255.068L375.191 254.239L379.985 237.257L380.091 255.068ZM379.946 230.857L375.028 212.384L379.842 213.554L379.946 230.857ZM379.829 211.195L375.004 210.022L379.716 192.247L379.829 211.195ZM379.68 184.735L375.008 166.998L379.58 168.167L379.68 184.735ZM379.564 165.812L374.667 164.562L379.453 147.293L379.564 165.812ZM379.406 139.336L374.515 125.098L379.336 127.514L379.406 139.336ZM359.832 116.218L376.852 115.506V122.752L372.24 120.533L359.832 123.627V116.218ZM371.11 142.678L371.236 162.831L358.628 145.275L371.11 142.678ZM359.263 142.893L371.015 126.422L371.103 140.335L359.263 142.893ZM371.399 188.245L371.528 208.621L359.281 190.247L371.399 188.245ZM359.34 187.874L371.261 167.789L371.376 185.885L359.34 187.874ZM371.684 234.224L371.801 252.944L359.412 235.876L371.684 234.224ZM359.66 233.494L371.548 213.055L371.668 231.876L359.66 233.494ZM371.962 277.865L372.068 294.815L360.185 278.631L371.962 277.865ZM359.984 276.283L371.84 257.814L371.95 275.514L359.984 276.283ZM372.21 316.145L372.328 334.57L360.418 316.904L372.21 316.145ZM360.526 314.547L372.099 298.727L372.194 313.79L360.526 314.547ZM357.88 127.887L370.352 124.836L357.993 142.17L357.88 127.887ZM358.031 146.907L370.619 164.433L358.189 166.487L358.031 146.907ZM358.205 168.829L370.136 166.858L358.347 186.714L358.205 168.829ZM358.386 191.492L370.38 209.482L358.546 211.437L358.386 191.492ZM358.564 213.785L370.615 211.794L358.711 232.256L358.564 213.785ZM358.752 237.409L370.99 254.261L358.899 255.9L358.752 237.409ZM358.919 258.248L370.881 256.628L359.052 275.056L358.919 258.248ZM359.089 279.549L370.786 295.477L359.222 296.221L359.089 279.549ZM359.24 298.571L370.976 297.816L359.36 313.688L359.24 298.571ZM359.394 317.962L371.157 335.407L359.536 335.755L359.394 317.962ZM359.595 343.048L359.554 338.112L372.348 337.73L372.384 343.482L359.595 343.048ZM373.702 127.173L378.622 141.492L373.776 140.136L373.702 127.173ZM373.79 142.48L378.884 143.915L373.912 161.893L373.79 142.48ZM373.939 168.607L378.757 186.902L374.03 185.413L373.939 168.607ZM374.05 187.765L379.002 189.329L374.163 207.583L374.05 187.765ZM374.206 214.885L379.069 233.157L374.303 231.998L374.206 214.885ZM374.317 234.351L378.992 235.481L374.416 251.689L374.317 234.351ZM374.452 258.23L379.424 276.389L374.556 275.564L374.452 258.23ZM374.565 277.917L379.469 278.748L374.656 293.409L374.565 277.917ZM374.689 299.613L379.246 314.05L374.771 313.656L374.689 299.613ZM374.784 316.007L379.578 316.429L374.884 333.425L374.784 316.007ZM374.943 343.579L374.909 337.825L380.595 338.324L380.624 343.242C378.746 343.574 376.836 343.685 374.933 343.572L374.943 343.579Z" fill="#244D3B"/>
<path fill-rule="evenodd" clip-rule="evenodd" d="M440.608 97.6567C432.196 95.0599 432.531 95.0509 432.119 95.3424C431.769 95.5888 431.821 95.7492 431.758 97.2431L408.337 90.5964L408.401 88.2551C408.405 88.0955 408.356 87.9393 408.263 87.8105C408.168 87.6817 408.035 87.5877 407.881 87.5432L393.659 83.4096C393.555 83.3789 393.444 83.3726 393.336 83.3911C393.227 83.4096 393.125 83.4523 393.037 83.5161C392.949 83.58 392.875 83.6632 392.825 83.7595C392.773 83.8557 392.743 83.9626 392.739 84.0718L392.436 91.0552L368.229 84.4334L356.33 73.4317L102.602 0.0585508C102.624 -0.0949032 102.602 -0.251296 102.539 -0.392546C102.475 -0.533796 102.373 -0.654029 102.243 -0.739231C101.759 -1.02625 101.714 -0.85675 97.531 1.26087C97.4108 1.32212 97.3102 1.41591 97.2404 1.53117C97.1705 1.64665 97.1341 1.77909 97.1355 1.91401L97.2214 9.88051L91.3183 12.8479V5.16389C91.3183 5.04117 91.2871 4.92026 91.2274 4.81291C91.1677 4.70556 91.0816 4.61516 90.9772 4.55053C90.873 4.48566 90.7537 4.44883 90.6312 4.44295C90.5085 4.4373 90.3862 4.46284 90.2764 4.51753C86.5158 6.38881 86.3463 6.32553 86.3463 6.91087C86.3463 15.7384 86.3169 18.925 86.3169 20.1386C86.3169 21.1127 86.1768 20.9364 87.0491 21.2167C102.121 26.0508 354.407 93.826 354.07 93.7333C354.296 93.7333 352.287 94.3661 372.853 87.1793L403.298 95.5097L387.179 101.912C386.585 102.138 386.427 103.302 387.213 103.494C424.998 113.305 424.686 113.309 425.059 113.129C441.661 105.047 440.787 105.569 440.965 105.341C441.175 105.072 441.119 105.481 441.119 98.3211C441.112 98.171 441.06 98.0264 440.97 97.9073C440.877 97.7882 440.753 97.7007 440.608 97.6567ZM356.066 76.2273L363.89 83.2446L356.066 81.1067V76.2273ZM339.636 70.9344L351.806 74.4532L339.636 76.1482V70.9344ZM353.571 75.6623V80.4219L342.045 77.2579L353.571 75.6623ZM337.138 70.2135V75.5154L326.245 67.0653L337.138 70.2135ZM325.095 67.9964L334.327 75.1584L325.095 72.6385V67.9964ZM322.598 67.0178V71.9605L312.01 69.0631C323.106 66.9884 322.367 67.1783 322.598 67.0178ZM309.349 62.1837L321.764 65.7703L309.349 68.08V62.1837ZM306.863 61.4605V66.9048L294.404 57.8648L306.863 61.4605ZM293.218 58.7824L304.549 67.0088L293.218 63.9081V58.7824ZM274.222 52.0295L289.902 56.5608L274.222 58.3688V52.0295ZM290.72 57.9168V63.2255L277.05 59.4852L290.72 57.9168ZM271.723 51.3063V57.1529L257.469 47.1863L271.723 51.3063ZM255.871 47.8304L269.641 57.458L255.722 53.6545L255.871 47.8304ZM233.285 40.1984L252.816 45.8484L233.228 47.2993L233.285 40.1984ZM253.378 47.2473L253.236 52.9697L236.788 48.47L253.378 47.2473ZM230.817 39.4842L230.744 46.1173L213.207 34.397L230.817 39.4842ZM212.249 35.4908L228.121 46.0993L212.059 41.7058L212.249 35.4908ZM209.79 34.4105L209.564 41.0211L192.263 36.275L209.79 34.4105ZM208.66 33.0817L189.47 35.1337L189.45 27.5311L208.66 33.0817ZM186.952 26.8079L186.973 34.0083L168.818 21.5783L186.952 26.8079ZM184.744 34.232C166.244 29.1696 168.084 29.7482 167.749 29.4272L167.69 22.5433L184.744 34.232ZM165.254 28.8984L149.809 24.6745L165.191 21.5421L165.254 28.8984ZM164.28 20.2562L147.375 23.6982L147.321 15.3542L164.28 20.2562ZM144.824 14.6333L144.876 22.5433L127.415 9.60705L144.824 14.6333ZM126.228 10.5201L142.708 22.7241L126.219 18.2222L126.228 10.5201ZM122.816 8.27365L102.964 10.7258L102.693 2.45641L122.816 8.27365ZM123.733 9.61383V17.5396L103.766 12.0704L123.733 9.61383ZM87.7994 7.36965L89.8877 6.33457V14.0186C89.8881 14.1415 89.92 14.2624 89.9801 14.3698C90.0405 14.4769 90.127 14.5671 90.2316 14.6315C90.3365 14.6961 90.4558 14.7327 90.5788 14.7382C90.7017 14.7436 90.824 14.7176 90.9341 14.6627L98.2836 10.9676C98.4036 10.9063 98.5044 10.8125 98.5742 10.6973C98.644 10.5818 98.6804 10.4494 98.6791 10.3144L98.5819 2.35245L101.19 1.03713L101.554 11.9823L87.7678 19.5578L87.7994 7.36965ZM88.9679 20.5454L102.358 13.1846L124.036 19.1149L108.065 25.7118L88.9679 20.5454ZM110.347 26.3288L126.308 19.7386L144.582 24.7377L128.701 31.2917L110.347 26.3288ZM149.601 36.9508L130.972 31.9132L146.844 25.3592L164.752 30.2567L149.601 36.9508ZM171.532 42.8878L151.796 37.5497L166.938 30.8601L187.187 36.3993L171.532 42.8878ZM217.81 55.4105L173.813 43.5048L189.47 37.0209L230.692 48.2982C218.834 54.8296 218.048 55.2025 217.819 55.4105H217.81ZM219.786 55.9438L232.668 48.8452L252.782 54.3483L237.414 60.717L219.786 55.9438ZM239.701 61.3339L255.069 54.9698L273.827 60.1045L258.542 66.4325L239.701 61.3339ZM260.83 67.0495L276.098 60.7215L292.04 65.0788L276.848 71.3796L260.83 67.0495ZM297.792 77.0455L279.117 71.9989L294.311 65.707L312.893 70.792L297.792 77.0455ZM316.014 81.9813L300.065 77.6647L314.945 71.5017C315.259 71.3729 313.616 70.9887 331.043 75.7573L316.014 81.9813ZM335.197 87.1793L318.295 82.6073L333.315 76.3878L350.14 80.9914L335.197 87.1793ZM353.984 92.2598L337.484 87.7805L352.421 81.5971L370.399 86.5148L353.984 92.2598ZM426.273 97.1979L431.686 98.7324L431.554 101.77L426.051 100.265L426.273 97.1979ZM417.511 94.7119L424.856 96.7979L424.63 99.8782L417.355 97.8872L417.511 94.7119ZM408.29 92.0971L416.087 94.3096L415.933 97.4985L408.202 95.3831L408.29 92.0971ZM393.851 91.4575L394.129 85.0617L406.936 88.7839L406.769 94.9899L393.851 91.4575ZM408.202 107.483L389.396 102.595L405.601 96.156L424.316 101.273L408.202 107.483ZM424.661 111.75L410.584 108.1L426.659 101.928L438.344 105.124L424.661 111.75ZM439.666 103.991L432.978 102.161L433.204 96.9063L439.663 98.8906L439.666 103.991Z" fill="#244D3B"/>
<path fill-rule="evenodd" clip-rule="evenodd" d="M182.128 46.1809L198.798 39.3603V35.6787L228.746 43.9232L228.816 47.0872L209.881 56.1521L181.645 48.9562C181.645 48.9562 179.755 45.5504 179.81 45.5526C179.864 45.5549 182.128 46.1809 182.128 46.1809Z" fill="#81F889"/>
<path d="M229.468 43.909C229.466 43.7542 229.412 43.6043 229.317 43.482C229.222 43.36 229.089 43.2719 228.939 43.231L198.99 34.982C198.883 34.9544 198.772 34.9517 198.664 34.9736C198.556 34.9957 198.455 35.0421 198.368 35.1092C198.281 35.1763 198.21 35.2624 198.161 35.361C198.112 35.4595 198.087 35.568 198.086 35.678V38.8737L182.09 45.4277C181.355 45.1859 180.606 44.9897 179.848 44.8401C179.723 44.846 179.601 44.8794 179.491 44.9375C179.38 44.9956 179.284 45.0774 179.208 45.1768C178.955 45.5814 178.955 45.5814 181.016 49.3126C181.064 49.3985 181.128 49.474 181.206 49.5341C181.284 49.5944 181.373 49.6383 181.468 49.6629L209.883 56.8949C210.138 56.8949 208.871 57.4102 229.127 47.7577C229.251 47.6976 229.357 47.6032 229.43 47.4854C229.502 47.3677 229.541 47.2316 229.538 47.0933L229.468 43.909ZM228.038 44.4762L228.072 46.1577L199.519 38.7991V36.625L228.038 44.4762ZM209.806 55.3965L182.123 48.3363C181.832 47.8075 181.502 47.2063 181.219 46.6752C182.044 46.9012 182.137 46.9532 182.406 46.847L198.854 40.1189L226.72 47.299L209.806 55.3965Z" fill="#244D3B"/>
<path d="M377.347 345.002C376.87 345.074 376.386 345.086 375.905 345.04L375.758 375.338C376.232 375.465 376.736 375.449 377.202 375.29L377.347 345.002Z" fill="white"/>
<path d="M222.688 50.3347C222.68 50.1817 222.624 50.0353 222.527 49.9166C222.431 49.7977 222.298 49.7132 222.15 49.6748L198.978 43.6316C198.562 43.5253 199.387 43.157 187.592 49.9415C187.443 50.0267 187.33 50.1623 187.272 50.3241C187.215 50.4857 187.217 50.6627 187.278 50.8229L187.956 52.6309C188.164 53.1733 187.927 52.7552 211.58 58.9385C211.76 58.9837 211.951 58.9578 212.113 58.8662C223.122 52.6535 222.824 52.9699 222.787 52.3348L222.688 50.3347Z" fill="#244D3B"/>
<path d="M199.555 46.8967V45.2921C199.544 45.1077 199.464 44.9341 199.33 44.8071C199.195 44.6801 199.018 44.6094 198.833 44.6094C198.648 44.6094 198.47 44.6801 198.336 44.8071C198.201 44.9341 198.121 45.1077 198.111 45.2921V47.0188C197.157 47.4956 194.897 48.7205 189.184 51.7444L191.254 52.2823L198.897 48.2301L219.429 53.0394L221.273 51.9908L199.555 46.8967Z" fill="white"/>
<path fill-rule="evenodd" clip-rule="evenodd" d="M403.483 106.539L410.987 101.185L431.449 106.539V113.691L424.269 117.985L403.477 113.691L403.483 106.539Z" fill="#81F889"/>
<path d="M432.174 106.538C432.174 106.378 432.12 106.223 432.022 106.097C431.925 105.971 431.787 105.88 431.634 105.84L411.038 100.463C410.693 100.436 410.962 100.316 403.067 105.951C402.647 106.249 402.765 106.005 402.767 113.73V113.8C402.785 113.918 402.832 114.03 402.905 114.125L402.936 114.163C403.045 114.282 403.187 114.362 403.345 114.389L424.264 118.683C424.562 118.683 424.126 118.977 431.821 114.29C432.348 113.996 432.167 113.881 432.174 106.538ZM430.73 112.744L427.286 111.809V106.195L430.73 107.099V112.744ZM416.426 115.623L421.428 111.714L425.044 112.694L420.214 116.405L416.426 115.623ZM411.129 114.53C413.025 113.259 414.846 111.88 416.584 110.398L419.69 111.244L414.575 115.241L411.129 114.53ZM405.183 113.302L410.984 108.877L414.878 109.935L409.239 114.141L405.183 113.302ZM421.99 110.364V104.809L425.832 105.817V111.42L421.99 110.364ZM420.546 109.973L417.048 109.024L417.095 103.519L420.546 104.423V109.973ZM415.613 108.64L411.569 107.542L411.694 102.118L415.66 103.155L415.613 108.64ZM410.238 102.608L410.119 107.729L404.213 112.233V106.911L410.238 102.608ZM424.146 117.219L422.078 116.792L426.793 113.176L429.629 113.947L424.146 117.219Z" fill="#244D3B"/>
<path d="M371.543 89.8141L372.815 114.527C373.663 114.265 373.505 114.251 374.26 114.552L372.992 89.9723C371.995 89.6107 372.336 89.6333 371.543 89.8141Z" fill="white"/>
<path d="M352.596 115.85L355.256 95.2683C355.281 95.0787 355.38 94.9065 355.532 94.7896C355.683 94.6728 355.875 94.621 356.063 94.6457C356.252 94.6703 356.426 94.7691 356.542 94.9207C356.659 95.0721 356.711 95.264 356.686 95.4536L354.026 116.031C354.001 116.221 353.904 116.393 353.753 116.51C353.601 116.627 353.409 116.68 353.22 116.656C353.032 116.632 352.858 116.534 352.74 116.382C352.625 116.231 352.571 116.04 352.596 115.85Z" fill="white"/>
<path d="M244.425 233.858C244.423 233.675 244.353 233.499 244.226 233.368C244.102 233.234 243.93 233.155 243.747 233.144L153.478 226.574C153.379 226.567 153.279 226.581 153.184 226.612C153.09 226.646 153.004 226.698 152.931 226.768C152.858 226.836 152.8 226.917 152.761 227.01C152.721 227.103 152.702 227.202 152.703 227.302L153.517 291.181C153.52 291.368 153.595 291.547 153.727 291.68C153.859 291.811 154.037 291.888 154.224 291.892C244.663 293.474 244.333 293.626 244.674 293.287C245.015 292.948 245.006 293.19 244.425 233.858Z" fill="#244D3B"/>
<path fill-rule="evenodd" clip-rule="evenodd" d="M157.645 222.361L247.913 228.931L248.365 287.849L158.438 286.247L157.645 222.361Z" fill="#81F889"/>
<path fill-rule="evenodd" clip-rule="evenodd" d="M181.332 249.436C182.288 249.355 183.246 249.565 184.081 250.039C184.916 250.512 185.588 251.226 186.01 252.087C186.433 252.948 186.585 253.918 186.447 254.867C186.31 255.816 185.889 256.702 185.239 257.407C184.59 258.114 183.743 258.607 182.808 258.824C181.873 259.041 180.895 258.971 180.001 258.621C179.108 258.273 178.34 257.662 177.799 256.871C177.257 256.078 176.968 255.14 176.968 254.182C176.921 252.975 177.353 251.798 178.171 250.907C178.989 250.019 180.125 249.49 181.332 249.436Z" fill="white"/>
<path fill-rule="evenodd" clip-rule="evenodd" d="M205.04 250.432C205.995 250.351 206.953 250.561 207.788 251.033C208.623 251.508 209.295 252.222 209.717 253.083C210.14 253.944 210.292 254.914 210.154 255.863C210.017 256.812 209.596 257.698 208.946 258.403C208.297 259.111 207.45 259.603 206.515 259.82C205.58 260.037 204.602 259.967 203.708 259.617C202.815 259.269 202.047 258.659 201.506 257.868C200.964 257.074 200.675 256.136 200.675 255.178C200.628 253.971 201.06 252.794 201.878 251.903C202.696 251.015 203.832 250.486 205.04 250.432Z" fill="white"/>
<path fill-rule="evenodd" clip-rule="evenodd" d="M228.743 251.278C229.699 251.196 230.659 251.407 231.493 251.879C232.329 252.354 233.003 253.068 233.425 253.929C233.848 254.79 233.999 255.759 233.861 256.711C233.724 257.66 233.303 258.546 232.652 259.253C232.004 259.961 231.156 260.453 230.221 260.67C229.285 260.887 228.306 260.817 227.411 260.467C226.519 260.119 225.75 259.506 225.208 258.715C224.667 257.922 224.378 256.984 224.378 256.024C224.331 254.817 224.764 253.64 225.582 252.751C226.399 251.861 227.536 251.332 228.743 251.278Z" fill="white"/>
<path d="M181.334 259.653C180.235 259.732 179.138 259.481 178.186 258.928C177.233 258.376 176.469 257.549 175.992 256.557C175.516 255.562 175.35 254.448 175.515 253.361C175.681 252.272 176.171 251.257 176.921 250.453C177.67 249.646 178.646 249.083 179.72 248.839C180.794 248.595 181.916 248.679 182.941 249.081C183.966 249.485 184.846 250.186 185.466 251.097C186.087 252.007 186.419 253.083 186.419 254.184C186.466 255.583 185.958 256.943 185.005 257.967C184.052 258.993 182.732 259.599 181.334 259.653ZM181.334 250.161C180.52 250.08 179.699 250.245 178.982 250.638C178.264 251.031 177.682 251.632 177.313 252.362C176.944 253.092 176.804 253.919 176.913 254.729C177.022 255.54 177.374 256.299 177.923 256.907C178.472 257.513 179.191 257.94 179.988 258.13C180.784 258.32 181.618 258.263 182.382 257.969C183.146 257.676 183.802 257.158 184.266 256.482C184.729 255.809 184.977 255.009 184.977 254.191C185.026 253.174 184.671 252.177 183.988 251.42C183.305 250.665 182.351 250.209 181.334 250.154V250.161Z" fill="#244D3B"/>
<path d="M205.038 260.65C203.94 260.729 202.843 260.476 201.891 259.925C200.939 259.371 200.175 258.544 199.699 257.552C199.223 256.56 199.057 255.445 199.223 254.356C199.388 253.269 199.878 252.254 200.628 251.447C201.377 250.643 202.353 250.08 203.426 249.836C204.5 249.592 205.622 249.676 206.647 250.078C207.672 250.48 208.552 251.183 209.173 252.092C209.793 253.002 210.125 254.078 210.126 255.179C210.173 256.578 209.665 257.938 208.712 258.964C207.758 259.99 206.438 260.596 205.038 260.65ZM205.038 251.158C204.224 251.077 203.404 251.242 202.686 251.635C201.968 252.028 201.386 252.629 201.017 253.362C200.648 254.092 200.509 254.917 200.618 255.728C200.727 256.539 201.079 257.299 201.628 257.904C202.177 258.512 202.898 258.937 203.693 259.127C204.49 259.317 205.325 259.26 206.088 258.966C206.852 258.673 207.509 258.153 207.971 257.479C208.435 256.804 208.682 256.004 208.682 255.185C208.73 254.168 208.374 253.174 207.692 252.417C207.009 251.662 206.055 251.206 205.038 251.151V251.158Z" fill="#244D3B"/>
<path d="M228.744 261.498C227.645 261.577 226.549 261.326 225.596 260.772C224.643 260.221 223.879 259.394 223.403 258.402C222.926 257.407 222.76 256.295 222.925 255.206C223.091 254.117 223.58 253.104 224.33 252.297C225.08 251.491 226.054 250.928 227.128 250.684C228.201 250.44 229.325 250.523 230.351 250.926C231.375 251.328 232.256 252.031 232.875 252.939C233.497 253.85 233.829 254.926 233.829 256.026C233.876 257.425 233.368 258.786 232.416 259.812C231.463 260.836 230.143 261.444 228.744 261.498ZM228.744 252.006C227.93 251.922 227.11 252.089 226.391 252.483C225.673 252.876 225.091 253.477 224.721 254.207C224.352 254.937 224.212 255.762 224.321 256.573C224.43 257.385 224.782 258.144 225.331 258.752C225.88 259.358 226.599 259.785 227.395 259.975C228.192 260.164 229.026 260.108 229.79 259.814C230.554 259.52 231.212 259 231.675 258.327C232.138 257.651 232.385 256.851 232.385 256.033C232.41 255.529 232.337 255.025 232.168 254.551C231.998 254.074 231.738 253.638 231.399 253.262C231.063 252.887 230.654 252.582 230.197 252.365C229.743 252.15 229.248 252.024 228.744 251.999V252.006Z" fill="#244D3B"/>
<path d="M248.634 228.926C248.611 228.54 248.733 228.832 210.126 179.805L210.049 85.1317C210.048 84.9572 209.984 84.7891 209.869 84.658C209.754 84.5267 209.595 84.4415 209.423 84.4175L202.982 83.5407L202.769 54.0861C202.759 53.9014 202.678 53.7279 202.544 53.6011C202.41 53.4741 202.232 53.4033 202.047 53.4033C201.862 53.4033 201.684 53.4741 201.55 53.6011C201.416 53.7279 201.336 53.9014 201.325 54.0861L201.538 83.3327L193.951 82.2977C193.855 82.285 193.758 82.2915 193.666 82.3169C193.573 82.3424 193.486 82.386 193.41 82.4452C193.334 82.5047 193.271 82.5786 193.224 82.6626C193.177 82.7467 193.148 82.8394 193.137 82.935L195.142 178.583C156.905 222.183 156.97 222.029 156.93 222.255L157.725 286.245C157.729 286.432 157.805 286.611 157.937 286.744C158.069 286.875 158.247 286.952 158.435 286.956L248.383 288.559C248.478 288.559 248.573 288.541 248.661 288.505C248.749 288.468 248.828 288.414 248.896 288.346C248.964 288.279 249.016 288.199 249.052 288.111C249.088 288.023 249.106 287.928 249.106 287.833L248.634 228.926ZM194.586 86.8312L208.69 88.7545V180.058C208.69 180.456 208.573 180.16 246.342 228.095L159.151 221.749L196.407 179.333C196.706 178.994 196.599 179.283 194.586 86.8312ZM159.16 285.53L158.374 223.127L247.192 229.593L247.644 287.108L159.16 285.53Z" fill="#244D3B"/>
<path d="M201.775 163.502C195.673 163.05 188.859 165.798 188.859 171.342C188.859 177.218 196.507 181.083 203.097 181.083C208.542 181.083 214.574 178.371 214.574 173.188C214.58 168.384 208.836 164.038 201.775 163.502Z" fill="#244D3B"/>
<path d="M197.15 178.318C197.104 178.295 192.758 176.078 192.788 172.27C192.944 169.672 194.103 167.237 196.02 165.477C194.958 165.776 193.948 166.238 193.027 166.846C192.127 168.085 191.574 169.541 191.424 171.065C191.274 172.589 191.534 174.125 192.175 175.515C193.668 177.003 195.499 178.108 197.511 178.734C197.449 178.554 197.319 178.405 197.15 178.318Z" fill="white"/>
</g>
<defs>
<clipPath id="clip0_437_56994">
<rect width="616" height="420" fill="white"/>
</clipPath>
</defs>
</svg>
