<svg width="642" height="468" viewBox="0 0 642 468" fill="none" xmlns="http://www.w3.org/2000/svg">
<path d="M280.864 344.083V341.743H286.714C287.021 341.743 287.316 341.863 287.535 342.079C287.753 342.294 287.879 342.587 287.884 342.894C287.885 343.206 287.763 343.507 287.544 343.729C287.324 343.952 287.026 344.079 286.714 344.083H280.864ZM296.074 344.031C295.763 344.031 295.466 343.908 295.246 343.688C295.027 343.469 294.904 343.171 294.904 342.861C294.904 342.551 295.027 342.253 295.246 342.034C295.466 341.814 295.763 341.691 296.074 341.691H301.924C302.234 341.691 302.532 341.814 302.751 342.034C302.97 342.253 303.094 342.551 303.094 342.861C303.094 343.171 302.97 343.469 302.751 343.688C302.532 343.908 302.234 344.031 301.924 344.031H296.074ZM311.284 343.987C310.975 343.987 310.68 343.865 310.461 343.648C310.241 343.431 310.117 343.137 310.114 342.828C310.112 342.674 310.141 342.52 310.199 342.377C310.258 342.234 310.343 342.103 310.452 341.994C310.561 341.884 310.691 341.796 310.833 341.737C310.976 341.677 311.129 341.647 311.284 341.647H317.134C317.444 341.647 317.742 341.77 317.961 341.989C318.18 342.209 318.304 342.506 318.304 342.817C318.304 343.127 318.18 343.425 317.961 343.644C317.742 343.863 317.444 343.987 317.134 343.987H311.284ZM326.494 343.942C326.183 343.942 325.886 343.819 325.666 343.6C325.447 343.38 325.324 343.083 325.324 342.772C325.324 342.462 325.447 342.164 325.666 341.945C325.886 341.726 326.183 341.602 326.494 341.602H332.344C332.654 341.602 332.952 341.726 333.171 341.945C333.39 342.164 333.514 342.462 333.514 342.772C333.514 343.083 333.39 343.38 333.171 343.6C332.952 343.819 332.654 343.942 332.344 343.942H326.494ZM280.777 334.723C280.467 334.723 280.169 334.599 279.95 334.38C279.73 334.161 279.607 333.863 279.607 333.553L279.549 327.703C279.547 327.549 279.576 327.397 279.634 327.254C279.691 327.112 279.776 326.982 279.884 326.872C279.992 326.763 280.12 326.675 280.261 326.615C280.403 326.555 280.554 326.524 280.708 326.522C280.862 326.521 281.014 326.55 281.157 326.607C281.299 326.665 281.429 326.75 281.539 326.857C281.648 326.965 281.736 327.093 281.796 327.235C281.856 327.376 281.887 327.528 281.889 327.682L281.947 333.532C281.95 333.687 281.922 333.842 281.864 333.986C281.806 334.131 281.72 334.262 281.611 334.373C281.502 334.484 281.372 334.572 281.228 334.632C281.085 334.692 280.93 334.723 280.775 334.723H280.777ZM280.627 319.513C280.317 319.513 280.02 319.389 279.8 319.17C279.581 318.951 279.457 318.653 279.457 318.343L279.399 312.493C279.399 312.182 279.522 311.885 279.742 311.665C279.961 311.446 280.259 311.323 280.569 311.323C280.875 311.335 281.166 311.462 281.383 311.679C281.6 311.896 281.727 312.186 281.739 312.493L281.797 318.343C281.797 318.497 281.767 318.649 281.708 318.791C281.649 318.933 281.563 319.062 281.454 319.171C281.345 319.279 281.216 319.366 281.074 319.424C280.931 319.483 280.781 319.513 280.627 319.513ZM280.478 304.303C280.169 304.303 279.874 304.181 279.654 303.964C279.435 303.747 279.311 303.453 279.308 303.144L279.247 297.294C279.244 296.984 279.364 296.685 279.581 296.464C279.798 296.242 280.095 296.116 280.405 296.113C280.715 296.11 281.014 296.23 281.236 296.447C281.457 296.664 281.584 296.961 281.587 297.271L281.648 303.121C281.65 303.276 281.621 303.43 281.562 303.574C281.504 303.717 281.418 303.848 281.309 303.958C281.2 304.068 281.07 304.156 280.927 304.215C280.784 304.275 280.63 304.305 280.475 304.305L280.478 304.303ZM280.328 289.093C280.018 289.093 279.72 288.969 279.501 288.75C279.281 288.531 279.158 288.233 279.158 287.923L279.102 282.073C279.102 281.762 279.225 281.465 279.444 281.245C279.664 281.026 279.961 280.903 280.272 280.903C280.578 280.916 280.868 281.043 281.084 281.26C281.301 281.477 281.429 281.767 281.442 282.073L281.498 287.923C281.498 288.077 281.468 288.229 281.409 288.372C281.35 288.514 281.264 288.643 281.155 288.752C281.046 288.861 280.917 288.948 280.775 289.006C280.632 289.065 280.48 289.095 280.326 289.095L280.328 289.093ZM280.176 273.883C279.865 273.883 279.568 273.759 279.348 273.54C279.129 273.321 279.006 273.023 279.006 272.713L278.947 266.863C278.944 266.552 279.065 266.254 279.283 266.032C279.5 265.811 279.796 265.685 280.107 265.682C280.417 265.679 280.716 265.8 280.937 266.017C281.159 266.235 281.284 266.531 281.287 266.842L281.346 272.692C281.349 272.847 281.321 273.002 281.263 273.147C281.206 273.292 281.12 273.424 281.011 273.535C280.901 273.646 280.771 273.734 280.627 273.794C280.484 273.855 280.329 273.885 280.173 273.885L280.176 273.883ZM280.026 258.673C279.716 258.673 279.418 258.549 279.199 258.33C278.979 258.111 278.856 257.813 278.856 257.503L278.8 251.653C278.8 251.342 278.923 251.045 279.143 250.825C279.362 250.606 279.66 250.483 279.97 250.483C280.271 250.503 280.556 250.631 280.77 250.844C280.985 251.057 281.116 251.34 281.14 251.641L281.196 257.491C281.198 257.646 281.169 257.8 281.111 257.944C281.054 258.088 280.967 258.219 280.858 258.33C280.749 258.44 280.619 258.528 280.476 258.587C280.333 258.647 280.179 258.678 280.024 258.677L280.026 258.673ZM278.606 244.736H272.756C272.445 244.736 272.148 244.612 271.928 244.393C271.709 244.174 271.586 243.876 271.586 243.566C271.586 243.255 271.709 242.958 271.928 242.738C272.148 242.519 272.445 242.396 272.756 242.396H278.606C278.916 242.396 279.214 242.519 279.433 242.738C279.652 242.958 279.776 243.255 279.776 243.566C279.776 243.876 279.652 244.174 279.433 244.393C279.214 244.612 278.916 244.736 278.606 244.736ZM263.396 244.722H257.546C257.235 244.722 256.938 244.598 256.718 244.379C256.499 244.159 256.376 243.862 256.376 243.552C256.376 243.241 256.499 242.944 256.718 242.724C256.938 242.505 257.235 242.382 257.546 242.382H263.396C263.706 242.382 264.004 242.505 264.223 242.724C264.442 242.944 264.566 243.241 264.566 243.552C264.566 243.862 264.442 244.159 264.223 244.379C264.004 244.598 263.706 244.722 263.396 244.722ZM248.186 244.705H242.336C242.025 244.705 241.728 244.582 241.508 244.363C241.289 244.143 241.166 243.845 241.166 243.535C241.166 243.225 241.289 242.927 241.508 242.708C241.728 242.488 242.025 242.365 242.336 242.365H248.186C248.496 242.365 248.794 242.488 249.013 242.708C249.232 242.927 249.356 243.225 249.356 243.535C249.356 243.845 249.232 244.143 249.013 244.363C248.794 244.582 248.496 244.705 248.186 244.705ZM232.976 244.689H227.126C226.815 244.689 226.518 244.566 226.298 244.346C226.079 244.127 225.956 243.829 225.956 243.519C225.956 243.209 226.079 242.911 226.298 242.692C226.518 242.472 226.815 242.349 227.126 242.349H232.976C233.286 242.349 233.584 242.472 233.803 242.692C234.022 242.911 234.146 243.209 234.146 243.519C234.146 243.829 234.022 244.127 233.803 244.346C233.584 244.566 233.286 244.689 232.976 244.689ZM217.766 244.672H211.916C211.605 244.672 211.308 244.549 211.088 244.33C210.869 244.11 210.746 243.813 210.746 243.502C210.746 243.192 210.869 242.895 211.088 242.675C211.308 242.456 211.605 242.332 211.916 242.332H217.766C218.076 242.332 218.374 242.456 218.593 242.675C218.812 242.895 218.936 243.192 218.936 243.502C218.936 243.813 218.812 244.11 218.593 244.33C218.374 244.549 218.076 244.672 217.766 244.672ZM202.556 244.656H196.706C196.395 244.656 196.098 244.533 195.878 244.313C195.659 244.094 195.536 243.796 195.536 243.486C195.536 243.176 195.659 242.878 195.878 242.659C196.098 242.439 196.395 242.316 196.706 242.316H202.556C202.866 242.316 203.164 242.439 203.383 242.659C203.602 242.878 203.726 243.176 203.726 243.486C203.726 243.796 203.602 244.094 203.383 244.313C203.164 244.533 202.866 244.656 202.556 244.656ZM187.346 244.642H181.496C181.185 244.642 180.888 244.519 180.668 244.299C180.449 244.08 180.326 243.782 180.326 243.472C180.326 243.162 180.449 242.864 180.668 242.645C180.888 242.425 181.185 242.302 181.496 242.302H187.346C187.656 242.302 187.954 242.425 188.173 242.645C188.392 242.864 188.516 243.162 188.516 243.472C188.516 243.782 188.392 244.08 188.173 244.299C187.954 244.519 187.656 244.642 187.346 244.642ZM172.136 244.626H166.286C165.975 244.626 165.678 244.502 165.458 244.283C165.239 244.064 165.116 243.766 165.116 243.456C165.116 243.145 165.239 242.848 165.458 242.628C165.678 242.409 165.975 242.286 166.286 242.286H172.136C172.446 242.286 172.744 242.409 172.963 242.628C173.182 242.848 173.306 243.145 173.306 243.456C173.306 243.766 173.182 244.064 172.963 244.283C172.744 244.502 172.446 244.626 172.136 244.626ZM156.926 244.609H151.076C150.765 244.609 150.468 244.486 150.248 244.267C150.029 244.047 149.906 243.75 149.906 243.439C149.906 243.129 150.029 242.831 150.248 242.612C150.468 242.393 150.765 242.269 151.076 242.269H156.926C157.236 242.269 157.534 242.393 157.753 242.612C157.972 242.831 158.096 243.129 158.096 243.439C158.096 243.75 157.972 244.047 157.753 244.267C157.534 244.486 157.236 244.609 156.926 244.609ZM141.716 244.593H135.866C135.555 244.593 135.258 244.47 135.038 244.25C134.819 244.031 134.696 243.733 134.696 243.423C134.696 243.113 134.819 242.815 135.038 242.596C135.258 242.376 135.555 242.253 135.866 242.253H141.716C142.026 242.253 142.324 242.376 142.543 242.596C142.762 242.815 142.886 243.113 142.886 243.423C142.886 243.733 142.762 244.031 142.543 244.25C142.324 244.47 142.026 244.593 141.716 244.593ZM126.506 244.576H120.656C120.345 244.576 120.048 244.453 119.828 244.234C119.609 244.014 119.486 243.717 119.486 243.406C119.486 243.096 119.609 242.799 119.828 242.579C120.048 242.36 120.345 242.236 120.656 242.236H126.506C126.816 242.236 127.114 242.36 127.333 242.579C127.552 242.799 127.676 243.096 127.676 243.406C127.676 243.717 127.552 244.014 127.333 244.234C127.114 244.453 126.816 244.576 126.506 244.576ZM111.296 244.562H105.446C105.135 244.562 104.838 244.439 104.618 244.22C104.399 244 104.276 243.703 104.276 243.392C104.276 243.082 104.399 242.785 104.618 242.565C104.838 242.346 105.135 242.222 105.446 242.222H111.296C111.606 242.222 111.904 242.346 112.123 242.565C112.342 242.785 112.466 243.082 112.466 243.392C112.466 243.703 112.342 244 112.123 244.22C111.904 244.439 111.606 244.562 111.296 244.562ZM96.0857 244.546H90.2357C89.9254 244.546 89.6278 244.423 89.4083 244.203C89.1889 243.984 89.0657 243.686 89.0657 243.376C89.0657 243.066 89.1889 242.768 89.4083 242.549C89.6278 242.329 89.9254 242.206 90.2357 242.206H96.0857C96.396 242.206 96.6936 242.329 96.913 242.549C97.1324 242.768 97.2557 243.066 97.2557 243.376C97.2557 243.686 97.1324 243.984 96.913 244.203C96.6936 244.423 96.396 244.546 96.0857 244.546ZM89.7677 235.689C89.4574 235.689 89.1598 235.566 88.9403 235.346C88.7209 235.127 88.5977 234.829 88.5977 234.519V228.669C88.6014 228.358 88.7277 228.06 88.9494 227.841C89.171 227.622 89.4701 227.499 89.7817 227.499C90.0896 227.503 90.3836 227.628 90.5999 227.847C90.8163 228.066 90.9377 228.361 90.9377 228.669V234.519C90.9383 234.674 90.9082 234.827 90.8491 234.971C90.79 235.114 90.703 235.244 90.5933 235.353C90.4836 235.462 90.3533 235.549 90.21 235.607C90.0667 235.666 89.9131 235.695 89.7583 235.694L89.7677 235.689ZM89.8285 220.479C89.5206 220.475 89.2266 220.351 89.0102 220.132C88.7939 219.913 88.6725 219.617 88.6725 219.309V213.459C88.6725 213.149 88.7958 212.851 89.0152 212.632C89.2346 212.412 89.5322 212.289 89.8425 212.289C90.1528 212.289 90.4504 212.412 90.6699 212.632C90.8893 212.851 91.0125 213.149 91.0125 213.459V219.309C91.0132 219.465 90.9826 219.62 90.9227 219.764C90.8627 219.908 90.7745 220.038 90.6633 220.148C90.5521 220.257 90.4201 220.343 90.2752 220.401C90.1302 220.459 89.9751 220.487 89.8191 220.484L89.8285 220.479ZM89.887 205.269C89.5791 205.265 89.2851 205.141 89.0687 204.922C88.8524 204.703 88.731 204.407 88.731 204.099V198.249C88.731 197.939 88.8543 197.641 89.0737 197.422C89.2931 197.202 89.5907 197.079 89.901 197.079C90.2113 197.079 90.5089 197.202 90.7284 197.422C90.9478 197.641 91.071 197.939 91.071 198.249V204.099C91.0717 204.255 91.0411 204.41 90.9812 204.554C90.9212 204.698 90.833 204.828 90.7218 204.938C90.6106 205.047 90.4786 205.133 90.3337 205.191C90.1887 205.249 90.0336 205.277 89.8776 205.274L89.887 205.269ZM89.9478 190.059C89.64 190.055 89.346 189.931 89.1296 189.712C88.9132 189.493 88.7919 189.197 88.7919 188.889V183.039C88.7919 182.885 88.8225 182.731 88.882 182.589C88.9416 182.446 89.0288 182.317 89.1387 182.208C89.2486 182.099 89.3789 182.013 89.5222 181.955C89.6655 181.897 89.8189 181.868 89.9736 181.869C90.1281 181.864 90.2821 181.891 90.4258 181.948C90.5695 182.005 90.6999 182.091 90.8087 182.201C90.9175 182.311 91.0023 182.442 91.058 182.586C91.1136 182.73 91.1387 182.885 91.1319 183.039V188.889C91.1325 189.045 91.102 189.2 91.042 189.344C90.982 189.488 90.8938 189.618 90.7826 189.728C90.6714 189.837 90.5395 189.923 90.3945 189.981C90.2495 190.039 90.0945 190.067 89.9385 190.064L89.9478 190.059ZM90.0087 174.849C89.7008 174.845 89.4068 174.721 89.1904 174.502C88.974 174.283 88.8527 173.987 88.8527 173.679V167.829C88.8678 167.521 88.9981 167.23 89.2178 167.013C89.4376 166.796 89.7307 166.67 90.0391 166.659C90.3466 166.663 90.64 166.789 90.8558 167.008C91.0717 167.227 91.1927 167.522 91.1927 167.829V173.679C91.1934 173.835 91.1628 173.99 91.1028 174.134C91.0429 174.278 90.9547 174.408 90.8435 174.518C90.7323 174.627 90.6003 174.713 90.4553 174.771C90.3104 174.829 90.1553 174.857 89.9993 174.854L90.0087 174.849Z" fill="#244D3B"/>
<path d="M446.106 271.934C445.796 271.934 445.498 271.811 445.279 271.591C445.059 271.372 444.936 271.074 444.936 270.764L444.878 264.914C444.875 264.604 444.995 264.305 445.212 264.083C445.429 263.862 445.726 263.735 446.036 263.732C446.346 263.729 446.645 263.849 446.867 264.067C447.088 264.284 447.215 264.58 447.218 264.891L447.276 270.74C447.279 270.896 447.251 271.051 447.194 271.195C447.137 271.34 447.051 271.472 446.942 271.583C446.833 271.694 446.703 271.782 446.559 271.843C446.416 271.903 446.262 271.934 446.106 271.934ZM445.956 256.724C445.646 256.724 445.349 256.601 445.129 256.381C444.91 256.162 444.786 255.864 444.786 255.554L444.73 249.704C444.727 249.394 444.847 249.095 445.065 248.873C445.282 248.652 445.578 248.525 445.889 248.522C446.199 248.519 446.498 248.639 446.719 248.857C446.941 249.074 447.067 249.37 447.07 249.68L447.126 255.531C447.13 255.687 447.101 255.842 447.043 255.988C446.985 256.133 446.899 256.265 446.789 256.376C446.679 256.488 446.548 256.576 446.403 256.635C446.259 256.695 446.103 256.725 445.947 256.724H445.956ZM445.804 241.514C445.494 241.514 445.196 241.391 444.977 241.171C444.758 240.952 444.634 240.654 444.634 240.344L444.576 234.494C444.576 234.184 444.699 233.886 444.919 233.667C445.138 233.447 445.436 233.324 445.746 233.324C446.054 233.332 446.346 233.458 446.564 233.676C446.782 233.893 446.908 234.186 446.916 234.494L446.974 240.344C446.974 240.654 446.851 240.952 446.632 241.171C446.412 241.391 446.115 241.514 445.804 241.514ZM445.655 226.304C445.344 226.304 445.047 226.181 444.827 225.961C444.608 225.742 444.485 225.444 444.485 225.134L444.428 219.284C444.425 218.974 444.546 218.675 444.763 218.453C444.98 218.232 445.276 218.105 445.587 218.102C445.897 218.099 446.196 218.219 446.417 218.437C446.639 218.654 446.765 218.95 446.768 219.26L446.825 225.111C446.828 225.266 446.8 225.421 446.743 225.566C446.686 225.711 446.6 225.843 446.491 225.954C446.382 226.066 446.252 226.154 446.108 226.215C445.965 226.275 445.81 226.304 445.655 226.304ZM445.502 211.094C445.192 211.094 444.895 210.971 444.675 210.751C444.456 210.532 444.332 210.234 444.332 209.924L444.276 204.074C444.276 203.764 444.4 203.466 444.619 203.247C444.838 203.027 445.136 202.904 445.446 202.904C445.749 202.92 446.036 203.047 446.251 203.261C446.467 203.474 446.597 203.759 446.616 204.062L446.672 209.912C446.674 210.067 446.645 210.221 446.587 210.364C446.529 210.508 446.444 210.638 446.335 210.749C446.226 210.859 446.096 210.946 445.953 211.006C445.811 211.066 445.657 211.094 445.502 211.094ZM445.353 195.884C445.042 195.884 444.745 195.761 444.525 195.541C444.306 195.322 444.183 195.024 444.183 194.714L444.124 188.864C444.121 188.554 444.242 188.255 444.459 188.034C444.677 187.812 444.973 187.686 445.284 187.683C445.594 187.681 445.893 187.801 446.114 188.019C446.335 188.236 446.461 188.533 446.464 188.843L446.523 194.693C446.526 194.848 446.498 195.003 446.44 195.148C446.383 195.292 446.297 195.424 446.188 195.535C446.079 195.646 445.949 195.735 445.806 195.795C445.662 195.855 445.508 195.884 445.353 195.884ZM445.205 180.674C444.895 180.674 444.597 180.551 444.378 180.331C444.159 180.112 444.035 179.814 444.035 179.504L443.977 173.654C443.975 173.499 444.004 173.346 444.062 173.203C444.121 173.059 444.207 172.929 444.315 172.819C444.424 172.709 444.554 172.622 444.696 172.562C444.839 172.503 444.992 172.472 445.147 172.472C445.301 172.469 445.455 172.498 445.598 172.555C445.741 172.613 445.871 172.699 445.98 172.809C446.09 172.918 446.176 173.048 446.234 173.191C446.291 173.334 446.32 173.488 446.317 173.642L446.375 179.492C446.377 179.647 446.348 179.801 446.29 179.944C446.232 180.088 446.146 180.218 446.038 180.329C445.929 180.439 445.799 180.526 445.656 180.586C445.513 180.646 445.36 180.674 445.205 180.674ZM287.777 166.526H281.927C281.617 166.526 281.319 166.403 281.1 166.184C280.88 165.964 280.757 165.667 280.757 165.356C280.757 165.046 280.88 164.748 281.1 164.529C281.319 164.31 281.617 164.186 281.927 164.186H287.777C288.087 164.186 288.385 164.31 288.604 164.529C288.824 164.748 288.947 165.046 288.947 165.356C288.947 165.667 288.824 165.964 288.604 166.184C288.385 166.403 288.087 166.526 287.777 166.526ZM272.567 166.526H266.717C266.407 166.526 266.109 166.403 265.89 166.184C265.67 165.964 265.547 165.667 265.547 165.356C265.547 165.046 265.67 164.748 265.89 164.529C266.109 164.31 266.407 164.186 266.717 164.186H272.567C272.877 164.186 273.175 164.31 273.394 164.529C273.614 164.748 273.737 165.046 273.737 165.356C273.737 165.667 273.614 165.964 273.394 166.184C273.175 166.403 272.877 166.526 272.567 166.526ZM257.357 166.526H254.795C254.64 166.527 254.487 166.496 254.344 166.437C254.201 166.377 254.071 166.29 253.962 166.18C253.515 165.726 253.622 165.579 253.66 162.055C253.663 161.744 253.79 161.448 254.012 161.231C254.234 161.014 254.532 160.894 254.843 160.897C255.153 160.901 255.449 161.027 255.666 161.249C255.883 161.471 256.003 161.77 256 162.08L255.977 164.186H257.357C257.667 164.186 257.965 164.31 258.184 164.529C258.404 164.748 258.527 165.046 258.527 165.356C258.527 165.667 258.404 165.964 258.184 166.184C257.965 166.403 257.667 166.526 257.357 166.526ZM445.053 165.466C444.745 165.466 444.449 165.345 444.23 165.128C444.011 164.911 443.886 164.616 443.883 164.308L443.822 158.458C443.819 158.148 443.94 157.849 444.157 157.627C444.374 157.406 444.67 157.279 444.981 157.276C445.291 157.273 445.59 157.393 445.811 157.611C446.033 157.828 446.159 158.124 446.162 158.435L446.223 164.285C446.225 164.439 446.196 164.593 446.138 164.737C446.08 164.88 445.994 165.011 445.885 165.121C445.777 165.231 445.647 165.319 445.504 165.378C445.361 165.438 445.208 165.466 445.053 165.466ZM254.924 153.881C254.613 153.881 254.316 153.758 254.096 153.538C253.877 153.319 253.754 153.021 253.754 152.711L253.817 146.861C253.826 146.552 253.954 146.259 254.175 146.043C254.396 145.827 254.692 145.705 255.001 145.703C255.154 145.704 255.306 145.737 255.447 145.797C255.589 145.858 255.717 145.945 255.824 146.055C255.931 146.165 256.016 146.295 256.073 146.438C256.13 146.58 256.159 146.733 256.157 146.887L256.094 152.737C256.087 153.042 255.961 153.333 255.742 153.547C255.523 153.761 255.229 153.881 254.924 153.881ZM444.903 150.259C444.595 150.259 444.299 150.137 444.08 149.92C443.861 149.703 443.736 149.409 443.733 149.1L443.675 143.25C443.673 143.096 443.703 142.942 443.761 142.799C443.819 142.656 443.905 142.525 444.013 142.415C444.122 142.306 444.252 142.218 444.394 142.159C444.537 142.099 444.69 142.069 444.845 142.069C444.999 142.065 445.151 142.093 445.294 142.149C445.437 142.206 445.567 142.291 445.676 142.399C445.785 142.507 445.871 142.636 445.93 142.779C445.988 142.921 446.017 143.073 446.015 143.227L446.073 149.077C446.075 149.232 446.046 149.385 445.988 149.528C445.93 149.672 445.844 149.802 445.735 149.912C445.626 150.022 445.497 150.109 445.354 150.168C445.211 150.228 445.058 150.259 444.903 150.259ZM255.085 138.671C254.93 138.671 254.777 138.64 254.635 138.581C254.492 138.521 254.362 138.434 254.253 138.324C254.145 138.214 254.059 138.084 254.001 137.941C253.943 137.797 253.913 137.644 253.915 137.489L253.978 131.639C253.982 131.329 254.108 131.033 254.33 130.816C254.552 130.599 254.851 130.479 255.161 130.482C255.471 130.485 255.768 130.612 255.985 130.834C256.202 131.056 256.322 131.355 256.318 131.665L256.255 137.515C256.251 137.823 256.126 138.117 255.907 138.333C255.688 138.55 255.393 138.671 255.085 138.671ZM444.751 135.049C444.443 135.049 444.147 134.927 443.928 134.71C443.709 134.493 443.584 134.199 443.581 133.89L443.52 128.04C443.517 127.73 443.638 127.431 443.855 127.21C444.072 126.988 444.368 126.862 444.679 126.859C444.989 126.855 445.288 126.976 445.51 127.193C445.731 127.41 445.857 127.707 445.861 128.017L445.921 133.867C445.923 134.022 445.894 134.175 445.836 134.318C445.778 134.462 445.692 134.592 445.583 134.702C445.474 134.812 445.344 134.899 445.202 134.958C445.059 135.018 444.906 135.049 444.751 135.049ZM255.251 123.463C255.096 123.463 254.943 123.433 254.8 123.373C254.657 123.313 254.528 123.226 254.419 123.116C254.31 123.005 254.224 122.875 254.166 122.731C254.108 122.588 254.079 122.434 254.081 122.279L254.144 116.429C254.148 116.119 254.274 115.823 254.496 115.606C254.718 115.389 255.017 115.269 255.327 115.272C255.637 115.275 255.934 115.402 256.151 115.624C256.368 115.846 256.488 116.145 256.484 116.455L256.421 122.305C256.418 122.613 256.293 122.908 256.074 123.125C255.855 123.342 255.559 123.463 255.251 123.463ZM444.602 119.841C444.293 119.841 443.997 119.719 443.778 119.502C443.559 119.285 443.435 118.991 443.432 118.683L443.375 112.833C443.374 112.678 443.403 112.525 443.461 112.381C443.519 112.238 443.605 112.108 443.714 111.998C443.823 111.888 443.952 111.801 444.095 111.741C444.238 111.682 444.391 111.651 444.545 111.651C444.852 111.663 445.142 111.79 445.359 112.007C445.576 112.224 445.703 112.514 445.715 112.821L445.772 118.671C445.772 118.981 445.648 119.279 445.429 119.498C445.209 119.718 444.912 119.841 444.602 119.841ZM255.413 108.253C255.258 108.253 255.105 108.223 254.962 108.163C254.819 108.104 254.69 108.016 254.581 107.906C254.472 107.797 254.386 107.666 254.328 107.523C254.27 107.38 254.241 107.226 254.243 107.072L254.303 101.222C254.305 101.068 254.337 100.916 254.397 100.775C254.458 100.633 254.545 100.505 254.655 100.398C254.765 100.291 254.895 100.206 255.038 100.149C255.18 100.091 255.333 100.063 255.486 100.064C255.64 100.066 255.792 100.098 255.933 100.158C256.074 100.219 256.202 100.306 256.31 100.416C256.417 100.526 256.502 100.656 256.559 100.799C256.617 100.941 256.645 101.094 256.643 101.247L256.583 107.097C256.579 107.405 256.454 107.699 256.235 107.916C256.016 108.132 255.72 108.253 255.413 108.253ZM444.449 104.631C444.141 104.631 443.845 104.509 443.626 104.292C443.407 104.075 443.283 103.781 443.279 103.473L443.221 97.6226C443.218 97.3123 443.338 97.0135 443.555 96.7919C443.773 96.5703 444.069 96.444 444.379 96.4409C444.69 96.4378 444.988 96.5581 445.21 96.7753C445.432 96.9926 445.558 97.2889 445.561 97.5992L445.619 103.449C445.621 103.604 445.592 103.757 445.534 103.901C445.476 104.044 445.39 104.174 445.281 104.284C445.172 104.394 445.043 104.481 444.9 104.541C444.757 104.6 444.604 104.631 444.449 104.631ZM255.574 93.0456C255.419 93.0456 255.266 93.0149 255.123 92.9552C254.98 92.8955 254.851 92.8081 254.742 92.6979C254.633 92.5878 254.547 92.4572 254.489 92.3136C254.431 92.17 254.402 92.0164 254.404 91.8615L254.465 86.0115C254.468 85.7012 254.595 85.405 254.817 85.188C255.038 84.971 255.337 84.851 255.648 84.8544C255.958 84.8578 256.254 84.9844 256.471 85.2062C256.688 85.428 256.808 85.727 256.805 86.0373L256.744 91.8873C256.741 92.1956 256.616 92.4901 256.397 92.707C256.178 92.9239 255.882 93.0456 255.574 93.0456ZM444.309 89.4209C444.001 89.4209 443.705 89.2993 443.486 89.0824C443.267 88.8655 443.142 88.5709 443.139 88.2626L443.083 82.4126C443.083 82.1043 443.205 81.8085 443.421 81.5894C443.638 81.3703 443.933 81.2457 444.241 81.2426C444.545 81.2589 444.833 81.3855 445.051 81.5987C445.268 81.8119 445.401 82.0971 445.423 82.4009L445.479 88.2509C445.479 88.5612 445.356 88.8588 445.136 89.0782C444.917 89.2977 444.619 89.4209 444.309 89.4209ZM255.745 77.8356C255.59 77.8356 255.437 77.8049 255.294 77.7452C255.151 77.6855 255.021 77.5981 254.913 77.4879C254.804 77.3778 254.718 77.2472 254.66 77.1036C254.602 76.96 254.573 76.8064 254.575 76.6515L254.64 70.8015C254.642 70.6479 254.674 70.4961 254.734 70.3548C254.795 70.2135 254.882 70.0854 254.992 69.978C255.102 69.8705 255.232 69.7858 255.375 69.7285C255.517 69.6713 255.67 69.6427 255.823 69.6444C255.977 69.6461 256.129 69.678 256.27 69.7384C256.411 69.7988 256.539 69.8864 256.647 69.9962C256.754 70.106 256.839 70.236 256.896 70.3786C256.953 70.5212 256.982 70.6736 256.98 70.8273L256.915 76.6773C256.912 76.9872 256.786 77.2832 256.565 77.5004C256.344 77.7175 256.045 77.8381 255.735 77.8356H255.745ZM444.157 74.2133C443.847 74.2133 443.549 74.09 443.33 73.8706C443.11 73.6512 442.987 73.3536 442.987 73.0433L442.928 67.1933C442.928 66.883 443.052 66.5854 443.271 66.3659C443.491 66.1465 443.788 66.0233 444.098 66.0233C444.253 66.0214 444.406 66.0503 444.548 66.1085C444.691 66.1666 444.821 66.2527 444.93 66.3617C445.039 66.4708 445.125 66.6005 445.183 66.7433C445.241 66.8861 445.27 67.0391 445.268 67.1933L445.327 73.0433C445.327 73.1977 445.296 73.3506 445.237 73.4932C445.178 73.6357 445.091 73.7651 444.981 73.8739C444.871 73.9827 444.741 74.0687 444.598 74.1269C444.455 74.1851 444.302 74.2145 444.148 74.2133H444.157ZM255.909 62.6256C255.754 62.6256 255.601 62.5949 255.458 62.5354C255.315 62.4759 255.186 62.3887 255.077 62.2788C254.968 62.1689 254.882 62.0385 254.824 61.8952C254.766 61.7519 254.737 61.5985 254.739 61.4439L254.76 59.3894C254.763 59.0815 254.888 58.7875 255.107 58.5711C255.326 58.3547 255.622 58.2334 255.93 58.2334H259.728C260.038 58.2334 260.335 58.3567 260.555 58.5761C260.774 58.7955 260.898 59.0931 260.898 59.4034C260.898 59.7137 260.774 60.0113 260.555 60.2307C260.335 60.4501 260.038 60.5734 259.728 60.5734H257.088V61.4696C257.086 61.6237 257.054 61.7758 256.993 61.9174C256.932 62.059 256.844 62.1871 256.734 62.2945C256.623 62.4019 256.493 62.4865 256.35 62.5433C256.206 62.6001 256.053 62.6281 255.899 62.6256H255.909ZM442.252 60.7536H436.402C436.092 60.7536 435.794 60.6303 435.575 60.4109C435.355 60.1915 435.232 59.8939 435.232 59.5836C435.232 59.2733 435.355 58.9757 435.575 58.7563C435.794 58.5368 436.092 58.4136 436.402 58.4136H442.252C442.562 58.4136 442.86 58.5368 443.08 58.7563C443.299 58.9757 443.422 59.2733 443.422 59.5836C443.422 59.8939 443.299 60.1915 443.08 60.4109C442.86 60.6303 442.562 60.7536 442.252 60.7536ZM427.042 60.7372H421.192C420.882 60.7372 420.584 60.6139 420.365 60.3945C420.145 60.1751 420.022 59.8775 420.022 59.5672C420.022 59.2569 420.145 58.9593 420.365 58.7399C420.584 58.5205 420.882 58.3972 421.192 58.3972H427.042C427.353 58.3972 427.65 58.5205 427.87 58.7399C428.089 58.9593 428.212 59.2569 428.212 59.5672C428.212 59.8775 428.089 60.1751 427.87 60.3945C427.65 60.6139 427.353 60.7372 427.042 60.7372ZM411.832 60.7208H405.982C405.672 60.7208 405.374 60.5976 405.155 60.3781C404.935 60.1587 404.812 59.8611 404.812 59.5508C404.812 59.2405 404.935 58.9429 405.155 58.7235C405.374 58.5041 405.672 58.3808 405.982 58.3808H411.832C412.143 58.3808 412.44 58.5041 412.66 58.7235C412.879 58.9429 413.002 59.2405 413.002 59.5508C413.002 59.8611 412.879 60.1587 412.66 60.3781C412.44 60.5976 412.143 60.7208 411.832 60.7208ZM396.622 60.7068H390.772C390.462 60.7068 390.164 60.5835 389.945 60.3641C389.725 60.1447 389.602 59.8471 389.602 59.5368C389.602 59.2265 389.725 58.9289 389.945 58.7095C390.164 58.49 390.462 58.3668 390.772 58.3668H396.622C396.932 58.3668 397.23 58.49 397.45 58.7095C397.669 58.9289 397.792 59.2265 397.792 59.5368C397.792 59.8471 397.669 60.1447 397.45 60.3641C397.23 60.5835 396.932 60.7068 396.622 60.7068ZM381.412 60.6904H375.562C375.252 60.6904 374.954 60.5671 374.735 60.3477C374.515 60.1283 374.392 59.8307 374.392 59.5204C374.392 59.2101 374.515 58.9125 374.735 58.6931C374.954 58.4737 375.252 58.3504 375.562 58.3504H381.412C381.723 58.3504 382.02 58.4737 382.24 58.6931C382.459 58.9125 382.582 59.2101 382.582 59.5204C382.582 59.8307 382.459 60.1283 382.24 60.3477C382.02 60.5671 381.723 60.6904 381.412 60.6904ZM366.202 60.674H360.352C360.042 60.674 359.744 60.5508 359.525 60.3313C359.305 60.1119 359.182 59.8143 359.182 59.504C359.182 59.1937 359.305 58.8961 359.525 58.6767C359.744 58.4573 360.042 58.334 360.352 58.334H366.202C366.512 58.334 366.81 58.4573 367.03 58.6767C367.249 58.8961 367.372 59.1937 367.372 59.504C367.372 59.8143 367.249 60.1119 367.03 60.3313C366.81 60.5508 366.512 60.674 366.202 60.674ZM350.992 60.6576H345.142C344.832 60.6576 344.534 60.5344 344.315 60.315C344.095 60.0955 343.972 59.7979 343.972 59.4876C343.972 59.1773 344.095 58.8797 344.315 58.6603C344.534 58.4409 344.832 58.3176 345.142 58.3176H350.992C351.302 58.3176 351.6 58.4409 351.82 58.6603C352.039 58.8797 352.162 59.1773 352.162 59.4876C352.162 59.7979 352.039 60.0955 351.82 60.315C351.6 60.5344 351.302 60.6576 350.992 60.6576ZM335.782 60.6413H329.932C329.622 60.6413 329.324 60.518 329.105 60.2986C328.885 60.0792 328.762 59.7816 328.762 59.4713C328.762 59.161 328.885 58.8634 329.105 58.6439C329.324 58.4245 329.622 58.3013 329.932 58.3013H335.782C336.092 58.3013 336.39 58.4245 336.61 58.6439C336.829 58.8634 336.952 59.161 336.952 59.4713C336.952 59.7816 336.829 60.0792 336.61 60.2986C336.39 60.518 336.092 60.6413 335.782 60.6413ZM320.572 60.6249H314.722C314.412 60.6249 314.114 60.5016 313.895 60.2822C313.675 60.0628 313.552 59.7652 313.552 59.4549C313.552 59.1446 313.675 58.847 313.895 58.6276C314.114 58.4081 314.412 58.2849 314.722 58.2849H320.572C320.883 58.2849 321.18 58.4081 321.4 58.6276C321.619 58.847 321.742 59.1446 321.742 59.4549C321.742 59.7652 321.619 60.0628 321.4 60.2822C321.18 60.5016 320.883 60.6249 320.572 60.6249ZM305.362 60.6085H299.512C299.202 60.6085 298.904 60.4852 298.685 60.2658C298.465 60.0464 298.342 59.7488 298.342 59.4385C298.342 59.1282 298.465 58.8306 298.685 58.6112C298.904 58.3918 299.202 58.2685 299.512 58.2685H305.362C305.673 58.2685 305.97 58.3918 306.19 58.6112C306.409 58.8306 306.532 59.1282 306.532 59.4385C306.532 59.7488 306.409 60.0464 306.19 60.2658C305.97 60.4852 305.673 60.6085 305.362 60.6085ZM290.152 60.5921H284.302C283.992 60.5921 283.694 60.4689 283.475 60.2494C283.255 60.03 283.132 59.7324 283.132 59.4221C283.132 59.1118 283.255 58.8142 283.475 58.5948C283.694 58.3754 283.992 58.2521 284.302 58.2521H290.152C290.463 58.2521 290.76 58.3754 290.98 58.5948C291.199 58.8142 291.322 59.1118 291.322 59.4221C291.322 59.7324 291.199 60.03 290.98 60.2494C290.76 60.4689 290.463 60.5921 290.152 60.5921ZM274.942 60.5781H269.092C268.782 60.5781 268.484 60.4548 268.265 60.2354C268.045 60.016 267.922 59.7184 267.922 59.4081C267.922 59.0978 268.045 58.8002 268.265 58.5808C268.484 58.3613 268.782 58.2381 269.092 58.2381H274.942C275.253 58.2381 275.55 58.3613 275.77 58.5808C275.989 58.8002 276.112 59.0978 276.112 59.4081C276.112 59.7184 275.989 60.016 275.77 60.2354C275.55 60.4548 275.253 60.5781 274.942 60.5781Z" fill="#244D3B"/>
<path d="M57.6797 24.5254H194.104V160.95H57.6797V24.5254Z" fill="white"/>
<path d="M299.312 110.343H416.902V227.932H299.312V110.343Z" fill="white"/>
<path d="M194.107 23.3535H50.3653C50.055 23.3535 49.7574 23.4768 49.538 23.6962C49.3186 23.9156 49.1953 24.2132 49.1953 24.5235V160.946C49.1953 161.256 49.3186 161.553 49.538 161.773C49.7574 161.992 50.055 162.116 50.3653 162.116H194.107C194.417 162.116 194.715 161.992 194.934 161.773C195.154 161.553 195.277 161.256 195.277 160.946V24.5235C195.277 24.2132 195.154 23.9156 194.934 23.6962C194.715 23.4768 194.417 23.3535 194.107 23.3535ZM192.937 159.776H58.8548V25.6935H192.937V159.776Z" fill="#244D3B"/>
<path d="M423.95 109.163H299.303C298.993 109.163 298.695 109.286 298.475 109.506C298.256 109.725 298.133 110.023 298.133 110.333V227.932C298.133 228.242 298.256 228.54 298.475 228.759C298.695 228.979 298.993 229.102 299.303 229.102H423.95C424.26 229.102 424.558 228.979 424.777 228.759C424.997 228.54 425.12 228.242 425.12 227.932V110.333C425.12 110.023 424.997 109.725 424.777 109.506C424.558 109.286 424.26 109.163 423.95 109.163ZM300.473 111.503H415.673V226.762H300.482L300.473 111.503Z" fill="#244D3B"/>
<path d="M158.413 139.946H93.373C80.1005 139.946 71.845 124.64 78.6006 112.568L111.127 54.4334C112.55 51.7502 114.677 49.5053 117.279 47.9397C119.882 46.3741 122.862 45.5469 125.899 45.5469C128.936 45.5469 131.916 46.3741 134.519 47.9397C137.121 49.5053 139.248 51.7502 140.671 54.4334L173.197 112.568C179.948 124.659 171.667 139.946 158.413 139.946ZM113.165 55.5753L80.6387 113.71C74.7466 124.229 81.8906 137.606 93.3683 137.606H158.42C169.83 137.606 177.08 124.301 171.15 113.71L138.619 55.5753C137.401 53.2545 135.571 51.3111 133.328 49.9551C131.085 48.5992 128.513 47.8825 125.892 47.8825C123.271 47.8825 120.699 48.5992 118.456 49.9551C116.213 51.3111 114.383 53.2545 113.165 55.5753Z" fill="#244D3B"/>
<path fill-rule="evenodd" clip-rule="evenodd" d="M125.893 113.921C127.54 113.921 129.15 114.41 130.519 115.326C131.888 116.241 132.955 117.542 133.585 119.064C134.215 120.585 134.38 122.26 134.058 123.875C133.737 125.49 132.943 126.974 131.779 128.139C130.614 129.303 129.13 130.096 127.514 130.417C125.899 130.738 124.225 130.573 122.703 129.943C121.181 129.312 119.881 128.245 118.966 126.876C118.051 125.506 117.563 123.896 117.562 122.249C117.564 120.04 118.442 117.922 120.004 116.361C121.566 114.799 123.684 113.922 125.893 113.921Z" fill="#81F889"/>
<path fill-rule="evenodd" clip-rule="evenodd" d="M125.796 64.2353C130.347 64.3078 135.755 68.0331 133.698 83.8328C132.016 96.766 129.652 106.498 125.56 106.5C122.625 106.5 119.557 101.006 116.331 84.0762C113.434 68.8498 120.922 64.1581 125.796 64.2353Z" fill="#81F889"/>
<path d="M125.894 131.742C124.016 131.742 122.18 131.184 120.618 130.14C119.056 129.096 117.839 127.613 117.121 125.877C116.402 124.142 116.214 122.232 116.581 120.39C116.948 118.547 117.853 116.855 119.181 115.527C120.51 114.199 122.202 113.295 124.044 112.928C125.887 112.562 127.796 112.75 129.532 113.469C131.267 114.188 132.75 115.406 133.794 116.968C134.838 118.529 135.395 120.366 135.395 122.244C135.391 124.762 134.389 127.177 132.608 128.957C130.827 130.738 128.412 131.739 125.894 131.742ZM125.894 115.086C124.479 115.087 123.095 115.507 121.918 116.294C120.741 117.08 119.824 118.199 119.283 119.507C118.741 120.815 118.6 122.254 118.876 123.642C119.153 125.03 119.835 126.306 120.836 127.306C121.837 128.307 123.112 128.989 124.501 129.265C125.889 129.541 127.328 129.399 128.636 128.857C129.944 128.315 131.062 127.398 131.848 126.221C132.635 125.044 133.055 123.66 133.055 122.244C133.051 120.347 132.295 118.528 130.953 117.188C129.611 115.847 127.791 115.093 125.894 115.091V115.086Z" fill="#244D3B"/>
<path d="M125.555 107.671C121.406 107.671 118.301 100.679 115.179 84.2942C111.234 63.6203 126.353 59.2866 132.121 65.9673C135.051 69.358 135.973 75.4186 134.856 83.9853C132.697 100.583 129.917 107.668 125.555 107.671ZM125.67 65.4034C124.512 65.4352 123.375 65.7168 122.337 66.2289C121.299 66.7411 120.383 67.4716 119.653 68.3705C117.746 70.638 115.821 75.1565 117.477 83.8566C123.114 113.441 128.918 111.494 132.535 83.6811C133.523 76.1042 133.303 65.4034 125.67 65.4034Z" fill="#244D3B"/>
<path d="M227.281 102.108H222.856V95.7266C222.856 95.4163 222.733 95.1187 222.514 94.8993C222.294 94.6799 221.997 94.5566 221.686 94.5566C221.376 94.5566 221.079 94.6799 220.859 94.8993C220.64 95.1187 220.516 95.4163 220.516 95.7266V102.115H216.815C216.504 102.115 216.207 102.238 215.987 102.458C215.768 102.677 215.645 102.975 215.645 103.285C215.645 103.595 215.768 103.893 215.987 104.112C216.207 104.332 216.504 104.455 216.815 104.455H220.486V110.836C220.486 111.146 220.609 111.444 220.829 111.663C221.048 111.883 221.346 112.006 221.656 112.006C221.966 112.006 222.264 111.883 222.483 111.663C222.703 111.444 222.826 111.146 222.826 110.836V104.448H227.272C227.582 104.448 227.88 104.325 228.099 104.105C228.319 103.886 228.442 103.588 228.442 103.278C228.442 102.968 228.319 102.67 228.099 102.451C227.88 102.231 227.582 102.108 227.272 102.108H227.281Z" fill="#244D3B"/>
<path d="M477.769 232.102H471.849V223.728C471.852 223.576 471.826 223.425 471.77 223.283C471.714 223.142 471.631 223.013 471.525 222.904C471.42 222.795 471.293 222.709 471.153 222.649C471.014 222.59 470.864 222.559 470.712 222.558C470.398 222.557 470.097 222.679 469.872 222.898C469.647 223.116 469.517 223.414 469.509 223.728V232.11H464.541C464.231 232.11 463.933 232.233 463.714 232.452C463.494 232.672 463.371 232.969 463.371 233.28C463.371 233.59 463.494 233.887 463.714 234.107C463.933 234.326 464.231 234.45 464.541 234.45H469.509V242.824C469.506 242.976 469.533 243.127 469.588 243.268C469.644 243.409 469.727 243.537 469.832 243.646C469.938 243.755 470.064 243.842 470.203 243.902C470.342 243.961 470.492 243.993 470.644 243.994C470.958 243.995 471.259 243.873 471.484 243.655C471.71 243.436 471.84 243.138 471.849 242.824V234.442H477.769C478.079 234.442 478.377 234.319 478.596 234.1C478.816 233.88 478.939 233.583 478.939 233.272C478.939 232.962 478.816 232.665 478.596 232.445C478.377 232.226 478.079 232.102 477.769 232.102Z" fill="#244D3B"/>
<path d="M52.0936 264.79H43.1454V252.304C43.1476 252.151 43.1195 252 43.0628 251.858C43.0061 251.717 42.9219 251.588 42.815 251.479C42.7082 251.37 42.5808 251.284 42.4403 251.225C42.2998 251.165 42.149 251.134 41.9965 251.134C41.6838 251.133 41.3833 251.255 41.1603 251.474C40.9373 251.693 40.8097 251.991 40.8054 252.304V264.797H33.17C32.8597 264.797 32.5621 264.92 32.3427 265.14C32.1233 265.359 32 265.657 32 265.967C32 266.277 32.1233 266.575 32.3427 266.794C32.5621 267.014 32.8597 267.137 33.17 267.137H40.7563V279.623C40.7541 279.776 40.7821 279.927 40.8387 280.068C40.8953 280.21 40.9793 280.338 41.0859 280.447C41.1924 280.556 41.3195 280.643 41.4598 280.702C41.6 280.761 41.7506 280.792 41.9029 280.793C42.2157 280.795 42.5165 280.672 42.7399 280.453C42.9633 280.234 43.0914 279.936 43.0963 279.623V267.13H52.0936C52.4039 267.13 52.7015 267.007 52.9209 266.787C53.1403 266.568 53.2636 266.27 53.2636 265.96C53.2636 265.65 53.1403 265.352 52.9209 265.133C52.7015 264.913 52.4039 264.79 52.0936 264.79Z" fill="#244D3B"/>
<path fill-rule="evenodd" clip-rule="evenodd" d="M310.824 284.106L312.61 303.201L326.165 295.659L310.824 284.106Z" fill="white"/>
<path fill-rule="evenodd" clip-rule="evenodd" d="M417.418 22.5742L418.939 39.8668L430.499 33.0364L417.418 22.5742Z" fill="white"/>
<path d="M312.608 304.371C312.315 304.372 312.033 304.264 311.816 304.067C311.6 303.871 311.465 303.6 311.438 303.309L309.65 284.214C309.628 283.988 309.673 283.76 309.779 283.559C309.884 283.358 310.046 283.191 310.245 283.081C310.443 282.97 310.67 282.92 310.897 282.936C311.124 282.951 311.341 283.033 311.522 283.171L326.865 294.723C327.021 294.84 327.145 294.995 327.226 295.172C327.308 295.35 327.343 295.545 327.33 295.739C327.316 295.934 327.254 296.122 327.149 296.287C327.044 296.451 326.9 296.587 326.73 296.682C311.936 304.937 313.034 304.371 312.608 304.371ZM312.233 286.634L313.607 301.306L324.022 295.512L312.233 286.634Z" fill="#244D3B"/>
<path d="M418.936 41.0366C418.642 41.0377 418.359 40.9287 418.143 40.7311C417.926 40.5335 417.791 40.2617 417.766 39.9695L416.247 22.6769C416.226 22.4483 416.273 22.2187 416.382 22.0166C416.491 21.8144 416.657 21.6488 416.859 21.5403C417.061 21.4318 417.291 21.3852 417.52 21.4063C417.748 21.4274 417.966 21.5153 418.145 21.659L431.223 32.1235C431.371 32.2418 431.488 32.3943 431.564 32.5678C431.64 32.7414 431.673 32.9308 431.659 33.1197C431.646 33.3087 431.587 33.4916 431.487 33.6527C431.388 33.8138 431.25 33.9483 431.087 34.0447C418.521 41.4859 419.394 41.0366 418.936 41.0366ZM418.823 25.1971L419.939 37.915L428.443 32.891L418.823 25.1971Z" fill="#244D3B"/>
<path d="M359.289 192.381C360.758 191.7 361.95 190.538 362.669 189.087C363.387 187.636 363.589 185.984 363.24 184.403C362.892 182.822 362.014 181.407 360.752 180.393C359.49 179.379 357.919 178.826 356.301 178.826C354.682 178.826 353.111 179.379 351.849 180.393C350.587 181.407 349.709 182.822 349.361 184.403C349.012 185.984 349.214 187.636 349.932 189.087C350.651 190.538 351.843 191.7 353.312 192.381L349.274 202.796C349.203 202.973 349.178 203.165 349.198 203.355C349.219 203.545 349.286 203.726 349.394 203.884C349.501 204.042 349.645 204.171 349.814 204.261C349.983 204.35 350.171 204.396 350.362 204.396H362.242C362.431 204.396 362.617 204.349 362.784 204.261C362.951 204.173 363.095 204.046 363.202 203.89C363.309 203.734 363.377 203.555 363.399 203.367C363.422 203.179 363.399 202.989 363.332 202.812L359.289 192.381Z" fill="#244D3B"/>
<path d="M388.494 168.656H375.579C376.202 156.235 377.477 125.382 360.276 123.464C337.147 120.89 332.041 137.036 331.026 142.041C329.902 147.995 329.517 154.065 329.881 160.113C329.903 160.409 330.035 160.687 330.251 160.891C330.468 161.095 330.754 161.21 331.051 161.212H341.998C342.299 161.216 342.589 161.103 342.807 160.896C343.026 160.69 343.155 160.406 343.168 160.106L343.636 148.172C343.657 147.647 344.261 135.32 354.362 135.208C355.32 135.17 356.274 135.331 357.165 135.683C358.056 136.035 358.864 136.569 359.536 137.251C363.28 141.086 363.093 148.815 363.091 148.895C363.037 150.746 362.735 164.556 362.646 168.658H327.717C327.407 168.658 327.109 168.782 326.89 169.001C326.67 169.22 326.547 169.518 326.547 169.828V213.914C326.547 214.224 326.67 214.522 326.89 214.741C327.109 214.961 327.407 215.084 327.717 215.084H388.494C388.804 215.084 389.102 214.961 389.321 214.741C389.54 214.522 389.664 214.224 389.664 213.914V169.826C389.664 169.516 389.54 169.218 389.321 168.999C389.102 168.779 388.804 168.656 388.494 168.656ZM361.207 135.613C360.324 134.691 359.253 133.969 358.068 133.496C356.883 133.022 355.61 132.807 354.334 132.866C344.495 132.976 341.504 142.862 341.296 148.076L340.87 158.872H332.161C331.933 153.386 332.325 147.891 333.331 142.492C334.243 137.976 338.865 123.405 360.021 125.78C375.104 127.463 373.827 156.902 373.242 168.647H364.981C365.073 164.486 365.372 150.792 365.426 148.953C365.449 148.604 365.655 140.152 361.207 135.613ZM387.324 212.742H328.887V170.996H387.324V212.742Z" fill="#244D3B"/>
<path fill-rule="evenodd" clip-rule="evenodd" d="M310.601 441.844L213.473 434.875V426.734L316.536 416.934L378.513 265.96L473.135 293.691L426.139 410.991L424.796 419.008L310.601 441.844Z" fill="white"/>
<path d="M474.191 293.178C473.833 292.453 480.179 294.479 378.843 264.836C378.566 264.757 378.27 264.782 378.011 264.908C377.752 265.033 377.549 265.249 377.439 265.515L315.731 415.839C234.645 423.54 217.355 425.131 213.707 425.569C212.911 425.662 212.261 425.833 212.303 426.79V434.875C212.302 435.171 212.414 435.456 212.615 435.674C212.817 435.891 213.093 436.023 213.388 436.045L310.601 443.018C310.835 443.018 306.095 443.858 425.027 420.158C425.262 420.114 425.477 419.999 425.645 419.829C425.812 419.659 425.923 419.441 425.963 419.206L427.288 411.311C477.687 285.48 474.535 293.904 474.191 293.178ZM309.434 440.587L214.645 433.784V427.96L309.434 432.507V440.587ZM309.834 430.183L229.878 426.348L314.717 418.284L309.834 430.183ZM425.055 410.555C424.953 410.801 424.967 410.92 423.776 418.017L311.774 440.416V431.622L379.196 267.378L471.572 294.451L425.055 410.555Z" fill="#244D3B"/>
<path d="M326.232 392.921L289.55 379.501C287.079 374.54 263.424 327.267 249.316 306.76C238.828 294.627 229.735 291.252 224.35 290.438C238.889 284.064 245.656 278.326 244.846 265.882C244.47 260.077 243.239 242.522 243.208 241.705C242.843 233.183 242.23 218.921 227.727 201.572C223.626 196.726 218.543 192.805 212.815 190.068C207.087 187.331 200.843 185.84 194.496 185.694C188.15 185.547 181.844 186.749 175.996 189.219C170.147 191.689 164.889 195.371 160.569 200.023C144.36 217.62 129.11 238.352 120.106 245.653C109.159 254.545 109.709 262.622 110.322 265.391C106.807 266.118 103.399 267.294 100.183 268.889C71.1834 283.266 67.1305 307.445 58.9475 326.004C52.2575 341.179 32.5898 403.458 45.2094 430.915C46.4158 433.871 48.2595 436.525 50.6091 438.686C52.9588 440.848 55.7564 442.464 58.8025 443.42C89.0657 452.581 164.734 439.599 195.795 433.698C205.429 431.868 215.065 430.585 222.134 425.524C222.312 425.397 222.451 425.223 222.535 425.022C222.619 424.821 222.645 424.6 222.61 424.385C222.576 424.169 222.481 423.968 222.338 423.803C222.195 423.639 222.008 423.517 221.8 423.453C220.947 423.154 220.165 422.682 219.504 422.066C218.843 421.449 218.318 420.703 217.96 419.873C217.108 417.605 217.77 414.68 219.925 411.177C224.334 404.01 225.888 402.714 226.126 402.543C226.387 402.438 226.602 402.243 226.731 401.994C226.859 401.744 226.894 401.456 226.828 401.183C226.655 400.453 224.741 394.664 207.788 393.997C212.399 386.279 216.39 378.208 219.722 369.858C227.065 380.467 253.652 419.7 264.746 421.12C278.124 422.831 316.539 416.934 316.539 416.934L325.394 395.104C325.539 395.166 325.694 395.198 325.852 395.198C326.009 395.198 326.164 395.166 326.309 395.105C326.454 395.044 326.585 394.954 326.694 394.841C326.804 394.728 326.889 394.594 326.945 394.447C327.002 394.3 327.028 394.143 327.022 393.986C327.017 393.829 326.979 393.675 326.913 393.532C326.846 393.39 326.752 393.262 326.634 393.157C326.517 393.052 326.38 392.972 326.232 392.921Z" fill="#244D3B"/>
<path d="M287.995 381.466C287.818 381.466 287.644 381.426 287.485 381.349C281.511 378.438 265.381 378.073 265.22 378.073C264.909 378.07 264.613 377.943 264.396 377.722C264.179 377.5 264.059 377.201 264.063 376.891C264.066 376.58 264.193 376.284 264.414 376.067C264.636 375.85 264.935 375.73 265.245 375.733C270.627 375.733 283.397 376.758 288.507 379.243C288.746 379.359 288.938 379.552 289.053 379.791C289.167 380.03 289.197 380.301 289.137 380.559C289.078 380.818 288.932 381.048 288.725 381.213C288.517 381.378 288.26 381.467 287.995 381.466Z" fill="#81F889"/>
<path d="M235.308 232.659C229.245 211.115 223.526 212.802 220.143 212.266C214.37 211.351 202.71 222.143 186.351 231.475C169.992 240.807 154.719 250.149 154.829 265.96C154.939 281.771 169.164 289.903 179.111 297.531C183.558 300.826 187.207 305.079 189.786 309.975C192.082 303.978 198.98 296.146 205.843 291.501C216.303 284.423 228.703 278.292 231.979 273.729C237.721 265.735 240.871 252.425 235.308 232.659Z" fill="#81F889"/>
<path fill-rule="evenodd" clip-rule="evenodd" d="M167.351 250.827C167.351 250.827 165.855 268.662 155.508 271.608C155.508 271.608 156.025 281.813 172.971 292.982C179.276 297.63 185.062 302.943 190.229 308.831C192.428 302.55 196.907 296.696 205.656 291.627L196.519 284.956L196.895 284.319C204.353 286.191 203.447 281.844 206.957 277.938C209.771 274.26 212.963 270.887 216.481 267.876C222.818 262.354 222.268 259.686 223.658 253.944C225.048 248.201 222.004 245.56 227.203 240.515C235.309 232.65 234.441 224.493 228.581 216.665C223.106 209.355 216.631 212.687 213.43 214.227C210.905 215.446 191.071 228.653 175.976 237.718C171.364 240.698 166.955 243.981 162.778 247.546C160.104 249.297 167.351 250.827 167.351 250.827Z" fill="white"/>
<path fill-rule="evenodd" clip-rule="evenodd" d="M216.121 242.251C216.121 242.251 219.397 238.914 224.379 244.261C223.472 245.112 222.313 245.644 221.077 245.778C218.028 246.402 216.121 242.251 216.121 242.251Z" fill="white"/>
<path fill-rule="evenodd" clip-rule="evenodd" d="M197.641 270.088C197.641 270.088 202.176 269.231 204.223 271.607C206.271 273.982 206.095 278.601 204.474 281.685C202.852 284.769 196.651 284.633 192.331 282.799C188.012 280.964 191.859 274.95 197.641 270.088Z" fill="#81F889"/>
<path d="M209.727 259.062C209.433 258.963 209.19 258.751 209.052 258.473C208.914 258.195 208.892 257.873 208.991 257.579C209.09 257.285 209.302 257.042 209.58 256.904C209.858 256.766 210.179 256.744 210.473 256.843C211.213 257.093 211.997 257.186 212.775 257.117C213.553 257.048 214.308 256.817 214.992 256.441C216.093 255.922 216.963 255.013 217.432 253.89C217.748 252.762 216.061 246.594 214.318 241.523C214.23 241.233 214.258 240.921 214.396 240.651C214.533 240.381 214.771 240.176 215.057 240.077C215.343 239.979 215.657 239.995 215.931 240.123C216.206 240.251 216.42 240.48 216.529 240.763C217.437 243.4 220.346 252.187 219.686 254.524C218.907 256.4 217.447 257.91 215.599 258.752C213.751 259.594 211.653 259.704 209.727 259.062Z" fill="#244D3B"/>
<path d="M216.819 236.848C218.511 235.779 220.406 235.073 222.385 234.775C224.364 234.476 226.383 234.59 228.315 235.111C228.592 235.18 228.837 235.339 229.011 235.564C229.185 235.79 229.278 236.067 229.275 236.352C229.202 237.54 229.195 237.636 217.647 238.951C217.391 238.981 217.133 238.925 216.912 238.792C216.691 238.66 216.52 238.458 216.425 238.218C216.331 237.978 216.318 237.714 216.389 237.466C216.46 237.218 216.612 237.001 216.819 236.848Z" fill="#244D3B"/>
<path fill-rule="evenodd" clip-rule="evenodd" d="M192.523 233.465C194.401 232.906 196.401 232.913 198.274 233.486C200.147 234.059 201.81 235.171 203.053 236.684C202.306 237.234 201.452 237.623 200.545 237.824C199.639 238.025 198.701 238.036 197.791 237.854C195.574 237.054 193.71 235.501 192.523 233.465Z" fill="white"/>
<path fill-rule="evenodd" clip-rule="evenodd" d="M212.801 234.019C211.367 232.37 210.038 230.633 208.823 228.817C207.185 226.271 203.331 220.297 189.934 224.781C189.671 224.869 189.448 225.048 189.304 225.286C189.161 225.524 189.107 225.805 189.152 226.079C189.197 226.353 189.338 226.603 189.55 226.782C189.762 226.962 190.031 227.06 190.309 227.06C190.451 227.06 199.643 227.099 203.698 231.15C208.378 235.83 211.561 235.954 211.909 235.954C212.134 235.955 212.354 235.892 212.544 235.771C212.734 235.65 212.884 235.478 212.978 235.274C213.072 235.07 213.106 234.843 213.074 234.62C213.043 234.398 212.948 234.189 212.801 234.019Z" fill="#244D3B"/>
<path d="M203.905 235.888C202.508 234.199 200.64 232.964 198.539 232.339C196.439 231.714 194.199 231.728 192.106 232.378C191.816 232.488 191.582 232.709 191.454 232.992C191.327 233.275 191.318 233.597 191.428 233.888C191.538 234.178 191.759 234.412 192.042 234.54C192.325 234.667 192.647 234.676 192.937 234.566C193.815 234.282 194.738 234.166 195.658 234.225C195.516 235.002 195.687 235.805 196.136 236.457C196.584 237.108 197.272 237.555 198.05 237.699C198.634 237.886 199.263 237.879 199.842 237.68C200.422 237.481 200.923 237.1 201.27 236.595C201.592 236.876 201.899 237.173 202.189 237.487C202.402 237.708 202.693 237.837 202.999 237.845C203.306 237.854 203.604 237.742 203.829 237.534C204.054 237.325 204.188 237.036 204.202 236.73C204.216 236.424 204.109 236.124 203.905 235.895V235.888Z" fill="#244D3B"/>
<path d="M225.032 243.423C224.128 241.949 222.7 240.871 221.035 240.406C219.37 239.941 217.59 240.123 216.053 240.915C215.774 241.053 215.561 241.296 215.461 241.591C215.361 241.886 215.382 242.208 215.52 242.487C215.657 242.767 215.9 242.98 216.195 243.08C216.49 243.18 216.813 243.159 217.092 243.021C217.486 242.836 217.901 242.701 218.328 242.618C218.219 243.188 218.312 243.778 218.591 244.287C218.87 244.795 219.318 245.191 219.857 245.405C220.396 245.619 220.993 245.639 221.545 245.46C222.097 245.282 222.569 244.916 222.881 244.427C223.101 244.734 223.331 245.232 224.051 245.232C224.262 245.232 224.469 245.175 224.65 245.068C224.831 244.96 224.98 244.805 225.08 244.62C225.181 244.435 225.229 244.226 225.221 244.015C225.212 243.804 225.147 243.6 225.032 243.423Z" fill="#244D3B"/>
<path d="M210.097 257.014C209.879 257.015 209.665 256.953 209.48 256.836C208.102 255.955 206.485 255.523 204.851 255.599C204.545 255.626 204.24 255.535 203.998 255.345C203.757 255.154 203.598 254.878 203.555 254.574C203.519 254.267 203.606 253.959 203.796 253.717C203.986 253.474 204.264 253.316 204.57 253.277C206.735 253.13 208.89 253.682 210.717 254.852C210.933 254.987 211.099 255.188 211.19 255.425C211.281 255.662 211.292 255.923 211.222 256.167C211.152 256.411 211.004 256.626 210.801 256.779C210.599 256.932 210.351 257.014 210.097 257.014Z" fill="#244D3B"/>
<path d="M202.363 264.448C198.425 263.278 198.411 264.448 195.868 262.738C193.969 261.261 192.294 259.518 190.895 257.562C190.714 257.309 190.641 256.996 190.691 256.689C190.742 256.383 190.912 256.109 191.164 255.928C191.416 255.747 191.73 255.674 192.037 255.725C192.343 255.775 192.617 255.945 192.798 256.197C194.036 257.926 195.509 259.473 197.173 260.795C198.994 262.017 198.874 260.973 203.023 262.199C204.571 262.677 205.963 263.559 207.057 264.752C208.094 265.763 208.403 266.07 209.793 265.468C210.078 265.346 210.4 265.342 210.689 265.457C210.977 265.572 211.208 265.796 211.33 266.082C211.453 266.367 211.457 266.689 211.342 266.977C211.227 267.266 211.002 267.496 210.717 267.619C206.304 269.524 205.955 265.515 202.363 264.448Z" fill="#244D3B"/>
<path d="M230.21 211.618C230.047 211.364 229.791 211.183 229.497 211.114C229.203 211.044 228.894 211.091 228.633 211.244C228.373 211.397 228.182 211.645 228.101 211.936C228.019 212.227 228.053 212.538 228.196 212.805C232.876 220.761 234.144 232.142 226.385 239.663C225.069 240.763 224.055 242.179 223.437 243.779C222.82 245.379 222.62 247.109 222.856 248.808C222.994 251.385 222.677 253.966 221.92 256.434C221.677 258.528 220.999 260.548 219.93 262.365C218.862 264.182 217.426 265.757 215.714 266.987C213.596 268.571 211.768 270.51 210.311 272.718C209.292 274.256 208.146 275.707 206.885 277.054C207.104 274.835 206.471 272.616 205.114 270.846C203.113 269.028 200.527 267.988 197.825 267.914C197.681 267.903 197.536 267.922 197.4 267.969C197.264 268.016 197.138 268.091 197.032 268.188C193.267 271.363 189.422 275.746 189.005 279.207C180.081 273.301 172.12 259.539 168.441 250.39C168.368 250.211 168.251 250.053 168.102 249.931C167.952 249.808 167.775 249.725 167.585 249.688C166.168 249.486 164.847 248.853 163.801 247.876C163.726 247.742 163.626 247.624 163.505 247.528C163.385 247.432 163.246 247.362 163.099 247.319C162.8 247.234 162.479 247.271 162.208 247.422C161.936 247.574 161.736 247.826 161.651 248.125C161.566 248.424 161.603 248.745 161.754 249.016C162.827 250.404 164.359 251.363 166.076 251.723C165.587 255.4 163.315 268.178 155.192 270.49C154.895 270.576 154.644 270.776 154.494 271.047C154.344 271.317 154.308 271.636 154.392 271.933C154.477 272.231 154.675 272.483 154.945 272.634C155.215 272.786 155.533 272.824 155.831 272.741C163.717 270.497 166.785 260.65 167.915 254.976C170.943 261.409 177.909 274.489 186.965 280.662C189.521 282.492 192.315 283.965 195.27 285.04L191.49 294.723C191.378 295.012 191.384 295.335 191.509 295.619C191.633 295.903 191.866 296.127 192.155 296.24C192.444 296.353 192.766 296.346 193.051 296.221C193.335 296.097 193.558 295.864 193.671 295.575L197.212 286.503C205.673 293.015 205.168 292.755 205.732 292.755C205.978 292.758 206.219 292.682 206.42 292.54C206.622 292.397 206.772 292.194 206.852 291.961C206.931 291.727 206.934 291.475 206.861 291.239C206.788 291.004 206.643 290.797 206.445 290.649L199.943 285.646C203.485 285.267 205.481 282.677 207.431 280.131C209.157 278.169 210.774 276.114 212.274 273.974C213.616 271.96 215.296 270.193 217.24 268.752C219.147 267.354 220.749 265.582 221.946 263.544C223.144 261.505 223.912 259.243 224.204 256.897C225.001 254.248 225.334 251.481 225.189 248.719C224.961 247.351 225.1 245.947 225.594 244.651C226.087 243.355 226.917 242.213 227.997 241.343C236.685 232.933 235.363 220.353 230.21 211.618ZM191.327 280.098C191.051 278.268 193.372 274.751 196.996 271.351C197.383 270.99 197.854 270.731 198.366 270.598C198.878 270.464 199.415 270.46 199.929 270.586C201.217 270.835 202.404 271.457 203.34 272.376C204.13 273.699 204.556 275.207 204.573 276.748C204.591 278.288 204.2 279.806 203.441 281.147C201.885 284.102 191.626 282.171 191.327 280.098Z" fill="#244D3B"/>
<path d="M242.235 237.248C242.539 237.192 242.808 237.017 242.984 236.762C243.159 236.507 243.226 236.193 243.171 235.889C240.705 222.254 236.933 214.267 231.955 212.145C230.633 211.559 229.148 211.452 227.755 211.843C227.145 210.556 226.282 209.405 225.217 208.459C224.153 207.512 222.908 206.79 221.559 206.335C214.572 203.927 204.411 207.687 191.359 217.508C160.997 240.356 147.275 242.609 144.559 261.549C143.23 270.785 148.537 279.956 157.031 287.601C172.943 301.94 181.643 305.059 189.466 313.121C189.574 313.235 189.704 313.327 189.849 313.389C189.993 313.452 190.149 313.486 190.306 313.487C190.464 313.488 190.62 313.458 190.765 313.397C190.911 313.337 191.043 313.247 191.153 313.135C196.107 308.122 207.687 296.928 214.249 294.344C214.392 294.288 214.522 294.204 214.633 294.097C214.743 293.99 214.832 293.863 214.893 293.722C214.954 293.581 214.987 293.429 214.99 293.275C214.993 293.122 214.965 292.969 214.908 292.826C214.852 292.683 214.768 292.552 214.661 292.442C214.554 292.331 214.427 292.243 214.286 292.181C214.145 292.12 213.993 292.087 213.839 292.084C213.686 292.082 213.533 292.109 213.39 292.166C206.978 294.693 196.619 304.423 191.916 309.051C195.863 294.019 225.567 282.909 232.866 274.497C240.377 265.839 241.648 250.863 236.436 232.344C233.554 222.095 230.673 216.9 228.043 214.216C228.534 214.023 229.059 213.932 229.587 213.951C230.114 213.969 230.632 214.096 231.108 214.323C233.46 215.365 237.859 219.602 240.878 236.303C240.933 236.608 241.106 236.879 241.361 237.057C241.615 237.234 241.93 237.303 242.235 237.248ZM157.901 285.218C150.327 278.255 145.733 269.814 146.873 261.875C149.421 244.156 162.317 242.282 192.774 219.368C208.158 207.792 216.481 207.09 220.756 208.532C222.66 209.158 224.272 210.452 225.296 212.175C224.031 211.595 222.664 211.268 221.273 211.214C216.125 210.746 213.144 212.575 202.067 220.08C197.288 223.314 191.871 226.98 185.771 230.46C170.664 239.078 153.54 248.848 153.657 265.967C153.757 280.351 164.746 288.408 174.438 295.517C179.43 298.656 183.715 302.8 187.018 307.685C181.662 303.222 175.84 299.916 170.526 295.711C164.912 291.284 161.886 288.892 157.892 285.228L157.901 285.218ZM231.094 272.954C224.128 280.99 194.667 291.923 189.819 307.846C186.358 301.294 180.861 297.316 175.823 293.619C166.573 286.833 156.088 279.148 155.997 265.941C155.898 251.352 169.335 242.518 186.931 232.479C193.109 228.955 198.566 225.263 203.377 222.003C216.247 213.291 217.44 213.205 221.065 213.532C224.189 213.813 228.913 214.235 234.181 232.955C239.09 250.455 237.972 265.031 231.094 272.964V272.954Z" fill="#81F889"/>
<path fill-rule="evenodd" clip-rule="evenodd" d="M219.105 423.271C211.24 413.419 225.696 401.455 225.696 401.455C225.696 401.455 249.941 385.777 256.842 384.387C263.742 382.997 270.788 383.732 281.066 391.437C289.529 397.786 295.681 401.815 298.031 407.817C298.522 409.076 296.921 411.774 297.446 413.23C297.446 413.23 299.938 418.846 297.181 420.75C294.425 422.655 290.14 420.75 290.14 420.75C290.14 420.75 285.54 423.268 279.942 418.354C276.961 415.514 273.735 412.941 270.304 410.665C267.554 409.255 264.611 408.257 261.571 407.703C264.282 412.092 267.854 415.887 272.071 418.86C276.049 421.357 272.164 424.127 266.77 422.236C262.686 420.785 258.786 418.858 255.152 416.494C253.96 415.919 252.654 415.621 251.33 415.621C250.006 415.621 248.7 415.919 247.508 416.494C244.466 417.704 239.404 424.74 232.55 424.569C228.046 424.42 223.555 423.986 219.105 423.271Z" fill="white"/>
<path d="M206.912 395.132C206.914 394.979 206.886 394.826 206.83 394.683C206.773 394.54 206.689 394.41 206.582 394.299C206.475 394.189 206.348 394.101 206.207 394.04C206.066 393.979 205.914 393.946 205.76 393.943C199.929 393.852 194.912 394.433 183.079 393.892C190.567 372.797 189.397 344.452 189.373 344.162C189.366 344.009 189.329 343.858 189.264 343.719C189.199 343.579 189.107 343.454 188.993 343.35C188.88 343.247 188.747 343.166 188.602 343.114C188.458 343.061 188.304 343.038 188.151 343.045C187.997 343.052 187.846 343.089 187.707 343.154C187.568 343.219 187.442 343.311 187.339 343.425C187.235 343.538 187.155 343.671 187.102 343.816C187.05 343.96 187.026 344.114 187.033 344.268C187.033 344.555 188.229 373.05 180.633 393.766C170.393 393.365 160.239 391.734 150.389 388.908C140.151 385.632 121.438 378.703 107.733 375.2C131.781 331.704 131.035 296.553 131.025 296.202C131.007 295.895 130.872 295.606 130.649 295.395C130.425 295.184 130.13 295.066 129.823 295.064C129.669 295.069 129.517 295.103 129.377 295.166C129.236 295.229 129.109 295.319 129.004 295.431C128.898 295.543 128.816 295.675 128.761 295.819C128.706 295.962 128.681 296.116 128.685 296.27C128.685 296.618 129.432 331.428 105.377 374.624C91.3015 371.449 81.188 377.348 70.3702 384.782C70.1145 384.958 69.9392 385.229 69.8828 385.534C69.8264 385.839 69.8935 386.154 70.0695 386.41C70.2454 386.666 70.5157 386.841 70.8209 386.897C71.1261 386.954 71.4413 386.886 71.6969 386.711C81.6349 379.88 90.9364 374.402 103.287 376.59C113.295 378.361 139.917 388.023 149.675 391.135C171.067 397.968 200.406 396.185 205.723 396.284C205.877 396.289 206.031 396.264 206.176 396.208C206.32 396.153 206.452 396.069 206.563 395.961C206.674 395.854 206.762 395.725 206.822 395.582C206.882 395.44 206.912 395.287 206.912 395.132Z" fill="#81F889"/>
<path d="M298.923 413.803C298.887 413.453 298.758 413.119 298.548 412.836C298.216 411.917 299.786 409.092 299.119 407.391C296.545 400.785 289.291 396.122 281.766 390.501C270.358 381.977 262.936 381.963 256.611 383.247C249.572 384.665 226.06 399.835 224.951 400.563C219.641 404.955 211.402 415.506 218.191 424.01C222.89 425.11 227.695 425.693 232.521 425.749C239.775 425.931 245.292 418.649 247.941 417.591C248.957 417.091 250.071 416.82 251.203 416.798C252.335 416.775 253.459 417.002 254.493 417.463C258.215 419.884 262.209 421.86 266.392 423.348C273.824 425.957 277.524 420.902 272.698 417.877C269.441 415.572 266.569 412.767 264.188 409.565C266.114 410.001 267.969 410.71 269.694 411.671C273.071 413.913 276.245 416.448 279.178 419.246C284.242 423.722 288.674 422.608 290.176 422.028C291.398 422.551 292.722 422.795 294.05 422.743C295.378 422.69 296.678 422.343 297.856 421.726C300.589 419.828 299.585 415.715 298.923 413.803ZM283.119 394.425C290 399.541 295.092 403.184 296.941 408.231C296.941 408.816 296.841 409.396 296.646 409.947C290.857 402.363 280.318 396.623 276.194 393.534C273.876 391.41 271.803 389.032 270.014 386.446C274.754 388.441 279.17 391.13 283.119 394.425ZM296.52 419.786C295.682 420.177 294.772 420.388 293.848 420.406C292.923 420.423 292.006 420.246 291.154 419.887C289.497 412.773 282.262 407.389 276.948 403.427C272.123 399.831 264.754 393.644 264.679 393.583C264.563 393.477 264.426 393.397 264.277 393.345C264.129 393.294 263.971 393.273 263.815 393.283C263.658 393.294 263.505 393.336 263.364 393.407C263.224 393.479 263.1 393.577 262.999 393.698C262.898 393.818 262.822 393.958 262.776 394.108C262.73 394.258 262.714 394.416 262.731 394.573C262.747 394.729 262.795 394.881 262.871 395.018C262.948 395.156 263.051 395.276 263.175 395.373C263.247 395.436 270.663 401.665 275.549 405.304C280.463 408.966 287.115 413.92 288.772 420.016C287.324 420.319 285.822 420.245 284.411 419.8C283 419.355 281.727 418.554 280.715 417.474C270.33 408.297 269.172 408.383 262.243 406.664C260.845 404.961 259.712 403.056 258.883 401.015C258.779 400.728 258.568 400.494 258.294 400.361C258.02 400.228 257.705 400.207 257.416 400.303C257.127 400.399 256.886 400.603 256.745 400.873C256.605 401.143 256.575 401.458 256.662 401.75C257.605 404.141 258.927 406.364 260.58 408.332C263.393 412.862 267.089 416.779 271.449 419.849C272.385 420.439 272.57 420.895 272.523 420.987C272.289 421.455 270.305 422.234 267.157 421.132C263.173 419.714 259.367 417.835 255.82 415.532C254.47 414.841 252.979 414.47 251.462 414.449C249.946 414.427 248.445 414.756 247.075 415.408C243.612 416.786 238.909 423.615 232.582 423.399C228.284 423.255 224 422.851 219.751 422.189C213.314 413.412 226.303 402.47 226.331 402.438C226.565 402.283 250.466 386.865 257.074 385.533C260.388 384.784 263.829 384.798 267.136 385.573C267.073 385.749 267.053 385.937 267.077 386.123C267.102 386.308 267.17 386.484 267.277 386.638C269.446 389.837 271.97 392.782 274.8 395.415C279.438 398.888 291.758 405.512 296.461 413.887C296.95 415.116 298.059 418.729 296.52 419.796V419.786Z" fill="#244D3B"/>
<path d="M219.153 402.52C207.623 399.632 189.435 402.332 189.252 402.36C188.945 402.407 188.632 402.33 188.382 402.146C188.133 401.962 187.966 401.686 187.919 401.379C187.873 401.072 187.95 400.759 188.134 400.509C188.318 400.259 188.594 400.093 188.901 400.046C189.666 399.932 207.738 397.252 219.721 400.25C220.02 400.327 220.277 400.519 220.435 400.785C220.592 401.05 220.639 401.367 220.564 401.667C220.489 401.967 220.298 402.224 220.034 402.384C219.77 402.544 219.453 402.593 219.153 402.52Z" fill="#81F889"/>
<path d="M189.073 413.613C188.763 413.626 188.46 413.514 188.232 413.304C188.004 413.093 187.869 412.801 187.856 412.49C187.844 412.18 187.955 411.877 188.166 411.649C188.377 411.421 188.669 411.286 188.98 411.273C189.155 411.259 206.764 409.802 214.549 409.572C214.856 409.575 215.15 409.694 215.373 409.905C215.596 410.116 215.731 410.403 215.752 410.709C215.76 411.019 215.646 411.32 215.433 411.546C215.22 411.771 214.927 411.903 214.617 411.912C206.27 412.16 189.387 413.613 189.073 413.613Z" fill="#81F889"/>
<path d="M209.217 425.742H189.076C188.766 425.742 188.468 425.619 188.249 425.4C188.03 425.18 187.906 424.883 187.906 424.572C187.906 424.262 188.03 423.964 188.249 423.745C188.468 423.526 188.766 423.402 189.076 423.402H209.217C209.527 423.402 209.825 423.526 210.044 423.745C210.263 423.964 210.387 424.262 210.387 424.572C210.387 424.883 210.263 425.18 210.044 425.4C209.825 425.619 209.527 425.742 209.217 425.742Z" fill="#81F889"/>
<path fill-rule="evenodd" clip-rule="evenodd" d="M186.025 322.036C186.025 322.036 186.947 313.846 190.916 313.682C194.885 313.518 194.192 321.807 194.192 321.807C194.192 321.807 195.83 334.911 193.64 341.074C192.217 345.078 180.189 346.096 181.507 339.052C182.728 333.308 184.236 327.629 186.025 322.036Z" fill="white"/>
<path d="M195.37 321.778C195.66 317.8 194.837 312.317 190.863 312.514C186.197 312.718 185.041 320.425 184.875 321.787C183.081 327.388 181.572 333.077 180.357 338.832C178.756 347.389 192.862 346.755 194.745 341.462C196.915 335.362 195.543 323.198 195.37 321.778ZM193.077 320.667L187.403 320.828C188.881 313.417 193.18 312.343 193.077 320.667ZM192.541 340.683C191.977 342.269 188.095 343.636 185.011 342.805C184.609 342.76 184.222 342.627 183.876 342.415C183.531 342.204 183.237 341.919 183.014 341.582C182.791 341.244 182.644 340.862 182.585 340.461C182.526 340.061 182.555 339.653 182.671 339.265C183.747 333.511 186.13 325.667 186.904 323.184L193.164 323.007C193.475 326.196 194.261 335.841 192.541 340.683Z" fill="#244D3B"/>
<path d="M192.092 333.948C192.081 333.644 191.953 333.355 191.736 333.142C191.518 332.929 191.226 332.808 190.922 332.804H186.382C186.113 332.799 185.851 332.889 185.641 333.058C185.431 333.226 185.287 333.462 185.233 333.726L184.14 339.171C184.11 339.34 184.116 339.514 184.159 339.681C184.202 339.848 184.28 340.003 184.389 340.137C184.498 340.27 184.634 340.378 184.789 340.454C184.943 340.53 185.112 340.571 185.285 340.575H191.121C191.278 340.578 191.433 340.548 191.579 340.488C191.724 340.429 191.855 340.34 191.965 340.227C192.074 340.115 192.16 339.981 192.216 339.835C192.272 339.688 192.297 339.531 192.291 339.375L192.092 333.948Z" fill="#244D3B"/>
<path fill-rule="evenodd" clip-rule="evenodd" d="M213.887 288.349C218.88 417.404 224.059 417.065 219.206 286.9C218.272 286.617 217.279 286.603 216.338 286.859C215.397 287.115 214.547 287.631 213.887 288.349Z" fill="white"/>
<path d="M220.066 385.99C218.662 385.784 217.473 385.606 214.904 336.506C213.661 312.701 212.723 288.634 212.716 288.395C212.709 288.229 212.738 288.062 212.801 287.908C212.864 287.753 212.96 287.614 213.081 287.499C213.902 286.628 214.954 286.008 216.113 285.71C217.273 285.412 218.493 285.449 219.633 285.817C219.843 285.901 220.024 286.044 220.154 286.229C220.285 286.413 220.359 286.632 220.368 286.858C221.706 322.807 223.585 383.446 221.112 385.665C220.82 385.907 220.444 386.024 220.066 385.99ZM215.074 288.861C216.226 318.516 218.252 360.339 219.944 376.99C220.354 360.163 219.181 317.931 218.072 287.853C216.98 287.788 215.905 288.15 215.074 288.861Z" fill="#244D3B"/>
<path d="M154.825 285.985C154.572 285.985 154.326 285.903 154.123 285.751C130.674 267.703 112.523 267.499 112.315 267.499C112.004 267.499 111.707 267.376 111.487 267.156C111.268 266.937 111.145 266.639 111.145 266.329C111.145 266.019 111.268 265.721 111.487 265.502C111.707 265.282 112.004 265.159 112.315 265.159C113.344 265.159 131.575 265.438 155.546 283.879C155.744 284.027 155.89 284.235 155.962 284.471C156.035 284.707 156.031 284.96 155.951 285.194C155.871 285.428 155.719 285.631 155.517 285.773C155.315 285.915 155.072 285.989 154.825 285.985Z" fill="#81F889"/>
<path fill-rule="evenodd" clip-rule="evenodd" d="M156.02 278.967C160.997 407.618 166.184 406.102 161.402 283.46C161.402 283.46 159.296 277.812 156.02 278.967Z" fill="white"/>
<path d="M162.209 376.607C160.805 376.401 159.614 376.223 157.044 327.123C155.802 303.32 154.866 279.253 154.856 279.015C154.847 278.765 154.917 278.519 155.057 278.312C155.197 278.105 155.4 277.949 155.636 277.866C159.085 276.646 161.567 280.554 162.503 283.051C162.651 283.444 166.273 373.583 163.269 376.281C163.122 376.403 162.953 376.495 162.771 376.551C162.589 376.606 162.398 376.625 162.209 376.607ZM157.238 280.035C158.408 309.753 160.416 351.309 162.103 367.757C162.501 351.641 161.341 311.803 160.248 283.716C159.958 283.042 158.734 280.414 157.238 280.035Z" fill="#244D3B"/>
</svg>
