<svg width="387" height="366" viewBox="0 0 387 366" fill="none" xmlns="http://www.w3.org/2000/svg">
<path d="M321.684 196.9C320.698 210.249 330.989 229.358 330.989 229.358H333.468C333.147 210.792 325.596 206.207 321.684 196.9Z" fill="white"/>
<path d="M322.268 196.654C322.004 196.052 321.106 196.195 321.055 196.859C320.102 209.682 329.362 227.634 330.429 229.656C330.813 230.398 331.949 229.809 331.551 229.057C331.46 228.886 322.664 212.383 322.272 199.621C326.312 207.402 332.549 212.641 332.837 229.364C332.837 230.219 334.11 230.187 334.106 229.349C333.784 210.582 326.172 205.921 322.268 196.654Z" fill="black"/>
<path d="M362.973 196.9C359.061 206.205 347.439 215.236 347.439 229.358H353.666C353.666 229.358 363.957 210.249 362.973 196.9Z" fill="white"/>
<path d="M363.609 196.853C363.56 196.197 362.647 196.04 362.389 196.654C358.542 205.809 346.805 215.008 346.805 229.354C346.805 230.193 348.073 230.193 348.073 229.354C348.073 216.687 357.77 208.028 362.393 199.54C362.036 212.308 353.202 228.884 353.108 229.057C352.712 229.807 353.838 230.392 354.23 229.654C354.334 229.463 364.606 210.322 363.609 196.853Z" fill="black"/>
<path d="M337.053 229.358H344.2C348.921 206.88 348.382 185.847 348.921 171.283C340.56 189.082 337.053 229.358 337.053 229.358Z" fill="white"/>
<path d="M348.344 171.014C340.112 188.541 336.568 227.646 336.422 229.301C336.34 230.128 337.6 230.262 337.686 229.412C337.716 229.051 340.848 193.425 348.182 174.627C347.686 193.122 347.723 209.497 343.581 229.225C343.404 230.05 344.64 230.3 344.815 229.487C349.513 207.136 348.995 186.666 349.547 171.307C349.576 170.612 348.633 170.399 348.344 171.014Z" fill="black"/>
<path d="M331.523 178.293C327.345 190.161 333.411 229.357 333.411 229.357H338.94C338.619 210.791 332.868 195.459 331.523 178.293Z" fill="white"/>
<path d="M332.158 178.242C332.101 177.592 331.171 177.417 330.931 178.086C327.311 188.362 331.179 218.877 332.788 229.454C332.928 230.332 334.162 230.032 334.04 229.257C333.987 228.916 329.061 196.633 331.268 182.168C333.113 198.139 338.021 212.21 338.31 229.367C338.328 230.2 339.578 230.196 339.578 229.347C339.25 210.604 333.51 195.473 332.16 178.242H332.158Z" fill="black"/>
<path d="M357.01 179.643C355.663 196.808 344.063 210.794 343.744 229.355H349.274C349.274 229.355 361.729 195.457 357.01 179.643Z" fill="white"/>
<path d="M357.613 179.47C357.42 178.824 356.442 178.877 356.377 179.598C355.03 196.745 343.437 210.556 343.109 229.355C343.109 229.888 343.745 230.223 344.176 229.819C344.302 229.697 344.377 229.532 344.377 229.37C344.678 211.802 354.449 199.873 357.164 183.557C359.261 200.119 348.789 228.835 348.678 229.138C348.409 229.894 349.564 230.392 349.87 229.573C350.378 228.169 362.254 195.02 357.613 179.47Z" fill="black"/>
<path d="M352.349 264.207H332.685L329.023 229.358H356.013L352.349 264.207Z" fill="white"/>
<path d="M356.478 228.927C356.187 228.612 356.471 228.723 329.023 228.723C328.653 228.723 328.363 229.034 328.395 229.422L332.057 264.276C332.098 264.597 332.366 264.839 332.689 264.839H352.36C352.681 264.831 352.948 264.591 352.982 264.272C356.703 228.949 356.78 229.27 356.48 228.925L356.478 228.927ZM355.313 229.991L351.783 263.571H333.264L329.736 229.991H355.315H355.313Z" fill="black"/>
<path d="M386 263.492H0.710241C-0.236747 263.492 -0.236747 264.924 0.710241 264.924H386C386.947 264.924 386.947 263.492 386 263.492Z" fill="black"/>
<path d="M320.973 26.1436H99.1387V169.399H320.973V26.1436Z" fill="white"/>
<path d="M323.027 171.452H97.0879V24.0918H323.027V171.452ZM101.193 167.347H318.923V28.1968H101.193V167.347Z" fill="black"/>
<path d="M85.8945 0.766602H326.805C328.258 0.766602 329.441 1.94932 329.441 3.40232V21.4723C329.441 22.9253 328.258 24.108 326.805 24.108H91.9951C88.6298 24.108 85.8945 21.3748 85.8945 18.0075V0.766602Z" fill="white"/>
<path d="M326.802 0.0302734H85.8917C85.4873 0.0302734 85.1602 0.361517 85.1602 0.765917V18.0047C85.1602 21.7744 88.2247 24.8389 91.9923 24.8389H326.802C328.662 24.8389 330.172 23.327 330.172 21.4696V3.40163C330.172 1.5422 328.662 0.0302734 326.802 0.0302734ZM326.802 23.3757L325.341 23.3717C324.293 23.3717 323.439 22.5202 323.439 21.4716V3.40163C323.439 2.35304 324.293 1.50156 325.341 1.50156H326.802C327.853 1.50156 328.707 2.35304 328.707 3.40163V21.4757C328.707 22.5243 327.853 23.3757 326.802 23.3757ZM86.6314 7.28103H321.974C321.974 22.6665 321.761 22.2134 322.576 23.3757H91.9964C89.0375 23.3757 86.6294 20.9697 86.6294 18.0108V7.28103H86.6314ZM86.6314 5.80974V1.49953H322.574C321.797 2.60909 321.974 3.51949 321.974 5.80974H86.6314Z" fill="black"/>
<path d="M212.009 61.9871H177.044C176.066 61.9871 176.066 60.5098 177.044 60.5098H212.009C212.986 60.5098 212.986 61.9871 212.009 61.9871Z" fill="black"/>
<path d="M204.132 68.4637H177.04C176.062 68.4637 176.062 66.9863 177.04 66.9863H204.132C205.11 66.9863 205.11 68.4637 204.132 68.4637Z" fill="black"/>
<path d="M208.351 74.9422H177.044C176.066 74.9422 176.066 73.4648 177.044 73.4648H208.351C209.328 73.4648 209.328 74.9422 208.351 74.9422Z" fill="black"/>
<path d="M152.032 72.061C149.286 78.4989 141.926 81.726 135.252 79.2142L129.92 93.3357C144.058 98.6763 159.955 91.9356 165.914 77.9767L152.032 72.061Z" fill="#81F889"/>
<path d="M166.111 77.4842L152.225 71.5686C151.951 71.4568 151.64 71.5828 151.53 71.849C149.008 77.7586 142.274 81.1685 135.431 78.7137C135.155 78.6141 134.862 78.7462 134.747 79.0266L129.414 93.1461C129.315 93.4164 129.461 93.7232 129.733 93.8289C143.989 99.2101 160.262 92.5588 166.393 78.1813C166.509 77.913 166.373 77.5879 166.111 77.4842ZM130.599 93.014L135.557 79.8883C142.144 82.0871 149.339 78.984 152.288 72.7452L165.201 78.2483C159.252 91.4919 144.125 97.8404 130.599 93.014Z" fill="black"/>
<path d="M139.904 53.7241V38.6353C124.297 38.6353 111.646 51.2855 111.646 66.8925H126.733C126.733 59.6173 132.631 53.7241 139.904 53.7241Z" fill="white"/>
<path d="M139.905 38.1025C124.032 38.1025 111.117 51.0169 111.117 66.8922C111.117 67.1848 111.355 67.4246 111.648 67.4246L126.732 67.4287C127.025 67.4287 127.267 67.1868 127.267 66.8942C127.267 59.9239 132.936 54.2562 139.907 54.2562C140.199 54.2562 140.437 54.0164 140.437 53.7238V38.635C140.437 38.3423 140.197 38.1025 139.905 38.1025ZM112.186 66.3597C112.467 51.588 124.601 39.4519 139.378 39.1694V53.1974C132.217 53.4718 126.488 59.1984 126.216 66.3597H112.186Z" fill="black"/>
<path d="M126.733 66.8911H111.646C111.646 78.9825 119.243 89.2998 129.92 93.3356L135.252 79.2141C130.277 77.3344 126.733 72.5263 126.733 66.8911Z" fill="black"/>
<path d="M135.434 78.713C130.547 76.8678 127.267 72.1186 127.267 66.8919C127.267 66.5993 127.031 66.3574 126.738 66.3574H111.648C111.357 66.3574 111.117 66.5972 111.117 66.8899C111.117 78.7922 118.51 89.8391 129.734 93.8282C130.457 94.0842 130.203 94.2895 135.753 79.3958C135.855 79.1255 135.706 78.8186 135.432 78.7109L135.434 78.713ZM134.572 79.5136L129.614 92.6414C119.378 88.5405 112.406 78.4529 112.19 67.4263H126.218C126.423 72.7343 129.679 77.4429 134.572 79.5136Z" fill="black"/>
<path d="M151.955 71.8801L165.756 77.7632C173.594 59.364 160.139 38.6562 139.902 38.6562V53.6556C149.323 53.6556 155.615 63.3084 151.955 71.8801Z" fill="white"/>
<path d="M139.902 38.1236C139.607 38.1236 139.369 38.3614 139.369 38.654V53.6534C139.369 53.946 139.607 54.1858 139.902 54.1858C146.829 54.1858 152.466 59.821 152.466 66.7486C152.466 70.1627 151.257 71.571 151.461 72.0749C151.584 72.396 150.719 71.8473 165.549 78.2507C165.806 78.3604 166.123 78.2304 166.238 77.9621C174.253 59.2134 160.447 38.1216 139.904 38.1216L139.902 38.1236ZM140.436 53.1332V39.1946C159.546 39.5583 172.719 59.1321 165.472 77.0639L152.641 71.5974C156.002 62.7859 149.518 53.4888 140.434 53.1352L140.436 53.1332Z" fill="black"/>
<path d="M242.389 66.5308H236.445V104.184H242.389V66.5308Z" fill="#81F889"/>
<path d="M242.386 104.554H236.442C236.237 104.554 236.072 104.39 236.072 104.184V66.5305C236.072 66.3253 236.237 66.1606 236.442 66.1606H242.386C242.591 66.1606 242.756 66.3253 242.756 66.5305V104.184C242.756 104.39 242.591 104.554 242.386 104.554ZM236.812 103.815H242.016V66.9004H236.812V103.815Z" fill="black"/>
<path d="M248.332 77.7725H242.387C242.184 77.7725 242.018 77.9381 242.018 78.1423V104.182C242.018 104.387 242.184 104.552 242.387 104.552H248.332C248.537 104.552 248.701 104.387 248.701 104.182V78.1423C248.701 77.9381 248.537 77.7725 248.332 77.7725Z" fill="black"/>
<path d="M260.821 53.3418H254.877V104.184H260.821V53.3418Z" fill="#81F889"/>
<path d="M260.822 104.554H254.878C254.672 104.554 254.508 104.389 254.508 104.184V53.3415C254.508 53.1363 254.672 52.9717 254.878 52.9717H260.822C261.027 52.9717 261.192 53.1363 261.192 53.3415V104.184C261.192 104.389 261.027 104.554 260.822 104.554ZM255.248 103.814H260.452V53.7114H255.248V103.814Z" fill="black"/>
<path d="M266.767 70.1143H260.823C260.62 70.1143 260.453 70.2799 260.453 70.4841V104.183C260.453 104.388 260.62 104.553 260.823 104.553H266.767C266.972 104.553 267.137 104.388 267.137 104.183V70.4841C267.137 70.2799 266.972 70.1143 266.767 70.1143Z" fill="black"/>
<path d="M279.259 41.3604H273.314V104.189H279.259V41.3604Z" fill="#81F889"/>
<path d="M279.259 104.554H273.315C273.11 104.554 272.945 104.39 272.945 104.184V41.3601C272.945 41.1548 273.11 40.9902 273.315 40.9902H279.259C279.465 40.9902 279.629 41.1548 279.629 41.3601V104.184C279.629 104.39 279.465 104.554 279.259 104.554ZM273.685 103.815H278.889V41.7279H273.685V103.815Z" fill="black"/>
<path d="M285.201 52.542H279.257C279.051 52.542 278.887 52.7076 278.887 52.9119V104.185C278.887 104.39 279.051 104.555 279.257 104.555H285.201C285.404 104.555 285.571 104.39 285.571 104.185V52.9119C285.571 52.7076 285.404 52.542 285.201 52.542Z" fill="black"/>
<path d="M237.998 126.647H231.036C230.117 126.647 229.365 125.899 229.365 124.976V118.014C229.365 117.096 230.113 116.344 231.036 116.344H237.998C238.918 116.344 239.664 117.092 239.664 118.014V124.976C239.664 125.895 238.916 126.647 237.998 126.647ZM231.036 117.088C230.522 117.088 230.103 117.506 230.103 118.014V124.976C230.103 125.488 230.522 125.909 231.036 125.909H237.998C238.512 125.909 238.931 125.491 238.931 124.976V118.014C238.931 117.502 238.512 117.088 237.998 117.088H231.036Z" fill="black"/>
<path d="M234.159 124.167C233.577 124.167 233.616 123.978 231.354 120.106C230.858 119.257 232.141 118.521 232.626 119.359L234.301 122.212L240.523 115.772C241.204 115.071 242.267 116.097 241.586 116.798C234.108 124.518 234.604 124.167 234.159 124.167Z" fill="black"/>
<path d="M269.081 119.061H245.831C244.902 119.061 244.148 119.814 244.148 120.743V121.816C244.148 122.745 244.902 123.499 245.831 123.499H269.081C270.01 123.499 270.764 122.745 270.764 121.816V120.743C270.764 119.814 270.01 119.061 269.081 119.061Z" fill="#81F889"/>
<path d="M269.082 123.866H245.832C244.698 123.866 243.779 122.948 243.779 121.814V120.743C243.779 119.611 244.698 118.69 245.832 118.69H269.082C270.214 118.69 271.134 119.609 271.134 120.743V121.814C271.134 122.946 270.216 123.866 269.082 123.866ZM245.832 119.43C245.11 119.43 244.519 120.017 244.519 120.743V121.814C244.519 122.535 245.106 123.127 245.832 123.127H269.082C269.803 123.127 270.395 122.539 270.395 121.814V120.743C270.395 120.021 269.807 119.43 269.082 119.43H245.832Z" fill="black"/>
<path d="M291.664 119.061H275.116C274.188 119.061 273.434 119.814 273.434 120.743V121.816C273.434 122.745 274.188 123.499 275.116 123.499H291.664C292.593 123.499 293.347 122.745 293.347 121.816V120.743C293.347 119.814 292.593 119.061 291.664 119.061Z" fill="white"/>
<path d="M291.663 123.866H275.117C273.983 123.866 273.064 122.948 273.064 121.814V120.743C273.064 119.611 273.983 118.69 275.117 118.69H291.663C292.797 118.69 293.715 119.609 293.715 120.743V121.814C293.715 122.946 292.797 123.866 291.663 123.866ZM275.117 119.43C274.396 119.43 273.804 120.017 273.804 120.743V121.814C273.804 122.535 274.391 123.127 275.117 123.127H291.663C292.386 123.127 292.976 122.539 292.976 121.814V120.743C292.976 120.021 292.388 119.43 291.663 119.43H275.117Z" fill="black"/>
<path d="M237.998 140.496H231.036C230.117 140.496 229.365 139.748 229.365 138.825V131.863C229.365 130.945 230.113 130.193 231.036 130.193H237.998C238.918 130.193 239.664 130.941 239.664 131.863V138.825C239.664 139.744 238.916 140.496 237.998 140.496ZM231.036 130.937C230.522 130.937 230.103 131.355 230.103 131.863V138.825C230.103 139.338 230.522 139.758 231.036 139.758H237.998C238.512 139.758 238.931 139.34 238.931 138.825V131.863C238.931 131.351 238.512 130.937 237.998 130.937H231.036Z" fill="black"/>
<path d="M234.159 138.024C233.592 138.024 233.626 137.846 231.354 133.96C230.858 133.111 232.141 132.375 232.626 133.212L234.301 136.065L240.523 129.625C241.202 128.926 242.269 129.947 241.586 130.656C234.134 138.4 234.604 138.024 234.159 138.024Z" fill="black"/>
<path d="M269.081 132.914H245.831C244.902 132.914 244.148 133.667 244.148 134.596V135.669C244.148 136.598 244.902 137.352 245.831 137.352H269.081C270.01 137.352 270.764 136.598 270.764 135.669V134.596C270.764 133.667 270.01 132.914 269.081 132.914Z" fill="#81F889"/>
<path d="M269.082 137.721H245.832C244.698 137.721 243.779 136.803 243.779 135.669V134.598C243.779 133.466 244.698 132.545 245.832 132.545H269.082C270.214 132.545 271.134 133.464 271.134 134.598V135.669C271.134 136.801 270.216 137.721 269.082 137.721ZM245.832 133.283C245.11 133.283 244.519 133.87 244.519 134.596V135.667C244.519 136.388 245.106 136.98 245.832 136.98H269.082C269.803 136.98 270.395 136.392 270.395 135.667V134.596C270.395 133.874 269.807 133.283 269.082 133.283H245.832Z" fill="black"/>
<path d="M291.664 132.914H275.116C274.188 132.914 273.434 133.667 273.434 134.596V135.669C273.434 136.598 274.188 137.352 275.116 137.352H291.664C292.593 137.352 293.347 136.598 293.347 135.669V134.596C293.347 133.667 292.593 132.914 291.664 132.914Z" fill="white"/>
<path d="M291.663 137.721H275.117C273.983 137.721 273.064 136.803 273.064 135.669V134.598C273.064 133.466 273.983 132.545 275.117 132.545H291.663C292.797 132.545 293.715 133.464 293.715 134.598V135.669C293.715 136.801 292.797 137.721 291.663 137.721ZM275.117 133.283C274.396 133.283 273.804 133.87 273.804 134.596V135.667C273.804 136.388 274.391 136.98 275.117 136.98H291.663C292.386 136.98 292.976 136.392 292.976 135.667V134.596C292.976 133.874 292.388 133.283 291.663 133.283H275.117Z" fill="black"/>
<path d="M237.998 154.351H231.036C230.117 154.351 229.365 153.603 229.365 152.68V145.718C229.365 144.8 230.113 144.048 231.036 144.048H237.998C238.918 144.048 239.664 144.796 239.664 145.718V152.68C239.664 153.599 238.916 154.351 237.998 154.351ZM231.036 144.792C230.522 144.792 230.103 145.21 230.103 145.718V152.68C230.103 153.193 230.522 153.607 231.036 153.607H237.998C238.512 153.607 238.931 153.189 238.931 152.68V145.718C238.931 145.206 238.512 144.792 237.998 144.792H231.036Z" fill="black"/>
<path d="M234.159 151.87C233.577 151.87 233.616 151.681 231.354 147.81C230.858 146.96 232.141 146.227 232.626 147.062L234.301 149.915L240.523 143.475C241.204 142.774 242.267 143.8 241.586 144.501C234.108 152.221 234.604 151.87 234.159 151.87Z" fill="black"/>
<path d="M269.081 146.769H245.831C244.902 146.769 244.148 147.522 244.148 148.451V149.524C244.148 150.453 244.902 151.207 245.831 151.207H269.081C270.01 151.207 270.764 150.453 270.764 149.524V148.451C270.764 147.522 270.01 146.769 269.081 146.769Z" fill="#81F889"/>
<path d="M269.082 151.57H245.832C244.698 151.57 243.779 150.652 243.779 149.518V148.447C243.779 147.315 244.698 146.395 245.832 146.395H269.082C270.214 146.395 271.134 147.313 271.134 148.447V149.518C271.134 150.65 270.216 151.57 269.082 151.57ZM245.832 147.132C245.11 147.132 244.519 147.72 244.519 148.445V149.516C244.519 150.237 245.106 150.829 245.832 150.829H269.082C269.803 150.829 270.395 150.241 270.395 149.516V148.445C270.395 147.724 269.807 147.132 269.082 147.132H245.832Z" fill="black"/>
<path d="M291.664 146.769H275.116C274.188 146.769 273.434 147.522 273.434 148.451V149.524C273.434 150.453 274.188 151.207 275.116 151.207H291.664C292.593 151.207 293.347 150.453 293.347 149.524V148.451C293.347 147.522 292.593 146.769 291.664 146.769Z" fill="white"/>
<path d="M291.663 151.57H275.117C273.983 151.57 273.064 150.652 273.064 149.518V148.447C273.064 147.315 273.983 146.395 275.117 146.395H291.663C292.797 146.395 293.715 147.313 293.715 148.447V149.518C293.715 150.65 292.797 151.57 291.663 151.57ZM275.117 147.132C274.396 147.132 273.804 147.72 273.804 148.445V149.516C273.804 150.237 274.391 150.829 275.117 150.829H291.663C292.386 150.829 292.976 150.241 292.976 149.516V148.445C292.976 147.724 292.388 147.132 291.663 147.132H275.117Z" fill="black"/>
<path d="M302.54 103.754L299.051 100.264C298.488 99.6914 297.598 100.551 298.181 101.134L300.659 103.611H231.813V38.8648C234.294 41.346 234.351 41.5269 234.729 41.5269C235.262 41.5269 235.564 40.8746 235.164 40.4763L231.675 36.987C231.437 36.7452 231.047 36.7452 230.803 36.987L227.314 40.4763C226.741 41.0392 227.6 41.9293 228.184 41.346L230.665 38.8648V104.185C230.665 104.5 230.921 104.756 231.236 104.756H300.665L298.179 107.241C297.787 107.627 298.074 108.292 298.614 108.292C298.964 108.292 298.759 108.369 302.538 104.621C302.78 104.382 302.78 103.993 302.538 103.752L302.54 103.754Z" fill="black"/>
<path d="M150.763 142.182H68.8789V148.642H150.763V142.182Z" fill="white"/>
<path d="M178.696 142.182H150.766V148.642H178.696V142.182Z" fill="white"/>
<path d="M150.763 264.207H87.5164L75.1934 148.64L150.763 148.642V264.207Z" fill="white"/>
<path d="M150.766 264.207H166.257L174.463 148.64L150.766 148.642V264.207Z" fill="white"/>
<path d="M178.694 141.544H68.8801C68.5305 141.544 68.248 141.831 68.248 142.178V148.641C68.248 148.99 68.5326 149.275 68.8801 149.275H74.6209L86.885 264.285C86.9236 264.602 87.1939 264.842 87.515 264.842H166.253C166.564 264.842 166.865 264.594 166.887 264.25L175.05 149.275H178.692C179.041 149.275 179.326 148.99 179.326 148.641V142.178C179.326 141.829 179.041 141.544 178.692 141.544H178.694ZM151.402 263.576V149.275H173.784L165.668 263.576H151.402ZM178.058 142.813V148.007H151.398V142.813H178.058ZM150.128 149.275V263.576H88.084L75.8971 149.275H150.128ZM150.128 142.813V148.007H69.5141V142.813H150.128Z" fill="black"/>
<path d="M174.422 149.797L150.867 150.887V148.554L174.524 148.633L174.422 149.797Z" fill="black"/>
<path d="M75.3913 149.883L150.87 150.887V148.554L75.2734 148.633L75.3913 149.883Z" fill="black"/>
<path d="M144.991 138.377H75.8809V142.185H144.991V138.377Z" fill="#81F889"/>
<path d="M144.994 137.738H75.884C75.5345 137.738 75.25 138.022 75.25 138.37V142.178C75.25 142.528 75.5345 142.81 75.884 142.81H144.996C145.345 142.81 145.63 142.526 145.63 142.178V138.37C145.63 138.02 145.345 137.738 144.996 137.738H144.994ZM144.36 139.006V141.544H76.5181V139.006H144.36Z" fill="black"/>
<path d="M124.241 142.179L75.88 142.183L64.5243 104.118C64.2743 103.273 64.8982 102.416 65.7924 102.416H110.417C111.583 102.416 112.609 103.18 112.941 104.295L124.241 142.179Z" fill="#81F889"/>
<path d="M124.849 142.002L113.55 104.118C113.139 102.742 111.851 101.783 110.418 101.783H65.7942C64.4875 101.783 63.5425 103.049 63.9165 104.301L75.2701 142.361C75.3494 142.626 75.6014 142.813 75.8818 142.813L124.247 142.817C124.666 142.817 124.973 142.412 124.849 142.002ZM123.394 141.544H76.3553L65.1357 103.935C64.9996 103.492 65.341 103.049 65.7962 103.049H110.42C111.3 103.049 112.087 103.635 112.335 104.476L123.392 141.542L123.394 141.544Z" fill="black"/>
<path d="M90.7306 116.941C93.1469 116.327 95.7785 118.473 96.6097 121.735C97.4388 124.996 96.1525 128.14 93.7362 128.756C91.32 129.369 88.6883 127.223 87.8572 123.962C87.028 120.7 88.3144 117.556 90.7306 116.941Z" fill="white"/>
<path d="M97.1392 121.597C96.3324 118.431 93.5931 115.645 90.5895 116.405C87.8827 117.098 86.4155 120.546 87.3198 124.094C88.1144 127.204 90.8232 130.038 93.8694 129.283C96.9014 128.514 97.9358 124.73 97.1392 121.597ZM90.8639 117.478C93.2212 116.878 95.4037 119.248 96.0703 121.871C96.7145 124.415 95.9809 127.614 93.5931 128.22C91.2561 128.813 89.0512 126.444 88.3867 123.826C87.6348 120.863 88.7464 118.016 90.8639 117.478Z" fill="black"/>
<path d="M118.723 137.823H79.0393C78.3098 137.823 78.3098 138.929 79.0393 138.929H118.723C119.453 138.929 119.453 137.823 118.723 137.823Z" fill="black"/>
<path d="M163.98 120.076H162.647L162.015 117.457C161.924 117.093 162.71 117.207 149.526 117.207C149.172 117.207 149.237 117.323 148.573 120.076H147.235C147.055 120.076 146.906 120.225 146.906 120.405V122.527C146.906 122.708 147.055 122.856 147.235 122.856H163.983C164.163 122.856 164.312 122.708 164.312 122.527V120.405C164.312 120.225 164.161 120.076 163.98 120.076Z" fill="black"/>
<path d="M161.566 142.037H149.649L148.828 122.699H162.387L161.566 142.037Z" fill="white"/>
<path d="M162.849 122.263C162.575 121.97 163.575 122.062 148.831 122.062C148.506 122.062 148.195 122.316 148.201 122.726L149.02 142.064C149.039 142.402 149.317 142.668 149.652 142.668H161.569C161.908 142.668 162.187 142.4 162.199 142.06C163.073 121.109 163.125 122.556 162.849 122.263ZM149.666 127.618H161.54L161.201 135.641H150.008L149.666 127.618ZM161.721 123.336L161.587 126.512H149.62L149.486 123.336H161.721ZM150.252 141.402L150.055 136.748H161.154L160.957 141.402H150.252Z" fill="black"/>
<path d="M158.344 113.067C158.32 113.024 155.94 108.586 158.107 105.759C158.606 105.103 157.621 104.325 157.101 104.991C154.4 108.517 157.212 113.632 157.245 113.691C157.664 114.398 158.73 113.803 158.344 113.067Z" fill="black"/>
<path d="M154.746 104.264C155.26 103.615 154.261 102.823 153.742 103.491C152.192 105.511 151.696 108.135 152.312 111.075C152.771 113.276 153.659 114.837 153.698 114.9C154.112 115.63 155.212 114.987 154.793 114.268C154.468 113.664 151.696 108.249 154.746 104.264Z" fill="black"/>
<path d="M23.388 362.921C27.0256 352.803 45.9267 305.28 80.3678 305.28C108.363 305.28 109.611 352.799 109.558 362.921H115.719C115.892 335.228 108.204 299.123 80.3678 299.123C37.8245 299.123 17.7101 360.313 16.877 362.921H23.388Z" fill="white"/>
<path d="M116.394 362.263C116.117 362.263 118.227 298.514 80.3615 298.514C38.7957 298.514 18.5045 356.075 16.4398 362.279C15.7631 362.32 15.2246 362.869 15.2246 363.553V364.202C15.2246 364.915 15.8017 365.492 16.515 365.492H23.719C24.4323 365.492 25.0095 364.915 25.0095 364.202V363.553C25.0095 363.027 24.6925 362.578 24.2413 362.377C28.3077 351.338 47.0747 305.899 80.3696 305.899C103.37 305.899 108.952 339.576 108.946 362.314C108.357 362.432 107.903 362.93 107.903 363.553V364.202C107.903 364.915 108.481 365.492 109.194 365.492H116.398C117.111 365.492 117.688 364.915 117.688 364.202V363.553C117.688 362.84 117.111 362.263 116.398 362.263H116.394ZM80.3696 304.672C45.831 304.672 26.6433 352.216 22.9773 362.263H17.7465C24.1641 343.427 36.7899 321.091 52.9781 309.222C61.5538 302.926 70.7697 299.735 80.3656 299.735C107.588 299.735 115.089 335.04 115.103 362.263H110.175C110.139 338.529 104.245 304.672 80.3696 304.672Z" fill="black"/>
<path d="M45.5696 295.055H132.581C135.592 295.055 138.037 297.499 138.037 300.511V304.496C138.037 307.508 135.592 309.95 132.583 309.95H45.5696C42.5579 309.95 40.1152 307.506 40.1152 304.496V300.511C40.1152 297.499 42.5579 295.055 45.5696 295.055Z" fill="#81F889"/>
<path d="M132.579 294.446H45.5719C42.225 294.446 39.5039 297.169 39.5039 300.514V304.497C39.5039 307.842 42.227 310.563 45.5719 310.563H132.577C135.922 310.563 138.645 307.842 138.645 304.497V300.514C138.645 297.169 135.924 294.446 132.579 294.446ZM137.418 300.51V304.493C137.418 307.161 135.245 309.335 132.575 309.335H45.5679C42.8976 309.335 40.7232 307.163 40.7232 304.493V300.51C40.7232 297.842 42.8956 295.667 45.5679 295.667H132.575C135.245 295.667 137.418 297.839 137.418 300.51Z" fill="black"/>
<path d="M92.9778 278.773L83.0568 236.305C82.437 233.645 80.0634 231.765 77.3342 231.765H22.539C19.8037 231.765 15.8349 234.586 14.1543 237.543C15.1765 236.644 16.5075 236.077 18.0073 236.077H72.8025C75.5317 236.077 77.9052 237.957 78.525 240.617L88.4461 283.085C88.9216 285.113 88.2611 287.072 86.9626 288.444C90.2974 286.786 93.689 281.809 92.9778 278.773Z" fill="white"/>
<path d="M88.4432 283.086C89.3048 286.772 86.5065 290.302 82.7206 290.302H27.9254C25.1962 290.302 22.8226 288.422 22.2028 285.762L12.2818 243.294C11.4202 239.608 14.2185 236.078 18.0044 236.078H72.7996C75.5288 236.078 77.9023 237.957 78.5221 240.617L88.4432 283.086Z" fill="#81F889"/>
<path d="M93.5807 278.637L83.6577 236.169C82.9647 233.216 80.3656 231.156 77.3356 231.156H22.5404C18.0371 231.156 10.4388 238.106 11.6826 243.434L21.6036 285.902C22.2986 288.855 24.8977 290.916 27.9256 290.916H82.7229C85.4704 290.916 89.4351 287.831 91.1441 285.679C92.6683 283.756 94.1091 280.897 93.5807 278.637ZM27.9216 289.688C25.4647 289.688 23.3573 288.016 22.7965 285.622L12.8734 243.154C12.0951 239.825 14.6373 236.689 18.0026 236.689H72.8039C75.2587 236.689 77.3661 238.362 77.929 240.756L87.8521 283.224C88.6304 286.552 86.0881 289.688 82.7229 289.688H27.9216ZM88.9088 286.278C89.2319 285.207 89.3071 284.069 89.0449 282.945L79.1219 240.477C78.4289 237.525 75.8298 235.464 72.7998 235.464C16.3484 235.464 17.7262 235.336 16.3484 235.696C18.2383 233.777 20.7745 232.381 22.5384 232.381L77.3336 232.377C79.7905 232.377 81.8978 234.05 82.4587 236.443L92.3797 278.914C92.9203 281.214 90.7946 284.508 88.9067 286.28L88.9088 286.278Z" fill="black"/>
<path d="M65.139 312.485C65.7101 312.485 66.1449 311.955 66.0047 311.39L54.588 262.53C54.3625 261.565 53.5049 260.884 52.5152 260.884H37.5402C36.831 260.884 36.323 261.553 36.4855 262.213L47.6665 310.073C47.9998 311.489 49.2597 312.487 50.7127 312.487H65.137L65.139 312.485Z" fill="white"/>
<path d="M56.7732 260.805C56.4785 259.559 55.3812 258.688 54.1009 258.688H39.1259C38.5406 258.688 37.9269 259.137 37.6892 259.328C36.6771 260.173 35.6102 261.1 35.8887 262.345L47.0716 310.205C47.4699 311.908 48.9697 313.097 50.7133 313.097H65.1396C66.5804 313.097 68.6491 311.642 68.3423 310.311L56.7732 260.805ZM65.1376 311.871H50.7112C49.5367 311.871 48.5328 311.073 48.2666 309.93L37.0836 262.067C37.0124 261.768 37.2522 261.494 37.5428 261.494L52.5117 261.49C53.2189 261.49 53.8265 261.974 53.9891 262.664C66.1272 314.393 65.6862 311.871 65.1376 311.871Z" fill="black"/>
<path d="M61.138 362.921C64.7756 352.803 83.6787 305.28 118.118 305.28C146.113 305.28 147.361 352.799 147.308 362.921H153.469C153.644 335.228 145.954 299.123 118.118 299.123C75.5745 299.123 55.4601 360.313 54.627 362.921H61.138Z" fill="white"/>
<path d="M102.662 309.737C102.54 309.526 102.635 309.564 100.01 309.664C99.8065 309.672 99.4285 309.959 96.0064 311.769C95.8296 311.863 95.793 312.098 95.9251 312.243C96.7867 313.18 96.9554 313.495 97.246 313.342C100.967 311.47 102.576 311.088 102.924 311.115C103.198 311.082 103.31 310.849 103.198 310.656L102.66 309.735L102.662 309.737Z" fill="black"/>
<path d="M57.5462 312.242C48.8852 312.014 50.5719 312.256 48.7775 311.565C48.4828 311.451 48.4117 311.683 47.5317 312.752C47.4383 312.865 47.4403 313.03 47.5358 313.142C47.5785 313.189 48.5478 314.296 50.4601 314.296C56.1359 314.296 56.2274 314.402 56.4184 314.198C57.8958 312.615 57.9242 312.666 57.8206 312.426C57.7759 312.315 57.6682 312.246 57.5462 312.242Z" fill="black"/>
<path d="M154.078 362.263C154.072 334.339 146.22 298.514 118.113 298.514C76.5735 298.514 56.2824 355.996 54.1954 362.263C53.4821 362.263 52.8887 362.84 52.8887 363.553V364.202C52.8887 364.915 53.4658 365.492 54.1791 365.492H61.3831C62.0964 365.492 62.6735 364.915 62.6735 364.202V363.553C62.6735 363.058 62.3829 362.639 61.9724 362.424C66.0002 351.47 84.7753 305.899 118.117 305.899C141.111 305.899 146.705 339.576 146.693 362.334C146.155 362.489 145.754 362.966 145.754 363.553V364.202C145.754 364.915 146.332 365.492 147.045 365.492H154.249C154.962 365.492 155.539 364.915 155.539 364.202V363.553C155.539 363.318 155.423 362.263 154.078 362.263ZM118.121 304.672C83.5824 304.672 64.3948 352.216 60.7288 362.263H55.498C61.9298 343.384 74.5739 321.067 90.7296 309.222C99.3053 302.926 108.521 299.735 118.117 299.735C145.36 299.735 152.841 335.083 152.855 362.263H147.927C147.89 338.556 141.991 304.672 118.121 304.672Z" fill="black"/>
<path d="M132.386 363.429C136.024 353.311 154.927 305.789 189.366 305.789C217.361 305.789 218.609 353.307 218.556 363.429H224.718C224.892 335.737 217.203 299.631 189.366 299.631C146.823 299.631 126.708 360.822 125.875 363.429H132.386Z" fill="white"/>
<path d="M225.398 362.771C225.121 362.771 227.231 299.022 189.365 299.022C147.8 299.022 127.51 356.581 125.444 362.785C124.767 362.826 124.229 363.374 124.229 364.059V364.708C124.229 365.421 124.806 365.998 125.519 365.998H132.723C133.436 365.998 134.013 365.421 134.013 364.708V364.059C134.013 363.533 133.696 363.084 133.245 362.883C137.312 351.844 156.079 306.405 189.374 306.405C212.374 306.405 217.956 340.082 217.95 362.82C217.36 362.938 216.907 363.435 216.907 364.059V364.708C216.907 365.421 217.484 365.998 218.198 365.998H225.402C226.115 365.998 226.692 365.421 226.692 364.708V364.059C226.692 363.346 226.115 362.769 225.402 362.769L225.398 362.771ZM189.374 305.179C154.835 305.179 135.647 352.724 131.981 362.771H126.75C133.168 343.935 145.794 321.599 161.982 309.729C170.558 303.434 179.774 300.243 189.369 300.243C216.592 300.243 224.093 335.548 224.107 362.771H219.179C219.143 339.037 213.249 305.179 189.374 305.179Z" fill="black"/>
<path d="M154.569 295.563H241.581C244.592 295.563 247.037 298.008 247.037 301.019V305.004C247.037 308.016 244.592 310.459 241.583 310.459H154.572C151.56 310.459 149.117 308.014 149.117 305.004V301.019C149.117 298.008 151.562 295.565 154.572 295.565L154.569 295.563Z" fill="#81F889"/>
<path d="M241.579 294.954H154.574C151.229 294.954 148.506 297.677 148.506 301.022V305.005C148.506 308.35 151.229 311.071 154.574 311.071H241.579C244.926 311.071 247.647 308.35 247.647 305.005V301.022C247.647 297.677 244.924 294.954 241.579 294.954ZM246.417 301.018V305.001C246.417 307.669 244.245 309.843 241.575 309.843H154.57C151.9 309.843 149.725 307.671 149.725 305.001V301.018C149.725 298.349 151.898 296.175 154.57 296.175H241.575C244.243 296.175 246.417 298.347 246.417 301.018Z" fill="black"/>
<path d="M201.98 279.281L192.059 236.813C191.439 234.153 189.065 232.273 186.336 232.273H131.541C128.806 232.273 124.837 235.094 123.156 238.051C124.178 237.153 125.509 236.586 127.007 236.586H181.802C184.532 236.586 186.905 238.465 187.525 241.126L197.446 283.594C197.922 285.622 197.261 287.581 195.962 288.952C199.297 287.294 202.689 282.319 201.98 279.281Z" fill="white"/>
<path d="M197.447 283.593C198.309 287.28 195.511 290.81 191.725 290.81H136.929C134.2 290.81 131.827 288.93 131.207 286.27L121.286 243.802C120.424 240.115 123.222 236.585 127.008 236.585H181.804C184.533 236.585 186.906 238.465 187.526 241.125L197.447 283.593Z" fill="#81F889"/>
<path d="M202.583 279.146L192.66 236.677C191.967 233.725 189.368 231.664 186.338 231.664H131.542C127.039 231.664 119.441 238.614 120.685 243.942L130.606 286.41C131.301 289.363 133.9 291.424 136.928 291.424H191.725C194.472 291.424 198.439 288.339 200.146 286.187C201.67 284.265 203.111 281.405 202.583 279.146ZM136.924 290.196C134.467 290.196 132.359 288.524 131.8 286.13L121.877 243.662C121.099 240.333 123.641 237.198 127.007 237.198H181.808C184.263 237.198 186.37 238.87 186.931 241.264L196.854 283.732C197.632 287.061 195.09 290.196 191.725 290.196H136.924ZM197.911 286.786C198.234 285.716 198.309 284.577 198.047 283.454L188.124 240.986C187.431 238.033 184.832 235.972 181.802 235.972C125.35 235.972 126.728 235.844 125.35 236.204C127.24 234.286 129.776 232.889 131.54 232.889L186.336 232.885C188.792 232.885 190.9 234.558 191.461 236.952L201.382 279.42C201.922 281.72 199.799 285.014 197.911 286.786Z" fill="black"/>
<path d="M174.143 312.993C174.714 312.993 175.149 312.462 175.009 311.897L163.592 263.038C163.366 262.073 162.509 261.392 161.519 261.392H146.544C145.835 261.392 145.327 262.059 145.489 262.721L156.67 310.581C157.004 311.997 158.264 312.995 159.717 312.995H174.141L174.143 312.993Z" fill="white"/>
<path d="M165.773 261.315C165.476 260.069 164.381 259.197 163.101 259.197H148.126C147.541 259.197 146.927 259.646 146.689 259.837C145.677 260.683 144.61 261.609 144.889 262.855L156.072 310.715C156.47 312.418 157.97 313.606 159.713 313.606H174.14C175.58 313.606 177.649 312.151 177.342 310.82L165.773 261.315ZM174.138 312.381H159.711C158.537 312.381 157.533 311.582 157.267 310.44L146.084 262.577C146.012 262.278 146.252 262.004 146.545 262.004L161.514 262C162.221 262 162.829 262.483 162.991 263.174C175.129 314.903 174.688 312.381 174.138 312.381Z" fill="black"/>
<path d="M170.136 363.429C173.774 353.311 192.675 305.789 227.116 305.789C255.111 305.789 256.359 353.307 256.306 363.429H262.467C262.64 335.737 254.952 299.631 227.116 299.631C184.573 299.631 164.458 360.822 163.625 363.429H170.136Z" fill="white"/>
<path d="M211.664 310.245C211.542 310.034 211.637 310.073 209.012 310.172C208.808 310.18 208.43 310.467 205.008 312.277C204.832 312.371 204.795 312.607 204.927 312.751C205.789 313.688 205.957 314.003 206.248 313.85C209.969 311.979 211.578 311.597 211.926 311.623C212.2 311.591 212.312 311.357 212.2 311.166L211.664 310.245Z" fill="black"/>
<path d="M166.548 312.749C157.885 312.522 159.574 312.764 157.779 312.073C157.485 311.959 157.412 312.19 156.534 313.259C156.44 313.373 156.442 313.538 156.538 313.65C156.578 313.696 157.55 314.804 159.464 314.804C165.14 314.804 165.231 314.91 165.422 314.706C166.9 313.123 166.928 313.174 166.827 312.934C166.78 312.822 166.674 312.751 166.552 312.747L166.548 312.749Z" fill="black"/>
<path d="M263.076 362.771C263.07 334.847 255.218 299.022 227.111 299.022C185.572 299.022 165.28 356.504 163.193 362.771C162.48 362.771 161.887 363.348 161.887 364.061V364.71C161.887 365.423 162.464 366 163.177 366H170.381C171.094 366 171.672 365.423 171.672 364.71V364.061C171.672 363.565 171.381 363.147 170.97 362.931C175 351.978 193.773 306.407 227.115 306.407C250.109 306.407 255.701 340.084 255.691 362.842C255.153 362.996 254.752 363.474 254.752 364.061V364.71C254.752 365.423 255.33 366 256.043 366H263.247C263.96 366 264.537 365.423 264.537 364.71V364.061C264.537 363.826 264.424 362.771 263.078 362.771H263.076ZM227.119 305.179C192.58 305.179 173.393 352.724 169.727 362.771H164.496C170.928 343.892 183.572 321.575 199.728 309.729C208.303 303.434 217.519 300.243 227.115 300.243C254.358 300.243 261.839 335.591 261.853 362.771H256.925C256.888 339.064 250.989 305.179 227.119 305.179Z" fill="black"/>
<path d="M241.408 363.429C245.045 353.311 263.946 305.789 298.387 305.789C326.382 305.789 327.63 353.307 327.577 363.429H333.739C333.912 335.737 326.224 299.631 298.387 299.631C255.844 299.631 235.73 360.822 234.896 363.429H241.408Z" fill="white"/>
<path d="M334.415 362.771C334.139 362.771 336.248 299.022 298.383 299.022C256.817 299.022 236.528 356.581 234.461 362.785C233.787 362.826 233.246 363.374 233.246 364.059V364.708C233.246 365.421 233.823 365.998 234.537 365.998H241.741C242.454 365.998 243.031 365.421 243.031 364.708V364.059C243.031 363.533 242.714 363.084 242.263 362.883C246.329 351.844 265.096 306.405 298.391 306.405C321.391 306.405 326.973 340.082 326.967 362.82C326.378 362.938 325.925 363.435 325.925 364.059V364.708C325.925 365.421 326.502 365.998 327.215 365.998H334.419C335.133 365.998 335.71 365.421 335.71 364.708V364.059C335.71 363.346 335.133 362.769 334.419 362.769L334.415 362.771ZM298.391 305.179C263.852 305.179 244.665 352.724 240.999 362.771H235.768C242.186 343.935 254.811 321.599 271 309.729C279.575 303.434 288.791 300.243 298.387 300.243C325.61 300.243 333.111 335.548 333.125 362.771H328.197C328.16 339.037 322.267 305.179 298.391 305.179Z" fill="black"/>
<path d="M263.593 295.563H350.604C353.616 295.563 356.06 298.008 356.06 301.019V305.004C356.06 308.016 353.616 310.459 350.606 310.459H263.595C260.583 310.459 258.141 308.014 258.141 305.004V301.019C258.141 298.008 260.585 295.565 263.595 295.565L263.593 295.563Z" fill="#81F889"/>
<path d="M350.602 294.954H263.597C260.252 294.954 257.529 297.677 257.529 301.022V305.005C257.529 308.35 260.252 311.071 263.597 311.071H350.602C353.949 311.071 356.67 308.35 356.67 305.005V301.022C356.67 297.677 353.947 294.954 350.602 294.954ZM355.441 301.018V305.001C355.441 307.669 353.269 309.843 350.598 309.843H263.591C260.921 309.843 258.747 307.671 258.747 305.001V301.018C258.747 298.349 260.919 296.175 263.591 296.175H350.598C353.266 296.175 355.441 298.347 355.441 301.018Z" fill="black"/>
<path d="M310.997 279.281L301.076 236.813C300.456 234.153 298.083 232.273 295.354 232.273H240.559C237.823 232.273 233.854 235.094 232.174 238.051C233.196 237.153 234.527 236.586 236.027 236.586H290.822C293.551 236.586 295.925 238.465 296.545 241.126L306.466 283.594C306.941 285.622 306.281 287.581 304.982 288.952C308.317 287.294 311.709 282.317 310.999 279.279L310.997 279.281Z" fill="white"/>
<path d="M306.465 283.593C307.326 287.28 304.528 290.81 300.742 290.81H245.947C243.218 290.81 240.844 288.93 240.224 286.27L230.303 243.802C229.442 240.115 232.24 236.585 236.026 236.585H290.821C293.55 236.585 295.924 238.465 296.544 241.125L306.465 283.593Z" fill="#81F889"/>
<path d="M311.6 279.146L301.677 236.677C300.984 233.725 298.385 231.664 295.355 231.664H240.56C236.057 231.664 228.458 238.614 229.702 243.942L239.623 286.41C240.318 289.363 242.917 291.424 245.945 291.424H300.742C303.49 291.424 307.457 288.339 309.164 286.187C310.688 284.265 312.129 281.405 311.6 279.146ZM245.941 290.196C243.484 290.196 241.377 288.524 240.818 286.13L230.895 243.662C230.117 240.333 232.659 237.198 236.024 237.198H290.825C293.28 237.198 295.388 238.87 295.949 241.264L305.872 283.732C306.65 287.061 304.108 290.196 300.742 290.196H245.941ZM306.928 286.786C307.251 285.716 307.327 284.577 307.064 283.454L297.141 240.986C296.448 238.033 293.849 235.972 290.819 235.972C234.368 235.972 235.746 235.844 234.368 236.204C236.258 234.286 238.794 232.889 240.558 232.889L295.353 232.885C297.81 232.885 299.917 234.558 300.478 236.952L310.399 279.42C310.94 281.72 308.814 285.014 306.926 286.786H306.928Z" fill="black"/>
<path d="M283.161 312.993C283.732 312.993 284.166 312.462 284.026 311.897L272.61 263.038C272.384 262.073 271.526 261.392 270.537 261.392H255.562C254.853 261.392 254.344 262.059 254.507 262.721L265.688 310.581C266.021 311.997 267.281 312.995 268.734 312.995H283.158L283.161 312.993Z" fill="white"/>
<path d="M274.795 261.315C274.5 260.069 273.403 259.197 272.122 259.197H257.147C256.562 259.197 255.948 259.646 255.711 259.837C254.699 260.683 253.632 261.609 253.91 262.855L265.093 310.715C265.491 312.418 266.991 313.606 268.735 313.606H283.161C284.602 313.606 286.671 312.151 286.364 310.82L274.795 261.315ZM283.159 312.381H268.733C267.558 312.381 266.554 311.582 266.288 310.44L255.105 262.577C255.036 262.278 255.276 262.004 255.566 262.004L270.535 262C271.242 262 271.85 262.483 272.013 263.174C284.151 314.903 283.71 312.381 283.159 312.381Z" fill="black"/>
<path d="M279.154 363.429C282.791 353.311 301.694 305.789 336.133 305.789C364.128 305.789 365.376 353.307 365.323 363.429H371.485C371.658 335.737 363.97 299.631 336.133 299.631C293.59 299.631 273.476 360.822 272.643 363.429H279.154Z" fill="white"/>
<path d="M320.681 310.245C320.559 310.034 320.655 310.073 318.029 310.172C317.826 310.18 317.448 310.467 314.026 312.277C313.849 312.371 313.813 312.607 313.945 312.751C314.806 313.688 314.975 314.003 315.266 313.85C318.986 311.979 320.596 311.597 320.943 311.623C321.218 311.591 321.33 311.357 321.218 311.166L320.681 310.245Z" fill="black"/>
<path d="M275.566 312.749C266.905 312.522 268.591 312.764 266.797 312.073C266.502 311.959 266.431 312.19 265.551 313.259C265.458 313.373 265.46 313.538 265.555 313.65C265.598 313.696 266.567 314.804 268.482 314.804C274.157 314.804 274.249 314.91 274.44 314.706C275.917 313.123 275.946 313.174 275.842 312.934C275.797 312.822 275.69 312.751 275.568 312.747L275.566 312.749Z" fill="black"/>
<path d="M372.098 362.771C372.092 334.847 364.239 299.022 336.132 299.022C294.593 299.022 274.302 356.504 272.215 362.771C271.502 362.771 270.908 363.348 270.908 364.061V364.71C270.908 365.423 271.485 366 272.199 366H279.403C280.116 366 280.693 365.423 280.693 364.71V364.061C280.693 363.565 280.402 363.147 279.992 362.931C284.022 351.978 302.795 306.407 336.137 306.407C359.13 306.407 364.725 340.084 364.713 362.842C364.174 362.996 363.774 363.474 363.774 364.061V364.71C363.774 365.423 364.351 366 365.064 366H372.268C372.982 366 373.559 365.423 373.559 364.71V364.061C373.559 363.826 373.445 362.771 372.1 362.771H372.098ZM336.141 305.179C301.602 305.179 282.414 352.724 278.748 362.771H273.517C279.949 343.892 292.593 321.575 308.749 309.729C317.325 303.434 326.541 300.243 336.137 300.243C363.38 300.243 370.86 335.591 370.874 362.771H365.946C365.91 339.064 360.01 305.179 336.141 305.179Z" fill="black"/>
</svg>
