<svg width="1368" height="354" viewBox="0 0 1368 354" fill="none" xmlns="http://www.w3.org/2000/svg">
<g clip-path="url(#clip0_728_29230)">
<path d="M713 176.907L98 176.907" stroke="#BEF2BE" stroke-width="2"/>
<path d="M1524.5 31.9072L1289 270.907L1409 395.407" stroke="#BEF2BE" stroke-width="2"/>
<path d="M1109.5 62.9072L762.5 25.4072M762.5 25.4072L709 181.907L875.5 175.407L762.5 25.4072Z" stroke="#BEF2BE" stroke-width="2"/>
<path d="M1113.5 61.4072L1018.5 294.907" stroke="#BEF2BE" stroke-width="2"/>
<path d="M1218.5 176.907L1019.5 291.407" stroke="#BEF2BE" stroke-width="2"/>
<path d="M1115.99 65.5469L1216.98 175.764L1190.11 10.3203L1115.99 65.5469Z" stroke="#BEF2BE" stroke-width="2"/>
<path d="M1114.5 64.9072L1079 -15.0928" stroke="#BEF2BE" stroke-width="2"/>
<path d="M1115 64.4072L763.5 25.4072L707 185.407L820.5 510.907L876.5 173.907L1018 287.907M1018 287.907L903 415.907H1060.5L1018 287.907Z" stroke="#BEF2BE" stroke-width="2"/>
<path d="M1018 287.907L1287 268.907M1287 268.907L1094.5 387.407L1282.5 381.407L1287 268.907Z" stroke="#BEF2BE" stroke-width="2"/>
<path d="M1219.5 177.407L1290 269.907" stroke="#BEF2BE" stroke-width="2"/>
<path d="M764.5 27.4072L662.5 36.4072L709 183.407" stroke="#BEF2BE" stroke-width="2"/>
<path d="M706.5 184.907L605.5 378.407" stroke="#BEF2BE" stroke-width="2"/>
<g filter="url(#filter0_f_728_29230)">
<rect x="34" y="134.907" width="1411" height="84" fill="#276A35"/>
</g>
<g clip-path="url(#clip1_728_29230)">
<path d="M50 127.907H149V226.907H50V127.907Z" fill="#BEF2BE"/>
</g>
<path d="M114 203.425H100.92C97.339 203.421 93.906 201.997 91.3741 199.465C88.8422 196.933 87.4181 193.5 87.4145 189.92V179.046H79.0586V172.285H102.821C105.786 172.287 108.63 173.466 110.726 175.564C112.822 177.662 114 180.506 114 183.472V203.425ZM94.1549 179.053V189.926C94.1576 191.715 94.8694 193.43 96.1342 194.695C97.3989 195.959 99.1136 196.671 100.902 196.674H107.221V183.472C107.224 182.301 106.762 181.178 105.937 180.348C105.112 179.518 103.991 179.05 102.821 179.046L94.1549 179.053Z" fill="#276A35"/>
<path d="M103.994 151.907H93.9912V158.669H103.994V151.907Z" fill="#276A35"/>
<path d="M93.9947 158.668H87.2334V168.671H93.9947V158.668Z" fill="#00BF4D"/>
<path d="M1188.5 -0.0927734L1191.79 4.61453L1197.89 -0.0927734H1209.88L1193.23 12.7462C1192.66 13.1984 1191.98 13.4338 1191.29 13.4892C1191 13.5169 1190.72 13.5076 1190.43 13.4846C1189.43 13.3276 1188.56 12.7692 1187.98 11.9431L1179.57 -0.0927734H1188.5Z" fill="#BEF2BE"/>
<path d="M1188.5 -0.0927734L1193.98 7.75273C1195.12 9.35875 1194.79 11.5555 1193.23 12.7462C1192.65 13.1984 1191.98 13.4338 1191.29 13.4892C1190.15 13.5861 1188.99 13.1707 1188.2 12.2339L1177.69 -0.0927734H1188.5Z" fill="#BEF2BE"/>
<rect width="54.9839" height="54.985" rx="27.4919" transform="matrix(-1 0 0 1 691.899 8.45996)" fill="#BEF2BE"/>
<path fill-rule="evenodd" clip-rule="evenodd" d="M664.5 36.4072C662.404 36.4072 660.7 34.7029 660.7 32.6072C660.7 30.5115 662.404 28.8072 664.5 28.8072C666.596 28.8072 668.3 30.5115 668.3 32.6072C668.3 34.7029 666.596 36.4072 664.5 36.4072ZM668.07 37.0466C669.368 36.0025 670.2 34.4027 670.2 32.6072C670.2 29.4589 667.648 26.9072 664.5 26.9072C661.352 26.9072 658.8 29.4589 658.8 32.6072C658.8 34.4027 659.632 36.0025 660.93 37.0466C657.454 38.3528 655 41.58 655 45.9072H656.9C656.9 41.1572 660.31 38.3072 664.5 38.3072C668.69 38.3072 672.1 41.1572 672.1 45.9072H674C674 41.58 671.546 38.3528 668.07 37.0466Z" fill="#276A35"/>
<rect width="66" height="66" rx="33" transform="matrix(-1 0 0 1 796 -7.09277)" fill="#BEF2BE"/>
<path d="M757.792 23.8539C758.283 23.8239 758.888 23.8239 759.667 23.8239H766.334C767.112 23.8239 767.718 23.8239 768.209 23.8539M757.792 23.8539C757.179 23.8913 756.744 23.9755 756.373 24.1645C755.785 24.4641 755.307 24.9421 755.008 25.5301C754.667 26.1987 754.667 27.0737 754.667 28.8239V30.2822C754.667 32.0324 754.667 32.9074 755.008 33.576C755.307 34.164 755.785 34.642 756.373 34.9416C757.042 35.2822 757.917 35.2822 759.667 35.2822H766.334C768.084 35.2822 768.959 35.2822 769.627 34.9416C770.215 34.642 770.693 34.164 770.993 33.576C771.334 32.9074 771.334 32.0324 771.334 30.2822V28.8239C771.334 27.0737 771.334 26.1987 770.993 25.5301C770.693 24.9421 770.215 24.4641 769.627 24.1645C769.256 23.9755 768.821 23.8913 768.209 23.8539M757.792 23.8539V21.7406C757.792 18.8641 760.124 16.5322 763 16.5322C765.877 16.5322 768.209 18.8641 768.209 21.7406V23.8539" stroke="#276A35" stroke-width="2.08333" stroke-linecap="round" stroke-linejoin="round"/>
<rect width="65.9715" height="65.9734" rx="32.9857" transform="matrix(-1 0 0 1 739.178 143.907)" fill="#BEF2BE"/>
<path d="M713.001 173.139C713.001 172.209 712.816 171.289 712.456 170.432C712.097 169.575 711.571 168.798 710.908 168.146C710.245 167.494 709.459 166.981 708.596 166.637C707.733 166.292 706.81 166.123 705.881 166.139C704.097 166.192 702.398 166.915 701.123 168.164C699.848 169.413 699.09 171.096 699.001 172.879C698.958 174.068 699.219 175.249 699.76 176.309C700.301 177.37 701.103 178.275 702.091 178.939C702.369 179.12 702.598 179.367 702.757 179.659C702.916 179.95 702.999 180.277 703.001 180.609V182.139H709.001V180.609C709.001 180.278 709.083 179.952 709.24 179.66C709.397 179.369 709.624 179.121 709.901 178.939C710.853 178.3 711.634 177.437 712.174 176.425C712.715 175.414 712.998 174.285 713.001 173.139Z" stroke="#276A35" stroke-width="1.5" stroke-linecap="round" stroke-linejoin="round"/>
<path d="M709 185.148C708.135 185.798 707.082 186.148 706 186.148C704.918 186.148 703.865 185.798 703 185.148" stroke="#276A35" stroke-width="1.5" stroke-linecap="round" stroke-linejoin="round"/>
<path d="M705.99 169.749L704.33 172.529C704.255 172.65 704.214 172.79 704.211 172.933C704.208 173.077 704.244 173.218 704.315 173.342C704.385 173.467 704.488 173.57 704.612 173.642C704.736 173.713 704.877 173.75 705.02 173.749H707.02C707.162 173.748 707.301 173.785 707.424 173.856C707.546 173.927 707.648 174.029 707.718 174.152C707.788 174.275 707.824 174.415 707.823 174.556C707.822 174.698 707.783 174.837 707.71 174.959L706.03 177.749" stroke="#276A35" stroke-width="1.5" stroke-linecap="round" stroke-linejoin="round"/>
<rect width="65.9576" height="65.9635" rx="32.9788" transform="matrix(-1 0 0 1 908.734 140.472)" fill="#BEF2BE"/>
<g clip-path="url(#clip2_728_29230)">
<path d="M887.455 170.324L877.318 166.642C876.864 166.46 876.318 166.415 876 166.415C875.636 166.415 875.136 166.46 874.682 166.642L864.545 170.324C863.591 170.687 863.5 171.324 863.5 171.596C863.5 171.869 863.591 172.505 864.545 172.869L865 173.005V176.778C865 177.324 865.409 177.733 865.955 177.733C866.5 177.733 866.909 177.324 866.909 176.778V173.687L868.682 174.324V178.596C868.682 180.46 873.045 181.369 876 181.369C878.955 181.369 883.318 180.505 883.318 178.596V174.369L887.455 172.869C888.409 172.551 888.5 171.869 888.5 171.596C888.5 171.324 888.409 170.687 887.455 170.324ZM881.455 178.369C880.909 178.733 878.864 179.46 876.045 179.46C873.227 179.46 871.136 178.733 870.636 178.369V175.051L874.727 176.551C875.182 176.733 875.727 176.778 876.045 176.778C876.364 176.778 876.909 176.733 877.364 176.551L881.455 175.051V178.369ZM876.682 174.733C876.364 174.869 875.682 174.869 875.364 174.733L866.682 171.596L875.318 168.46C875.636 168.324 876.318 168.324 876.636 168.46L885.318 171.596L876.682 174.733Z" fill="#276A35"/>
</g>
<rect width="65.9576" height="65.9635" rx="32.9788" transform="matrix(-1 0 0 1 1051 257.907)" fill="#BEF2BE"/>
<path d="M1018 281.532C1018.41 281.532 1018.81 281.697 1019.1 281.99C1019.4 282.283 1019.56 282.68 1019.56 283.095V298.72C1019.56 299.134 1019.4 299.532 1019.1 299.825C1018.81 300.118 1018.41 300.282 1018 300.282C1017.59 300.282 1017.19 300.118 1016.9 299.825C1016.6 299.532 1016.44 299.134 1016.44 298.72V283.095C1016.44 282.68 1016.6 282.283 1016.9 281.99C1017.19 281.697 1017.59 281.532 1018 281.532ZM1024.25 287.782C1024.66 287.782 1025.06 287.947 1025.35 288.24C1025.65 288.533 1025.81 288.93 1025.81 289.345V298.72C1025.81 299.134 1025.65 299.532 1025.35 299.825C1025.06 300.118 1024.66 300.282 1024.25 300.282C1023.84 300.282 1023.44 300.118 1023.15 299.825C1022.85 299.532 1022.69 299.134 1022.69 298.72V289.345C1022.69 288.93 1022.85 288.533 1023.15 288.24C1023.44 287.947 1023.84 287.782 1024.25 287.782ZM1013.31 292.47C1013.31 292.055 1013.15 291.658 1012.85 291.365C1012.56 291.072 1012.16 290.907 1011.75 290.907C1011.34 290.907 1010.94 291.072 1010.65 291.365C1010.35 291.658 1010.19 292.055 1010.19 292.47V298.72C1010.19 299.134 1010.35 299.532 1010.65 299.825C1010.94 300.118 1011.34 300.282 1011.75 300.282C1012.16 300.282 1012.56 300.118 1012.85 299.825C1013.15 299.532 1013.31 299.134 1013.31 298.72V292.47Z" fill="#276A35"/>
<rect width="47" height="47" rx="23.5" transform="matrix(-1 0 0 1 1212 -9.09277)" fill="#BEF2BE"/>
<path d="M1179.65 -9.09277H1197.38C1201.42 -5.71422 1204.28 -0.158387 1204.71 6.44855C1205.43 17.8028 1198.77 27.7421 1189.83 28.6661C1180.86 29.6017 1173.02 21.1467 1172.3 9.7809C1171.8 1.97847 1174.83 -5.07894 1179.65 -9.09277Z" fill="#BEF2BE"/>
<path d="M1185.4 18.0322H1185.41M1191.65 18.0322H1191.66M1185.4 22.1989H1185.41M1188.52 20.1156H1188.53M1188.52 24.2822H1188.53M1191.65 22.1989H1191.66M1181.75 19.5362C1179.9 18.6242 1178.62 16.7304 1178.62 14.5419C1178.62 11.9906 1180.5 9.63379 1183.31 9.17806C1184.19 7.08053 1186.28 5.53223 1188.72 5.53223C1191.84 5.53223 1194.39 7.95151 1194.56 11.001C1196.22 11.7248 1197.37 13.5013 1197.37 15.4248C1197.37 17.0512 1196.55 18.4842 1195.29 19.3257" stroke="#276A35" stroke-width="2.08333" stroke-linecap="round" stroke-linejoin="round"/>
<rect width="65.955" height="65.9597" rx="32.9775" transform="matrix(-1 0 0 1 1251.35 142.738)" fill="#BEF2BE"/>
<path d="M1224.14 169.081C1224.4 168.567 1224.19 167.941 1223.67 167.684C1223.16 167.427 1222.53 167.635 1222.28 168.15L1219.71 173.283L1217 171.254C1216.26 170.698 1215.2 170.905 1214.73 171.7L1211.9 176.413C1211.6 176.906 1211.76 177.546 1212.26 177.842C1212.75 178.138 1213.39 177.978 1213.69 177.485L1216.22 173.267L1218.96 175.324C1219.74 175.909 1220.86 175.645 1221.29 174.773L1224.14 169.081Z" fill="#276A35"/>
<path fill-rule="evenodd" clip-rule="evenodd" d="M1229.46 167.574C1229.46 165.848 1228.06 164.449 1226.33 164.449H1209.67C1207.94 164.449 1206.54 165.848 1206.54 167.574V177.99C1206.54 179.716 1207.94 181.115 1209.67 181.115H1216.37L1211.08 185.524C1210.64 185.892 1210.58 186.549 1210.95 186.991C1211.32 187.433 1211.98 187.492 1212.42 187.124L1216.96 183.339V186.324C1216.96 186.899 1217.43 187.365 1218 187.365C1218.58 187.365 1219.04 186.899 1219.04 186.324V183.339L1223.58 187.124C1224.03 187.492 1224.68 187.433 1225.05 186.991C1225.42 186.549 1225.36 185.892 1224.92 185.524L1219.63 181.115H1226.33C1228.06 181.115 1229.46 179.716 1229.46 177.99V167.574ZM1227.38 167.574C1227.38 166.998 1226.91 166.532 1226.33 166.532H1209.67C1209.09 166.532 1208.63 166.998 1208.63 167.574V177.99C1208.63 178.566 1209.09 179.032 1209.67 179.032H1226.33C1226.91 179.032 1227.38 178.566 1227.38 177.99V167.574Z" fill="#276A35"/>
<rect width="65.9373" height="65.9641" rx="32.9687" transform="matrix(-1 0 0 1 1322.07 231.988)" fill="#BEF2BE"/>
<path d="M1292.62 265.407C1292.62 267.133 1291.23 268.532 1289.5 268.532C1287.77 268.532 1286.38 267.133 1286.38 265.407C1286.38 263.681 1287.77 262.282 1289.5 262.282C1291.23 262.282 1292.62 263.681 1292.62 265.407Z" stroke="#276A35" stroke-width="2.08333" stroke-linecap="round" stroke-linejoin="round"/>
<path d="M1290.44 256.095C1290.23 256.032 1289.99 256.032 1289.5 256.032C1289.01 256.032 1288.77 256.032 1288.56 256.095C1288.24 256.186 1287.97 256.374 1287.77 256.631C1287.63 256.807 1287.54 257.032 1287.36 257.483C1287.1 258.131 1286.38 258.464 1285.72 258.244L1285.12 258.046C1284.7 257.905 1284.49 257.835 1284.28 257.823C1283.98 257.805 1283.68 257.876 1283.41 258.028C1283.23 258.131 1283.08 258.288 1282.76 258.603C1282.43 258.937 1282.26 259.104 1282.16 259.295C1282 259.575 1281.93 259.896 1281.97 260.215C1281.99 260.432 1282.08 260.651 1282.25 261.09C1282.53 261.777 1282.26 262.562 1281.63 262.943L1281.34 263.116C1280.9 263.382 1280.67 263.515 1280.51 263.698C1280.37 263.859 1280.26 264.049 1280.2 264.254C1280.12 264.486 1280.12 264.747 1280.12 265.268C1280.12 265.885 1280.12 266.194 1280.22 266.458C1280.31 266.691 1280.45 266.901 1280.64 267.068C1280.85 267.258 1281.13 267.371 1281.7 267.598C1282.28 267.83 1282.57 268.474 1282.38 269.066L1282.15 269.739C1282 270.205 1281.92 270.437 1281.91 270.666C1281.9 270.941 1281.97 271.214 1282.1 271.456C1282.21 271.657 1282.38 271.831 1282.73 272.178C1283.08 272.525 1283.25 272.699 1283.45 272.807C1283.69 272.938 1283.97 273.002 1284.24 272.994C1284.47 272.987 1284.7 272.909 1285.17 272.754L1285.72 272.571C1286.38 272.35 1287.1 272.684 1287.36 273.331C1287.54 273.782 1287.63 274.007 1287.77 274.183C1287.97 274.44 1288.24 274.628 1288.56 274.72C1288.77 274.782 1289.01 274.782 1289.5 274.782C1289.99 274.782 1290.23 274.782 1290.44 274.72C1290.76 274.628 1291.03 274.44 1291.23 274.183C1291.37 274.007 1291.46 273.782 1291.64 273.331C1291.9 272.684 1292.62 272.35 1293.28 272.571L1293.83 272.754C1294.3 272.909 1294.53 272.987 1294.76 272.994C1295.03 273.002 1295.31 272.938 1295.55 272.807C1295.75 272.699 1295.92 272.525 1296.27 272.178C1296.62 271.831 1296.79 271.657 1296.9 271.456C1297.03 271.214 1297.09 270.941 1297.09 270.666C1297.08 270.438 1297 270.205 1296.85 269.739L1296.62 269.067C1296.42 268.474 1296.72 267.83 1297.3 267.598C1297.87 267.371 1298.15 267.258 1298.36 267.068C1298.55 266.901 1298.69 266.691 1298.78 266.458C1298.87 266.194 1298.87 265.885 1298.87 265.268C1298.87 264.747 1298.87 264.486 1298.8 264.254C1298.74 264.049 1298.63 263.859 1298.49 263.698C1298.33 263.515 1298.1 263.382 1297.66 263.116L1297.37 262.943C1296.74 262.562 1296.47 261.777 1296.75 261.09C1296.92 260.651 1297.01 260.432 1297.03 260.215C1297.07 259.896 1297 259.575 1296.84 259.295C1296.74 259.104 1296.57 258.937 1296.24 258.603C1295.92 258.288 1295.77 258.131 1295.59 258.028C1295.32 257.876 1295.02 257.805 1294.72 257.823C1294.51 257.835 1294.3 257.905 1293.88 258.045L1293.28 258.244C1292.62 258.464 1291.9 258.131 1291.64 257.483C1291.46 257.032 1291.37 256.807 1291.23 256.631C1291.03 256.374 1290.76 256.186 1290.44 256.095Z" stroke="#276A35" stroke-width="2.08333" stroke-linecap="round" stroke-linejoin="round"/>
<rect width="65.967" height="65.9551" rx="32.9776" transform="matrix(-1 0 0 1 1144.96 29.1484)" fill="#BEF2BE"/>
<path d="M1102.62 71.2822H1121.37" stroke="#276A35" stroke-width="2.08333" stroke-linecap="round" stroke-linejoin="round"/>
<path d="M1119.29 71.2822V65.0322V56.6989C1119.29 54.7347 1119.29 53.7526 1118.68 53.1424C1118.07 52.5322 1117.09 52.5322 1115.12 52.5322H1112H1108.87C1106.91 52.5322 1105.93 52.5322 1105.32 53.1424C1104.71 53.7526 1104.71 54.7347 1104.71 56.6989V65.0322V71.2822" stroke="#276A35" stroke-width="2.08333" stroke-linejoin="round"/>
<path d="M1108.88 57.7407H1109.92" stroke="#276A35" stroke-width="2.08333" stroke-linecap="round" stroke-linejoin="round"/>
<path d="M1108.88 61.9072H1109.92" stroke="#276A35" stroke-width="2.08333" stroke-linecap="round" stroke-linejoin="round"/>
<path d="M1108.88 66.0737H1109.92" stroke="#276A35" stroke-width="2.08333" stroke-linecap="round" stroke-linejoin="round"/>
<path d="M1114.08 57.7407H1115.12" stroke="#276A35" stroke-width="2.08333" stroke-linecap="round" stroke-linejoin="round"/>
<path d="M1114.08 61.9072H1115.12" stroke="#276A35" stroke-width="2.08333" stroke-linecap="round" stroke-linejoin="round"/>
<path d="M1114.08 66.0737H1115.12" stroke="#276A35" stroke-width="2.08333" stroke-linecap="round" stroke-linejoin="round"/>
</g>
<defs>
<filter id="filter0_f_728_29230" x="-236" y="-135.093" width="1951" height="624" filterUnits="userSpaceOnUse" color-interpolation-filters="sRGB">
<feFlood flood-opacity="0" result="BackgroundImageFix"/>
<feBlend mode="normal" in="SourceGraphic" in2="BackgroundImageFix" result="shape"/>
<feGaussianBlur stdDeviation="135" result="effect1_foregroundBlur_728_29230"/>
</filter>
<clipPath id="clip0_728_29230">
<rect width="1368" height="354" fill="white" transform="matrix(-1 0 0 1 1368 0)"/>
</clipPath>
<clipPath id="clip1_728_29230">
<rect width="99" height="99" rx="49.5" transform="matrix(-1 0 0 1 149 127.907)" fill="white"/>
</clipPath>
<clipPath id="clip2_728_29230">
<rect width="25" height="25" fill="white" transform="translate(863.5 161.407)"/>
</clipPath>
</defs>
</svg>
