<svg width="343" height="300" viewBox="0 0 343 300" fill="none" xmlns="http://www.w3.org/2000/svg">
<g clip-path="url(#clip0_434_50602)">
<rect width="343" height="300" rx="15" transform="matrix(-1 0 0 1 343 0)" fill="white" fill-opacity="0.05"/>
<path d="M168.459 164.931L168.459 57.5" stroke="#BEF2BE" stroke-width="1.47844"/>
<path d="M252.73 458.032L280.451 201.522M280.451 201.522L164.763 161.974L169.568 285.054L280.451 201.522Z" stroke="#BEF2BE" stroke-width="1.47844"/>
<path d="M251.622 462.098L280.451 202.261L162.176 160.495L17.9998 214L38.4997 274.5L170.677 285.793L86.4056 390.393M86.4056 390.393L-8.21478 305.383L-8.21478 421.81L86.4056 390.393Z" stroke="#BEF2BE" stroke-width="1.47844"/>
<path d="M278.974 203L272.321 127.6L163.655 161.974" stroke="#BEF2BE" stroke-width="1.47844"/>
<path d="M162.546 160.125L93.0002 125" stroke="#BEF2BE" stroke-width="1.47844"/>
<g filter="url(#filter0_f_434_50602)">
<rect x="199.507" y="-327.835" width="1043.04" height="62.0946" transform="rotate(90 199.507 -327.835)" fill="#276A35"/>
</g>
<g clip-path="url(#clip1_434_50602)">
<path d="M202.859 19L202.859 82.5386L139.321 82.5386L139.321 19L202.859 19Z" fill="#BEF2BE"/>
</g>
<path d="M182.137 65.3947H173.742C171.444 65.3923 169.241 64.4783 167.616 62.8533C165.991 61.2283 165.077 59.0251 165.075 56.727V49.7486H159.712V45.4092H174.962C176.866 45.4104 178.691 46.1673 180.036 47.5136C181.382 48.8599 182.137 50.6853 182.137 52.5887V65.3947ZM169.401 49.7531V56.7315C169.403 57.8794 169.859 58.9799 170.671 59.7916C171.483 60.6033 172.583 61.0602 173.731 61.0619H177.787V52.5887C177.789 51.8376 177.492 51.1166 176.963 50.584C176.433 50.0514 175.714 49.751 174.962 49.7486L169.401 49.7531Z" fill="#276A35"/>
<path d="M175.716 32.3306H169.296V36.67H175.716V32.3306Z" fill="#276A35"/>
<path d="M169.298 36.6699H164.959V43.0897H169.298V36.6699Z" fill="#00BF4D"/>
<path d="M-221.216 587.505C-221.155 588.228 -220.8 588.927 -220.196 589.398C-219.258 590.152 -217.917 590.186 -216.941 589.493L-0.140158 434.672C0.886706 433.932 1.2722 432.551 0.770709 431.408L-75.7494 250.738C-76.1929 249.714 -77.1617 249.08 -78.2568 249.08C-79.3485 249.08 -80.3378 249.735 -80.7472 250.738L-221.005 586.232C-221.185 586.648 -221.257 587.078 -221.216 587.505ZM-5.05956 431.53L-212.343 579.549L-78.2398 258.765L-5.05956 431.53Z" fill="#BEF2BE"/>
<rect width="40.6453" height="40.6461" rx="20.3226" transform="matrix(4.37114e-08 -1 -1 -4.37114e-08 293.646 150.645)" fill="#BEF2BE"/>
<path fill-rule="evenodd" clip-rule="evenodd" d="M272.986 130.391C271.437 130.391 270.177 129.131 270.177 127.582C270.177 126.033 271.437 124.773 272.986 124.773C274.536 124.773 275.796 126.033 275.796 127.582C275.796 129.131 274.536 130.391 272.986 130.391ZM275.626 130.863C276.585 130.092 277.2 128.909 277.2 127.582C277.2 125.254 275.314 123.368 272.986 123.368C270.659 123.368 268.773 125.254 268.773 127.582C268.773 128.909 269.388 130.092 270.347 130.863C267.778 131.829 265.964 134.215 265.964 137.413H267.368C267.368 133.902 269.889 131.795 272.986 131.795C276.084 131.795 278.605 133.902 278.605 137.413H280.009C280.009 134.215 278.195 131.829 275.626 130.863Z" fill="#276A35"/>
<rect width="48.7886" height="48.7886" rx="24.3943" transform="matrix(4.37114e-08 -1 -1 -4.37114e-08 304.476 235.452)" fill="#BEF2BE"/>
<path d="M276.231 209.54C276.594 209.518 277.041 209.518 277.617 209.518H282.545C283.121 209.518 283.568 209.518 283.931 209.54M276.231 209.54C275.778 209.567 275.457 209.63 275.182 209.769C274.748 209.991 274.394 210.344 274.173 210.779C273.921 211.273 273.921 211.92 273.921 213.214V214.292C273.921 215.586 273.921 216.232 274.173 216.727C274.394 217.161 274.748 217.515 275.182 217.736C275.676 217.988 276.323 217.988 277.617 217.988H282.545C283.839 217.988 284.486 217.988 284.98 217.736C285.415 217.515 285.768 217.161 285.989 216.727C286.241 216.232 286.241 215.586 286.241 214.292V213.214C286.241 211.92 286.241 211.273 285.989 210.779C285.768 210.344 285.415 209.991 284.98 209.769C284.706 209.63 284.384 209.567 283.931 209.54M276.231 209.54V207.978C276.231 205.851 277.955 204.127 280.081 204.127C282.207 204.127 283.931 205.851 283.931 207.978V209.54" stroke="#276A35" stroke-width="1.54004" stroke-linecap="round" stroke-linejoin="round"/>
<rect width="48.7675" height="48.7689" rx="24.3838" transform="matrix(4.37114e-08 -1 -1 -4.37114e-08 192.854 193.448)" fill="#BEF2BE"/>
<path d="M173.855 166.356C173.855 165.669 173.719 164.989 173.453 164.356C173.188 163.722 172.798 163.147 172.309 162.666C171.819 162.184 171.238 161.805 170.6 161.55C169.962 161.295 169.279 161.17 168.592 161.182C167.273 161.221 166.018 161.756 165.075 162.679C164.133 163.602 163.573 164.847 163.506 166.164C163.475 167.044 163.668 167.916 164.068 168.7C164.467 169.484 165.06 170.153 165.79 170.644C165.996 170.778 166.165 170.961 166.283 171.176C166.4 171.392 166.462 171.633 166.463 171.878V173.009H170.898V171.878C170.898 171.634 170.959 171.393 171.075 171.177C171.192 170.962 171.359 170.779 171.564 170.644C172.268 170.172 172.845 169.534 173.244 168.786C173.644 168.038 173.854 167.204 173.855 166.356Z" stroke="#276A35" stroke-width="1.10883" stroke-linecap="round" stroke-linejoin="round"/>
<path d="M170.897 175.235C170.257 175.715 169.479 175.974 168.68 175.974C167.88 175.974 167.102 175.715 166.462 175.235" stroke="#276A35" stroke-width="1.10883" stroke-linecap="round" stroke-linejoin="round"/>
<path d="M168.673 163.851L167.445 165.906C167.39 165.996 167.36 166.099 167.358 166.205C167.356 166.311 167.382 166.415 167.434 166.507C167.486 166.599 167.562 166.676 167.654 166.729C167.745 166.781 167.85 166.809 167.956 166.807H169.434C169.539 166.807 169.642 166.834 169.732 166.887C169.823 166.939 169.898 167.015 169.95 167.106C170.002 167.197 170.029 167.3 170.028 167.405C170.027 167.509 169.998 167.612 169.944 167.702L168.702 169.764" stroke="#276A35" stroke-width="1.10883" stroke-linecap="round" stroke-linejoin="round"/>
<rect width="48.7572" height="48.7617" rx="24.3786" transform="matrix(4.37114e-08 -1 -1 -4.37114e-08 191.762 304.757)" fill="#BEF2BE"/>
<g clip-path="url(#clip2_434_50602)">
<path d="M175.512 277.909L168.019 275.188C167.683 275.053 167.28 275.02 167.045 275.02C166.776 275.02 166.407 275.053 166.071 275.188L158.578 277.909C157.872 278.178 157.805 278.648 157.805 278.85C157.805 279.052 157.872 279.522 158.578 279.791L158.914 279.892V282.681C158.914 283.084 159.216 283.386 159.619 283.386C160.022 283.386 160.325 283.084 160.325 282.681V280.396L161.635 280.866V284.025C161.635 285.402 164.861 286.074 167.045 286.074C169.229 286.074 172.455 285.436 172.455 284.025V280.9L175.512 279.791C176.218 279.556 176.285 279.052 176.285 278.85C176.285 278.648 176.218 278.178 175.512 277.909ZM171.077 283.857C170.674 284.125 169.162 284.663 167.079 284.663C164.995 284.663 163.45 284.125 163.08 283.857V281.404L166.104 282.513C166.44 282.647 166.843 282.681 167.079 282.681C167.314 282.681 167.717 282.647 168.053 282.513L171.077 281.404V283.857ZM167.549 281.169C167.314 281.269 166.81 281.269 166.575 281.169L160.157 278.85L166.541 276.532C166.776 276.431 167.28 276.431 167.515 276.532L173.933 278.85L167.549 281.169Z" fill="#276A35"/>
</g>
<rect x="-2.78906" y="230.968" width="34.7434" height="34.7434" rx="17.3717" transform="rotate(-90 -2.78906 230.968)" fill="#BEF2BE"/>
<path d="M17.737 199.615H4.63232C1.64052 202.113 -0.472919 206.22 -0.785896 211.104C-1.32435 219.497 3.59914 226.844 10.2121 227.527C16.8384 228.219 22.6336 221.969 23.172 213.567C23.5422 207.799 21.2975 202.582 17.737 199.615Z" fill="#BEF2BE"/>
<path d="M13.0266 210.917H13.0343M17.6468 210.917H17.6545M13.0266 207.837H13.0343M15.3367 209.377H15.3444M15.3367 206.297H15.3444M17.6468 207.837H17.6545M10.3316 209.805C8.96241 210.479 8.02148 211.879 8.02148 213.497C8.02148 215.383 9.40752 217.125 11.4866 217.462C12.1387 219.013 13.6822 220.157 15.4825 220.157C17.7884 220.157 19.6732 218.369 19.8028 216.115C21.0266 215.58 21.8819 214.266 21.8819 212.844C21.8819 211.642 21.2705 210.583 20.3418 209.961" stroke="#276A35" stroke-width="1.54004" stroke-linecap="round" stroke-linejoin="round"/>
<rect width="48.7553" height="48.7589" rx="24.3777" transform="matrix(4.37114e-08 -1 -1 -4.37114e-08 295.759 320.755)" fill="#BEF2BE"/>
<path d="M275.778 291.056C275.968 290.676 275.814 290.213 275.434 290.023C275.053 289.833 274.591 289.987 274.401 290.367L272.503 294.162L270.503 292.662C269.955 292.251 269.172 292.404 268.819 292.992L266.729 296.476C266.51 296.84 266.628 297.313 266.993 297.532C267.358 297.751 267.831 297.633 268.05 297.268L269.92 294.15L271.948 295.671C272.525 296.103 273.352 295.908 273.675 295.264L275.778 291.056Z" fill="#276A35"/>
<path fill-rule="evenodd" clip-rule="evenodd" d="M279.71 289.941C279.71 288.666 278.676 287.631 277.4 287.631H265.08C263.804 287.631 262.77 288.666 262.77 289.941V297.642C262.77 298.917 263.804 299.952 265.08 299.952H270.037L266.127 303.21C265.8 303.482 265.756 303.968 266.028 304.295C266.3 304.622 266.786 304.666 267.113 304.393L270.47 301.596V303.802C270.47 304.227 270.814 304.572 271.24 304.572C271.665 304.572 272.01 304.227 272.01 303.802V301.596L275.367 304.393C275.694 304.666 276.179 304.622 276.451 304.295C276.724 303.968 276.68 303.482 276.353 303.21L272.443 299.952H277.4C278.676 299.952 279.71 298.917 279.71 297.642V289.941ZM278.17 289.941C278.17 289.516 277.825 289.171 277.4 289.171H265.08C264.654 289.171 264.31 289.516 264.31 289.941V297.642C264.31 298.067 264.654 298.412 265.08 298.412H277.4C277.825 298.412 278.17 298.067 278.17 297.642V289.941Z" fill="#276A35"/>
<rect width="48.7423" height="48.7621" rx="24.3711" transform="matrix(4.37114e-08 -1 -1 -4.37114e-08 117.762 150.742)" fill="#BEF2BE"/>
<path d="M93.0571 128.98C91.7813 128.98 90.7471 127.945 90.7471 126.669C90.7471 125.394 91.7813 124.359 93.0571 124.359C94.333 124.359 95.3672 125.394 95.3672 126.669C95.3672 127.945 94.333 128.98 93.0571 128.98Z" stroke="#276A35" stroke-width="1.54004" stroke-linecap="round" stroke-linejoin="round"/>
<path d="M99.942 127.366C99.9883 127.208 99.9883 127.028 99.9883 126.669C99.9883 126.311 99.9883 126.131 99.942 125.973C99.8744 125.741 99.7357 125.536 99.5454 125.387C99.4155 125.285 99.2489 125.219 98.9159 125.085C98.4371 124.894 98.1905 124.362 98.3535 123.873L98.5 123.434C98.6039 123.122 98.6559 122.966 98.6648 122.813C98.6778 122.589 98.6251 122.365 98.513 122.17C98.4367 122.038 98.3205 121.921 98.0881 121.689C97.8411 121.442 97.7176 121.318 97.5767 121.24C97.3696 121.125 97.132 121.076 96.8962 121.1C96.7358 121.117 96.5736 121.182 96.2493 121.312C95.7414 121.515 95.1612 121.319 94.8797 120.85L94.7515 120.636C94.5552 120.309 94.457 120.146 94.3218 120.027C94.2023 119.922 94.0622 119.842 93.9105 119.794C93.7391 119.739 93.5464 119.739 93.161 119.739C92.7047 119.739 92.4766 119.739 92.2813 119.812C92.1087 119.876 91.9541 119.981 91.8302 120.118C91.6901 120.272 91.6061 120.482 91.4383 120.901C91.2669 121.33 90.7911 121.55 90.3531 121.404L89.856 121.239C89.5118 121.124 89.3396 121.067 89.1705 121.061C88.9672 121.055 88.7658 121.103 88.5868 121.199C88.4378 121.279 88.3095 121.408 88.0529 121.664C87.7964 121.921 87.6681 122.049 87.5878 122.198C87.4912 122.377 87.4436 122.579 87.4499 122.782C87.4552 122.951 87.5125 123.123 87.6273 123.467L87.7626 123.873C87.9256 124.362 87.6791 124.894 87.2003 125.085C86.8673 125.219 86.7007 125.285 86.5707 125.387C86.3805 125.536 86.2418 125.741 86.1741 125.973C86.1279 126.131 86.1279 126.311 86.1279 126.669C86.1279 127.028 86.1279 127.208 86.1741 127.366C86.2418 127.598 86.3805 127.803 86.5707 127.952C86.7007 128.054 86.8673 128.12 87.2003 128.253C87.6791 128.445 87.9256 128.977 87.7624 129.466L87.6272 129.871C87.5125 130.215 87.4551 130.388 87.4499 130.557C87.4436 130.76 87.4911 130.961 87.5877 131.14C87.668 131.289 87.7963 131.418 88.0529 131.674C88.3094 131.931 88.4378 132.059 88.5867 132.139C88.7657 132.236 88.9672 132.284 89.1705 132.277C89.3396 132.272 89.5117 132.215 89.856 132.1L90.3527 131.934C90.7908 131.788 91.2669 132.009 91.4383 132.438C91.6061 132.857 91.6901 133.067 91.8302 133.221C91.9541 133.358 92.1087 133.462 92.2813 133.527C92.4766 133.6 92.7047 133.6 93.161 133.6C93.5464 133.6 93.7391 133.6 93.9105 133.545C94.0622 133.496 94.2023 133.417 94.3218 133.312C94.457 133.193 94.5552 133.03 94.7515 132.702L94.8798 132.488C95.1613 132.019 95.7415 131.824 96.2494 132.027C96.5737 132.157 96.7358 132.222 96.8963 132.238C97.1321 132.263 97.3696 132.214 97.5767 132.099C97.7177 132.02 97.8412 131.897 98.0882 131.65C98.3205 131.417 98.4367 131.301 98.513 131.168C98.6252 130.973 98.6779 130.75 98.6648 130.525C98.6559 130.373 98.604 130.217 98.5 129.905L98.3536 129.466C98.1906 128.977 98.4371 128.445 98.9159 128.253C99.2489 128.12 99.4155 128.054 99.5454 127.952C99.7357 127.803 99.8744 127.598 99.942 127.366Z" stroke="#276A35" stroke-width="1.54004" stroke-linecap="round" stroke-linejoin="round"/>
<rect width="48.7642" height="48.7555" rx="24.3777" transform="matrix(4.37114e-08 -1 -1 -4.37114e-08 63.7549 297.764)" fill="#BEF2BE"/>
<path d="M32.6084 280.33H46.4688" stroke="#276A35" stroke-width="1.54004" stroke-linecap="round" stroke-linejoin="round"/>
<path d="M44.9287 280.329V275.709V269.549C44.9287 268.097 44.9287 267.371 44.4777 266.92C44.0266 266.469 43.3006 266.469 41.8487 266.469H39.5386H37.2285C35.7766 266.469 35.0506 266.469 34.5995 266.92C34.1484 267.371 34.1484 268.097 34.1484 269.549V275.709V280.329" stroke="#276A35" stroke-width="1.54004" stroke-linejoin="round"/>
<path d="M37.2285 270.319H37.9985" stroke="#276A35" stroke-width="1.54004" stroke-linecap="round" stroke-linejoin="round"/>
<path d="M37.2285 273.399H37.9985" stroke="#276A35" stroke-width="1.54004" stroke-linecap="round" stroke-linejoin="round"/>
<path d="M37.2285 276.48H37.9985" stroke="#276A35" stroke-width="1.54004" stroke-linecap="round" stroke-linejoin="round"/>
<path d="M41.0791 270.319H41.8491" stroke="#276A35" stroke-width="1.54004" stroke-linecap="round" stroke-linejoin="round"/>
<path d="M41.0791 273.399H41.8491" stroke="#276A35" stroke-width="1.54004" stroke-linecap="round" stroke-linejoin="round"/>
<path d="M41.0791 276.48H41.8491" stroke="#276A35" stroke-width="1.54004" stroke-linecap="round" stroke-linejoin="round"/>
</g>
<rect x="-0.125365" y="0.125365" width="342.749" height="299.749" rx="14.8746" transform="matrix(-1 0 0 1 342.749 0)" stroke="white" stroke-opacity="0.12" stroke-width="0.250731"/>
<defs>
<filter id="filter0_f_434_50602" x="-62.1777" y="-527.425" width="461.274" height="1442.22" filterUnits="userSpaceOnUse" color-interpolation-filters="sRGB">
<feFlood flood-opacity="0" result="BackgroundImageFix"/>
<feBlend mode="normal" in="SourceGraphic" in2="BackgroundImageFix" result="shape"/>
<feGaussianBlur stdDeviation="99.7949" result="effect1_foregroundBlur_434_50602"/>
</filter>
<clipPath id="clip0_434_50602">
<rect width="343" height="300" rx="15" transform="matrix(-1 0 0 1 343 0)" fill="white"/>
</clipPath>
<clipPath id="clip1_434_50602">
<rect width="63.5386" height="63.5386" rx="31.7693" transform="matrix(4.37114e-08 -1 -1 -4.37114e-08 202.859 82.5386)" fill="white"/>
</clipPath>
<clipPath id="clip2_434_50602">
<rect width="18.4805" height="18.4805" fill="white" transform="translate(157.805 271.318)"/>
</clipPath>
</defs>
</svg>
