<svg width="662" height="400" viewBox="0 0 662 400" fill="none" xmlns="http://www.w3.org/2000/svg">
<path fill-rule="evenodd" clip-rule="evenodd" d="M146.729 180.127C146.729 180.127 149.732 146.465 194.23 147.795C225.728 148.736 225.416 170.968 225.416 170.968C236.57 158.609 265.38 163.471 264.115 184.65C264.115 184.65 319.737 190.305 303.975 223.429C297.05 237.988 261.944 236.665 261.944 236.665C261.944 236.665 259.872 253.819 230.228 252.93C200.585 252.041 194.235 239.878 194.235 239.878C194.235 239.878 183.591 258.813 160.945 258.463C139.332 258.128 132.758 240.792 132.758 240.792C132.758 240.792 86.0286 249.36 81.4073 230.028C76.5467 209.694 107.07 205.324 107.07 205.324C105.883 190.062 123.323 173.963 146.729 180.127Z" fill="white"/>
<path d="M132.388 241.47C127.16 242.373 85.3196 248.998 80.8178 230.171C80.2095 227.972 80.0849 225.668 80.4524 223.417C80.8201 221.164 81.6712 219.019 82.9473 217.128C89.0252 208.189 103.394 205.331 106.438 204.812C105.686 189.504 122.956 173.644 146.226 179.379C146.977 174.624 153.009 147.156 191.718 147.156C192.546 147.156 193.387 147.169 194.247 147.194C221.36 148.004 225.331 164.635 225.912 169.595C238.092 158.063 265.453 163.544 264.737 184.116C269.182 184.639 296.671 188.45 305.023 203.287C308.329 209.164 308.157 216.025 304.512 223.686C297.877 237.634 266.979 237.397 262.427 237.281C261.74 240.253 257.044 254.344 230.204 253.524C204.75 252.762 196.289 243.83 194.238 240.992C177.974 265.805 142.677 264.211 132.388 241.47ZM132.745 240.194C132.867 240.194 132.986 240.232 133.086 240.299C133.186 240.369 133.263 240.467 133.306 240.581C133.37 240.751 140.01 257.539 160.941 257.862H161.545C183.143 257.862 193.596 239.766 193.699 239.58C193.751 239.485 193.828 239.405 193.923 239.351C194.017 239.296 194.122 239.268 194.231 239.269C194.34 239.271 194.447 239.303 194.538 239.36C194.631 239.418 194.706 239.5 194.754 239.596C194.817 239.714 201.377 251.463 230.233 252.327C258.888 253.219 261.249 237.265 261.335 236.588C261.347 236.435 261.419 236.294 261.535 236.194C261.651 236.094 261.801 236.042 261.954 236.053C262.299 236.053 296.744 237.193 303.422 223.158C306.888 215.87 307.072 209.38 303.968 203.864C295.366 188.588 264.353 185.268 264.043 185.236C263.889 185.22 263.746 185.145 263.646 185.027C263.548 184.909 263.496 184.756 263.507 184.602C264.723 164.23 236.804 159.232 225.844 171.359C225.762 171.45 225.654 171.513 225.535 171.541C225.417 171.569 225.292 171.56 225.178 171.516C225.064 171.471 224.967 171.393 224.898 171.292C224.83 171.19 224.794 171.071 224.796 170.949C224.807 170.056 224.705 149.295 194.201 148.383C150.849 147.099 147.434 178.817 147.315 180.168C147.308 180.256 147.282 180.341 147.238 180.418C147.195 180.494 147.136 180.56 147.064 180.611C146.992 180.662 146.91 180.697 146.824 180.713C146.737 180.729 146.648 180.726 146.563 180.704C123.41 174.604 106.509 190.557 107.659 205.272C107.671 205.424 107.624 205.576 107.529 205.695C107.433 205.815 107.296 205.893 107.145 205.915C106.977 205.938 90.2961 208.43 83.9273 217.801C82.7486 219.556 81.9634 221.543 81.626 223.629C81.2887 225.716 81.407 227.849 81.9727 229.886C86.4816 248.685 132.49 240.198 132.752 240.198L132.745 240.194Z" fill="black"/>
<path fill-rule="evenodd" clip-rule="evenodd" d="M193.968 217.3C195.18 217.3 196.365 217.659 197.373 218.332C198.382 219.004 199.167 219.963 199.631 221.082C200.095 222.203 200.219 223.435 199.981 224.624C199.746 225.814 199.162 226.905 198.305 227.763C197.447 228.62 196.356 229.204 195.165 229.441C193.977 229.679 192.745 229.557 191.624 229.093C190.504 228.629 189.547 227.844 188.873 226.835C188.199 225.827 187.84 224.642 187.84 223.429C187.841 221.805 188.487 220.247 189.636 219.097C190.785 217.948 192.343 217.302 193.968 217.3Z" fill="#81F889"/>
<path fill-rule="evenodd" clip-rule="evenodd" d="M183.545 213.958C186.344 211.252 190.103 209.769 193.996 209.835C197.887 209.899 201.595 211.506 204.303 214.303C204.631 214.642 205.022 214.913 205.456 215.101C205.89 215.288 206.354 215.388 206.827 215.397C207.298 215.404 207.767 215.318 208.205 215.145C208.644 214.972 209.045 214.713 209.385 214.385C209.724 214.058 209.993 213.666 210.182 213.234C210.37 212.8 210.47 212.334 210.477 211.863C210.486 211.391 210.4 210.922 210.227 210.483C210.054 210.044 209.795 209.644 209.467 209.305C205.434 205.14 199.912 202.745 194.116 202.649C188.318 202.552 182.72 204.762 178.551 208.791C177.866 209.453 177.473 210.362 177.457 211.313C177.442 212.266 177.806 213.185 178.469 213.871C179.131 214.554 180.039 214.949 180.992 214.963C181.944 214.979 182.864 214.615 183.549 213.953L183.545 213.958Z" fill="#81F889"/>
<path fill-rule="evenodd" clip-rule="evenodd" d="M175.778 205.926C180.708 201.161 187.327 198.551 194.18 198.664C201.034 198.778 207.562 201.608 212.332 206.533C212.994 207.216 213.902 207.611 214.854 207.625C215.807 207.641 216.728 207.277 217.412 206.615C218.097 205.952 218.49 205.044 218.504 204.092C218.52 203.139 218.156 202.218 217.494 201.535C211.402 195.241 203.059 191.624 194.301 191.478C185.543 191.332 177.085 194.669 170.786 200.756C170.101 201.419 169.707 202.327 169.692 203.28C169.676 204.232 170.04 205.153 170.703 205.836C171.365 206.522 172.273 206.916 173.226 206.931C174.179 206.947 175.099 206.583 175.784 205.92L175.778 205.926Z" fill="#81F889"/>
<path fill-rule="evenodd" clip-rule="evenodd" d="M168.014 197.893C175.073 191.07 184.551 187.33 194.368 187.493C204.181 187.657 213.531 191.71 220.359 198.764C221.021 199.448 221.93 199.842 222.883 199.856C223.834 199.872 224.755 199.508 225.439 198.846C226.124 198.183 226.517 197.275 226.531 196.323C226.548 195.37 226.183 194.45 225.521 193.766C217.367 185.345 206.206 180.506 194.485 180.311C182.766 180.116 171.448 184.582 163.02 192.727C162.335 193.39 161.942 194.297 161.926 195.25C161.911 196.203 162.275 197.122 162.937 197.807C163.6 198.492 164.508 198.885 165.46 198.9C166.413 198.915 167.333 198.552 168.018 197.889L168.014 197.893Z" fill="#81F889"/>
<path d="M193.968 230.159C192.636 230.159 191.336 229.765 190.229 229.026C189.123 228.285 188.26 227.235 187.751 226.005C187.241 224.775 187.108 223.422 187.367 222.118C187.627 220.813 188.268 219.613 189.209 218.673C190.15 217.73 191.349 217.089 192.654 216.83C193.959 216.57 195.312 216.702 196.542 217.212C197.771 217.721 198.823 218.583 199.562 219.69C200.303 220.797 200.697 222.096 200.697 223.428C200.695 225.213 199.987 226.923 198.725 228.185C197.463 229.447 195.753 230.157 193.968 230.159ZM193.968 217.901C192.873 217.901 191.804 218.226 190.894 218.833C189.984 219.442 189.274 220.306 188.855 221.318C188.437 222.328 188.327 223.44 188.541 224.515C188.754 225.588 189.281 226.573 190.055 227.348C190.829 228.122 191.815 228.649 192.888 228.861C193.962 229.076 195.074 228.967 196.085 228.547C197.097 228.128 197.961 227.419 198.569 226.509C199.176 225.598 199.501 224.529 199.501 223.435C199.501 221.968 198.917 220.559 197.88 219.522C196.843 218.485 195.435 217.901 193.968 217.901Z" fill="black"/>
<path d="M206.885 215.997C206.323 215.999 205.766 215.886 205.249 215.667C204.731 215.447 204.261 215.124 203.872 214.719C201.273 212.04 197.718 210.501 193.985 210.438C190.254 210.378 186.649 211.797 183.963 214.389C183.569 214.783 183.101 215.096 182.586 215.306C182.071 215.519 181.519 215.626 180.962 215.62C180.405 215.617 179.854 215.501 179.343 215.281C178.831 215.062 178.367 214.744 177.98 214.342C177.593 213.942 177.289 213.469 177.087 212.95C176.885 212.432 176.788 211.877 176.802 211.32C176.816 210.763 176.941 210.215 177.17 209.708C177.398 209.2 177.726 208.743 178.133 208.362C182.42 204.225 188.173 201.958 194.13 202.058C200.086 202.16 205.761 204.619 209.906 208.898C210.473 209.491 210.855 210.239 211.003 211.045C211.15 211.854 211.059 212.688 210.736 213.443C210.414 214.199 209.879 214.844 209.193 215.297C208.51 215.752 207.707 215.995 206.885 215.997ZM204.743 213.883C205.015 214.167 205.341 214.394 205.702 214.549C206.063 214.706 206.45 214.788 206.843 214.794C207.433 214.803 208.014 214.637 208.51 214.315C209.006 213.994 209.395 213.535 209.631 212.993C209.866 212.45 209.936 211.85 209.831 211.27C209.725 210.688 209.45 210.151 209.04 209.726C205.117 205.68 199.747 203.354 194.11 203.261C188.475 203.166 183.032 205.312 178.975 209.226C178.405 209.778 178.078 210.533 178.064 211.326C178.051 212.118 178.354 212.884 178.905 213.453C179.456 214.025 180.211 214.351 181.004 214.365C181.797 214.378 182.563 214.076 183.133 213.525C186.048 210.713 189.959 209.173 194.008 209.241C198.059 209.307 201.916 210.978 204.736 213.883H204.743Z" fill="black"/>
<path d="M214.914 208.23C214.352 208.23 213.795 208.118 213.277 207.898C212.76 207.679 212.29 207.358 211.899 206.954C207.244 202.142 200.866 199.377 194.172 199.265C187.477 199.154 181.012 201.706 176.199 206.362C175.803 206.744 175.336 207.045 174.824 207.249C174.312 207.45 173.765 207.55 173.214 207.54C172.663 207.531 172.12 207.415 171.615 207.195C171.109 206.976 170.652 206.66 170.269 206.263C169.887 205.867 169.585 205.399 169.383 204.887C169.181 204.377 169.081 203.829 169.09 203.279C169.1 202.727 169.217 202.185 169.436 201.68C169.655 201.174 169.972 200.716 170.368 200.334C176.783 194.138 185.394 190.742 194.312 190.89C203.228 191.039 211.722 194.72 217.927 201.126C218.497 201.719 218.88 202.465 219.028 203.274C219.177 204.082 219.086 204.916 218.764 205.673C218.443 206.429 217.907 207.076 217.224 207.529C216.538 207.984 215.735 208.229 214.914 208.23ZM212.772 206.119C213.184 206.542 213.711 206.833 214.289 206.958C214.866 207.081 215.467 207.031 216.017 206.815C216.565 206.597 217.038 206.222 217.376 205.739C217.711 205.253 217.897 204.68 217.909 204.089C217.918 203.697 217.847 203.306 217.702 202.942C217.559 202.576 217.343 202.242 217.069 201.962C214.107 198.9 210.573 196.452 206.666 194.758C202.758 193.063 198.556 192.154 194.297 192.083C190.04 192.012 185.809 192.781 181.848 194.345C177.887 195.909 174.273 198.238 171.212 201.199C170.788 201.612 170.496 202.138 170.372 202.717C170.247 203.293 170.297 203.895 170.514 204.444C170.731 204.994 171.106 205.467 171.591 205.803C172.077 206.14 172.651 206.326 173.241 206.337C174.03 206.329 174.788 206.031 175.369 205.498C180.411 200.623 187.182 197.949 194.196 198.066C201.207 198.182 207.886 201.078 212.763 206.119H212.772Z" fill="black"/>
<path d="M222.943 200.465C222.381 200.467 221.824 200.354 221.306 200.135C220.787 199.915 220.319 199.592 219.93 199.187C213.21 192.254 204.013 188.271 194.358 188.11C184.704 187.95 175.38 191.626 168.433 198.332C167.629 199.082 166.564 199.486 165.465 199.458C164.366 199.43 163.323 198.972 162.558 198.182C161.794 197.392 161.371 196.334 161.379 195.235C161.387 194.136 161.827 193.084 162.603 192.306C171.15 184.057 182.621 179.535 194.497 179.733C206.375 179.93 217.688 184.831 225.956 193.359C226.526 193.952 226.908 194.699 227.058 195.507C227.206 196.315 227.115 197.149 226.793 197.906C226.472 198.662 225.937 199.308 225.253 199.764C224.567 200.219 223.764 200.461 222.943 200.465ZM220.801 198.353C221.353 198.923 222.108 199.25 222.9 199.263C223.693 199.276 224.459 198.974 225.03 198.422C225.599 197.871 225.926 197.115 225.938 196.322C225.953 195.53 225.649 194.764 225.098 194.194C221.117 190.078 216.365 186.785 211.114 184.505C205.861 182.226 200.209 181.004 194.485 180.908C188.759 180.813 183.072 181.847 177.746 183.951C172.421 186.055 167.562 189.187 163.447 193.17C162.896 193.725 162.584 194.474 162.578 195.257C162.573 196.039 162.874 196.793 163.418 197.356C163.962 197.918 164.705 198.245 165.488 198.266C166.27 198.287 167.029 198.001 167.603 197.468C174.78 190.543 184.41 186.748 194.381 186.914C204.352 187.08 213.852 191.194 220.794 198.353H220.801Z" fill="black"/>
<path fill-rule="evenodd" clip-rule="evenodd" d="M67.3175 45.4307C73.7671 45.4303 80.0719 47.3426 85.4346 50.9254C90.7972 54.5083 94.977 59.6011 97.4453 65.5596C99.9136 71.5181 100.559 78.0746 99.3013 84.4002C98.0431 90.7258 94.9375 96.5363 90.3771 101.097C85.8166 105.657 80.006 108.763 73.6805 110.021C67.355 111.279 60.7984 110.633 54.8398 108.165C48.8813 105.697 43.7887 101.517 40.2057 96.1541C36.6229 90.7914 34.7106 84.4868 34.7109 78.0373C34.7152 69.3907 38.1519 61.0996 44.266 54.9856C50.38 48.8716 58.6712 45.4349 67.3175 45.4307Z" fill="white"/>
<path d="M65.6317 111.197C64.2974 111.136 62.9679 110.993 61.6511 110.769C61.4939 110.74 61.3541 110.651 61.2608 110.522C61.1676 110.392 61.1283 110.231 61.1513 110.073C61.1781 109.914 61.2661 109.773 61.3966 109.679C61.5269 109.586 61.689 109.547 61.8475 109.573C63.1057 109.786 64.3752 109.929 65.6495 109.999C65.8029 110.01 65.9462 110.079 66.0503 110.192C66.1543 110.304 66.2111 110.453 66.2088 110.607C66.2065 110.76 66.1454 110.907 66.038 111.017C65.9307 111.127 65.7852 111.191 65.6317 111.197ZM73.682 110.626C73.574 110.626 73.4682 110.596 73.3756 110.541C73.2831 110.485 73.2072 110.406 73.156 110.311C73.1048 110.216 73.0801 110.108 73.0848 110.001C73.0894 109.893 73.1232 109.788 73.1822 109.698C73.4714 109.234 73.6285 109.626 77.2699 108.466C77.3584 108.44 77.452 108.434 77.5432 108.449C77.6344 108.464 77.721 108.499 77.7966 108.553C77.8722 108.606 77.9346 108.675 77.9794 108.756C78.0242 108.837 78.0501 108.927 78.0553 109.019C78.0565 109.148 78.0176 109.274 77.9441 109.38C77.8705 109.485 77.7659 109.565 77.6447 109.609C76.3465 110.022 75.0258 110.362 73.6892 110.626H73.682ZM54.0292 108.413C52.7142 107.895 51.4479 107.262 50.245 106.52C50.1147 106.434 50.0228 106.301 49.9885 106.149C49.954 105.997 49.9799 105.837 50.0606 105.703C50.1413 105.569 50.2705 105.472 50.4214 105.431C50.5722 105.391 50.7328 105.41 50.8697 105.485C51.9564 106.155 53.0897 106.745 54.2612 107.252C54.3865 107.309 54.4892 107.406 54.552 107.528C54.615 107.65 54.6345 107.79 54.6075 107.925C54.5806 108.06 54.5088 108.181 54.4037 108.27C54.2986 108.358 54.1666 108.409 54.0292 108.413ZM84.7669 106.181C84.6361 106.184 84.5077 106.144 84.4017 106.067C84.2955 105.991 84.2173 105.881 84.1789 105.756C84.1405 105.631 84.1441 105.497 84.1891 105.374C84.2339 105.251 84.3178 105.146 84.4277 105.075C85.5109 104.392 86.5539 103.646 87.5515 102.843C87.6747 102.744 87.8321 102.698 87.9894 102.715C88.1466 102.732 88.2908 102.81 88.3904 102.933C88.4854 103.058 88.5288 103.214 88.5118 103.37C88.4949 103.526 88.4188 103.67 88.2994 103.772C87.2766 104.61 86.2036 105.385 85.0864 106.092C84.9916 106.154 84.8801 106.185 84.7669 106.181ZM43.7297 101.398C42.8174 100.472 41.9592 99.4945 41.1593 98.4701C41.1095 98.4094 41.0724 98.3395 41.0499 98.2641C41.0276 98.189 41.0203 98.1101 41.0285 98.0321C41.0369 97.9539 41.0606 97.8784 41.0983 97.8095C41.1361 97.7408 41.1872 97.6801 41.2486 97.6312C41.3757 97.5385 41.5333 97.498 41.6893 97.518C41.8453 97.5378 41.9878 97.6167 42.0875 97.7383C42.8851 98.7423 43.7372 99.7018 44.6401 100.612C44.6951 100.671 44.7374 100.741 44.7649 100.817C44.7922 100.893 44.804 100.974 44.7995 101.055C44.795 101.135 44.7743 101.214 44.7386 101.287C44.7029 101.359 44.6529 101.424 44.5919 101.477C44.5307 101.529 44.4595 101.569 44.3825 101.594C44.3056 101.619 44.2245 101.627 44.144 101.62C44.0635 101.613 43.9854 101.589 43.9141 101.551C43.8431 101.513 43.7803 101.461 43.7297 101.398ZM92.9065 97.5419C92.8387 96.9886 93.4973 96.7958 95.102 93.9184L95.1199 93.9005C95.2034 93.7666 95.3352 93.6699 95.4878 93.6301C95.6406 93.5903 95.8027 93.6105 95.941 93.6863C96.0777 93.7627 96.1786 93.8898 96.2221 94.0403C96.2655 94.1906 96.2478 94.3521 96.173 94.4896C95.5037 95.6421 94.7707 96.7565 93.9775 97.8275C93.905 97.9211 93.8065 97.991 93.6944 98.0289C93.5823 98.0665 93.4616 98.0705 93.3472 98.0399C93.233 98.0096 93.1302 97.946 93.0518 97.8573C92.9734 97.7688 92.9229 97.659 92.9065 97.5419ZM37.4822 91.7764C37.365 91.7785 37.2497 91.7457 37.1511 91.6821C37.0526 91.6186 36.9753 91.5272 36.9289 91.4194C36.3895 90.2047 35.9245 88.9582 35.5366 87.6869C35.4966 87.5357 35.5146 87.3751 35.5873 87.2366C35.6601 87.0981 35.782 86.9919 35.9293 86.939C36.0832 86.8942 36.2485 86.9124 36.3889 86.9894C36.5296 87.0663 36.6338 87.1959 36.679 87.3496C37.0538 88.5277 37.5001 89.7415 38.0177 90.9374C38.0579 91.0276 38.075 91.1261 38.0677 91.2244C38.0604 91.3228 38.0288 91.4179 37.9758 91.5011C37.9228 91.5841 37.8498 91.6528 37.7637 91.7009C37.6775 91.7491 37.5808 91.7749 37.4822 91.7764ZM98.1722 86.582C98.5194 85.352 98.7818 84.0996 98.9576 82.8335C98.9871 82.6802 99.0746 82.5442 99.202 82.4538C99.3295 82.3635 99.4867 82.326 99.6413 82.3491C99.7957 82.3721 99.9353 82.454 100.031 82.5776C100.126 82.7011 100.17 82.8567 100.154 83.012C99.9538 84.3236 99.6797 85.6229 99.3325 86.9033C99.3114 86.9795 99.2756 87.0508 99.2268 87.1131C99.1783 87.1754 99.1178 87.2275 99.049 87.2666C98.9801 87.3055 98.9044 87.3305 98.8259 87.3401C98.7475 87.3497 98.6679 87.3439 98.5917 87.3228C98.5155 87.3017 98.4443 87.2659 98.382 87.2171C98.3197 87.1686 98.2676 87.1081 98.2285 87.0393C98.1896 86.9704 98.1646 86.8948 98.1549 86.8162C98.1453 86.7379 98.1512 86.6582 98.1722 86.582ZM34.1443 79.5848C34.084 78.2641 34.1018 76.9409 34.1978 75.6221C34.2169 75.465 34.2928 75.3203 34.4112 75.2151C34.5295 75.1098 34.6821 75.0515 34.8404 75.0509C34.9993 75.0702 35.1448 75.1491 35.2476 75.2717C35.3504 75.3945 35.4027 75.5516 35.3938 75.7114C35.2835 76.9937 35.2715 78.2828 35.3581 79.567C35.3488 79.7203 35.2819 79.8643 35.171 79.9704C35.06 80.0764 34.9129 80.1366 34.7594 80.1389C34.6059 80.141 34.4572 80.0853 34.3431 79.9825C34.2291 79.8797 34.158 79.7378 34.1443 79.5848ZM99.7787 75.4615C99.6263 75.4633 99.4789 75.4072 99.3662 75.3046C99.2534 75.2018 99.184 75.0602 99.1718 74.9081C99.0467 73.6367 98.85 72.3732 98.5828 71.1239C98.5644 71.0477 98.5612 70.9686 98.5739 70.8912C98.5864 70.8137 98.6142 70.7396 98.6558 70.673C98.6974 70.6066 98.7518 70.5492 98.8159 70.5038C98.88 70.4587 98.9525 70.4267 99.029 70.4099C99.1867 70.3821 99.3491 70.4144 99.4842 70.5002C99.6193 70.5861 99.7173 70.7194 99.7591 70.874C100.038 72.1701 100.242 73.4814 100.368 74.801C100.375 74.8835 100.365 74.9665 100.338 75.045C100.312 75.1236 100.27 75.1959 100.215 75.2576C100.16 75.3194 100.093 75.3694 100.018 75.4044C99.9428 75.4395 99.8614 75.4588 99.7787 75.4615ZM35.7686 67.7503C36.1722 66.416 36.679 65.1149 37.2841 63.859C37.3566 63.7178 37.4803 63.6096 37.63 63.5564C37.7796 63.5034 37.9438 63.5095 38.0891 63.5734C38.2312 63.6446 38.3401 63.7679 38.3933 63.9177C38.4467 64.0673 38.4399 64.2319 38.3747 64.3766C37.8289 65.5313 37.3519 66.7175 36.9467 67.9288C36.9467 67.9336 36.9448 67.9381 36.9416 67.9414C36.9382 67.9448 36.9335 67.9466 36.9289 67.9466C36.8812 68.0784 36.7888 68.1892 36.6679 68.2597C36.5469 68.3304 36.4048 68.3563 36.2668 68.3329C36.1287 68.3095 36.0032 68.2383 35.9122 68.1319C35.8211 68.0253 35.7702 67.8904 35.7686 67.7503ZM96.4586 64.0018C95.775 64.0018 95.9731 63.2735 93.9953 60.3604C93.9495 60.2949 93.917 60.221 93.8998 60.1428C93.8829 60.0648 93.8815 59.9839 93.8959 59.9054C93.9104 59.8267 93.9402 59.7517 93.9839 59.6848C94.0275 59.6176 94.0841 59.56 94.1501 59.5152C94.2163 59.4702 94.2908 59.4388 94.3691 59.4229C94.4475 59.4068 94.5282 59.4066 94.6065 59.4222C94.6851 59.4377 94.7597 59.4688 94.8259 59.5134C94.8923 59.558 94.9491 59.6153 94.9932 59.6821C95.7291 60.7889 96.3972 61.9394 96.9941 63.1271C97.0398 63.2189 97.0614 63.3208 97.057 63.4233C97.0523 63.5257 97.022 63.6253 96.9684 63.7126C96.9149 63.8001 96.8401 63.8725 96.7508 63.9231C96.6618 63.9736 96.5611 64.0007 96.4586 64.0018ZM42.1589 57.8971C42.0447 57.8981 41.9326 57.8665 41.8357 57.8059C41.7389 57.7452 41.6616 57.6581 41.6127 57.5547C41.564 57.4514 41.5458 57.3364 41.5603 57.2231C41.5749 57.1097 41.6215 57.003 41.6948 56.9153C42.5383 55.8904 43.4443 54.9186 44.408 54.0058C44.5269 53.9006 44.6811 53.8441 44.8398 53.8473C44.9987 53.8507 45.1504 53.9135 45.2648 54.0236C45.3718 54.1429 45.428 54.2992 45.4214 54.4593C45.4146 54.6195 45.3457 54.7705 45.2291 54.8804C42.5017 57.5008 42.7426 57.8971 42.1589 57.8971ZM89.2294 54.5056C88.7528 54.5056 88.5154 53.8433 85.8379 51.9352C85.709 51.8415 85.6221 51.701 85.5953 51.5439C85.5687 51.3868 85.6044 51.2255 85.6951 51.0944C85.7936 50.9727 85.9334 50.8911 86.0878 50.8652C86.2424 50.8394 86.4011 50.8706 86.534 50.9534C87.6163 51.7256 88.6527 52.5599 89.6382 53.4524C89.7278 53.5351 89.7904 53.6429 89.8181 53.7616C89.8456 53.8803 89.8367 54.0047 89.7926 54.1182C89.7485 54.2319 89.6712 54.3298 89.5707 54.3988C89.4702 54.4679 89.3513 54.505 89.2294 54.5056ZM51.316 50.2394C51.1827 50.2409 51.0527 50.1978 50.9463 50.1173C50.8401 50.0368 50.7635 49.9233 50.7289 49.7946C50.6941 49.6659 50.7032 49.5293 50.7544 49.4064C50.8058 49.2832 50.8965 49.1807 51.0125 49.1149C52.1644 48.4571 53.3568 47.8727 54.5825 47.3656C54.6552 47.3363 54.7328 47.3217 54.8112 47.3224C54.8896 47.3231 54.967 47.3392 55.0391 47.3699C55.1113 47.4006 55.1766 47.4452 55.2316 47.5011C55.2864 47.5569 55.3297 47.6231 55.359 47.6958C55.3883 47.7684 55.4029 47.8463 55.4022 47.9246C55.4015 48.003 55.3854 48.0803 55.3547 48.1524C55.324 48.2245 55.2794 48.2898 55.2235 48.3448C55.1677 48.3996 55.1014 48.443 55.0288 48.4723C52.4334 49.5486 51.6551 50.2394 51.316 50.2394ZM79.0727 48.2224C78.7157 48.2224 78.0017 47.744 75.2154 47.0086C75.066 46.9664 74.9389 46.8677 74.8609 46.7335C74.783 46.5993 74.7602 46.4401 74.7975 46.2894C74.8348 46.1387 74.9292 46.0084 75.061 45.9261C75.1925 45.8439 75.3508 45.816 75.5027 45.8483C76.7947 46.1691 78.0642 46.5745 79.303 47.0621C79.4315 47.1157 79.5377 47.2122 79.6032 47.335C79.6689 47.458 79.6898 47.5999 79.6627 47.7365C79.6356 47.8732 79.562 47.9962 79.4546 48.0847C79.3469 48.1733 79.212 48.222 79.0727 48.2224ZM62.5972 46.366C62.446 46.3653 62.3005 46.3074 62.1899 46.2043C62.0794 46.1011 62.0117 45.9601 62.0005 45.8092C61.9892 45.6584 62.0351 45.5088 62.1292 45.3905C62.2232 45.2719 62.3585 45.1932 62.5079 45.17C63.8267 44.9792 65.1562 44.8712 66.4885 44.8469C66.6404 44.85 66.7862 44.9076 66.899 45.0094C66.9838 44.9248 67.0915 44.8668 67.2087 44.8421C67.326 44.8177 67.4479 44.8278 67.5595 44.8712C67.6711 44.9148 67.7676 44.9897 67.8374 45.0872C67.907 45.1847 67.947 45.3003 67.9522 45.4199C67.9483 45.5402 67.9101 45.6568 67.8421 45.7559C67.7741 45.8551 67.6789 45.9328 67.5682 45.9797C67.4576 46.0266 67.3357 46.0409 67.2171 46.0208C67.0984 46.0006 66.9881 45.947 66.899 45.8662C66.8458 45.9215 66.7821 45.966 66.7116 45.9965C66.6411 46.0272 66.5653 46.0436 66.4885 46.0447C65.1867 46.0839 63.8877 46.191 62.5972 46.366Z" fill="black"/>
<path d="M151.471 164.551C151.128 164.551 151.22 164.551 148.258 161.642C148.2 161.587 148.153 161.521 148.12 161.448C148.087 161.375 148.069 161.296 148.067 161.217C148.065 161.136 148.08 161.057 148.109 160.983C148.138 160.908 148.182 160.84 148.238 160.783C148.294 160.726 148.361 160.68 148.435 160.649C148.509 160.619 148.588 160.603 148.668 160.603C148.748 160.603 148.827 160.619 148.901 160.65C148.975 160.682 149.041 160.727 149.097 160.785L151.882 163.516C151.966 163.599 152.024 163.706 152.048 163.822C152.073 163.938 152.063 164.059 152.019 164.169C151.975 164.28 151.9 164.375 151.802 164.443C151.705 164.51 151.59 164.548 151.471 164.551ZM142.885 156.144C142.528 156.144 142.618 156.172 139.672 153.234C139.099 152.663 139.956 151.863 140.509 152.377L143.314 155.108C143.397 155.194 143.454 155.302 143.477 155.419C143.5 155.536 143.488 155.657 143.442 155.768C143.396 155.878 143.319 155.973 143.22 156.039C143.121 156.106 143.005 156.143 142.885 156.144ZM134.317 147.754C133.976 147.754 134.075 147.754 131.104 144.845C131.044 144.791 130.995 144.726 130.961 144.653C130.927 144.58 130.908 144.501 130.906 144.42C130.905 144.34 130.92 144.26 130.951 144.185C130.982 144.111 131.028 144.043 131.087 143.988C131.201 143.876 131.355 143.814 131.515 143.814C131.675 143.814 131.829 143.876 131.943 143.988L134.728 146.719C134.811 146.803 134.867 146.909 134.891 147.025C134.914 147.141 134.903 147.261 134.86 147.37C134.816 147.48 134.742 147.575 134.646 147.643C134.549 147.711 134.435 147.75 134.317 147.754ZM125.732 139.347C125.375 139.347 125.498 139.358 122.519 136.455C122.408 136.342 122.346 136.191 122.346 136.034C122.345 135.876 122.406 135.724 122.515 135.611C122.624 135.497 122.773 135.43 122.931 135.425C123.089 135.419 123.242 135.475 123.359 135.581L126.144 138.312C126.232 138.394 126.294 138.5 126.32 138.618C126.347 138.735 126.337 138.858 126.292 138.97C126.248 139.082 126.17 139.177 126.07 139.244C125.97 139.312 125.852 139.348 125.732 139.347ZM117.146 130.957C116.812 130.957 116.889 130.977 113.933 128.048C113.876 127.992 113.831 127.925 113.8 127.852C113.769 127.778 113.753 127.699 113.753 127.619C113.753 127.54 113.769 127.461 113.8 127.387C113.831 127.314 113.876 127.247 113.933 127.191C114.049 127.083 114.202 127.023 114.361 127.023C114.52 127.023 114.673 127.083 114.789 127.191L117.574 129.922C117.658 130.007 117.715 130.115 117.738 130.232C117.761 130.349 117.749 130.471 117.703 130.581C117.657 130.691 117.58 130.786 117.481 130.852C117.382 130.919 117.265 130.955 117.146 130.956V130.957ZM108.578 122.55C108.237 122.55 108.385 122.62 105.365 119.64C105.253 119.53 105.189 119.381 105.186 119.225C105.183 119.068 105.24 118.916 105.347 118.802C105.461 118.691 105.613 118.628 105.772 118.625C105.93 118.622 106.085 118.678 106.204 118.784L108.988 121.515C109.077 121.596 109.139 121.703 109.166 121.821C109.193 121.938 109.184 122.061 109.139 122.174C109.095 122.286 109.017 122.382 108.917 122.449C108.817 122.516 108.698 122.551 108.578 122.55ZM99.9918 114.161C99.6598 114.161 99.7669 114.161 96.7967 111.251C96.7358 111.198 96.6867 111.133 96.6525 111.06C96.6182 110.987 96.5996 110.908 96.5978 110.827C96.5959 110.746 96.6109 110.666 96.6417 110.592C96.6726 110.517 96.7187 110.45 96.777 110.394C96.894 110.286 97.0471 110.227 97.2063 110.227C97.3654 110.227 97.5185 110.286 97.6356 110.394L100.42 113.123C100.506 113.208 100.565 113.316 100.589 113.434C100.613 113.552 100.602 113.675 100.556 113.786C100.51 113.898 100.431 113.993 100.331 114.06C100.23 114.126 100.112 114.161 99.9918 114.161Z" fill="black"/>
<path fill-rule="evenodd" clip-rule="evenodd" d="M82.2324 63.1396H54.6523V95.1072H82.2324V63.1396Z" fill="white"/>
<path d="M82.2345 95.7087H54.6544C54.4952 95.7084 54.3426 95.6447 54.2303 95.532C54.1179 95.4192 54.0547 95.2664 54.0547 95.1072V63.1396C54.0547 62.9801 54.1181 62.8271 54.2309 62.7143C54.3437 62.6015 54.4967 62.5381 54.6562 62.5381H82.2345C82.3136 62.5381 82.3917 62.5536 82.4648 62.584C82.5378 62.6141 82.604 62.6584 82.6598 62.7143C82.7157 62.7701 82.76 62.8365 82.7902 62.9095C82.8205 62.9824 82.836 63.0607 82.836 63.1396V95.1072C82.836 95.1863 82.8205 95.2645 82.7902 95.3375C82.76 95.4105 82.7157 95.4767 82.6598 95.5326C82.604 95.5884 82.5378 95.6327 82.4648 95.663C82.3917 95.6932 82.3136 95.7087 82.2345 95.7087ZM55.256 94.5074H81.6329V63.7394H55.256V94.5074Z" fill="black"/>
<path fill-rule="evenodd" clip-rule="evenodd" d="M78.6878 66.9131H58.2031V83.983H78.6878V66.9131Z" fill="#81F889"/>
<path d="M78.6856 66.3115H58.1992C58.0398 66.3121 57.887 66.3756 57.7744 66.4882C57.6616 66.6009 57.598 66.7537 57.5977 66.9131V83.983C57.5989 84.1421 57.6628 84.2943 57.7753 84.4068C57.8879 84.5194 58.04 84.5831 58.1992 84.5846H78.6856C78.845 84.584 78.9977 84.5207 79.1105 84.4079C79.2231 84.2952 79.2867 84.1424 79.2872 83.983V66.9131C79.2867 66.7537 79.2231 66.6009 79.1105 66.4882C78.9977 66.3756 78.845 66.3121 78.6856 66.3115ZM78.0841 67.5146V78.2389L73.9786 72.8625C73.9234 72.7913 73.8531 72.7332 73.7728 72.6927C73.6923 72.6522 73.6038 72.6301 73.5138 72.6283C73.4236 72.6263 73.3344 72.6447 73.2523 72.6818C73.1704 72.719 73.0977 72.7739 73.0397 72.8428L67.3848 79.6098L64.2271 75.1026C64.1707 75.0223 64.0954 74.957 64.0079 74.9124C63.9205 74.8679 63.8234 74.8456 63.7252 74.8472C63.627 74.849 63.5308 74.8749 63.445 74.9225C63.3591 74.9702 63.2863 75.0382 63.2329 75.1205L58.8007 81.9517V67.5146H78.0841Z" fill="black"/>
<path fill-rule="evenodd" clip-rule="evenodd" d="M63.1773 69.6924C63.5268 69.6924 63.8685 69.7961 64.1591 69.9903C64.4497 70.1845 64.6762 70.4605 64.8099 70.7834C64.9436 71.1063 64.9785 71.4615 64.9104 71.8044C64.8422 72.1471 64.674 72.462 64.4268 72.7092C64.1798 72.9563 63.8649 73.1246 63.522 73.1928C63.1793 73.261 62.8239 73.226 62.501 73.0923C62.1781 72.9584 61.9021 72.7319 61.7079 72.4413C61.5137 72.1507 61.4102 71.809 61.4102 71.4595C61.4102 70.991 61.5963 70.5413 61.9276 70.21C62.2591 69.8786 62.7086 69.6924 63.1773 69.6924Z" fill="white"/>
<path d="M63.1773 73.835C62.7089 73.835 62.2509 73.6962 61.8614 73.4359C61.4719 73.1757 61.1683 72.8056 60.9889 72.3728C60.8096 71.9401 60.7627 71.4637 60.8541 71.0042C60.9455 70.5447 61.1711 70.1228 61.5024 69.7915C61.8337 69.4602 62.2557 69.2346 62.7153 69.1432C63.1748 69.0518 63.651 69.0987 64.0839 69.2779C64.5166 69.4573 64.8866 69.7608 65.1468 70.1504C65.4071 70.5399 65.546 70.998 65.546 71.4663C65.5451 72.0943 65.2952 72.6962 64.8512 73.1403C64.4071 73.5842 63.8052 73.8341 63.1773 73.835ZM63.1773 70.2989C62.9465 70.2989 62.7207 70.3675 62.5288 70.4957C62.3367 70.624 62.1871 70.8062 62.0988 71.0196C62.0104 71.2329 61.9874 71.4676 62.0324 71.6941C62.0774 71.9206 62.1886 72.1286 62.3519 72.2919C62.5152 72.455 62.7232 72.5663 62.9495 72.6112C63.176 72.6564 63.4108 72.6332 63.6241 72.5448C63.8374 72.4565 64.0198 72.3069 64.148 72.115C64.2763 71.9229 64.3447 71.6973 64.3447 71.4663C64.3454 71.3125 64.3157 71.16 64.2574 71.0178C64.1992 70.8753 64.1133 70.7459 64.0048 70.6368C63.8965 70.5276 63.7674 70.441 63.6255 70.3818C63.4834 70.3227 63.3311 70.292 63.1773 70.2918V70.2989Z" fill="black"/>
<path fill-rule="evenodd" clip-rule="evenodd" d="M94.1604 305.475C97.4243 309.904 99.3014 315.202 99.5543 320.698C99.8075 326.194 98.425 331.642 95.582 336.352C92.7392 341.063 88.5632 344.826 83.5825 347.162C78.6017 349.499 73.0396 350.307 67.5998 349.483C62.1598 348.66 57.0863 346.241 53.0206 342.534C48.9551 338.828 46.08 333.998 44.7591 328.657C43.438 323.316 43.7304 317.703 45.5993 312.528C47.468 307.353 50.8294 302.85 55.2581 299.585C61.199 295.21 68.6339 293.373 75.9286 294.478C83.2234 295.581 89.7811 299.539 94.1604 305.475Z" fill="white"/>
<path d="M73.522 350.352C73.408 350.349 73.2973 350.313 73.2025 350.249C73.1077 350.186 73.033 350.097 72.9864 349.992C72.9398 349.888 72.9235 349.772 72.9394 349.66C72.9551 349.547 73.0024 349.44 73.0758 349.353C73.456 348.905 74.0058 349.353 77.2705 348.639C77.4269 348.606 77.5897 348.637 77.7234 348.724C77.8573 348.81 77.9508 348.947 77.9837 349.104C78.0167 349.26 77.9862 349.422 77.8989 349.556C77.8118 349.69 77.675 349.785 77.5187 349.817C76.2004 350.086 74.8651 350.266 73.522 350.352ZM65.4895 349.692C64.1435 349.404 62.8238 349.004 61.5447 348.496C61.3992 348.437 61.2827 348.323 61.22 348.178C61.1572 348.035 61.1532 347.873 61.2089 347.725C61.2646 347.578 61.3757 347.459 61.5181 347.393C61.6605 347.327 61.8232 347.319 61.9713 347.371C65.3342 348.696 66.0465 348.237 66.0964 349.067C66.0957 349.229 66.032 349.385 65.9188 349.501C65.8057 349.619 65.652 349.686 65.4895 349.692ZM84.9817 347.068C84.8484 347.068 84.7188 347.025 84.6133 346.943C84.5078 346.861 84.4329 346.746 84.4 346.616C84.3672 346.488 84.3784 346.352 84.4321 346.229C84.4859 346.107 84.5787 346.006 84.6961 345.943C85.8166 345.34 86.8904 344.653 87.9091 343.89C88.0416 343.799 88.2033 343.762 88.3622 343.785C88.5209 343.808 88.6653 343.89 88.7659 344.015C88.8575 344.146 88.8938 344.306 88.867 344.463C88.8402 344.621 88.7527 344.762 88.6231 344.854C87.4977 345.729 86.2759 346.472 84.9817 347.068ZM54.3511 344.462C53.3087 343.639 52.3189 342.75 51.388 341.802C51.2765 341.688 51.214 341.534 51.214 341.374C51.214 341.213 51.2765 341.059 51.388 340.945C51.5071 340.84 51.6611 340.783 51.82 340.786C51.9787 340.79 52.1304 340.852 52.2448 340.963C54.7599 343.53 55.3329 343.362 55.3329 343.998C55.3286 344.11 55.2936 344.219 55.2319 344.312C55.1703 344.405 55.0841 344.48 54.9829 344.528C54.8816 344.576 54.7692 344.594 54.6578 344.583C54.5464 344.571 54.4404 344.529 54.3511 344.462ZM93.4069 338.785C93.3498 338.25 94.0228 338.014 95.6025 335.144C95.6648 335.024 95.7651 334.93 95.8877 334.876C96.0102 334.821 96.1476 334.808 96.2778 334.842C96.4079 334.874 96.523 334.951 96.6046 335.058C96.686 335.164 96.7292 335.296 96.727 335.43C96.1221 336.718 95.3737 337.934 94.4958 339.053C94.4253 339.151 94.3271 339.224 94.2141 339.266C94.1011 339.308 93.9781 339.314 93.8612 339.285C93.7445 339.257 93.6386 339.194 93.5578 339.105C93.4769 339.016 93.4244 338.905 93.4069 338.785ZM47.1023 335.447C46.6881 335.447 46.5989 335.126 46.5507 335.126C45.9465 333.941 45.4158 332.718 44.962 331.467C44.9351 331.392 44.9233 331.312 44.9271 331.233C44.9308 331.153 44.9503 331.074 44.9842 331.003C45.0183 330.931 45.0661 330.865 45.125 330.812C45.1841 330.758 45.253 330.717 45.328 330.69C45.4031 330.664 45.4826 330.651 45.5622 330.655C45.642 330.658 45.72 330.678 45.7921 330.712C45.8642 330.746 45.9288 330.794 45.9825 330.853C46.0361 330.912 46.0775 330.981 46.1044 331.056C47.1629 334.009 47.6913 334.434 47.6913 334.841C47.6915 334.998 47.6299 335.149 47.52 335.264C47.41 335.376 47.2602 335.442 47.1023 335.447ZM98.4406 328.182C98.1943 327.752 98.6834 327.094 98.9047 323.988C98.9058 323.906 98.9235 323.825 98.9569 323.75C98.9902 323.677 99.0384 323.609 99.0986 323.554C99.1589 323.499 99.2298 323.458 99.3069 323.431C99.3842 323.404 99.4659 323.393 99.5473 323.399C99.7023 323.411 99.846 323.484 99.949 323.6C100.052 323.716 100.106 323.868 100.101 324.023C100.013 325.357 99.8278 326.681 99.5473 327.986C99.5222 328.104 99.4622 328.211 99.3755 328.295C99.2885 328.379 99.1787 328.436 99.06 328.456C98.9413 328.477 98.8189 328.463 98.7086 328.415C98.5983 328.365 98.5051 328.284 98.4406 328.182ZM43.3734 323.363C43.3234 322.035 43.3593 320.705 43.4805 319.382C43.4948 319.225 43.5705 319.083 43.6909 318.981C43.8114 318.881 43.9669 318.833 44.1231 318.847C44.2795 318.861 44.4235 318.936 44.524 319.058C44.6245 319.177 44.6729 319.332 44.6586 319.49C44.5424 320.771 44.5185 322.06 44.5872 323.345C44.5897 323.506 44.5279 323.661 44.4158 323.777C44.3037 323.893 44.1502 323.959 43.9892 323.961C43.8284 323.963 43.6731 323.902 43.5576 323.79C43.4421 323.677 43.3759 323.524 43.3734 323.363ZM98.9226 316.562C98.1301 316.562 98.5174 315.782 97.2625 312.421C97.2102 312.275 97.216 312.112 97.2786 311.969C97.3414 311.827 97.4564 311.714 97.5999 311.653C97.7452 311.602 97.9046 311.605 98.0471 311.664C98.1895 311.725 98.3044 311.835 98.3692 311.975C98.3871 311.993 98.3871 311.993 98.3871 312.01C98.3871 312.028 98.4049 312.046 98.4049 312.082C98.8692 313.301 99.2393 314.554 99.5116 315.83C99.532 315.918 99.532 316.011 99.5116 316.098C99.4915 316.185 99.4515 316.269 99.3947 316.339C99.338 316.41 99.266 316.466 99.1843 316.505C99.1025 316.544 99.0131 316.564 98.9226 316.562ZM45.3547 311.6C45.8287 310.274 46.4263 308.994 47.1397 307.78C47.2017 307.68 47.2911 307.6 47.3975 307.548C47.5037 307.498 47.6224 307.478 47.7393 307.494C47.8561 307.509 47.966 307.557 48.056 307.634C48.1459 307.71 48.2122 307.81 48.2464 307.923C48.366 308.472 47.7591 308.701 46.515 311.814C46.462 311.943 46.3668 312.048 46.2453 312.112C46.1237 312.178 45.9834 312.201 45.8476 312.176C45.7117 312.15 45.5886 312.08 45.499 311.975C45.4092 311.869 45.3583 311.737 45.3547 311.6ZM52.6732 302.354C52.5528 302.355 52.4344 302.32 52.3337 302.254C52.2331 302.188 52.1547 302.093 52.1087 301.98C52.0624 301.87 52.0508 301.747 52.0751 301.629C52.0994 301.511 52.1586 301.402 52.2448 301.318C53.2152 300.403 54.2533 299.56 55.3507 298.801C55.481 298.714 55.6405 298.682 55.7943 298.712C55.9482 298.741 56.0844 298.83 56.1733 298.958C56.2622 299.087 56.2968 299.246 56.2695 299.401C56.2422 299.555 56.1551 299.692 56.0273 299.783C52.891 302.116 53.1516 302.354 52.6732 302.354ZM89.2122 300.908C88.7963 300.908 88.3054 300.153 85.7136 298.605C85.6458 298.566 85.5861 298.512 85.5387 298.45C85.4912 298.387 85.4564 298.316 85.4366 298.239C85.4166 298.162 85.4119 298.084 85.4228 298.005C85.4335 297.927 85.4596 297.852 85.4994 297.784C85.5394 297.716 85.5922 297.657 85.655 297.609C85.7179 297.561 85.7895 297.527 85.8657 297.507C85.9419 297.488 86.0213 297.482 86.0993 297.493C86.1773 297.504 86.2527 297.53 86.3205 297.57C87.4661 298.246 88.5582 299.01 89.587 299.855C89.6863 299.929 89.7593 300.033 89.7954 300.153C89.8314 300.27 89.8289 300.399 89.7879 300.515C89.747 300.633 89.6699 300.735 89.5676 300.804C89.4655 300.876 89.3436 300.911 89.2193 300.908H89.2122ZM62.8834 296.213C62.7405 296.217 62.6011 296.168 62.4907 296.077C62.3803 295.986 62.3064 295.86 62.2826 295.719C62.2587 295.578 62.2865 295.433 62.3608 295.31C62.4351 295.189 62.5509 295.096 62.6871 295.053C63.945 294.621 65.2339 294.287 66.5427 294.053C66.6202 294.039 66.6994 294.041 66.7764 294.057C66.8531 294.073 66.9259 294.105 66.9907 294.15C67.0553 294.194 67.1105 294.251 67.1532 294.317C67.1956 294.383 67.2249 294.458 67.2388 294.535C67.2529 294.612 67.2517 294.692 67.2351 294.769C67.2185 294.846 67.1869 294.919 67.1421 294.983C67.0973 295.048 67.0404 295.103 66.9743 295.146C66.9081 295.189 66.8344 295.217 66.7569 295.231C64.1187 295.729 63.2494 296.213 62.8834 296.213ZM78.5557 295.606C77.267 295.305 75.9616 295.078 74.6466 294.928C74.4881 294.908 74.3435 294.828 74.2448 294.703C74.1461 294.576 74.1011 294.417 74.12 294.259C74.1389 294.1 74.2202 293.955 74.3456 293.857C74.4713 293.759 74.6309 293.712 74.7894 293.732C76.1062 293.878 77.4121 294.112 78.6985 294.428C78.8431 294.46 78.9706 294.544 79.0563 294.666C79.1418 294.787 79.1792 294.935 79.1614 295.081C79.1437 295.23 79.0718 295.363 78.9599 295.462C78.8479 295.558 78.7039 295.61 78.5557 295.606Z" fill="black"/>
<path d="M95.1559 304.477C94.9983 304.472 94.8491 304.406 94.7391 304.292C94.6293 304.179 94.5676 304.027 94.5669 303.87C94.5669 303.547 94.4598 303.736 97.4943 300.693C97.5505 300.638 97.6173 300.593 97.6906 300.563C97.7642 300.532 97.8429 300.516 97.9223 300.516C98.0018 300.516 98.0805 300.532 98.1538 300.563C98.2274 300.593 98.294 300.638 98.3502 300.695C98.4062 300.75 98.4509 300.816 98.481 300.891C98.5114 300.964 98.5271 301.043 98.5269 301.121C98.5269 301.202 98.5112 301.28 98.4807 301.354C98.4501 301.427 98.4055 301.495 98.3493 301.55C95.4005 304.586 95.4951 304.477 95.1559 304.477ZM103.653 295.981C103.574 295.982 103.495 295.97 103.422 295.941C103.348 295.913 103.281 295.868 103.225 295.815C103.168 295.759 103.123 295.693 103.093 295.622C103.062 295.549 103.046 295.47 103.046 295.392C103.046 295.044 103.055 295.131 105.991 292.196C106.104 292.082 106.258 292.02 106.419 292.02C106.58 292.02 106.734 292.082 106.848 292.196C106.961 292.311 107.025 292.464 107.025 292.625C107.025 292.786 106.961 292.939 106.848 293.053C103.91 295.991 104.035 295.981 103.653 295.981ZM112.131 287.502C111.973 287.498 111.823 287.432 111.713 287.32C111.602 287.206 111.541 287.054 111.542 286.895C111.542 286.572 111.507 286.816 114.486 283.718C114.54 283.659 114.605 283.611 114.678 283.578C114.751 283.545 114.83 283.527 114.911 283.525C114.991 283.523 115.07 283.537 115.145 283.568C115.22 283.598 115.287 283.641 115.344 283.698C115.401 283.755 115.445 283.823 115.475 283.896C115.505 283.971 115.52 284.051 115.518 284.132C115.517 284.212 115.499 284.291 115.466 284.364C115.433 284.437 115.385 284.503 115.326 284.557C112.285 287.598 112.47 287.502 112.131 287.502ZM120.628 279.023C120.468 279.02 120.315 278.955 120.202 278.843C120.088 278.729 120.024 278.577 120.021 278.416C120.021 278.07 119.958 278.097 122.964 275.221C123.081 275.112 123.234 275.052 123.394 275.052C123.553 275.052 123.706 275.112 123.823 275.221C123.935 275.335 123.997 275.489 123.997 275.649C123.997 275.81 123.935 275.964 123.823 276.078C120.865 279.036 120.972 279.023 120.635 279.023H120.628ZM129.124 270.527C129.044 270.528 128.965 270.514 128.89 270.484C128.816 270.453 128.749 270.409 128.692 270.352C128.635 270.296 128.591 270.228 128.561 270.153C128.531 270.079 128.516 270 128.518 269.92C128.518 269.597 128.484 269.841 131.463 266.742C131.574 266.632 131.725 266.569 131.882 266.569C132.04 266.569 132.19 266.632 132.302 266.742C132.413 266.853 132.475 267.005 132.475 267.162C132.475 267.319 132.413 267.471 132.302 267.581C129.271 270.612 129.455 270.527 129.124 270.527ZM137.603 262.03C137.445 262.03 137.294 261.969 137.18 261.859C137.067 261.748 137.001 261.598 136.996 261.441C136.996 261.093 136.943 261.129 139.942 258.246C140.058 258.137 140.211 258.076 140.37 258.076C140.529 258.076 140.682 258.137 140.798 258.246C140.91 258.36 140.972 258.514 140.972 258.674C140.972 258.835 140.91 258.988 140.798 259.103C137.751 262.139 137.95 262.03 137.603 262.03Z" fill="black"/>
<path d="M84.9358 307.44H64.8242C64.492 307.44 64.2227 307.71 64.2227 308.042V333.409C64.2227 333.741 64.492 334.01 64.8242 334.01H84.9358C85.268 334.01 85.5373 333.741 85.5373 333.409V308.042C85.5373 307.71 85.268 307.44 84.9358 307.44Z" fill="black"/>
<path fill-rule="evenodd" clip-rule="evenodd" d="M81.8225 315.38L77.8081 310.987H61.7109V336.356H81.8225V315.38Z" fill="white"/>
<path d="M64.1935 318.408C64.0345 318.408 63.8818 318.345 63.7694 318.233C63.6569 318.12 63.5938 317.967 63.5938 317.808C63.5938 317.649 63.6569 317.496 63.7694 317.383C63.8818 317.271 64.0345 317.208 64.1935 317.208H71.7691C72.6098 317.187 72.5259 318.402 71.7798 318.408H64.1935Z" fill="black"/>
<path d="M63.9632 328.237C63.8097 328.228 63.6651 328.162 63.5593 328.05C63.4534 327.939 63.3945 327.791 63.3945 327.638C63.3945 327.482 63.4534 327.334 63.5593 327.224C63.6651 327.111 63.8097 327.045 63.9632 327.036H71.5459C71.6996 327.045 71.8442 327.111 71.95 327.224C72.0559 327.334 72.1148 327.482 72.1148 327.638C72.1148 327.791 72.0559 327.939 71.95 328.05C71.8442 328.162 71.6996 328.228 71.5459 328.237H63.9632Z" fill="black"/>
<path d="M63.9649 321.201C63.889 321.206 63.8128 321.195 63.7411 321.17C63.6691 321.145 63.6031 321.106 63.5469 321.056C63.4906 321.004 63.4453 320.942 63.4139 320.872C63.3823 320.805 63.3652 320.73 63.3634 320.653C63.3607 320.489 63.4208 320.33 63.5317 320.208C63.6425 320.087 63.7957 320.012 63.9596 320H75.5835C75.6593 319.994 75.7354 320.003 75.8073 320.028C75.8791 320.053 75.9453 320.092 76.0015 320.144C76.0578 320.194 76.1031 320.257 76.1347 320.326C76.1661 320.396 76.1832 320.469 76.185 320.546C76.1879 320.71 76.1277 320.871 76.0169 320.992C75.906 321.113 75.753 321.188 75.5888 321.201H63.9649Z" fill="black"/>
<path d="M63.9649 324.009C63.8892 324.014 63.813 324.005 63.7411 323.98C63.6693 323.955 63.6033 323.916 63.547 323.864C63.4906 323.814 63.4455 323.752 63.4139 323.682C63.3823 323.614 63.3652 323.539 63.3634 323.462C63.3607 323.298 63.4208 323.139 63.5317 323.018C63.6425 322.897 63.7957 322.822 63.9596 322.809H75.5835C75.6593 322.804 75.7354 322.813 75.8073 322.838C75.8791 322.863 75.9453 322.902 76.0015 322.954C76.0578 323.004 76.1031 323.066 76.1347 323.136C76.1661 323.205 76.1832 323.279 76.185 323.355C76.1877 323.52 76.1275 323.678 76.0167 323.8C75.9058 323.921 75.7529 323.996 75.5888 324.009H63.9649Z" fill="black"/>
<path d="M82.267 314.975C77.9455 310.286 78.1829 310.386 77.8045 310.386H61.7109C61.5513 310.386 61.3984 310.45 61.2856 310.563C61.1727 310.675 61.1094 310.829 61.1094 310.987V336.356C61.1094 336.515 61.1727 336.668 61.2856 336.781C61.3984 336.895 61.5513 336.957 61.7109 336.957H81.8225C81.9823 336.957 82.1354 336.895 82.2486 336.781C82.3616 336.668 82.4253 336.517 82.4258 336.356C82.4348 314.989 82.5115 315.241 82.267 314.975ZM78.4096 312.535L80.4588 314.779H78.4096V312.535ZM62.3125 335.754V311.589H77.2065V315.379C77.2065 315.537 77.2697 315.691 77.3822 315.803C77.4944 315.916 77.647 315.98 77.8063 315.98H81.2228V335.754H62.3125Z" fill="black"/>
<path fill-rule="evenodd" clip-rule="evenodd" d="M317.114 308.014C322.826 308.014 328.411 309.708 333.161 312.881C337.911 316.055 341.613 320.566 343.798 325.844C345.984 331.12 346.555 336.929 345.442 342.532C344.328 348.135 341.577 353.281 337.538 357.321C333.498 361.36 328.352 364.111 322.749 365.225C317.146 366.339 311.339 365.767 306.061 363.581C300.783 361.396 296.272 357.694 293.098 352.944C289.924 348.194 288.23 342.609 288.23 336.897C288.234 329.237 291.279 321.894 296.695 316.478C302.111 311.062 309.454 308.017 317.114 308.014Z" fill="white"/>
<path d="M320.443 366.185C320.33 366.188 320.218 366.158 320.121 366.101C320.023 366.042 319.945 365.958 319.895 365.856C319.845 365.755 319.823 365.642 319.836 365.53C319.846 365.417 319.891 365.31 319.961 365.221C320.318 364.803 320.817 365.123 324.12 364.311C324.273 364.273 324.434 364.298 324.568 364.378C324.703 364.46 324.8 364.591 324.841 364.742C324.88 364.894 324.859 365.055 324.78 365.192C324.703 365.328 324.575 365.428 324.423 365.471C323.113 365.797 321.783 366.037 320.443 366.185ZM312.374 365.988C311.025 365.781 309.695 365.471 308.394 365.06C308.317 365.042 308.244 365.008 308.183 364.958C308.121 364.908 308.071 364.846 308.037 364.775C307.983 364.669 307.96 364.55 307.974 364.43C307.987 364.312 308.033 364.202 308.11 364.109C308.187 364.018 308.287 363.95 308.401 363.916C308.515 363.882 308.637 363.882 308.751 363.916C309.966 364.298 311.207 364.591 312.465 364.792C312.612 364.819 312.742 364.9 312.833 365.017C312.922 365.135 312.967 365.283 312.956 365.431C312.944 365.58 312.88 365.719 312.772 365.821C312.664 365.924 312.523 365.983 312.374 365.988ZM331.724 362.418C331.593 362.415 331.467 362.37 331.363 362.29C331.26 362.208 331.185 362.097 331.151 361.97C331.117 361.844 331.124 361.708 331.174 361.587C331.222 361.465 331.308 361.362 331.42 361.294C332.531 360.646 333.593 359.918 334.598 359.116C334.726 359.02 334.887 358.977 335.046 358.998C335.205 359.02 335.349 359.104 335.446 359.232C335.542 359.361 335.585 359.521 335.563 359.68C335.542 359.839 335.458 359.984 335.329 360.08C334.216 360.987 333.007 361.772 331.724 362.418ZM301.272 361.651C300.008 360.955 298.833 360.11 297.773 359.134C297.712 359.084 297.662 359.023 297.625 358.954C297.587 358.884 297.566 358.807 297.559 358.731C297.552 358.652 297.561 358.572 297.586 358.499C297.611 358.424 297.65 358.354 297.702 358.295C297.811 358.177 297.957 358.106 298.116 358.093C298.275 358.079 298.434 358.125 298.558 358.224C299.515 359.066 300.529 359.841 301.593 360.544C301.702 360.614 301.786 360.716 301.832 360.837C301.879 360.958 301.886 361.09 301.85 361.215C301.814 361.34 301.739 361.449 301.636 361.528C301.534 361.606 301.409 361.649 301.279 361.651H301.272ZM339.953 353.886C339.837 353.379 340.397 353.351 342.075 350.191C342.137 350.073 342.239 349.979 342.361 349.925C342.484 349.87 342.621 349.859 342.75 349.891C342.88 349.925 342.996 350 343.076 350.105C343.159 350.213 343.203 350.343 343.201 350.477C342.616 351.774 341.884 353.003 341.024 354.136C340.956 354.232 340.859 354.306 340.751 354.347C340.64 354.389 340.518 354.397 340.404 354.37C340.29 354.343 340.185 354.282 340.104 354.197C340.024 354.111 339.972 354.002 339.953 353.886ZM292.365 352.922C291.643 351.805 290.994 350.643 290.419 349.441C290.356 349.295 290.355 349.129 290.41 348.979C290.467 348.829 290.578 348.708 290.722 348.638C290.865 348.578 291.026 348.572 291.172 348.626C291.317 348.679 291.438 348.785 291.508 348.924C292.054 350.079 292.68 351.194 293.382 352.262C293.462 352.397 293.487 352.558 293.453 352.71C293.418 352.863 293.323 352.997 293.193 353.083C293.061 353.169 292.9 353.199 292.747 353.17C292.591 353.14 292.456 353.051 292.365 352.922ZM344.861 343.212C344.579 342.814 345.104 342.173 345.325 338.981C345.342 338.828 345.417 338.687 345.534 338.589C345.652 338.489 345.804 338.439 345.957 338.448C346.111 338.457 346.255 338.524 346.361 338.637C346.466 338.749 346.523 338.899 346.521 339.053C346.421 340.384 346.238 341.707 345.968 343.015C345.941 343.133 345.882 343.24 345.795 343.322C345.707 343.406 345.599 343.462 345.481 343.483C345.361 343.505 345.24 343.489 345.129 343.44C345.02 343.392 344.926 343.314 344.861 343.212ZM287.991 341.57C287.795 340.258 287.675 338.933 287.634 337.607C287.629 337.527 287.638 337.444 287.665 337.368C287.691 337.291 287.732 337.221 287.786 337.161C287.841 337.1 287.907 337.052 287.981 337.018C288.054 336.984 288.134 336.964 288.214 336.963C288.295 336.959 288.377 336.973 288.452 337.004C288.527 337.034 288.596 337.079 288.654 337.134C288.711 337.191 288.757 337.259 288.787 337.334C288.818 337.411 288.834 337.491 288.832 337.571C288.884 338.88 289.003 340.184 289.189 341.48C289.185 341.63 289.127 341.773 289.023 341.882C288.919 341.991 288.78 342.057 288.63 342.069C288.48 342.08 288.332 342.036 288.214 341.943C288.097 341.85 288.016 341.718 287.991 341.57ZM345.397 331.591C344.565 331.591 344.974 330.751 343.773 327.45V327.432C343.744 327.365 343.731 327.291 343.737 327.218C343.74 327.079 343.79 326.945 343.881 326.84C343.972 326.734 344.097 326.663 344.235 326.64C344.372 326.617 344.513 326.642 344.635 326.711C344.754 326.783 344.847 326.892 344.895 327.022C345.354 328.271 345.711 329.555 345.966 330.86C345.982 330.945 345.981 331.035 345.961 331.12C345.94 331.206 345.902 331.284 345.848 331.354C345.793 331.424 345.725 331.481 345.649 331.52C345.57 331.561 345.484 331.584 345.397 331.59V331.591ZM288.563 329.574C288.887 328.234 289.318 326.92 289.848 325.647C289.914 325.503 290.03 325.389 290.174 325.326C290.321 325.264 290.483 325.257 290.633 325.308C290.706 325.337 290.774 325.381 290.831 325.437C290.888 325.492 290.935 325.558 290.967 325.631C290.997 325.703 291.015 325.781 291.015 325.862C291.017 325.94 291.003 326.02 290.972 326.094C290.487 327.279 290.082 328.496 289.758 329.735C289.717 329.874 289.628 329.996 289.505 330.074C289.384 330.155 289.235 330.187 289.091 330.167C288.948 330.147 288.814 330.078 288.718 329.969C288.62 329.86 288.566 329.721 288.563 329.574ZM340.595 320.685C339.988 320.685 340.083 320.037 337.668 317.472C337.614 317.415 337.571 317.349 337.545 317.276C337.516 317.201 337.504 317.124 337.507 317.046C337.511 316.967 337.53 316.89 337.564 316.819C337.598 316.749 337.645 316.685 337.704 316.633C337.82 316.528 337.971 316.471 338.127 316.474C338.284 316.478 338.432 316.54 338.543 316.651C339.458 317.613 340.304 318.639 341.077 319.721C341.141 319.812 341.179 319.918 341.188 320.028C341.197 320.139 341.175 320.25 341.125 320.348C341.075 320.448 341 320.53 340.908 320.591C340.813 320.649 340.706 320.682 340.595 320.685ZM294.507 319.525C294.394 319.523 294.283 319.491 294.187 319.43C294.092 319.368 294.016 319.282 293.967 319.179C293.919 319.077 293.9 318.963 293.914 318.85C293.926 318.738 293.971 318.631 294.042 318.543C294.876 317.502 295.776 316.519 296.738 315.598C296.854 315.489 297.009 315.43 297.168 315.435C297.327 315.441 297.477 315.509 297.586 315.625C297.695 315.741 297.753 315.896 297.748 316.055C297.743 316.214 297.675 316.364 297.559 316.473C294.926 319.002 295.106 319.525 294.507 319.525ZM331.795 312.635C331.429 312.635 330.853 311.989 328.082 310.832C327.94 310.766 327.827 310.648 327.768 310.502C327.711 310.355 327.713 310.191 327.772 310.047C327.832 309.9 327.947 309.784 328.091 309.72C328.236 309.657 328.398 309.652 328.546 309.707C329.773 310.234 330.965 310.835 332.116 311.51C332.227 311.58 332.311 311.685 332.357 311.807C332.404 311.93 332.411 312.064 332.375 312.189C332.34 312.315 332.266 312.426 332.163 312.506C332.059 312.587 331.933 312.631 331.802 312.635H331.795ZM303.697 311.921C303.564 311.923 303.433 311.88 303.326 311.798C303.221 311.715 303.144 311.601 303.112 311.471C303.08 311.341 303.091 311.203 303.146 311.082C303.201 310.959 303.294 310.859 303.414 310.796C304.585 310.163 305.802 309.62 307.055 309.172C307.168 309.134 307.287 309.129 307.401 309.159C307.516 309.188 307.619 309.25 307.698 309.338C307.778 309.425 307.83 309.532 307.849 309.648C307.869 309.766 307.853 309.886 307.805 309.993C307.557 310.489 306.912 310.28 303.967 311.849C303.885 311.898 303.792 311.923 303.697 311.921ZM315.195 308.672C315.113 308.681 315.029 308.672 314.95 308.647C314.872 308.622 314.8 308.579 314.74 308.524C314.679 308.469 314.629 308.399 314.597 308.324C314.565 308.247 314.549 308.165 314.55 308.083C314.554 307.929 314.615 307.781 314.72 307.669C314.825 307.556 314.97 307.489 315.123 307.476C316.944 307.364 318.772 307.412 320.584 307.619C320.742 307.635 320.887 307.715 320.989 307.838C321.089 307.962 321.135 308.12 321.119 308.279C320.928 309.361 320.07 308.36 315.202 308.672H315.195Z" fill="black"/>
<path d="M297.886 310.796C297.47 310.796 297.559 310.761 295.121 307.369C295.059 307.265 295.023 307.149 295.014 307.03C295.012 306.903 295.051 306.778 295.126 306.673C295.2 306.569 295.305 306.493 295.426 306.453C295.548 306.412 295.678 306.412 295.799 306.452C295.921 306.493 296.026 306.569 296.101 306.673L298.388 309.85C298.45 309.941 298.488 310.048 298.493 310.157C298.5 310.268 298.477 310.379 298.425 310.475C298.373 310.573 298.295 310.655 298.2 310.711C298.106 310.768 297.997 310.798 297.886 310.796ZM290.908 301.032C290.448 301.032 290.462 300.97 288.14 297.605C288.058 297.475 288.029 297.318 288.058 297.166C288.088 297.014 288.176 296.88 288.302 296.791C288.427 296.702 288.583 296.664 288.736 296.686C288.89 296.707 289.027 296.788 289.123 296.909L291.39 300.086C291.455 300.174 291.494 300.277 291.503 300.386C291.514 300.495 291.492 300.604 291.444 300.7C291.396 300.798 291.323 300.881 291.231 300.939C291.139 300.998 291.033 301.03 290.924 301.032H290.908ZM283.911 291.268C283.495 291.268 283.588 291.242 281.162 287.841C281.114 287.779 281.078 287.707 281.059 287.63C281.037 287.554 281.034 287.473 281.044 287.395C281.057 287.316 281.084 287.241 281.127 287.174C281.168 287.106 281.223 287.049 281.287 287.002C281.419 286.918 281.58 286.886 281.733 286.911C281.889 286.938 282.03 287.022 282.126 287.145L284.411 290.322C284.475 290.412 284.513 290.519 284.52 290.628C284.527 290.738 284.504 290.847 284.454 290.945C284.404 291.042 284.327 291.124 284.233 291.181C284.138 291.238 284.031 291.268 283.92 291.268H283.911ZM276.932 281.504C276.496 281.504 276.521 281.544 274.163 278.095C274.079 277.965 274.049 277.806 274.078 277.654C274.106 277.501 274.192 277.365 274.319 277.274C274.444 277.183 274.601 277.142 274.754 277.163C274.908 277.183 275.049 277.261 275.147 277.381L277.414 280.558C277.48 280.646 277.519 280.751 277.528 280.86C277.539 280.969 277.517 281.08 277.469 281.176C277.419 281.274 277.344 281.358 277.251 281.415C277.159 281.472 277.05 281.504 276.941 281.504H276.932ZM269.935 271.758C269.51 271.758 269.56 271.658 267.186 268.331C267.138 268.269 267.102 268.197 267.08 268.12C267.061 268.044 267.055 267.963 267.068 267.885C267.079 267.806 267.107 267.731 267.148 267.663C267.191 267.596 267.246 267.537 267.311 267.492C267.439 267.401 267.6 267.362 267.755 267.385C267.912 267.408 268.053 267.492 268.15 267.617L270.434 270.794C270.495 270.885 270.531 270.993 270.536 271.101C270.543 271.212 270.52 271.321 270.47 271.419C270.42 271.517 270.345 271.601 270.252 271.66C270.16 271.719 270.054 271.753 269.944 271.758H269.935ZM262.955 261.994C262.539 261.994 262.638 262.089 260.189 258.567C260.142 258.503 260.11 258.43 260.092 258.353C260.076 258.276 260.073 258.196 260.087 258.117C260.099 258.041 260.128 257.966 260.171 257.9C260.212 257.832 260.267 257.775 260.331 257.728C260.396 257.682 260.469 257.65 260.546 257.632C260.622 257.614 260.703 257.612 260.781 257.626C260.858 257.639 260.933 257.667 261.001 257.71C261.067 257.751 261.124 257.807 261.17 257.871L263.437 261.03C263.503 261.12 263.543 261.225 263.553 261.336C263.562 261.446 263.543 261.557 263.493 261.655C263.444 261.755 263.369 261.839 263.277 261.9C263.184 261.959 263.075 261.993 262.964 261.994H262.955ZM255.958 252.23C255.551 252.23 255.639 252.207 253.62 249.392C253.534 249.262 253.502 249.103 253.529 248.95C253.557 248.796 253.643 248.659 253.77 248.568C253.895 248.475 254.052 248.435 254.207 248.457C254.361 248.477 254.502 248.557 254.6 248.678L256.456 251.284C256.52 251.374 256.558 251.479 256.567 251.59C256.574 251.698 256.553 251.809 256.501 251.907C256.451 252.005 256.374 252.088 256.279 252.145C256.185 252.202 256.078 252.23 255.967 252.23H255.958Z" fill="black"/>
<path fill-rule="evenodd" clip-rule="evenodd" d="M333.013 325.685H301.219V348.108H333.013V325.685Z" fill="white"/>
<path d="M333.011 325.083H301.219C301.06 325.083 300.906 325.145 300.794 325.26C300.681 325.372 300.617 325.526 300.617 325.685V348.108C300.617 348.186 300.633 348.265 300.664 348.338C300.694 348.411 300.737 348.477 300.794 348.533C300.849 348.588 300.915 348.633 300.988 348.663C301.062 348.693 301.14 348.707 301.219 348.707H333.011C333.09 348.707 333.168 348.693 333.242 348.663C333.315 348.633 333.381 348.588 333.436 348.533C333.493 348.477 333.536 348.411 333.567 348.338C333.597 348.265 333.613 348.186 333.613 348.108V325.685C333.613 325.606 333.597 325.527 333.567 325.454C333.536 325.381 333.493 325.315 333.436 325.26C333.381 325.203 333.315 325.16 333.242 325.129C333.168 325.099 333.09 325.083 333.011 325.083ZM332.41 346.682L322.309 336.891L332.41 327.1V346.682ZM331.528 326.281L317.116 340.248L302.702 326.281H331.528ZM301.82 327.098L311.923 336.891L301.82 346.683V327.098ZM312.787 337.728C317.061 341.869 316.775 341.685 317.116 341.685C317.457 341.685 317.203 341.837 321.445 337.728L331.528 347.501H302.707L312.787 337.728Z" fill="black"/>
<path fill-rule="evenodd" clip-rule="evenodd" d="M312.839 33.2197C319.288 33.2197 325.593 35.1322 330.955 38.7152C336.317 42.2982 340.497 47.391 342.964 53.3493C345.433 59.3078 346.079 65.8643 344.821 72.1896C343.562 78.5152 340.456 84.3253 335.896 88.8856C331.337 93.4461 325.527 96.5517 319.201 97.8099C312.875 99.0682 306.318 98.4224 300.36 95.9542C294.402 93.4863 289.309 89.3067 285.727 83.9444C282.142 78.5819 280.23 72.2775 280.23 65.8281C280.234 57.1812 283.672 48.8895 289.786 42.7752C295.901 36.6609 304.192 33.224 312.839 33.2197Z" fill="white"/>
<path d="M311.142 98.9882C309.807 98.9293 308.479 98.7863 307.162 98.5598C307.003 98.5314 306.862 98.4411 306.771 98.309C306.678 98.1767 306.642 98.0132 306.671 97.8547C306.699 97.6962 306.79 97.5554 306.922 97.4633C307.054 97.3711 307.217 97.3354 307.376 97.3638C308.634 97.5812 309.903 97.7242 311.178 97.7922C311.256 97.7945 311.333 97.8124 311.406 97.8445C311.478 97.8768 311.542 97.9229 311.595 97.98C311.649 98.0371 311.692 98.1044 311.719 98.1778C311.747 98.2513 311.76 98.3295 311.758 98.4081C311.756 98.4866 311.738 98.5639 311.706 98.6355C311.674 98.7072 311.628 98.7718 311.571 98.8257C311.513 98.8795 311.446 98.9216 311.372 98.9494C311.299 98.9773 311.221 98.9905 311.142 98.9882ZM319.192 98.417C319.087 98.4113 318.985 98.3784 318.894 98.3217C318.805 98.2651 318.732 98.1864 318.682 98.093C318.632 97.9998 318.607 97.8954 318.609 97.7896C318.611 97.6837 318.639 97.5802 318.693 97.4888C318.989 97.0104 319.573 97.3442 322.789 96.2571C323.528 96.0072 323.903 97.1728 323.173 97.3817V97.3995C321.866 97.8145 320.538 98.1542 319.192 98.417ZM299.54 96.2036C298.226 95.6986 296.964 95.0648 295.773 94.3115C295.704 94.2731 295.643 94.2208 295.593 94.1581C295.545 94.0953 295.509 94.0232 295.489 93.9461C295.47 93.8692 295.464 93.7888 295.477 93.7101C295.489 93.6316 295.516 93.5561 295.559 93.4886C295.648 93.3551 295.784 93.2605 295.939 93.2242C296.096 93.1882 296.261 93.213 296.398 93.294C297.494 93.9473 298.626 94.5373 299.789 95.0612C299.914 95.1178 300.016 95.2154 300.077 95.3377C300.138 95.4601 300.155 95.5997 300.127 95.7334C300.097 95.8671 300.023 95.9867 299.916 96.0722C299.809 96.1579 299.677 96.2041 299.54 96.2036ZM330.277 93.9723C330.149 93.9716 330.022 93.929 329.919 93.851C329.815 93.7729 329.74 93.6637 329.704 93.5393C329.667 93.4151 329.672 93.2822 329.717 93.1609C329.763 93.0395 329.845 92.936 329.954 92.8656C331.038 92.1764 332.08 91.4255 333.078 90.6165C333.205 90.5276 333.36 90.4903 333.514 90.5125C333.665 90.5344 333.804 90.614 333.901 90.7351C333.995 90.8559 334.042 91.0089 334.029 91.1627C334.017 91.3166 333.945 91.4598 333.829 91.5626C332.799 92.3994 331.721 93.1743 330.599 93.8831C330.504 93.9475 330.392 93.9788 330.277 93.9723ZM289.294 89.2421C288.362 88.2992 287.485 87.3039 286.668 86.2611C286.57 86.1374 286.523 85.98 286.541 85.8229C286.557 85.6658 286.636 85.5218 286.759 85.4222C286.889 85.3288 287.05 85.2879 287.209 85.3079C287.368 85.3278 287.512 85.4068 287.616 85.5293C289.81 88.3175 290.329 88.2925 290.329 88.8137C290.329 88.9335 290.293 89.0506 290.227 89.1502C290.159 89.2496 290.065 89.3272 289.954 89.3729C289.843 89.4188 289.722 89.4308 289.604 89.4076C289.486 89.3842 289.379 89.3267 289.294 89.2421ZM338.417 85.3508C338.358 84.8153 338.929 84.7064 340.63 81.6915C340.698 81.5784 340.802 81.4904 340.923 81.4409C341.044 81.3915 341.18 81.3833 341.307 81.4177C341.435 81.452 341.548 81.527 341.628 81.6312C341.708 81.7354 341.753 81.8631 341.755 81.995C341.134 83.2777 340.379 84.492 339.506 85.6185C339.433 85.7113 339.334 85.7811 339.222 85.8197C339.111 85.8581 338.99 85.8634 338.876 85.8352C338.76 85.807 338.656 85.7463 338.576 85.6605C338.494 85.5744 338.438 85.467 338.417 85.3508ZM282.439 79.2086C281.898 77.9978 281.44 76.7521 281.065 75.4797C281.042 75.4048 281.033 75.326 281.04 75.2477C281.045 75.1695 281.068 75.0933 281.104 75.0237C281.142 74.9539 281.19 74.8921 281.25 74.8418C281.311 74.7914 281.381 74.7534 281.456 74.73C281.609 74.6872 281.773 74.7061 281.914 74.7829C282.054 74.8594 282.159 74.988 282.205 75.1406C282.575 76.3637 283.023 77.5619 283.544 78.7284C283.608 78.875 283.61 79.0408 283.553 79.1893C283.494 79.338 283.378 79.4572 283.232 79.521C283.085 79.5847 282.919 79.5876 282.771 79.529C282.623 79.4703 282.504 79.3551 282.439 79.2086ZM343.736 74.8193C343.492 74.3338 344.02 73.8661 344.486 70.6245C344.509 70.4751 344.588 70.3398 344.707 70.2458C344.825 70.1517 344.975 70.1058 345.125 70.1171C345.277 70.1283 345.418 70.196 345.521 70.3064C345.623 70.4171 345.682 70.5626 345.682 70.7138C345.487 72.0572 345.207 73.3866 344.843 74.6943C344.813 74.8105 344.746 74.9148 344.655 74.9933C344.564 75.0719 344.452 75.1209 344.332 75.1345C344.213 75.1481 344.091 75.125 343.986 75.0688C343.879 75.0126 343.793 74.9257 343.736 74.8193ZM279.68 67.3758C279.623 66.0551 279.635 64.7324 279.717 63.4131C279.733 63.255 279.808 63.1086 279.928 63.0028C280.047 62.8971 280.201 62.8398 280.36 62.8419C280.44 62.8484 280.517 62.8707 280.588 62.9076C280.66 62.9444 280.724 62.9949 280.774 63.0565C280.826 63.1179 280.865 63.1889 280.888 63.2655C280.913 63.3421 280.92 63.4226 280.913 63.5024C280.835 64.7862 280.822 66.073 280.876 67.358C280.877 67.5167 280.817 67.6696 280.708 67.7833C280.597 67.8972 280.445 67.9626 280.287 67.9649C280.128 67.9672 279.974 67.9065 279.862 67.796C279.748 67.6855 279.681 67.5345 279.68 67.3758ZM345.298 63.2525C345.148 63.2498 345.005 63.1914 344.896 63.0888C344.788 62.9862 344.722 62.8466 344.709 62.6973C344.577 61.3897 344.37 60.0909 344.084 58.8078C344.082 58.659 344.138 58.5151 344.236 58.4033C344.334 58.2918 344.47 58.2204 344.618 58.2027C344.766 58.185 344.914 58.2224 345.036 58.3077C345.159 58.393 345.245 58.5203 345.278 58.665C345.564 59.9608 345.773 61.272 345.905 62.592C345.912 62.6709 345.903 62.7505 345.88 62.826C345.855 62.9017 345.816 62.9715 345.764 63.0315C345.712 63.0915 345.65 63.1404 345.578 63.1754C345.507 63.2102 345.428 63.2303 345.35 63.2346C345.341 63.2414 345.332 63.2466 345.321 63.2496C345.311 63.2527 345.3 63.2537 345.289 63.2525H345.298ZM281.306 55.5234C281.699 54.1909 282.207 52.8948 282.823 51.65C282.873 51.5434 282.952 51.454 283.052 51.3931C283.153 51.3322 283.269 51.3028 283.385 51.3085C283.503 51.3142 283.616 51.3549 283.71 51.4254C283.803 51.4958 283.874 51.5927 283.912 51.7035C284.121 52.173 283.587 52.3533 282.466 55.7198C282.427 55.8613 282.336 55.9834 282.211 56.0621C282.088 56.141 281.938 56.171 281.793 56.1468C281.649 56.1223 281.518 56.0452 281.425 55.9302C281.334 55.8151 281.288 55.6703 281.297 55.5234H281.306ZM341.978 51.7928C341.284 51.7928 341.526 51.0948 339.515 48.1514C339.434 48.0164 339.409 47.8561 339.445 47.7032C339.479 47.5502 339.572 47.4165 339.702 47.3296C339.832 47.2426 339.991 47.2089 340.145 47.2357C340.3 47.2624 340.439 47.3474 340.532 47.4731C341.262 48.5801 341.924 49.7306 342.513 50.9181C342.562 51.0099 342.585 51.1123 342.581 51.2157C342.578 51.319 342.547 51.4197 342.494 51.5079C342.438 51.5959 342.364 51.6685 342.272 51.7185C342.181 51.7685 342.081 51.794 341.978 51.7928ZM287.089 45.099C287.089 44.8116 287.214 44.7867 287.214 44.7063C287.823 44.0691 288.224 43.4354 289.927 41.7968C290.013 41.7154 290.122 41.6613 290.238 41.6409C290.356 41.6208 290.475 41.6354 290.584 41.6829C290.693 41.7306 290.784 41.8091 290.848 41.9087C290.913 42.0083 290.947 42.1245 290.945 42.243C290.945 42.7785 290.42 42.75 288.142 45.4739C288.064 45.5697 287.959 45.6392 287.841 45.6726C287.721 45.7059 287.594 45.7016 287.478 45.6604C287.362 45.6192 287.261 45.5428 287.191 45.4419C287.12 45.3411 287.08 45.2208 287.08 45.0972L287.089 45.099ZM334.749 42.2966C334.315 42.2966 333.972 41.5719 331.373 39.7262C331.243 39.6337 331.156 39.4932 331.129 39.3356C331.102 39.1782 331.139 39.0165 331.232 38.8863C331.323 38.7562 331.464 38.6681 331.621 38.6415C331.78 38.6148 331.941 38.6519 332.071 38.7444C333.153 39.5104 334.185 40.345 335.159 41.2434C335.25 41.3266 335.313 41.4353 335.34 41.5551C335.366 41.6749 335.357 41.8002 335.313 41.9142C335.266 42.0285 335.188 42.1261 335.086 42.1943C334.983 42.2627 334.863 42.2982 334.74 42.2966H334.749ZM296.835 38.0304C296.703 38.0303 296.575 37.9866 296.469 37.906C296.364 37.8253 296.287 37.7123 296.253 37.5843C296.219 37.4563 296.227 37.3205 296.278 37.1979C296.328 37.0753 296.418 36.9726 296.532 36.9059C297.683 36.2483 298.876 35.664 300.102 35.1566C300.248 35.1 300.412 35.1015 300.559 35.1609C300.703 35.2202 300.821 35.333 300.887 35.4761C300.948 35.6232 300.948 35.7883 300.889 35.9356C300.828 36.083 300.712 36.2007 300.566 36.2633C297.976 37.3361 297.16 38.0304 296.826 38.0304H296.835ZM324.608 36.0134C324.29 36.0134 323.305 35.4404 320.735 34.7996C320.583 34.7568 320.456 34.6565 320.378 34.5203C320.299 34.384 320.278 34.2226 320.319 34.0708C320.358 33.9189 320.456 33.7887 320.59 33.708C320.724 33.6273 320.886 33.6027 321.038 33.6393C322.323 33.965 323.587 34.3704 324.822 34.8531C324.953 34.905 325.06 35.0004 325.128 35.1231C325.194 35.2458 325.217 35.3881 325.19 35.5254C325.163 35.6628 325.09 35.7866 324.983 35.8757C324.874 35.9647 324.738 36.0134 324.599 36.0134H324.608ZM308.117 34.157C307.965 34.1562 307.82 34.0985 307.71 33.9953C307.599 33.8921 307.531 33.7511 307.52 33.6002C307.508 33.4494 307.554 33.2998 307.649 33.1814C307.743 33.0629 307.877 32.9843 308.027 32.961C309.339 32.7691 310.664 32.6618 311.99 32.6397C312.149 32.6349 312.302 32.6919 312.418 32.7986C312.502 32.7108 312.609 32.6498 312.727 32.6233C312.845 32.5967 312.968 32.6059 313.082 32.6495C313.195 32.6932 313.291 32.7695 313.361 32.8686C313.43 32.9677 313.47 33.0852 313.472 33.2062C313.473 33.3272 313.441 33.4462 313.375 33.5481C313.311 33.65 313.216 33.7302 313.106 33.7785C312.995 33.8269 312.872 33.8411 312.752 33.8195C312.633 33.7979 312.524 33.7414 312.436 33.6572C312.329 33.7686 312.181 33.8327 312.026 33.8357C310.715 33.8762 309.407 33.9834 308.108 34.157H308.117Z" fill="black"/>
<path d="M257.546 162.784C257.435 162.785 257.326 162.756 257.232 162.699C257.137 162.643 257.058 162.561 257.007 162.463C256.955 162.366 256.932 162.256 256.939 162.145C256.946 162.035 256.983 161.929 257.046 161.838L259.331 158.661C259.423 158.53 259.563 158.442 259.72 158.415C259.879 158.389 260.039 158.425 260.17 158.518C260.3 158.61 260.387 158.75 260.414 158.908C260.441 159.065 260.405 159.227 260.312 159.357C257.771 162.705 257.949 162.784 257.546 162.784ZM264.525 153.02C264.416 153.019 264.309 152.988 264.214 152.931C264.122 152.873 264.047 152.791 263.997 152.693C263.947 152.596 263.925 152.486 263.932 152.377C263.941 152.268 263.979 152.163 264.043 152.074L266.31 148.897C266.408 148.774 266.547 148.692 266.703 148.666C266.856 148.64 267.015 148.671 267.149 148.754C267.277 148.847 267.365 148.987 267.392 149.144C267.419 149.301 267.383 149.462 267.292 149.593C264.823 153.041 264.95 153.02 264.518 153.02H264.525ZM271.522 143.274C271.412 143.271 271.303 143.239 271.21 143.18C271.115 143.121 271.038 143.038 270.987 142.94C270.937 142.841 270.912 142.731 270.919 142.62C270.924 142.509 270.96 142.402 271.022 142.31L273.307 139.133C273.402 139.002 273.545 138.915 273.703 138.89C273.862 138.865 274.025 138.904 274.155 138.999C274.285 139.093 274.373 139.236 274.398 139.395C274.423 139.554 274.384 139.716 274.289 139.847C271.883 143.301 271.904 143.272 271.515 143.272L271.522 143.274ZM277.913 133.01C277.868 132.635 277.848 132.757 280.287 129.387C280.362 129.282 280.467 129.204 280.588 129.164C280.71 129.124 280.842 129.124 280.963 129.164C281.084 129.204 281.19 129.281 281.265 129.386C281.338 129.49 281.377 129.615 281.375 129.744C281.375 130.015 281.497 129.897 279.001 133.26C278.932 133.358 278.835 133.433 278.723 133.476C278.61 133.519 278.487 133.527 278.369 133.501C278.253 133.474 278.146 133.413 278.064 133.326C277.98 133.238 277.925 133.129 277.905 133.01H277.913ZM285.499 123.746C285.388 123.747 285.279 123.718 285.185 123.661C285.09 123.605 285.011 123.523 284.96 123.425C284.908 123.328 284.885 123.218 284.892 123.107C284.899 122.997 284.936 122.891 284.999 122.8L287.284 119.623C287.33 119.558 287.387 119.503 287.453 119.461C287.521 119.418 287.596 119.39 287.673 119.377C287.751 119.363 287.832 119.366 287.908 119.383C287.985 119.401 288.058 119.434 288.123 119.48C288.189 119.525 288.242 119.583 288.285 119.651C288.326 119.718 288.355 119.794 288.365 119.872C288.378 119.951 288.373 120.031 288.353 120.108C288.333 120.184 288.298 120.256 288.248 120.319C285.809 123.726 285.904 123.746 285.492 123.746H285.499ZM291.889 113.482C291.846 113.113 291.86 113.177 294.261 109.859C294.335 109.756 294.44 109.679 294.559 109.639C294.679 109.598 294.809 109.597 294.929 109.634C295.05 109.672 295.156 109.747 295.232 109.848C295.307 109.949 295.35 110.071 295.352 110.198C295.352 110.489 295.463 110.376 292.978 113.732C292.91 113.832 292.812 113.908 292.699 113.952C292.587 113.996 292.464 114.005 292.346 113.979C292.226 113.952 292.119 113.89 292.037 113.802C291.955 113.713 291.902 113.602 291.882 113.482H291.889ZM299.475 104.218C299.365 104.219 299.256 104.19 299.161 104.133C299.067 104.077 298.988 103.995 298.936 103.897C298.884 103.8 298.861 103.69 298.868 103.579C298.876 103.469 298.913 103.363 298.976 103.272L301.26 100.095C301.357 99.971 301.498 99.8878 301.653 99.8616C301.807 99.8351 301.967 99.8673 302.099 99.9519C302.164 99.9976 302.219 100.056 302.26 100.124C302.301 100.191 302.33 100.266 302.34 100.345C302.353 100.423 302.347 100.503 302.328 100.58C302.308 100.656 302.272 100.728 302.224 100.791C299.807 104.166 299.884 104.218 299.468 104.218H299.475Z" fill="black"/>
<path fill-rule="evenodd" clip-rule="evenodd" d="M310.458 49.6437C305.303 50.4987 300.805 54.39 301.637 60.9624C302.224 65.5909 305.468 67.79 309.468 69.2483C313.286 70.6389 316.429 71.0583 316.345 73.8554C316.203 78.3179 307.768 78.2144 307.731 73.3021C307.727 72.8747 307.64 72.4522 307.474 72.0586C307.308 71.6651 307.065 71.3081 306.762 71.0082C306.456 70.7083 306.096 70.4712 305.7 70.3106C305.303 70.1499 304.88 70.0689 304.454 70.0721C304.025 70.0753 303.602 70.1626 303.21 70.329C302.815 70.4955 302.458 70.7379 302.158 71.0423C301.858 71.3466 301.623 71.7072 301.462 72.1031C301.301 72.4992 301.219 72.9229 301.223 73.3503C301.207 75.8903 302.147 78.3433 303.859 80.22C305.571 82.0966 307.927 83.2588 310.458 83.4748V84.4405C310.478 85.2127 310.798 85.9467 311.351 86.4861C311.903 87.0255 312.645 87.3274 313.418 87.3274C314.189 87.3274 314.932 87.0255 315.483 86.4861C316.037 85.9467 316.356 85.2127 316.376 84.4405V82.8929C318.245 82.2847 319.874 81.1052 321.036 79.521C322.198 77.9366 322.834 76.0274 322.853 74.0625C323.221 62.5956 308.695 64.8715 308.095 60.1395C307.438 54.9469 316.729 54.5774 316.404 59.1131C316.342 59.974 316.626 60.8242 317.19 61.4766C317.756 62.129 318.557 62.5303 319.417 62.5921C320.278 62.6538 321.129 62.3711 321.781 61.8061C322.434 61.241 322.834 60.4399 322.896 59.579C323.134 57.4689 322.607 55.3437 321.409 53.5896C320.213 51.8355 318.427 50.569 316.376 50.0203V48.6191C316.385 48.2244 316.317 47.8319 316.172 47.4644C316.028 47.097 315.812 46.7622 315.535 46.4796C315.26 46.197 314.93 45.9725 314.566 45.8191C314.203 45.6658 313.812 45.5869 313.418 45.5869C313.022 45.5869 312.631 45.6658 312.268 45.8191C311.904 45.9725 311.574 46.197 311.299 46.4796C311.023 46.7622 310.807 47.097 310.662 47.4644C310.517 47.8319 310.45 48.2244 310.458 48.6191V49.6437Z" fill="#81F889"/>
<path d="M313.415 88.0015C312.472 87.9986 311.567 87.6227 310.901 86.9558C310.234 86.289 309.859 85.3854 309.855 84.4422V83.9888C307.281 83.6539 304.92 82.3866 303.217 80.4268C301.514 78.4673 300.589 75.9513 300.618 73.3556C300.611 72.3329 301.009 71.3492 301.726 70.6206C302.444 69.8921 303.422 69.4784 304.445 69.4705C305.466 69.4627 306.451 69.8614 307.18 70.579C307.908 71.2966 308.322 72.274 308.329 73.2967C308.361 77.4682 315.63 77.4628 315.74 73.8322C315.815 71.5706 313.356 71.3046 309.259 69.8088C305.787 68.545 301.717 66.4048 301.037 61.0337C300.172 54.1936 304.766 50.1845 309.855 49.142V48.6208C309.855 47.6769 310.23 46.7716 310.898 46.104C311.565 45.4366 312.47 45.0615 313.415 45.0615C314.359 45.0615 315.264 45.4366 315.931 46.104C316.599 46.7716 316.974 47.6769 316.974 48.6208V49.5883C319.057 50.2432 320.847 51.603 322.038 53.4342C323.227 55.2657 323.741 57.4541 323.493 59.6236C323.409 60.6392 322.93 61.5817 322.159 62.2491C321.39 62.9163 320.388 63.2553 319.371 63.1936C318.352 63.12 317.402 62.6443 316.733 61.871C316.063 61.0978 315.728 60.0903 315.801 59.0702C315.937 57.1745 314.127 56.482 312.263 56.5837C310.13 56.7104 308.416 57.9082 308.693 60.0645C309.205 64.1378 323.837 62.2404 323.457 74.0803C323.43 76.0911 322.798 78.0471 321.643 79.6928C320.487 81.3386 318.862 82.5976 316.979 83.3051V84.4386C316.977 85.3833 316.601 86.2888 315.933 86.9565C315.266 87.6243 314.359 88.0001 313.415 88.0015ZM304.473 70.6709H304.454C303.751 70.6775 303.078 70.9631 302.583 71.4651C302.09 71.9672 301.816 72.6444 301.821 73.3484C301.81 75.7423 302.701 78.0524 304.316 79.8192C305.932 81.5862 308.152 82.6802 310.537 82.8839C310.682 82.9033 310.814 82.9744 310.908 83.0836C311.005 83.1929 311.057 83.3332 311.057 83.4783V84.444C311.048 84.759 311.103 85.0725 311.217 85.3661C311.331 85.6596 311.505 85.9273 311.724 86.1531C311.944 86.3789 312.206 86.5585 312.497 86.6811C312.786 86.8037 313.099 86.8669 313.415 86.8669C313.729 86.8669 314.041 86.8037 314.33 86.6811C314.621 86.5585 314.884 86.3789 315.103 86.1531C315.324 85.9273 315.496 85.6596 315.61 85.3661C315.724 85.0725 315.78 84.759 315.771 84.444V82.8964C315.771 82.7723 315.81 82.6513 315.881 82.5499C315.953 82.4485 316.055 82.372 316.171 82.3305C317.927 81.7661 319.46 80.6612 320.553 79.1736C321.643 77.6858 322.238 75.8915 322.248 74.0464C322.438 68.2148 318.802 66.1567 313.323 64.3342C310.268 63.3167 307.79 62.6206 307.488 60.2287C306.724 54.1918 317.386 53.7206 316.992 59.172C316.952 59.8677 317.188 60.5509 317.649 61.074C318.109 61.5972 318.757 61.9184 319.451 61.9683C320.148 62.0181 320.833 61.7929 321.363 61.3407C321.893 60.8888 322.225 60.2463 322.286 59.5522C322.509 57.5778 322.016 55.5887 320.897 53.9473C319.778 52.3058 318.105 51.1212 316.185 50.6093C316.063 50.5707 315.956 50.4942 315.88 50.3908C315.805 50.2875 315.764 50.1627 315.764 50.0345V48.6351C315.772 48.32 315.717 48.0066 315.603 47.713C315.489 47.4195 315.317 47.1519 315.096 46.926C314.876 46.7002 314.614 46.5206 314.323 46.398C314.034 46.2755 313.722 46.2123 313.407 46.2123C313.091 46.2123 312.779 46.2755 312.49 46.398C312.199 46.5206 311.937 46.7002 311.717 46.926C311.497 47.1519 311.324 47.4195 311.21 47.713C311.096 48.0066 311.04 48.32 311.049 48.6351V49.6543C311.049 49.7969 310.999 49.9351 310.907 50.044C310.816 50.1529 310.687 50.2255 310.546 50.2487C305.832 51.0306 301.428 54.6256 302.223 60.8963C303.472 70.8191 317.133 67.7667 316.936 73.8857C316.767 79.1479 307.163 78.9783 307.119 73.3163C307.117 72.6153 306.839 71.9434 306.342 71.4478C305.846 70.9521 305.175 70.6729 304.473 70.6709Z" fill="black"/>
<path fill-rule="evenodd" clip-rule="evenodd" d="M194.222 55.5273C199.646 55.5273 204.948 57.1358 209.458 60.1492C213.967 63.1627 217.484 67.446 219.558 72.4572C221.634 77.4684 222.178 82.9826 221.12 88.3024C220.061 93.6223 217.45 98.5089 213.614 102.344C209.778 106.18 204.892 108.792 199.571 109.85C194.252 110.908 188.738 110.365 183.727 108.289C178.715 106.213 174.432 102.698 171.419 98.1885C168.405 93.6785 166.797 88.3762 166.797 82.9521C166.8 75.6796 169.691 68.706 174.833 63.5636C179.976 58.4212 186.949 55.5307 194.222 55.5273Z" fill="white"/>
<path d="M196.561 110.876C196.449 110.875 196.338 110.841 196.243 110.78C196.147 110.719 196.072 110.632 196.024 110.53C195.976 110.428 195.956 110.314 195.97 110.202C195.983 110.09 196.027 109.983 196.097 109.895C196.468 109.456 196.975 109.868 200.274 109.091C200.361 109.071 200.452 109.071 200.54 109.09C200.629 109.108 200.711 109.146 200.783 109.201C200.854 109.256 200.913 109.325 200.954 109.405C200.997 109.485 201.02 109.573 201.024 109.663C201.025 109.799 200.981 109.932 200.895 110.039C200.811 110.147 200.693 110.222 200.56 110.252C199.246 110.566 197.909 110.775 196.561 110.876ZM188.511 110.377C187.162 110.114 185.836 109.744 184.546 109.27C184.398 109.211 184.278 109.096 184.214 108.949C184.149 108.803 184.145 108.637 184.201 108.488C184.257 108.338 184.37 108.217 184.515 108.149C184.66 108.082 184.826 108.074 184.976 108.128C188.314 109.391 189.118 108.947 189.118 109.788C189.113 109.945 189.047 110.095 188.934 110.205C188.82 110.315 188.669 110.377 188.511 110.377ZM207.914 107.306C207.782 107.305 207.655 107.26 207.55 107.18C207.446 107.099 207.371 106.986 207.337 106.859C207.301 106.732 207.31 106.597 207.36 106.474C207.409 106.352 207.498 106.25 207.61 106.182C208.715 105.571 209.767 104.866 210.752 104.076C210.88 103.974 211.041 103.926 211.203 103.939C211.366 103.952 211.518 104.027 211.627 104.147C211.723 104.273 211.764 104.432 211.744 104.588C211.725 104.745 211.644 104.888 211.519 104.986C210.475 105.815 209.37 106.566 208.217 107.235C208.126 107.284 208.024 107.309 207.921 107.306H207.914ZM177.319 105.307C176.259 104.504 175.257 103.627 174.32 102.683C174.206 102.57 174.142 102.416 174.142 102.256C174.142 102.095 174.206 101.941 174.319 101.827C174.432 101.714 174.586 101.65 174.747 101.65C174.907 101.65 175.061 101.713 175.175 101.827C176.069 102.736 177.031 103.577 178.051 104.343C178.178 104.44 178.263 104.584 178.284 104.743C178.306 104.902 178.264 105.063 178.167 105.191C178.07 105.319 177.926 105.403 177.767 105.425C177.608 105.447 177.447 105.404 177.319 105.307ZM216.196 98.3101C216.928 97.2701 217.585 96.1784 218.16 95.0435C218.238 94.9048 218.367 94.8006 218.518 94.7511C218.67 94.7017 218.834 94.7104 218.981 94.7758C219.116 94.8525 219.22 94.9771 219.27 95.1256C219.32 95.274 219.313 95.4355 219.25 95.579C218.643 96.7694 217.951 97.9149 217.18 99.0062C217.133 99.0708 217.076 99.1258 217.008 99.1679C216.942 99.2101 216.867 99.2386 216.789 99.252C216.712 99.2654 216.632 99.2633 216.555 99.2458C216.478 99.2283 216.405 99.1956 216.339 99.1499C216.275 99.1042 216.221 99.0462 216.178 98.9793C216.135 98.9123 216.107 98.8377 216.094 98.7597C216.08 98.6817 216.084 98.6019 216.1 98.5248C216.118 98.4477 216.15 98.3747 216.196 98.3101ZM169.429 96.0431C168.81 94.8616 168.274 93.6389 167.823 92.3839C167.771 92.2323 167.781 92.0665 167.851 91.9226C167.922 91.7788 168.046 91.6686 168.197 91.6163C168.349 91.5688 168.513 91.5812 168.656 91.651C168.799 91.7206 168.909 91.8425 168.965 91.9912C169.972 94.7972 170.572 95.3434 170.572 95.7575C170.567 95.8905 170.52 96.0185 170.436 96.1222C170.352 96.2257 170.237 96.2991 170.108 96.3314C169.979 96.3637 169.843 96.353 169.72 96.3011C169.598 96.2489 169.496 96.1584 169.429 96.0431ZM220.748 88.0106C220.402 87.4537 220.991 86.9718 221.033 83.7802C221.035 83.7016 221.051 83.6242 221.082 83.5521C221.114 83.4799 221.158 83.4146 221.216 83.36C221.271 83.3054 221.339 83.2622 221.41 83.2333C221.483 83.2043 221.562 83.1901 221.64 83.1911C221.719 83.1924 221.796 83.209 221.869 83.24C221.94 83.2713 222.006 83.3163 222.06 83.3727C222.115 83.4289 222.158 83.4955 222.187 83.5685C222.217 83.6415 222.231 83.7195 222.229 83.798C222.192 85.1257 222.063 86.4491 221.844 87.7589C221.824 87.8776 221.769 87.9878 221.687 88.0752C221.605 88.1627 221.498 88.2239 221.38 88.2509C221.262 88.2777 221.141 88.2693 221.028 88.2266C220.916 88.1838 220.817 88.1086 220.748 88.0106ZM166.216 84.2978C166.168 82.9701 166.203 81.6407 166.321 80.3173C166.332 80.1991 166.377 80.0868 166.452 79.9947C166.526 79.9026 166.627 79.835 166.74 79.8003C166.854 79.7659 166.975 79.7661 167.088 79.8009C167.202 79.8357 167.302 79.9037 167.376 79.996C167.669 80.3387 167.394 80.5011 167.394 82.9412C167.394 83.4981 167.43 84.28 167.43 84.28C167.432 84.441 167.371 84.5963 167.258 84.7118C167.146 84.8273 166.993 84.8935 166.832 84.8958C166.671 84.8981 166.516 84.8365 166.4 84.7244C166.285 84.6122 166.218 84.4588 166.216 84.2978ZM220.693 76.3724C219.895 76.3724 220.298 75.6745 218.856 72.3205C218.824 72.2491 218.806 72.172 218.804 72.0936C218.802 72.0154 218.815 71.9374 218.843 71.8642C218.872 71.7912 218.913 71.7245 218.968 71.6679C219.022 71.6115 219.088 71.5663 219.159 71.5351C219.307 71.4772 219.472 71.4763 219.62 71.5324C219.768 71.5884 219.889 71.6975 219.962 71.8385C220.482 73.063 220.917 74.3215 221.266 75.6049C221.291 75.6939 221.296 75.7877 221.278 75.8789C221.262 75.9699 221.224 76.0559 221.169 76.13C221.114 76.2043 221.041 76.2648 220.958 76.3067C220.876 76.3489 220.785 76.3714 220.693 76.3724ZM168.84 73.1416C168.763 73.1418 168.686 73.1268 168.614 73.0973C168.543 73.0677 168.478 73.0243 168.423 72.9697C168.368 72.9149 168.325 72.8499 168.295 72.7783C168.266 72.7067 168.251 72.63 168.251 72.5525C168.725 71.2245 169.338 69.9502 170.079 68.7505C170.159 68.6132 170.291 68.5136 170.445 68.4733C170.599 68.4331 170.763 68.4558 170.9 68.5363C171.037 68.6168 171.137 68.7485 171.177 68.9026C171.217 69.0564 171.195 69.2201 171.114 69.3574C169.286 72.3615 169.593 73.1416 168.84 73.1416ZM215.143 65.8409C214.54 65.8409 214.518 65.0698 212.019 62.8957C211.901 62.7891 211.83 62.6401 211.821 62.481C211.812 62.322 211.867 62.1661 211.975 62.0478C212.082 61.9295 212.23 61.8582 212.389 61.8498C212.548 61.8416 212.705 61.8966 212.822 62.0032C213.813 62.8864 214.743 63.8344 215.607 64.8413C215.68 64.9302 215.727 65.038 215.743 65.1525C215.757 65.2669 215.739 65.3831 215.691 65.4877C215.641 65.5921 215.564 65.6808 215.468 65.7435C215.371 65.8059 215.259 65.8399 215.143 65.8409ZM175.659 63.3776C175.578 63.3776 175.497 63.3614 175.422 63.3298C175.347 63.2982 175.28 63.252 175.223 63.1936C175.166 63.1354 175.122 63.0663 175.093 62.9906C175.063 62.915 175.049 62.8341 175.052 62.7529C175.052 62.5298 175.157 62.4387 175.302 62.2888C176.263 61.4061 177.283 60.5891 178.354 59.8433C178.487 59.751 178.65 59.7152 178.809 59.7435C178.969 59.7721 179.11 59.8626 179.202 59.9951C179.294 60.1277 179.33 60.2914 179.302 60.4504C179.273 60.6094 179.183 60.7506 179.05 60.8429C176.326 62.6833 176.201 63.3776 175.659 63.3776ZM205.663 58.6295C205.293 58.6295 204.578 58.0494 201.854 57.2372C201.775 57.2171 201.702 57.1815 201.639 57.1326C201.575 57.0839 201.522 57.0227 201.482 56.9529C201.441 56.8831 201.416 56.8061 201.406 56.7262C201.397 56.6464 201.402 56.5655 201.425 56.4881C201.447 56.4108 201.484 56.3387 201.534 56.2758C201.584 56.2132 201.647 56.161 201.718 56.1227C201.788 56.0845 201.866 56.0607 201.946 56.0529C202.027 56.045 202.107 56.0532 202.184 56.077C203.462 56.4511 204.708 56.9225 205.915 57.4871C206.039 57.5439 206.141 57.6415 206.202 57.7642C206.263 57.8866 206.28 58.0266 206.252 58.1602C206.222 58.2939 206.147 58.4137 206.039 58.499C205.932 58.5845 205.8 58.6306 205.663 58.6295ZM185.956 57.3979C185.814 57.4011 185.674 57.3525 185.564 57.2615C185.454 57.1705 185.381 57.0428 185.357 56.902C185.334 56.761 185.361 56.6164 185.436 56.4945C185.51 56.3724 185.626 56.2814 185.762 56.2376C187.034 55.828 188.335 55.5118 189.653 55.2916C189.807 55.275 189.962 55.318 190.086 55.4119C190.209 55.5058 190.292 55.6436 190.317 55.7967C190.342 55.9497 190.308 56.1068 190.221 56.2353C190.134 56.3636 190.001 56.454 189.85 56.4875C188.538 56.7142 187.241 57.0182 185.965 57.3979H185.956Z" fill="black"/>
<path d="M194.222 148.54C194.063 148.543 193.91 148.482 193.795 148.371C193.681 148.261 193.617 148.11 193.613 147.951V144.542C193.622 144.386 193.69 144.24 193.802 144.133C193.915 144.026 194.065 143.966 194.22 143.966C194.377 143.966 194.527 144.026 194.64 144.133C194.752 144.24 194.82 144.386 194.829 144.542V147.951C194.824 148.109 194.757 148.258 194.643 148.368C194.531 148.478 194.379 148.539 194.222 148.54ZM193.613 136.438V132.529C193.619 132.371 193.686 132.222 193.799 132.112C193.913 132.002 194.065 131.941 194.222 131.94C194.301 131.939 194.379 131.953 194.452 131.982C194.524 132.011 194.591 132.054 194.647 132.109C194.704 132.163 194.749 132.228 194.781 132.301C194.811 132.373 194.827 132.45 194.829 132.529V136.438C194.82 136.593 194.752 136.74 194.64 136.847C194.527 136.954 194.377 137.014 194.22 137.014C194.065 137.014 193.915 136.954 193.802 136.847C193.69 136.74 193.622 136.593 193.613 136.438ZM193.633 124.443V120.534C193.633 120.375 193.695 120.223 193.808 120.111C193.92 119.999 194.072 119.936 194.231 119.936C194.39 119.936 194.541 119.999 194.654 120.111C194.766 120.223 194.829 120.375 194.829 120.534V124.443C194.813 124.589 194.743 124.725 194.634 124.823C194.524 124.921 194.381 124.975 194.234 124.975C194.086 124.975 193.945 124.921 193.835 124.823C193.726 124.725 193.656 124.589 193.64 124.443H193.633Z" fill="black"/>
<path fill-rule="evenodd" clip-rule="evenodd" d="M205.754 79.4609H182.699V89.6658C182.7 92.0168 183.635 94.2711 185.297 95.9335C186.96 97.5956 189.214 98.5296 191.565 98.5301H196.89C199.241 98.5296 201.495 97.5956 203.157 95.9333C204.819 94.2711 205.754 92.0166 205.754 89.6658V79.4609Z" fill="white"/>
<path d="M205.754 78.859H203.136C203.154 77.9951 203.173 76.3172 203.098 74.3537C203.12 73.1788 202.907 72.0112 202.473 70.9188C202.04 69.8266 201.394 68.8312 200.572 67.9909C199.751 67.1503 198.771 66.4813 197.69 66.0227C196.606 65.5642 195.444 65.3252 194.27 65.3194C193.093 65.3137 191.929 65.5417 190.843 65.9897C189.757 66.4377 188.77 67.0973 187.94 67.9298C187.111 68.7623 186.455 69.7512 186.011 70.8394C185.567 71.9275 185.343 73.0929 185.353 74.268C185.353 76.3832 185.341 78.0308 185.33 78.859H182.699C182.54 78.8596 182.387 78.9231 182.274 79.0357C182.162 79.1486 182.098 79.3012 182.098 79.4606V89.6654C182.098 92.1746 183.094 94.5809 184.869 96.3551C186.643 98.1292 189.049 99.1259 191.558 99.1259H196.881C199.391 99.1259 201.797 98.1292 203.571 96.3551C205.345 94.5809 206.342 92.1746 206.342 89.6654V79.4606C206.342 79.3035 206.281 79.1527 206.17 79.0402C206.061 78.9277 205.911 78.8628 205.754 78.859ZM190.084 75.621C190.084 71.2763 194.634 69.3539 197.138 72.2295C198.646 73.9592 198.364 75.8834 198.364 78.8608H190.084V75.621ZM205.153 89.6672C205.153 90.7527 204.94 91.8276 204.524 92.8306C204.11 93.8334 203.5 94.7446 202.732 95.5122C201.966 96.2797 201.054 96.8884 200.051 97.3036C199.048 97.7188 197.973 97.9323 196.888 97.9317H191.565C190.48 97.9321 189.405 97.7184 188.402 97.3032C187.399 96.8879 186.488 96.2792 185.721 95.5116C184.953 94.7443 184.345 93.833 183.929 92.8302C183.514 91.8274 183.301 90.7527 183.301 89.6672V80.0603H205.153V89.6672Z" fill="black"/>
<path d="M194.222 84.2305C193.614 84.2328 193.025 84.4447 192.555 84.8302C192.084 85.216 191.761 85.7518 191.64 86.348C191.518 86.944 191.604 87.5638 191.886 88.103C192.168 88.6423 192.627 89.0682 193.185 89.3088V93.159C193.185 93.3184 193.25 93.4712 193.362 93.5839C193.475 93.6965 193.628 93.76 193.787 93.7606H194.66C194.819 93.76 194.972 93.6965 195.085 93.5837C195.197 93.4711 195.26 93.3183 195.26 93.159V89.3088C195.818 89.0682 196.277 88.6423 196.559 88.103C196.841 87.5638 196.929 86.944 196.805 86.348C196.684 85.7518 196.361 85.216 195.89 84.8302C195.42 84.4447 194.831 84.2328 194.222 84.2305Z" fill="black"/>
<path fill-rule="evenodd" clip-rule="evenodd" d="M182.908 304.637C182.908 304.637 184.27 296.945 191.782 297.402C193.869 297.508 195.859 298.315 197.43 299.693C199 301.069 200.062 302.936 200.441 304.99C206.462 297.136 218.087 302.491 216.377 310.535C216.377 310.535 228.271 310.058 226.63 317.812C224.963 325.684 213.687 324.317 209.917 319.834C208.773 327.331 194.493 327.066 191.93 320.488C191.93 320.488 191.182 325.664 183.589 325.687C176.243 325.72 175.631 320.099 175.631 320.099C175.631 320.099 163.004 323.529 162.891 316.482C162.799 310.77 170.492 310.917 170.492 310.917C169.364 303.782 178.728 299.817 182.908 304.637Z" fill="white"/>
<path d="M183.53 326.287C177.346 326.287 175.624 322.414 175.178 320.827C173.214 321.28 167.093 322.449 164.054 320.163C160.924 317.81 161.303 310.84 169.821 310.333C169.325 303.446 177.853 299.553 182.6 303.491C183.119 301.477 184.323 299.708 186.006 298.486C187.688 297.265 189.744 296.669 191.819 296.799C193.84 296.881 195.786 297.593 197.381 298.834C198.979 300.076 200.146 301.788 200.723 303.726C207.069 296.983 218.037 301.916 217.09 309.926C222.937 310.013 228.431 312.211 227.219 317.931C225.597 325.607 215.137 325.4 210.244 321.023C208.008 327.603 195.777 327.483 192.037 321.969C190.488 325.125 187.085 326.287 183.53 326.287ZM175.629 319.495C175.778 319.495 175.921 319.55 176.031 319.649C176.142 319.747 176.212 319.882 176.229 320.031C176.252 320.236 176.897 325.086 183.53 325.086H183.587C190.532 325.055 191.307 320.588 191.337 320.397C191.357 320.266 191.42 320.145 191.516 320.054C191.611 319.961 191.734 319.904 191.866 319.89C191.996 319.875 192.13 319.904 192.242 319.972C192.357 320.041 192.444 320.145 192.492 320.268C194.852 326.319 208.284 326.585 209.323 319.733C209.341 319.618 209.391 319.511 209.468 319.426C209.544 319.34 209.644 319.277 209.755 319.245C209.867 319.215 209.985 319.217 210.094 319.251C210.205 319.285 210.303 319.349 210.378 319.438C213.948 323.681 224.521 324.875 226.045 317.678C226.236 317.014 226.266 316.314 226.131 315.638C225.995 314.959 225.699 314.326 225.267 313.787C222.841 310.909 216.467 311.129 216.404 311.127C216.313 311.131 216.222 311.113 216.138 311.077C216.054 311.04 215.979 310.984 215.92 310.915C215.862 310.845 215.819 310.761 215.797 310.674C215.774 310.584 215.772 310.492 215.792 310.402C217.37 302.993 206.562 298.002 200.918 305.347C200.846 305.442 200.75 305.511 200.637 305.551C200.527 305.59 200.407 305.595 200.293 305.567C200.179 305.538 200.075 305.478 199.996 305.39C199.916 305.303 199.864 305.194 199.847 305.078C199.498 303.153 198.508 301.402 197.035 300.115C195.562 298.828 193.697 298.08 191.743 297.993C184.87 297.581 183.551 304.44 183.499 304.733C183.479 304.846 183.428 304.949 183.351 305.031C183.275 305.115 183.176 305.176 183.067 305.206C182.957 305.237 182.842 305.235 182.733 305.203C182.625 305.169 182.528 305.106 182.453 305.021C178.705 300.706 170.039 304.224 171.083 310.813C171.096 310.9 171.091 310.988 171.067 311.072C171.042 311.157 171 311.234 170.943 311.3C170.885 311.368 170.814 311.42 170.734 311.455C170.654 311.491 170.567 311.511 170.48 311.509C168.372 311.475 166.315 312.153 164.641 313.433C164.26 313.815 163.96 314.269 163.76 314.768C163.56 315.268 163.462 315.804 163.475 316.343C163.487 316.882 163.608 317.412 163.831 317.903C164.054 318.394 164.374 318.833 164.771 319.197C167.964 321.603 175.356 319.495 175.629 319.495Z" fill="black"/>
<path fill-rule="evenodd" clip-rule="evenodd" d="M311.037 164.891C311.037 164.891 302.019 165.883 302.055 160.061C302.083 155.147 308.811 155.716 308.811 155.716C308.206 149.79 315.849 145.898 318.996 149.938C320.08 141.091 331.6 139.956 334.551 148.808C336.968 143.739 348.397 140.277 350.493 152.735C350.493 152.735 362.274 152.423 360.921 160.257C359.883 166.29 350.792 164.248 350.792 164.248C350.055 166.448 348.597 168.334 346.651 169.6C344.707 170.866 342.392 171.438 340.082 171.222C331.648 170.633 331.896 163.948 331.896 163.948C331.896 163.948 329.754 172.059 319.553 171.212C311.969 170.583 311.037 164.891 311.037 164.891Z" fill="white"/>
<path d="M351.019 152.272C349.758 145.525 345.885 143.988 343.664 143.678C341.967 143.498 340.251 143.752 338.679 144.415C337.106 145.078 335.728 146.129 334.672 147.469C334.022 145.78 332.844 144.346 331.314 143.38C329.784 142.414 327.983 141.967 326.179 142.106C324.376 142.244 322.664 142.962 321.3 144.15C319.935 145.339 318.99 146.936 318.607 148.704C314.867 145.8 308.155 149.454 308.179 155.077C304.707 155.023 301.574 156.346 301.456 159.985C301.312 164.478 306.131 165.774 310.583 165.519C311.692 169.076 315.117 171.875 320.998 171.875C323.139 171.988 325.266 171.5 327.144 170.468C329.022 169.435 330.573 167.899 331.625 166.031C332.285 168.23 334.241 171.417 340.037 171.822C342.39 172.038 344.75 171.483 346.76 170.24C348.768 168.997 350.319 167.135 351.177 164.933C356.022 165.744 360.97 164.662 361.613 159.784C362.346 154.207 356.732 152.281 351.019 152.272ZM360.422 159.634C360.368 160.264 360.177 160.874 359.863 161.422C359.549 161.971 359.117 162.444 358.601 162.808C355.843 164.737 350.974 163.68 350.926 163.668C350.776 163.634 350.621 163.658 350.488 163.734C350.356 163.811 350.256 163.934 350.212 164.08C349.521 166.155 348.147 167.934 346.312 169.124C344.477 170.314 342.292 170.845 340.116 170.629C332.389 170.094 332.48 164.225 332.489 163.975C332.494 163.827 332.444 163.683 332.349 163.57C332.256 163.456 332.123 163.381 331.976 163.359C331.832 163.337 331.682 163.37 331.559 163.45C331.435 163.531 331.346 163.654 331.307 163.796C331.223 164.109 329.124 171.418 319.595 170.617C312.602 170.035 311.659 165.003 311.624 164.789C311.593 164.64 311.511 164.507 311.39 164.415C311.27 164.323 311.12 164.278 310.969 164.289C310.922 164.289 305.912 164.773 303.684 162.691C303.336 162.337 303.063 161.915 302.884 161.452C302.704 160.989 302.618 160.494 302.636 159.997C302.652 159.501 302.77 159.012 302.981 158.562C303.191 158.112 303.491 157.71 303.862 157.379C306.097 155.626 310.613 156.546 310.658 156.556C310.813 156.589 310.977 156.558 311.111 156.471C311.243 156.384 311.338 156.247 311.37 156.091C311.402 155.934 311.372 155.772 311.285 155.638C311.197 155.504 311.06 155.411 310.904 155.378C310.396 155.274 309.881 155.196 309.366 155.145C309.285 150.08 315.843 146.894 318.507 150.304C318.58 150.397 318.68 150.467 318.792 150.505C318.905 150.542 319.026 150.545 319.14 150.513C319.256 150.481 319.358 150.416 319.437 150.326C319.513 150.236 319.563 150.125 319.578 150.007C320.581 141.839 331.205 140.711 333.967 148.995C334.004 149.109 334.075 149.208 334.17 149.28C334.266 149.353 334.381 149.396 334.5 149.403C334.62 149.41 334.738 149.382 334.841 149.321C334.945 149.261 335.027 149.171 335.079 149.063C335.919 147.622 337.162 146.457 338.654 145.712C340.146 144.966 341.824 144.672 343.481 144.865C346.694 145.315 348.918 147.946 349.783 152.296C349.178 152.322 348.579 152.369 347.998 152.435C347.845 152.459 347.707 152.542 347.615 152.665C347.52 152.788 347.479 152.943 347.495 153.097C347.513 153.251 347.59 153.392 347.707 153.491C347.827 153.59 347.979 153.64 348.134 153.629C348.213 153.629 356.247 152.756 359.315 155.88C359.788 156.371 360.135 156.968 360.327 157.621C360.52 158.275 360.552 158.965 360.422 159.634Z" fill="black"/>
<path fill-rule="evenodd" clip-rule="evenodd" d="M40.7269 144.215C46.9066 144.438 50.1142 150.677 50.1142 150.677C50.1142 150.677 52.8649 142.2 61.5275 142.709C70.1901 143.217 71.7716 152.867 71.7716 152.867C71.7716 152.867 82.6494 150.577 84.3202 156.089C85.7928 160.946 83.0885 163.818 75.588 161.778C75.588 161.778 75.1953 170.153 65.8008 170.019C63.692 170.039 61.6055 169.588 59.694 168.697C57.7824 167.806 56.0943 166.499 54.7535 164.871C54.7535 164.871 54.3732 171.943 42.6797 171.285C40.5861 171.281 38.5437 170.638 36.8258 169.441C35.1077 168.245 33.7965 166.552 33.0675 164.589C33.0675 164.589 24.2693 166.731 22.2147 160.858C20.7867 156.799 24.7923 153.467 31.1272 152.647C31.1272 152.637 33.0336 143.937 40.7269 144.215Z" fill="white"/>
<path d="M84.6148 155.179C82.7995 150.927 76.1218 151.587 72.2787 152.367C71.8449 150.479 69.5548 142.578 61.5597 142.109C59.1204 141.99 56.7035 142.624 54.6366 143.926C52.5699 145.227 50.9531 147.132 50.0054 149.383C48.9796 147.806 47.6214 146.473 46.026 145.477C44.4305 144.48 42.6366 143.845 40.7698 143.615C33.3032 143.026 30.9523 150.878 30.5953 152.299C27.5373 152.576 24.7043 154.023 22.6877 156.339C22.1217 156.968 21.7288 157.733 21.5473 158.56C21.3658 159.387 21.4021 160.246 21.6524 161.055C23.5552 166.492 30.7006 165.631 32.6909 165.273C33.542 167.213 34.9334 168.868 36.6993 170.039C38.4652 171.21 40.5307 171.848 42.6495 171.877C47.7546 172.172 53.4594 170.985 55.082 166.165C61.1724 172.482 74.3278 172.863 76.1003 162.527C83.808 164.336 86.68 160.009 84.6148 155.179ZM75.7416 161.199C75.655 161.176 75.5643 161.172 75.476 161.188C75.3878 161.204 75.3044 161.24 75.2318 161.293C75.1593 161.346 75.0997 161.414 75.0572 161.493C75.0147 161.572 74.9904 161.66 74.9865 161.749C74.9687 162.065 74.4992 169.425 66.0187 169.425C63.9707 169.456 61.9415 169.031 60.078 168.182C58.2143 167.333 56.5626 166.08 55.2426 164.514C55.1702 164.413 55.0684 164.338 54.9513 164.297C54.8342 164.256 54.7073 164.253 54.5881 164.287C54.469 164.321 54.3632 164.391 54.2855 164.488C54.2077 164.584 54.1616 164.703 54.1538 164.826C54.1377 165.091 53.6022 171.285 42.7119 170.676C40.7395 170.687 38.8112 170.092 37.1886 168.971C35.5659 167.849 34.3272 166.256 33.6406 164.407C33.5956 164.261 33.497 164.137 33.3644 164.061C33.232 163.985 33.0754 163.962 32.9266 163.996C32.8444 164.016 24.6352 165.944 22.7805 160.651C22.6062 160.034 22.5925 159.381 22.7405 158.757C22.8886 158.132 23.1936 157.555 23.6266 157.081C24.8141 155.776 26.2927 154.769 27.9425 154.143C29.5922 153.516 31.3665 153.288 33.1211 153.476C33.2764 153.486 33.4297 153.435 33.5486 153.335C33.6677 153.235 33.743 153.092 33.7591 152.937C33.775 152.782 33.7302 152.627 33.6341 152.505C33.5383 152.382 33.3983 152.301 33.2443 152.28C32.7811 152.232 32.3155 152.213 31.8502 152.221C32.3714 150.352 34.5277 144.345 40.6806 144.811C46.4354 145.256 49.5556 150.903 49.586 150.959C49.642 151.062 49.7268 151.146 49.8303 151.202C49.9337 151.257 50.0511 151.281 50.1679 151.271C50.2848 151.26 50.396 151.216 50.4879 151.143C50.5798 151.07 50.6486 150.972 50.6855 150.861C50.7123 150.78 53.3487 142.848 61.4919 143.306C68.7694 143.735 70.7471 150.936 71.1113 152.622C70.2188 152.837 69.6297 153.015 69.5244 153.049C69.3784 153.101 69.2583 153.208 69.189 153.347C69.1197 153.486 69.1069 153.646 69.1529 153.794C69.199 153.942 69.3006 154.067 69.4362 154.142C69.5719 154.217 69.7315 154.237 69.8814 154.197C69.9992 154.161 81.3964 150.691 83.5135 155.648C85.2503 159.723 82.928 163.15 75.7416 161.199Z" fill="black"/>
</svg>
