<svg width="369" height="369" viewBox="0 0 369 369" fill="none" xmlns="http://www.w3.org/2000/svg">
<path fill-rule="evenodd" clip-rule="evenodd" d="M25.4301 312.427L21.8379 311.441C21.8379 311.441 20.598 196.883 20.1239 170.483C20.1117 169.787 20.2375 169.095 20.4938 168.447C20.7502 167.799 21.1323 167.208 21.6179 166.709C22.1035 166.209 22.6832 165.811 23.3236 165.536C23.964 165.261 24.6522 165.116 25.3489 165.109C51.4907 164.836 164.069 162.969 190.227 162.694C191.914 162.678 193.57 163.134 195.011 164.011C195.855 164.652 196.445 165.57 196.676 166.603C196.74 166.9 29.4909 168.384 29.4909 168.384C29.4909 168.384 23.7585 167.845 23.7714 172.699C23.7843 177.553 25.4301 312.427 25.4301 312.427Z" fill="#81F889"/>
<path fill-rule="evenodd" clip-rule="evenodd" d="M196.69 166.565L196.681 298.939L25.4299 312.427L23.5277 172.61C23.5203 172.046 23.6246 171.486 23.834 170.963C24.0436 170.44 24.3545 169.963 24.7487 169.56C25.143 169.157 25.6129 168.836 26.1317 168.616C26.6504 168.395 27.2076 168.279 27.7712 168.274L196.69 166.565Z" fill="white"/>
<path fill-rule="evenodd" clip-rule="evenodd" d="M25.4297 312.427L196.956 298.858L309.331 330.808L139.93 347.21L25.4297 312.427Z" fill="#81F889"/>
<path fill-rule="evenodd" clip-rule="evenodd" d="M25.4297 312.427C25.4297 318.668 29.902 323.222 35.9462 324.774C64.0289 331.986 139.74 352.384 139.74 352.384L309.327 335.399V330.808L139.93 347.211L25.4297 312.427Z" fill="white"/>
<path d="M309.464 330.176L197.598 298.375L197.423 167.526C197.417 166.747 197.231 165.979 196.88 165.283C196.532 164.587 196.026 163.98 195.404 163.51C193.865 162.558 192.092 162.055 190.284 162.058C190.284 162.058 38.4058 164.338 25.3414 164.473C24.5598 164.481 23.7875 164.643 23.0692 164.951C22.3508 165.259 21.7006 165.706 21.156 166.267C20.6113 166.828 20.1831 167.49 19.8962 168.217C19.6091 168.944 19.4687 169.721 19.4835 170.502C19.9521 196.598 21.1846 310.309 21.1975 311.46C21.1986 311.6 21.2451 311.735 21.33 311.846C21.4148 311.957 21.5335 312.036 21.668 312.073L24.8045 312.931C25.0277 318.87 29.2933 323.737 35.7988 325.408C63.5587 332.534 138.827 352.812 139.586 353.015L309.405 336.041C309.564 336.026 309.711 335.953 309.818 335.835C309.925 335.716 309.984 335.561 309.984 335.403V330.809C309.982 330.659 309.931 330.515 309.837 330.401C309.741 330.285 309.61 330.205 309.464 330.176ZM305.887 330.495L139.995 346.559L28.8653 312.796L196.889 299.512L305.887 330.495ZM22.4761 310.951C22.3857 302.781 21.2215 195.701 20.7658 170.473C20.7547 169.861 20.865 169.253 21.0901 168.684C21.315 168.115 21.6506 167.596 22.077 167.157C22.5036 166.718 23.0128 166.368 23.5751 166.127C24.1377 165.885 24.7423 165.758 25.3543 165.751C38.4206 165.617 177.152 163.473 190.236 163.336C191.777 163.326 193.29 163.734 194.616 164.517C195.107 164.892 195.504 165.377 195.775 165.932L27.7546 167.631C27.1078 167.638 26.4685 167.772 25.8736 168.027C25.2786 168.281 24.7397 168.65 24.2877 169.112C23.8355 169.575 23.4792 170.122 23.2388 170.723C22.9986 171.324 22.8792 171.966 22.8875 172.613L24.7749 311.575L22.4761 310.951ZM24.1679 172.6C24.1617 172.121 24.2497 171.646 24.4272 171.201C24.6048 170.757 24.8683 170.351 25.2026 170.009C25.5369 169.666 25.9356 169.392 26.3757 169.204C26.8157 169.015 27.2887 168.916 27.7675 168.91C177.286 167.393 194.085 167.329 195.884 167.329C196.196 167.329 196.135 167.443 196.135 167.513L196.308 298.257L26.0591 311.726L24.1679 172.6ZM26.1015 313.303L139.27 347.681L139.13 351.556C131.023 349.373 62.3484 330.892 36.1088 324.154C30.2417 322.645 26.4816 318.53 26.1033 313.303H26.1015ZM308.687 334.818L140.403 351.672L140.545 347.797L308.682 331.515L308.687 334.818Z" fill="black"/>
<path d="M234.036 316.582L189.073 304.457L65.4581 313.564C65.3064 313.575 65.164 313.641 65.0559 313.748C64.9478 313.855 64.881 313.996 64.8677 314.149C64.8544 314.3 64.8954 314.451 64.9832 314.575C65.071 314.699 65.2002 314.787 65.3474 314.826L113.537 326.935L233.916 317.835C234.063 317.82 234.2 317.754 234.305 317.649C234.408 317.544 234.473 317.405 234.488 317.258C234.503 317.11 234.464 316.962 234.383 316.839C234.3 316.717 234.178 316.625 234.036 316.582Z" fill="black"/>
<path d="M255.113 329.388L223.797 322.396L145.634 328.154C145.483 328.167 145.341 328.233 145.234 328.34C145.127 328.447 145.061 328.587 145.047 328.739C145.034 328.89 145.075 329.041 145.162 329.165C145.249 329.288 145.377 329.379 145.523 329.418L176.054 337.082L255.02 330.652C255.17 330.635 255.31 330.567 255.415 330.46C255.52 330.351 255.583 330.209 255.594 330.058C255.605 329.908 255.563 329.759 255.474 329.635C255.387 329.514 255.258 329.425 255.113 329.388Z" fill="black"/>
<path fill-rule="evenodd" clip-rule="evenodd" d="M193.477 170.587L28.043 173.196L28.4802 308.491L193.176 295.004L193.477 170.587Z" fill="white"/>
<path d="M193.928 170.132L28.0274 172.554C27.8582 172.556 27.6968 172.625 27.5781 172.746C27.4595 172.866 27.3936 173.029 27.3945 173.198L27.8318 308.494C27.8333 308.664 27.9017 308.826 28.0222 308.946C28.1429 309.066 28.3058 309.134 28.4757 309.134L193.234 295.645C193.395 295.632 193.544 295.559 193.653 295.441C193.762 295.322 193.825 295.167 193.825 295.007C194.306 170.172 194.238 170.434 193.928 170.132ZM86.3644 172.92L143.441 172.019L143.17 239.192L86.0877 241.823L86.3644 172.92ZM84.5563 303.254L29.1122 307.795L28.913 245.688L84.798 243.172L84.5563 303.254ZM84.8017 241.88L28.9093 244.402L28.6805 173.827L85.0766 172.94L84.8017 241.88ZM86.0821 243.107L143.17 240.478L142.938 298.476L85.8478 303.149L86.0821 243.107ZM192.539 294.413L144.227 298.369L144.462 240.419L192.677 238.205L192.539 294.413ZM192.679 236.912L144.467 239.126L144.737 171.992L192.841 171.233L192.679 236.912Z" fill="black"/>
<path d="M58.6141 199.884C54.413 199.884 53.0163 206.803 56.817 209.109V219.144C56.817 219.229 56.8338 219.312 56.8661 219.389C56.8986 219.468 56.946 219.539 57.0058 219.598C57.0655 219.659 57.1366 219.705 57.2146 219.738C57.2929 219.769 57.3764 219.786 57.4609 219.786H59.7764C59.9467 219.786 60.11 219.718 60.2305 219.598C60.3509 219.478 60.4185 219.313 60.4185 219.144V209.109C64.2044 206.808 62.8225 199.884 58.6141 199.884Z" fill="black"/>
<path d="M169.906 194.801C165.7 194.801 164.314 201.721 168.109 204.026V214.061C168.11 214.23 168.178 214.395 168.299 214.515C168.419 214.635 168.583 214.703 168.753 214.703H171.059C171.23 214.703 171.393 214.635 171.514 214.515C171.635 214.395 171.703 214.23 171.703 214.061V204.026C175.502 201.72 174.113 194.801 169.906 194.801Z" fill="black"/>
<path d="M169.907 260.455C165.708 260.455 164.308 267.376 168.11 269.68V279.702C168.111 279.872 168.179 280.036 168.3 280.156C168.42 280.276 168.584 280.344 168.754 280.344H171.06C171.231 280.344 171.394 280.276 171.515 280.156C171.636 280.036 171.704 279.872 171.704 279.702V269.667C175.498 267.381 174.119 260.455 169.907 260.455Z" fill="black"/>
<path d="M58.6085 268.896C54.4092 268.896 53.0089 275.815 56.8114 278.121C56.8114 289.029 56.7266 288.35 57.0144 288.623C57.3022 288.896 57.3059 288.808 59.7966 288.669C59.9607 288.66 60.1151 288.59 60.2282 288.47C60.3415 288.352 60.4048 288.193 60.4055 288.029V278.121C64.2043 275.828 62.8187 268.896 58.6085 268.896Z" fill="black"/>
<path d="M116.255 264.675C112.048 264.675 110.661 271.597 114.458 273.9C114.458 284.807 114.373 284.127 114.661 284.402C114.948 284.676 114.969 284.586 117.445 284.448C117.609 284.438 117.763 284.366 117.875 284.247C117.988 284.127 118.051 283.97 118.052 283.806V273.9C121.851 271.595 120.461 264.675 116.255 264.675Z" fill="black"/>
<path fill-rule="evenodd" clip-rule="evenodd" d="M85.6953 199.336L125.509 209.832L124.94 252.147L85.6953 239.54V199.336Z" fill="white"/>
<path fill-rule="evenodd" clip-rule="evenodd" d="M128.577 270.402L124.822 267.45L125.636 199.264L183.661 198.489L187.189 200.84L128.964 201.862L128.577 270.402Z" fill="white"/>
<path fill-rule="evenodd" clip-rule="evenodd" d="M187.188 200.845L128.964 201.867L128.576 270.401L187.188 268.567V200.845Z" fill="white"/>
<path d="M159.384 226.415C155.177 226.415 153.79 233.337 157.587 235.631V245.666C157.587 245.837 157.654 246 157.775 246.121C157.896 246.241 158.06 246.31 158.23 246.31H160.535C160.706 246.31 160.869 246.241 160.99 246.121C161.111 246 161.179 245.837 161.179 245.666V235.631C164.976 233.337 163.592 226.415 159.384 226.415Z" fill="black"/>
<path d="M187.547 200.312C183.757 197.786 183.943 197.853 183.652 197.853L125.627 198.626C125.459 198.629 125.3 198.696 125.182 198.816C125.063 198.934 124.996 199.093 124.994 199.26L124.877 209L85.8594 198.716C85.7647 198.69 85.6655 198.688 85.5695 198.707C85.4734 198.727 85.383 198.768 85.3053 198.827C85.2275 198.886 85.1642 198.963 85.1206 199.05C85.0769 199.139 85.0539 199.235 85.0531 199.332L84.793 239.236C84.7924 239.373 84.8354 239.505 84.9153 239.616C84.9952 239.727 85.1079 239.808 85.2376 239.85L124.352 252.555L124.167 267.446C124.167 267.887 124.241 267.756 128.158 270.898C128.376 271.073 128.158 271.02 187.198 269.21C187.366 269.204 187.523 269.134 187.639 269.014C187.755 268.894 187.821 268.734 187.821 268.566V200.845C187.821 200.74 187.797 200.637 187.75 200.545C187.702 200.452 187.631 200.371 187.547 200.312ZM86.245 213.712L124.656 227.613L124.56 235.612L86.1933 221.727L86.245 213.712ZM124.863 210.33L124.678 226.26L86.2542 212.36L86.3335 200.183L124.863 210.33ZM124.374 251.217L86.0808 238.78L86.1841 223.098L124.536 236.969L124.374 251.217ZM127.94 269.092L125.468 267.151L126.261 200.578L128.32 202.185L127.94 269.092ZM127.472 199.893L183.471 199.146L185.12 200.253L129.18 201.235L127.472 199.893ZM186.547 267.952L129.222 269.745L129.604 202.504L186.547 201.506V267.952Z" fill="black"/>
<path d="M360.143 29.5813L353.802 25.2381L360.143 20.895C360.278 20.7965 360.368 20.6494 360.396 20.485C360.426 20.3206 360.389 20.1518 360.295 20.0144C360.201 19.8767 360.055 19.7812 359.892 19.748C359.728 19.7146 359.558 19.7461 359.418 19.836L353.309 24.0204V16.6165C353.309 16.4452 353.241 16.2809 353.121 16.1598C352.999 16.0387 352.835 15.9707 352.664 15.9707C352.492 15.9707 352.328 16.0387 352.208 16.1598C352.086 16.2809 352.018 16.4452 352.018 16.6165V24.0204L345.911 19.836C345.771 19.7461 345.601 19.7146 345.437 19.748C345.274 19.7812 345.131 19.8767 345.036 20.0144C344.941 20.1518 344.904 20.3206 344.933 20.485C344.961 20.6494 345.051 20.7965 345.186 20.895L351.527 25.2381L345.186 29.5813C345.073 29.6595 344.989 29.7718 344.944 29.9019C344.898 30.032 344.896 30.1728 344.939 30.3039C344.979 30.4351 345.062 30.5495 345.173 30.6307C345.284 30.7119 345.418 30.7552 345.555 30.7547C345.837 30.7547 345.37 31.0222 352.025 26.4558V33.8598C352.025 34.031 352.094 34.1954 352.215 34.3164C352.335 34.4375 352.499 34.5056 352.671 34.5056C352.843 34.5056 353.007 34.4375 353.129 34.3164C353.249 34.1954 353.317 34.031 353.317 33.8598V26.4558C359.983 31.0222 359.505 30.7547 359.787 30.7547C359.924 30.7525 360.057 30.7071 360.165 30.625C360.274 30.5429 360.354 30.4283 360.394 30.2978C360.433 30.1674 360.429 30.0276 360.385 29.8988C360.341 29.77 360.256 29.6589 360.143 29.5813Z" fill="black"/>
<path d="M243.069 269.623L236.729 265.28L243.069 260.937C243.2 260.837 243.288 260.691 243.314 260.529C243.34 260.367 243.303 260.201 243.211 260.064C243.117 259.928 242.977 259.834 242.814 259.799C242.654 259.763 242.486 259.793 242.346 259.878L236.237 264.06V256.656C236.237 256.485 236.168 256.321 236.049 256.201C235.927 256.079 235.763 256.011 235.591 256.011C235.419 256.011 235.255 256.079 235.135 256.201C235.013 256.321 234.945 256.485 234.945 256.656V264.06L228.836 259.878C228.696 259.793 228.528 259.763 228.368 259.799C228.205 259.834 228.065 259.928 227.971 260.064C227.879 260.201 227.842 260.367 227.868 260.529C227.895 260.691 227.982 260.837 228.113 260.937L234.453 265.28L228.113 269.623C227.977 269.719 227.884 269.863 227.853 270.025C227.822 270.19 227.857 270.357 227.947 270.496C228.039 270.634 228.181 270.732 228.344 270.767C228.506 270.802 228.676 270.773 228.816 270.684C229.268 270.411 230.563 269.5 234.945 266.498V273.902C234.945 274.073 235.013 274.237 235.135 274.359C235.255 274.479 235.419 274.547 235.591 274.547C235.763 274.547 235.927 274.479 236.049 274.359C236.168 274.237 236.237 274.073 236.237 273.902V266.498C242.901 271.062 242.425 270.795 242.707 270.795C242.844 270.795 242.978 270.75 243.087 270.669C243.198 270.588 243.279 270.474 243.32 270.343C243.36 270.212 243.357 270.071 243.312 269.942C243.266 269.811 243.181 269.701 243.069 269.623Z" fill="black"/>
<path d="M138.936 29.5813L132.595 25.2381L138.936 20.895C139.071 20.7965 139.162 20.6494 139.19 20.485C139.218 20.3206 139.181 20.1518 139.087 20.0144C138.992 19.8767 138.849 19.7812 138.685 19.748C138.522 19.7146 138.352 19.7461 138.211 19.836L132.101 24.0204V16.6165C132.101 16.4452 132.033 16.2809 131.912 16.1598C131.79 16.0387 131.626 15.9707 131.455 15.9707C131.284 15.9707 131.119 16.0387 130.998 16.1598C130.877 16.2809 130.809 16.4452 130.809 16.6165V24.0204L124.7 19.836C124.56 19.7461 124.39 19.7146 124.227 19.748C124.063 19.7812 123.919 19.8767 123.825 20.0144C123.731 20.1518 123.694 20.3206 123.722 20.485C123.75 20.6494 123.841 20.7965 123.975 20.895L130.317 25.2381L123.983 29.5813C123.87 29.6595 123.784 29.7718 123.74 29.9019C123.695 30.032 123.694 30.1728 123.735 30.3039C123.776 30.4351 123.858 30.5495 123.969 30.6307C124.08 30.7119 124.214 30.7552 124.352 30.7547C124.634 30.7547 124.167 31.0222 130.822 26.4558V33.8598C130.822 34.031 130.89 34.1954 131.011 34.3164C131.132 34.4375 131.297 34.5056 131.468 34.5056C131.639 34.5056 131.803 34.4375 131.924 34.3164C132.045 34.1954 132.114 34.031 132.114 33.8598V26.4558C138.778 31.0222 138.302 30.7547 138.584 30.7547C138.72 30.7517 138.852 30.7058 138.96 30.6235C139.068 30.541 139.148 30.4264 139.187 30.2962C139.226 30.1657 139.223 30.0264 139.178 29.898C139.133 29.7694 139.048 29.6587 138.936 29.5813Z" fill="black"/>
<path d="M127.645 190.679C127.481 190.443 111.225 166.667 120.06 139.942C122.817 131.608 126.322 127.066 129.523 124.61C127.304 118.983 126.75 107.195 141.175 85.5236C161.608 54.8136 190.654 58.2416 190.942 58.2803C191.025 58.291 191.106 58.3182 191.18 58.3602C191.253 58.4025 191.318 58.4586 191.368 58.5257C191.42 58.5927 191.458 58.6695 191.48 58.751C191.501 58.8327 191.506 58.918 191.495 59.0017C191.471 59.1696 191.383 59.3215 191.25 59.425C191.115 59.5285 190.945 59.5752 190.777 59.5552C190.497 59.5146 162.217 56.2158 142.245 86.2339C128.359 107.103 128.595 118.398 130.606 123.85C139.036 118.438 147.269 124.914 144.422 129.887C142.276 133.65 133.689 133.066 130.062 125.813C127.11 128.162 123.881 132.481 121.284 140.346C112.656 166.447 128.538 189.713 128.701 189.945C128.798 190.085 128.836 190.259 128.806 190.427C128.776 190.593 128.68 190.742 128.54 190.84C128.471 190.888 128.393 190.923 128.31 190.94C128.228 190.958 128.142 190.96 128.059 190.945C127.892 190.916 127.743 190.82 127.645 190.679ZM131.118 125.045C131.843 126.694 133.009 128.111 134.487 129.141C135.965 130.17 137.698 130.773 139.496 130.883C143.287 130.935 144.647 128.2 143.049 125.841C141.105 122.97 136.031 121.789 131.118 125.045Z" fill="black"/>
<path fill-rule="evenodd" clip-rule="evenodd" d="M216 75.0447C232.175 66.2806 249.904 60.7534 268.193 58.7718L267.036 19.2003C257.383 18.1727 247.621 19.1624 238.37 22.1065C229.12 25.0508 220.581 29.8852 213.297 36.3034L216 75.0447Z" fill="#81F889"/>
<path d="M215.999 75.6864C215.837 75.6864 215.68 75.6246 215.56 75.5137C215.442 75.4029 215.368 75.251 215.357 75.0887L212.656 36.3437C212.649 36.2461 212.665 36.1481 212.702 36.0573C212.739 35.9665 212.796 35.8854 212.868 35.8197C220.243 29.369 228.868 24.5072 238.206 21.5379C247.541 18.5686 257.392 17.5554 267.137 18.5615C267.285 18.5855 267.419 18.6602 267.517 18.7726C267.615 18.8852 267.672 19.0285 267.676 19.1778L268.834 58.7493C268.84 58.9113 268.783 59.0693 268.676 59.1912C268.569 59.313 268.419 59.3899 268.259 59.4062C249.96 61.4517 232.222 66.9777 215.999 75.6864ZM213.97 36.5724L216.569 73.9853C232.434 65.6129 249.715 60.2578 267.534 58.1921L266.417 19.7645C256.991 18.8807 247.486 19.9145 238.469 22.803C229.455 25.6917 221.117 30.3756 213.96 36.5724H213.97Z" fill="black"/>
<path d="M250.265 38.6613L228.547 36.4049C228.455 36.3953 228.363 36.4054 228.276 36.4351C228.187 36.4646 228.108 36.5128 228.04 36.5763C227.973 36.6397 227.92 36.717 227.887 36.8026C227.851 36.8884 227.837 36.9805 227.84 37.0728L228.763 57.2331C228.768 57.3535 228.809 57.47 228.877 57.569C228.946 57.6679 229.042 57.7456 229.152 57.793C229.263 57.8404 229.385 57.8556 229.505 57.8368C229.623 57.8179 229.735 57.7661 229.826 57.6869C229.957 57.5725 243.047 46.1538 250.611 39.7904C250.707 39.7093 250.777 39.6017 250.814 39.4808C250.849 39.3602 250.848 39.2316 250.811 39.1113C250.774 38.991 250.704 38.8842 250.606 38.8043C250.508 38.7242 250.39 38.6746 250.265 38.6613Z" fill="black"/>
<path d="M153.828 185.575C153.874 185.361 158.501 164.075 177.26 143.288C194.555 124.12 227.698 101.434 287.646 102.216C287.818 102.218 287.98 102.288 288.1 102.41C288.22 102.533 288.286 102.698 288.284 102.869C288.283 103.04 288.213 103.204 288.091 103.324C287.967 103.443 287.803 103.51 287.631 103.507C228.256 103.107 195.381 125.157 178.26 144.097C159.71 164.63 155.129 185.628 155.086 185.839C155.051 186.005 154.952 186.152 154.809 186.245C154.666 186.339 154.492 186.37 154.325 186.335C154.159 186.302 154.012 186.2 153.919 186.058C153.826 185.916 153.793 185.741 153.828 185.575Z" fill="black"/>
<path fill-rule="evenodd" clip-rule="evenodd" d="M305.818 85.4834C300.781 97.6266 297.156 110.309 295.016 123.28L342.03 138.392C346.449 127.78 349.836 116.767 352.144 105.505C342.375 101.401 332.25 98.1993 321.895 95.9409L323.338 90.5166C317.825 87.8596 311.901 86.1577 305.818 85.4834Z" fill="white"/>
<path d="M342.027 139.036L294.815 123.892C294.668 123.845 294.544 123.746 294.463 123.614C294.384 123.483 294.352 123.327 294.378 123.175C296.535 110.157 300.175 97.4297 305.225 85.2396C305.275 85.1101 305.367 85.0011 305.487 84.9299C305.605 84.8587 305.745 84.8293 305.883 84.8467C312.038 85.5348 318.031 87.2579 323.612 89.9426C323.747 90.0064 323.854 90.1149 323.918 90.2494C323.981 90.3841 323.996 90.5365 323.959 90.6805L322.69 95.4499C332.848 97.7144 342.785 100.878 352.383 104.904C352.525 104.96 352.641 105.066 352.711 105.201C352.783 105.337 352.802 105.493 352.769 105.642C350.466 116.947 347.068 128.002 342.621 138.649C342.571 138.765 342.488 138.863 342.383 138.932C342.276 139.001 342.152 139.037 342.027 139.036ZM295.736 122.839L341.665 137.599C345.898 127.363 349.156 116.751 351.4 105.904C341.822 101.907 331.905 98.7834 321.767 96.5716C321.68 96.5537 321.599 96.5187 321.529 96.4687C321.457 96.4185 321.396 96.3545 321.35 96.2801C321.149 95.9499 321.188 96.1141 322.583 90.8761C317.417 88.4492 311.898 86.8623 306.232 86.1751C301.383 97.969 297.863 110.266 295.736 122.839Z" fill="black"/>
<path d="M112.426 196.362C110.474 146.807 65.7048 111.704 65.251 111.356C65.1246 111.249 65.0443 111.097 65.027 110.932C65.0096 110.767 65.0563 110.602 65.1576 110.471C65.2587 110.34 65.4067 110.253 65.5703 110.228C65.7342 110.203 65.9013 110.242 66.0369 110.337C66.4926 110.69 111.734 146.147 113.708 196.314C113.708 196.48 113.643 196.639 113.528 196.759C113.413 196.879 113.256 196.949 113.09 196.955C112.924 196.962 112.762 196.903 112.638 196.792C112.515 196.681 112.438 196.528 112.426 196.362Z" fill="black"/>
<path fill-rule="evenodd" clip-rule="evenodd" d="M70.5967 67.2347L36.9716 85.633C36.9716 85.633 29.5786 66.0262 9.22461 41.3291C19.2147 32.8408 30.0157 25.3558 41.4715 18.9824C52.7279 32.6133 64.9252 47.8843 70.5967 67.2347Z" fill="white"/>
<path d="M36.9709 86.2748C36.8405 86.275 36.7128 86.2354 36.6054 86.1612C36.498 86.087 36.4157 85.9818 36.3694 85.8597C36.2975 85.6641 28.7699 66.0518 8.72956 41.7365C8.62258 41.6076 8.57041 41.4419 8.58421 41.2749C8.59801 41.1079 8.67668 40.9531 8.80336 40.8435C18.8373 32.3322 29.6776 24.8201 41.1701 18.4139C41.3006 18.3438 41.4511 18.3212 41.5963 18.3502C41.7415 18.3792 41.872 18.4578 41.9653 18.5726C51.8028 30.4857 65.275 46.8011 71.2122 67.0536C71.2517 67.1933 71.2427 67.3424 71.1868 67.4763C71.1309 67.6103 71.0313 67.7213 70.9041 67.7916C37.0465 86.332 37.2329 86.2748 36.9709 86.2748ZM10.1225 41.4081C27.9212 63.1293 35.7919 81.0553 37.2975 84.7213L69.8322 66.9208C63.9632 47.3638 50.9615 31.4857 41.3085 19.7958C30.2525 25.9965 19.8104 33.2331 10.1225 41.4081Z" fill="black"/>
<path d="M17.9606 44.1962C18.479 42.3143 19.752 39.4823 21.5694 40.2295C22.2723 40.6051 23.0895 40.7068 23.8631 40.5149C24.6367 40.323 25.3116 39.8513 25.7575 39.1908C26.3206 38.4598 26.7001 37.6042 26.8645 36.6963C28.6671 29.9326 34.1283 34.903 39.4529 29.654C39.5753 29.5346 39.74 29.4687 39.9111 29.4707C40.0819 29.4728 40.245 29.5427 40.3644 29.665C40.4837 29.7873 40.5496 29.9521 40.5476 30.123C40.5456 30.294 40.4756 30.4571 40.3533 30.5765C38.2268 32.6109 35.4139 33.7731 32.4715 33.8329C29.6468 34.1299 28.8276 34.3513 28.1154 37.0266C27.9018 38.1258 27.4265 39.1574 26.7298 40.0339C26.1058 40.8979 25.1948 41.5116 24.1597 41.7651C23.1247 42.0186 22.033 41.8955 21.0804 41.4177C20.431 41.1538 19.4661 43.5782 19.2004 44.5376C19.1552 44.702 19.0465 44.8416 18.8982 44.9259C18.7498 45.0103 18.5742 45.032 18.4098 44.9868C18.2454 44.9416 18.1057 44.8328 18.0215 44.6846C17.9372 44.5363 17.9153 44.3606 17.9606 44.1962Z" fill="black"/>
<path d="M22.5581 51.9149C24.3983 49.4784 26.5235 47.2709 28.8882 45.3393C31.6779 43.4759 34.5542 46.4611 36.5376 43.9667C38.8144 41.094 39.1335 38.2066 42.6261 36.6512C42.7031 36.6169 42.7863 36.5981 42.8706 36.5959C42.9547 36.5939 43.0387 36.6083 43.1174 36.6385C43.1962 36.6688 43.2682 36.7142 43.3293 36.7723C43.3905 36.8302 43.4396 36.8998 43.4739 36.9769C43.5082 37.054 43.5268 37.137 43.5291 37.2213C43.5313 37.3055 43.5169 37.3894 43.4866 37.4682C43.4564 37.547 43.411 37.6189 43.3529 37.68C43.2947 37.7413 43.2252 37.7903 43.1483 37.8247C41.482 38.663 40.1726 40.0721 39.4583 41.7951C37.2443 45.701 36.3716 46.712 32.6926 46.1345C31.6687 45.8142 30.5596 45.9124 29.6078 46.4076C27.3643 48.2657 25.3423 50.3762 23.582 52.6972C23.4783 52.833 23.3248 52.9219 23.1555 52.9446C22.9861 52.9673 22.8147 52.9217 22.6789 52.8181C22.5431 52.7144 22.454 52.5609 22.4315 52.3915C22.4088 52.2221 22.4544 52.0507 22.5581 51.9149Z" fill="black"/>
<path d="M28.6266 58.1331C28.6856 57.9117 30.1339 52.6941 34.6394 51.6756C38.0134 50.6885 41.2622 49.316 44.322 47.5852C44.4694 47.5091 44.6406 47.493 44.7997 47.5404C44.9587 47.5876 45.0932 47.6947 45.1751 47.8391C45.2568 47.9834 45.2797 48.1539 45.2386 48.3146C45.1976 48.4755 45.0958 48.614 44.9548 48.7015C41.7888 50.5026 38.4202 51.9221 34.9199 52.9302C31.1819 53.7715 29.8793 58.4172 29.8664 58.4652C29.8184 58.6252 29.71 58.76 29.5642 58.8414C29.4184 58.9226 29.2467 58.944 29.0854 58.9008C28.924 58.8576 28.786 58.7532 28.7004 58.6099C28.6146 58.4667 28.5882 58.2957 28.6266 58.1331Z" fill="black"/>
<path d="M32.9168 65.548C32.7469 65.5325 32.5902 65.4504 32.481 65.3194C32.3718 65.1884 32.3192 65.0194 32.3347 64.8497C32.35 64.6799 32.4323 64.5231 32.5633 64.4141C32.6941 64.3048 32.8631 64.2521 33.033 64.2676C34.2175 64.3619 35.4079 64.1798 36.5103 63.7357C37.6125 63.2916 38.5968 62.5977 39.3854 61.7086C41.9038 58.168 45.1602 59.7602 47.8133 57.7842C50.5956 55.7123 56.5494 51.9245 56.8003 51.764C56.944 51.6727 57.1184 51.6424 57.2846 51.6795C57.4509 51.7168 57.5955 51.8184 57.6868 51.9623C57.778 52.1063 57.8084 52.2804 57.7712 52.4467C57.7341 52.6129 57.6322 52.7575 57.4885 52.8489C57.4276 52.8876 51.3262 56.7713 48.5808 58.8156C45.6178 61.0296 42.5551 59.4706 40.4333 62.4521C39.5379 63.5541 38.3813 64.4148 37.0684 64.9554C35.7557 65.4962 34.3284 65.6999 32.9168 65.548Z" fill="black"/>
<path d="M36.3673 73.5924C37.7274 71.0363 39.9719 69.0629 42.6809 68.0408C43.7676 67.6718 44.7786 67.4079 45.7085 67.157C52.6586 65.2825 49.1273 64.919 53.7951 61.7678C54.1461 61.5619 54.4654 61.3065 54.7435 61.0095C54.8488 60.8785 55.0012 60.794 55.1682 60.7741C55.335 60.7541 55.5031 60.8006 55.6361 60.9032C55.7693 61.0058 55.8568 61.1565 55.88 61.3231C55.9031 61.4895 55.8601 61.6585 55.7601 61.7936C55.4034 62.2045 54.983 62.5552 54.5147 62.8323C50.3856 65.6183 53.2324 66.4559 46.0425 68.3969C45.1347 68.6422 44.1458 68.9098 43.0905 69.2622C40.7106 70.1874 38.7357 71.9263 37.5167 74.1699C37.4401 74.3223 37.3062 74.4381 37.1442 74.4916C36.9822 74.5453 36.8056 74.5324 36.6533 74.4558C36.5009 74.3793 36.3852 74.2453 36.3315 74.0833C36.2778 73.9213 36.2907 73.7448 36.3673 73.5924Z" fill="black"/>
<path fill-rule="evenodd" clip-rule="evenodd" d="M39.9102 46.2567C39.9102 46.2567 49.6757 75.9704 57.1461 96.7894C57.1461 96.7894 86.7898 86.2858 94.4151 82.2139C94.4151 82.2139 83.4337 43.0039 79.3913 33.4229C65.9285 36.7075 52.7311 40.9975 39.9102 46.2567Z" fill="white"/>
<path d="M57.1462 97.4336C57.0138 97.4332 56.8848 97.3921 56.7765 97.3159C56.6684 97.2395 56.5861 97.1319 56.5411 97.0074C49.1611 76.419 39.3992 46.7551 39.2995 46.4544C39.2488 46.2998 39.2588 46.1317 39.3272 45.9841C39.3957 45.8363 39.5178 45.7203 39.6685 45.6592C52.5184 40.3919 65.7439 36.0923 79.2346 32.7959C79.3813 32.7608 79.5357 32.7787 79.6707 32.846C79.8056 32.9136 79.9126 33.0265 79.9726 33.1649C83.9855 42.6721 94.9171 81.6404 95.0222 82.0334C95.0617 82.174 95.0519 82.3238 94.9946 82.4579C94.9372 82.5922 94.8355 82.7027 94.7067 82.7714C87.2677 86.7566 57.4341 97.4336 57.1462 97.4336ZM40.7091 46.6241C42.0855 50.8012 50.7496 77.0168 57.5355 95.9705C61.6979 94.4945 86.1589 85.7105 93.6477 81.8876C92.3765 77.3655 82.8803 43.7736 79.0021 34.1796C65.9532 37.3945 53.1551 41.5537 40.7091 46.6241Z" fill="black"/>
<path d="M47.8375 53.8748C47.7093 53.8745 47.5842 53.8357 47.4783 53.7636C47.3724 53.6916 47.2903 53.5894 47.2429 53.4704C47.1954 53.3512 47.1847 53.2208 47.212 53.0955C47.2395 52.9704 47.3037 52.8562 47.3965 52.7678C49.2157 51.0225 50.7987 49.2771 53.3411 48.9339C55.8835 48.5907 58.8097 49.5944 60.6879 47.7051C62.3829 45.94 64.5602 44.7131 66.948 44.1775C68.55 43.7052 70.2079 43.4482 71.8778 43.4137C73.2917 43.41 74.6959 43.1821 76.0383 42.7384C76.1944 42.6701 76.3713 42.6666 76.5298 42.7288C76.6885 42.7908 76.816 42.9135 76.8843 43.0696C76.9525 43.2257 76.956 43.4024 76.8938 43.5611C76.8319 43.7198 76.7092 43.8473 76.5531 43.9155C74.0992 44.9912 70.2118 44.3989 67.3705 45.3915C65.1687 45.866 63.1589 46.9878 61.5994 48.6129C59.2691 50.9523 55.902 49.8896 53.5146 50.2088C50.4888 50.6036 48.6327 53.8748 47.8375 53.8748Z" fill="black"/>
<path d="M50.1518 60.8713C50.8253 60.41 56.7938 56.3271 59.5281 56.5521C61.8971 56.7164 65.4155 55.8916 66.6757 54.447C68.279 52.6131 72.8841 52.4858 74.0963 51.757C74.2429 51.669 74.4188 51.6428 74.5848 51.6843C74.751 51.7258 74.8937 51.8315 74.9819 51.9784C75.0699 52.1253 75.0961 52.3009 75.0546 52.4669C75.013 52.6332 74.9071 52.776 74.7605 52.864C73.3583 53.7108 68.8565 53.9212 67.6443 55.2994C66.0631 57.1093 62.1517 58.0282 59.4377 57.8418C57.5485 57.7237 52.6112 60.7532 50.8751 61.9377C50.7336 62.0336 50.56 62.0694 50.3921 62.0372C50.2244 62.005 50.0762 61.9074 49.9803 61.7661C49.8843 61.6246 49.8485 61.451 49.8806 61.2831C49.9129 61.1154 50.0103 60.9672 50.1518 60.8713Z" fill="black"/>
<path d="M52.5711 69.0626C53.5102 68.1401 58.3164 63.5811 60.8385 64.5036C63.43 65.0964 66.1503 64.6739 68.4399 63.3228C70.4602 61.8726 75.2148 61.7139 77.0469 60.8228C77.1978 60.7634 77.3657 60.7636 77.5166 60.8228C77.6677 60.8822 77.7906 60.9966 77.8607 61.1429C77.9308 61.2892 77.9428 61.4566 77.8946 61.6115C77.8463 61.7663 77.7411 61.8973 77.6004 61.9778C75.7185 62.9003 70.7849 63.2139 69.1798 64.3652C67.8752 65.1567 66.4272 65.6829 64.9189 65.9137C63.4107 66.1445 61.8717 66.0753 60.3902 65.7102C59.0987 65.2416 55.5563 67.9242 53.4641 69.9777C53.3397 70.0784 53.1822 70.129 53.0224 70.1196C52.8628 70.1104 52.7122 70.0415 52.6004 69.9271C52.4888 69.8126 52.4239 69.6604 52.4183 69.5006C52.413 69.3406 52.4674 69.1845 52.5711 69.0626Z" fill="black"/>
<path d="M55.2535 76.441C55.1118 76.4414 54.9738 76.3949 54.8612 76.3089C54.7487 76.2227 54.6679 76.1019 54.6312 75.965C54.5946 75.8281 54.6042 75.6829 54.6586 75.5521C54.7133 75.4213 54.8094 75.312 54.9324 75.2417C57.3647 73.741 60.0361 72.6683 62.8309 72.0702C70.0522 71.0314 65.8013 70.3968 75.506 67.2252C77.7178 66.6529 79.8453 65.7939 81.8344 64.6699C81.9503 64.545 82.1111 64.4716 82.2812 64.4653C82.4515 64.459 82.6172 64.5206 82.7421 64.6367C82.8668 64.7525 82.9405 64.9134 82.9467 65.0837C82.9528 65.2538 82.8912 65.4197 82.7753 65.5444C81.7255 66.6717 78.1776 67.7031 75.9046 68.4448C66.401 71.5499 70.5282 72.2584 63.0135 73.3432C59.4933 73.8506 55.7055 76.441 55.2535 76.441Z" fill="black"/>
<path d="M56.8444 83.5124C58.3979 82.0171 60.2776 80.903 62.3351 80.2578C65.7484 79.5014 66.7299 81.5493 67.7631 79.1361C68.3166 77.8206 68.9365 77.0642 70.4217 77.0642C70.9359 77.0426 71.4415 77.2025 71.8498 77.5158C72.2583 77.8291 72.5435 78.2759 72.656 78.7782C72.6856 78.8538 72.7206 78.9534 72.7538 79.0291C73.3667 78.6981 73.8691 78.1946 74.1985 77.5807C75.7815 75.2247 76.7722 75.1822 81.1338 74.2136C82.4449 73.9832 83.7338 73.6406 84.9862 73.1896C85.1116 73.081 85.2744 73.0253 85.4402 73.0341C85.6059 73.0428 85.7618 73.1155 85.8751 73.2367C85.9886 73.3579 86.0506 73.5184 86.0482 73.6843C86.0458 73.8503 85.9793 74.0088 85.8625 74.1269C84.4744 74.8474 82.9639 75.3024 81.4087 75.4682C76.9364 76.4535 76.4844 76.483 75.2649 78.2966C74.8494 79.0259 74.2551 79.6374 73.538 80.0733C72.5084 80.6398 71.8553 80.3261 71.4513 79.2228C71.2299 78.625 71.0823 78.3427 70.3885 78.3483C69.5288 78.3612 69.3129 78.7763 68.9439 79.6398C68.8325 80.0401 68.633 80.4106 68.3601 80.7241C68.0873 81.0375 67.7478 81.2861 67.3664 81.4516C66.6622 81.6759 65.9085 81.6933 65.1949 81.5014C64.345 81.3019 63.4602 81.3053 62.6119 81.5106C60.789 82.1117 59.1241 83.1134 57.7392 84.4423C57.616 84.5609 57.4505 84.6257 57.2794 84.6226C57.1082 84.6192 56.9455 84.548 56.8269 84.4248C56.7082 84.3015 56.6433 84.136 56.6466 83.965C56.6499 83.7938 56.7211 83.6311 56.8444 83.5124Z" fill="black"/>
<path d="M297.124 222.367C296.957 221.932 280.027 178.984 248.21 182.454C244.252 182.78 240.415 183.978 236.974 185.96C237.874 187.111 238.64 188.362 239.254 189.687C241.099 193.731 241.099 197.937 239.238 200.4C238.778 201.055 238.143 201.568 237.405 201.878C236.669 202.19 235.859 202.286 235.07 202.157C228.243 201.15 226.863 191.533 235.046 185.639C231.029 181.104 222.841 175.646 206.411 174.482C169.308 171.868 156.699 195.168 156.578 195.404C156.499 195.556 156.364 195.67 156.201 195.722C156.039 195.771 155.863 195.757 155.711 195.679C155.56 195.6 155.446 195.465 155.395 195.303C155.344 195.139 155.359 194.963 155.437 194.812C155.565 194.568 168.474 170.515 206.502 173.202C223.476 174.403 231.963 180.155 236.119 184.921C239.773 182.795 243.856 181.513 248.068 181.17C280.909 177.602 298.154 221.456 298.326 221.898C298.388 222.057 298.385 222.236 298.314 222.391C298.246 222.548 298.119 222.671 297.958 222.734C297.8 222.795 297.623 222.791 297.466 222.723C297.309 222.655 297.187 222.526 297.124 222.367ZM235.904 186.677C228.503 191.982 229.631 200.065 235.258 200.884C235.819 200.974 236.393 200.904 236.915 200.681C237.437 200.46 237.885 200.094 238.21 199.627C239.501 197.912 239.959 194.338 238.081 190.218C237.496 188.958 236.765 187.77 235.904 186.677Z" fill="black"/>
<path fill-rule="evenodd" clip-rule="evenodd" d="M305.429 232.102C305.429 232.102 291.859 263.981 288.518 272.372L324.419 288.182C324.419 288.182 339.364 253.201 342.844 244.55L305.429 232.102Z" fill="white"/>
<path d="M324.418 288.83C324.2 288.83 324.377 288.917 288.256 272.963C288.105 272.895 287.985 272.771 287.922 272.618C287.857 272.463 287.857 272.291 287.918 272.136C291.223 263.834 304.708 232.17 304.835 231.853C304.896 231.701 305.012 231.58 305.16 231.511C305.307 231.443 305.475 231.434 305.63 231.484L343.045 243.932C343.128 243.96 343.204 244.004 343.27 244.063C343.335 244.122 343.388 244.192 343.423 244.271C343.46 244.351 343.48 244.437 343.484 244.524C343.486 244.613 343.471 244.699 343.438 244.781C339.988 253.34 325.156 288.077 325.005 288.428C324.957 288.546 324.877 288.645 324.772 288.717C324.667 288.789 324.545 288.828 324.418 288.83ZM289.344 272.04L324.084 287.337C326.021 282.795 338.416 253.74 341.993 244.948L305.789 232.902C304.021 237.056 292.723 263.637 289.344 272.04Z" fill="black"/>
<path fill-rule="evenodd" clip-rule="evenodd" d="M307.632 236.643L337.994 247.039L326.833 272.655L297.393 260.146L307.632 236.643Z" fill="#81F889"/>
<path d="M338.58 246.778C338.405 246.378 338.646 246.546 307.839 236.035C307.685 235.983 307.519 235.991 307.372 236.055C307.224 236.12 307.106 236.238 307.042 236.386L296.802 259.889C296.769 259.967 296.75 260.051 296.75 260.136C296.748 260.221 296.765 260.304 296.796 260.383C296.828 260.463 296.874 260.535 296.933 260.596C296.992 260.657 297.064 260.705 297.141 260.738L326.582 273.247C326.739 273.313 326.914 273.313 327.071 273.251C327.228 273.188 327.353 273.066 327.421 272.911C338.803 246.926 338.757 247.183 338.58 246.778ZM330.058 263.642C329.927 260.505 329.46 253.125 326.458 254.033C323.894 254.797 315.816 259.968 313.27 261.622C310.887 252.028 309.649 252.301 309.125 252.426C305.658 254.085 302.289 255.943 299.034 257.989L307.984 237.443L337.126 247.421L330.058 263.642Z" fill="black"/>
<path fill-rule="evenodd" clip-rule="evenodd" d="M314.884 244.126C315.408 244.15 315.914 244.329 316.338 244.637C316.763 244.947 317.087 245.373 317.27 245.866C317.454 246.356 317.49 246.891 317.371 247.404C317.253 247.915 316.99 248.38 316.609 248.744C316.229 249.105 315.752 249.349 315.235 249.441C314.718 249.535 314.185 249.474 313.704 249.268C313.22 249.061 312.811 248.718 312.521 248.279C312.231 247.842 312.078 247.329 312.078 246.803C312.097 246.076 312.401 245.386 312.927 244.884C313.455 244.382 314.157 244.109 314.884 244.126Z" fill="white"/>
<path d="M314.884 250.122C314.233 250.096 313.603 249.88 313.076 249.5C312.546 249.12 312.14 248.594 311.91 247.986C311.677 247.377 311.629 246.712 311.771 246.078C311.915 245.441 312.24 244.862 312.71 244.412C313.179 243.96 313.771 243.655 314.412 243.537C315.052 243.419 315.712 243.493 316.312 243.748C316.912 244.002 317.423 244.427 317.782 244.971C318.142 245.513 318.334 246.15 318.334 246.801C318.316 247.698 317.943 248.552 317.295 249.176C316.648 249.797 315.781 250.139 314.884 250.122ZM314.884 244.772C314.487 244.796 314.105 244.936 313.786 245.176C313.469 245.414 313.227 245.74 313.091 246.115C312.956 246.489 312.934 246.895 313.028 247.283C313.12 247.67 313.325 248.021 313.615 248.294C313.906 248.567 314.269 248.748 314.661 248.816C315.054 248.884 315.458 248.834 315.823 248.676C316.186 248.517 316.498 248.255 316.716 247.923C316.934 247.589 317.05 247.2 317.048 246.801C317.03 246.246 316.79 245.72 316.386 245.338C315.98 244.958 315.439 244.753 314.884 244.768V244.772Z" fill="black"/>
</svg>
