<svg width="663" height="389" viewBox="0 0 663 389" fill="none" xmlns="http://www.w3.org/2000/svg">
<path fill-rule="evenodd" clip-rule="evenodd" d="M74.9846 319.2L71.3145 318.194C71.3145 318.194 70.0478 201.152 69.5633 174.18C69.5509 173.468 69.6794 172.761 69.9413 172.099C70.2033 171.437 70.5937 170.834 71.0898 170.323C71.5859 169.813 72.1782 169.406 72.8325 169.125C73.4868 168.844 74.1899 168.696 74.9016 168.689C101.61 168.41 216.629 166.502 243.355 166.221C245.078 166.205 246.77 166.671 248.242 167.567C249.104 168.221 249.707 169.16 249.943 170.215C250.009 170.519 79.1335 172.034 79.1335 172.034C79.1335 172.034 73.2768 171.484 73.29 176.443C73.3032 181.403 74.9846 319.2 74.9846 319.2Z" fill="#81F889"/>
<path fill-rule="evenodd" clip-rule="evenodd" d="M249.956 170.176L249.947 305.419L74.9829 319.2L73.0394 176.351C73.0319 175.775 73.1384 175.203 73.3523 174.669C73.5665 174.134 73.8841 173.647 74.2869 173.236C74.6898 172.824 75.1699 172.496 75.6999 172.27C76.2298 172.045 76.7991 171.926 77.3749 171.921L249.956 170.176Z" fill="white"/>
<path fill-rule="evenodd" clip-rule="evenodd" d="M74.9844 319.2L250.229 305.338L365.041 337.98L191.967 354.738L74.9844 319.2Z" fill="#81F889"/>
<path fill-rule="evenodd" clip-rule="evenodd" d="M74.9844 319.2C74.9844 325.577 79.5536 330.229 85.7289 331.815C114.42 339.183 191.773 360.024 191.773 360.024L365.037 342.67V337.98L191.967 354.738L74.9844 319.2Z" fill="white"/>
<path d="M365.175 337.333L250.883 304.844L250.704 171.157C250.699 170.361 250.508 169.577 250.15 168.865C249.794 168.154 249.277 167.534 248.642 167.054C247.07 166.082 245.259 165.568 243.411 165.57C243.411 165.57 88.2399 167.9 74.8922 168.038C74.0937 168.046 73.3047 168.212 72.5708 168.527C71.8368 168.841 71.1725 169.298 70.6161 169.871C70.0596 170.444 69.6221 171.121 69.329 171.863C69.0357 172.606 68.8922 173.4 68.9073 174.198C69.3861 200.859 70.6453 317.036 70.6585 318.212C70.6596 318.355 70.7071 318.493 70.7938 318.606C70.8805 318.719 71.0018 318.8 71.1392 318.838L74.3437 319.714C74.5718 325.782 78.9299 330.755 85.5764 332.463C113.938 339.742 190.839 360.46 191.613 360.668L365.114 343.326C365.276 343.311 365.427 343.235 365.537 343.115C365.646 342.994 365.706 342.836 365.706 342.674V337.98C365.704 337.827 365.652 337.68 365.555 337.563C365.457 337.445 365.324 337.364 365.175 337.333ZM361.52 337.66L192.032 354.072L78.4926 319.577L250.16 306.005L361.52 337.66ZM71.9648 317.692C71.8724 309.345 70.683 199.943 70.2174 174.168C70.2061 173.543 70.3188 172.921 70.5488 172.34C70.7786 171.759 71.1214 171.228 71.5571 170.78C71.9929 170.332 72.5131 169.974 73.0877 169.727C73.6624 169.481 74.2801 169.351 74.9054 169.344C88.255 169.206 229.994 167.016 243.362 166.877C244.936 166.866 246.482 167.283 247.837 168.083C248.339 168.467 248.744 168.962 249.021 169.529L77.3578 171.265C76.6969 171.272 76.0437 171.409 75.436 171.669C74.8281 171.928 74.2775 172.305 73.8157 172.778C73.3537 173.251 72.9897 173.81 72.7441 174.424C72.4986 175.037 72.3767 175.694 72.3852 176.354L74.3135 318.329L71.9648 317.692ZM73.6933 176.341C73.6869 175.852 73.7768 175.366 73.9582 174.912C74.1397 174.458 74.4089 174.044 74.7505 173.694C75.092 173.344 75.4994 173.064 75.9489 172.871C76.3985 172.679 76.8818 172.577 77.371 172.571C230.131 171.022 247.294 170.956 249.132 170.956C249.451 170.956 249.389 171.073 249.389 171.144L249.566 304.723L75.6255 318.483L73.6933 176.341ZM75.6688 320.095L191.291 355.218L191.148 359.177C182.865 356.947 112.702 338.065 85.8931 331.181C79.8988 329.639 76.0571 325.435 75.6707 320.095H75.6688ZM364.381 342.076L192.448 359.296L192.593 355.337L364.375 338.702L364.381 342.076Z" fill="black"/>
<path d="M288.112 323.445L242.174 311.057L115.879 320.361C115.724 320.372 115.579 320.44 115.468 320.549C115.358 320.659 115.29 320.802 115.276 320.959C115.262 321.113 115.304 321.268 115.394 321.394C115.484 321.52 115.616 321.611 115.766 321.65L165 334.022L287.989 324.725C288.14 324.71 288.279 324.642 288.387 324.534C288.492 324.427 288.558 324.286 288.573 324.135C288.589 323.984 288.549 323.833 288.466 323.707C288.381 323.582 288.257 323.488 288.112 323.445Z" fill="black"/>
<path d="M309.645 336.529L277.651 329.385L197.793 335.268C197.639 335.281 197.494 335.349 197.385 335.458C197.275 335.568 197.207 335.711 197.194 335.865C197.18 336.02 197.222 336.175 197.311 336.301C197.4 336.427 197.53 336.519 197.68 336.559L228.873 344.389L309.551 337.82C309.704 337.803 309.847 337.733 309.954 337.624C310.062 337.513 310.126 337.368 310.137 337.213C310.149 337.06 310.105 336.908 310.015 336.781C309.926 336.657 309.794 336.567 309.645 336.529Z" fill="black"/>
<path fill-rule="evenodd" clip-rule="evenodd" d="M246.673 174.285L77.6523 176.951L78.0991 315.179L246.366 301.4L246.673 174.285Z" fill="white"/>
<path d="M247.132 173.819L77.6348 176.294C77.462 176.296 77.2971 176.367 77.1758 176.49C77.0546 176.613 76.9873 176.78 76.9883 176.952L77.435 315.181C77.4365 315.355 77.5065 315.52 77.6296 315.643C77.7528 315.766 77.9193 315.835 78.0929 315.835L246.423 302.054C246.587 302.041 246.74 301.965 246.851 301.845C246.963 301.724 247.027 301.566 247.027 301.402C247.519 173.861 247.449 174.128 247.132 173.819ZM137.237 176.668L195.551 175.748L195.274 244.377L136.954 247.065L137.237 176.668ZM135.389 309.828L78.7432 314.467L78.5396 251.014L135.636 248.443L135.389 309.828ZM135.64 247.123L78.5359 249.7L78.3021 177.595L135.921 176.688L135.64 247.123ZM136.948 248.377L195.274 245.691L195.036 304.946L136.709 309.72L136.948 248.377ZM245.713 300.795L196.354 304.836L196.593 245.63L245.854 243.368L245.713 300.795ZM245.856 242.047L196.599 244.309L196.874 175.719L246.022 174.945L245.856 242.047Z" fill="black"/>
<path d="M108.885 204.217C104.593 204.217 103.166 211.286 107.049 213.642V223.894C107.049 223.981 107.066 224.066 107.099 224.145C107.132 224.226 107.18 224.298 107.242 224.358C107.303 224.42 107.375 224.467 107.455 224.501C107.535 224.533 107.62 224.55 107.707 224.55H110.072C110.246 224.55 110.413 224.481 110.536 224.358C110.659 224.236 110.728 224.068 110.728 223.894V213.642C114.596 211.291 113.184 204.217 108.885 204.217Z" fill="black"/>
<path d="M222.591 199.023C218.293 199.023 216.878 206.094 220.755 208.448V218.701C220.756 218.874 220.825 219.042 220.948 219.165C221.072 219.287 221.239 219.357 221.413 219.357H223.769C223.943 219.357 224.11 219.287 224.234 219.165C224.357 219.042 224.427 218.874 224.427 218.701V208.448C228.308 206.092 226.889 199.023 222.591 199.023Z" fill="black"/>
<path d="M222.592 266.102C218.302 266.102 216.871 273.172 220.756 275.527V285.766C220.757 285.939 220.826 286.107 220.949 286.23C221.073 286.352 221.24 286.422 221.414 286.422H223.77C223.944 286.422 224.111 286.352 224.235 286.23C224.358 286.107 224.427 285.939 224.428 285.766V275.513C228.304 273.178 226.895 266.102 222.592 266.102Z" fill="black"/>
<path d="M108.881 274.725C104.591 274.725 103.16 281.793 107.045 284.15C107.045 295.294 106.958 294.6 107.252 294.879C107.547 295.158 107.55 295.068 110.095 294.926C110.263 294.917 110.42 294.845 110.536 294.723C110.652 294.602 110.716 294.44 110.717 294.272V284.15C114.598 281.807 113.183 274.725 108.881 274.725Z" fill="black"/>
<path d="M167.775 270.412C163.478 270.412 162.06 277.485 165.939 279.837C165.939 290.981 165.853 290.286 166.147 290.567C166.441 290.847 166.462 290.755 168.991 290.614C169.159 290.604 169.316 290.531 169.431 290.408C169.546 290.286 169.611 290.125 169.611 289.958V279.837C173.493 277.483 172.073 270.412 167.775 270.412Z" fill="black"/>
<path fill-rule="evenodd" clip-rule="evenodd" d="M136.555 203.657L177.231 214.381L176.651 257.613L136.555 244.733V203.657Z" fill="white"/>
<path fill-rule="evenodd" clip-rule="evenodd" d="M180.367 276.264L176.531 273.248L177.363 203.584L236.646 202.792L240.25 205.193L180.763 206.238L180.367 276.264Z" fill="white"/>
<path fill-rule="evenodd" clip-rule="evenodd" d="M240.25 205.198L180.763 206.243L180.367 276.263L240.25 274.389V205.198Z" fill="white"/>
<path d="M211.842 231.323C207.544 231.323 206.126 238.396 210.006 240.739V250.991C210.006 251.167 210.075 251.333 210.198 251.457C210.322 251.579 210.489 251.649 210.664 251.649H213.018C213.192 251.649 213.36 251.579 213.483 251.457C213.607 251.333 213.676 251.167 213.676 250.991V240.739C217.555 238.396 216.141 231.323 211.842 231.323Z" fill="black"/>
<path d="M240.614 204.653C236.742 202.073 236.933 202.141 236.635 202.141L177.352 202.931C177.181 202.934 177.018 203.002 176.897 203.125C176.776 203.245 176.708 203.408 176.705 203.579L176.586 213.53L136.722 203.023C136.626 202.997 136.524 202.995 136.426 203.014C136.328 203.034 136.236 203.076 136.156 203.136C136.077 203.196 136.012 203.276 135.968 203.364C135.923 203.455 135.899 203.553 135.899 203.653L135.633 244.421C135.632 244.561 135.676 244.697 135.758 244.81C135.839 244.923 135.955 245.006 136.087 245.049L176.049 258.029L175.861 273.243C175.861 273.694 175.936 273.56 179.938 276.77C180.16 276.949 179.938 276.894 240.258 275.045C240.429 275.039 240.59 274.968 240.708 274.845C240.827 274.723 240.895 274.559 240.895 274.387V205.198C240.895 205.091 240.87 204.985 240.821 204.891C240.772 204.797 240.701 204.714 240.614 204.653ZM137.116 218.344L176.36 232.546L176.262 240.719L137.064 226.533L137.116 218.344ZM176.571 214.889L176.383 231.164L137.126 216.963L137.207 204.522L176.571 214.889ZM176.072 256.663L136.949 243.956L137.054 227.933L176.238 242.105L176.072 256.663ZM179.715 274.924L177.19 272.941L178 204.925L180.104 206.567L179.715 274.924ZM179.237 204.226L236.45 203.462L238.135 204.593L180.982 205.596L179.237 204.226ZM239.592 273.759L181.026 275.592L181.416 206.893L239.592 205.873V273.759Z" fill="black"/>
<path d="M416.956 30.222L410.477 25.7847L416.956 21.3475C417.094 21.2468 417.186 21.0966 417.214 20.9286C417.244 20.7607 417.207 20.5882 417.111 20.4477C417.014 20.3071 416.866 20.2095 416.7 20.1755C416.532 20.1414 416.359 20.1737 416.215 20.2655L409.974 24.5406V16.9762C409.974 16.8012 409.904 16.6334 409.782 16.5096C409.657 16.3859 409.49 16.3164 409.314 16.3164C409.139 16.3164 408.971 16.3859 408.849 16.5096C408.724 16.6334 408.655 16.8012 408.655 16.9762V24.5406L402.415 20.2655C402.272 20.1737 402.099 20.1414 401.931 20.1755C401.765 20.2095 401.618 20.3071 401.522 20.4477C401.424 20.5882 401.386 20.7607 401.416 20.9286C401.444 21.0966 401.537 21.2468 401.674 21.3475L408.153 25.7847L401.674 30.222C401.559 30.302 401.473 30.4168 401.427 30.5496C401.38 30.6825 401.378 30.8264 401.422 30.9604C401.463 31.0944 401.548 31.2113 401.661 31.2942C401.774 31.3772 401.912 31.4215 402.051 31.4209C402.34 31.4209 401.863 31.6942 408.662 27.0288V34.5933C408.662 34.7683 408.732 34.9362 408.856 35.0599C408.979 35.1835 409.147 35.2531 409.322 35.2531C409.497 35.2531 409.665 35.1835 409.789 35.0599C409.912 34.9362 409.982 34.7683 409.982 34.5933V27.0288C416.792 31.6942 416.304 31.4209 416.592 31.4209C416.732 31.4186 416.867 31.3723 416.979 31.2884C417.09 31.2045 417.171 31.0874 417.212 30.9542C417.252 30.8209 417.248 30.678 417.203 30.5464C417.158 30.4149 417.071 30.3014 416.956 30.222Z" fill="black"/>
<path d="M297.342 275.468L290.865 271.031L297.342 266.593C297.476 266.492 297.567 266.343 297.593 266.177C297.619 266.011 297.582 265.841 297.487 265.702C297.391 265.562 297.248 265.466 297.082 265.43C296.918 265.395 296.747 265.425 296.603 265.511L290.362 269.785V262.22C290.362 262.045 290.292 261.877 290.17 261.755C290.045 261.63 289.878 261.561 289.702 261.561C289.527 261.561 289.359 261.63 289.237 261.755C289.112 261.877 289.043 262.045 289.043 262.22V269.785L282.801 265.511C282.658 265.425 282.487 265.395 282.323 265.43C282.157 265.466 282.013 265.562 281.917 265.702C281.823 265.841 281.785 266.011 281.812 266.177C281.84 266.343 281.929 266.492 282.062 266.593L288.539 271.031L282.062 275.468C281.923 275.566 281.829 275.713 281.797 275.879C281.765 276.047 281.8 276.218 281.893 276.36C281.987 276.501 282.132 276.601 282.298 276.637C282.464 276.673 282.637 276.642 282.781 276.552C283.242 276.273 284.566 275.342 289.043 272.275V279.839C289.043 280.015 289.112 280.182 289.237 280.307C289.359 280.429 289.527 280.499 289.702 280.499C289.878 280.499 290.045 280.429 290.17 280.307C290.292 280.182 290.362 280.015 290.362 279.839V272.275C297.171 276.938 296.684 276.665 296.973 276.665C297.112 276.665 297.25 276.62 297.361 276.537C297.474 276.454 297.557 276.337 297.599 276.203C297.64 276.069 297.636 275.926 297.591 275.794C297.544 275.66 297.457 275.547 297.342 275.468Z" fill="black"/>
<path d="M190.952 30.222L184.473 25.7847L190.952 21.3475C191.09 21.2468 191.182 21.0966 191.211 20.9286C191.24 20.7607 191.202 20.5882 191.106 20.4477C191.009 20.3071 190.862 20.2095 190.695 20.1755C190.529 20.1414 190.355 20.1737 190.211 20.2655L183.968 24.5406V16.9762C183.968 16.8012 183.899 16.6334 183.775 16.5096C183.651 16.3859 183.483 16.3164 183.308 16.3164C183.134 16.3164 182.966 16.3859 182.842 16.5096C182.718 16.6334 182.649 16.8012 182.649 16.9762V24.5406L176.407 20.2655C176.264 20.1737 176.09 20.1414 175.923 20.1755C175.756 20.2095 175.609 20.3071 175.513 20.4477C175.417 20.5882 175.379 20.7607 175.408 20.9286C175.436 21.0966 175.529 21.2468 175.667 21.3475L182.145 25.7847L175.674 30.222C175.559 30.302 175.472 30.4168 175.426 30.5496C175.381 30.6825 175.379 30.8264 175.421 30.9604C175.463 31.0944 175.547 31.2113 175.66 31.2942C175.774 31.3772 175.911 31.4215 176.051 31.4209C176.34 31.4209 175.863 31.6942 182.662 27.0288V34.5933C182.662 34.7683 182.731 34.9362 182.855 35.0599C182.979 35.1835 183.147 35.2531 183.322 35.2531C183.497 35.2531 183.664 35.1835 183.788 35.0599C183.912 34.9362 183.981 34.7683 183.981 34.5933V27.0288C190.79 31.6942 190.304 31.4209 190.592 31.4209C190.731 31.4179 190.866 31.3709 190.976 31.2869C191.087 31.2026 191.168 31.0856 191.208 30.9525C191.248 30.8192 191.245 30.6769 191.199 30.5457C191.153 30.4143 191.067 30.3012 190.952 30.222Z" fill="black"/>
<path d="M179.416 194.813C179.248 194.572 162.639 170.28 171.666 142.976C174.482 134.461 178.064 129.821 181.334 127.312C179.067 121.562 178.501 109.519 193.238 87.3779C214.115 56.002 243.79 59.5044 244.084 59.5439C244.169 59.5549 244.252 59.5826 244.327 59.6256C244.403 59.6687 244.469 59.726 244.52 59.7946C244.572 59.8631 244.612 59.9415 244.635 60.0248C244.655 60.1083 244.661 60.1954 244.65 60.281C244.625 60.4525 244.535 60.6076 244.399 60.7134C244.261 60.8191 244.088 60.8668 243.916 60.8465C243.63 60.805 214.737 57.4346 194.332 88.1036C180.145 109.425 180.386 120.965 182.441 126.535C191.054 121.006 199.464 127.623 196.556 132.703C194.364 136.548 185.591 135.951 181.885 128.541C178.869 130.94 175.57 135.353 172.916 143.389C164.102 170.056 180.328 193.826 180.494 194.063C180.593 194.206 180.632 194.384 180.601 194.555C180.57 194.725 180.473 194.878 180.33 194.977C180.259 195.026 180.179 195.062 180.095 195.079C180.011 195.098 179.924 195.1 179.839 195.085C179.667 195.055 179.515 194.957 179.416 194.813ZM182.963 127.756C183.705 129.441 184.896 130.888 186.406 131.94C187.916 132.992 189.686 133.608 191.523 133.721C195.397 133.773 196.786 130.98 195.153 128.569C193.167 125.636 187.983 124.429 182.963 127.756Z" fill="black"/>
<path fill-rule="evenodd" clip-rule="evenodd" d="M269.683 76.6702C286.209 67.7161 304.322 62.069 323.008 60.0445L321.826 19.615C311.964 18.5652 301.99 19.5764 292.539 22.5843C283.088 25.5924 274.364 30.5316 266.922 37.089L269.683 76.6702Z" fill="#81F889"/>
<path d="M269.683 77.3266C269.517 77.3266 269.357 77.2635 269.234 77.1502C269.114 77.0369 269.038 76.8818 269.027 76.7159L266.267 37.1309C266.26 37.0312 266.277 36.9311 266.315 36.8384C266.352 36.7456 266.411 36.6627 266.484 36.5956C274.018 30.005 282.831 25.0379 292.371 22.0042C301.909 18.9704 311.973 17.9353 321.93 18.9633C322.08 18.9878 322.218 19.0641 322.318 19.1789C322.418 19.2939 322.476 19.4404 322.48 19.5929L323.664 60.0223C323.669 60.1878 323.611 60.3492 323.502 60.4738C323.392 60.5982 323.24 60.6768 323.076 60.6934C304.38 62.7833 286.258 68.4291 269.683 77.3266ZM267.609 37.3646L270.265 75.5887C286.475 67.0347 304.129 61.5635 322.335 59.4531L321.194 20.1923C311.564 19.2894 301.852 20.3455 292.64 23.2967C283.43 26.248 274.912 31.0335 267.6 37.3646H267.609Z" fill="black"/>
<path d="M304.692 39.4984L282.504 37.193C282.41 37.1832 282.315 37.1936 282.227 37.2239C282.136 37.2541 282.055 37.3033 281.985 37.3681C281.918 37.433 281.863 37.512 281.829 37.5994C281.793 37.6871 281.778 37.7811 281.782 37.8754L282.724 58.4728C282.73 58.5959 282.771 58.7148 282.841 58.8161C282.911 58.9171 283.009 58.9964 283.122 59.0449C283.235 59.0933 283.36 59.1088 283.482 59.0896C283.603 59.0703 283.718 59.0174 283.81 58.9365C283.944 58.8196 297.318 47.1534 305.046 40.652C305.144 40.5691 305.216 40.4592 305.254 40.3357C305.29 40.2124 305.288 40.081 305.25 39.9581C305.212 39.8352 305.141 39.7261 305.041 39.6445C304.941 39.5627 304.82 39.512 304.692 39.4984Z" fill="black"/>
<path d="M206.162 189.597C206.209 189.379 210.937 167.632 230.102 146.393C247.772 126.81 281.634 103.632 342.882 104.431C343.057 104.433 343.223 104.505 343.345 104.63C343.468 104.755 343.536 104.924 343.534 105.099C343.532 105.273 343.46 105.44 343.336 105.563C343.21 105.685 343.042 105.753 342.867 105.751C282.203 105.342 248.617 127.869 231.124 147.221C212.172 168.199 207.491 189.652 207.448 189.867C207.412 190.037 207.31 190.187 207.164 190.282C207.019 190.378 206.841 190.41 206.67 190.374C206.5 190.34 206.351 190.236 206.255 190.091C206.16 189.946 206.127 189.767 206.162 189.597Z" fill="black"/>
<path fill-rule="evenodd" clip-rule="evenodd" d="M361.447 87.3359C356.301 99.7424 352.597 112.7 350.41 125.952L398.444 141.392C402.958 130.55 406.419 119.298 408.777 107.792C398.796 103.598 388.451 100.328 377.873 98.0201L379.347 92.4782C373.714 89.7636 367.662 88.0249 361.447 87.3359Z" fill="white"/>
<path d="M398.441 142.05L350.206 126.578C350.055 126.529 349.929 126.428 349.846 126.294C349.765 126.159 349.733 126 349.759 125.845C351.963 112.545 355.682 99.5415 360.841 87.0871C360.892 86.9548 360.986 86.8434 361.109 86.7706C361.229 86.6979 361.373 86.6679 361.514 86.6856C367.802 87.3887 373.925 89.1491 379.627 91.892C379.764 91.9572 379.874 92.0681 379.94 92.2055C380.004 92.3431 380.019 92.4988 379.981 92.646L378.684 97.5187C389.063 99.8324 399.216 103.065 409.022 107.177C409.167 107.236 409.285 107.343 409.357 107.482C409.431 107.62 409.449 107.779 409.416 107.931C407.063 119.482 403.591 130.776 399.048 141.654C398.997 141.773 398.912 141.873 398.805 141.944C398.696 142.014 398.569 142.051 398.441 142.05ZM351.146 125.502L398.072 140.582C402.396 130.124 405.725 119.282 408.017 108.199C398.232 104.116 388.1 100.925 377.742 98.6648C377.653 98.6465 377.57 98.6107 377.499 98.5596C377.425 98.5084 377.363 98.4429 377.316 98.367C377.11 98.0296 377.15 98.1973 378.575 92.8458C373.297 90.3663 367.659 88.745 361.87 88.0428C356.916 100.093 353.32 112.656 351.146 125.502Z" fill="black"/>
<path d="M163.864 200.619C161.869 149.989 116.13 114.125 115.666 113.769C115.537 113.66 115.455 113.505 115.437 113.336C115.419 113.168 115.467 112.999 115.571 112.865C115.674 112.731 115.825 112.642 115.992 112.617C116.16 112.591 116.331 112.631 116.469 112.729C116.935 113.089 163.157 149.314 165.174 200.57C165.174 200.739 165.108 200.901 164.99 201.024C164.872 201.146 164.712 201.218 164.542 201.224C164.373 201.231 164.207 201.171 164.081 201.058C163.954 200.945 163.876 200.788 163.864 200.619Z" fill="black"/>
<path fill-rule="evenodd" clip-rule="evenodd" d="M121.128 68.691L86.7743 87.4882C86.7743 87.4882 79.2211 67.4563 58.4258 42.2237C68.6325 33.5514 79.6677 25.9041 91.3718 19.3926C102.872 33.319 115.334 48.9211 121.128 68.691Z" fill="white"/>
<path d="M86.7739 88.1442C86.6406 88.1444 86.5102 88.1039 86.4005 88.0281C86.2908 87.9523 86.2067 87.8449 86.1594 87.7201C86.0859 87.5203 78.3951 67.4827 57.9203 42.6403C57.811 42.5085 57.7577 42.3393 57.7718 42.1687C57.7859 41.9981 57.8662 41.8399 57.9957 41.728C68.2472 33.0321 79.3225 25.3571 91.0641 18.812C91.1974 18.7404 91.3512 18.7174 91.4996 18.7469C91.6479 18.7765 91.7812 18.8569 91.8766 18.9741C101.927 31.1456 115.692 47.8146 121.758 68.5063C121.798 68.649 121.789 68.8013 121.732 68.9381C121.674 69.075 121.573 69.1884 121.443 69.2603C86.8512 88.2026 87.0415 88.1442 86.7739 88.1442ZM59.3434 42.3048C77.528 64.4969 85.5694 82.8115 87.1075 86.557L120.348 68.3705C114.351 48.3895 101.068 32.1672 91.2055 20.2239C79.9098 26.559 69.2413 33.9525 59.3434 42.3048Z" fill="black"/>
<path d="M67.3517 45.1532C67.8814 43.2305 69.182 40.337 71.0387 41.1004C71.7569 41.4842 72.5918 41.5881 73.3822 41.3921C74.1725 41.196 74.8621 40.714 75.3177 40.0392C75.893 39.2924 76.2807 38.4183 76.4487 37.4907C78.2903 30.5803 83.8699 35.6585 89.31 30.2956C89.435 30.1737 89.6033 30.1064 89.7781 30.1084C89.9526 30.1105 90.1193 30.182 90.2412 30.3069C90.3632 30.4319 90.4305 30.6002 90.4284 30.7748C90.4263 30.9495 90.3549 31.1162 90.2299 31.2381C88.0573 33.3167 85.1834 34.5041 82.1772 34.5651C79.2913 34.8686 78.4543 35.0948 77.7267 37.8281C77.5084 38.9512 77.0228 40.0051 76.3111 40.9006C75.6736 41.7834 74.7428 42.4103 73.6853 42.6693C72.6278 42.9283 71.5124 42.8026 70.5392 42.3144C69.8757 42.0448 68.8898 44.5217 68.6184 45.5019C68.5722 45.6699 68.4612 45.8126 68.3096 45.8987C68.1581 45.9849 67.9786 46.0071 67.8107 45.9609C67.6427 45.9147 67.5 45.8035 67.4139 45.6522C67.3278 45.5006 67.3054 45.3211 67.3517 45.1532Z" fill="black"/>
<path d="M72.0492 53.04C73.9293 50.5507 76.1006 48.2953 78.5166 46.3219C81.3668 44.418 84.3055 47.468 86.3318 44.9194C88.6579 41.9845 88.984 39.0345 92.5523 37.4454C92.631 37.4104 92.716 37.3911 92.8021 37.3889C92.8881 37.3868 92.9738 37.4015 93.0543 37.4324C93.1348 37.4633 93.2083 37.5097 93.2707 37.5691C93.3333 37.6283 93.3834 37.6993 93.4185 37.7781C93.4536 37.8569 93.4726 37.9417 93.4749 38.0279C93.4771 38.1138 93.4624 38.1996 93.4315 38.2801C93.4006 38.3606 93.3542 38.4341 93.2948 38.4965C93.2355 38.5591 93.1644 38.6092 93.0858 38.6443C91.3835 39.5008 90.0457 40.9404 89.3158 42.7008C87.0538 46.6913 86.1622 47.7243 82.4035 47.1343C81.3573 46.8071 80.2243 46.9074 79.2518 47.4133C76.9596 49.3117 74.8939 51.4679 73.0954 53.8393C72.9894 53.978 72.8326 54.0689 72.6596 54.092C72.4865 54.1152 72.3114 54.0687 72.1727 53.9627C72.0339 53.8568 71.9429 53.7 71.9199 53.5269C71.8967 53.3539 71.9433 53.1788 72.0492 53.04Z" fill="black"/>
<path d="M78.248 59.3926C78.3084 59.1664 79.7881 53.8357 84.3913 52.7951C87.8384 51.7867 91.1576 50.3844 94.2837 48.6161C94.4343 48.5382 94.6093 48.5218 94.7718 48.5703C94.9342 48.6185 95.0717 48.7279 95.1554 48.8755C95.2389 49.0229 95.2622 49.1971 95.2202 49.3612C95.1784 49.5256 95.0743 49.6672 94.9303 49.7565C91.6956 51.5967 88.254 53.047 84.6778 54.0769C80.8588 54.9365 79.528 59.6829 79.5148 59.7319C79.4658 59.8954 79.3549 60.0332 79.206 60.1163C79.0571 60.1992 78.8816 60.2211 78.7168 60.177C78.5519 60.1329 78.4109 60.0262 78.3234 59.8797C78.2358 59.7334 78.2088 59.5587 78.248 59.3926Z" fill="black"/>
<path d="M82.6326 66.9682C82.459 66.9523 82.2989 66.8684 82.1874 66.7346C82.0758 66.6008 82.022 66.4281 82.0379 66.2547C82.0535 66.0813 82.1376 65.921 82.2714 65.8096C82.4051 65.698 82.5777 65.6441 82.7513 65.66C83.9615 65.7563 85.1777 65.5702 86.304 65.1165C87.4301 64.6628 88.4358 63.9539 89.2414 63.0455C91.8144 59.4282 95.1415 61.0549 97.8521 59.0361C100.695 56.9192 106.778 53.0493 107.034 52.8853C107.181 52.792 107.359 52.7611 107.529 52.799C107.699 52.8371 107.846 52.9409 107.94 53.088C108.033 53.235 108.064 53.4129 108.026 53.5828C107.988 53.7526 107.884 53.9004 107.737 53.9937C107.675 54.0333 101.441 58.0012 98.6362 60.0898C95.6089 62.3518 92.4798 60.759 90.3121 63.8051C89.3973 64.931 88.2156 65.8104 86.8742 66.3627C85.533 66.9152 84.0748 67.1233 82.6326 66.9682Z" fill="black"/>
<path d="M86.1559 75.1868C87.5455 72.5753 89.8386 70.5591 92.6063 69.5148C93.7166 69.1378 94.7496 68.8683 95.6996 68.6119C102.8 66.6967 99.1925 66.3254 103.962 63.1058C104.32 62.8955 104.646 62.6346 104.93 62.3311C105.038 62.1972 105.194 62.1109 105.364 62.0906C105.535 62.0702 105.707 62.1177 105.842 62.2225C105.979 62.3273 106.068 62.4813 106.092 62.6515C106.115 62.8216 106.071 62.9942 105.969 63.1322C105.605 63.552 105.175 63.9103 104.697 64.1935C100.478 67.0398 103.387 67.8956 96.0408 69.8786C95.1134 70.1293 94.103 70.4027 93.0248 70.7627C90.5933 71.708 88.5756 73.4846 87.3302 75.7768C87.252 75.9325 87.1151 76.0509 86.9496 76.1055C86.7841 76.1604 86.6037 76.1472 86.448 76.069C86.2923 75.9907 86.1742 75.8539 86.1193 75.6884C86.0644 75.5229 86.0776 75.3425 86.1559 75.1868Z" fill="black"/>
<path fill-rule="evenodd" clip-rule="evenodd" d="M89.7773 47.2585C89.7773 47.2585 99.7547 77.6165 107.387 98.8868C107.387 98.8868 137.673 88.1555 145.464 83.9953C145.464 83.9953 134.244 43.9353 130.114 34.1465C116.36 37.5023 102.876 41.8854 89.7773 47.2585Z" fill="white"/>
<path d="M107.387 99.5443C107.252 99.5439 107.12 99.5019 107.01 99.4241C106.899 99.346 106.815 99.2361 106.769 99.1089C99.2291 78.0742 89.2555 47.7671 89.1538 47.4599C89.1019 47.3019 89.1121 47.1302 89.182 46.9794C89.252 46.8284 89.3768 46.7098 89.5308 46.6474C102.659 41.266 116.171 36.8731 129.955 33.5052C130.104 33.4694 130.262 33.4877 130.4 33.5565C130.538 33.6255 130.647 33.7408 130.709 33.8822C134.808 43.5956 145.977 83.4087 146.085 83.8102C146.125 83.9539 146.115 84.1069 146.056 84.244C145.998 84.3812 145.894 84.4941 145.762 84.5642C138.162 88.6358 107.681 99.5443 107.387 99.5443ZM90.5939 47.6333C92.0001 51.9009 100.852 78.6849 107.785 98.0495C112.038 96.5415 137.029 87.567 144.68 83.6613C143.381 79.0412 133.679 44.721 129.717 34.919C116.385 38.2036 103.31 42.4529 90.5939 47.6333Z" fill="black"/>
<path d="M97.8768 55.0413C97.7458 55.0409 97.618 55.0013 97.5098 54.9276C97.4016 54.8541 97.3177 54.7497 97.2692 54.6281C97.2208 54.5063 97.2099 54.373 97.2377 54.245C97.2658 54.1172 97.3314 54.0006 97.4263 53.9103C99.2849 52.1271 100.902 50.3438 103.5 49.9932C106.097 49.6426 109.087 50.6681 111.006 48.7378C112.738 46.9344 114.962 45.6809 117.402 45.1337C119.038 44.6511 120.732 44.3886 122.438 44.3533C123.883 44.3495 125.317 44.1167 126.689 43.6634C126.848 43.5937 127.029 43.5901 127.191 43.6536C127.353 43.7169 127.484 43.8423 127.553 44.0018C127.623 44.1612 127.627 44.3418 127.563 44.5039C127.5 44.666 127.374 44.7963 127.215 44.866C124.708 45.965 120.736 45.3599 117.833 46.374C115.584 46.8589 113.53 48.0049 111.937 49.6652C109.556 52.0554 106.116 50.9697 103.677 51.2958C100.586 51.6992 98.6892 55.0413 97.8768 55.0413Z" fill="black"/>
<path d="M100.242 62.19C100.93 61.7188 107.028 57.5473 109.822 57.7772C112.242 57.945 115.837 57.1024 117.124 55.6265C118.762 53.7528 123.467 53.6227 124.705 52.8781C124.855 52.7882 125.035 52.7614 125.205 52.8039C125.374 52.8463 125.52 52.9543 125.61 53.1043C125.7 53.2544 125.727 53.4338 125.685 53.6035C125.642 53.7733 125.534 53.9192 125.384 54.0091C123.951 54.8743 119.352 55.0892 118.114 56.4973C116.498 58.3465 112.502 59.2852 109.729 59.0949C107.799 58.9742 102.755 62.0694 100.981 63.2796C100.836 63.3776 100.659 63.4141 100.487 63.3812C100.316 63.3484 100.165 63.2486 100.067 63.1043C99.9686 62.9597 99.9321 62.7823 99.9649 62.6108C99.9979 62.4394 100.097 62.288 100.242 62.19Z" fill="black"/>
<path d="M102.711 70.5586C103.671 69.6161 108.581 64.9583 111.158 65.9008C113.805 66.5064 116.585 66.0747 118.924 64.6944C120.988 63.2127 125.846 63.0506 127.718 62.1402C127.872 62.0795 128.043 62.0797 128.197 62.1402C128.352 62.2009 128.477 62.3177 128.549 62.4672C128.621 62.6167 128.633 62.7877 128.584 62.946C128.534 63.1042 128.427 63.238 128.283 63.3202C126.36 64.2627 121.32 64.5831 119.68 65.7594C118.347 66.568 116.868 67.1056 115.327 67.3415C113.786 67.5773 112.213 67.5066 110.7 67.1335C109.38 66.6548 105.761 69.3955 103.623 71.4936C103.496 71.5965 103.335 71.6481 103.172 71.6385C103.009 71.6291 102.855 71.5588 102.741 71.4419C102.627 71.3248 102.561 71.1693 102.555 71.0061C102.55 70.8427 102.605 70.6832 102.711 70.5586Z" fill="black"/>
<path d="M105.451 78.0971C105.306 78.0975 105.165 78.05 105.05 77.9622C104.935 77.8741 104.853 77.7507 104.815 77.6108C104.778 77.4709 104.788 77.3226 104.843 77.1889C104.899 77.0553 104.997 76.9437 105.123 76.8719C107.608 75.3386 110.337 74.2427 113.193 73.6316C120.571 72.5703 116.228 71.9219 126.143 68.6815C128.402 68.0968 130.576 67.2192 132.608 66.0708C132.727 65.9432 132.891 65.8682 133.065 65.8618C133.239 65.8554 133.408 65.9183 133.536 66.0369C133.663 66.1553 133.738 66.3196 133.745 66.4936C133.751 66.6674 133.688 66.8369 133.57 66.9643C132.497 68.116 128.872 69.1698 126.55 69.9275C116.84 73.1 121.057 73.8238 113.379 74.9322C109.783 75.4506 105.913 78.0971 105.451 78.0971Z" fill="black"/>
<path d="M107.077 85.3226C108.664 83.7948 110.585 82.6567 112.687 81.9975C116.174 81.2246 117.177 83.317 118.233 80.8514C118.798 79.5074 119.431 78.7346 120.949 78.7346C121.474 78.7125 121.991 78.8759 122.408 79.196C122.825 79.5161 123.117 79.9726 123.232 80.4857C123.262 80.563 123.298 80.6648 123.332 80.7421C123.958 80.4039 124.471 79.8895 124.808 79.2623C126.425 76.8552 127.437 76.8118 131.893 75.8222C133.233 75.5868 134.55 75.2367 135.829 74.776C135.957 74.665 136.124 74.6081 136.293 74.6171C136.462 74.626 136.622 74.7003 136.737 74.8241C136.853 74.948 136.917 75.112 136.914 75.2814C136.912 75.4511 136.844 75.613 136.724 75.7336C135.306 76.4697 133.763 76.9346 132.174 77.104C127.605 78.1106 127.143 78.1408 125.897 79.9937C125.473 80.7389 124.865 81.3636 124.133 81.809C123.081 82.3877 122.414 82.0672 122.001 80.94C121.775 80.3293 121.624 80.0409 120.915 80.0465C120.037 80.0597 119.816 80.4838 119.439 81.366C119.325 81.7751 119.121 82.1536 118.843 82.4738C118.564 82.7941 118.217 83.048 117.827 83.2171C117.108 83.4463 116.338 83.464 115.609 83.268C114.74 83.0642 113.836 83.0676 112.97 83.2774C111.107 83.8915 109.406 84.9149 107.991 86.2727C107.866 86.3939 107.696 86.46 107.522 86.4568C107.347 86.4534 107.18 86.3807 107.059 86.2548C106.938 86.1288 106.872 85.9598 106.875 85.785C106.879 85.6101 106.951 85.4438 107.077 85.3226Z" fill="black"/>
<path d="M352.567 227.188C352.395 226.743 335.099 182.864 302.592 186.409C298.548 186.743 294.628 187.966 291.112 189.991C292.032 191.167 292.814 192.445 293.442 193.799C295.327 197.93 295.327 202.228 293.425 204.745C292.956 205.414 292.307 205.938 291.553 206.255C290.801 206.573 289.974 206.671 289.167 206.539C282.192 205.51 280.782 195.685 289.142 189.663C285.039 185.029 276.673 179.454 259.887 178.264C221.98 175.593 209.097 199.399 208.973 199.64C208.893 199.795 208.755 199.912 208.589 199.964C208.423 200.015 208.243 200 208.088 199.921C207.934 199.84 207.817 199.702 207.765 199.536C207.712 199.369 207.728 199.19 207.808 199.035C207.938 198.786 221.128 174.211 259.979 176.956C277.322 178.183 285.992 184.061 290.239 188.93C293.972 186.757 298.143 185.448 302.447 185.097C336 181.452 353.619 226.256 353.794 226.709C353.858 226.871 353.854 227.054 353.783 227.212C353.713 227.372 353.583 227.499 353.419 227.563C353.257 227.625 353.076 227.621 352.916 227.551C352.755 227.482 352.631 227.35 352.567 227.188ZM290.019 190.724C282.458 196.143 283.61 204.402 289.359 205.239C289.932 205.331 290.518 205.259 291.052 205.031C291.585 204.805 292.043 204.432 292.375 203.955C293.695 202.202 294.162 198.551 292.243 194.341C291.646 193.054 290.899 191.84 290.019 190.724Z" fill="black"/>
<path fill-rule="evenodd" clip-rule="evenodd" d="M361.051 237.133C361.051 237.133 347.187 269.704 343.773 278.277L380.454 294.429C380.454 294.429 395.722 258.69 399.277 249.851L361.051 237.133Z" fill="white"/>
<path d="M380.45 295.091C380.228 295.091 380.409 295.179 343.504 278.88C343.35 278.81 343.227 278.683 343.163 278.527C343.097 278.369 343.097 278.193 343.159 278.035C346.536 269.553 360.313 237.202 360.443 236.878C360.505 236.723 360.624 236.599 360.775 236.529C360.926 236.459 361.097 236.45 361.255 236.501L399.481 249.219C399.566 249.247 399.644 249.293 399.711 249.353C399.777 249.413 399.832 249.485 399.868 249.566C399.906 249.647 399.926 249.736 399.93 249.824C399.932 249.915 399.917 250.003 399.883 250.086C396.358 258.831 381.204 294.321 381.05 294.68C381.001 294.8 380.92 294.902 380.812 294.976C380.705 295.049 380.581 295.089 380.45 295.091ZM344.617 277.937L380.109 293.566C382.089 288.925 394.752 259.24 398.407 250.258L361.418 237.951C359.612 242.194 348.068 269.351 344.617 277.937Z" fill="black"/>
<path fill-rule="evenodd" clip-rule="evenodd" d="M363.302 241.771L394.321 252.393L382.919 278.565L352.84 265.784L363.302 241.771Z" fill="#81F889"/>
<path d="M394.92 252.127C394.741 251.718 394.988 251.89 363.513 241.151C363.356 241.098 363.186 241.106 363.036 241.172C362.885 241.238 362.764 241.358 362.698 241.509L352.237 265.522C352.203 265.601 352.184 265.688 352.184 265.775C352.182 265.861 352.199 265.946 352.231 266.027C352.263 266.108 352.31 266.182 352.37 266.244C352.431 266.306 352.504 266.355 352.583 266.389L382.662 279.17C382.823 279.237 383.002 279.237 383.162 279.173C383.322 279.109 383.45 278.985 383.52 278.827C395.149 252.278 395.101 252.54 394.92 252.127ZM386.214 269.356C386.08 266.152 385.603 258.612 382.536 259.539C379.916 260.32 371.663 265.603 369.062 267.292C366.627 257.49 365.362 257.769 364.826 257.897C361.285 259.592 357.843 261.49 354.517 263.581L363.662 242.589L393.435 252.783L386.214 269.356Z" fill="black"/>
<path fill-rule="evenodd" clip-rule="evenodd" d="M370.711 249.417C371.246 249.441 371.763 249.624 372.196 249.939C372.63 250.256 372.962 250.691 373.148 251.194C373.337 251.696 373.372 252.242 373.252 252.766C373.131 253.289 372.862 253.764 372.473 254.135C372.085 254.504 371.597 254.753 371.069 254.847C370.541 254.944 369.996 254.881 369.504 254.67C369.011 254.459 368.592 254.108 368.296 253.66C368 253.213 367.844 252.689 367.844 252.152C367.863 251.409 368.174 250.704 368.711 250.191C369.25 249.679 369.968 249.4 370.711 249.417Z" fill="white"/>
<path d="M370.711 255.543C370.046 255.517 369.403 255.296 368.864 254.908C368.323 254.52 367.908 253.983 367.672 253.361C367.435 252.738 367.386 252.06 367.531 251.411C367.678 250.761 368.01 250.169 368.49 249.709C368.969 249.247 369.574 248.936 370.228 248.816C370.882 248.695 371.557 248.771 372.17 249.031C372.782 249.291 373.305 249.724 373.672 250.28C374.04 250.835 374.236 251.485 374.236 252.15C374.217 253.066 373.836 253.939 373.175 254.576C372.513 255.212 371.627 255.56 370.711 255.543ZM370.711 250.077C370.306 250.101 369.915 250.245 369.589 250.49C369.265 250.733 369.018 251.066 368.879 251.449C368.741 251.832 368.718 252.246 368.815 252.642C368.909 253.038 369.118 253.396 369.414 253.675C369.712 253.954 370.083 254.139 370.483 254.209C370.884 254.278 371.297 254.228 371.67 254.066C372.042 253.903 372.36 253.636 372.583 253.296C372.805 252.955 372.924 252.558 372.922 252.15C372.903 251.583 372.658 251.046 372.245 250.656C371.831 250.267 371.278 250.058 370.711 250.073V250.077Z" fill="black"/>
</svg>
