<svg width="523" height="256" viewBox="0 0 523 256" fill="none" xmlns="http://www.w3.org/2000/svg">
<g clip-path="url(#clip0_441_62082)">
<path d="M521.907 108.841L340.01 60.2715L98.1523 102.126L265.963 155.809L521.907 108.841Z" fill="white"/>
<path d="M265.957 313.309L521.901 252.921V108.96L265.957 155.927V313.309Z" fill="#81F889"/>
<path d="M265.963 313.308L98.1523 246.208V102.244L265.963 155.926V313.308Z" fill="white"/>
<path d="M522.234 107.951L339.794 59.3613L97.9365 101.216C97.2915 101.329 97 101.843 97 102.248V246.209C97 246.62 97.2733 246.999 97.6887 247.164C266.381 314.022 265.634 314.46 266.235 314.324L522.18 253.936C522.686 253.817 523.04 253.399 523.04 252.921V109.083C523.12 108.565 522.752 108.09 522.227 107.951H522.234ZM264.81 311.71L99.2993 245.525V237.466L264.81 298.876V311.71ZM264.81 296.617L99.2993 235.207V225.297L264.81 286.182V296.617ZM264.81 283.93L99.2993 223.044V213.117L264.81 272.015V283.93ZM264.81 269.776L99.2993 210.877V200.934L264.81 257.851V269.776ZM264.81 255.615L99.2993 198.697V188.77L264.81 245.025V255.615ZM264.81 242.795L99.2993 186.544V176.601L264.81 232.191V242.795ZM264.81 229.961L99.2993 174.371V164.437L264.81 218.704V229.965V229.961ZM264.81 216.488L99.2993 162.218V152.274L264.81 206.541V216.488ZM264.81 204.325L99.2993 150.055V140.111L264.81 194.378V204.325ZM264.81 192.161L99.2993 137.891V127.954L264.81 182.221V192.161ZM264.81 180.005L99.2993 125.735V115.788L264.81 170.055V180.005ZM264.81 167.842L99.2993 113.572V103.737L264.81 156.68V167.842ZM266.042 154.849L102.564 102.553L339.95 61.4682L517.118 108.774L266.042 154.846V154.849ZM520.758 252.118L267.11 311.969V298.992L520.758 241.279V252.118ZM520.758 239.119L267.11 296.836V286.312L520.758 229.122V239.119ZM520.758 226.965L267.11 284.155V272.141L520.758 216.949V226.965ZM520.758 214.796L267.11 269.988V257.974L520.758 204.772V214.796ZM520.758 202.629L267.11 255.827V245.151L520.758 192.616V202.629ZM520.758 190.469L267.11 242.997V232.304L520.758 180.436V190.469ZM520.758 178.296L267.11 230.167V218.83L520.758 168.293V178.296ZM520.758 166.149L267.11 216.683V206.664L520.758 156.126V166.149ZM520.758 153.986L267.11 204.52V194.504L520.758 143.966V153.986ZM520.758 141.823L267.11 192.357V182.347L520.758 131.81V141.823ZM520.758 129.666L267.11 180.2V170.181L520.758 119.643V129.666ZM520.758 117.503L267.11 168.037V156.796L520.758 110.254V117.503Z" fill="black"/>
<path d="M255.264 121.934C255.206 121.771 253.697 117.342 253.697 117.342C253.697 117.342 269.515 108.337 269.329 108.387C269.14 108.44 273.013 120.895 273.013 120.895L255.264 121.934Z" fill="white"/>
<path d="M371.341 97.8548C372.335 94.0625 367.445 78.1501 364.188 76.0864C363.656 76.1461 354.859 79.2185 354.859 79.2185C359.79 85.8707 361.783 92.4633 361.834 100.327C362.522 100.035 371.341 97.8515 371.341 97.8515V97.8548Z" fill="white"/>
<path d="M429.09 55.7961C397.603 64.8206 299.332 93.7588 269.85 107.279C260.788 111.433 249.495 118.633 247.043 120.962C246.405 121.576 246.784 122.551 247.659 122.71C250.858 123.288 265.204 123.377 275.815 121.834C309.918 116.878 404.618 90.2054 437.73 80.587C456.984 74.9931 448.311 50.2852 429.09 55.7961ZM255.668 121.008C255.857 120.116 255.42 118.719 254.786 118.069C258.652 115.6 263.699 112.654 268.385 110.328C269.843 113.132 271.245 117.146 271.821 120.205C266.465 120.763 260.412 121.005 255.668 121.008ZM356.752 79.5485L363.34 77.5147C366.336 80.6102 370.701 93.155 370.22 97.2758L363.566 99.0607C363.282 92.0634 360.968 85.5704 356.752 79.5452V79.5485Z" fill="black"/>
<path d="M412.032 82.3279L412.32 87.4573C412.411 89.1892 411.245 90.7718 409.448 91.3557L355.552 108.688C355.064 108.854 355.013 109.471 355.494 109.674C358.689 111.017 360.205 111.913 362.898 111.137L411.285 97.1885C415.927 95.8481 420.7 91.9131 420.405 87.3179C420.227 84.5641 419.906 80.4898 419.48 80.6126C418.831 80.7984 412.032 82.3279 412.032 82.3279Z" fill="white"/>
<path d="M421.551 87.2485C421.118 80.3341 420.732 80.0885 420.189 79.7501C419.573 79.3487 419.904 79.4615 411.757 81.2962C411.221 81.4157 410.864 81.8636 410.886 82.3646L411.167 87.5039C411.232 88.7879 410.387 89.9392 409.057 90.3639L355.16 107.696C353.674 108.174 353.619 110.032 355.004 110.616C357.729 111.764 358.903 112.444 360.983 112.444C362.747 112.444 361.147 112.706 411.618 98.1741C416.756 96.6943 421.872 92.348 421.551 87.2485ZM410.922 96.1867L362.536 110.135C361.315 110.487 359.992 110.41 358.819 109.919L357.237 109.252L409.822 92.3413C412.077 91.6081 413.568 89.5842 413.455 87.4044L413.225 83.1244C414.635 82.8025 417.237 82.212 418.735 81.8636C418.866 82.64 419.055 84.2093 419.252 87.3679C419.515 91.4289 415.087 94.9823 410.919 96.1867H410.922Z" fill="black"/>
</g>
<defs>
<clipPath id="clip0_441_62082">
<rect width="523" height="256" fill="white"/>
</clipPath>
</defs>
</svg>
