<svg width="664" height="441" viewBox="0 0 664 441" fill="none" xmlns="http://www.w3.org/2000/svg">
<path d="M439.461 227.008L267.174 176.483L38.0938 220.022L197.039 275.865L439.461 227.008Z" fill="white"/>
<path d="M197.031 439.704L439.454 376.886V227.132L197.031 275.989V439.704Z" fill="#81F889"/>
<path d="M197.039 439.702L38.0938 369.902V220.145L197.039 275.987V439.702Z" fill="white"/>
<path d="M439.769 226.081L266.967 175.536L37.887 219.075C37.2761 219.192 37 219.727 37 220.148V369.902C37 370.33 37.2588 370.724 37.6523 370.896C197.432 440.444 196.725 440.9 197.294 440.758L439.717 377.94C440.197 377.816 440.532 377.381 440.532 376.884V227.258C440.608 226.72 440.259 226.226 439.762 226.081H439.769ZM195.945 438.039L39.1778 369.191V360.808L195.945 424.689V438.039ZM195.945 422.339L39.1778 358.458V348.148L195.945 411.484V422.339ZM195.945 409.141L39.1778 345.805V335.479L195.945 396.747V409.141ZM195.945 394.417L39.1778 333.149V322.805L195.945 382.013V394.417ZM195.945 379.687L39.1778 320.479V310.153L195.945 368.67V379.687ZM195.945 366.351L39.1778 307.837V297.493L195.945 355.32V366.351ZM195.945 353.001L39.1778 295.174V284.84L195.945 341.291V353.004V353.001ZM195.945 338.985L39.1778 282.531V272.188L195.945 328.638V338.985ZM195.945 326.332L39.1778 269.879V259.535L195.945 315.985V326.332ZM195.945 313.68L39.1778 257.226V246.889L195.945 303.34V313.68ZM195.945 301.034L39.1778 244.58V234.233L195.945 290.683V301.034ZM195.945 288.381L39.1778 231.928V221.698L195.945 276.771V288.381ZM197.111 274.866L42.2702 220.466L267.115 177.728L434.923 226.937L197.111 274.862V274.866ZM438.371 376.049L198.123 438.308V424.81L438.371 364.774V376.049ZM438.371 362.527L198.123 422.566V411.619L438.371 352.128V362.527ZM438.371 349.884L198.123 409.375V396.878L438.371 339.465V349.884ZM438.371 337.225L198.123 394.638V382.141L438.371 326.798V337.225ZM438.371 324.569L198.123 379.908V368.801L438.371 314.153V324.569ZM438.371 311.92L198.123 366.561V355.438L438.371 301.483V311.92ZM438.371 299.257L198.123 353.215V341.422L438.371 288.851V299.257ZM438.371 286.621L198.123 339.189V328.766L438.371 276.195V286.621ZM438.371 273.969L198.123 326.536V316.116L438.371 263.546V273.969ZM438.371 261.316L198.123 313.883V303.471L438.371 250.9V261.316ZM438.371 248.67L198.123 301.238V290.815L438.371 238.244V248.67ZM438.371 236.018L198.123 288.585V276.892L438.371 228.476V236.018Z" fill="black"/>
<path d="M186.906 240.627C186.851 240.458 185.422 235.851 185.422 235.851C185.422 235.851 200.404 226.484 200.228 226.535C200.049 226.591 203.717 239.547 203.717 239.547L186.906 240.627Z" fill="white"/>
<path d="M296.849 215.58C297.791 211.635 293.159 195.082 290.074 192.936C289.57 192.998 281.238 196.194 281.238 196.194C285.908 203.114 287.796 209.971 287.844 218.151C288.496 217.847 296.849 215.576 296.849 215.576V215.58Z" fill="white"/>
<path d="M351.543 171.828C321.72 181.216 228.641 211.318 200.716 225.383C192.133 229.704 181.437 237.193 179.114 239.616C178.51 240.255 178.869 241.269 179.697 241.435C182.728 242.035 196.316 242.129 206.366 240.524C238.667 235.367 328.364 207.622 359.727 197.617C377.964 191.798 369.749 166.095 351.543 171.828ZM187.283 239.664C187.463 238.736 187.049 237.283 186.448 236.606C190.11 234.039 194.89 230.974 199.329 228.554C200.709 231.471 202.038 235.647 202.583 238.829C197.51 239.409 191.777 239.661 187.283 239.664ZM283.027 196.536L289.267 194.421C292.104 197.641 296.239 210.69 295.783 214.977L289.481 216.834C289.212 209.555 287.02 202.801 283.027 196.533V196.536Z" fill="black"/>
<path d="M335.388 199.427L335.661 204.763C335.747 206.564 334.643 208.21 332.941 208.818L281.893 226.848C281.43 227.02 281.382 227.662 281.837 227.873C284.864 229.271 286.3 230.202 288.85 229.395L334.681 214.885C339.078 213.491 343.599 209.398 343.32 204.618C343.15 201.753 342.847 197.515 342.443 197.642C341.829 197.836 335.388 199.427 335.388 199.427Z" fill="white"/>
<path d="M344.405 204.546C343.994 197.353 343.628 197.098 343.114 196.746C342.531 196.328 342.845 196.445 335.128 198.354C334.62 198.478 334.282 198.944 334.303 199.465L334.568 204.811C334.631 206.147 333.83 207.345 332.57 207.786L281.521 225.816C280.113 226.313 280.061 228.246 281.373 228.853C283.954 230.048 285.066 230.755 287.036 230.755C288.707 230.755 287.192 231.028 334.996 215.911C339.863 214.372 344.708 209.85 344.405 204.546ZM334.337 213.844L288.507 228.353C287.351 228.719 286.098 228.639 284.986 228.129L283.489 227.435L333.295 209.843C335.431 209.081 336.843 206.975 336.736 204.708L336.518 200.256C337.854 199.921 340.318 199.306 341.737 198.944C341.861 199.752 342.041 201.384 342.227 204.67C342.475 208.894 338.282 212.591 334.334 213.844H334.337Z" fill="black"/>
</svg>
