<svg width="673" height="479" viewBox="0 0 673 479" fill="none" xmlns="http://www.w3.org/2000/svg">
<path d="M5.80818 188.715C5.51112 188.715 5.22286 188.614 4.99087 188.429C4.75888 188.243 4.59699 187.984 4.53184 187.694C4.46669 187.405 4.50217 187.101 4.63243 186.834C4.7627 186.567 4.98 186.353 5.24854 186.226C6.35474 185.703 32.5165 173.372 46.8292 171.623C54.4811 170.689 65.8438 172.894 77.8656 175.229C103.306 180.164 102.856 179.719 128.764 177.601C147.899 176.032 169.584 174.269 175.836 176.505C184.205 179.492 370.53 173.283 395.165 176.675C413.528 179.63 432.292 178.969 450.402 174.727C474.226 169.512 491.412 168.077 502.945 170.349C503.285 170.416 503.585 170.615 503.778 170.903C503.971 171.191 504.042 171.544 503.975 171.884C503.209 175.781 499.53 166.654 450.961 177.282C432.545 181.546 413.479 182.22 394.807 179.267C370.224 175.867 184.027 182.227 174.952 178.966C169.238 176.916 146.916 178.744 128.978 180.206C103.708 182.279 103.319 182.836 77.3687 177.794C66.0765 175.6 54.4 173.333 47.1482 174.217C32.6133 175.993 6.59272 188.715 5.80818 188.715Z" fill="#000001"/>
<path d="M102.378 164.048C101.07 160.126 96.7786 159.255 94.0484 158.295C102.84 151.831 96.6636 153.805 82.7144 128.247C82.6102 128.059 82.4608 127.899 82.2798 127.782C82.0988 127.665 81.8916 127.594 81.6768 127.577C81.462 127.559 81.2461 127.595 81.0485 127.681C80.8508 127.767 80.6775 127.9 80.5439 128.069C80.4262 128.219 68.9327 142.806 64.0267 148.447C60.6479 152.335 59.356 155.615 60.185 158.191C60.5313 159.104 61.0923 159.92 61.8206 160.57C62.5489 161.221 63.4231 161.686 64.3693 161.928C61.9503 163.34 57.6719 165.921 58.9298 170.411C60.5825 176.3 58.8827 180.872 67.4185 182.441C74.6206 183.787 93.7294 186.512 98.9021 181.293C102.422 177.741 97.6965 174.451 101.347 169.88C102.088 169.126 102.583 168.165 102.767 167.124C102.951 166.083 102.815 165.011 102.378 164.048Z" fill="#000001"/>
<path d="M470.465 167.516C471.1 167.338 471.687 167.019 472.181 166.583C472.676 166.147 473.065 165.605 473.321 164.997C474.132 162.887 473.06 160.028 470.157 156.522C466.132 151.665 456.681 139.188 456.587 139.065C456.456 138.893 456.285 138.755 456.089 138.665C455.892 138.575 455.676 138.535 455.46 138.549C455.244 138.562 455.035 138.629 454.852 138.744C454.668 138.858 454.516 139.016 454.408 139.204C451.862 143.688 449.068 148.027 446.04 152.201C441.806 157.612 440.679 158.504 445.255 162.304C442.546 162.868 439.881 163.729 439.003 166.391C438.662 167.216 438.567 168.123 438.73 169.001C438.894 169.879 439.308 170.691 439.923 171.339C440.541 172.079 440.957 172.967 441.131 173.915C441.305 174.864 441.23 175.841 440.914 176.752C439.345 185.272 458.99 184.684 467.56 183.881C474.704 183.209 473.363 178.993 474.566 174.616C475.489 171.213 472.495 168.888 470.465 167.516Z" fill="#000001"/>
<path d="M86.577 253.064C75.128 240.145 59.1181 249.889 55.3916 252.447C39.9623 241.034 19.3158 248.137 19.0569 248.228C18.7437 248.355 18.4915 248.597 18.3531 248.905C18.2148 249.213 18.2009 249.563 18.3144 249.881C18.428 250.199 18.6601 250.461 18.9623 250.611C19.2645 250.762 19.6133 250.79 19.9356 250.689C21.1542 250.26 49.2094 240.644 62.5152 264.67C51.0321 263.849 41.6177 271.814 41.2149 272.165C40.9616 272.394 40.8079 272.713 40.7868 273.054C40.7656 273.394 40.8786 273.73 41.1017 273.989C41.3248 274.247 41.6402 274.408 41.9805 274.437C42.3207 274.467 42.6589 274.361 42.9226 274.144C43.0168 274.063 52.2926 266.152 62.9885 267.314C66.2442 267.785 69.3642 268.937 72.1452 270.694C74.9261 272.451 77.3058 274.775 79.1291 277.513C79.2322 277.65 79.3612 277.766 79.509 277.853C79.6567 277.941 79.8203 277.998 79.9903 278.023C80.1603 278.047 80.3334 278.037 80.4997 277.995C80.666 277.952 80.8224 277.877 80.9597 277.774C81.0971 277.671 81.2128 277.542 81.3003 277.394C81.3878 277.247 81.4453 277.083 81.4696 276.913C81.4939 276.743 81.4845 276.57 81.4418 276.404C81.3992 276.237 81.3243 276.081 81.2212 275.944C77.536 270.578 72.0267 266.734 65.7187 265.127C63.7219 260.977 60.9354 257.257 57.5151 254.173C61.6705 251.387 74.9737 243.916 84.6314 254.816C84.8616 255.075 85.1855 255.233 85.5318 255.253C85.878 255.274 86.2183 255.156 86.4777 254.926C86.7371 254.695 86.8944 254.372 86.915 254.025C86.9356 253.679 86.8178 253.339 86.5875 253.079L86.577 253.064Z" fill="#000001"/>
<path d="M119.35 206.965C109.439 199.12 97.4196 203.971 94.3442 205.433C84.2472 198.895 72.3588 204.818 70.0863 206.068C55.703 200.485 40.462 210.054 40.2737 210.179C39.9817 210.367 39.7761 210.662 39.702 211.001C39.628 211.34 39.6916 211.694 39.8788 211.986C40.0661 212.278 40.3617 212.484 40.7006 212.558C41.0395 212.632 41.3939 212.569 41.6859 212.381C42.6195 211.78 64.7618 197.933 79.4772 216.367C79.7028 216.6 80.007 216.741 80.3309 216.763C80.6547 216.784 80.9749 216.684 81.2292 216.483C81.4836 216.281 81.6539 215.992 81.7071 215.672C81.7603 215.352 81.6925 215.024 81.517 214.751C79.2253 211.809 76.3741 209.349 73.1277 207.515C77.134 205.749 86.1458 202.807 93.4891 208.038C93.6893 208.176 93.9238 208.257 94.1668 208.271C94.4099 208.285 94.6522 208.233 94.8673 208.119C94.998 208.053 107.878 201.238 117.726 209.042C117.861 209.148 118.015 209.227 118.18 209.274C118.345 209.321 118.518 209.335 118.689 209.316C118.859 209.296 119.024 209.243 119.175 209.159C119.325 209.076 119.457 208.963 119.563 208.829C119.67 208.694 119.749 208.54 119.796 208.375C119.843 208.209 119.857 208.037 119.837 207.866C119.817 207.695 119.764 207.53 119.681 207.38C119.597 207.23 119.485 207.098 119.35 206.991V206.965Z" fill="#000001"/>
<path d="M212.08 190.442C202.702 187.683 194.137 189.26 188.465 197.076C178.852 194.333 172.669 201.365 170.771 203.97C168.764 203.259 166.644 202.92 164.515 202.968C164.171 202.992 163.849 203.151 163.622 203.41C163.394 203.67 163.278 204.009 163.299 204.354C163.327 204.697 163.487 205.016 163.745 205.244C164.003 205.472 164.339 205.592 164.683 205.578C167.043 205.541 169.378 206.063 171.497 207.101C173.617 208.138 175.461 209.662 176.88 211.548C176.983 211.686 177.112 211.802 177.26 211.889C177.407 211.976 177.571 212.034 177.741 212.058C177.911 212.083 178.084 212.073 178.25 212.031C178.417 211.988 178.573 211.913 178.71 211.81C178.848 211.707 178.964 211.578 179.051 211.43C179.138 211.282 179.196 211.119 179.22 210.949C179.245 210.779 179.235 210.606 179.193 210.439C179.15 210.273 179.075 210.117 178.972 209.979C177.452 207.912 175.485 206.214 173.219 205.011C174.713 202.833 176.811 201.141 179.255 200.142C181.7 199.143 184.383 198.881 186.974 199.388C185.926 201.232 185.13 203.208 184.608 205.264C184.564 205.434 184.555 205.611 184.581 205.785C184.607 205.958 184.668 206.125 184.76 206.274C184.852 206.424 184.973 206.553 185.116 206.655C185.259 206.757 185.421 206.829 185.593 206.867C185.764 206.904 185.941 206.907 186.114 206.875C186.286 206.843 186.451 206.776 186.597 206.679C186.743 206.582 186.868 206.457 186.965 206.31C187.062 206.164 187.128 205.999 187.16 205.826C188.406 200.954 191.414 196.716 195.602 193.93C198.009 192.671 200.653 191.932 203.364 191.76C206.075 191.588 208.792 191.987 211.339 192.931C211.669 193.018 212.019 192.973 212.315 192.806C212.612 192.639 212.831 192.362 212.927 192.036C213.023 191.709 212.988 191.358 212.829 191.057C212.671 190.756 212.401 190.529 212.077 190.423L212.08 190.442Z" fill="#000001"/>
<path d="M309.836 203.938C294.483 199.013 284.488 211.38 283.01 213.352C262.4 199.992 243.422 215.413 243.216 215.588C242.956 215.812 242.795 216.129 242.766 216.47C242.738 216.812 242.845 217.151 243.064 217.414C243.283 217.678 243.596 217.845 243.937 217.88C244.278 217.914 244.619 217.814 244.887 217.599C251.055 212.578 258.895 210.076 266.831 210.596C274.768 211.115 282.214 214.618 287.676 220.4C287.919 220.633 288.242 220.763 288.578 220.764C288.839 220.764 289.095 220.685 289.311 220.539C289.527 220.392 289.695 220.184 289.792 219.942C289.889 219.699 289.911 219.433 289.856 219.178C289.8 218.922 289.669 218.69 289.48 218.509C288.116 217.202 286.672 215.979 285.157 214.848C286.494 213.059 295.398 202.05 309.036 206.422C309.359 206.504 309.7 206.46 309.991 206.299C310.283 206.139 310.501 205.873 310.603 205.556C310.705 205.239 310.683 204.896 310.54 204.595C310.398 204.294 310.146 204.059 309.836 203.938Z" fill="#000001"/>
<path d="M361.927 200.891C354.131 195.692 343.961 199.929 343.859 199.973C343.54 200.11 343.18 200.114 342.857 199.985C342.535 199.856 342.277 199.605 342.141 199.286C342.004 198.967 342 198.606 342.129 198.284C342.258 197.962 342.51 197.704 342.829 197.568C343.294 197.369 354.393 192.722 363.376 198.716C363.653 198.912 363.843 199.209 363.905 199.544C363.967 199.878 363.896 200.224 363.708 200.507C363.519 200.79 363.228 200.989 362.895 201.06C362.563 201.132 362.215 201.071 361.927 200.891Z" fill="#000001"/>
<path d="M343.35 193.306C343.169 193.306 342.989 193.268 342.823 193.195C342.657 193.122 342.508 193.016 342.385 192.882C341.975 192.372 341.463 191.954 340.883 191.653C340.302 191.352 339.665 191.176 339.012 191.135C337.43 191.285 335.931 191.913 334.715 192.937C334.593 193.064 334.447 193.164 334.285 193.233C334.124 193.302 333.95 193.338 333.774 193.338C333.598 193.338 333.424 193.303 333.262 193.234C333.1 193.166 332.954 193.065 332.832 192.939C332.71 192.812 332.614 192.662 332.551 192.498C332.488 192.334 332.459 192.159 332.466 191.983C332.472 191.807 332.514 191.635 332.589 191.476C332.663 191.316 332.769 191.174 332.9 191.057C334.59 189.492 336.788 188.592 339.09 188.522C340.094 188.569 341.077 188.824 341.977 189.27C342.877 189.716 343.675 190.344 344.32 191.114C344.492 191.302 344.606 191.535 344.647 191.786C344.688 192.037 344.656 192.295 344.553 192.527C344.45 192.76 344.281 192.957 344.067 193.096C343.854 193.234 343.605 193.307 343.35 193.306Z" fill="#000001"/>
<path d="M318.049 272.312C301.216 272.366 292.944 287.035 291.375 290.136C267.839 288.29 253.322 310.1 253.142 310.38C253.041 310.524 252.971 310.687 252.934 310.858C252.898 311.03 252.897 311.208 252.931 311.38C252.964 311.552 253.033 311.716 253.131 311.861C253.229 312.007 253.356 312.131 253.503 312.226C253.651 312.322 253.816 312.386 253.989 312.417C254.162 312.447 254.339 312.442 254.51 312.402C254.681 312.362 254.842 312.289 254.984 312.185C255.126 312.082 255.246 311.951 255.336 311.8C256.209 310.456 277.104 279.009 310.084 299.37C310.23 299.463 310.393 299.526 310.564 299.555C310.734 299.585 310.909 299.58 311.078 299.541C311.247 299.502 311.406 299.43 311.547 299.329C311.687 299.228 311.807 299.101 311.898 298.953C311.989 298.806 312.049 298.642 312.076 298.471C312.103 298.3 312.096 298.125 312.055 297.957C312.014 297.789 311.94 297.63 311.837 297.491C311.735 297.351 311.605 297.234 311.457 297.145C306.198 293.776 300.313 291.503 294.155 290.463C296.318 286.52 303.831 275.021 318.047 274.927C318.393 274.927 318.726 274.789 318.971 274.544C319.217 274.298 319.354 273.966 319.354 273.619C319.354 273.272 319.217 272.94 318.971 272.694C318.726 272.449 318.396 272.312 318.049 272.312Z" fill="#000001"/>
<path fill-rule="evenodd" clip-rule="evenodd" d="M114.797 72.5538L108.934 73.4743L106.727 64.2167L224.217 20.5283L354.492 26.007L352.361 37.7019V182.063H113.701L114.797 72.5538ZM318.048 71.5077L301.177 73.5345L300.432 118.538L317.193 123.049L318.048 71.5077ZM279.953 76.0973L262.986 78.4143L262.583 108.347L279.344 112.861L279.953 76.0973ZM245.595 80.2475L228.725 82.2847L228.445 99.1628L245.206 103.676L245.595 80.2475ZM213.207 84.1702L196.92 86.1368L196.847 90.6584L213.027 95.0152L213.207 84.1702Z" fill="white"/>
<path fill-rule="evenodd" clip-rule="evenodd" d="M354.488 26.0059L352.357 37.7007C350.173 190.66 349.909 166.669 351.802 181.931H432.795V123.561L436.695 122.57L354.488 26.0059Z" fill="#81F889"/>
<path fill-rule="evenodd" clip-rule="evenodd" d="M126.594 171.043L140.192 171.267L141.9 92.748L128.016 94.4374L126.594 171.043Z" fill="#81F889"/>
<path fill-rule="evenodd" clip-rule="evenodd" d="M154.531 171.505L168.13 171.73L169.257 89.3535L155.373 91.0403L154.531 171.505Z" fill="#81F889"/>
<path fill-rule="evenodd" clip-rule="evenodd" d="M181.543 171.953L195.403 172.183L196.839 90.646L183.426 86.9639L181.543 171.953Z" fill="#81F889"/>
<path fill-rule="evenodd" clip-rule="evenodd" d="M211.188 170.893L226.677 171.155L228.037 98.9771L213.151 95.2715L211.188 170.893Z" fill="#81F889"/>
<path fill-rule="evenodd" clip-rule="evenodd" d="M243.824 171.431L260.804 171.713L262.033 108.427L245.197 104.052L243.824 171.431Z" fill="#81F889"/>
<path fill-rule="evenodd" clip-rule="evenodd" d="M277.977 171.108L299.729 171.409L300.775 118.471L278.944 112.791L277.977 171.108Z" fill="#81F889"/>
<path fill-rule="evenodd" clip-rule="evenodd" d="M316.887 171.077H333.6L334.267 127.428L317.674 123.542L316.887 171.077Z" fill="#81F889"/>
<path d="M115.053 67.1992C114.744 67.1999 114.446 67.0916 114.209 66.8934C113.973 66.6951 113.814 66.4197 113.762 66.1158C113.709 65.8119 113.765 65.4992 113.92 65.2327C114.076 64.9663 114.32 64.7634 114.611 64.6599C232.574 22.2947 224.528 25.1165 224.936 25.1217L343.043 30.3833C343.365 30.4007 343.67 30.5367 343.898 30.7652C344.126 30.9936 344.261 31.2983 344.278 31.6206C344.295 31.943 344.192 32.2601 343.989 32.5111C343.786 32.7621 343.498 32.9292 343.179 32.9802C116.015 67.024 115.325 67.1992 115.053 67.1992ZM225.079 27.7473L128.016 62.6227L329.46 32.3839L225.079 27.7473Z" fill="#000001"/>
<path fill-rule="evenodd" clip-rule="evenodd" d="M166.132 327.741C166.132 327.741 171.885 307.427 172.34 296.768C172.34 296.768 190.803 294.2 191.483 288.765C192.163 283.331 186.925 284.49 189.895 276.736C190.238 276.087 190.405 275.359 190.38 274.626C190.354 273.892 190.138 273.178 189.751 272.554C189.365 271.93 188.822 271.418 188.177 271.068C187.531 270.719 186.806 270.544 186.072 270.561C186.072 270.561 189.621 267.646 189.079 265.151C188.538 262.656 181.53 262.101 185.871 258.571C190.212 255.041 192.265 251.913 189.919 249.418C187.573 246.923 175.104 246.481 174.294 240.513C173.483 234.546 174.735 232.948 172.201 227.6C171.038 225.134 159.599 228.853 149.923 239.107C136.819 252.998 121.005 277.178 120.508 295.614C121.711 296.873 122.479 298.483 122.701 300.209C122.923 301.935 122.587 303.688 121.742 305.209C119.485 309.827 116.981 314.32 114.242 318.669C131.975 319.389 149.505 321.133 166.132 327.741Z" fill="white"/>
<path fill-rule="evenodd" clip-rule="evenodd" d="M161.894 215.273C161.894 215.273 205.585 192.522 204.636 205.121C203.686 217.721 160.939 229.471 153.526 236.166C146.112 242.86 101.73 277.304 101.73 277.304C95.0924 270.583 91.0501 261.727 90.3203 252.309C90.2785 227.078 127.829 184.998 161.894 215.273Z" fill="#81F889"/>
<path fill-rule="evenodd" clip-rule="evenodd" d="M132.293 205.351C132.293 205.351 134.291 227.826 154.409 235.462C154.409 235.462 164.229 226.372 166.133 219.078C161.927 214.343 156.686 210.642 150.817 208.261C144.948 205.88 138.609 204.885 132.293 205.351Z" fill="white"/>
<path fill-rule="evenodd" clip-rule="evenodd" d="M168.306 248.033C168.162 245.122 168.642 242.214 169.716 239.505L171.991 245.415C171.65 246.128 171.133 246.743 170.488 247.201C169.843 247.659 169.092 247.945 168.306 248.033Z" fill="white"/>
<path d="M165.096 242.615C164.909 242.615 164.725 242.575 164.555 242.498C164.385 242.42 164.234 242.308 164.111 242.167C163.988 242.026 163.897 241.861 163.844 241.682C163.79 241.503 163.776 241.315 163.801 241.13C163.859 240.717 165.276 230.981 171.385 230.408C171.556 230.392 171.729 230.41 171.893 230.461C172.057 230.512 172.209 230.594 172.341 230.704C172.473 230.814 172.583 230.949 172.663 231.101C172.743 231.253 172.792 231.419 172.808 231.59C172.84 231.935 172.734 232.278 172.513 232.544C172.293 232.811 171.975 232.979 171.631 233.013C167.614 233.392 166.401 241.415 166.38 241.496C166.335 241.805 166.181 242.088 165.945 242.293C165.709 242.499 165.408 242.613 165.096 242.615Z" fill="#000001"/>
<path d="M225.524 371.689C219.949 355.085 205.448 346.63 192.987 337.579C187.895 333.889 178.151 329.996 167.795 326.627C170.478 317.223 172.413 307.622 173.582 297.913C178.363 297.168 192.077 294.545 192.78 288.935C192.926 287.98 192.871 287.005 192.621 286.072C192.37 285.139 191.928 284.268 191.323 283.514C190.385 282.144 189.642 281.059 191.114 277.214C191.472 276.576 191.691 275.869 191.757 275.14C191.822 274.412 191.732 273.677 191.493 272.985C191.255 272.294 190.872 271.66 190.371 271.127C189.869 270.594 189.261 270.173 188.585 269.892C193.959 263.427 186.206 261.785 185.764 260.65C185.944 259.544 195.811 253.788 190.871 248.539C188.193 245.686 176.25 245.226 175.588 240.351C174.832 234.794 175.944 232.875 173.69 227.736C188.941 221.198 205.293 213.808 205.937 205.246C206.928 192.097 173.859 207.803 162.138 213.876C149.792 204.022 135.65 200.748 121.117 207.092C102.333 215.275 88.6741 237.728 89.0115 252.339C89.5345 274.526 115.469 290.852 120.655 298.031C123.178 301.53 117.867 311.459 113.798 317.121C92.2516 317.508 76.9557 323.042 68.2473 333.712C49.1856 357.065 65.8257 437.232 66.5423 440.634C66.6257 440.93 66.811 441.188 67.0655 441.361C67.32 441.534 67.6274 441.611 67.9336 441.58C68.2398 441.549 68.5251 441.411 68.7394 441.19C68.9537 440.969 69.0832 440.679 69.1051 440.372C233.179 440.372 230.053 440.15 230.064 440.412C230.074 440.758 230.221 441.087 230.474 441.325C230.726 441.563 231.063 441.691 231.409 441.681C231.756 441.671 232.085 441.524 232.323 441.272C232.561 441.019 232.689 440.683 232.679 440.336C232.606 438.194 231.042 388.135 225.524 371.689ZM203.329 205.034C202.636 214.218 174.001 224.368 160.86 230.487C163.757 227.267 165.98 223.5 167.397 219.407C167.446 219.203 167.445 218.991 167.394 218.788C167.344 218.585 167.245 218.397 167.107 218.24C166.239 217.321 165.311 216.462 164.327 215.667C171.817 211.833 203.96 196.65 203.329 205.034ZM161.521 216.705L164.605 219.459C162.727 225.165 156.129 231.952 154.107 233.931C138.362 227.488 134.564 211.229 133.783 206.543C141.795 205.962 151.33 208.214 161.521 216.705ZM92.4975 258.383C91.9768 256.388 91.6846 254.34 91.6266 252.279C91.2448 235.775 109.174 210.204 131.183 206.838C132.753 216.532 137.737 225.344 145.237 231.682C124.716 248.296 106.75 261.897 99.6054 267.248C97.7515 263.914 95.3485 260.917 92.4975 258.383ZM101.912 275.509C100.767 274.131 99.6865 272.693 98.6587 271.22C102.843 268.116 123.448 252.708 147.441 233.264C148.882 234.227 150.395 235.075 151.968 235.801C143.757 242.953 108.227 270.603 101.912 275.509ZM116.988 317.09C119.755 312.953 125.503 303.366 123.463 297.827C124.742 298.104 126.046 298.244 127.355 298.245C139.149 298.245 148.205 287 148.315 286.872C148.459 286.69 148.552 286.474 148.585 286.244C148.618 286.015 148.59 285.781 148.502 285.566C148.415 285.351 148.272 285.164 148.089 285.022C147.905 284.881 147.687 284.791 147.457 284.762C136.181 283.313 132.658 269.047 138.147 265.185C142.593 262.047 150.893 267.69 153.713 270.122C153.921 270.303 154.182 270.413 154.457 270.436C154.732 270.459 155.008 270.395 155.244 270.252C155.481 270.109 155.666 269.895 155.773 269.641C155.88 269.386 155.904 269.104 155.841 268.835C152.881 256.178 156.626 252.475 156.626 252.475C156.839 252.293 156.988 252.048 157.051 251.775C157.114 251.501 157.088 251.215 156.976 250.958C154.824 246.026 156.505 237.543 156.992 235.37C160.326 233.453 165.672 231.157 171.276 228.758C173.302 233.387 172.217 234.925 172.999 240.691C173.956 247.734 186.969 248.184 188.967 250.318C189.178 250.51 189.343 250.748 189.451 251.012C189.559 251.277 189.606 251.562 189.59 251.847C189.524 252.82 188.685 254.601 185.047 257.559C184.49 257.903 184.026 258.379 183.696 258.945C183.367 259.511 183.182 260.15 183.159 260.804C183.271 262.373 184.728 263.263 186.036 264.039C186.666 264.418 187.717 265.049 187.806 265.425C187.58 265.329 187.332 265.298 187.09 265.337C186.848 265.377 186.622 265.484 186.438 265.648C184.034 267.586 181.316 269.1 178.402 270.125C178.147 270.218 177.928 270.388 177.774 270.611C177.62 270.835 177.54 271.101 177.544 271.372C177.548 271.643 177.636 271.906 177.796 272.125C177.957 272.344 178.181 272.508 178.439 272.593C181.83 273.654 185.402 274.01 188.936 273.639C189.88 276.317 185.471 279.565 189.174 284.979C189.6 285.469 189.913 286.048 190.089 286.674C190.265 287.3 190.301 287.957 190.194 288.598C189.814 291.624 179.21 294.487 172.167 295.471C169.801 295.8 172.952 297.563 165.308 325.827C154.505 322.292 143.435 319.632 132.206 317.872C126.826 317.367 121.771 317.119 116.986 317.092L116.988 317.09Z" fill="#000001"/>
<path fill-rule="evenodd" clip-rule="evenodd" d="M340.38 250.435C340.38 250.435 340.15 259.224 336.766 260.529C332.373 263.016 327.161 264.548 330.045 268.212C332.93 271.876 334.175 273.139 332.522 275.558C330.869 277.977 331.196 280.788 341.215 283.927C341.215 283.927 333.228 283.793 332.323 287.444C331.418 291.095 335.181 290.046 333.516 293.621C331.85 297.196 327.731 308.87 354.175 308.838C354.175 308.838 356.887 327.733 362.465 336.925L371.728 332.173C371.728 332.173 363.998 273.071 353.838 262.658C343.419 251.97 340.38 250.435 340.38 250.435Z" fill="white"/>
<path fill-rule="evenodd" clip-rule="evenodd" d="M344.897 262.797C341.317 263.435 340.004 261.769 340.004 261.769L341.766 256.413C343.489 258.135 344.59 260.381 344.897 262.797Z" fill="white"/>
<path fill-rule="evenodd" clip-rule="evenodd" d="M308.38 439.339C340.888 441.515 355.944 439.507 355.944 439.507C358.838 427.929 361.032 416.188 362.513 404.346C368.603 360.051 336.061 353.38 336.061 353.38C336.061 353.38 304.718 366.845 308.38 439.339Z" fill="white"/>
<path fill-rule="evenodd" clip-rule="evenodd" d="M477.46 439.341L446.185 440.355C450.541 409.108 450.515 377.406 446.109 346.166C446.109 346.166 472.167 370.649 475.673 385.749C479.18 400.848 477.46 439.341 477.46 439.341Z" fill="white"/>
<path fill-rule="evenodd" clip-rule="evenodd" d="M356.007 439.339L446.114 440.354C445.044 440.697 452.226 399.495 448.583 369.853C444.969 340.464 371.138 332.15 371.138 332.15L336.051 353.372C366.177 362.622 367.54 388.679 356.007 439.339Z" fill="white"/>
<path fill-rule="evenodd" clip-rule="evenodd" d="M436.163 325.554L355.949 270.398C355.949 270.398 368.523 308.747 369.836 320.293C371.109 331.488 376.373 385.642 386.062 391.848C395.215 397.703 446.062 390.54 451.796 377.028C457.531 363.515 436.163 325.554 436.163 325.554Z" fill="#81F889"/>
<path fill-rule="evenodd" clip-rule="evenodd" d="M356.333 270.922C362.737 279.837 411.698 335.754 430.106 331.488C448.514 327.223 422.726 280.493 422.726 280.493C422.726 280.493 435.645 259.151 423.772 239.464C411.899 219.778 388.611 196.945 360.255 219.683C360.255 219.683 334.604 195.14 322.088 205.69C309.572 216.239 349.931 262.007 356.333 270.922Z" fill="white"/>
<path d="M476.946 385.45C473.492 370.586 449.592 347.664 447.223 345.421C444.347 338.559 441.113 331.853 437.534 325.331C440.672 311.968 426.707 285.118 424.217 280.489C426.289 276.645 435.842 256.94 424.884 238.775C408.759 212.062 385.069 198.853 360.319 217.956C355.654 213.699 333.328 194.48 321.239 204.679C312.959 211.659 323.472 229.981 339.05 250.815C338.901 254.014 337.97 258.661 336.124 259.388C332.586 261.396 328.605 262.696 327.986 265.531C327.881 266.153 327.919 266.791 328.098 267.396C328.277 268.001 328.592 268.557 329.019 269.022C332.771 273.779 332.243 273.439 331.247 275.168C330.924 275.625 330.696 276.142 330.574 276.688C330.452 277.235 330.439 277.799 330.537 278.351C330.634 278.902 330.839 279.428 331.14 279.9C331.442 280.372 331.833 280.779 332.293 281.099C332.362 282.32 332.502 283.537 332.714 284.742C331.911 285.324 331.334 286.165 331.079 287.124C330.833 287.87 330.81 288.671 331.015 289.429C331.219 290.188 331.642 290.869 332.23 291.389C332.753 291.912 332.839 292.02 332.356 293.058C331.449 294.624 330.967 296.398 330.955 298.207C330.944 300.016 331.404 301.797 332.29 303.374C335.067 307.729 342.06 310.001 353.086 310.132C353.745 314.251 356.294 328.532 360.931 336.806L335.538 352.178C334.231 352.743 303.424 366.844 307.083 439.411C307.101 439.758 307.255 440.083 307.513 440.316C307.771 440.549 308.11 440.67 308.457 440.652C308.804 440.634 309.129 440.48 309.362 440.222C309.595 439.964 309.716 439.624 309.698 439.278C306.385 373.565 332.295 356.901 336.231 354.757C342.141 356.249 347.53 359.332 351.811 363.671C356.091 368.011 359.101 373.44 360.513 379.37C365.845 400.569 354.814 438.595 354.702 438.977C354.646 439.144 354.625 439.32 354.639 439.495C354.653 439.67 354.702 439.841 354.784 439.997C354.865 440.152 354.977 440.29 355.113 440.402C355.249 440.513 355.406 440.596 355.575 440.645C355.743 440.695 355.92 440.71 356.095 440.689C356.269 440.669 356.438 440.613 356.591 440.526C356.743 440.439 356.877 440.322 356.983 440.182C357.089 440.042 357.167 439.882 357.21 439.712C357.675 438.127 368.557 400.623 363.049 378.732C361.586 372.778 358.639 367.291 354.481 362.784C350.324 358.277 345.092 354.898 339.275 352.96L370.063 334.335C371.258 345.088 376.481 387.268 385.367 392.953C393.717 398.296 433.512 393.651 448.078 383.12C448.54 402.186 447.453 421.258 444.827 440.149C444.771 440.491 444.854 440.841 445.056 441.123C445.259 441.404 445.565 441.594 445.907 441.65C446.25 441.705 446.6 441.623 446.881 441.42C447.163 441.218 447.353 440.912 447.408 440.57C450.13 420.83 451.197 400.898 450.599 380.981C451.61 379.996 452.427 378.829 453.007 377.542C455.549 371.551 453.175 361.302 449.576 351.428C457.076 359.064 471.891 375.225 474.42 386.049C477.846 400.799 476.191 438.904 476.172 439.286C476.157 439.632 476.279 439.971 476.514 440.227C476.748 440.484 477.074 440.636 477.421 440.652C477.768 440.668 478.106 440.545 478.363 440.311C478.619 440.076 478.772 439.75 478.787 439.403C478.834 437.821 480.453 400.55 476.946 385.45ZM434.95 315.715C437.774 332.797 427.627 333.911 412.954 324.447C415.525 321.571 415.763 317.078 415.88 313.202C417.889 318.694 421.335 324.651 426.759 322.405C431.503 320.454 434.105 318.309 434.95 315.715ZM433.017 307.695C428.827 301.841 424.27 296.259 419.374 290.981C421.227 289.16 422.579 286.891 423.297 284.394C427.159 291.887 430.411 299.679 433.023 307.695H433.017ZM362.173 219.873C385.793 201.855 407.585 215.166 422.646 240.125C426.614 246.835 428.21 254.684 427.175 262.411C426.451 268.687 421.872 285.788 415.726 284.117C407.841 281.985 371.993 240.533 357.772 223.469C359.064 222.355 360.56 221.136 362.173 219.873ZM322.925 206.677C331.945 199.075 349.477 211.766 358.269 219.638C354.818 222.436 351.564 225.469 348.53 228.715C348.296 228.941 348.149 229.242 348.115 229.566C348.08 229.89 348.161 230.215 348.342 230.485C352.73 236.461 389.318 285.877 405.313 293.34C401.31 298.639 397.915 304.371 395.192 310.427C381.345 297.864 368.549 284.188 356.933 269.537C350.091 260.423 311.957 215.922 322.925 206.677ZM363.164 335.444C358.086 326.333 355.515 308.824 355.489 308.641C355.443 308.328 355.286 308.042 355.045 307.836C354.805 307.63 354.498 307.519 354.181 307.522C342.165 307.522 329.625 305.048 334.701 294.161C335.171 293.45 335.367 292.593 335.253 291.749C335.139 290.905 334.723 290.13 334.082 289.569C333.803 289.366 333.602 289.073 333.514 288.74C333.425 288.407 333.454 288.053 333.595 287.739C334.058 285.853 338.464 285.322 340.842 285.231C343.42 285.134 342.51 283.23 341.396 282.506C338.719 280.435 336.236 278.125 333.977 275.604C336.294 271.245 330.167 267.717 330.528 266.088C330.826 264.723 334.942 263.091 337.222 261.747C339.837 260.732 340.923 256.883 341.367 253.901C344.194 257.615 353.726 269.634 354.759 271.017C355.735 274.004 367.286 309.58 368.523 320.443C369.632 330.187 369.527 329.157 369.739 331.458L363.164 335.444ZM450.591 376.514C445.384 388.777 395.699 396.455 386.766 390.746C377.78 384.993 372.336 330.718 371.133 320.137C370.142 311.437 363.026 288.269 359.349 276.7C370.205 289.512 381.877 301.61 394.292 312.917C393.048 316.882 392.634 321.285 396.301 323.276C400.603 325.629 406.576 328.213 410.917 325.995C416.074 329.395 424.351 334.155 430.4 332.755C431.624 332.499 432.78 331.987 433.792 331.252C434.804 330.517 435.649 329.575 436.27 328.49C440.703 336.825 455.228 365.581 450.591 376.514Z" fill="#000001"/>
<path d="M172.364 244.172L170.607 240.749C170.682 240.534 170.77 240.322 170.868 240.116C170.949 239.965 170.998 239.798 171.015 239.627C171.031 239.456 171.013 239.284 170.963 239.12C170.912 238.956 170.83 238.803 170.72 238.671C170.611 238.538 170.476 238.429 170.324 238.349C167.584 236.923 166.844 245.007 166.995 248.095C167.003 248.267 167.045 248.435 167.118 248.591C167.191 248.746 167.295 248.886 167.422 249.002C167.549 249.117 167.698 249.207 167.859 249.265C168.021 249.324 168.193 249.349 168.364 249.341C168.536 249.333 168.704 249.291 168.86 249.218C169.016 249.145 169.155 249.042 169.271 248.915C169.387 248.788 169.476 248.639 169.534 248.477C169.593 248.316 169.618 248.144 169.61 247.972C169.584 246.899 169.621 245.825 169.72 244.756L170.034 245.368C170.113 245.52 170.22 245.656 170.351 245.767C170.482 245.879 170.634 245.963 170.797 246.015C170.961 246.068 171.133 246.088 171.305 246.074C171.476 246.06 171.643 246.012 171.795 245.934C171.948 245.855 172.084 245.747 172.195 245.616C172.306 245.486 172.391 245.334 172.443 245.17C172.496 245.007 172.516 244.835 172.502 244.663C172.488 244.492 172.443 244.325 172.364 244.172Z" fill="#000001"/>
<path d="M342.225 254.007C342.119 253.865 341.985 253.745 341.832 253.656C341.679 253.567 341.509 253.51 341.333 253.489C341.157 253.468 340.978 253.482 340.808 253.532C340.638 253.582 340.479 253.666 340.343 253.779C340.206 253.892 340.094 254.031 340.013 254.189C339.931 254.347 339.883 254.519 339.871 254.696C339.859 254.873 339.882 255.051 339.941 255.218C339.999 255.386 340.091 255.539 340.211 255.67C340.211 255.67 340.473 256 340.818 256.512C340.394 256.878 340.467 256.946 339.272 260.27C339.214 260.432 339.189 260.603 339.197 260.775C339.205 260.947 339.247 261.115 339.32 261.271C339.394 261.426 339.497 261.565 339.624 261.681C339.751 261.796 339.9 261.886 340.062 261.944C340.224 262.002 340.395 262.027 340.567 262.019C340.739 262.011 340.907 261.969 341.062 261.896C341.218 261.822 341.357 261.719 341.473 261.592C341.588 261.465 341.678 261.316 341.736 261.154L342.389 259.323C342.943 260.508 343.351 261.755 343.605 263.037C343.67 263.378 343.867 263.679 344.154 263.875C344.441 264.07 344.793 264.144 345.134 264.079C345.475 264.015 345.776 263.817 345.972 263.531C346.167 263.244 346.241 262.891 346.176 262.551C345.529 259.438 344.177 256.516 342.225 254.007Z" fill="#000001"/>
<path d="M186.214 433.787C185.896 433.79 185.588 433.677 185.347 433.469C185.106 433.261 184.95 432.973 184.906 432.658C176.331 370.485 196.238 355.331 205.194 351.698C205.516 351.568 205.877 351.571 206.196 351.706C206.516 351.841 206.769 352.098 206.9 352.42C207.03 352.742 207.027 353.102 206.892 353.422C206.756 353.742 206.5 353.995 206.178 354.125C197.788 357.525 179.174 371.945 187.495 432.299C187.521 432.483 187.507 432.671 187.455 432.849C187.402 433.027 187.312 433.192 187.191 433.333C187.07 433.474 186.92 433.587 186.751 433.666C186.583 433.744 186.4 433.785 186.214 433.787Z" fill="white"/>
<path d="M437.709 121.651C371.643 44.1311 358.819 28.7881 355.95 25.7415C354.995 24.7268 354.765 24.7137 354.545 24.6954C249.051 20.2497 228.684 19.3684 224.738 19.2612C224.176 19.1885 223.606 19.2898 223.104 19.5514L106.27 62.9888C105.97 63.1001 105.722 63.3172 105.572 63.5991C105.421 63.8809 105.38 64.208 105.454 64.5187L107.658 73.7762C107.735 74.0964 107.929 74.376 108.202 74.5592C108.476 74.7425 108.808 74.8159 109.133 74.7648L113.472 74.0848C112.651 156.869 111.845 176.669 112.256 181.522C112.439 183.682 113.095 183.554 113.699 183.554H432.887C433.603 183.554 434.195 182.508 434.195 181.779V124.528L437.071 123.744C437.279 123.683 437.469 123.571 437.624 123.419C437.778 123.266 437.892 123.077 437.955 122.87C438.019 122.662 438.029 122.442 437.986 122.23C437.943 122.017 437.848 121.818 437.709 121.651ZM115.02 181.059L115.106 172.691C305.198 172.613 250.952 173.07 349.422 172.594L350.356 181.059H115.02ZM115.132 170.076L115.857 97.234L126.686 95.9264L125.324 170.073L115.132 170.076ZM127.931 170.076L129.306 95.6048L140.491 94.2449L139.087 170.084L127.931 170.076ZM141.705 170.076L143.107 93.9311L154.291 92.5738L152.861 170.063L141.705 170.076ZM155.479 170.076L156.92 92.26L168.102 90.9001L166.643 170.058L155.479 170.076ZM169.253 170.076L170.725 90.5889L181.907 89.2291L180.411 170.076H169.253ZM183.027 170.076L184.53 88.8839L195.632 91.873L194.185 170.045L183.027 170.076ZM198.32 87.239L211.524 85.6333L209.955 170.071H196.8C198.338 87.0167 198.396 87.4691 198.32 87.2076V87.239ZM227.018 100.273L225.726 170.031H212.575L213.932 96.7502L227.018 100.273ZM213.977 94.0592L214.139 85.2854L227.322 83.6824L227.06 97.5426L213.977 94.0592ZM228.344 170.031C228.344 169.663 229.856 89.1768 229.947 83.3686L244.263 81.6295L242.628 170.021L228.344 170.031ZM260.654 109.203L259.527 170.031H245.243L246.438 105.438L260.654 109.203ZM246.488 102.723L246.886 81.3052L261.203 79.5635L260.704 106.499L246.488 102.723ZM262.145 170.013L263.824 79.2445L278.139 77.5054L276.426 170.013H262.145ZM299.458 119.541L298.524 170.013H279.044L280.074 114.389L299.458 119.541ZM280.124 111.68L280.762 77.1811L300.287 74.8066L299.502 116.847L280.124 111.68ZM301.139 169.997L302.907 74.4954L317.225 72.7537L315.423 169.997H301.139ZM333.091 128.514L332.325 169.99H318.038L318.878 124.724L333.091 128.514ZM318.927 122.031L319.845 72.4347L334.163 70.6956L333.143 125.82L318.927 122.031ZM349.312 169.982H334.929L336.773 70.3766L351.041 68.6427L349.312 169.982ZM351.096 66.0041L115.883 94.5953L116.09 73.6743L351.556 39.2042L351.096 66.0041ZM109.923 71.9927L108.265 65.0365L224.437 21.8423L353 27.2452L351.729 36.542L109.923 71.9927ZM353.654 69.8431L362.414 76.9039L360.686 170.358L351.928 170L353.654 69.8431ZM431.585 180.586H352.987L352.048 172.623L431.579 175.874L431.585 180.586ZM363.301 170.466L364.993 78.996L370.581 83.5071C370.537 83.8916 370.657 78.0598 368.944 170.696L363.301 170.466ZM411.132 116.246L410.086 172.375L404.489 172.147L405.606 111.792L411.132 116.246ZM420.917 172.817L421.807 124.865L427.325 129.311L426.514 173.036L420.917 172.817ZM418.302 172.709L412.706 172.482L413.708 118.328L419.225 122.773L418.302 172.709ZM401.879 172.04L396.286 171.812L397.517 105.257L403.035 109.703L401.879 172.04ZM393.67 171.705L388.043 171.475L389.389 98.6932L394.939 103.176L393.67 171.705ZM385.427 171.368L379.776 171.138L381.241 92.1319L386.79 96.6116L385.427 171.368ZM377.185 171.03L371.554 170.803L373.123 85.5679L378.675 90.0502L377.185 171.03ZM431.71 173.253L429.124 173.151L429.908 131.401L431.721 132.933L431.71 173.253ZM431.825 129.581L353.711 66.5245L354.153 40.9485L431.823 124.068L431.825 129.581ZM433.549 122.07L354.271 37.2611L355.39 29.0758L434.417 121.814L433.549 122.07Z" fill="#000001"/>
</svg>
