<svg width="662" height="400" viewBox="0 0 662 400" fill="none" xmlns="http://www.w3.org/2000/svg">
<path d="M436.181 169.099C436.181 167.759 435.499 164.739 429.482 160.017C425.197 156.948 420.534 154.445 415.609 152.569C412.611 151.252 408.797 149.64 404.505 147.914L394.832 136.902C390.155 131.27 391.041 130.635 384.07 119.94C372.876 102.751 368.72 101.48 366.699 101.23C365.519 101.071 363.044 100.958 354.983 104.25C348.393 106.943 342.094 110.298 336.182 114.263C330.861 114.452 325.534 114.087 320.288 113.174C315.747 112.379 315.111 111.766 313.862 112.311C312.613 112.856 310.797 115.058 310.524 121.189C310.297 121.189 305.12 118.918 298.808 126.502C298.853 129.064 298.108 131.577 296.673 133.7C295.424 135.539 294.403 135.857 291.655 137.946C283.254 144.531 282.573 147.029 283.072 155.566C283.393 160.416 283.977 165.244 284.821 170.03C286.069 179.589 286.183 192.214 287.386 199.185C287.523 199.957 288.204 201.455 288.749 203.363C292.726 218.763 300.139 233.063 310.433 245.188C313.604 249.603 317.185 253.708 321.128 257.449C323.377 259.242 325.344 261.362 326.963 263.739C328.668 266.453 329.818 269.478 330.347 272.64C354.623 277.455 379.403 279.24 404.119 277.953C403.424 273.632 403.656 269.212 404.801 264.988C405.748 262.202 406.855 259.473 408.116 256.813C411.68 248.253 412.77 244.28 417.652 236.173C416.482 235.729 415.513 234.873 414.927 233.767C413.202 230.474 415.881 224.684 421.989 220.143C424.535 214.793 426.412 209.15 427.575 203.34C427.575 203.34 431.231 184.903 433.66 179.703C435.215 176.377 436.073 172.769 436.181 169.099ZM333.662 160.471C332.27 162.015 331.301 163.892 330.848 165.921C330.394 167.95 330.472 170.061 331.073 172.051L327.236 172.936C324.668 167.121 322.462 161.153 320.628 155.067L330.279 154.635L320.424 143.282C320.446 139.836 319.949 136.407 318.948 133.11C321.173 135 324.052 135.938 326.963 135.721L355.755 161.878L333.662 160.471Z" fill="white"/>
<path d="M264.798 117.691H247.314L246.679 140.965L226.447 141.805L227.492 166.214L246.997 166.532C247.405 172.163 247.837 177.772 248.245 183.403C226.447 184.016 217.501 183.789 185.463 183.789V165.874L208.305 165.624V118.736L181.693 118.35L182.147 138.558L166.117 138.172C166.117 130.361 166.435 122.823 166.003 114.739C165.617 107.927 166.003 101.116 166.003 94.3037C125.473 95.053 105.741 94.9622 70.8868 94.3037L70.2737 120.62C77.9711 121.733 85.1463 122.369 92.594 123.231C93.4341 137.037 93.7974 150.979 95.1144 164.648L113.961 166.419C114.392 172.867 113.961 177.772 114.074 183.403C93.366 183.403 74.9058 184.243 54.1069 184.243C53.9479 171.323 53.1759 124.662 53.1759 119.144C44.4794 119.303 36.4641 118.168 27.5859 117.873V123.277C34.7838 123.754 41.2097 123.776 48.2486 124.049C48.2486 129.112 49.2704 174.366 49.611 188.626C63.2348 188.807 76.0865 188.626 118.07 187.922C118.388 179.043 118.07 170.188 118.07 161.333L99.2015 160.243C98.2932 146.505 98.2932 132.972 97.2488 118.736L76.6315 116.215V99.2537C106.944 100.616 128.856 99.844 160.032 100.457C160.236 106.315 160.69 112.174 160.69 118.032C160.69 126.842 161.303 134.653 161.598 142.895H185.531L186.484 124.344L202.515 124.14L203.037 161.242H180.535C180.899 170.324 181.285 179.482 181.693 188.716C209.985 189.92 219.477 188.421 252.287 189.034L251.152 162.65L231.738 162.127L231.443 145.733L251.47 144.643C251.47 137.468 251.606 129.408 251.651 122.232C256.03 122.47 260.419 122.47 264.798 122.232V117.691Z" fill="#81F889"/>
<path d="M320.807 148.754L416.174 235.855C414.923 234.193 414.344 232.122 414.55 230.053C414.756 227.983 415.733 226.067 417.286 224.684C418.577 223.702 420.134 223.132 421.754 223.047C423.374 222.962 424.982 223.366 426.369 224.207L326.802 135.857C324.156 135.841 321.565 135.103 319.309 133.723C320.609 138.621 321.115 143.696 320.807 148.754Z" fill="#81F889"/>
<path d="M419.401 232.722C418.47 232.086 418.765 229.906 419.787 228.612C420.809 227.318 422.421 226.637 423.284 227.272C424.147 227.908 423.92 229.974 423.011 231.223C422.103 232.472 420.264 233.358 419.401 232.722Z" fill="#3F8465"/>
<path d="M296.945 122.642L298.83 126.661C300.138 124.854 301.84 123.367 303.806 122.313C305.773 121.258 307.953 120.665 310.183 120.576L304.348 116.693C302.685 116.905 301.113 117.573 299.807 118.623C298.501 119.673 297.51 121.064 296.945 122.642Z" fill="#81F889"/>
<path d="M4.85156 120.94C4.85156 122.293 5.1182 123.634 5.63626 124.884C6.15432 126.135 6.91365 127.272 7.87089 128.229C8.82814 129.186 9.96456 129.945 11.2153 130.463C12.466 130.982 13.8065 131.248 15.1602 131.248C16.514 131.248 17.8545 130.982 19.1052 130.463C20.3559 129.945 21.4923 129.186 22.4495 128.229C23.4068 127.272 24.1661 126.135 24.6842 124.884C25.2022 123.634 25.4688 122.293 25.4688 120.94C25.4688 119.586 25.2022 118.245 24.6842 116.995C24.1661 115.744 23.4068 114.607 22.4495 113.65C21.4923 112.693 20.3559 111.934 19.1052 111.416C17.8545 110.897 16.514 110.631 15.1602 110.631C13.8065 110.631 12.466 110.897 11.2153 111.416C9.96456 111.934 8.82814 112.693 7.87089 113.65C6.91365 114.607 6.15432 115.744 5.63626 116.995C5.1182 118.245 4.85156 119.586 4.85156 120.94Z" fill="#3F8465"/>
<path d="M37.8856 109.857C37.8855 110.04 37.9566 110.216 38.0837 110.347C38.2108 110.479 38.3841 110.555 38.5668 110.561C38.9301 110.561 39.2707 110.266 39.2707 109.903C40.3379 78.1141 38.7939 65.444 38.7939 42.0566C44.3115 42.3972 49.8518 42.6696 55.2332 42.8513L83.8658 43.4644C83.9672 43.4828 84.0715 43.4787 84.1712 43.4525C84.2709 43.4262 84.3636 43.3783 84.4427 43.3122C84.5219 43.2462 84.5856 43.1635 84.6293 43.0702C84.673 42.9768 84.6956 42.8749 84.6956 42.7718C84.6956 42.6687 84.673 42.5669 84.6293 42.4735C84.5856 42.3801 84.5219 42.2975 84.4427 42.2314C84.3636 42.1653 84.2709 42.1175 84.1712 42.0912C84.0715 42.0649 83.9672 42.0608 83.8658 42.0793C62.5673 41.6933 52.5084 41.5343 38.7939 40.6715C38.7939 33.4055 38.9528 26.1622 39.2253 18.76C97.2852 20.3721 109.365 18.76 194.809 20.0769L195.422 42.488C195.433 42.6689 195.511 42.839 195.642 42.965C195.772 43.0911 195.944 43.1639 196.126 43.1692C196.218 43.1663 196.309 43.1451 196.393 43.107C196.478 43.0689 196.553 43.0145 196.617 42.9471C196.68 42.8796 196.729 42.8003 196.762 42.7137C196.795 42.6272 196.81 42.535 196.807 42.4426L196.216 20.0996C215.199 20.3948 236.838 20.7808 261.02 21.2576C260.816 29.7044 260.748 37.152 260.725 43.0784C243.559 41.6025 235.748 42.2155 215.562 40.8077C215.461 40.7893 215.356 40.7934 215.257 40.8196C215.157 40.8459 215.064 40.8938 214.985 40.9599C214.906 41.0259 214.842 41.1086 214.799 41.202C214.755 41.2953 214.732 41.3972 214.732 41.5003C214.732 41.6034 214.755 41.7052 214.799 41.7986C214.842 41.892 214.906 41.9746 214.985 42.0407C215.064 42.1068 215.157 42.1546 215.257 42.1809C215.356 42.2072 215.461 42.2113 215.562 42.1928C236.679 43.6233 242.81 42.8967 260.816 44.4634C260.816 46.4616 261.224 100.094 261.134 107.473L237.746 106.565C237.406 106.565 236.974 106.928 236.974 107.246V130.248C229.912 131.292 227.074 130.452 217.855 130.952C218.014 116.783 218.105 103.318 217.855 88.945C226.302 88.5363 233.75 88.945 242.355 88.1503C242.518 88.1208 242.664 88.0353 242.77 87.9088C242.876 87.7822 242.933 87.6226 242.933 87.4577C242.933 87.2929 242.876 87.1333 242.77 87.0067C242.664 86.8802 242.518 86.7947 242.355 86.7652C235.544 87.5599 225.848 87.1512 217.22 87.5826C217.041 87.5942 216.873 87.6734 216.751 87.8042C216.629 87.935 216.561 88.1075 216.561 88.2865C216.697 94.0993 216.766 99.6397 216.788 105.362L172.329 106.134C172.012 100.071 171.784 93.8723 171.83 87.4691C171.83 87.015 171.398 86.6971 171.126 86.7652H152.825L151.508 43.1238C159.523 43.419 165.132 43.5325 173.215 43.3735C173.556 51.0483 173.873 58.723 174.214 66.3977C174.226 66.5764 174.305 66.744 174.436 66.8663C174.566 66.9887 174.739 67.0566 174.918 67.0562C181.185 67.0562 187.86 66.8291 194.332 66.9199V86.4927C194.332 86.6794 194.406 86.8585 194.538 86.9905C194.67 87.1225 194.849 87.1966 195.036 87.1966C195.127 87.1967 195.218 87.1783 195.302 87.1427C195.386 87.107 195.462 87.0548 195.526 86.9892C195.589 86.9235 195.639 86.8457 195.672 86.7604C195.705 86.6751 195.72 86.5841 195.717 86.4927V66.9654C208.342 67.1697 219.082 68.1007 238.859 66.9654C238.95 66.9625 239.04 66.9413 239.123 66.9029C239.206 66.8645 239.281 66.8097 239.342 66.7419C239.404 66.6741 239.451 66.5946 239.481 66.5081C239.511 66.4217 239.523 66.3301 239.517 66.2388C239.517 64.4904 237.406 66.8745 206.366 65.7619C196.534 65.3986 187.429 65.2397 175.645 65.5576L174.305 42.6696C174.299 42.493 174.225 42.3255 174.097 42.2026C173.97 42.0797 173.8 42.0111 173.624 42.0112C150.917 42.2609 153.415 41.3527 127.893 41.3527C127.731 41.3822 127.584 41.4676 127.479 41.5942C127.373 41.7208 127.315 41.8804 127.315 42.0452C127.315 42.2101 127.373 42.3697 127.479 42.4962C127.584 42.6228 127.731 42.7083 127.893 42.7378C138.452 42.7378 144.196 42.8967 149.873 43.1011L151.19 86.7652C137.884 86.629 79.4835 84.8806 62.0678 84.8806C61.8811 84.8806 61.7021 84.9548 61.5701 85.0868C61.4381 85.2188 61.3639 85.3978 61.3639 85.5845C61.4774 95.0303 61.591 103.5 61.3639 112.174C61.0006 123.913 60.7508 142.396 60.3421 152.818C60.3417 153.003 60.412 153.181 60.5386 153.316C60.6652 153.451 60.8386 153.533 61.0233 153.544C61.1128 153.547 61.202 153.533 61.2858 153.501C61.3696 153.47 61.4464 153.422 61.5117 153.361C61.5771 153.3 61.6298 153.226 61.6667 153.145C61.7037 153.063 61.7243 152.975 61.7272 152.886C62.0224 145.529 62.3176 130.974 62.3176 130.906L83.4344 131.497V173.231H62.1813C62.0799 173.212 61.9756 173.216 61.8759 173.243C61.7762 173.269 61.6835 173.317 61.6044 173.383C61.5252 173.449 61.4615 173.531 61.4179 173.625C61.3742 173.718 61.3515 173.82 61.3515 173.923C61.3515 174.026 61.3742 174.128 61.4179 174.222C61.4615 174.315 61.5252 174.398 61.6044 174.464C61.6835 174.53 61.7762 174.578 61.8759 174.604C61.9756 174.63 62.0799 174.634 62.1813 174.616H107.594C107.695 174.634 107.8 174.63 107.899 174.604C107.999 174.578 108.092 174.53 108.171 174.464C108.25 174.398 108.314 174.315 108.357 174.222C108.401 174.128 108.424 174.026 108.424 173.923C108.424 173.82 108.401 173.718 108.357 173.625C108.314 173.531 108.25 173.449 108.171 173.383C108.092 173.317 107.999 173.269 107.899 173.243C107.8 173.216 107.695 173.212 107.594 173.231H84.774V130.838C84.7741 130.655 84.7031 130.48 84.576 130.348C84.4488 130.217 84.2756 130.14 84.0929 130.134L62.2948 129.521C62.8171 102.796 62.9987 112.378 62.7717 86.3792C100.01 86.3792 133.161 88.6498 170.172 88.2865C170.172 103.977 171.648 117.237 171.648 131.814C171.648 131.906 171.667 131.996 171.702 132.08C171.738 132.165 171.79 132.241 171.856 132.304C171.921 132.368 171.999 132.418 172.084 132.45C172.17 132.483 172.261 132.499 172.352 132.496C172.442 132.499 172.532 132.483 172.616 132.45C172.701 132.417 172.777 132.367 172.841 132.303C172.905 132.239 172.955 132.163 172.988 132.079C173.021 131.995 173.036 131.905 173.033 131.814C173.033 123.708 172.556 115.92 172.148 107.632L216.538 106.86C216.538 115.579 216.13 158.403 216.311 172.391H193.946C193.759 172.391 193.58 172.465 193.448 172.597C193.316 172.729 193.242 172.908 193.242 173.094C193.242 173.186 193.26 173.276 193.296 173.36C193.331 173.445 193.384 173.521 193.449 173.584C193.515 173.648 193.593 173.698 193.678 173.73C193.763 173.763 193.854 173.779 193.946 173.776H237.337C237.429 173.779 237.52 173.763 237.605 173.73C237.69 173.698 237.768 173.648 237.834 173.584C237.9 173.521 237.952 173.445 237.987 173.36C238.023 173.276 238.041 173.186 238.041 173.094C238.041 172.908 237.967 172.729 237.835 172.597C237.703 172.465 237.524 172.391 237.337 172.391H217.697C217.538 158.403 217.697 132.677 217.697 132.45C227.21 131.951 229.935 132.859 237.564 131.633C237.732 131.608 237.886 131.527 238.001 131.403C238.117 131.279 238.187 131.12 238.2 130.952V107.973L261.633 108.881C261.726 108.884 261.818 108.869 261.904 108.836C261.991 108.804 262.07 108.754 262.138 108.691C262.205 108.628 262.259 108.552 262.298 108.468C262.336 108.383 262.357 108.292 262.36 108.2C262.36 100.548 262.042 32.9514 262.36 20.5992C262.363 20.5078 262.347 20.4168 262.315 20.3315C262.282 20.2462 262.232 20.1684 262.168 20.1027C262.105 20.0371 262.029 19.9848 261.945 19.9492C261.86 19.9136 261.77 19.8952 261.679 19.8953C153.029 17.6246 48.6257 17.6246 38.5214 17.3522C38.4294 17.3426 38.3364 17.3525 38.2484 17.3813C38.1605 17.4101 38.0796 17.4571 38.0111 17.5192C37.9425 17.5813 37.8878 17.6572 37.8506 17.7419C37.8133 17.8266 37.7943 17.9181 37.7948 18.0106C36.3189 58.9727 39.248 69.8945 37.8856 109.857Z" fill="#3F8465"/>
<path d="M104.623 39.2652C104.442 39.2652 104.269 39.337 104.141 39.4647C104.013 39.5924 103.941 39.7657 103.941 39.9464V66.0813C95.1313 66.0813 65.8402 65.7634 62.0937 65.6499C61.1854 65.6499 61.1173 67.0122 62.0937 67.0349C64.773 67.0349 104.577 67.5118 104.827 67.4664C113.614 67.4664 131.825 67.8751 131.825 67.8751C131.987 67.8456 132.133 67.7601 132.239 67.6336C132.345 67.507 132.403 67.3474 132.403 67.1825C132.403 67.0177 132.345 66.8581 132.239 66.7315C132.133 66.605 131.987 66.5195 131.825 66.49C122.878 66.2629 113.977 66.1267 105.349 66.0813V39.9464C105.349 39.853 105.33 39.7605 105.293 39.6748C105.256 39.589 105.202 39.5118 105.134 39.4479C105.066 39.384 104.985 39.3348 104.897 39.3034C104.809 39.272 104.716 39.259 104.623 39.2652Z" fill="#3F8465"/>
<path d="M262.543 129.679C262.546 129.588 262.53 129.497 262.498 129.411C262.465 129.326 262.415 129.248 262.351 129.183C262.288 129.117 262.212 129.065 262.128 129.029C262.043 128.993 261.953 128.975 261.862 128.975C261.675 128.975 261.496 129.049 261.364 129.181C261.232 129.313 261.158 129.492 261.158 129.679V196.776L234.296 197.23C234.205 197.23 234.114 197.248 234.03 197.284C233.946 197.32 233.87 197.372 233.806 197.438C233.743 197.503 233.693 197.581 233.66 197.666C233.627 197.752 233.612 197.843 233.615 197.934C233.621 198.117 233.698 198.29 233.829 198.417C233.96 198.544 234.136 198.615 234.319 198.615L261.158 198.161C261.158 200.137 261.43 227.339 261.589 239.032C246.921 239.032 232.336 239.078 217.834 239.169C217.698 231.676 217.425 225.25 217.039 218.188L239.609 218.892C239.786 218.892 239.956 218.823 240.083 218.701C240.21 218.578 240.285 218.41 240.291 218.233C240.297 218.142 240.284 218.05 240.254 217.964C240.224 217.878 240.177 217.798 240.116 217.73C240.054 217.662 239.98 217.608 239.897 217.569C239.814 217.531 239.724 217.51 239.632 217.507L216.926 216.803C216.676 211.649 216.404 205.45 216.199 197.571C216.194 197.392 216.12 197.222 215.993 197.095C215.867 196.969 215.697 196.895 215.518 196.89C201.372 196.708 186.931 196.64 172.376 196.662V174.637C172.376 174.546 172.358 174.456 172.322 174.371C172.287 174.287 172.234 174.211 172.169 174.148C172.103 174.084 172.025 174.034 171.94 174.001C171.855 173.969 171.764 173.953 171.672 173.956C171.582 173.953 171.492 173.968 171.408 174.002C171.324 174.035 171.247 174.085 171.184 174.149C171.12 174.213 171.07 174.289 171.036 174.373C171.003 174.457 170.988 174.547 170.991 174.637V196.685L130.12 196.89C130.074 182.448 129.348 168.348 130.188 152.794C130.194 152.703 130.182 152.611 130.152 152.525C130.122 152.438 130.075 152.359 130.013 152.291C129.952 152.223 129.877 152.168 129.794 152.13C129.711 152.091 129.621 152.07 129.529 152.067L106.823 151.454C107.3 137.218 106.414 123.73 106.823 108.449C120.697 108.449 135.047 108.789 149.352 109.402C150.51 132.631 149.352 137.581 149.579 174.478C149.585 174.663 149.661 174.839 149.792 174.97C149.922 175.101 150.098 175.177 150.283 175.182C150.47 175.182 150.649 175.108 150.781 174.976C150.913 174.844 150.987 174.665 150.987 174.478V153.135C199.124 153.135 196.195 153.135 196.399 152.908C196.604 152.68 196.785 154.088 194.923 131.95C194.942 131.848 194.938 131.744 194.912 131.644C194.885 131.545 194.837 131.452 194.771 131.373C194.705 131.294 194.623 131.23 194.529 131.186C194.436 131.142 194.334 131.12 194.231 131.12C194.128 131.12 194.026 131.142 193.933 131.186C193.839 131.23 193.757 131.294 193.691 131.373C193.624 131.452 193.577 131.545 193.55 131.644C193.524 131.744 193.52 131.848 193.538 131.95L195.151 151.636H150.964C151.1 136.854 151.623 126.977 150.692 108.494C150.681 108.323 150.608 108.162 150.487 108.04C150.366 107.919 150.204 107.846 150.033 107.836C130.211 107.381 107.89 106.927 85.5474 107.381C85.446 107.363 85.3417 107.367 85.2421 107.393C85.1424 107.42 85.0497 107.468 84.9705 107.534C84.8913 107.6 84.8277 107.682 84.784 107.776C84.7403 107.869 84.7176 107.971 84.7176 108.074C84.7176 108.177 84.7403 108.279 84.784 108.372C84.8277 108.466 84.8913 108.548 84.9705 108.614C85.0497 108.68 85.1424 108.728 85.2421 108.755C85.3417 108.781 85.446 108.785 85.5474 108.767C85.5474 108.767 98.7171 108.608 105.415 108.63C105.052 123.412 105.96 138.33 105.415 152.294C105.409 152.385 105.422 152.475 105.452 152.56C105.482 152.646 105.53 152.724 105.591 152.79C105.653 152.856 105.728 152.908 105.811 152.944C105.894 152.98 105.983 152.999 106.074 152.998L128.78 153.611C127.963 168.87 128.644 182.88 128.78 196.89C113.953 196.89 98.7852 196.458 83.572 195.845C83.3832 195.845 83.2017 195.918 83.0661 196.05C82.9304 196.181 82.8513 196.36 82.8454 196.549V218.983C82.8454 219.169 82.9196 219.348 83.0516 219.48C83.1836 219.612 83.3626 219.687 83.5493 219.687C83.6407 219.687 83.7312 219.668 83.8153 219.633C83.8995 219.597 83.9756 219.545 84.0392 219.479C84.1027 219.413 84.1524 219.336 84.1853 219.25C84.2182 219.165 84.2335 219.074 84.2305 218.983V197.185C99.2166 197.752 114.18 198.093 128.803 198.184C128.803 204.996 128.803 211.808 128.599 218.96C128.592 219.053 128.605 219.147 128.637 219.235C128.668 219.323 128.717 219.403 128.781 219.471C128.845 219.539 128.922 219.594 129.008 219.631C129.094 219.668 129.186 219.687 129.28 219.687L150.192 219.164C151.123 219.164 151.055 217.688 150.192 217.779L130.052 218.279C130.347 211.467 130.347 204.655 130.256 198.184L171.127 197.979V219.301C171.127 219.48 171.195 219.652 171.317 219.783C171.44 219.914 171.607 219.993 171.786 220.005L197.081 221.049C197.258 221.044 197.428 220.975 197.557 220.853C197.687 220.732 197.768 220.567 197.784 220.391C197.785 220.205 197.715 220.027 197.588 219.892C197.461 219.757 197.288 219.675 197.103 219.664L172.626 218.642V197.957C186.817 197.957 201.054 197.957 214.973 198.184C215.45 215.486 216.267 224.137 216.54 239.055C194.31 239.191 121.333 239.782 106.891 239.85V219.777C106.91 219.676 106.906 219.572 106.879 219.472C106.853 219.372 106.805 219.28 106.739 219.201C106.673 219.121 106.59 219.058 106.497 219.014C106.404 218.97 106.302 218.948 106.199 218.948C106.096 218.948 105.994 218.97 105.9 219.014C105.807 219.058 105.724 219.121 105.658 219.201C105.592 219.28 105.544 219.372 105.518 219.472C105.492 219.572 105.488 219.676 105.506 219.777V239.873L62.2281 240.1L61.4107 198.751C61.3895 198.57 61.3049 198.403 61.1719 198.278C61.0389 198.153 60.8661 198.08 60.6841 198.07C60.5014 198.076 60.3281 198.153 60.201 198.284C60.0738 198.416 60.0028 198.591 60.0029 198.774L60.843 240.1H39.4991C40.1122 204.065 38.8179 169.392 38.8179 130.11C38.8179 129.924 38.7438 129.745 38.6118 129.613C38.4798 129.481 38.3007 129.407 38.114 129.407C37.9274 129.407 37.7483 129.481 37.6163 129.613C37.4843 129.745 37.4102 129.924 37.4102 130.11C37.4102 146.731 38.4773 219.187 38.114 240.781C38.111 240.872 38.1264 240.963 38.1592 241.048C38.1921 241.134 38.2418 241.212 38.3054 241.277C38.3689 241.343 38.445 241.395 38.5292 241.431C38.6134 241.466 38.7038 241.485 38.7952 241.485C76.5557 241.485 215.223 240.236 262.384 240.236C262.567 240.23 262.74 240.153 262.867 240.022C262.994 239.89 263.065 239.715 263.065 239.532C262.543 202.589 262.407 163.875 262.543 129.679Z" fill="#3F8465"/>
<path d="M47.5636 124.821C47.5636 124.821 48.7216 180.474 48.926 188.739C48.9316 188.918 49.0052 189.088 49.1318 189.214C49.2583 189.341 49.4283 189.414 49.6071 189.42C65.2745 189.624 81.5776 189.42 118.089 188.716C118.266 188.705 118.433 188.63 118.559 188.505C118.684 188.379 118.76 188.212 118.77 188.035C119.088 179.134 118.77 170.165 118.77 161.446C118.771 161.267 118.703 161.094 118.581 160.964C118.458 160.833 118.291 160.754 118.112 160.742L99.9469 159.675C99.0387 146.051 99.0387 132.813 98.0396 118.667C98.0214 118.509 97.9516 118.361 97.8408 118.246C97.7299 118.131 97.5844 118.056 97.4265 118.032L77.445 115.602V99.9575C85.0743 100.298 147.471 100.888 159.483 101.115C159.483 102.818 159.619 104.521 159.71 106.224C160.482 121.619 159.71 115.67 160.641 134.63C160.777 137.332 160.913 140.034 161.027 142.804C161.032 142.983 161.106 143.153 161.233 143.28C161.359 143.406 161.529 143.48 161.708 143.485L185.55 143.712C185.729 143.713 185.901 143.645 186.032 143.523C186.163 143.4 186.242 143.233 186.253 143.054L187.162 125.048L201.853 124.844L202.375 160.56H180.531C180.437 160.56 180.344 160.579 180.257 160.616C180.17 160.653 180.091 160.707 180.026 160.775C179.96 160.842 179.908 160.923 179.874 161.011C179.84 161.099 179.825 161.193 179.828 161.287C180.236 170.37 180.622 179.52 180.986 188.739C180.996 188.912 181.068 189.077 181.189 189.202C181.309 189.327 181.471 189.404 181.644 189.42C210.708 190.624 219.995 189.125 252.283 189.738C253.033 189.897 252.942 188.671 252.942 188.285C252.942 186.196 252.601 180.201 251.829 162.627C251.829 162.54 251.812 162.455 251.779 162.375C251.746 162.295 251.697 162.222 251.636 162.161C251.575 162.1 251.503 162.051 251.423 162.018C251.343 161.985 251.257 161.968 251.171 161.968L232.415 161.469L232.256 146.369L251.647 145.256C251.822 145.245 251.987 145.169 252.108 145.043C252.23 144.917 252.301 144.75 252.306 144.575C252.306 140.988 252.442 126.251 252.465 122.891C259.004 123.254 264.022 122.891 264.931 122.891C265.111 122.891 265.285 122.819 265.412 122.691C265.54 122.564 265.612 122.39 265.612 122.21V117.668C265.615 117.577 265.6 117.486 265.567 117.401C265.534 117.315 265.484 117.238 265.421 117.172C265.357 117.106 265.281 117.054 265.197 117.018C265.113 116.983 265.022 116.964 264.931 116.964H247.424C247.336 116.958 247.247 116.97 247.163 116.999C247.08 117.028 247.003 117.073 246.937 117.133C246.871 117.192 246.818 117.264 246.781 117.344C246.744 117.425 246.723 117.512 246.72 117.6L246.107 140.306C224.695 141.192 226.307 141.056 226.035 141.351C225.762 141.646 225.785 139.92 226.92 166.328C226.92 166.503 226.99 166.67 227.113 166.793C227.237 166.917 227.404 166.986 227.579 166.986L246.448 167.304C246.856 172.466 247.242 177.636 247.606 182.813C229.622 183.335 221.652 183.199 186.299 183.199L186.458 166.714L208.324 166.487C208.414 166.49 208.504 166.475 208.588 166.441C208.672 166.408 208.749 166.358 208.813 166.294C208.877 166.23 208.927 166.154 208.96 166.07C208.993 165.986 209.008 165.896 209.005 165.806L209.437 119.008C209.437 118.821 209.362 118.642 209.23 118.51C209.098 118.378 208.919 118.304 208.733 118.304C179.987 117.85 181.758 117.805 181.485 118.122C181.213 118.44 181.258 117.146 181.758 138.104L167.112 137.741V130.656C167.339 111.288 166.613 119.508 166.794 101.479C166.794 94.1447 166.794 94.4171 166.635 94.1446C165.75 93.2818 148.198 95.4162 71.0419 93.963C70.859 93.9629 70.6834 94.0339 70.552 94.1611C70.4206 94.2882 70.3439 94.4615 70.338 94.6442L69.7249 120.961C69.7177 121.131 69.7743 121.297 69.8836 121.427C69.9928 121.557 70.1468 121.642 70.3153 121.665C77.7629 122.709 84.711 123.368 92.0679 124.208C92.908 137.832 93.2713 151.592 94.5656 165.079C94.5807 165.243 94.6526 165.396 94.7687 165.512C94.8848 165.628 95.0378 165.7 95.2013 165.715L113.571 167.327C113.911 173.185 113.571 177.704 113.571 182.972C104.17 182.972 65.8875 183.812 54.9885 183.812C54.8296 171.21 54.0576 125.502 54.0576 119.394C54.058 119.301 54.0402 119.21 54.0052 119.124C53.9701 119.038 53.9185 118.96 53.8532 118.894C53.7042 118.794 53.5326 118.731 53.3537 118.713C43.7943 118.736 37.8226 117.805 27.9 117.282C27.4231 116.987 26.9236 117.282 26.9463 117.736C26.9463 119.122 26.7419 121.937 26.9463 123.277C26.9463 123.686 27.4458 124.253 27.9454 124.003C35.7336 124.639 40.2976 124.526 47.5636 124.821ZM28.1043 118.736C37.7999 119.258 43.6354 120.143 52.4908 119.984C52.4908 125.933 53.2629 171.482 53.4218 184.402C53.4217 184.493 53.4401 184.584 53.4757 184.668C53.5114 184.752 53.5636 184.828 53.6293 184.892C53.695 184.955 53.7727 185.005 53.858 185.038C53.9433 185.071 54.0343 185.086 54.1257 185.083C65.2518 185.083 104.465 184.289 114.093 184.243C114.182 184.243 114.27 184.225 114.352 184.19C114.434 184.155 114.508 184.103 114.57 184.039C114.888 183.721 114.729 184.039 114.82 178.112C114.82 174.548 114.956 170.869 114.661 166.532C114.646 166.366 114.575 166.21 114.459 166.09C114.344 165.97 114.19 165.894 114.025 165.874L95.6327 164.148C94.3839 150.706 94.0206 136.901 93.1805 123.277C93.1712 123.113 93.1048 122.957 92.9929 122.837C92.8809 122.717 92.7304 122.639 92.5674 122.618C85.2333 121.778 78.2397 121.12 70.8602 120.098L71.4506 95.121C94.7699 95.5751 157.734 95.28 165.205 95.121C165.205 101.615 164.955 108.268 165.205 114.807C165.636 122.891 165.205 130.429 165.205 138.195C165.202 138.285 165.217 138.375 165.25 138.459C165.283 138.543 165.333 138.62 165.397 138.684C165.461 138.747 165.537 138.797 165.622 138.831C165.706 138.864 165.796 138.879 165.886 138.876L181.917 139.285C182.105 139.285 182.287 139.211 182.422 139.08C182.558 138.949 182.637 138.77 182.643 138.581L182.303 119.144L207.711 119.53L207.325 164.943L185.436 165.17C185.253 165.176 185.08 165.252 184.953 165.384C184.826 165.515 184.755 165.691 184.755 165.874L184.596 183.721C184.601 183.904 184.673 184.08 184.798 184.214C184.924 184.348 185.094 184.431 185.277 184.447C185.277 184.447 236.775 184.447 248.173 184.016C248.923 184.016 248.832 183.289 248.809 182.813C248.809 181.359 248.423 177.431 247.583 166.396C247.572 166.223 247.495 166.061 247.368 165.943C247.242 165.825 247.075 165.76 246.902 165.76L228.056 165.442L227.079 142.395L246.607 141.578C246.786 141.572 246.956 141.499 247.082 141.372C247.209 141.246 247.282 141.076 247.288 140.897L247.878 118.327H264.022V121.483C259.844 121.642 255.825 121.642 251.625 121.483C251.53 121.473 251.434 121.484 251.343 121.514C251.252 121.544 251.169 121.592 251.098 121.657C251.028 121.721 250.971 121.799 250.933 121.887C250.895 121.974 250.875 122.069 250.875 122.164C250.875 125.752 250.739 140.534 250.717 143.939L231.303 145.052C231.215 145.052 231.129 145.07 231.048 145.104C230.968 145.139 230.896 145.19 230.836 145.254C230.777 145.318 230.731 145.394 230.702 145.476C230.672 145.558 230.661 145.646 230.667 145.733L230.939 162.15C230.945 162.329 231.019 162.499 231.145 162.625C231.272 162.752 231.442 162.825 231.621 162.831L250.399 163.331L251.466 188.308C219.359 187.717 211.071 189.216 182.257 188.035C181.917 179.339 181.531 170.619 181.167 161.923H202.965C203.152 161.923 203.331 161.849 203.463 161.717C203.595 161.585 203.669 161.406 203.669 161.219L203.147 124.117C203.147 123.936 203.075 123.763 202.947 123.635C202.82 123.507 202.646 123.436 202.466 123.436L186.412 123.64C186.324 123.637 186.236 123.652 186.153 123.684C186.071 123.715 185.996 123.763 185.932 123.825C185.868 123.886 185.818 123.96 185.783 124.041C185.749 124.123 185.731 124.21 185.731 124.299L184.8 142.305L162.094 142.1C161.776 134.04 161.186 126.546 161.186 118.009C161.186 112.105 160.754 106.156 160.55 100.412C160.539 100.234 160.464 100.067 160.338 99.9419C160.213 99.8164 160.046 99.7412 159.869 99.7304C147.607 99.5033 84.325 98.8903 76.4914 98.527C76.3962 98.5205 76.3008 98.5342 76.2112 98.567C76.1217 98.5998 76.04 98.651 75.9715 98.7174C75.9031 98.7837 75.8493 98.8637 75.8136 98.9521C75.778 99.0406 75.7614 99.1356 75.7648 99.2309V116.215C75.7688 116.383 75.8328 116.544 75.9453 116.669C76.0577 116.794 76.2111 116.875 76.3778 116.896L96.4047 119.349C97.3584 133.222 97.3811 146.869 98.3121 160.379C98.328 160.546 98.4031 160.702 98.5239 160.818C98.6446 160.935 98.803 161.005 98.9706 161.015L117.136 162.082C117.136 170.46 117.408 178.884 117.136 187.331C88.0034 187.853 66.7731 188.239 50.0159 188.035C49.8342 180.042 48.6762 124.14 48.6762 124.14C48.6705 123.961 48.5969 123.791 48.4704 123.664C48.3438 123.538 48.1739 123.464 47.995 123.458C40.6155 123.141 35.8244 123.254 27.9 122.641C28.127 121.665 28.0816 119.689 28.1043 118.736Z" fill="#3F8465"/>
<path d="M331.64 282.016C330.713 281.957 329.783 282.092 328.912 282.413C328.04 282.734 327.244 283.233 326.576 283.878C325.726 284.665 325.161 285.711 324.968 286.853C324.775 287.995 324.965 289.168 325.509 290.191C325.968 290.796 326.567 291.281 327.256 291.601C327.945 291.922 328.701 292.069 329.46 292.03C336.249 292.03 338.179 282.448 331.64 282.016ZM332.752 289.441C331.095 290.94 327.825 291.144 326.644 289.441C326.312 288.681 326.222 287.836 326.389 287.023C326.556 286.21 326.97 285.468 327.575 284.9C329.233 283.22 332.593 282.879 333.797 284.514C334.19 285.336 334.301 286.264 334.112 287.155C333.923 288.046 333.445 288.85 332.752 289.441Z" fill="#3F8465"/>
<path d="M310.84 123.277C309.682 122.687 308.41 123.391 306.866 124.117C301.349 126.66 300.849 126.388 300.804 127.069C300.694 129.343 300.21 131.582 299.373 133.699C299.328 133.799 299.305 133.907 299.305 134.017C299.305 134.127 299.328 134.235 299.373 134.335C299.6 134.698 299.918 134.676 301.19 134.676C304.006 134.672 306.807 134.251 309.5 133.427C309.619 133.38 309.727 133.311 309.818 133.222C311.384 131.562 312.268 129.374 312.293 127.092C312.361 125.003 311.839 123.731 310.84 123.277ZM308.955 132.155C306.38 132.939 303.7 133.321 301.008 133.29C301.643 131.45 302.033 129.534 302.166 127.591C308.138 125.321 309.477 124.14 310.181 124.503C310.431 124.639 310.976 125.139 310.976 127.114C310.91 128.952 310.193 130.706 308.955 132.064V132.155Z" fill="#3F8465"/>
<path d="M434.344 180.044C435.963 176.597 436.866 172.859 437.001 169.054C436.865 166.125 434.503 163.014 430.03 159.54C425.7 156.441 420.992 153.907 416.02 152.001C412.546 150.48 408.868 148.936 405.099 147.46C403.551 145.308 401.819 143.294 399.922 141.443C390.839 132.156 392.883 132.111 384.754 119.645C372.833 101.48 368.655 100.844 366.884 100.617C365.839 100.481 363.364 100.186 354.827 103.682C348.248 106.364 341.957 109.704 336.049 113.65C330.818 113.834 325.582 113.468 320.427 112.561C315.886 111.743 315.114 111.085 313.615 111.743C311.549 112.629 310.345 115.217 309.959 119.577C304.328 115.376 301.399 114.536 292.476 109.677L293.906 108.178C293.971 108.117 294.022 108.043 294.057 107.961C294.092 107.879 294.11 107.791 294.11 107.701C294.11 107.612 294.092 107.524 294.057 107.442C294.022 107.36 293.971 107.286 293.906 107.225C288.774 102.116 289.001 102.206 288.593 102.252C288.184 102.297 288.956 101.412 278.693 114.65C267.771 102.888 268.589 103.637 268.157 103.614C267.726 103.592 268.157 103.455 263.207 107.997C263.135 108.061 263.077 108.139 263.037 108.227C262.997 108.315 262.977 108.411 262.977 108.507C262.977 108.604 262.997 108.7 263.037 108.788C263.077 108.876 263.135 108.954 263.207 109.018L273.879 118.669L263.412 129.658C263.346 129.724 263.293 129.802 263.258 129.887C263.222 129.973 263.204 130.065 263.204 130.158C263.204 130.251 263.222 130.343 263.258 130.428C263.293 130.514 263.346 130.592 263.412 130.657C268.884 135.607 268.634 135.471 269.065 135.426C269.497 135.38 268.816 136.175 277.966 123.596C287.775 137.401 287.049 136.516 287.457 136.561C287.556 136.571 287.655 136.56 287.749 136.528C287.843 136.497 287.929 136.446 288.002 136.379C294.814 130.43 294.519 130.771 294.519 130.34C294.519 129.908 295.337 130.771 282.962 119.509L290.704 111.471C292.793 116.012 295.359 121.461 298.084 126.752C298.103 129.127 297.407 131.453 296.086 133.428C294.905 135.108 293.815 135.426 291.204 137.537C282.485 144.349 281.917 147.051 282.371 155.702C282.916 166.533 283.983 163.604 285.368 185.062C285.709 190.557 286.05 195.734 286.663 199.389C286.924 200.912 287.406 202.388 288.093 203.772C289.206 205.906 295.564 235.311 321.789 259.107C323.542 260.581 325.072 262.302 326.331 264.216C327.829 266.623 328.868 269.286 329.396 272.072C326.775 271.584 324.066 272.035 321.744 273.344C321.103 273.91 320.596 274.61 320.259 275.395C319.921 276.181 319.761 277.031 319.791 277.885C319.042 284.946 319.791 285.151 319.155 298.457C302.943 298.457 305.85 299.183 304.919 318.098C303.761 341.031 296.926 388.146 296.404 392.256C346.675 393.641 369.609 391.303 390.544 390.803C401.001 390.625 411.437 389.783 421.788 388.283C420.198 366.076 419.199 314.238 418.087 305.995C417.95 304.905 418.45 302.544 413.069 302.203C414.34 293.688 414.476 287.966 414.794 285.718C415.112 283.471 415.498 280.541 413.727 278.68C411.456 276.409 407.528 277.022 404.644 277.272C404.075 273.251 404.329 269.156 405.394 265.237C405.734 264.079 409.822 254.407 411.434 250.342C413.196 245.722 415.369 241.268 417.928 237.036C419.563 237.288 421.236 237.081 422.76 236.438C424.285 235.796 425.602 234.743 426.564 233.397C427.526 232.052 428.097 230.465 428.211 228.815C428.326 227.164 427.981 225.514 427.215 224.048C427.215 223.753 427.328 224.048 422.809 219.984C430.893 199.435 430.825 187.491 434.344 180.044ZM293.702 114.581C294.083 113.798 294.749 113.189 295.564 112.878L302.375 116.421C301.143 116.669 299.99 117.218 299.02 118.018C298.05 118.818 297.291 119.844 296.812 121.007C295.836 118.986 294.86 117.034 293.702 114.581ZM297.743 122.937C297.98 121.355 298.824 119.927 300.095 118.957C301.367 117.986 302.967 117.549 304.555 117.738C304.85 117.738 304.737 117.738 305.872 118.419C307.008 119.1 307.689 119.622 308.574 120.258C306.716 120.41 304.909 120.942 303.265 121.821C301.62 122.7 300.174 123.907 299.015 125.367L297.743 122.937ZM407.097 278.452C408.094 278.229 409.127 278.219 410.129 278.423C411.131 278.626 412.078 279.039 412.91 279.633C414.227 281.018 413.886 283.425 413.591 285.514C413.25 288.035 413.227 292.985 411.865 302.158C403.772 302.564 395.663 302.564 387.569 302.158C374.082 301.704 343.769 298.525 320.722 298.502C321.222 286.195 320.722 284.878 321.335 278.066C321.299 277.404 321.408 276.741 321.655 276.125C321.902 275.509 322.281 274.955 322.766 274.502C324.514 273.207 328.374 273.071 334.255 274.138C361.843 279.134 384.981 280.519 407.097 278.452ZM405.258 261.922C404.824 262.874 404.452 263.852 404.145 264.851C403.055 268.936 402.784 273.196 403.35 277.385C368.292 280.042 338.07 273.048 331.008 272.231C330.117 266.688 327.225 261.663 322.879 258.108C296.812 234.516 290.863 205.883 289.501 203.181C288.866 201.924 288.429 200.576 288.207 199.185C287.003 192.26 286.89 179.635 285.641 170.053C284.815 165.288 284.239 160.482 283.915 155.657C283.484 147.392 283.915 145.189 292.226 138.627C294.905 136.516 296.018 136.175 297.403 134.222C298.869 132.048 299.659 129.488 299.673 126.865C303.057 122.892 307.189 120.916 310.255 121.893C313.32 122.869 314.523 125.73 316.658 129.931C319.873 136.067 320.861 143.129 319.451 149.912C317.818 146.69 315.789 143.685 313.411 140.966C313.345 140.9 313.267 140.848 313.182 140.812C313.096 140.776 313.004 140.758 312.911 140.758C312.818 140.758 312.726 140.776 312.641 140.812C312.555 140.848 312.477 140.9 312.412 140.966C312.285 141.097 312.215 141.272 312.215 141.454C312.215 141.636 312.285 141.811 312.412 141.942C315.205 145.096 317.502 148.656 319.224 152.501C321.244 157.042 322.289 163.218 327.557 174.776C327.608 174.887 327.687 174.984 327.786 175.056C327.886 175.127 328.002 175.172 328.124 175.184C332.639 175.654 337.007 177.054 340.953 179.294C341.116 179.384 341.308 179.406 341.486 179.355C341.665 179.303 341.816 179.184 341.907 179.022C341.951 178.943 341.979 178.856 341.989 178.766C341.999 178.677 341.991 178.586 341.966 178.499C341.94 178.413 341.898 178.332 341.841 178.262C341.784 178.192 341.714 178.134 341.635 178.091C337.639 175.826 333.231 174.383 328.669 173.845L328.488 173.481C333.392 172.301 338.569 171.211 343.883 170.552C421.81 241.646 416.02 236.514 416.77 236.764C411.229 245.733 411.002 248.162 405.144 261.922H405.258ZM330.327 171.529L327.784 172.119C325.452 166.7 323.435 161.15 321.744 155.498C323.546 155.614 325.356 155.561 327.148 155.339L332.825 160.516C331.543 162.011 330.635 163.789 330.177 165.704C329.719 167.619 329.724 169.616 330.191 171.529H330.327ZM333.869 161.447L342.429 169.258C338.955 169.78 335.458 170.416 331.689 171.234C331.232 169.557 331.179 167.796 331.534 166.095C331.889 164.393 332.643 162.801 333.733 161.447H333.869ZM321.244 154.068C320.995 153.386 320.722 152.683 320.382 151.933C320.586 151.161 320.768 150.389 320.904 149.663L325.763 154.204C324.21 154.279 322.654 154.233 321.108 154.068H321.244ZM419.404 235.81C418.609 235.81 417.835 235.553 417.197 235.079C416.559 234.605 416.091 233.937 415.861 233.176C415.339 231.807 415.26 230.309 415.635 228.892C416.01 227.476 416.821 226.213 417.952 225.282C419.084 224.351 420.48 223.799 421.942 223.704C423.404 223.609 424.859 223.976 426.102 224.752C426.698 225.913 426.983 227.208 426.93 228.512C426.877 229.815 426.487 231.083 425.799 232.191C425.111 233.3 424.148 234.212 423.004 234.838C421.859 235.464 420.572 235.783 419.267 235.765L419.404 235.81ZM423.604 222.482C422.215 222.267 420.795 222.409 419.476 222.893C418.156 223.377 416.981 224.188 416.06 225.249C415.14 226.311 414.503 227.588 414.21 228.963C413.917 230.337 413.977 231.763 414.385 233.108C317.589 144.849 321.358 148.255 321.017 148.096C321.632 143.598 321.268 139.021 319.95 134.676C321.818 136.132 324.181 136.8 326.535 136.538L423.604 222.482ZM355.644 160.471L329.01 136.902C331.939 137.424 329.578 137.265 339.182 138.854C343.433 139.516 347.747 139.669 352.034 139.309V140.467C352.15 142.027 352.619 143.542 353.406 144.895C354.192 146.248 355.276 147.405 356.575 148.278C355.878 152.303 355.566 156.386 355.644 160.471ZM433.05 179.453C429.644 186.742 429.394 199.276 421.697 219.008L357.143 161.742C356.987 157.265 357.291 152.783 358.051 148.368L363.274 144.599C363.36 144.551 363.435 144.484 363.494 144.405C363.553 144.325 363.595 144.234 363.616 144.137C363.637 144.041 363.638 143.94 363.618 143.843C363.598 143.746 363.558 143.655 363.5 143.574C363.442 143.494 363.368 143.427 363.282 143.377C363.197 143.327 363.101 143.296 363.003 143.285C362.904 143.275 362.805 143.286 362.711 143.316C362.616 143.347 362.53 143.397 362.456 143.464L357.461 147.097C355.687 145.825 354.391 143.993 353.782 141.897C353.487 140.694 353.782 140.262 353.396 138.4C352.761 134.699 351.512 134.132 350.604 131.021C350.017 128.491 349.871 125.88 350.172 123.301C350.257 121.171 350.515 119.053 350.944 116.966C350.95 116.799 350.896 116.635 350.793 116.504C350.689 116.373 350.543 116.283 350.379 116.25C350.215 116.218 350.045 116.244 349.899 116.325C349.753 116.406 349.641 116.537 349.582 116.693C349.144 118.856 348.878 121.05 348.787 123.255C348.464 125.98 348.633 128.741 349.287 131.407C350.104 134.29 351.285 135.244 351.898 137.923C347.762 138.249 343.602 138.097 339.5 137.469C333.37 136.448 331.939 136.107 331.939 136.107C329.335 135.392 326.647 135.026 323.946 135.017C321.872 134.544 320.059 133.292 318.883 131.52C318.565 130.771 318.202 130.022 317.816 129.25C315.795 125.299 314.183 122.097 311.367 120.826C311.594 116.421 312.593 113.719 314.251 112.992C314.841 112.742 315.25 112.81 316.839 113.196C323.246 114.672 329.822 115.275 336.389 114.99C336.501 115.022 336.619 115.022 336.73 114.99C342.62 111.06 348.888 107.728 355.44 105.045C363.66 101.684 365.93 101.979 366.793 102.07C373.491 102.933 386.184 124.232 389.499 130.112C391.975 134.728 395.189 138.908 399.013 142.487C400.928 144.339 402.661 146.369 404.19 148.55C406.915 152.387 411.842 160.471 409.867 164.74C409.301 165.936 408.412 166.95 407.301 167.669C407.177 167.782 407.097 167.936 407.077 168.103C407.056 168.27 407.096 168.439 407.19 168.579C407.283 168.719 407.423 168.821 407.586 168.867C407.748 168.912 407.921 168.898 408.073 168.827C409.383 167.966 410.435 166.765 411.116 165.353C412.024 163.4 412.592 158.791 406.575 149.572C409.663 150.821 412.66 152.092 415.521 153.364C420.356 155.227 424.935 157.699 429.145 160.721C433.254 163.899 435.48 166.76 435.593 169.213C435.425 172.76 434.561 176.239 433.05 179.453Z" fill="#3F8465"/>
</svg>
