<svg width="528" height="380" viewBox="0 0 528 380" fill="none" xmlns="http://www.w3.org/2000/svg">
<path d="M407.356 106.024H149.811V95.8535C149.811 92.8757 150.995 90.0201 153.101 87.9145C155.208 85.8089 158.065 84.6257 161.044 84.625H403.924C403.51 86.6422 403.301 88.696 403.301 90.7551V91.0032H190.084V99.5585H404.388L404.594 99.5004C405.272 101.77 406.198 103.957 407.356 106.024Z" fill="#81F889"/>
<path d="M289.922 272.771C291.568 272.771 293.177 273.258 294.546 274.172C295.915 275.086 296.982 276.385 297.612 277.905C298.242 279.425 298.407 281.098 298.086 282.711C297.765 284.325 296.973 285.807 295.809 286.971C294.645 288.134 293.162 288.926 291.548 289.247C289.933 289.568 288.26 289.403 286.739 288.773C285.219 288.143 283.919 287.077 283.005 285.709C282.091 284.34 281.603 282.732 281.604 281.087C281.605 278.882 282.482 276.768 284.042 275.208C285.601 273.649 287.716 272.773 289.922 272.771Z" fill="white"/>
<path d="M440.025 147.748V243.54C438.05 244.388 436.13 245.358 434.275 246.442L429.938 244.975L430.048 244.64V129.545L440.025 147.748Z" fill="white"/>
<path d="M440.029 128.059V147.748L430.053 129.54V125.027C433.279 126.34 436.618 127.355 440.029 128.059Z" fill="#565656"/>
<path d="M420.734 296.254H402.539L411.037 265.925H416.626C415.161 269.561 414.406 273.444 414.403 277.364C414.455 284.173 416.672 290.788 420.734 296.254Z" fill="#565656"/>
<path d="M411.046 265.924L402.548 296.252H154.982C150.963 296.252 147.108 294.656 144.267 291.816C141.425 288.975 139.828 285.122 139.828 281.105V208.765L149.805 196.027V254.695C149.805 257.673 150.989 260.528 153.096 262.634C155.202 264.74 158.059 265.923 161.038 265.924H411.046ZM298.257 281.087C298.258 279.441 297.77 277.832 296.856 276.464C295.942 275.095 294.642 274.029 293.122 273.398C291.601 272.768 289.928 272.602 288.313 272.923C286.698 273.243 285.215 274.035 284.05 275.198C282.886 276.361 282.092 277.843 281.77 279.457C281.448 281.07 281.612 282.743 282.241 284.264C282.87 285.784 283.936 287.084 285.305 287.999C286.673 288.914 288.282 289.403 289.928 289.404C292.135 289.404 294.251 288.527 295.811 286.967C297.372 285.408 298.249 283.292 298.249 281.087H298.257Z" fill="white"/>
<path d="M407.464 134.183C408.051 134.169 408.634 134.272 409.179 134.486C409.725 134.7 410.222 135.021 410.642 135.431C411.062 135.84 411.395 136.329 411.623 136.869C411.85 137.409 411.968 137.989 411.968 138.575C411.968 139.161 411.85 139.742 411.623 140.282C411.395 140.822 411.062 141.311 410.642 141.72C410.222 142.129 409.725 142.451 409.179 142.665C408.634 142.879 408.051 142.982 407.464 142.968H306.162C305.293 142.969 304.442 142.713 303.718 142.231C302.995 141.748 302.431 141.062 302.098 140.259C301.765 139.456 301.678 138.572 301.849 137.72C302.019 136.867 302.439 136.084 303.055 135.471C303.462 135.061 303.946 134.735 304.479 134.514C305.013 134.293 305.585 134.181 306.162 134.183H407.464Z" fill="#81F889"/>
<path d="M407.465 152.966C408.631 152.966 409.749 153.429 410.573 154.253C411.398 155.077 411.861 156.194 411.861 157.36C411.861 158.525 411.398 159.642 410.573 160.466C409.749 161.29 408.631 161.753 407.465 161.753H254.91C253.744 161.751 252.626 161.287 251.801 160.462C250.977 159.638 250.513 158.52 250.512 157.354C250.517 156.191 250.982 155.076 251.806 154.254C252.63 153.432 253.746 152.969 254.91 152.966H407.465Z" fill="#565656"/>
<path d="M407.465 171.753C408.051 171.739 408.634 171.842 409.18 172.056C409.726 172.27 410.223 172.592 410.642 173.001C411.062 173.41 411.396 173.899 411.623 174.439C411.851 174.98 411.968 175.56 411.968 176.146C411.968 176.732 411.851 177.312 411.623 177.852C411.396 178.392 411.062 178.881 410.642 179.29C410.223 179.7 409.726 180.021 409.18 180.235C408.634 180.45 408.051 180.553 407.465 180.538H357.416C356.25 180.537 355.131 180.074 354.307 179.25C353.482 178.425 353.018 177.308 353.018 176.142C353.02 174.977 353.484 173.861 354.309 173.038C355.133 172.215 356.251 171.753 357.416 171.753H407.465Z" fill="#81F889"/>
<path d="M407.459 190.528C408.625 190.528 409.743 190.991 410.567 191.815C411.392 192.639 411.855 193.757 411.855 194.922C411.855 196.087 411.392 197.205 410.567 198.029C409.743 198.853 408.625 199.316 407.459 199.316H246.364C245.197 199.314 244.078 198.851 243.253 198.026C242.428 197.201 241.964 196.083 241.963 194.917C241.968 193.753 242.433 192.638 243.258 191.815C244.082 190.993 245.199 190.53 246.364 190.528H407.459Z" fill="#565656"/>
<path d="M407.459 209.322C408.605 209.35 409.696 209.825 410.497 210.646C411.298 211.467 411.747 212.568 411.747 213.715C411.747 214.861 411.298 215.963 410.497 216.783C409.696 217.604 408.605 218.079 407.459 218.107H323.243C322.076 218.106 320.958 217.643 320.132 216.819C319.307 215.995 318.843 214.877 318.842 213.711C318.845 212.546 319.31 211.43 320.135 210.608C320.96 209.785 322.078 209.323 323.243 209.322H407.459Z" fill="#81F889"/>
<path d="M407.465 228.106C408.052 228.091 408.635 228.194 409.18 228.409C409.726 228.623 410.223 228.944 410.643 229.354C411.063 229.763 411.396 230.252 411.624 230.792C411.851 231.332 411.969 231.912 411.969 232.498C411.969 233.084 411.851 233.664 411.624 234.204C411.396 234.745 411.063 235.234 410.643 235.643C410.223 236.052 409.726 236.373 409.18 236.588C408.635 236.802 408.052 236.905 407.465 236.891H383.043C381.877 236.89 380.758 236.427 379.934 235.602C379.109 234.778 378.645 233.66 378.645 232.494C378.648 231.33 379.113 230.215 379.937 229.392C380.761 228.57 381.878 228.107 383.043 228.106H407.465Z" fill="#565656"/>
<path d="M407.458 246.888C408.624 246.888 409.742 247.351 410.566 248.175C411.39 248.999 411.853 250.116 411.853 251.281C411.853 252.447 411.39 253.564 410.566 254.388C409.742 255.212 408.624 255.675 407.458 255.675H271.989C270.822 255.674 269.703 255.21 268.878 254.385C268.053 253.561 267.589 252.442 267.588 251.276C267.593 250.112 268.058 248.997 268.883 248.175C269.707 247.352 270.824 246.89 271.989 246.888H407.458Z" fill="#81F889"/>
<path d="M407.805 115.429L403.544 124.182H271.995C270.829 124.182 269.711 123.719 268.887 122.895C268.063 122.071 267.6 120.954 267.6 119.788C267.6 118.623 268.063 117.505 268.887 116.681C269.711 115.857 270.829 115.395 271.995 115.395H407.464C407.583 115.395 407.686 115.421 407.805 115.429Z" fill="#565656"/>
<path d="M154.982 77.3477H406.368C405.259 79.6646 404.437 82.1077 403.918 84.6231H161.038C158.059 84.6238 155.202 85.807 153.096 87.9126C150.989 90.0182 149.805 92.8738 149.805 95.8515V131.696C146.71 129.403 143.362 127.472 139.828 125.94V92.4949C139.828 88.4776 141.425 84.6248 144.267 81.7842C147.108 78.9435 150.963 77.3477 154.982 77.3477Z" fill="white"/>
<path d="M404.593 99.5002L404.387 99.5582H190.08V91.0029H403.308C403.324 93.8825 403.757 96.7446 404.593 99.5002Z" fill="#565656"/>
<path d="M358.778 228.106C359.924 228.135 361.015 228.61 361.816 229.43C362.617 230.251 363.066 231.352 363.066 232.499C363.066 233.646 362.617 234.747 361.816 235.567C361.015 236.388 359.924 236.863 358.778 236.891H189.137C187.97 236.891 186.852 236.427 186.027 235.603C185.203 234.779 184.739 233.661 184.738 232.495C184.742 231.331 185.207 230.215 186.031 229.393C186.855 228.57 187.972 228.108 189.137 228.106H358.778Z" fill="#81F889"/>
<path d="M333.149 171.752C334.295 171.78 335.386 172.255 336.187 173.076C336.988 173.897 337.436 174.998 337.436 176.144C337.436 177.291 336.988 178.392 336.187 179.213C335.386 180.034 334.295 180.509 333.149 180.537H189.137C187.97 180.536 186.852 180.073 186.027 179.248C185.203 178.424 184.739 177.306 184.738 176.14C184.74 174.976 185.205 173.86 186.029 173.037C186.854 172.214 187.971 171.752 189.137 171.752H333.149Z" fill="#565656"/>
<path d="M322.652 318.032L326.258 333.921H321.166H260.876H253.605L262.149 296.251L322.652 318.032Z" fill="white"/>
<path d="M317.711 296.251L322.648 318.032L262.145 296.251H317.711Z" fill="#565656"/>
<path d="M298.979 209.322C300.126 209.35 301.216 209.825 302.017 210.646C302.818 211.467 303.267 212.568 303.267 213.715C303.267 214.861 302.818 215.963 302.017 216.783C301.216 217.604 300.126 218.079 298.979 218.107H189.137C187.97 218.106 186.852 217.643 186.027 216.819C185.203 215.994 184.739 214.877 184.738 213.711C184.74 212.546 185.205 211.43 186.029 210.607C186.854 209.784 187.971 209.322 189.137 209.322H298.979Z" fill="#565656"/>
<path d="M281.897 134.183C282.483 134.169 283.066 134.272 283.612 134.486C284.158 134.7 284.655 135.021 285.075 135.431C285.494 135.84 285.828 136.329 286.055 136.869C286.283 137.409 286.4 137.989 286.4 138.575C286.4 139.161 286.283 139.742 286.055 140.282C285.828 140.822 285.494 141.311 285.075 141.72C284.655 142.129 284.158 142.451 283.612 142.665C283.066 142.879 282.483 142.982 281.897 142.968H189.138C188.552 142.982 187.969 142.879 187.423 142.665C186.877 142.451 186.38 142.129 185.961 141.72C185.541 141.311 185.207 140.822 184.98 140.282C184.752 139.742 184.635 139.161 184.635 138.575C184.635 137.989 184.752 137.409 184.98 136.869C185.207 136.329 185.541 135.84 185.961 135.431C186.38 135.021 186.877 134.7 187.423 134.486C187.969 134.272 188.552 134.169 189.138 134.183H281.897Z" fill="#565656"/>
<path d="M247.726 115.395C248.892 115.395 250.01 115.857 250.834 116.681C251.659 117.505 252.122 118.623 252.122 119.788C252.122 120.954 251.659 122.071 250.834 122.895C250.01 123.719 248.892 124.182 247.726 124.182H189.137C187.97 124.181 186.852 123.718 186.027 122.894C185.203 122.069 184.739 120.951 184.738 119.786C184.741 118.621 185.206 117.505 186.03 116.682C186.854 115.859 187.971 115.396 189.137 115.395H247.726Z" fill="#81F889"/>
<path d="M247.726 246.888C248.892 246.888 250.01 247.351 250.834 248.175C251.659 248.999 252.122 250.116 252.122 251.281C252.122 252.447 251.659 253.564 250.834 254.388C250.01 255.212 248.892 255.675 247.726 255.675H189.137C187.97 255.674 186.852 255.21 186.027 254.385C185.203 253.56 184.739 252.442 184.738 251.276C184.742 250.112 185.207 248.997 186.031 248.174C186.855 247.352 187.972 246.889 189.137 246.888H247.726Z" fill="#565656"/>
<path d="M230.643 152.966C231.808 152.966 232.926 153.429 233.751 154.253C234.575 155.077 235.038 156.194 235.038 157.36C235.038 158.525 234.575 159.642 233.751 160.466C232.926 161.29 231.808 161.753 230.643 161.753H189.137C187.97 161.752 186.852 161.288 186.027 160.463C185.203 159.638 184.739 158.52 184.738 157.354C184.742 156.19 185.207 155.075 186.031 154.252C186.855 153.43 187.972 152.967 189.137 152.966H230.643Z" fill="#81F889"/>
<path d="M222.1 190.528C223.265 190.528 224.383 190.991 225.208 191.815C226.032 192.639 226.495 193.757 226.495 194.922C226.495 196.087 226.032 197.205 225.208 198.029C224.383 198.853 223.265 199.316 222.1 199.316H189.137C187.97 199.314 186.852 198.85 186.027 198.026C185.203 197.201 184.739 196.083 184.738 194.917C184.742 193.753 185.207 192.637 186.031 191.815C186.855 190.992 187.972 190.53 189.137 190.528H222.1Z" fill="#81F889"/>
<path d="M164.691 154.315C165.271 154.531 165.776 154.908 166.148 155.402C166.52 155.895 166.744 156.485 166.792 157.101C166.84 157.717 166.711 158.334 166.421 158.879C166.13 159.425 165.689 159.876 165.151 160.179V159.625C165.151 159.189 165.151 158.754 165.116 158.319V158.216C165.06 156.908 164.918 155.605 164.691 154.315Z" fill="#565656"/>
<path d="M163.529 116.516C164.177 116.514 164.811 116.704 165.35 117.062C165.89 117.42 166.311 117.931 166.561 118.528C166.81 119.126 166.876 119.784 166.751 120.42C166.626 121.055 166.315 121.639 165.858 122.098C165.4 122.557 164.817 122.869 164.182 122.996C163.546 123.124 162.888 123.059 162.289 122.812C161.69 122.565 161.178 122.145 160.818 121.607C160.458 121.069 160.266 120.435 160.266 119.788C160.266 118.922 160.609 118.091 161.221 117.478C161.832 116.864 162.662 116.518 163.529 116.516Z" fill="#565656"/>
<path d="M163.529 135.303C164.176 135.301 164.809 135.492 165.348 135.85C165.887 136.208 166.307 136.718 166.556 137.316C166.805 137.913 166.871 138.571 166.746 139.205C166.62 139.84 166.309 140.423 165.852 140.881C165.395 141.34 164.812 141.652 164.178 141.778C163.543 141.905 162.885 141.841 162.287 141.594C161.689 141.347 161.177 140.927 160.817 140.39C160.458 139.852 160.266 139.219 160.266 138.572C160.266 137.707 160.609 136.876 161.221 136.263C161.833 135.65 162.663 135.305 163.529 135.303Z" fill="#565656"/>
<path d="M163.531 172.871C164.399 172.871 165.231 173.215 165.844 173.828C166.458 174.441 166.802 175.273 166.802 176.14C166.802 177.007 166.458 177.839 165.844 178.452C165.231 179.065 164.399 179.41 163.531 179.41C162.834 179.393 162.159 179.158 161.604 178.736C161.048 178.314 160.64 177.728 160.437 177.061L159.988 176.779C160.759 175.582 161.452 174.336 162.063 173.05L162.209 173.116C162.48 172.847 163.307 172.871 163.531 172.871Z" fill="#565656"/>
<path d="M163.529 210.438C164.177 210.436 164.811 210.627 165.35 210.985C165.89 211.343 166.311 211.853 166.561 212.451C166.81 213.049 166.876 213.707 166.751 214.343C166.626 214.978 166.315 215.562 165.858 216.021C165.4 216.479 164.817 216.792 164.182 216.919C163.546 217.046 162.888 216.982 162.289 216.735C161.69 216.487 161.178 216.068 160.818 215.53C160.458 214.991 160.266 214.358 160.266 213.711C160.266 212.845 160.609 212.014 161.221 211.401C161.832 210.787 162.662 210.441 163.529 210.438Z" fill="#565656"/>
<path d="M163.529 229.226C164.176 229.224 164.809 229.414 165.348 229.773C165.887 230.131 166.307 230.641 166.556 231.238C166.805 231.836 166.871 232.493 166.746 233.128C166.62 233.763 166.309 234.346 165.852 234.804C165.395 235.262 164.812 235.575 164.178 235.701C163.543 235.828 162.885 235.764 162.287 235.517C161.689 235.269 161.177 234.85 160.817 234.312C160.458 233.775 160.266 233.142 160.266 232.495C160.266 231.629 160.609 230.799 161.221 230.186C161.833 229.573 162.663 229.228 163.529 229.226Z" fill="#565656"/>
<path d="M163.529 248.009C164.177 248.007 164.811 248.197 165.351 248.555C165.89 248.914 166.312 249.424 166.561 250.022C166.81 250.62 166.876 251.278 166.751 251.914C166.626 252.549 166.314 253.133 165.857 253.592C165.399 254.051 164.816 254.363 164.18 254.49C163.545 254.617 162.886 254.552 162.287 254.304C161.688 254.057 161.177 253.637 160.817 253.098C160.457 252.559 160.265 251.926 160.266 251.278C160.266 250.413 160.609 249.582 161.221 248.969C161.833 248.356 162.663 248.011 163.529 248.009Z" fill="#565656"/>
<path d="M145.293 190.544L150.045 192.79L149.805 193.302V196.028L139.828 208.765V193.302C141.705 192.495 143.53 191.574 145.293 190.544Z" fill="#565656"/>
<path d="M129.025 196.812L129.117 197.231C124.703 207.238 119.085 217.168 112.504 222.694C110.367 224.486 108.311 226.302 106.337 228.14C105.592 217.229 104.79 206.187 104.021 197.231C107.807 197.92 111.647 198.265 115.495 198.263C120.044 198.27 124.581 197.783 129.025 196.812Z" fill="#565656"/>
<path d="M98.0722 246.833C99.6963 243.03 102.2 239.668 105.377 237.021C105.863 236.647 106.349 236.269 106.845 235.91C114.684 230.399 123.225 225.962 132.242 222.716C132.002 223.228 122.828 242.653 114.026 250.073C111.985 251.788 109.942 253.327 108.012 254.823C106.053 256.312 104.201 257.935 102.468 259.681C100.555 261.564 99.0416 263.814 98.0186 266.295C96.9957 268.776 96.4842 271.438 96.5146 274.121V274.557H92.75V274.121C92.7979 269.52 93.227 264.93 94.033 260.399C94.8011 255.725 96.1583 251.166 98.0722 246.833Z" fill="#81F889"/>
<path d="M108.947 274.121V274.557H104.369C104.146 269.554 103.506 264.578 102.455 259.681C104.188 257.936 106.041 256.312 107.999 254.823C108.588 264.73 108.947 272.14 108.947 274.121Z" fill="#565656"/>
<path d="M106.851 235.9C106.355 236.267 105.869 236.644 105.383 237.019C102.206 239.665 99.7023 243.028 98.0783 246.83C97.0619 245.247 95.8052 243.492 94.3532 241.537C90.9793 236.977 86.6075 231.427 82.1221 225.26C76.721 218.029 71.8994 210.383 67.7024 202.394C67.7024 202.394 67.676 202.352 67.6338 202.275C67.0028 201.019 66.4035 199.773 65.8333 198.509C47.15 157.319 59.2544 116.25 59.2544 116.25C65.6596 122.09 71.6691 128.349 77.2434 134.986C73.7416 138.083 70.9199 141.871 68.9561 146.112C66.9922 150.354 65.929 154.956 65.8333 159.628C65.8333 177.892 82.1221 193.203 104.024 197.232C104.792 206.189 105.594 217.23 106.339 228.142C106.51 230.743 106.69 233.337 106.851 235.9Z" fill="#81F889"/>
<path d="M92.1949 244.78C92.1949 244.78 93.5968 253.122 94.0429 260.389C93.2369 264.92 92.8078 269.51 92.7599 274.111V274.547H89.0085V274.111C90.3285 265.282 88.9741 255.344 89.0085 250.647C89.9598 248.633 91.0237 246.674 92.1949 244.78Z" fill="#565656"/>
<path d="M94.3521 241.538C93.6024 242.594 92.8843 243.681 92.2005 244.781C91.0293 246.675 89.9654 248.634 89.0141 250.648C85.5517 258.128 83.7315 266.263 83.676 274.506V274.548H82.1712C82.0802 265.385 81.1336 256.251 79.3438 247.264C80.207 242.747 80.6637 237.625 81.2155 232.397C81.4637 230.04 81.7277 227.66 82.0524 225.312L82.121 225.259C86.6064 231.431 90.9782 236.973 94.3521 241.538Z" fill="#81F889"/>
<path d="M82.1714 274.556H75.5186C75.083 251.928 59.7763 244.782 44.4511 231.872C28.6111 218.543 12.127 183.356 12.127 183.356C28.604 189.288 44.1745 197.484 58.3903 207.708C58.8332 208.083 59.295 208.435 59.7737 208.764C70.8617 217.456 76.5086 233.168 79.344 247.265C81.1343 256.254 82.0809 265.391 82.1714 274.556Z" fill="#81F889"/>
<path d="M82.1163 225.262L82.0476 225.314C81.7229 227.663 81.4589 230.043 81.2107 232.4C79.6901 222.317 71.6091 216.954 59.7713 208.766C59.3093 208.407 58.8552 208.048 58.3853 207.71C47.6484 198.712 44.293 176.759 44.293 176.759C56.5848 183.981 66.7066 200.725 67.6279 202.279C67.6702 202.356 67.6966 202.398 67.6966 202.398C71.8937 210.387 76.7152 218.032 82.1163 225.262Z" fill="#565656"/>
<path d="M139.828 193.301C141.702 192.495 143.524 191.574 145.285 190.544L150.037 192.789L173.269 203.72L158.221 179.326C158.852 178.497 159.451 177.653 159.998 176.779C160.769 175.582 161.462 174.335 162.073 173.048C164.016 169.031 165.064 164.641 165.146 160.181V159.627C165.146 159.191 165.146 158.756 165.111 158.32" stroke="#565656" stroke-width="0.647" stroke-linecap="round" stroke-linejoin="round"/>
<path d="M165.129 158.216C165.069 156.908 164.924 155.605 164.693 154.316C162.814 145.149 157.487 137.052 149.812 131.695C146.717 129.403 143.369 127.472 139.835 125.94C132.153 122.627 123.867 120.941 115.5 120.989C101.445 120.69 87.7907 125.682 77.246 134.975C73.7443 138.072 70.9225 141.86 68.9587 146.102C66.9949 150.343 65.9316 154.945 65.8359 159.617C65.8359 177.881 82.1247 193.192 104.026 197.222C107.812 197.91 111.652 198.256 115.5 198.253C120.049 198.26 124.585 197.773 129.03 196.802C132.737 195.991 136.356 194.819 139.835 193.303" stroke="#565656" stroke-width="0.647" stroke-linecap="round" stroke-linejoin="round"/>
<path d="M407.809 115.43L410.235 110.446C409.159 109.045 408.189 107.566 407.331 106.023C406.178 103.956 405.256 101.768 404.582 99.4995C403.747 96.7438 403.315 93.8817 403.299 91.0023V90.7542C403.298 88.6953 403.505 86.6414 403.917 84.6241C404.434 82.1089 405.255 79.6659 406.362 77.3487C413.366 62.6131 431.584 52.1104 452.958 52.1104C480.377 52.1104 502.614 69.4083 502.614 90.7542C502.614 112.1 480.377 129.393 452.958 129.393C448.611 129.4 444.275 128.951 440.022 128.052C436.61 127.354 433.27 126.341 430.045 125.028C427.678 124.075 425.384 122.951 423.181 121.664L399.949 131.57L403.555 124.181L407.824 115.428" stroke="#565656" stroke-width="0.647" stroke-linecap="round" stroke-linejoin="round"/>
<path d="M429.939 244.979L415.084 239.949L421.346 257.667C419.403 260.19 417.816 262.968 416.631 265.924C415.166 269.56 414.411 273.443 414.408 277.363C414.461 284.172 416.68 290.788 420.744 296.253C429.242 308.035 445.465 316.002 464.077 316.002C491.499 316.002 513.733 298.701 513.733 277.363C513.733 256.025 491.499 238.727 464.077 238.727C455.817 238.685 447.636 240.326 440.032 243.551C438.057 244.4 436.137 245.369 434.282 246.454L429.939 244.979Z" stroke="#565656" stroke-width="0.647" stroke-linecap="round" stroke-linejoin="round"/>
<path d="M139.828 125.94V92.4949C139.828 88.4776 141.425 84.6248 144.267 81.7842C147.108 78.9435 150.963 77.3477 154.982 77.3477H406.368" stroke="#565656" stroke-width="0.647" stroke-linecap="round" stroke-linejoin="round"/>
<path d="M262.15 296.252H154.982C150.963 296.252 147.108 294.656 144.267 291.815C141.425 288.975 139.828 285.122 139.828 281.105V193.301" stroke="#565656" stroke-width="0.647" stroke-linecap="round" stroke-linejoin="round"/>
<path d="M420.733 296.251H402.538H317.707" stroke="#565656" stroke-width="0.647" stroke-linecap="round" stroke-linejoin="round"/>
<path d="M440.023 128.061V147.749V243.552" stroke="#565656" stroke-width="0.647" stroke-linecap="round" stroke-linejoin="round"/>
<path d="M149.811 131.708V95.8535C149.811 92.8757 150.995 90.0201 153.101 87.9145C155.208 85.8089 158.065 84.6257 161.044 84.625H403.924" stroke="#565656" stroke-width="0.647" stroke-linecap="round" stroke-linejoin="round"/>
<path d="M416.633 265.923H161.044C158.065 265.922 155.208 264.739 153.101 262.633C150.995 260.528 149.811 257.672 149.811 254.695V193.301" stroke="#565656" stroke-width="0.647" stroke-linecap="round" stroke-linejoin="round"/>
<path d="M430.053 125.038V129.545V244.643" stroke="#565656" stroke-width="0.647" stroke-linecap="round" stroke-linejoin="round"/>
<path d="M149.811 106.022H407.345" stroke="#565656" stroke-width="0.647" stroke-linecap="round" stroke-linejoin="round"/>
<path d="M404.385 99.5582H190.08V91.0029H403.231" stroke="#565656" stroke-width="0.647" stroke-linecap="round" stroke-linejoin="round"/>
<path d="M298.251 281.087C298.252 282.732 297.765 284.341 296.851 285.71C295.938 287.079 294.638 288.146 293.118 288.777C291.597 289.408 289.924 289.573 288.309 289.253C286.694 288.933 285.21 288.142 284.045 286.979C282.88 285.816 282.087 284.334 281.764 282.72C281.442 281.107 281.606 279.433 282.235 277.913C282.864 276.392 283.93 275.092 285.299 274.177C286.667 273.262 288.276 272.773 289.922 272.771C292.13 272.771 294.247 273.646 295.809 275.206C297.371 276.765 298.249 278.88 298.251 281.087Z" stroke="#565656" stroke-width="0.647" stroke-linecap="round" stroke-linejoin="round"/>
<path d="M253.605 333.921L262.149 296.251H317.715L322.652 318.032L326.258 333.921" stroke="#565656" stroke-width="0.647" stroke-linecap="round" stroke-linejoin="round"/>
<path d="M321.165 333.923H260.875" stroke="#565656" stroke-width="0.647" stroke-linecap="round" stroke-linejoin="round"/>
<path d="M262.145 296.251L322.648 318.032" stroke="#565656" stroke-width="0.647" stroke-linecap="round" stroke-linejoin="round"/>
<path d="M230.619 333.923H243.793" stroke="#565656" stroke-width="0.647" stroke-linecap="round" stroke-linejoin="round"/>
<path d="M247.695 333.923H253.596H260.866" stroke="#565656" stroke-width="0.647" stroke-linecap="round" stroke-linejoin="round"/>
<path d="M42.6934 333.923H55.867" stroke="#565656" stroke-width="0.647" stroke-linecap="round" stroke-linejoin="round"/>
<path d="M107.322 333.923H141.286" stroke="#565656" stroke-width="0.647" stroke-linecap="round" stroke-linejoin="round"/>
<path d="M59.7715 333.923H77.5888" stroke="#565656" stroke-width="0.647" stroke-linecap="round" stroke-linejoin="round"/>
<path d="M321.162 333.923H326.255H334.333" stroke="#565656" stroke-width="0.647" stroke-linecap="round" stroke-linejoin="round"/>
<path d="M338.24 333.923H351.414" stroke="#565656" stroke-width="0.647" stroke-linecap="round" stroke-linejoin="round"/>
<path d="M173.59 100.551L182.328 95.513L173.59 90.4648" stroke="#565656" stroke-width="0.647" stroke-linecap="round" stroke-linejoin="round"/>
<path d="M167.94 90.4648L159.193 95.513L167.94 100.551" stroke="#565656" stroke-width="0.647" stroke-linecap="round" stroke-linejoin="round"/>
<path d="M430.053 129.545L440.029 147.748" stroke="#565656" stroke-width="0.647" stroke-linecap="round" stroke-linejoin="round"/>
<path d="M411.037 265.925L402.539 296.254" stroke="#565656" stroke-width="0.647" stroke-linecap="round" stroke-linejoin="round"/>
<path d="M149.805 196.027L139.828 208.765" stroke="#565656" stroke-width="0.647" stroke-linecap="round" stroke-linejoin="round"/>
<path d="M107.315 333.923H77.5888C72.8634 333.923 68.3315 332.046 64.9901 328.706C61.6487 325.366 59.7715 320.836 59.7715 316.113V274.556H125.133V316.113C125.132 320.836 123.254 325.366 119.913 328.706C116.572 332.045 112.04 333.922 107.315 333.923Z" stroke="#565656" stroke-width="0.647" stroke-linecap="round" stroke-linejoin="round"/>
<path d="M82.1714 274.556C82.0809 265.391 81.1343 256.254 79.344 247.265C76.5086 233.168 70.8617 217.446 59.7763 208.764C59.3143 208.405 58.8602 208.046 58.3903 207.708C44.1745 197.484 28.604 189.288 12.127 183.356C12.127 183.356 28.6138 218.543 44.4511 231.872C59.7763 244.782 75.0751 251.928 75.5186 274.556" stroke="#565656" stroke-width="0.647" stroke-linecap="round" stroke-linejoin="round"/>
<path d="M89.0139 250.656C85.5515 258.137 83.7313 266.272 83.6758 274.514" stroke="#565656" stroke-width="0.647" stroke-linecap="round" stroke-linejoin="round"/>
<path d="M94.3557 241.538C93.6059 242.594 92.8878 243.681 92.2041 244.781C91.0328 246.675 89.9689 248.634 89.0176 250.648" stroke="#565656" stroke-width="0.647" stroke-linecap="round" stroke-linejoin="round"/>
<path d="M129.113 197.231C124.699 207.238 119.081 217.168 112.499 222.694C110.362 224.487 108.307 226.302 106.332 228.141" stroke="#565656" stroke-width="0.647" stroke-linecap="round" stroke-linejoin="round"/>
<path d="M79.3438 247.263C80.207 242.746 80.6637 237.624 81.2155 232.396C81.4637 230.039 81.7277 227.659 82.0524 225.311" stroke="#565656" stroke-width="0.647" stroke-linecap="round" stroke-linejoin="round"/>
<path d="M132.264 222.692C132.015 223.22 122.841 242.637 114.048 250.058C112.007 251.773 109.963 253.311 108.034 254.808C106.075 256.297 104.223 257.92 102.49 259.666C100.577 261.549 99.0633 263.798 98.0404 266.279C97.0175 268.76 96.506 271.422 96.5364 274.106" stroke="#565656" stroke-width="0.647" stroke-linecap="round" stroke-linejoin="round"/>
<path d="M106.848 235.9C114.686 230.388 123.228 225.951 132.244 222.705" stroke="#565656" stroke-width="0.647" stroke-linecap="round" stroke-linejoin="round"/>
<path d="M92.75 274.121C92.7979 269.52 93.227 264.93 94.033 260.399C94.8017 255.727 96.1589 251.171 98.0722 246.84C99.6963 243.038 102.2 239.676 105.377 237.029C105.863 236.654 106.349 236.277 106.845 235.918" stroke="#565656" stroke-width="0.647" stroke-linecap="round" stroke-linejoin="round"/>
<path d="M102.455 259.681C103.506 264.577 104.146 269.553 104.369 274.556" stroke="#565656" stroke-width="0.647" stroke-linecap="round" stroke-linejoin="round"/>
<path d="M67.7012 202.403C71.8982 210.393 76.7197 218.039 82.1209 225.269C86.6089 231.436 90.9781 236.986 94.352 241.546C95.804 243.501 97.0606 245.267 98.077 246.84" stroke="#565656" stroke-width="0.647" stroke-linecap="round" stroke-linejoin="round"/>
<path d="M77.2434 134.984C71.6691 128.347 65.6596 122.088 59.2544 116.248C59.2544 116.248 47.15 157.317 65.8333 198.507C66.4035 199.772 67.0028 201.017 67.6338 202.273" stroke="#565656" stroke-width="0.647" stroke-linecap="round" stroke-linejoin="round"/>
<path d="M106.849 235.917C106.688 233.347 106.508 230.753 106.337 228.149C105.592 217.237 104.79 206.196 104.021 197.239" stroke="#565656" stroke-width="0.647" stroke-linecap="round" stroke-linejoin="round"/>
<path d="M108.954 274.121C108.954 272.14 108.594 264.73 108.014 254.823" stroke="#565656" stroke-width="0.647" stroke-linecap="round" stroke-linejoin="round"/>
<path d="M67.6966 202.404C67.6966 202.404 67.6702 202.362 67.6279 202.285C66.7066 200.731 56.5848 183.987 44.293 176.765C44.293 176.765 47.6484 198.718 58.3853 207.716C58.8286 208.092 59.2912 208.444 59.7713 208.772C71.6091 216.952 79.6901 222.322 81.2107 232.406" stroke="#565656" stroke-width="0.647" stroke-linecap="round" stroke-linejoin="round"/>
<path d="M89.0085 250.648C88.9741 255.346 90.3285 265.284 89.0085 274.113" stroke="#565656" stroke-width="0.647" stroke-linecap="round" stroke-linejoin="round"/>
<path d="M92.2031 244.78C92.2031 244.78 93.605 253.122 94.0511 260.389" stroke="#565656" stroke-width="0.647" stroke-linecap="round" stroke-linejoin="round"/>
<path d="M177.953 112.127V256.53" stroke="#565656" stroke-width="0.647" stroke-linecap="round" stroke-linejoin="round"/>
<path d="M247.726 124.182H189.137C187.97 124.181 186.852 123.718 186.027 122.894C185.203 122.069 184.739 120.951 184.738 119.786C184.741 118.621 185.206 117.505 186.03 116.682C186.854 115.859 187.971 115.396 189.137 115.395H247.726C248.892 115.395 250.01 115.857 250.834 116.681C251.659 117.505 252.122 118.623 252.122 119.788C252.122 120.954 251.659 122.071 250.834 122.895C250.01 123.719 248.892 124.182 247.726 124.182Z" stroke="#565656" stroke-width="0.647" stroke-linecap="round" stroke-linejoin="round"/>
<path d="M407.813 115.429C407.686 115.429 407.583 115.395 407.464 115.395H271.995C270.829 115.395 269.711 115.857 268.887 116.681C268.063 117.505 267.6 118.623 267.6 119.788C267.6 120.954 268.063 122.071 268.887 122.895C269.711 123.719 270.829 124.182 271.995 124.182H403.544L407.813 115.429Z" stroke="#565656" stroke-width="0.647" stroke-linecap="round" stroke-linejoin="round"/>
<path d="M166.792 119.788C166.791 120.434 166.599 121.065 166.239 121.601C165.88 122.138 165.369 122.556 164.772 122.802C164.175 123.049 163.518 123.113 162.884 122.986C162.251 122.86 161.669 122.549 161.212 122.092C160.756 121.635 160.445 121.053 160.319 120.42C160.193 119.786 160.257 119.13 160.504 118.533C160.752 117.936 161.17 117.426 161.707 117.067C162.244 116.708 162.875 116.516 163.522 116.516C163.952 116.515 164.377 116.599 164.775 116.763C165.172 116.928 165.533 117.169 165.837 117.473C166.141 117.777 166.382 118.138 166.546 118.535C166.71 118.932 166.794 119.358 166.792 119.788Z" stroke="#565656" stroke-width="0.647" stroke-linecap="round" stroke-linejoin="round"/>
<path d="M281.897 142.968H189.138C188.552 142.982 187.969 142.879 187.423 142.665C186.877 142.451 186.38 142.129 185.961 141.72C185.541 141.311 185.207 140.822 184.98 140.282C184.752 139.742 184.635 139.161 184.635 138.575C184.635 137.989 184.752 137.409 184.98 136.869C185.207 136.329 185.541 135.84 185.961 135.431C186.38 135.021 186.877 134.7 187.423 134.486C187.969 134.272 188.552 134.169 189.138 134.183H281.897C282.483 134.169 283.066 134.272 283.612 134.486C284.158 134.7 284.655 135.021 285.075 135.431C285.494 135.84 285.828 136.329 286.055 136.869C286.283 137.409 286.4 137.989 286.4 138.575C286.4 139.161 286.283 139.742 286.055 140.282C285.828 140.822 285.494 141.311 285.075 141.72C284.655 142.129 284.158 142.451 283.612 142.665C283.066 142.879 282.483 142.982 281.897 142.968Z" stroke="#565656" stroke-width="0.647" stroke-linecap="round" stroke-linejoin="round"/>
<path d="M407.464 142.968H306.162C305.293 142.969 304.442 142.713 303.718 142.231C302.995 141.748 302.431 141.062 302.098 140.259C301.765 139.456 301.678 138.572 301.849 137.72C302.019 136.867 302.439 136.084 303.055 135.471C303.462 135.061 303.946 134.735 304.479 134.514C305.013 134.293 305.585 134.181 306.162 134.183H407.464C408.051 134.169 408.634 134.272 409.179 134.486C409.725 134.7 410.222 135.021 410.642 135.431C411.062 135.84 411.395 136.329 411.623 136.869C411.85 137.409 411.968 137.989 411.968 138.575C411.968 139.161 411.85 139.742 411.623 140.282C411.395 140.822 411.062 141.311 410.642 141.72C410.222 142.129 409.725 142.451 409.179 142.665C408.634 142.879 408.051 142.982 407.464 142.968Z" stroke="#565656" stroke-width="0.647" stroke-linecap="round" stroke-linejoin="round"/>
<path d="M166.793 138.572C166.792 139.218 166.6 139.849 166.241 140.386C165.881 140.923 165.371 141.342 164.774 141.588C164.177 141.835 163.52 141.9 162.886 141.774C162.252 141.648 161.67 141.336 161.213 140.88C160.756 140.423 160.445 139.841 160.319 139.208C160.193 138.574 160.257 137.918 160.504 137.321C160.751 136.724 161.17 136.214 161.707 135.854C162.244 135.495 162.875 135.303 163.522 135.303C163.951 135.302 164.377 135.386 164.774 135.55C165.171 135.714 165.532 135.955 165.836 136.259C166.14 136.563 166.381 136.923 166.545 137.32C166.709 137.717 166.793 138.143 166.793 138.572Z" stroke="#565656" stroke-width="0.647" stroke-linecap="round" stroke-linejoin="round"/>
<path d="M230.643 161.763H189.137C187.97 161.762 186.852 161.298 186.027 160.473C185.203 159.648 184.739 158.53 184.738 157.364C184.742 156.2 185.207 155.084 186.031 154.262C186.855 153.44 187.972 152.977 189.137 152.976H230.643C231.808 152.976 232.926 153.438 233.751 154.262C234.575 155.086 235.038 156.204 235.038 157.369C235.038 158.535 234.575 159.652 233.751 160.476C232.926 161.3 231.808 161.763 230.643 161.763Z" stroke="#565656" stroke-width="0.647" stroke-linecap="round" stroke-linejoin="round"/>
<path d="M407.465 161.763H254.91C253.744 161.761 252.626 161.297 251.801 160.472C250.977 159.648 250.513 158.53 250.512 157.364C250.517 156.2 250.982 155.086 251.806 154.264C252.63 153.441 253.746 152.978 254.91 152.976H407.465C408.631 152.976 409.749 153.438 410.573 154.262C411.398 155.086 411.861 156.204 411.861 157.369C411.861 158.535 411.398 159.652 410.573 160.476C409.749 161.3 408.631 161.763 407.465 161.763Z" stroke="#565656" stroke-width="0.647" stroke-linecap="round" stroke-linejoin="round"/>
<path d="M165.156 159.625C165.156 159.812 165.156 160 165.138 160.179C165.676 159.876 166.117 159.425 166.408 158.879C166.698 158.334 166.827 157.717 166.779 157.101C166.731 156.485 166.507 155.895 166.135 155.402C165.763 154.908 165.258 154.531 164.679 154.315H164.66C164.894 155.608 165.046 156.914 165.114 158.226V158.332C165.146 158.754 165.156 159.189 165.156 159.625Z" stroke="#565656" stroke-width="0.647" stroke-linecap="round" stroke-linejoin="round"/>
<path d="M333.149 180.537H189.137C187.97 180.536 186.852 180.073 186.027 179.248C185.203 178.424 184.739 177.306 184.738 176.14C184.74 174.976 185.205 173.86 186.029 173.037C186.854 172.214 187.971 171.752 189.137 171.752H333.149C334.295 171.78 335.386 172.255 336.187 173.076C336.988 173.897 337.436 174.998 337.436 176.144C337.436 177.291 336.988 178.392 336.187 179.213C335.386 180.034 334.295 180.509 333.149 180.537Z" stroke="#565656" stroke-width="0.647" stroke-linecap="round" stroke-linejoin="round"/>
<path d="M407.465 180.538H357.416C356.25 180.537 355.131 180.074 354.307 179.25C353.482 178.425 353.018 177.308 353.018 176.142C353.02 174.977 353.484 173.861 354.309 173.038C355.133 172.215 356.251 171.753 357.416 171.753H407.465C408.051 171.739 408.634 171.842 409.18 172.056C409.726 172.27 410.223 172.592 410.642 173.001C411.062 173.41 411.396 173.899 411.623 174.439C411.851 174.98 411.968 175.56 411.968 176.146C411.968 176.732 411.851 177.312 411.623 177.852C411.396 178.392 411.062 178.881 410.642 179.29C410.223 179.7 409.726 180.021 409.18 180.235C408.634 180.45 408.051 180.553 407.465 180.538Z" stroke="#565656" stroke-width="0.647" stroke-linecap="round" stroke-linejoin="round"/>
<path d="M162.206 173.111C162.47 172.847 163.299 172.866 163.526 172.866C164.393 172.866 165.225 173.21 165.839 173.823C166.452 174.436 166.797 175.268 166.797 176.135C166.797 177.002 166.452 177.834 165.839 178.447C165.225 179.06 164.393 179.405 163.526 179.405C162.828 179.388 162.154 179.152 161.599 178.731C161.043 178.309 160.635 177.723 160.432 177.056" stroke="#565656" stroke-width="0.647" stroke-linecap="round" stroke-linejoin="round"/>
<path d="M222.1 199.324H189.137C187.97 199.322 186.852 198.858 186.027 198.033C185.203 197.209 184.739 196.091 184.738 194.925C184.742 193.76 185.207 192.645 186.031 191.823C186.855 191 187.972 190.538 189.137 190.536H222.1C223.265 190.536 224.383 190.999 225.208 191.823C226.032 192.647 226.495 193.765 226.495 194.93C226.495 196.095 226.032 197.213 225.208 198.037C224.383 198.861 223.265 199.324 222.1 199.324Z" stroke="#565656" stroke-width="0.647" stroke-linecap="round" stroke-linejoin="round"/>
<path d="M407.459 199.324H246.364C245.197 199.322 244.078 198.858 243.253 198.034C242.428 197.209 241.964 196.091 241.963 194.925C241.968 193.76 242.433 192.645 243.258 191.823C244.082 191.001 245.199 190.538 246.364 190.536H407.459C408.625 190.536 409.743 190.999 410.567 191.823C411.392 192.647 411.855 193.765 411.855 194.93C411.855 196.095 411.392 197.213 410.567 198.037C409.743 198.861 408.625 199.324 407.459 199.324Z" stroke="#565656" stroke-width="0.647" stroke-linecap="round" stroke-linejoin="round"/>
<path d="M298.979 218.107H189.137C187.97 218.106 186.852 217.643 186.027 216.819C185.203 215.994 184.739 214.877 184.738 213.711C184.74 212.546 185.205 211.43 186.029 210.607C186.854 209.784 187.971 209.322 189.137 209.322H298.979C300.126 209.35 301.216 209.825 302.017 210.646C302.818 211.467 303.267 212.568 303.267 213.715C303.267 214.861 302.818 215.963 302.017 216.783C301.216 217.604 300.126 218.079 298.979 218.107Z" stroke="#565656" stroke-width="0.647" stroke-linecap="round" stroke-linejoin="round"/>
<path d="M407.459 218.107H323.243C322.076 218.106 320.958 217.643 320.132 216.819C319.307 215.995 318.843 214.877 318.842 213.711C318.845 212.546 319.31 211.43 320.135 210.608C320.96 209.785 322.078 209.323 323.243 209.322H407.459C408.605 209.35 409.696 209.825 410.497 210.646C411.298 211.467 411.747 212.568 411.747 213.715C411.747 214.861 411.298 215.963 410.497 216.783C409.696 217.604 408.605 218.079 407.459 218.107Z" stroke="#565656" stroke-width="0.647" stroke-linecap="round" stroke-linejoin="round"/>
<path d="M166.792 213.711C166.791 214.356 166.599 214.988 166.239 215.524C165.88 216.061 165.369 216.478 164.772 216.725C164.175 216.971 163.518 217.036 162.884 216.909C162.251 216.783 161.669 216.471 161.212 216.015C160.756 215.558 160.445 214.976 160.319 214.342C160.193 213.709 160.257 213.053 160.504 212.456C160.752 211.859 161.17 211.349 161.707 210.99C162.244 210.631 162.875 210.439 163.522 210.438C163.952 210.438 164.377 210.522 164.775 210.686C165.172 210.85 165.533 211.091 165.837 211.395C166.141 211.7 166.382 212.061 166.546 212.458C166.71 212.855 166.794 213.281 166.792 213.711Z" stroke="#565656" stroke-width="0.647" stroke-linecap="round" stroke-linejoin="round"/>
<path d="M358.778 236.891H189.137C187.97 236.891 186.852 236.427 186.027 235.603C185.203 234.779 184.739 233.661 184.738 232.495C184.742 231.331 185.207 230.215 186.031 229.393C186.855 228.57 187.972 228.108 189.137 228.106H358.778C359.924 228.135 361.015 228.61 361.816 229.43C362.617 230.251 363.066 231.352 363.066 232.499C363.066 233.646 362.617 234.747 361.816 235.567C361.015 236.388 359.924 236.863 358.778 236.891Z" stroke="#565656" stroke-width="0.647" stroke-linecap="round" stroke-linejoin="round"/>
<path d="M407.465 236.891H383.043C381.877 236.89 380.758 236.427 379.934 235.602C379.109 234.778 378.645 233.66 378.645 232.494C378.648 231.33 379.113 230.215 379.937 229.392C380.761 228.57 381.878 228.107 383.043 228.106H407.465C408.052 228.091 408.635 228.194 409.18 228.409C409.726 228.623 410.223 228.944 410.643 229.354C411.063 229.763 411.396 230.252 411.624 230.792C411.851 231.332 411.969 231.912 411.969 232.498C411.969 233.084 411.851 233.664 411.624 234.204C411.396 234.745 411.063 235.234 410.643 235.643C410.223 236.052 409.726 236.373 409.18 236.588C408.635 236.802 408.052 236.905 407.465 236.891Z" stroke="#565656" stroke-width="0.647" stroke-linecap="round" stroke-linejoin="round"/>
<path d="M166.793 232.487C166.792 233.133 166.6 233.765 166.241 234.301C165.881 234.838 165.371 235.257 164.774 235.503C164.177 235.75 163.52 235.815 162.886 235.689C162.252 235.563 161.67 235.252 161.213 234.795C160.756 234.338 160.445 233.756 160.319 233.123C160.193 232.489 160.257 231.833 160.504 231.236C160.751 230.639 161.17 230.129 161.707 229.769C162.244 229.41 162.875 229.218 163.522 229.218C163.951 229.217 164.377 229.301 164.774 229.465C165.171 229.629 165.532 229.87 165.836 230.174C166.14 230.478 166.381 230.838 166.545 231.235C166.709 231.632 166.793 232.058 166.793 232.487Z" stroke="#565656" stroke-width="0.647" stroke-linecap="round" stroke-linejoin="round"/>
<path d="M247.726 255.675H189.137C187.97 255.674 186.852 255.21 186.027 254.385C185.203 253.56 184.739 252.442 184.738 251.276C184.742 250.112 185.207 248.997 186.031 248.174C186.855 247.352 187.972 246.889 189.137 246.888H247.726C248.892 246.888 250.01 247.351 250.834 248.175C251.659 248.999 252.122 250.116 252.122 251.281C252.122 252.447 251.659 253.564 250.834 254.388C250.01 255.212 248.892 255.675 247.726 255.675Z" stroke="#565656" stroke-width="0.647" stroke-linecap="round" stroke-linejoin="round"/>
<path d="M407.458 255.675H271.989C270.822 255.674 269.703 255.21 268.878 254.385C268.053 253.561 267.589 252.442 267.588 251.276C267.593 250.112 268.058 248.997 268.883 248.175C269.707 247.352 270.824 246.89 271.989 246.888H407.458C408.624 246.888 409.742 247.351 410.566 248.175C411.39 248.999 411.853 250.116 411.853 251.281C411.853 252.447 411.39 253.564 410.566 254.388C409.742 255.212 408.624 255.675 407.458 255.675Z" stroke="#565656" stroke-width="0.647" stroke-linecap="round" stroke-linejoin="round"/>
<path d="M166.793 251.278C166.792 251.924 166.6 252.556 166.241 253.092C165.881 253.629 165.371 254.048 164.774 254.294C164.177 254.541 163.52 254.606 162.886 254.48C162.252 254.354 161.67 254.043 161.213 253.586C160.756 253.129 160.445 252.547 160.319 251.914C160.193 251.28 160.257 250.624 160.504 250.027C160.751 249.43 161.17 248.92 161.707 248.56C162.244 248.201 162.875 248.009 163.522 248.009C163.951 248.008 164.377 248.093 164.774 248.257C165.171 248.421 165.531 248.662 165.835 248.966C166.139 249.269 166.38 249.63 166.544 250.027C166.708 250.424 166.793 250.849 166.793 251.278Z" stroke="#565656" stroke-width="0.647" stroke-linecap="round" stroke-linejoin="round"/>
<path d="M104.826 159.421H104.52H104.203C101.032 159.259 98.0491 157.865 95.8912 155.536C93.7334 153.207 92.5712 150.128 92.6524 146.955C92.7337 143.782 94.052 140.766 96.3263 138.55C98.6005 136.335 101.651 135.095 104.826 135.096" stroke="#565656" stroke-width="0.971" stroke-linecap="round" stroke-linejoin="round"/>
<path d="M87.5332 159.405H104.823H104.516C101.323 159.498 98.2951 160.842 96.0841 163.146C93.8732 165.451 92.6566 168.531 92.6968 171.724C92.737 174.916 94.0306 177.965 96.2989 180.213C98.5672 182.461 101.628 183.728 104.823 183.741" stroke="#565656" stroke-width="0.971" stroke-linecap="round" stroke-linejoin="round"/>
<path d="M126.68 159.421H126.996H127.303C130.474 159.259 133.457 157.865 135.615 155.536C137.773 153.207 138.935 150.128 138.854 146.955C138.772 143.782 137.454 140.766 135.18 138.55C132.905 136.335 129.855 135.095 126.68 135.096" stroke="#565656" stroke-width="0.971" stroke-linecap="round" stroke-linejoin="round"/>
<path d="M143.969 159.405H126.68H126.996C130.19 159.499 133.219 160.843 135.43 163.149C137.641 165.454 138.856 168.536 138.815 171.729C138.773 174.922 137.478 177.971 135.208 180.218C132.937 182.466 129.875 183.731 126.68 183.741" stroke="#565656" stroke-width="0.971" stroke-linecap="round" stroke-linejoin="round"/>
<path d="M463.443 104.988L486.652 91.6008L463.443 78.2031" stroke="#565656" stroke-width="0.971" stroke-linecap="round" stroke-linejoin="round"/>
<path d="M439.626 78.2031L416.418 91.6008L439.626 104.988" stroke="#565656" stroke-width="0.971" stroke-linecap="round" stroke-linejoin="round"/>
<path d="M458.147 72.1494L444.273 110.854" stroke="#565656" stroke-width="0.647" stroke-linecap="round" stroke-linejoin="round"/>
<path d="M437.602 293.298L441.361 281.89L450.279 254.823L459.205 281.89L462.964 293.298" stroke="#565656" stroke-width="0.971" stroke-linecap="round" stroke-linejoin="round"/>
<path d="M441.354 281.89H459.197" stroke="#565656" stroke-width="0.971" stroke-linecap="round" stroke-linejoin="round"/>
<path d="M482.269 286.655C479.819 291.907 475.231 294.955 472.037 293.469C468.842 291.983 468.246 286.51 470.696 281.251C473.146 275.992 477.726 272.952 480.928 274.437C481.913 275.042 482.704 275.915 483.21 276.953C483.715 277.992 483.914 279.153 483.782 280.301C483.742 282.503 483.226 284.671 482.269 286.655Z" stroke="#565656" stroke-width="0.647" stroke-linecap="round" stroke-linejoin="round"/>
<path d="M483.78 280.225V280.301C484.25 284.922 481.422 297.09 488.796 292.137" stroke="#565656" stroke-width="0.647" stroke-linecap="round" stroke-linejoin="round"/>
</svg>
