<svg width="677" height="464" viewBox="0 0 677 464" fill="none" xmlns="http://www.w3.org/2000/svg">
<path d="M498.392 129.46H183.289V117.042C183.29 113.406 184.738 109.919 187.315 107.348C189.893 104.777 193.388 103.332 197.033 103.331H494.193C493.686 105.794 493.431 108.302 493.43 110.816V111.119H232.563V121.566H494.761L495.013 121.495C495.843 124.266 496.976 126.937 498.392 129.46Z" fill="#81F889"/>
<path d="M354.717 333.069C356.731 333.069 358.7 333.664 360.374 334.78C362.049 335.895 363.354 337.482 364.125 339.338C364.896 341.194 365.098 343.236 364.706 345.206C364.313 347.177 363.343 348.987 361.919 350.407C360.495 351.828 358.681 352.795 356.705 353.187C354.73 353.579 352.683 353.378 350.822 352.608C348.962 351.839 347.372 350.537 346.254 348.866C345.135 347.196 344.538 345.232 344.539 343.223C344.541 340.53 345.614 337.949 347.522 336.045C349.43 334.141 352.018 333.071 354.717 333.069Z" fill="white"/>
<path d="M538.365 180.409V297.375C535.949 298.411 533.6 299.595 531.33 300.92L526.023 299.128L526.159 298.719V158.182L538.365 180.409Z" fill="white"/>
<path d="M538.366 156.367V180.408L526.16 158.175V152.665C530.107 154.267 534.193 155.507 538.366 156.367Z" fill="#2E8C61"/>
<path d="M514.761 361.741H492.5L502.897 324.708H509.735C507.942 329.148 507.019 333.89 507.016 338.676C507.079 346.99 509.792 355.067 514.761 361.741Z" fill="#2E8C61"/>
<path d="M502.909 324.707L492.512 361.74H189.618C184.701 361.74 179.985 359.792 176.508 356.323C173.031 352.855 171.078 348.15 171.078 343.245V254.914L183.284 239.36V310.997C183.285 314.633 184.733 318.12 187.311 320.691C189.888 323.262 193.383 324.706 197.028 324.707H502.909ZM364.914 343.222C364.914 341.213 364.318 339.249 363.199 337.578C362.081 335.907 360.491 334.604 358.631 333.834C356.77 333.065 354.723 332.863 352.747 333.254C350.771 333.645 348.956 334.612 347.532 336.032C346.107 337.452 345.136 339.261 344.742 341.232C344.348 343.202 344.549 345.245 345.318 347.102C346.088 348.958 347.392 350.546 349.066 351.663C350.74 352.78 352.709 353.377 354.723 353.379C357.423 353.378 360.012 352.308 361.921 350.403C363.83 348.499 364.903 345.916 364.904 343.222H364.914Z" fill="white"/>
<path d="M498.526 163.844C499.244 163.827 499.957 163.953 500.625 164.214C501.292 164.476 501.901 164.868 502.414 165.368C502.928 165.868 503.336 166.465 503.614 167.124C503.893 167.784 504.036 168.492 504.036 169.208C504.036 169.923 503.893 170.632 503.614 171.291C503.336 171.951 502.928 172.548 502.414 173.048C501.901 173.547 501.292 173.94 500.625 174.201C499.957 174.463 499.244 174.589 498.526 174.571H374.585C373.521 174.573 372.48 174.26 371.595 173.671C370.709 173.082 370.019 172.244 369.612 171.264C369.205 170.283 369.099 169.204 369.307 168.163C369.516 167.122 370.029 166.166 370.783 165.417C371.28 164.916 371.873 164.519 372.525 164.249C373.178 163.979 373.878 163.841 374.585 163.844H498.526Z" fill="#81F889"/>
<path d="M498.526 186.778C499.952 186.778 501.32 187.344 502.329 188.35C503.337 189.356 503.904 190.72 503.904 192.143C503.904 193.566 503.337 194.931 502.329 195.937C501.32 196.943 499.952 197.508 498.526 197.508H311.877C310.45 197.506 309.083 196.939 308.074 195.932C307.065 194.925 306.498 193.56 306.496 192.137C306.502 190.716 307.071 189.355 308.079 188.351C309.088 187.347 310.453 186.782 311.877 186.778H498.526Z" fill="#2E8C61"/>
<path d="M498.526 209.719C499.243 209.702 499.956 209.828 500.624 210.089C501.292 210.351 501.9 210.743 502.413 211.243C502.927 211.743 503.335 212.34 503.613 212.999C503.892 213.659 504.035 214.367 504.035 215.083C504.035 215.798 503.892 216.507 503.613 217.166C503.335 217.826 502.927 218.423 502.413 218.923C501.9 219.422 501.292 219.815 500.624 220.076C499.956 220.338 499.243 220.464 498.526 220.446H437.291C435.864 220.445 434.496 219.879 433.487 218.873C432.478 217.866 431.911 216.501 431.91 215.078C431.913 213.656 432.481 212.293 433.49 211.288C434.499 210.284 435.866 209.719 437.291 209.719H498.526Z" fill="#81F889"/>
<path d="M498.517 232.646C499.944 232.646 501.312 233.211 502.32 234.217C503.329 235.223 503.895 236.588 503.895 238.011C503.895 239.433 503.329 240.798 502.32 241.804C501.312 242.81 499.944 243.376 498.517 243.376H301.42C299.992 243.374 298.624 242.807 297.614 241.8C296.605 240.793 296.037 239.428 296.035 238.004C296.041 236.582 296.611 235.221 297.62 234.217C298.628 233.213 299.995 232.648 301.42 232.646H498.517Z" fill="#2E8C61"/>
<path d="M498.519 255.594C499.922 255.628 501.256 256.208 502.236 257.21C503.217 258.212 503.765 259.557 503.765 260.957C503.765 262.357 503.217 263.702 502.236 264.704C501.256 265.706 499.922 266.286 498.519 266.321H395.482C394.055 266.32 392.686 265.754 391.677 264.747C390.667 263.741 390.099 262.376 390.098 260.952C390.102 259.53 390.671 258.168 391.68 257.163C392.689 256.159 394.057 255.595 395.482 255.594H498.519Z" fill="#81F889"/>
<path d="M498.528 278.529C499.245 278.511 499.958 278.637 500.626 278.899C501.293 279.16 501.902 279.553 502.415 280.052C502.929 280.552 503.337 281.149 503.615 281.809C503.894 282.468 504.037 283.177 504.037 283.892C504.037 284.608 503.894 285.316 503.615 285.976C503.337 286.635 502.929 287.232 502.415 287.732C501.902 288.232 501.293 288.624 500.626 288.886C499.958 289.148 499.245 289.273 498.528 289.256H468.647C467.22 289.255 465.852 288.689 464.843 287.682C463.834 286.676 463.266 285.311 463.266 283.887C463.27 282.466 463.838 281.104 464.847 280.1C465.856 279.095 467.222 278.531 468.647 278.529H498.528Z" fill="#2E8C61"/>
<path d="M498.519 301.464C499.946 301.464 501.313 302.029 502.322 303.035C503.331 304.041 503.897 305.406 503.897 306.829C503.897 308.252 503.331 309.616 502.322 310.622C501.313 311.629 499.946 312.194 498.519 312.194H332.775C331.348 312.192 329.979 311.626 328.97 310.619C327.96 309.612 327.392 308.247 327.391 306.822C327.397 305.401 327.966 304.039 328.975 303.035C329.984 302.031 331.35 301.466 332.775 301.464H498.519Z" fill="#81F889"/>
<path d="M498.941 140.945L493.728 151.633H332.78C331.354 151.633 329.986 151.068 328.978 150.062C327.969 149.056 327.402 147.691 327.402 146.268C327.402 144.845 327.969 143.481 328.978 142.475C329.986 141.469 331.354 140.903 332.78 140.903H498.525C498.67 140.903 498.796 140.936 498.941 140.945Z" fill="#2E8C61"/>
<path d="M189.618 94.4453H497.185C495.829 97.2745 494.823 100.258 494.188 103.329H197.028C193.383 103.33 189.888 104.775 187.311 107.346C184.733 109.917 183.285 113.404 183.284 117.04V160.807C179.497 158.008 175.402 155.65 171.078 153.779V112.941C171.078 108.036 173.031 103.331 176.508 99.8625C179.985 96.3939 184.701 94.4453 189.618 94.4453Z" fill="white"/>
<path d="M495.012 121.495L494.76 121.566H232.559V111.119H493.439C493.459 114.635 493.989 118.13 495.012 121.495Z" fill="#2E8C61"/>
<path d="M438.958 278.53C440.361 278.565 441.695 279.145 442.675 280.147C443.655 281.149 444.204 282.494 444.204 283.894C444.204 285.294 443.655 286.638 442.675 287.641C441.695 288.643 440.361 289.223 438.958 289.257H231.405C229.978 289.256 228.609 288.69 227.601 287.684C226.592 286.677 226.024 285.312 226.023 283.889C226.028 282.467 226.596 281.105 227.605 280.101C228.613 279.097 229.98 278.532 231.405 278.53H438.958Z" fill="#81F889"/>
<path d="M407.601 209.718C409.004 209.752 410.338 210.332 411.318 211.334C412.299 212.336 412.847 213.681 412.847 215.081C412.847 216.481 412.299 217.826 411.318 218.828C410.338 219.83 409.004 220.41 407.601 220.445H231.405C229.978 220.444 228.609 219.878 227.601 218.871C226.592 217.865 226.024 216.5 226.023 215.076C226.026 213.654 226.594 212.291 227.603 211.287C228.612 210.282 229.979 209.718 231.405 209.718H407.601Z" fill="#2E8C61"/>
<path d="M394.759 388.334L399.171 407.735H392.94H319.177H310.281L320.734 361.738L394.759 388.334Z" fill="white"/>
<path d="M388.716 361.738L394.756 388.334L320.73 361.738H388.716Z" fill="#2E8C61"/>
<path d="M365.795 255.594C367.198 255.628 368.532 256.208 369.513 257.21C370.493 258.212 371.041 259.557 371.041 260.957C371.041 262.357 370.493 263.702 369.513 264.704C368.532 265.706 367.198 266.286 365.795 266.321H231.405C229.978 266.32 228.609 265.754 227.601 264.747C226.592 263.741 226.024 262.376 226.023 260.952C226.026 259.53 226.594 258.167 227.603 257.163C228.612 256.158 229.979 255.594 231.405 255.594H365.795Z" fill="#2E8C61"/>
<path d="M344.897 163.844C345.615 163.827 346.328 163.953 346.996 164.214C347.663 164.476 348.272 164.868 348.785 165.368C349.299 165.868 349.707 166.465 349.985 167.124C350.264 167.784 350.407 168.492 350.407 169.208C350.407 169.923 350.264 170.632 349.985 171.291C349.707 171.951 349.299 172.548 348.785 173.048C348.272 173.547 347.663 173.94 346.996 174.201C346.328 174.463 345.615 174.589 344.897 174.571H231.408C230.691 174.589 229.978 174.463 229.31 174.201C228.642 173.94 228.034 173.547 227.52 173.048C227.007 172.548 226.599 171.951 226.321 171.291C226.042 170.632 225.898 169.923 225.898 169.208C225.898 168.492 226.042 167.784 226.321 167.124C226.599 166.465 227.007 165.868 227.52 165.368C228.034 164.868 228.642 164.476 229.31 164.214C229.978 163.953 230.691 163.827 231.408 163.844H344.897Z" fill="#2E8C61"/>
<path d="M303.088 140.903C304.514 140.903 305.882 141.469 306.891 142.475C307.899 143.481 308.466 144.845 308.466 146.268C308.466 147.691 307.899 149.056 306.891 150.062C305.882 151.068 304.514 151.633 303.088 151.633H231.405C229.978 151.632 228.609 151.067 227.601 150.06C226.592 149.054 226.024 147.689 226.023 146.265C226.027 144.843 226.595 143.48 227.604 142.475C228.612 141.47 229.979 140.905 231.405 140.903H303.088Z" fill="#81F889"/>
<path d="M303.088 301.464C304.514 301.464 305.882 302.029 306.891 303.035C307.899 304.041 308.466 305.406 308.466 306.829C308.466 308.252 307.899 309.616 306.891 310.622C305.882 311.629 304.514 312.194 303.088 312.194H231.405C229.977 312.192 228.609 311.626 227.6 310.619C226.591 309.611 226.024 308.246 226.023 306.822C226.028 305.401 226.596 304.039 227.605 303.035C228.613 302.03 229.98 301.466 231.405 301.464H303.088Z" fill="#2E8C61"/>
<path d="M282.187 186.778C283.613 186.778 284.981 187.344 285.989 188.35C286.998 189.356 287.565 190.72 287.565 192.143C287.565 193.566 286.998 194.931 285.989 195.937C284.981 196.943 283.613 197.508 282.187 197.508H231.405C229.977 197.507 228.609 196.94 227.6 195.933C226.591 194.926 226.024 193.561 226.023 192.137C226.028 190.715 226.596 189.353 227.605 188.349C228.613 187.345 229.98 186.78 231.405 186.778H282.187Z" fill="#81F889"/>
<path d="M271.734 232.646C273.161 232.646 274.529 233.211 275.537 234.217C276.546 235.223 277.112 236.588 277.112 238.011C277.112 239.433 276.546 240.798 275.537 241.804C274.529 242.81 273.161 243.376 271.734 243.376H231.405C229.977 243.374 228.609 242.807 227.6 241.8C226.591 240.793 226.024 239.428 226.023 238.004C226.028 236.583 226.596 235.221 227.605 234.216C228.613 233.212 229.98 232.647 231.405 232.646H271.734Z" fill="#81F889"/>
<path d="M201.496 188.428C202.205 188.692 202.823 189.152 203.278 189.754C203.734 190.357 204.007 191.077 204.066 191.829C204.125 192.581 203.967 193.334 203.612 194C203.256 194.666 202.717 195.217 202.058 195.588V194.911C202.058 194.379 202.058 193.848 202.016 193.316V193.19C201.947 191.593 201.774 190.002 201.496 188.428Z" fill="#2E8C61"/>
<path d="M200.074 142.272C200.867 142.269 201.643 142.501 202.303 142.939C202.963 143.376 203.479 143.999 203.784 144.729C204.089 145.459 204.17 146.263 204.017 147.039C203.864 147.815 203.484 148.528 202.924 149.088C202.364 149.648 201.651 150.03 200.873 150.185C200.096 150.34 199.29 150.262 198.558 149.96C197.825 149.658 197.199 149.146 196.758 148.488C196.317 147.831 196.082 147.058 196.082 146.267C196.082 145.21 196.502 144.195 197.251 143.446C197.999 142.697 199.014 142.275 200.074 142.272Z" fill="#2E8C61"/>
<path d="M200.074 165.211C200.866 165.209 201.641 165.442 202.3 165.879C202.96 166.317 203.474 166.939 203.779 167.669C204.083 168.398 204.164 169.201 204.01 169.976C203.857 170.751 203.477 171.464 202.917 172.023C202.358 172.582 201.645 172.963 200.868 173.118C200.092 173.273 199.287 173.194 198.555 172.893C197.823 172.591 197.197 172.079 196.757 171.422C196.317 170.766 196.082 169.993 196.082 169.203C196.082 168.146 196.502 167.132 197.251 166.384C197.999 165.635 199.015 165.214 200.074 165.211Z" fill="#2E8C61"/>
<path d="M200.077 211.085C201.138 211.085 202.156 211.505 202.907 212.254C203.657 213.003 204.079 214.018 204.079 215.077C204.079 216.136 203.657 217.151 202.907 217.9C202.156 218.649 201.138 219.069 200.077 219.069C199.224 219.049 198.399 218.761 197.719 218.246C197.039 217.732 196.54 217.016 196.291 216.202L195.742 215.857C196.686 214.395 197.534 212.874 198.281 211.304L198.459 211.384C198.791 211.056 199.802 211.085 200.077 211.085Z" fill="#2E8C61"/>
<path d="M200.074 256.956C200.867 256.954 201.643 257.186 202.303 257.623C202.963 258.061 203.479 258.684 203.784 259.414C204.089 260.144 204.17 260.947 204.017 261.723C203.864 262.499 203.484 263.212 202.924 263.772C202.364 264.332 201.651 264.714 200.873 264.869C200.096 265.025 199.29 264.946 198.558 264.644C197.825 264.342 197.199 263.83 196.758 263.173C196.317 262.515 196.082 261.742 196.082 260.952C196.082 259.894 196.502 258.88 197.251 258.131C197.999 257.382 199.014 256.959 200.074 256.956Z" fill="#2E8C61"/>
<path d="M200.074 279.896C200.866 279.894 201.641 280.126 202.3 280.564C202.96 281.001 203.474 281.624 203.779 282.353C204.083 283.083 204.164 283.886 204.01 284.661C203.857 285.436 203.477 286.148 202.917 286.707C202.358 287.267 201.645 287.648 200.868 287.803C200.092 287.958 199.287 287.879 198.555 287.577C197.823 287.275 197.197 286.764 196.757 286.107C196.317 285.45 196.082 284.678 196.082 283.888C196.082 282.831 196.502 281.817 197.251 281.068C197.999 280.32 199.015 279.898 200.074 279.896Z" fill="#2E8C61"/>
<path d="M200.074 302.832C200.867 302.83 201.643 303.062 202.303 303.499C202.964 303.937 203.479 304.56 203.784 305.29C204.089 306.02 204.17 306.824 204.017 307.6C203.863 308.376 203.483 309.089 202.923 309.649C202.363 310.209 201.649 310.591 200.871 310.746C200.094 310.901 199.288 310.822 198.555 310.519C197.823 310.217 197.197 309.704 196.756 309.046C196.316 308.389 196.081 307.615 196.082 306.824C196.082 305.767 196.502 304.753 197.251 304.005C197.999 303.256 199.015 302.835 200.074 302.832Z" fill="#2E8C61"/>
<path d="M177.764 232.664L183.578 235.406L183.284 236.031V239.36L171.078 254.914V236.031C173.374 235.047 175.607 233.922 177.764 232.664Z" fill="#2E8C61"/>
<path d="M157.861 240.316L157.974 240.829C152.573 253.047 145.7 265.173 137.648 271.92C135.033 274.109 132.518 276.326 130.102 278.571C129.191 265.247 128.209 251.765 127.27 240.829C131.901 241.67 136.599 242.091 141.307 242.089C146.873 242.097 152.423 241.503 157.861 240.316Z" fill="#2E8C61"/>
<path d="M119.992 301.395C121.979 296.753 125.042 292.647 128.93 289.415C129.524 288.957 130.118 288.497 130.725 288.058C140.316 281.329 150.766 275.911 161.798 271.947C161.504 272.572 150.28 296.291 139.511 305.352C137.014 307.446 134.514 309.325 132.153 311.152C129.757 312.97 127.49 314.952 125.37 317.084C123.03 319.383 121.178 322.13 119.927 325.159C118.675 328.189 118.049 331.44 118.086 334.716V335.248H113.48V334.716C113.539 329.097 114.064 323.493 115.05 317.961C115.99 312.253 117.65 306.687 119.992 301.395Z" fill="#81F889"/>
<path d="M133.294 334.716V335.248H127.693C127.421 329.139 126.638 323.063 125.352 317.084C127.472 314.953 129.738 312.97 132.135 311.152C132.855 323.249 133.294 332.297 133.294 334.716Z" fill="#2E8C61"/>
<path d="M130.733 288.046C130.125 288.494 129.531 288.955 128.937 289.412C125.049 292.644 121.986 296.75 119.999 301.393C118.756 299.459 117.218 297.316 115.442 294.929C111.314 289.361 105.965 282.584 100.477 275.054C93.869 266.225 87.9699 256.889 82.835 247.133C82.835 247.133 82.8027 247.082 82.751 246.988C81.979 245.455 81.2458 243.934 80.5482 242.39C57.6894 192.095 72.499 141.947 72.499 141.947C80.3356 149.078 87.6882 156.721 94.5082 164.825C90.2239 168.606 86.7715 173.232 84.3688 178.411C81.9661 183.59 80.6652 189.209 80.5482 194.914C80.5482 217.215 100.477 235.91 127.273 240.831C128.213 251.767 129.195 265.249 130.106 278.573C130.316 281.75 130.536 284.917 130.733 288.046Z" fill="#81F889"/>
<path d="M112.798 298.89C112.798 298.89 114.513 309.075 115.059 317.949C114.073 323.481 113.548 329.086 113.489 334.705V335.236H108.899V334.705C110.514 323.923 108.857 311.788 108.899 306.053C110.063 303.594 111.365 301.203 112.798 298.89Z" fill="#2E8C61"/>
<path d="M115.441 294.931C114.523 296.22 113.645 297.547 112.808 298.891C111.375 301.204 110.074 303.595 108.91 306.054C104.673 315.188 102.446 325.121 102.379 335.186V335.237H100.537C100.426 324.049 99.268 312.896 97.0781 301.923C98.1343 296.406 98.6931 290.152 99.3682 283.769C99.6718 280.891 99.9948 277.985 100.392 275.117L100.476 275.053C105.964 282.59 111.313 289.356 115.441 294.931Z" fill="#81F889"/>
<path d="M100.534 335.248H92.3947C91.8617 307.617 73.1342 298.891 54.3841 283.128C35.0041 266.853 14.8359 223.888 14.8359 223.888C34.9953 231.131 54.0457 241.138 71.4385 253.622C71.9804 254.08 72.5453 254.511 73.131 254.911C86.697 265.525 93.606 284.71 97.075 301.923C99.2654 312.9 100.424 324.056 100.534 335.248Z" fill="#81F889"/>
<path d="M100.468 275.056L100.384 275.121C99.9863 277.989 99.6633 280.895 99.3597 283.773C97.4992 271.46 87.6122 264.913 73.1289 254.914C72.5636 254.476 72.0081 254.038 71.4332 253.625C58.2967 242.638 54.1914 215.832 54.1914 215.832C69.2303 224.651 81.6141 245.096 82.7414 246.994C82.7931 247.088 82.8254 247.139 82.8254 247.139C87.9605 256.894 93.8595 266.228 100.468 275.056Z" fill="#2E8C61"/>
<path d="M171.078 236.031C173.371 235.046 175.6 233.922 177.755 232.664L183.569 235.406L211.993 248.752L193.582 218.966C194.354 217.954 195.087 216.923 195.755 215.857C196.699 214.394 197.547 212.872 198.294 211.301C200.671 206.396 201.954 201.036 202.054 195.589V194.912C202.054 194.381 202.054 193.849 202.012 193.317" stroke="#2E8C61" stroke-width="0.647" stroke-linecap="round" stroke-linejoin="round"/>
<path d="M202.03 193.19C201.957 191.593 201.779 190.002 201.497 188.428C199.198 177.234 192.681 167.348 183.29 160.807C179.503 158.008 175.408 155.65 171.084 153.779C161.684 149.734 151.546 147.675 141.31 147.734C124.114 147.369 107.408 153.464 94.5069 164.812C90.2226 168.593 86.7702 173.219 84.3675 178.398C81.9648 183.577 80.6639 189.196 80.5469 194.901C80.5469 217.202 100.476 235.898 127.272 240.818C131.904 241.659 136.602 242.081 141.31 242.078C146.876 242.086 152.426 241.492 157.863 240.306C162.4 239.316 166.828 237.885 171.084 236.033" stroke="#2E8C61" stroke-width="0.647" stroke-linecap="round" stroke-linejoin="round"/>
<path d="M498.948 140.947L501.916 134.86C500.6 133.15 499.413 131.345 498.363 129.46C496.953 126.936 495.825 124.265 495.001 121.495C493.978 118.13 493.45 114.635 493.431 111.119V110.816C493.429 108.302 493.682 105.794 494.187 103.331C494.819 100.26 495.824 97.2767 497.178 94.4472C505.747 76.4543 528.037 63.6299 554.187 63.6299C587.734 63.6299 614.94 84.7515 614.94 110.816C614.94 136.881 587.734 157.996 554.187 157.996C548.869 158.005 543.564 157.456 538.36 156.359C534.186 155.506 530.1 154.27 526.154 152.666C523.258 151.503 520.451 150.13 517.756 148.558L489.332 160.654L493.744 151.632L498.967 140.944" stroke="#2E8C61" stroke-width="0.647" stroke-linecap="round" stroke-linejoin="round"/>
<path d="M526.026 299.132L507.85 292.991L515.512 314.625C513.134 317.706 511.193 321.098 509.743 324.707C507.95 329.147 507.027 333.889 507.023 338.676C507.089 346.99 509.803 355.067 514.775 361.74C525.173 376.127 545.021 385.855 567.793 385.855C601.343 385.855 628.546 364.73 628.546 338.676C628.546 312.621 601.343 291.499 567.793 291.499C557.687 291.447 547.677 293.452 538.374 297.389C535.958 298.425 533.609 299.609 531.339 300.934L526.026 299.132Z" stroke="#2E8C61" stroke-width="0.647" stroke-linecap="round" stroke-linejoin="round"/>
<path d="M171.078 153.779V112.941C171.078 108.036 173.031 103.331 176.508 99.8625C179.985 96.3939 184.701 94.4453 189.618 94.4453H497.185" stroke="#2E8C61" stroke-width="0.647" stroke-linecap="round" stroke-linejoin="round"/>
<path d="M320.737 361.74H189.618C184.701 361.74 179.985 359.791 176.508 356.323C173.031 352.854 171.078 348.15 171.078 343.244V236.031" stroke="#2E8C61" stroke-width="0.647" stroke-linecap="round" stroke-linejoin="round"/>
<path d="M514.762 361.738H492.501H388.711" stroke="#2E8C61" stroke-width="0.647" stroke-linecap="round" stroke-linejoin="round"/>
<path d="M538.363 156.369V180.41V297.39" stroke="#2E8C61" stroke-width="0.647" stroke-linecap="round" stroke-linejoin="round"/>
<path d="M183.289 160.822V117.042C183.29 113.406 184.738 109.919 187.315 107.348C189.893 104.777 193.388 103.332 197.033 103.331H494.193" stroke="#2E8C61" stroke-width="0.647" stroke-linecap="round" stroke-linejoin="round"/>
<path d="M509.742 324.707H197.033C193.388 324.706 189.893 323.261 187.315 320.69C184.738 318.119 183.29 314.632 183.289 310.996V236.031" stroke="#2E8C61" stroke-width="0.647" stroke-linecap="round" stroke-linejoin="round"/>
<path d="M526.16 152.678V158.181V298.722" stroke="#2E8C61" stroke-width="0.647" stroke-linecap="round" stroke-linejoin="round"/>
<path d="M183.289 129.458H498.379" stroke="#2E8C61" stroke-width="0.647" stroke-linecap="round" stroke-linejoin="round"/>
<path d="M494.757 121.566H232.559V111.119H493.346" stroke="#2E8C61" stroke-width="0.647" stroke-linecap="round" stroke-linejoin="round"/>
<path d="M364.907 343.223C364.909 345.232 364.313 347.197 363.195 348.868C362.077 350.539 360.487 351.843 358.627 352.613C356.766 353.383 354.719 353.585 352.743 353.195C350.767 352.804 348.952 351.837 347.527 350.418C346.101 348.998 345.13 347.188 344.736 345.217C344.342 343.247 344.542 341.204 345.312 339.347C346.081 337.49 347.386 335.903 349.06 334.785C350.734 333.668 352.703 333.071 354.717 333.069C357.418 333.068 360.008 334.138 361.919 336.041C363.83 337.945 364.905 340.528 364.907 343.223Z" stroke="#2E8C61" stroke-width="0.647" stroke-linecap="round" stroke-linejoin="round"/>
<path d="M310.281 407.735L320.734 361.738H388.719L394.759 388.334L399.171 407.735" stroke="#2E8C61" stroke-width="0.647" stroke-linecap="round" stroke-linejoin="round"/>
<path d="M392.939 407.737H319.176" stroke="#2E8C61" stroke-width="0.647" stroke-linecap="round" stroke-linejoin="round"/>
<path d="M320.73 361.738L394.756 388.334" stroke="#2E8C61" stroke-width="0.647" stroke-linecap="round" stroke-linejoin="round"/>
<path d="M282.156 407.737H298.274" stroke="#2E8C61" stroke-width="0.647" stroke-linecap="round" stroke-linejoin="round"/>
<path d="M303.051 407.737H310.27H319.165" stroke="#2E8C61" stroke-width="0.647" stroke-linecap="round" stroke-linejoin="round"/>
<path d="M52.2344 407.737H68.3521" stroke="#2E8C61" stroke-width="0.647" stroke-linecap="round" stroke-linejoin="round"/>
<path d="M131.309 407.737H172.863" stroke="#2E8C61" stroke-width="0.647" stroke-linecap="round" stroke-linejoin="round"/>
<path d="M73.1289 407.737H94.9282" stroke="#2E8C61" stroke-width="0.647" stroke-linecap="round" stroke-linejoin="round"/>
<path d="M392.938 407.737H399.168H409.052" stroke="#2E8C61" stroke-width="0.647" stroke-linecap="round" stroke-linejoin="round"/>
<path d="M413.832 407.737H429.95" stroke="#2E8C61" stroke-width="0.647" stroke-linecap="round" stroke-linejoin="round"/>
<path d="M212.387 122.777L223.078 116.626L212.387 110.462" stroke="#2E8C61" stroke-width="0.647" stroke-linecap="round" stroke-linejoin="round"/>
<path d="M205.474 110.462L194.773 116.626L205.474 122.777" stroke="#2E8C61" stroke-width="0.647" stroke-linecap="round" stroke-linejoin="round"/>
<path d="M526.16 158.182L538.366 180.409" stroke="#2E8C61" stroke-width="0.647" stroke-linecap="round" stroke-linejoin="round"/>
<path d="M502.897 324.708L492.5 361.741" stroke="#2E8C61" stroke-width="0.647" stroke-linecap="round" stroke-linejoin="round"/>
<path d="M183.284 239.36L171.078 254.914" stroke="#2E8C61" stroke-width="0.647" stroke-linecap="round" stroke-linejoin="round"/>
<path d="M131.298 407.736H94.9282C89.1467 407.736 83.6019 405.445 79.5138 401.367C75.4256 397.289 73.1289 391.757 73.1289 385.99V335.246H153.097V385.99C153.096 391.757 150.799 397.288 146.711 401.366C142.623 405.444 137.079 407.736 131.298 407.736Z" stroke="#2E8C61" stroke-width="0.647" stroke-linecap="round" stroke-linejoin="round"/>
<path d="M100.534 335.248C100.424 324.056 99.2654 312.9 97.075 301.923C93.606 284.71 86.697 265.512 73.1342 254.911C72.569 254.473 72.0134 254.035 71.4385 253.622C54.0457 241.138 34.9953 231.131 14.8359 223.888C14.8359 223.888 35.0073 266.853 54.3841 283.128C73.1342 298.891 91.8521 307.617 92.3947 335.248" stroke="#2E8C61" stroke-width="0.647" stroke-linecap="round" stroke-linejoin="round"/>
<path d="M108.906 306.063C104.67 315.198 102.443 325.131 102.375 335.196" stroke="#2E8C61" stroke-width="0.647" stroke-linecap="round" stroke-linejoin="round"/>
<path d="M115.441 294.931C114.524 296.22 113.645 297.547 112.809 298.891C111.376 301.204 110.074 303.595 108.91 306.054" stroke="#2E8C61" stroke-width="0.647" stroke-linecap="round" stroke-linejoin="round"/>
<path d="M157.969 240.83C152.569 253.049 145.695 265.174 137.643 271.921C135.029 274.11 132.514 276.327 130.098 278.572" stroke="#2E8C61" stroke-width="0.647" stroke-linecap="round" stroke-linejoin="round"/>
<path d="M97.0781 301.922C98.1343 296.405 98.6931 290.151 99.3682 283.768C99.6718 280.89 99.9948 277.984 100.392 275.116" stroke="#2E8C61" stroke-width="0.647" stroke-linecap="round" stroke-linejoin="round"/>
<path d="M161.823 271.919C161.519 272.563 150.295 296.273 139.536 305.333C137.039 307.428 134.539 309.306 132.178 311.133C129.781 312.951 127.515 314.934 125.395 317.066C123.054 319.365 121.203 322.111 119.951 325.141C118.7 328.17 118.074 331.421 118.111 334.697" stroke="#2E8C61" stroke-width="0.647" stroke-linecap="round" stroke-linejoin="round"/>
<path d="M130.727 288.046C140.317 281.316 150.767 275.898 161.799 271.935" stroke="#2E8C61" stroke-width="0.647" stroke-linecap="round" stroke-linejoin="round"/>
<path d="M113.48 334.716C113.539 329.098 114.064 323.493 115.05 317.961C115.991 312.256 117.651 306.694 119.992 301.405C121.979 296.763 125.042 292.657 128.93 289.425C129.524 288.967 130.118 288.507 130.725 288.068" stroke="#2E8C61" stroke-width="0.647" stroke-linecap="round" stroke-linejoin="round"/>
<path d="M125.352 317.084C126.638 323.063 127.421 329.139 127.693 335.248" stroke="#2E8C61" stroke-width="0.647" stroke-linecap="round" stroke-linejoin="round"/>
<path d="M82.832 247.146C87.967 256.901 93.8661 266.237 100.474 275.066C105.965 282.596 111.311 289.373 115.439 294.941C117.215 297.328 118.753 299.484 119.996 301.405" stroke="#2E8C61" stroke-width="0.647" stroke-linecap="round" stroke-linejoin="round"/>
<path d="M94.5082 164.822C87.6882 156.718 80.3356 149.075 72.499 141.944C72.499 141.944 57.6894 192.092 80.5482 242.387C81.2458 243.931 81.979 245.452 82.751 246.986" stroke="#2E8C61" stroke-width="0.647" stroke-linecap="round" stroke-linejoin="round"/>
<path d="M130.729 288.067C130.532 284.929 130.312 281.761 130.102 278.581C129.191 265.257 128.209 251.775 127.27 240.839" stroke="#2E8C61" stroke-width="0.647" stroke-linecap="round" stroke-linejoin="round"/>
<path d="M133.302 334.716C133.302 332.297 132.863 323.249 132.152 311.152" stroke="#2E8C61" stroke-width="0.647" stroke-linecap="round" stroke-linejoin="round"/>
<path d="M82.8254 247.146C82.8254 247.146 82.7931 247.094 82.7414 247.001C81.6141 245.103 69.2303 224.658 54.1914 215.839C54.1914 215.839 58.2967 242.645 71.4332 253.632C71.9756 254.091 72.5416 254.521 73.1289 254.921C87.6122 264.91 97.4993 271.467 99.3597 283.779" stroke="#2E8C61" stroke-width="0.647" stroke-linecap="round" stroke-linejoin="round"/>
<path d="M108.899 306.055C108.857 311.79 110.514 323.925 108.899 334.707" stroke="#2E8C61" stroke-width="0.647" stroke-linecap="round" stroke-linejoin="round"/>
<path d="M112.809 298.89C112.809 298.89 114.524 309.075 115.07 317.949" stroke="#2E8C61" stroke-width="0.647" stroke-linecap="round" stroke-linejoin="round"/>
<path d="M217.723 136.913V313.236" stroke="#2E8C61" stroke-width="0.647" stroke-linecap="round" stroke-linejoin="round"/>
<path d="M303.088 151.633H231.405C229.978 151.632 228.609 151.067 227.601 150.06C226.592 149.054 226.024 147.689 226.023 146.265C226.027 144.843 226.595 143.48 227.604 142.475C228.612 141.47 229.979 140.905 231.405 140.903H303.088C304.514 140.903 305.882 141.469 306.891 142.475C307.899 143.481 308.466 144.845 308.466 146.268C308.466 147.691 307.899 149.056 306.891 150.062C305.882 151.068 304.514 151.633 303.088 151.633Z" stroke="#2E8C61" stroke-width="0.647" stroke-linecap="round" stroke-linejoin="round"/>
<path d="M498.951 140.945C498.796 140.945 498.67 140.903 498.524 140.903H332.78C331.354 140.903 329.986 141.469 328.978 142.475C327.969 143.481 327.402 144.845 327.402 146.268C327.402 147.691 327.969 149.056 328.978 150.062C329.986 151.068 331.354 151.633 332.78 151.633H493.728L498.951 140.945Z" stroke="#2E8C61" stroke-width="0.647" stroke-linecap="round" stroke-linejoin="round"/>
<path d="M204.068 146.267C204.067 147.056 203.831 147.826 203.391 148.481C202.951 149.136 202.326 149.647 201.596 149.948C200.865 150.249 200.061 150.327 199.286 150.173C198.511 150.018 197.799 149.638 197.24 149.08C196.682 148.522 196.301 147.812 196.147 147.038C195.993 146.265 196.072 145.463 196.374 144.735C196.677 144.006 197.189 143.383 197.846 142.945C198.503 142.506 199.275 142.272 200.066 142.271C200.592 142.271 201.113 142.373 201.599 142.574C202.085 142.775 202.527 143.069 202.899 143.44C203.271 143.811 203.565 144.252 203.766 144.737C203.966 145.222 204.069 145.742 204.068 146.267Z" stroke="#2E8C61" stroke-width="0.647" stroke-linecap="round" stroke-linejoin="round"/>
<path d="M344.897 174.571H231.408C230.691 174.589 229.978 174.463 229.31 174.201C228.642 173.94 228.034 173.547 227.52 173.048C227.007 172.548 226.599 171.951 226.321 171.291C226.042 170.632 225.898 169.923 225.898 169.208C225.898 168.492 226.042 167.784 226.321 167.124C226.599 166.465 227.007 165.868 227.52 165.368C228.034 164.868 228.642 164.476 229.31 164.214C229.978 163.953 230.691 163.827 231.408 163.844H344.897C345.615 163.827 346.328 163.953 346.996 164.214C347.663 164.476 348.272 164.868 348.785 165.368C349.299 165.868 349.707 166.465 349.985 167.124C350.264 167.784 350.407 168.492 350.407 169.208C350.407 169.923 350.264 170.632 349.985 171.291C349.707 171.951 349.299 172.548 348.785 173.048C348.272 173.547 347.663 173.94 346.996 174.201C346.328 174.463 345.615 174.589 344.897 174.571Z" stroke="#2E8C61" stroke-width="0.647" stroke-linecap="round" stroke-linejoin="round"/>
<path d="M498.526 174.571H374.585C373.521 174.573 372.48 174.26 371.595 173.671C370.709 173.082 370.019 172.244 369.612 171.264C369.205 170.283 369.099 169.204 369.307 168.163C369.516 167.122 370.029 166.166 370.783 165.417C371.28 164.916 371.873 164.519 372.525 164.249C373.178 163.979 373.878 163.841 374.585 163.844H498.526C499.244 163.827 499.957 163.953 500.625 164.214C501.292 164.476 501.901 164.868 502.414 165.368C502.928 165.868 503.336 166.465 503.614 167.124C503.893 167.784 504.036 168.492 504.036 169.208C504.036 169.923 503.893 170.632 503.614 171.291C503.336 171.951 502.928 172.548 502.414 173.048C501.901 173.547 501.292 173.94 500.625 174.201C499.957 174.463 499.244 174.589 498.526 174.571Z" stroke="#2E8C61" stroke-width="0.647" stroke-linecap="round" stroke-linejoin="round"/>
<path d="M204.068 169.203C204.067 169.992 203.832 170.763 203.393 171.418C202.953 172.074 202.328 172.585 201.598 172.886C200.867 173.188 200.064 173.266 199.288 173.112C198.513 172.958 197.801 172.578 197.242 172.021C196.682 171.463 196.302 170.753 196.147 169.979C195.993 169.206 196.072 168.404 196.374 167.675C196.676 166.946 197.188 166.323 197.845 165.885C198.503 165.446 199.275 165.212 200.066 165.211C200.592 165.21 201.112 165.313 201.598 165.513C202.084 165.713 202.526 166.007 202.898 166.378C203.269 166.749 203.564 167.19 203.765 167.674C203.966 168.159 204.069 168.679 204.068 169.203Z" stroke="#2E8C61" stroke-width="0.647" stroke-linecap="round" stroke-linejoin="round"/>
<path d="M282.187 197.521H231.405C229.977 197.519 228.609 196.953 227.6 195.946C226.591 194.939 226.024 193.573 226.023 192.15C226.028 190.728 226.596 189.366 227.605 188.362C228.613 187.358 229.98 186.793 231.405 186.791H282.187C283.613 186.791 284.981 187.356 285.989 188.362C286.998 189.369 287.565 190.733 287.565 192.156C287.565 193.579 286.998 194.944 285.989 195.95C284.981 196.956 283.613 197.521 282.187 197.521Z" stroke="#2E8C61" stroke-width="0.647" stroke-linecap="round" stroke-linejoin="round"/>
<path d="M498.526 197.521H311.877C310.45 197.518 309.083 196.952 308.074 195.945C307.065 194.938 306.498 193.573 306.496 192.15C306.502 190.729 307.071 189.368 308.079 188.364C309.088 187.36 310.453 186.794 311.877 186.791H498.526C499.952 186.791 501.32 187.356 502.329 188.362C503.337 189.369 503.904 190.733 503.904 192.156C503.904 193.579 503.337 194.944 502.329 195.95C501.32 196.956 499.952 197.521 498.526 197.521Z" stroke="#2E8C61" stroke-width="0.647" stroke-linecap="round" stroke-linejoin="round"/>
<path d="M202.064 194.911C202.064 195.14 202.064 195.368 202.042 195.588C202.701 195.217 203.239 194.666 203.595 194C203.951 193.334 204.109 192.581 204.049 191.829C203.99 191.077 203.717 190.357 203.262 189.754C202.807 189.152 202.188 188.692 201.48 188.428H201.457C201.743 190.006 201.929 191.601 202.013 193.203V193.332C202.051 193.848 202.064 194.379 202.064 194.911Z" stroke="#2E8C61" stroke-width="0.647" stroke-linecap="round" stroke-linejoin="round"/>
<path d="M407.601 220.445H231.405C229.978 220.444 228.609 219.878 227.601 218.871C226.592 217.865 226.024 216.5 226.023 215.076C226.026 213.654 226.594 212.291 227.603 211.287C228.612 210.282 229.979 209.718 231.405 209.718H407.601C409.004 209.752 410.338 210.332 411.318 211.334C412.299 212.336 412.847 213.681 412.847 215.081C412.847 216.481 412.299 217.826 411.318 218.828C410.338 219.83 409.004 220.41 407.601 220.445Z" stroke="#2E8C61" stroke-width="0.647" stroke-linecap="round" stroke-linejoin="round"/>
<path d="M498.526 220.446H437.291C435.864 220.445 434.496 219.879 433.487 218.873C432.478 217.866 431.911 216.501 431.91 215.078C431.913 213.656 432.481 212.293 433.49 211.288C434.499 210.284 435.866 209.719 437.291 209.719H498.526C499.243 209.702 499.956 209.828 500.624 210.089C501.292 210.351 501.9 210.743 502.413 211.243C502.927 211.743 503.335 212.34 503.613 212.999C503.892 213.659 504.035 214.367 504.035 215.083C504.035 215.798 503.892 216.507 503.613 217.166C503.335 217.826 502.927 218.423 502.413 218.923C501.9 219.422 501.292 219.815 500.624 220.076C499.956 220.338 499.243 220.464 498.526 220.446Z" stroke="#2E8C61" stroke-width="0.647" stroke-linecap="round" stroke-linejoin="round"/>
<path d="M198.456 211.377C198.779 211.055 199.793 211.077 200.071 211.077C201.132 211.077 202.15 211.498 202.901 212.247C203.651 212.996 204.073 214.011 204.073 215.07C204.073 216.129 203.651 217.144 202.901 217.893C202.15 218.642 201.132 219.062 200.071 219.062C199.218 219.042 198.392 218.754 197.713 218.239C197.033 217.724 196.534 217.009 196.285 216.194" stroke="#2E8C61" stroke-width="0.647" stroke-linecap="round" stroke-linejoin="round"/>
<path d="M271.734 243.384H231.405C229.977 243.383 228.609 242.816 227.6 241.809C226.591 240.802 226.024 239.437 226.023 238.013C226.028 236.591 226.596 235.229 227.605 234.225C228.613 233.221 229.98 232.656 231.405 232.654H271.734C273.161 232.654 274.529 233.22 275.537 234.226C276.546 235.232 277.112 236.596 277.112 238.019C277.112 239.442 276.546 240.807 275.537 241.813C274.529 242.819 273.161 243.384 271.734 243.384Z" stroke="#2E8C61" stroke-width="0.647" stroke-linecap="round" stroke-linejoin="round"/>
<path d="M498.517 243.384H301.42C299.992 243.383 298.624 242.816 297.614 241.809C296.605 240.802 296.037 239.437 296.035 238.013C296.041 236.591 296.611 235.23 297.62 234.226C298.628 233.222 299.995 232.657 301.42 232.654H498.517C499.944 232.654 501.312 233.22 502.32 234.226C503.329 235.232 503.895 236.596 503.895 238.019C503.895 239.442 503.329 240.807 502.32 241.813C501.312 242.819 499.944 243.384 498.517 243.384Z" stroke="#2E8C61" stroke-width="0.647" stroke-linecap="round" stroke-linejoin="round"/>
<path d="M365.795 266.321H231.405C229.978 266.32 228.609 265.754 227.601 264.747C226.592 263.741 226.024 262.376 226.023 260.952C226.026 259.53 226.594 258.167 227.603 257.163C228.612 256.158 229.979 255.594 231.405 255.594H365.795C367.198 255.628 368.532 256.208 369.513 257.21C370.493 258.212 371.041 259.557 371.041 260.957C371.041 262.357 370.493 263.702 369.513 264.704C368.532 265.706 367.198 266.286 365.795 266.321Z" stroke="#2E8C61" stroke-width="0.647" stroke-linecap="round" stroke-linejoin="round"/>
<path d="M498.519 266.321H395.482C394.055 266.32 392.686 265.754 391.677 264.747C390.667 263.741 390.099 262.376 390.098 260.952C390.102 259.53 390.671 258.168 391.68 257.163C392.689 256.159 394.057 255.595 395.482 255.594H498.519C499.922 255.628 501.256 256.208 502.236 257.21C503.217 258.212 503.765 259.557 503.765 260.957C503.765 262.357 503.217 263.702 502.236 264.704C501.256 265.706 499.922 266.286 498.519 266.321Z" stroke="#2E8C61" stroke-width="0.647" stroke-linecap="round" stroke-linejoin="round"/>
<path d="M204.068 260.952C204.067 261.74 203.831 262.511 203.391 263.166C202.951 263.821 202.326 264.331 201.596 264.632C200.865 264.933 200.061 265.011 199.286 264.857C198.511 264.703 197.799 264.323 197.24 263.765C196.682 263.207 196.301 262.496 196.147 261.723C195.993 260.95 196.072 260.148 196.374 259.419C196.677 258.691 197.189 258.068 197.846 257.629C198.503 257.191 199.275 256.957 200.066 256.956C200.592 256.955 201.113 257.058 201.599 257.259C202.085 257.459 202.527 257.753 202.899 258.125C203.271 258.496 203.565 258.937 203.766 259.422C203.966 259.907 204.069 260.427 204.068 260.952Z" stroke="#2E8C61" stroke-width="0.647" stroke-linecap="round" stroke-linejoin="round"/>
<path d="M438.958 289.257H231.405C229.978 289.256 228.609 288.69 227.601 287.684C226.592 286.677 226.024 285.312 226.023 283.889C226.028 282.467 226.596 281.105 227.605 280.101C228.613 279.097 229.98 278.532 231.405 278.53H438.958C440.361 278.565 441.695 279.145 442.675 280.147C443.655 281.149 444.204 282.494 444.204 283.894C444.204 285.294 443.655 286.638 442.675 287.641C441.695 288.643 440.361 289.223 438.958 289.257Z" stroke="#2E8C61" stroke-width="0.647" stroke-linecap="round" stroke-linejoin="round"/>
<path d="M498.528 289.256H468.647C467.22 289.255 465.852 288.689 464.843 287.682C463.834 286.676 463.266 285.311 463.266 283.887C463.27 282.466 463.838 281.104 464.847 280.1C465.856 279.095 467.222 278.531 468.647 278.529H498.528C499.245 278.511 499.958 278.637 500.626 278.899C501.293 279.16 501.902 279.553 502.415 280.052C502.929 280.552 503.337 281.149 503.615 281.809C503.894 282.468 504.037 283.177 504.037 283.892C504.037 284.608 503.894 285.316 503.615 285.976C503.337 286.635 502.929 287.232 502.415 287.732C501.902 288.232 501.293 288.624 500.626 288.886C499.958 289.148 499.245 289.273 498.528 289.256Z" stroke="#2E8C61" stroke-width="0.647" stroke-linecap="round" stroke-linejoin="round"/>
<path d="M204.068 283.879C204.067 284.668 203.832 285.439 203.393 286.094C202.953 286.75 202.328 287.26 201.598 287.562C200.867 287.863 200.064 287.942 199.288 287.788C198.513 287.634 197.801 287.254 197.242 286.697C196.682 286.139 196.302 285.428 196.147 284.655C195.993 283.881 196.072 283.08 196.374 282.351C196.676 281.622 197.188 280.999 197.845 280.56C198.503 280.122 199.275 279.887 200.066 279.887C200.592 279.886 201.112 279.989 201.598 280.189C202.084 280.389 202.526 280.683 202.898 281.054C203.269 281.425 203.564 281.865 203.765 282.35C203.966 282.835 204.069 283.355 204.068 283.879Z" stroke="#2E8C61" stroke-width="0.647" stroke-linecap="round" stroke-linejoin="round"/>
<path d="M303.088 312.194H231.405C229.977 312.192 228.609 311.626 227.6 310.619C226.591 309.611 226.024 308.246 226.023 306.822C226.028 305.401 226.596 304.039 227.605 303.035C228.613 302.03 229.98 301.466 231.405 301.464H303.088C304.514 301.464 305.882 302.029 306.891 303.035C307.899 304.041 308.466 305.406 308.466 306.829C308.466 308.252 307.899 309.616 306.891 310.622C305.882 311.629 304.514 312.194 303.088 312.194Z" stroke="#2E8C61" stroke-width="0.647" stroke-linecap="round" stroke-linejoin="round"/>
<path d="M498.519 312.194H332.775C331.348 312.192 329.979 311.626 328.97 310.619C327.96 309.612 327.392 308.247 327.391 306.822C327.397 305.401 327.966 304.039 328.975 303.035C329.984 302.031 331.35 301.466 332.775 301.464H498.519C499.946 301.464 501.313 302.029 502.322 303.035C503.331 304.041 503.897 305.406 503.897 306.829C503.897 308.252 503.331 309.616 502.322 310.622C501.313 311.629 499.946 312.194 498.519 312.194Z" stroke="#2E8C61" stroke-width="0.647" stroke-linecap="round" stroke-linejoin="round"/>
<path d="M204.068 306.824C204.067 307.613 203.832 308.384 203.393 309.039C202.953 309.695 202.328 310.206 201.598 310.507C200.867 310.809 200.064 310.887 199.288 310.733C198.513 310.579 197.801 310.2 197.242 309.642C196.682 309.084 196.302 308.374 196.147 307.6C195.993 306.827 196.072 306.025 196.374 305.296C196.676 304.567 197.188 303.944 197.845 303.506C198.503 303.067 199.275 302.833 200.066 302.832C200.591 302.832 201.112 302.935 201.598 303.135C202.084 303.336 202.525 303.63 202.897 304C203.268 304.371 203.563 304.811 203.764 305.296C203.965 305.781 204.068 306.3 204.068 306.824Z" stroke="#2E8C61" stroke-width="0.647" stroke-linecap="round" stroke-linejoin="round"/>
<path d="M128.251 194.662H127.876H127.489C123.608 194.465 119.959 192.763 117.319 189.919C114.679 187.075 113.257 183.315 113.356 179.441C113.456 175.566 115.069 171.883 117.851 169.178C120.634 166.473 124.366 164.959 128.251 164.96" stroke="#2E8C61" stroke-width="0.971" stroke-linecap="round" stroke-linejoin="round"/>
<path d="M107.094 194.643H128.247H127.872C123.966 194.756 120.261 196.397 117.556 199.211C114.851 202.024 113.362 205.786 113.411 209.684C113.46 213.582 115.043 217.305 117.818 220.05C120.594 222.795 124.339 224.342 128.247 224.358" stroke="#2E8C61" stroke-width="0.971" stroke-linecap="round" stroke-linejoin="round"/>
<path d="M154.988 194.662H155.376H155.751C159.631 194.465 163.28 192.763 165.92 189.919C168.56 187.075 169.982 183.315 169.883 179.441C169.783 175.566 168.17 171.883 165.388 169.178C162.605 166.473 158.874 164.959 154.988 164.96" stroke="#2E8C61" stroke-width="0.971" stroke-linecap="round" stroke-linejoin="round"/>
<path d="M176.142 194.643H154.988H155.376C159.283 194.757 162.989 196.398 165.694 199.213C168.399 202.028 169.886 205.791 169.835 209.69C169.785 213.59 168.199 217.313 165.422 220.057C162.644 222.8 158.897 224.345 154.988 224.358" stroke="#2E8C61" stroke-width="0.971" stroke-linecap="round" stroke-linejoin="round"/>
<path d="M567.016 128.196L595.411 111.849L567.016 95.4902" stroke="#2E8C61" stroke-width="0.971" stroke-linecap="round" stroke-linejoin="round"/>
<path d="M537.875 95.4902L509.48 111.849L537.875 128.196" stroke="#2E8C61" stroke-width="0.971" stroke-linecap="round" stroke-linejoin="round"/>
<path d="M560.536 88.0986L543.562 135.359" stroke="#2E8C61" stroke-width="0.647" stroke-linecap="round" stroke-linejoin="round"/>
<path d="M535.398 358.132L539.998 344.203L550.909 311.152L561.83 344.203L566.429 358.132" stroke="#2E8C61" stroke-width="0.971" stroke-linecap="round" stroke-linejoin="round"/>
<path d="M539.992 344.202H561.824" stroke="#2E8C61" stroke-width="0.971" stroke-linecap="round" stroke-linejoin="round"/>
<path d="M590.048 350.021C587.051 356.434 581.437 360.155 577.529 358.341C573.621 356.527 572.891 349.844 575.888 343.422C578.886 337 584.49 333.288 588.408 335.103C589.612 335.841 590.581 336.907 591.199 338.175C591.818 339.443 592.061 340.861 591.899 342.262C591.851 344.952 591.219 347.599 590.048 350.021Z" stroke="#2E8C61" stroke-width="0.647" stroke-linecap="round" stroke-linejoin="round"/>
<path d="M591.897 342.169V342.262C592.472 347.904 589.012 362.762 598.034 356.714" stroke="#2E8C61" stroke-width="0.647" stroke-linecap="round" stroke-linejoin="round"/>
</svg>
