<svg width="674" height="509" viewBox="0 0 674 509" fill="none" xmlns="http://www.w3.org/2000/svg">
<path d="M184.978 110.671H341.991C345.906 110.671 349.66 112.226 352.429 114.994C355.196 117.763 356.752 121.517 356.752 125.432V345.53C356.752 347.468 356.371 349.387 355.628 351.179C354.888 352.968 353.8 354.595 352.429 355.966C351.058 357.337 349.431 358.424 347.642 359.165C345.851 359.907 343.931 360.289 341.994 360.289H184.98C183.041 360.289 181.122 359.907 179.331 359.165C177.54 358.424 175.913 357.337 174.542 355.966C173.171 354.595 172.084 352.968 171.342 351.176C170.601 349.385 170.219 347.465 170.219 345.528V125.432C170.219 123.494 170.6 121.574 171.342 119.783C172.083 117.993 173.17 116.365 174.541 114.994C175.911 113.624 177.538 112.536 179.329 111.795C181.12 111.053 183.039 110.671 184.978 110.671Z" fill="black"/>
<path fill-rule="evenodd" clip-rule="evenodd" d="M350.082 127.596C350.066 125.002 349.021 122.52 347.175 120.696C345.331 118.873 342.836 117.856 340.242 117.871L285.087 117.937C282.866 122.222 282.969 122.32 282.368 122.322L249.119 122.475C248.623 122.61 248.639 122.366 245.778 117.93L186.731 117.866C185.447 117.859 184.173 118.104 182.984 118.588C181.794 119.073 180.711 119.787 179.798 120.69C178.884 121.594 178.158 122.668 177.66 123.852C177.161 125.036 176.901 126.307 176.895 127.591V342.361C176.901 343.645 177.161 344.915 177.66 346.099C178.158 347.285 178.884 348.359 179.798 349.262C180.711 350.164 181.794 350.879 182.984 351.364C184.173 351.848 185.447 352.093 186.731 352.086H340.242C341.526 352.093 342.802 351.848 343.99 351.364C345.18 350.879 346.263 350.164 347.175 349.262C348.089 348.359 348.816 347.285 349.316 346.099C349.814 344.915 350.075 343.645 350.082 342.361V127.596Z" fill="white"/>
<path d="M307.548 194.482H219.427C216.665 194.511 213.924 193.992 211.364 192.955C208.803 191.918 206.474 190.383 204.51 188.44C202.547 186.497 200.988 184.183 199.924 181.634C198.86 179.084 198.312 176.349 198.312 173.587C198.312 170.824 198.86 168.089 199.924 165.54C200.988 162.99 202.547 160.677 204.51 158.734C206.474 156.791 208.803 155.256 211.364 154.219C213.924 153.182 216.665 152.663 219.427 152.692H307.548C310.311 152.663 313.051 153.182 315.612 154.219C318.171 155.256 320.502 156.791 322.465 158.734C324.43 160.677 325.988 162.99 327.051 165.54C328.116 168.089 328.664 170.824 328.664 173.587C328.664 176.349 328.116 179.084 327.051 181.634C325.988 184.183 324.43 186.497 322.465 188.44C320.502 190.383 318.171 191.918 315.612 192.955C313.051 193.992 310.311 194.511 307.548 194.482ZM219.427 154.179C214.316 154.235 209.434 156.304 205.84 159.937C202.245 163.571 200.229 168.476 200.229 173.587C200.229 178.698 202.245 183.603 205.84 187.236C209.434 190.87 214.316 192.939 219.427 192.994H307.548C312.66 192.939 317.541 190.87 321.135 187.236C324.732 183.603 326.747 178.698 326.747 173.587C326.747 168.476 324.732 163.571 321.135 159.937C317.541 156.304 312.66 154.235 307.548 154.179H219.427Z" fill="black"/>
<path d="M307.548 249.999H219.427C216.665 250.028 213.924 249.507 211.364 248.472C208.803 247.435 206.474 245.899 204.51 243.957C202.547 242.012 200.988 239.7 199.924 237.15C198.86 234.6 198.312 231.865 198.312 229.104C198.312 226.341 198.86 223.606 199.924 221.056C200.988 218.507 202.547 216.194 204.51 214.25C206.474 212.307 208.803 210.773 211.364 209.735C213.924 208.699 216.665 208.179 219.427 208.208H307.548C310.311 208.179 313.051 208.699 315.612 209.735C318.171 210.773 320.502 212.307 322.465 214.25C324.43 216.194 325.988 218.507 327.051 221.056C328.116 223.606 328.664 226.341 328.664 229.104C328.664 231.865 328.116 234.6 327.051 237.15C325.988 239.7 324.43 242.012 322.465 243.957C320.502 245.899 318.171 247.435 315.612 248.472C313.051 249.507 310.311 250.028 307.548 249.999ZM219.427 209.696C214.316 209.751 209.434 211.82 205.84 215.454C202.245 219.088 200.229 223.992 200.229 229.104C200.229 234.214 202.245 239.12 205.84 242.753C209.434 246.386 214.316 248.456 219.427 248.511H307.548C312.66 248.456 317.541 246.386 321.135 242.753C324.732 239.12 326.747 234.214 326.747 229.104C326.747 223.992 324.732 219.088 321.135 215.454C317.541 211.82 312.66 209.751 307.548 209.696H219.427Z" fill="black"/>
<path fill-rule="evenodd" clip-rule="evenodd" d="M262.299 275.929C280.661 275.929 295.566 280.942 295.566 287.125C295.566 293.308 280.661 298.322 262.299 298.322C243.936 298.322 229.031 293.308 229.031 287.125C229.031 280.942 243.939 275.929 262.299 275.929Z" fill="#81F889"/>
<path d="M262.304 299.049C243.231 299.049 228.289 293.809 228.289 287.117C228.289 280.424 243.231 275.187 262.304 275.187C281.376 275.187 296.314 280.426 296.314 287.117C296.314 293.807 281.386 299.049 262.304 299.049ZM262.304 276.674C242.847 276.674 229.779 282.074 229.779 287.117C229.779 292.16 242.847 297.561 262.304 297.561C281.76 297.561 294.824 292.16 294.824 287.117C294.824 282.074 281.756 276.674 262.304 276.674Z" fill="black"/>
<path d="M232.046 178.727L224.697 173.7L232.046 168.673C232.209 168.562 232.321 168.39 232.357 168.195C232.393 168.001 232.351 167.8 232.239 167.637C232.127 167.474 231.955 167.362 231.761 167.326C231.567 167.29 231.366 167.332 231.203 167.444L224.119 172.293V163.699C224.109 163.508 224.026 163.329 223.887 163.197C223.748 163.066 223.564 162.993 223.373 162.993C223.182 162.993 222.998 163.066 222.86 163.197C222.721 163.329 222.638 163.508 222.627 163.699V172.288L215.544 167.44C215.463 167.384 215.372 167.345 215.276 167.325C215.181 167.304 215.082 167.303 214.985 167.321C214.889 167.339 214.797 167.375 214.715 167.428C214.633 167.482 214.562 167.551 214.506 167.631C214.451 167.712 214.412 167.803 214.391 167.899C214.371 167.995 214.37 168.094 214.387 168.19C214.405 168.286 214.442 168.378 214.495 168.46C214.549 168.543 214.618 168.613 214.698 168.669L222.047 173.696L214.698 178.723C214.568 178.814 214.471 178.943 214.419 179.093C214.368 179.243 214.366 179.406 214.413 179.557C214.46 179.708 214.554 179.841 214.681 179.935C214.808 180.03 214.962 180.081 215.121 180.082C215.452 180.082 214.929 180.373 222.62 175.103V183.684C222.631 183.874 222.714 184.054 222.853 184.185C222.992 184.316 223.175 184.389 223.366 184.389C223.557 184.389 223.741 184.316 223.88 184.185C224.019 184.054 224.102 183.874 224.112 183.684V175.108C231.82 180.389 231.278 180.087 231.612 180.087C231.772 180.09 231.929 180.041 232.059 179.948C232.189 179.854 232.286 179.721 232.335 179.569C232.384 179.416 232.382 179.252 232.33 179.1C232.278 178.949 232.178 178.818 232.046 178.727Z" fill="black"/>
<path d="M232.042 233.231L224.694 228.204L232.042 223.177C232.205 223.065 232.317 222.894 232.353 222.699C232.389 222.505 232.347 222.304 232.235 222.141C232.123 221.978 231.951 221.866 231.757 221.83C231.563 221.794 231.362 221.836 231.199 221.948L224.115 226.797V218.203C224.105 218.012 224.022 217.833 223.883 217.701C223.744 217.57 223.56 217.497 223.369 217.497C223.178 217.497 222.995 217.57 222.856 217.701C222.717 217.833 222.634 218.012 222.623 218.203V226.783L215.54 221.934C215.377 221.822 215.176 221.779 214.981 221.815C214.787 221.851 214.615 221.963 214.502 222.126C214.39 222.289 214.348 222.49 214.384 222.685C214.419 222.879 214.531 223.051 214.694 223.164L222.043 228.191L214.694 233.218C214.565 233.309 214.467 233.439 214.416 233.588C214.364 233.739 214.362 233.901 214.409 234.052C214.456 234.202 214.55 234.335 214.677 234.431C214.805 234.525 214.959 234.575 215.117 234.577C215.448 234.577 214.925 234.867 222.616 229.598V238.178C222.627 238.368 222.71 238.549 222.849 238.679C222.988 238.811 223.171 238.884 223.363 238.884C223.554 238.884 223.737 238.811 223.876 238.679C224.015 238.549 224.098 238.368 224.109 238.178V229.598C231.816 234.879 231.274 234.577 231.608 234.577C231.764 234.575 231.917 234.525 232.043 234.433C232.169 234.34 232.263 234.209 232.311 234.061C232.359 233.912 232.359 233.752 232.311 233.604C232.262 233.453 232.168 233.323 232.042 233.231Z" fill="black"/>
<path d="M257.993 178.727L250.644 173.7L257.993 168.673C258.156 168.562 258.268 168.39 258.304 168.195C258.34 168.001 258.298 167.8 258.186 167.637C258.074 167.474 257.902 167.362 257.708 167.326C257.514 167.29 257.313 167.332 257.15 167.444L250.08 172.288V163.699C250.08 163.501 250.002 163.312 249.862 163.172C249.722 163.032 249.533 162.954 249.335 162.954C249.138 162.954 248.948 163.032 248.808 163.172C248.669 163.312 248.59 163.501 248.59 163.699V172.288L241.507 167.44C241.344 167.328 241.143 167.285 240.949 167.321C240.754 167.358 240.582 167.47 240.471 167.633C240.359 167.796 240.316 167.996 240.352 168.191C240.389 168.385 240.501 168.557 240.664 168.669L248.012 173.696L240.664 178.723C240.534 178.814 240.436 178.943 240.385 179.094C240.333 179.243 240.331 179.406 240.378 179.557C240.425 179.708 240.519 179.841 240.646 179.935C240.774 180.03 240.928 180.081 241.086 180.082C241.415 180.082 240.894 180.373 248.586 175.103V183.684C248.586 183.881 248.664 184.071 248.804 184.21C248.944 184.35 249.133 184.429 249.331 184.429C249.528 184.429 249.718 184.35 249.857 184.21C249.997 184.071 250.076 183.881 250.076 183.684V175.108C257.783 180.389 257.244 180.087 257.575 180.087C257.733 180.085 257.886 180.033 258.013 179.938C258.14 179.843 258.233 179.711 258.279 179.56C258.326 179.408 258.323 179.246 258.272 179.097C258.22 178.947 258.123 178.818 257.993 178.727Z" fill="black"/>
<path d="M257.991 233.231L250.643 228.204L257.991 223.177C258.154 223.066 258.266 222.894 258.302 222.699C258.338 222.505 258.296 222.304 258.184 222.141C258.072 221.978 257.9 221.866 257.706 221.83C257.512 221.794 257.311 221.836 257.148 221.948L250.064 226.797V218.203C250.064 218.005 249.986 217.816 249.846 217.676C249.707 217.536 249.517 217.458 249.32 217.458C249.122 217.458 248.932 217.536 248.793 217.676C248.653 217.816 248.575 218.005 248.575 218.203V226.783L241.491 221.934C241.41 221.879 241.32 221.84 241.224 221.82C241.128 221.8 241.029 221.798 240.933 221.816C240.837 221.834 240.745 221.871 240.663 221.924C240.581 221.978 240.51 222.047 240.455 222.127C240.4 222.208 240.361 222.299 240.34 222.395C240.32 222.49 240.319 222.589 240.337 222.685C240.355 222.782 240.391 222.873 240.445 222.955C240.498 223.038 240.567 223.108 240.648 223.164L247.997 228.191L240.648 233.218C240.518 233.309 240.42 233.439 240.369 233.588C240.318 233.739 240.316 233.901 240.363 234.052C240.41 234.202 240.504 234.335 240.631 234.431C240.758 234.525 240.912 234.577 241.071 234.577C241.4 234.577 240.879 234.867 248.57 229.598V238.178C248.57 238.375 248.648 238.565 248.788 238.706C248.928 238.846 249.117 238.923 249.315 238.923C249.513 238.923 249.702 238.846 249.842 238.706C249.982 238.565 250.06 238.375 250.06 238.178V229.598C257.767 234.879 257.228 234.577 257.559 234.577C257.715 234.575 257.866 234.522 257.991 234.429C258.115 234.337 258.208 234.207 258.256 234.059C258.303 233.91 258.303 233.75 258.256 233.602C258.208 233.455 258.116 233.325 257.991 233.231Z" fill="black"/>
<path d="M283.94 178.727L276.592 173.7L283.94 168.673C284.02 168.618 284.091 168.547 284.144 168.465C284.196 168.383 284.233 168.291 284.251 168.195C284.269 168.099 284.267 168 284.249 167.905C284.228 167.809 284.19 167.718 284.135 167.637C284.078 167.557 284.007 167.488 283.924 167.434C283.844 167.381 283.751 167.344 283.655 167.326C283.559 167.308 283.461 167.309 283.365 167.33C283.269 167.35 283.177 167.389 283.097 167.444L276.014 172.293V163.699C276.002 163.508 275.92 163.329 275.781 163.197C275.644 163.066 275.459 162.993 275.267 162.993C275.077 162.993 274.892 163.066 274.755 163.197C274.615 163.329 274.533 163.508 274.522 163.699V172.288L267.438 167.44C267.358 167.384 267.267 167.345 267.171 167.325C267.075 167.304 266.976 167.303 266.88 167.321C266.783 167.339 266.691 167.375 266.609 167.428C266.527 167.482 266.456 167.551 266.401 167.631C266.345 167.712 266.306 167.803 266.286 167.899C266.266 167.995 266.264 168.094 266.282 168.19C266.3 168.286 266.336 168.378 266.39 168.46C266.443 168.543 266.512 168.613 266.593 168.669L273.941 173.696L266.593 178.723C266.463 178.814 266.365 178.943 266.314 179.093C266.263 179.243 266.26 179.406 266.307 179.557C266.354 179.708 266.448 179.841 266.576 179.935C266.703 180.03 266.857 180.081 267.015 180.082C267.344 180.082 266.824 180.373 274.515 175.103V183.684C274.526 183.874 274.609 184.054 274.748 184.185C274.885 184.316 275.07 184.389 275.262 184.389C275.452 184.389 275.637 184.316 275.774 184.185C275.913 184.054 275.996 183.874 276.007 183.684V175.108C283.714 180.389 283.173 180.087 283.506 180.087C283.666 180.09 283.824 180.041 283.954 179.948C284.084 179.854 284.18 179.721 284.228 179.569C284.279 179.416 284.276 179.252 284.224 179.1C284.171 178.949 284.073 178.818 283.94 178.727Z" fill="black"/>
<path d="M283.941 233.231L276.592 228.204L283.941 223.177C284.02 223.122 284.091 223.051 284.144 222.969C284.196 222.887 284.233 222.795 284.251 222.699C284.27 222.603 284.267 222.504 284.249 222.408C284.228 222.313 284.19 222.222 284.135 222.141C284.078 222.06 284.007 221.991 283.925 221.938C283.845 221.885 283.751 221.848 283.655 221.83C283.559 221.812 283.461 221.813 283.365 221.834C283.269 221.854 283.177 221.893 283.097 221.948L276.014 226.797V218.203C276.002 218.012 275.92 217.833 275.781 217.701C275.644 217.57 275.459 217.497 275.269 217.497C275.077 217.497 274.892 217.57 274.755 217.701C274.615 217.833 274.533 218.012 274.522 218.203V226.783L267.438 221.934C267.275 221.822 267.074 221.779 266.88 221.815C266.685 221.851 266.513 221.963 266.401 222.126C266.289 222.289 266.246 222.49 266.282 222.685C266.318 222.879 266.43 223.051 266.593 223.164L273.941 228.191L266.593 233.218C266.463 233.309 266.365 233.439 266.314 233.588C266.263 233.739 266.26 233.901 266.307 234.052C266.354 234.202 266.448 234.335 266.576 234.431C266.703 234.525 266.857 234.575 267.016 234.577C267.345 234.577 266.824 234.867 274.515 229.598V238.178C274.526 238.368 274.609 238.549 274.748 238.679C274.885 238.811 275.07 238.884 275.262 238.884C275.452 238.884 275.637 238.811 275.774 238.679C275.913 238.549 275.996 238.368 276.007 238.178V229.598C283.714 234.879 283.173 234.577 283.506 234.577C283.664 234.575 283.815 234.525 283.941 234.433C284.068 234.34 284.162 234.209 284.21 234.061C284.258 233.912 284.258 233.752 284.21 233.604C284.16 233.453 284.066 233.323 283.941 233.231Z" fill="black"/>
<path d="M309.89 178.727L302.542 173.7L309.89 168.673C310.053 168.562 310.165 168.39 310.201 168.195C310.238 168.001 310.194 167.8 310.085 167.637C309.973 167.474 309.799 167.362 309.605 167.326C309.411 167.29 309.209 167.332 309.047 167.444L301.964 172.293V163.699C301.964 163.501 301.886 163.312 301.747 163.172C301.605 163.032 301.415 162.954 301.219 162.954C301.022 162.954 300.833 163.032 300.691 163.172C300.552 163.312 300.474 163.501 300.474 163.699V172.288L293.39 167.44C293.228 167.328 293.027 167.285 292.833 167.321C292.639 167.358 292.465 167.47 292.355 167.633C292.243 167.796 292.2 167.996 292.236 168.191C292.273 168.385 292.385 168.557 292.547 168.669L299.896 173.696L292.547 178.723C292.417 178.813 292.316 178.942 292.264 179.092C292.211 179.243 292.209 179.406 292.257 179.558C292.303 179.71 292.399 179.843 292.527 179.937C292.655 180.031 292.808 180.082 292.968 180.082C293.299 180.082 292.778 180.373 300.469 175.103V183.684C300.469 183.881 300.547 184.071 300.686 184.21C300.828 184.35 301.018 184.429 301.214 184.429C301.411 184.429 301.6 184.35 301.742 184.21C301.881 184.071 301.959 183.881 301.959 183.684V175.108C309.666 180.389 309.127 180.087 309.458 180.087C309.618 180.088 309.774 180.038 309.902 179.944C310.03 179.85 310.126 179.718 310.174 179.566C310.222 179.414 310.222 179.251 310.169 179.1C310.119 178.949 310.021 178.819 309.89 178.727Z" fill="black"/>
<path d="M310.089 238.983H293.598C293.409 238.971 293.23 238.889 293.098 238.752C292.968 238.612 292.895 238.43 292.895 238.238C292.895 238.048 292.968 237.865 293.098 237.726C293.23 237.589 293.409 237.507 293.598 237.495H310.089C310.279 237.507 310.457 237.589 310.59 237.726C310.72 237.865 310.793 238.048 310.793 238.238C310.793 238.43 310.72 238.612 310.59 238.752C310.457 238.889 310.279 238.971 310.089 238.983Z" fill="black"/>
<path fill-rule="evenodd" clip-rule="evenodd" d="M170.965 287.204C175.649 281.133 177.557 275.861 182.575 276.665C187.659 277.483 193.011 286.125 188.655 296.751C184.3 307.376 183.375 306.805 180.736 315.926C178.909 322.802 177.542 329.789 176.643 336.845C182.915 343.87 188.51 351.472 193.353 359.547L221.735 359.775C231.463 381.298 220.394 411.563 220.394 411.563C222.999 437.511 222.921 437.088 223.065 437.523C203.027 445.858 180.895 447.766 159.725 442.986C159.725 442.986 162.595 426.022 162.785 417.942C162.974 409.863 150.77 376.177 146.694 367.131C142.617 358.085 134.601 344.61 136.605 333.155C138.609 321.7 149.362 306.745 149.362 306.745C149.362 306.745 156.124 295.994 160.534 289.564C163.289 285.613 166.764 282.216 170.777 279.551L170.965 287.204Z" fill="white"/>
<path d="M221.148 411.647C222.008 409.198 231.778 380.192 222.41 359.462C222.352 359.332 222.258 359.223 222.139 359.145C222.021 359.067 221.882 359.026 221.74 359.024L193.733 358.795C188.969 350.921 183.511 343.488 177.423 336.585C178.313 329.682 179.659 322.848 181.451 316.123C184.065 307.081 184.965 307.698 189.343 297.023C193.859 286.002 188.315 276.823 182.692 275.921C177.665 275.112 175.428 279.734 171.655 285.008L171.523 279.524C171.52 279.391 171.482 279.264 171.413 279.152C171.344 279.04 171.247 278.946 171.131 278.884C171.015 278.82 170.884 278.791 170.752 278.795C170.621 278.797 170.492 278.836 170.38 278.907C166.272 281.619 162.719 285.09 159.913 289.135C155.544 295.503 148.792 306.233 148.748 306.302C148.307 306.919 137.874 321.527 135.865 333.018C134.152 342.809 139.46 353.789 143.726 362.609C150.254 376.118 162.216 410.125 162.033 417.906C161.846 425.839 159.01 442.673 158.983 442.844C158.961 443.034 159.014 443.224 159.128 443.377C159.243 443.528 159.412 443.63 159.599 443.662C159.787 443.694 159.98 443.653 160.138 443.546C160.296 443.441 160.408 443.276 160.45 443.091C160.479 442.922 163.331 425.983 163.523 417.942C163.717 409.607 151.23 375.387 147.363 366.809C143.118 357.381 135.383 344.388 137.332 333.265C139.281 322.142 149.854 307.312 149.982 307.125C150.053 307.017 156.789 296.312 161.14 289.966C163.588 286.477 166.6 283.42 170.051 280.918L170.197 286.948C167.552 290.334 165.242 293.97 163.299 297.802C160.484 303.041 161.364 300.928 158.745 306.144C155.413 312.771 154.074 315.494 142.581 325.756C142.442 325.889 142.36 326.069 142.351 326.261C142.342 326.453 142.407 326.641 142.533 326.785C142.659 326.929 142.836 327.02 143.027 327.038C143.218 327.054 143.409 326.997 143.559 326.878C147.263 323.631 150.777 320.174 154.084 316.525C156.476 313.548 158.489 310.285 160.075 306.811C162.666 301.654 161.779 303.77 164.613 298.508C166.591 294.603 168.956 290.908 171.671 287.476C171.959 289.032 172.73 290.46 173.874 291.555C175.019 292.647 176.478 293.353 178.046 293.572C182.422 294.029 186.675 289.039 189.097 285.346C191.368 295.087 184.026 301.826 180.005 315.702C178.172 322.617 176.798 329.643 175.892 336.738C175.879 336.846 175.89 336.955 175.923 337.058C175.957 337.163 176.012 337.257 176.086 337.337C176.34 337.611 201.678 365.045 205.791 393.596C205.805 393.692 205.838 393.785 205.888 393.87C205.937 393.952 206.003 394.025 206.082 394.085C206.16 394.144 206.249 394.185 206.343 394.21C206.438 394.233 206.536 394.24 206.633 394.226C206.73 394.21 206.823 394.178 206.906 394.128C206.99 394.078 207.064 394.014 207.122 393.934C207.181 393.856 207.223 393.767 207.247 393.673C207.271 393.577 207.276 393.479 207.262 393.383C205.176 381.65 200.881 370.417 194.606 360.285L221.228 360.493C230.368 381.462 219.782 410.991 219.675 411.286C219.581 411.531 219.62 411.286 222.238 437.564C222.258 437.76 222.356 437.941 222.509 438.066C222.662 438.19 222.858 438.249 223.055 438.231C223.252 438.21 223.432 438.112 223.557 437.959C223.682 437.806 223.741 437.609 223.721 437.413L221.148 411.647ZM178.222 292.103C173.821 291.63 173.031 286.998 172.901 285.84C176.488 280.813 178.423 276.755 182.454 277.401C183.888 277.838 185.192 278.621 186.252 279.679C187.312 280.74 188.095 282.044 188.532 283.477C187.579 285.054 182.779 292.576 178.222 292.103Z" fill="black"/>
<path fill-rule="evenodd" clip-rule="evenodd" d="M444.596 421.908C436.669 444.633 390.862 445.574 390.862 445.574C386.118 441.262 380.7 437.759 374.823 435.2C365.912 431.59 341.266 416.102 331.024 405.136C316.738 389.843 322.59 384.763 309.954 358.219C307.482 353.029 299.672 336.445 305.281 331.806C310.891 327.168 321.005 326.574 333.638 355.929C333.638 355.929 331.657 342.863 330.046 335.444C328.435 328.025 320.081 313.433 317.202 303.415C314.323 293.398 311.972 291.293 309.79 283.954C307.608 276.614 304.557 261.54 309.762 255.176C314.968 248.813 321.889 252.409 324.807 261.145C327.725 269.88 330.976 283.268 335.268 288.611C342.877 298.068 346.133 312.169 350.828 317.63C350.828 317.63 359.532 316.78 363.508 316.259C367.484 315.738 376.784 313.369 383.264 320.128C383.264 320.128 393.859 323.299 397.102 328.173C397.102 328.173 401.199 328.966 405.641 337.487C410.083 346.008 435.869 412.768 444.596 421.908Z" fill="white"/>
<path d="M445.133 421.392C436.528 412.378 410.767 345.722 406.302 337.151C402.397 329.663 398.665 327.911 397.564 327.541C394.269 322.934 385.14 319.941 383.666 319.479C377.611 313.31 369.305 314.619 364.82 315.318C361.902 315.775 354.656 316.506 351.16 316.851C349.211 314.091 347.605 311.102 346.378 307.954C334.379 279.078 336.781 297.717 327.657 267.754C326.918 265.325 326.206 262.985 325.513 260.899C322.506 251.893 314.922 247.68 309.187 254.693C302.997 262.26 308.008 280.563 309.075 284.155C311.152 291.141 313.741 294.052 316.485 303.61C319.396 313.735 327.73 328.256 329.322 335.6C330.252 339.889 331.317 346.136 332.041 350.592C325.883 337.691 319.702 330.417 313.636 328.95C312.089 328.594 310.48 328.615 308.942 329.012C307.407 329.41 305.988 330.173 304.809 331.235C300.696 334.636 302.149 343.574 309.283 358.546C321.779 384.823 316.053 390.209 330.478 405.649C341.042 416.957 366.051 432.452 374.545 435.895C380.333 438.427 385.67 441.88 390.352 446.121C390.496 446.246 390.686 446.313 390.878 446.303C391.07 446.294 391.25 446.212 391.383 446.073C391.515 445.933 391.589 445.746 391.589 445.554C391.586 445.362 391.511 445.177 391.376 445.04C386.571 440.655 381.073 437.1 375.102 434.515C366.714 431.113 342.002 415.803 331.568 404.632C317.575 389.654 323.219 384.357 310.626 357.904C306.15 348.508 304.391 342.418 304.084 338.481C306.093 342.16 309.671 347.15 313.681 345.967C319.734 344.169 319.195 337.741 316.732 331.948C320.879 334.642 326.345 341.07 332.626 355.45C335.158 360.614 336.945 366.111 337.934 371.776C338.595 377.987 337.519 380.324 337.489 380.381C337.443 380.468 337.416 380.564 337.409 380.66C337.4 380.758 337.411 380.857 337.441 380.95C337.471 381.044 337.519 381.131 337.58 381.206C337.644 381.279 337.722 381.341 337.809 381.387C337.896 381.432 337.992 381.46 338.088 381.467C338.186 381.476 338.284 381.464 338.378 381.435C338.471 381.405 338.558 381.357 338.634 381.295C338.707 381.231 338.768 381.154 338.814 381.067C338.869 380.962 340.139 378.421 339.417 371.623C338.469 366.114 336.769 360.76 334.368 355.712C334.171 354.428 332.311 342.288 330.785 335.291C329.213 329.983 327.172 324.824 324.686 319.877C315.562 299.803 319.168 303.905 313.583 291.632C312.361 289.084 311.335 286.449 310.512 283.746C307.722 274.353 305.986 261.561 310.105 255.965C310.791 259.61 312.98 268.176 318.357 268.176C320.945 268.176 323.432 266.485 324.442 262.4C327.254 271.083 330.447 283.806 334.697 289.082C342.674 298.999 345.495 313.506 351.027 318.851C367.292 334.562 365.389 336.806 366.817 336.806C366.945 336.806 367.068 336.772 367.18 336.71C367.29 336.649 367.384 336.56 367.45 336.45C367.516 336.342 367.555 336.219 367.559 336.093C367.566 335.965 367.539 335.84 367.482 335.725C364.785 330.379 355.773 321.378 352.517 318.218C356.363 317.834 362.206 317.24 365.06 316.794C369.607 316.081 377.211 314.893 382.736 320.656C382.826 320.747 382.935 320.816 383.059 320.855C383.164 320.884 393.435 324.003 396.49 328.599C396.597 328.756 396.759 328.868 396.947 328.914C396.988 328.914 400.809 329.844 404.979 337.844C409.398 346.323 435.209 413.162 444.052 422.428C444.189 422.571 444.379 422.654 444.575 422.658C444.774 422.663 444.966 422.587 445.11 422.45C445.254 422.313 445.336 422.124 445.341 421.927C445.345 421.728 445.27 421.536 445.133 421.392ZM313.247 344.539C309.541 345.645 305.538 338.461 304.196 335.351C304.343 334.206 304.896 333.15 305.755 332.38C306.916 331.306 308.36 330.587 309.916 330.308C311.47 330.027 313.074 330.198 314.536 330.801C317.173 335.913 318.882 342.868 313.247 344.539ZM318.375 266.68C314.045 266.68 311.908 258.296 311.364 254.549C315.843 250.397 320.749 253.71 323.322 259.395C322.837 262.962 322.106 266.68 318.375 266.68Z" fill="black"/>
<path d="M112.26 405.237C100.662 394.215 45.6093 333.815 79.3336 244.588L88.9672 247.787C89.0655 247.819 89.1697 247.831 89.2727 247.822C89.3758 247.812 89.4758 247.78 89.5661 247.73C89.6564 247.678 89.7352 247.609 89.7973 247.527C89.8595 247.445 89.9036 247.349 89.9269 247.248L97.3623 214.979C97.3945 214.839 97.3854 214.692 97.336 214.557C97.2867 214.422 97.1991 214.304 97.084 214.217C96.969 214.13 96.8313 214.079 96.6875 214.069C96.544 214.059 96.4005 214.091 96.2746 214.161C84.3901 220.912 73.0396 228.564 62.3218 237.045C62.2209 237.128 62.1437 237.237 62.098 237.361C62.0523 237.482 62.0397 237.614 62.0615 237.745C62.0833 237.873 62.1387 237.994 62.2221 238.094C62.3055 238.195 62.4139 238.273 62.5366 238.318L69.8646 241.037C48.2508 310.044 59.3536 364.553 104.953 412.371C109.763 417.417 117.24 409.972 112.26 405.237Z" fill="black"/>
<path d="M474.65 193.882C474.339 193.358 474.357 193.514 466.184 193.616C461.502 121.452 431.525 74.5931 371.768 46.4031C371.025 46.0539 370.209 45.8864 369.389 45.9141C368.567 45.942 367.764 46.1643 367.047 46.563C366.206 47.0182 365.511 47.7023 365.043 48.5363C364.575 49.3701 364.353 50.3196 364.401 51.2747C364.451 52.2298 364.769 53.1514 365.322 53.9326C365.872 54.7138 366.633 55.323 367.518 55.6893C382.217 62.0119 455.41 98.3274 456.071 193.717L445.934 194.201C445.832 194.207 445.729 194.234 445.637 194.28C445.544 194.327 445.461 194.392 445.397 194.472C445.331 194.552 445.281 194.645 445.253 194.745C445.226 194.844 445.219 194.949 445.233 195.051L449.913 227.832C449.933 227.975 449.992 228.109 450.088 228.217C450.182 228.326 450.306 228.405 450.445 228.444C450.582 228.484 450.731 228.482 450.868 228.44C451.005 228.397 451.128 228.315 451.22 228.205C459.877 217.627 467.713 206.403 474.657 194.629C474.723 194.515 474.755 194.385 474.755 194.254C474.753 194.123 474.716 193.994 474.65 193.882Z" fill="black"/>
<path fill-rule="evenodd" clip-rule="evenodd" d="M222.445 69.9594L217.365 74.8493C215.959 74.6855 214.637 74.0935 213.579 73.1534C212.521 72.2134 211.778 70.9708 211.449 69.5938L241.714 38.543C243.174 38.7642 244.553 39.3564 245.719 40.2631C246.885 41.1696 247.798 42.3601 248.373 43.7208L236.093 56.3088L239.765 60.4995L236.566 63.6231L232.54 60.0768L230.346 62.4943L236.529 69.5778L229.341 76.6339L222.445 69.9594Z" fill="white"/>
<path d="M249.048 43.4147C248.424 41.9452 247.436 40.6592 246.176 39.6785C244.917 38.6975 243.428 38.0543 241.85 37.8096C241.73 37.7858 241.606 37.7931 241.489 37.8306C241.372 37.8683 241.267 37.935 241.183 38.0244L210.914 69.0707C210.822 69.1653 210.757 69.2827 210.725 69.4107C210.693 69.5389 210.696 69.673 210.733 69.7996C211.1 71.3125 211.92 72.6773 213.084 73.7113C214.248 74.7452 215.7 75.3992 217.246 75.5852C217.757 75.6674 217.593 75.6629 222.442 70.9946L228.828 77.1641C228.968 77.2992 229.154 77.3746 229.348 77.3746C229.542 77.3746 229.728 77.2992 229.868 77.1641L237.052 70.1126C237.188 69.9794 237.267 69.7993 237.274 69.6092C237.281 69.4193 237.214 69.2338 237.088 69.0912L231.344 62.5036L232.596 61.1211L236.072 64.183C236.212 64.308 236.395 64.3745 236.583 64.3695C236.771 64.3645 236.95 64.2879 237.084 64.1556L240.283 61.032C240.42 60.899 240.5 60.7185 240.507 60.528C240.514 60.3374 240.448 60.1514 240.322 60.0083L237.104 56.3364L248.902 44.2396C249.007 44.1329 249.076 43.9969 249.103 43.8497C249.129 43.7026 249.11 43.5511 249.048 43.4147ZM235.567 55.7948C235.436 55.9289 235.361 56.1076 235.356 56.295C235.351 56.4821 235.417 56.6645 235.542 56.8048L238.741 60.4608L236.545 62.6087L233.039 59.5194C232.892 59.3909 232.701 59.3251 232.506 59.3356C232.311 59.3464 232.128 59.4328 231.995 59.5765L229.802 61.994C229.68 62.1302 229.613 62.3064 229.613 62.4887C229.613 62.6713 229.68 62.8475 229.802 62.9834L235.514 69.5414L229.345 75.5943L223.522 69.9641L227.912 65.8077C228.056 65.6719 228.139 65.4848 228.145 65.2872C228.15 65.0897 228.077 64.898 227.942 64.7543C227.806 64.6108 227.619 64.5269 227.421 64.5215C227.223 64.5157 227.032 64.5889 226.888 64.7246L218.543 72.6901C218.432 71.4987 217.888 70.3891 217.015 69.5706C216.143 68.7519 215.001 68.2807 213.804 68.2458L241.962 39.3542C243.146 39.5805 244.26 40.0797 245.216 40.8123C246.173 41.5451 246.945 42.4909 247.472 43.5746L235.567 55.7948Z" fill="black"/>
<path d="M258.882 33.6025C258.334 33.6025 259.25 34.5965 247.768 18.5924C247.662 18.4315 247.622 18.2357 247.657 18.046C247.692 17.8564 247.799 17.6877 247.956 17.5755C248.113 17.4633 248.307 17.4164 248.498 17.4445C248.689 17.4726 248.861 17.5737 248.979 17.7264L259.49 32.4258C259.57 32.5373 259.617 32.6684 259.626 32.8048C259.636 32.9415 259.608 33.0779 259.545 33.1995C259.482 33.321 259.387 33.4229 259.27 33.494C259.153 33.5653 259.019 33.6028 258.882 33.6025Z" fill="black"/>
<path d="M272.17 33.6024C272.026 33.6022 271.884 33.5604 271.765 33.482C271.644 33.4034 271.548 33.2917 271.491 33.1603C271.432 33.0289 271.413 32.8831 271.434 32.741C271.457 32.5989 271.521 32.4663 271.617 32.3594L287.061 15.2059C287.196 15.0687 287.379 14.9887 287.571 14.9828C287.763 14.9768 287.95 15.0453 288.092 15.1739C288.233 15.3025 288.322 15.4813 288.336 15.6729C288.35 15.8645 288.29 16.0542 288.167 16.2022C272.364 33.7807 272.698 33.6024 272.17 33.6024Z" fill="black"/>
<path d="M264.78 27.351L264.668 11.4246C264.668 11.227 264.746 11.0376 264.886 10.8979C265.026 10.7582 265.215 10.6797 265.413 10.6797C265.611 10.6797 265.8 10.7582 265.94 10.8979C266.079 11.0376 266.158 11.227 266.158 11.4246L266.27 27.3442C266.271 27.5418 266.193 27.7315 266.054 27.872C265.915 28.0123 265.726 28.0916 265.528 28.0925C265.331 28.0934 265.141 28.0157 265 27.8768C264.86 27.7376 264.781 27.5487 264.78 27.351Z" fill="black"/>
<path fill-rule="evenodd" clip-rule="evenodd" d="M283.78 44.8516L300.26 58.5204L294.547 65.3754L278.879 52.4789L283.78 44.8516Z" fill="white"/>
<path d="M300.381 57.652L284.742 44.6824C282.556 41.7439 275.118 50.6782 278.004 53.0569L293.382 65.8118C288.901 73.0072 288.126 80.2187 291.824 83.0612C298.679 88.3167 313.595 75.034 315.974 62.7978C317.941 52.6319 309.683 49.8282 300.381 57.652ZM309.089 64.8886C306.468 73.7133 294.008 82.7116 296.661 73.8001C299.248 65.028 311.735 55.936 309.089 64.8932V64.8886ZM280.131 52.8855C282.419 51.5001 284.13 49.3353 284.948 46.7891L299.252 58.6529C297.356 60.4285 295.662 62.4089 294.202 64.5573L280.131 52.8855Z" fill="black"/>
<path fill-rule="evenodd" clip-rule="evenodd" d="M452.032 313.715L423.854 284.17L406.414 287.581L391.754 271.129L420.888 244.925L436.039 261.77L430.583 278.071L478.915 328.549C478.646 333.233 476.299 335.175 472.433 335.114L469.944 332.504L464.159 338.034L459.166 332.806L464.956 327.276L460.93 323.054L451.479 332.082L442.568 322.759L452.032 313.715Z" fill="#81F889"/>
<path d="M406.557 283.094C406.052 283.094 406.786 283.806 396.814 271.611C396.691 271.463 396.631 271.271 396.647 271.079C396.663 270.887 396.752 270.709 396.898 270.581L412.404 256.967C412.553 256.841 412.747 256.777 412.941 256.791C413.136 256.805 413.318 256.896 413.446 257.042C413.577 257.191 413.643 257.383 413.631 257.577C413.62 257.771 413.531 257.956 413.387 258.086L398.42 271.225L407.133 281.876C407.222 281.985 407.279 282.118 407.297 282.257C407.313 282.397 407.291 282.538 407.231 282.666C407.169 282.794 407.076 282.902 406.957 282.977C406.836 283.055 406.699 283.094 406.557 283.094Z" fill="black"/>
<path d="M479.454 328.025L431.43 277.874C437.198 260.641 437.001 261.724 436.592 261.265L421.443 244.42C421.379 244.346 421.299 244.287 421.21 244.246C421.123 244.202 421.027 244.177 420.928 244.173C420.83 244.168 420.734 244.182 420.641 244.214C420.549 244.246 420.465 244.296 420.391 244.362L391.255 270.567C391.182 270.631 391.123 270.711 391.082 270.798C391.038 270.887 391.016 270.983 391.009 271.079C391.004 271.177 391.018 271.275 391.05 271.367C391.084 271.458 391.134 271.542 391.198 271.616C406.997 289.356 405.932 288.424 406.556 288.312L423.595 284.978L450.978 313.692L442.067 322.212C441.996 322.279 441.939 322.361 441.9 322.45C441.859 322.539 441.839 322.635 441.836 322.733C441.834 322.832 441.85 322.93 441.886 323.021C441.921 323.113 441.973 323.195 442.042 323.266C451.753 333.413 451.033 332.815 451.467 332.819C451.902 332.824 451.239 333.345 460.911 324.097L463.912 327.244L458.656 332.271C458.585 332.337 458.528 332.419 458.487 332.509C458.448 332.598 458.428 332.696 458.425 332.792C458.423 332.89 458.439 332.988 458.476 333.08C458.512 333.171 458.565 333.253 458.633 333.324C463.994 338.941 463.711 338.779 464.163 338.779C464.577 338.779 464.234 339.007 469.926 333.562C472.17 335.913 471.957 335.863 472.608 335.863C476.95 335.863 479.388 333.349 479.664 328.592C479.671 328.489 479.655 328.384 479.619 328.286C479.582 328.19 479.527 328.101 479.454 328.025ZM464.184 336.973L460.219 332.824L464.759 328.482L468.722 332.63L464.184 336.973ZM423.511 283.479L406.693 286.77L392.807 271.179L420.837 245.969L435.201 261.939L429.945 277.641L423.511 283.479ZM424.92 284.208L430.551 279.101L432.762 281.411L427.025 286.416L424.92 284.208ZM451.506 331.021L443.63 322.774L452.011 314.777L459.881 323.03L451.506 331.021ZM472.757 334.364L428.055 287.494L433.793 282.488L478.149 328.811C477.85 332.543 476.127 334.316 472.752 334.364H472.757Z" fill="black"/>
<path fill-rule="evenodd" clip-rule="evenodd" d="M126.882 126.863L117.306 121.288C117.306 121.288 125.506 104.943 126.713 97.8434C127.919 90.7439 122.614 87.5221 115.391 85.4153C113.532 84.7431 111.487 84.8086 109.675 85.5981C107.863 86.3878 106.423 87.8418 105.65 89.6608L98.1093 105.544L85.2539 100.179C85.2539 100.179 94.7024 82.6368 99.2884 77.8634C111.833 64.8023 139.228 79.616 138.186 97.5989C137.544 108.567 126.882 126.863 126.882 126.863Z" fill="white"/>
<path fill-rule="evenodd" clip-rule="evenodd" d="M77.8704 108.204C77.8704 108.204 101.89 108.165 130.297 130.076L112.931 167.742C112.931 167.742 109.467 172.518 100.496 171.581C91.5256 170.644 71.7237 162.989 62.6843 154.884C53.6448 146.779 77.8704 108.204 77.8704 108.204Z" fill="#81F889"/>
<path d="M106.745 169.405C93.046 161.312 78.4002 154.942 63.1401 150.439C62.9555 150.382 62.8005 150.255 62.708 150.085C62.6155 149.915 62.5926 149.716 62.6442 149.53C62.6959 149.343 62.818 149.184 62.9847 149.086C63.1514 148.988 63.3498 148.959 63.5377 149.004C78.9203 153.544 93.6839 159.964 107.494 168.118C107.647 168.226 107.754 168.387 107.794 168.57C107.834 168.753 107.804 168.944 107.709 169.106C107.615 169.267 107.464 169.388 107.285 169.443C107.107 169.498 106.914 169.485 106.745 169.405Z" fill="black"/>
<path d="M99.9282 126.92C98.8634 126.268 97.6069 126.002 96.3691 126.165C95.1313 126.329 93.9872 126.912 93.1283 127.818C92.2691 128.725 91.7475 129.898 91.6501 131.143C91.5528 132.388 91.8857 133.628 92.5934 134.657L88.2313 144.939C88.1929 145.029 88.1728 145.126 88.1719 145.224C88.171 145.321 88.1895 145.419 88.2263 145.509C88.2629 145.6 88.3172 145.682 88.386 145.752C88.4546 145.822 88.5364 145.877 88.6266 145.915C89.9611 146.623 91.3625 147.196 92.8105 147.626C92.9569 147.626 93.1002 147.582 93.2222 147.501C93.344 147.42 93.4393 147.304 93.496 147.169L97.8375 136.958C98.9468 136.799 99.9803 136.303 100.798 135.536C101.615 134.769 102.176 133.769 102.404 132.672C102.633 131.575 102.518 130.434 102.075 129.405C101.631 128.376 100.882 127.508 99.9282 126.92Z" fill="black"/>
<path d="M98.742 77.347C94.1423 82.1455 84.9795 99.1048 84.591 99.8268C82.7356 103.275 97.1083 109.783 98.758 105.877L106.351 89.935C107.042 88.2771 108.351 86.9529 110.001 86.2429C111.651 85.533 113.513 85.4926 115.192 86.1305C123.715 88.6166 126.944 92.0715 125.986 97.7178C124.956 103.803 118.56 117.069 116.995 120.257C95.0289 107.621 78.1153 107.461 77.8777 107.461C77.7518 107.461 77.628 107.493 77.5178 107.554C77.4075 107.614 77.3145 107.702 77.247 107.808C76.2462 109.408 52.7975 147.014 62.1935 155.439C71.6191 163.903 91.5717 171.398 100.41 172.321C107.233 173.031 111.993 170.429 113.599 168.052L130.965 130.389C131.037 130.233 131.054 130.058 131.012 129.891C130.971 129.725 130.873 129.578 130.737 129.475C129.67 128.66 128.617 127.873 127.576 127.114C128.552 125.423 138.289 108.325 138.908 97.6378C140.009 78.9145 111.741 63.8198 98.742 77.347ZM129.361 130.304L112.315 167.301C112.178 167.481 108.933 171.713 100.556 170.84C92.1018 169.958 72.2543 162.472 63.1714 154.331C56.2182 148.1 71.5003 119.827 78.2662 108.96C81.5154 109.09 103.703 110.697 129.37 130.304H129.361ZM137.427 97.5555C136.847 107.564 127.586 124.107 126.363 126.255C123.61 124.313 120.904 122.572 118.267 121C119.787 117.917 126.345 104.388 127.437 97.96C128.842 89.6723 121.843 86.5167 115.587 84.691C113.558 83.9888 111.339 84.0777 109.373 84.94C107.406 85.8024 105.838 87.3749 104.98 89.3432L98.2165 103.583C95.2145 100.584 91.2057 98.8075 86.9674 98.5975C89.5563 93.9132 96.2514 82.0952 99.8206 78.3798C111.767 65.9357 138.448 80.0661 137.427 97.5555Z" fill="black"/>
</svg>
