<svg width="653" height="400" viewBox="0 0 653 400" fill="none" xmlns="http://www.w3.org/2000/svg">
<path d="M43.4216 158.42C43.2897 158.422 43.1588 158.397 43.0367 158.348C42.9145 158.298 42.8035 158.224 42.7103 158.131C42.617 158.038 42.5434 157.927 42.4938 157.805C42.4443 157.683 42.4197 157.552 42.4216 157.42L42.4616 154.2C42.4668 153.938 42.5745 153.689 42.7614 153.506C42.9484 153.322 43.1998 153.22 43.4616 153.22C43.7286 153.225 43.9829 153.335 44.1699 153.526C44.3569 153.716 44.4616 153.973 44.4616 154.24L44.4216 156.4H46.2216C46.4856 156.399 46.7397 156.5 46.9301 156.683C47.1205 156.866 47.2322 157.116 47.2416 157.38C47.2416 157.645 47.1362 157.899 46.9487 158.087C46.7611 158.274 46.5068 158.38 46.2416 158.38L43.4216 158.42ZM52.0416 158.32C51.7763 158.322 51.5209 158.22 51.3315 158.034C51.1421 157.848 51.0342 157.595 51.0316 157.33C51.0289 157.065 51.1317 156.809 51.3174 156.62C51.503 156.43 51.7563 156.322 52.0216 156.32L58.0416 156.26C58.239 156.259 58.4323 156.316 58.5973 156.424C58.7622 156.533 58.8913 156.688 58.9683 156.87C59.0452 157.052 59.0667 157.252 59.0299 157.446C58.9931 157.64 58.8998 157.819 58.7616 157.96C58.3616 158.36 58.6836 158.286 52.0416 158.32ZM63.8416 158.2C63.5763 158.202 63.3209 158.1 63.1315 157.914C62.9421 157.728 62.8342 157.475 62.8316 157.21C62.8289 156.945 62.9317 156.689 63.1174 156.5C63.303 156.31 63.5563 156.202 63.8216 156.2L69.8416 156.12C70.1087 156.12 70.3651 156.224 70.5558 156.411C70.7466 156.598 70.8563 156.853 70.8616 157.12C70.8616 157.385 70.7562 157.639 70.5687 157.827C70.3811 158.014 70.1268 158.12 69.8616 158.12L63.8416 158.2ZM75.6416 158.06C75.3763 158.06 75.122 157.954 74.9345 157.767C74.7469 157.579 74.6416 157.325 74.6416 157.06C74.6416 156.795 74.7469 156.54 74.9345 156.353C75.122 156.165 75.3763 156.06 75.6416 156.06L81.6616 156C81.9268 155.997 82.1822 156.1 82.3716 156.286C82.561 156.471 82.6689 156.725 82.6716 156.99C82.6742 157.255 82.5714 157.51 82.3857 157.7C82.2001 157.889 81.9468 157.997 81.6816 158L75.6416 158.06ZM42.8216 149.14C42.4396 148.756 42.5776 149.108 42.6216 142.4C42.6281 142.206 42.6909 142.018 42.8025 141.859C42.914 141.7 43.0694 141.577 43.2496 141.505C43.4299 141.433 43.6272 141.415 43.8175 141.453C44.0079 141.491 44.183 141.584 44.3216 141.72C44.7216 142.12 44.7216 141.812 44.5416 148.44C44.5428 148.64 44.4841 148.835 44.373 149.001C44.262 149.168 44.1037 149.297 43.9185 149.372C43.7334 149.447 43.53 149.466 43.3344 149.424C43.1389 149.383 42.9603 149.284 42.8216 149.14ZM43.7016 137.62C43.4345 137.62 43.178 137.515 42.9873 137.328C42.7966 137.141 42.6868 136.887 42.6816 136.62L42.7816 130.58C42.7821 130.32 42.8855 130.071 43.0692 129.887C43.2529 129.704 43.5018 129.6 43.7616 129.6C44.0318 129.601 44.2906 129.709 44.4816 129.9C44.6727 130.091 44.7805 130.35 44.7816 130.62L44.6816 136.64C44.681 136.9 44.5776 137.149 44.3939 137.332C44.2103 137.516 43.9613 137.619 43.7016 137.62ZM29.4216 134.62C29.2915 134.619 29.1629 134.592 29.0431 134.541C28.9234 134.49 28.8149 134.416 28.7238 134.323C28.6328 134.23 28.561 134.12 28.5125 134C28.4641 133.879 28.44 133.75 28.4416 133.62L28.3816 127.74C28.3833 127.482 28.4828 127.235 28.66 127.049C28.8371 126.862 29.0785 126.75 29.3354 126.735C29.5923 126.719 29.8453 126.802 30.0433 126.967C30.2413 127.131 30.3693 127.365 30.4016 127.62V133.1C30.5018 133.261 30.5542 133.447 30.5527 133.636C30.5512 133.826 30.4959 134.011 30.3932 134.17C30.2905 134.33 30.1446 134.456 29.9726 134.536C29.8006 134.616 29.6095 134.645 29.4216 134.62ZM35.3616 134.44C35.1007 134.437 34.8511 134.333 34.6647 134.151C34.4784 133.968 34.3698 133.721 34.3616 133.46C34.3561 133.198 34.4536 132.944 34.6331 132.754C34.8127 132.563 35.0598 132.45 35.3216 132.44L41.3816 132.26C41.5129 132.258 41.6432 132.283 41.765 132.332C41.8868 132.381 41.9978 132.454 42.0916 132.546C42.1854 132.638 42.2601 132.747 42.3116 132.868C42.3631 132.989 42.3902 133.118 42.3916 133.25C42.3929 133.381 42.3683 133.511 42.3193 133.633C42.2702 133.755 42.1977 133.866 42.1057 133.96C42.0138 134.054 41.9043 134.128 41.7835 134.18C41.6627 134.231 41.5329 134.258 41.4016 134.26L35.3616 134.44ZM47.1816 134.08C46.9163 134.085 46.6599 133.985 46.4686 133.801C46.2773 133.617 46.1669 133.365 46.1616 133.1C46.1563 132.835 46.2565 132.578 46.4403 132.387C46.6241 132.196 46.8763 132.085 47.1416 132.08L53.1816 131.9C53.4468 131.897 53.7022 132 53.8916 132.186C54.081 132.371 54.1889 132.625 54.1916 132.89C54.1942 133.155 54.0914 133.41 53.9057 133.6C53.7201 133.789 53.4668 133.897 53.2016 133.9L47.1816 134.08ZM53.1216 128.02V123.5C52.972 123.436 52.8403 123.336 52.7379 123.21C52.6355 123.083 52.5655 122.934 52.534 122.774C52.5025 122.615 52.5104 122.45 52.557 122.294C52.6036 122.138 52.6876 121.996 52.8016 121.88C53.1776 121.54 53.4016 121.58 54.1016 121.58C54.2333 121.578 54.3641 121.603 54.4861 121.653C54.6082 121.702 54.7191 121.776 54.8123 121.869C54.9054 121.962 54.979 122.073 55.0287 122.195C55.0784 122.317 55.1032 122.448 55.1016 122.58V128C55.0701 128.239 54.9535 128.458 54.7732 128.618C54.5929 128.777 54.3611 128.867 54.1202 128.869C53.8794 128.871 53.6458 128.787 53.4623 128.631C53.2789 128.475 53.1579 128.258 53.1216 128.02ZM43.8416 125.82C43.575 125.813 43.3216 125.703 43.1349 125.512C42.9482 125.322 42.843 125.066 42.8416 124.8L42.8816 122.62C42.8815 122.358 42.9841 122.107 43.1673 121.92C43.3506 121.733 43.5998 121.625 43.8616 121.62H47.7216C47.917 121.621 48.1079 121.679 48.2707 121.787C48.4336 121.895 48.5612 122.048 48.6377 122.228C48.7143 122.408 48.7366 122.606 48.7017 122.798C48.6668 122.99 48.5764 123.168 48.4416 123.31C48.0116 123.738 47.8596 123.62 44.8616 123.62L44.8416 124.81C44.8451 124.943 44.8217 125.075 44.7728 125.198C44.724 125.322 44.6506 125.434 44.5572 125.528C44.4637 125.623 44.3522 125.697 44.2292 125.747C44.1062 125.797 43.9743 125.822 43.8416 125.82ZM28.3416 121.94C28.3076 115.276 28.1796 115.646 28.5616 115.22C28.7088 115.095 28.8873 115.013 29.0778 114.982C29.2683 114.951 29.4637 114.973 29.6427 115.045C29.8218 115.117 29.9778 115.236 30.0939 115.391C30.21 115.545 30.2818 115.728 30.3016 115.92V121.92C30.3029 122.048 30.2788 122.176 30.2308 122.296C30.1828 122.415 30.1117 122.524 30.0216 122.616C29.9315 122.708 29.8242 122.781 29.7058 122.831C29.5874 122.882 29.4603 122.908 29.3316 122.91C29.2029 122.911 29.0752 122.887 28.9558 122.839C28.8364 122.791 28.7276 122.72 28.6357 122.63C28.5437 122.54 28.4704 122.432 28.42 122.314C28.3695 122.196 28.3429 122.069 28.3416 121.94ZM29.2416 111.12C28.9754 111.122 28.7188 111.021 28.525 110.838C28.3313 110.656 28.2155 110.406 28.2016 110.14C28.2016 103.486 28.0996 103.8 28.4616 103.4C28.6063 103.277 28.782 103.196 28.9696 103.166C29.1572 103.137 29.3494 103.159 29.525 103.231C29.7006 103.304 29.8529 103.423 29.9652 103.576C30.0775 103.729 30.1454 103.911 30.1616 104.1L30.2216 110.12C30.2216 110.382 30.119 110.633 29.9358 110.82C29.7525 111.007 29.5033 111.115 29.2416 111.12ZM28.1216 98.3198L28.1016 96.0798C28.1015 95.818 28.2041 95.5666 28.3874 95.3797C28.5706 95.1927 28.8198 95.085 29.0816 95.0798L32.8616 94.9998C33.0607 94.9946 33.2569 95.049 33.4249 95.156C33.5929 95.2629 33.7251 95.4177 33.8047 95.6003C33.8842 95.783 33.9073 95.9852 33.8711 96.1811C33.8349 96.377 33.7411 96.5576 33.6016 96.6998C33.1916 97.0698 33.1876 96.9938 30.1016 97.0598L30.1216 98.2998C30.1229 98.4311 30.0983 98.5614 30.0493 98.6832C30.0002 98.8051 29.9277 98.916 29.8357 99.0098C29.6501 99.1992 29.3968 99.3071 29.1316 99.3098C28.8663 99.3125 28.6109 99.2096 28.4215 99.024C28.2321 98.8383 28.1242 98.585 28.1216 98.3198ZM38.6816 96.8998C38.5502 96.9024 38.4197 96.8792 38.2974 96.8313C38.175 96.7835 38.0633 96.712 37.9686 96.621C37.8739 96.53 37.798 96.4213 37.7453 96.301C37.6927 96.1806 37.6642 96.0511 37.6616 95.9198C37.6589 95.7885 37.6822 95.6579 37.73 95.5356C37.7779 95.4133 37.8493 95.3016 37.9403 95.2068C38.0313 95.1121 38.1401 95.0363 38.2604 94.9836C38.3807 94.9309 38.5102 94.9024 38.6416 94.8998L44.6616 94.7798C44.9268 94.7745 45.1832 94.8748 45.3745 95.0586C45.5658 95.2423 45.6763 95.4946 45.6816 95.7598C45.6869 96.025 45.5866 96.2815 45.4028 96.4728C45.219 96.6641 44.9668 96.7745 44.7016 96.7798L38.6816 96.8998ZM50.5016 96.6798C50.3702 96.6824 50.2397 96.6592 50.1174 96.6113C49.995 96.5635 49.8833 96.4921 49.7886 96.4011C49.6939 96.3101 49.618 96.2013 49.5653 96.081C49.5127 95.9606 49.4842 95.8311 49.4816 95.6998C49.4789 95.5685 49.5022 95.4379 49.55 95.3156C49.5979 95.1933 49.6693 95.0816 49.7603 94.9868C49.8513 94.8921 49.9601 94.8163 50.0804 94.7636C50.2007 94.7109 50.3302 94.6824 50.4616 94.6798L52.4816 94.6398V92.4998C52.4948 92.2346 52.6129 91.9855 52.8098 91.8073C53.0067 91.6292 53.2663 91.5365 53.5316 91.5498C53.7968 91.5631 54.0459 91.6811 54.224 91.8781C54.4022 92.075 54.4948 92.3346 54.4816 92.5998V95.6198C54.4786 95.8807 54.375 96.1303 54.1924 96.3166C54.0098 96.503 53.7623 96.6116 53.5016 96.6198L50.5016 96.6798ZM52.4816 86.7998V80.7998C52.4816 80.5346 52.5869 80.2802 52.7745 80.0927C52.962 79.9052 53.2163 79.7998 53.4816 79.7998C53.7468 79.7998 54.0011 79.9052 54.1887 80.0927C54.3762 80.2802 54.4816 80.5346 54.4816 80.7998V86.8198C54.4789 87.085 54.371 87.3383 54.1816 87.524C53.9922 87.7096 53.7368 87.8125 53.4716 87.8098C53.2063 87.8071 52.953 87.6992 52.7674 87.5098C52.5817 87.3204 52.4789 87.065 52.4816 86.7998Z" fill="black"/>
<path d="M30.7403 322.96C30.6077 322.962 30.4761 322.937 30.353 322.887C30.23 322.838 30.1179 322.764 30.0232 322.672C29.9285 322.579 29.853 322.468 29.801 322.346C29.7491 322.224 29.7216 322.093 29.7203 321.96C29.719 321.828 29.7438 321.696 29.7934 321.573C29.8429 321.45 29.9162 321.338 30.0091 321.243C30.1019 321.149 30.2125 321.073 30.3346 321.021C30.4566 320.969 30.5877 320.942 30.7203 320.94L47.2003 320.72C47.4655 320.715 47.722 320.815 47.9133 320.999C48.1046 321.183 48.215 321.435 48.2203 321.7C48.2256 321.966 48.1253 322.222 47.9416 322.413C47.7578 322.605 47.5055 322.715 47.2403 322.72L30.7403 322.96ZM63.1003 322.5C62.8351 322.503 62.5797 322.4 62.3903 322.215C62.2009 322.029 62.093 321.776 62.0903 321.51C62.0877 321.245 62.1905 320.99 62.3761 320.8C62.5618 320.611 62.8151 320.503 63.0803 320.5L67.3203 320.44C67.5855 320.435 67.842 320.535 68.0333 320.719C68.2246 320.903 68.335 321.155 68.3403 321.42C68.3456 321.686 68.2453 321.942 68.0616 322.133C67.8778 322.325 67.6255 322.435 67.3603 322.44L63.1003 322.5ZM27.5603 310.3C27.2968 310.298 27.045 310.191 26.8597 310.004C26.6743 309.817 26.5703 309.564 26.5703 309.3V292.8C26.5703 292.535 26.6757 292.281 26.8632 292.093C27.0507 291.906 27.3051 291.8 27.5703 291.8C27.8355 291.8 28.0899 291.906 28.2774 292.093C28.465 292.281 28.5703 292.535 28.5703 292.8V309.3C28.5672 309.566 28.4594 309.82 28.2704 310.007C28.0814 310.195 27.8263 310.3 27.5603 310.3ZM27.5803 277.94C27.3139 277.933 27.0608 277.823 26.8742 277.632C26.6877 277.442 26.5823 277.187 26.5803 276.92V270.34C26.5803 270.075 26.6857 269.821 26.8732 269.633C27.0607 269.446 27.3151 269.34 27.5803 269.34L37.4603 269.24C37.6594 269.235 37.8556 269.289 38.0236 269.396C38.1917 269.503 38.3239 269.658 38.4034 269.841C38.4829 270.024 38.5061 270.226 38.4699 270.422C38.4337 270.618 38.3398 270.798 38.2003 270.94C37.7783 271.362 38.1663 271.234 28.5803 271.32V276.94C28.5803 277.206 28.475 277.46 28.2874 277.647C28.0999 277.835 27.8455 277.94 27.5803 277.94ZM53.3603 271.1C53.0951 271.103 52.8397 271 52.6503 270.815C52.4609 270.629 52.353 270.376 52.3503 270.11C52.3477 269.845 52.4505 269.59 52.6361 269.4C52.8218 269.211 53.0751 269.103 53.3403 269.1L69.8403 268.94C70.1055 268.938 70.3609 269.041 70.5503 269.226C70.7398 269.412 70.8477 269.665 70.8503 269.93C70.853 270.196 70.7502 270.451 70.5645 270.64C70.3788 270.83 70.1255 270.938 69.8603 270.94L53.3603 271.1ZM74.5203 259.9L74.1803 243.38C74.1777 243.249 74.2009 243.118 74.2487 242.996C74.2965 242.874 74.368 242.762 74.459 242.667C74.55 242.573 74.6588 242.497 74.7791 242.444C74.8995 242.391 75.029 242.363 75.1603 242.36C75.4243 242.359 75.6785 242.461 75.8689 242.644C76.0593 242.827 76.171 243.076 76.1803 243.34L76.5203 259.86C76.5256 260.126 76.4253 260.382 76.2416 260.573C76.0578 260.765 75.8055 260.875 75.5403 260.88C75.409 260.883 75.2784 260.86 75.1561 260.812C75.0338 260.764 74.9221 260.693 74.8273 260.602C74.6361 260.418 74.5256 260.166 74.5203 259.9ZM99.3803 236.34H82.9003C82.6351 236.34 82.3807 236.235 82.1932 236.047C82.0057 235.86 81.9003 235.606 81.9003 235.34C81.9003 235.075 82.0057 234.821 82.1932 234.633C82.3807 234.446 82.6351 234.34 82.9003 234.34H99.3803C99.6455 234.34 99.8999 234.446 100.087 234.633C100.275 234.821 100.38 235.075 100.38 235.34C100.38 235.606 100.275 235.86 100.087 236.047C99.8999 236.235 99.6455 236.34 99.3803 236.34ZM107.24 228.26C106.975 228.26 106.721 228.155 106.533 227.967C106.346 227.78 106.24 227.526 106.24 227.26C106.28 220.24 106.32 214.82 106.36 210.74C106.36 209.684 108.3 209.28 108.3 210.76V227.28C108.285 227.549 108.166 227.801 107.968 227.984C107.77 228.167 107.509 228.266 107.24 228.26Z" fill="black"/>
<path d="M174.02 210.02C173.765 210.015 173.522 209.913 173.34 209.734C173.157 209.556 173.05 209.315 173.04 209.06C173.04 209.06 172.96 207.38 172.96 207.36C172.955 207.095 173.055 206.838 173.239 206.647C173.423 206.456 173.675 206.345 173.94 206.34C174.205 206.334 174.462 206.435 174.653 206.619C174.844 206.802 174.955 207.055 174.96 207.32L174.98 208L178.38 207.96C178.51 207.958 178.64 207.982 178.76 208.03C178.881 208.079 178.991 208.15 179.084 208.241C179.177 208.333 179.251 208.441 179.302 208.561C179.353 208.681 179.379 208.81 179.38 208.94C179.384 209.07 179.361 209.2 179.313 209.322C179.265 209.443 179.194 209.554 179.102 209.648C179.011 209.741 178.901 209.815 178.781 209.865C178.66 209.915 178.531 209.941 178.4 209.94L174.02 210.02ZM184.2 209.84C183.936 209.841 183.682 209.739 183.492 209.556C183.301 209.374 183.19 209.124 183.18 208.86C183.18 208.598 183.283 208.347 183.466 208.16C183.649 207.973 183.898 207.865 184.16 207.86L190.18 207.74C190.447 207.74 190.704 207.844 190.894 208.031C191.085 208.218 191.195 208.473 191.2 208.74C191.202 208.87 191.179 208.999 191.13 209.12C191.082 209.241 191.01 209.351 190.919 209.445C190.828 209.538 190.719 209.612 190.599 209.662C190.479 209.713 190.35 209.739 190.22 209.74L184.2 209.84ZM196 209.66C195.732 209.662 195.474 209.559 195.283 209.371C195.092 209.183 194.983 208.928 194.98 208.66C194.978 208.392 195.081 208.134 195.269 207.943C195.456 207.751 195.712 207.642 195.98 207.64L197.12 207.62L197.08 204.74C197.08 204.473 197.185 204.216 197.372 204.025C197.559 203.835 197.813 203.725 198.08 203.72C198.345 203.72 198.6 203.825 198.787 204.013C198.975 204.2 199.08 204.455 199.08 204.72L199.12 208.6C199.122 208.864 199.021 209.119 198.838 209.309C198.655 209.5 198.404 209.611 198.14 209.62C195.26 209.688 196.2 209.66 196 209.66ZM172.72 201.62L172.46 195.56C172.455 195.295 172.555 195.038 172.739 194.847C172.923 194.656 173.175 194.545 173.44 194.54C173.705 194.534 173.962 194.635 174.153 194.819C174.344 195.002 174.455 195.255 174.46 195.52L174.72 201.54C174.725 201.671 174.705 201.802 174.659 201.926C174.614 202.049 174.545 202.162 174.456 202.259C174.366 202.355 174.259 202.433 174.14 202.488C174.021 202.543 173.892 202.575 173.76 202.58C173.629 202.585 173.498 202.564 173.374 202.519C173.251 202.474 173.138 202.404 173.041 202.315C172.945 202.226 172.867 202.119 172.812 201.999C172.757 201.88 172.725 201.751 172.72 201.62ZM197.04 198.94L196.98 192.92C196.98 192.655 197.086 192.4 197.273 192.213C197.461 192.025 197.715 191.92 197.98 191.92C198.11 191.918 198.239 191.942 198.36 191.991C198.481 192.039 198.591 192.111 198.684 192.202C198.777 192.293 198.851 192.402 198.902 192.521C198.952 192.641 198.979 192.77 198.98 192.9C199.012 199.3 199.166 199.214 198.74 199.64C198.6 199.777 198.424 199.87 198.231 199.907C198.039 199.945 197.84 199.925 197.659 199.85C197.478 199.776 197.323 199.65 197.213 199.488C197.103 199.326 197.043 199.135 197.04 198.94ZM172.22 189.82L171.98 183.76C171.975 183.495 172.075 183.238 172.259 183.047C172.443 182.856 172.695 182.745 172.96 182.74C173.225 182.734 173.482 182.835 173.673 183.019C173.864 183.202 173.975 183.455 173.98 183.72L174.22 189.74C174.226 189.871 174.205 190.002 174.16 190.126C174.114 190.249 174.045 190.362 173.956 190.459C173.867 190.555 173.759 190.633 173.64 190.689C173.521 190.744 173.392 190.775 173.26 190.78C173.129 190.785 172.998 190.765 172.874 190.719C172.751 190.674 172.638 190.605 172.541 190.515C172.445 190.426 172.366 190.319 172.311 190.2C172.256 190.08 172.225 189.951 172.22 189.82ZM196.94 187.14L196.88 181.12C196.879 180.988 196.903 180.858 196.953 180.736C197.002 180.615 197.074 180.504 197.166 180.41C197.258 180.316 197.367 180.241 197.488 180.19C197.609 180.138 197.739 180.111 197.87 180.11C198.002 180.108 198.132 180.133 198.254 180.182C198.375 180.231 198.486 180.304 198.58 180.396C198.674 180.488 198.749 180.597 198.8 180.718C198.852 180.839 198.879 180.968 198.88 181.1C198.91 187.214 199.08 187.43 198.64 187.82C198.502 187.956 198.327 188.049 198.136 188.087C197.946 188.125 197.748 188.107 197.568 188.035C197.388 187.963 197.233 187.84 197.121 187.681C197.01 187.522 196.947 187.334 196.94 187.14ZM171.74 178.02L171.48 171.96C171.475 171.695 171.575 171.438 171.759 171.247C171.943 171.056 172.195 170.945 172.46 170.94C172.725 170.934 172.982 171.035 173.173 171.219C173.364 171.402 173.475 171.655 173.48 171.92L173.74 177.94C173.743 178.203 173.646 178.457 173.467 178.651C173.289 178.844 173.043 178.962 172.78 178.98C172.649 178.985 172.518 178.965 172.394 178.919C172.271 178.874 172.158 178.805 172.061 178.715C171.965 178.626 171.886 178.519 171.831 178.4C171.776 178.28 171.745 178.151 171.74 178.02ZM197.84 176.32C197.575 176.32 197.321 176.214 197.133 176.027C196.946 175.839 196.84 175.585 196.84 175.32C196.81 169.228 196.652 169.008 197.06 168.6C197.203 168.472 197.379 168.387 197.568 168.354C197.757 168.321 197.951 168.34 198.129 168.411C198.308 168.481 198.463 168.6 198.578 168.753C198.693 168.907 198.763 169.089 198.78 169.28L198.84 175.3C198.842 175.567 198.738 175.825 198.55 176.016C198.363 176.207 198.108 176.316 197.84 176.32ZM171.24 166.22L171.1 162.88L170.36 162.9C170.161 162.905 169.965 162.851 169.797 162.744C169.629 162.637 169.497 162.482 169.417 162.299C169.338 162.117 169.314 161.914 169.351 161.718C169.387 161.523 169.481 161.342 169.62 161.2C170.004 160.816 170.22 160.89 172.04 160.88C172.302 160.874 172.556 160.972 172.746 161.151C172.937 161.331 173.05 161.578 173.06 161.84L173.24 166.14C173.251 166.405 173.156 166.664 172.976 166.859C172.796 167.054 172.545 167.169 172.28 167.18C172.015 167.19 171.756 167.095 171.561 166.915C171.366 166.735 171.251 166.485 171.24 166.22ZM196.74 163.52L196.68 157.5C196.678 157.368 196.701 157.238 196.749 157.116C196.796 156.993 196.868 156.881 196.959 156.787C197.05 156.692 197.159 156.616 197.279 156.563C197.399 156.511 197.529 156.482 197.66 156.48C197.93 156.475 198.191 156.578 198.386 156.766C198.581 156.953 198.694 157.21 198.7 157.48C198.7 164.126 198.792 163.848 198.44 164.2C198.302 164.336 198.127 164.429 197.936 164.467C197.746 164.505 197.548 164.487 197.368 164.415C197.188 164.343 197.033 164.22 196.921 164.061C196.81 163.902 196.747 163.714 196.74 163.52ZM134.92 163.28C134.789 163.281 134.659 163.257 134.537 163.207C134.415 163.158 134.304 163.086 134.21 162.994C134.116 162.902 134.042 162.793 133.99 162.672C133.939 162.551 133.912 162.421 133.91 162.29C133.909 162.158 133.933 162.028 133.983 161.906C134.032 161.785 134.104 161.674 134.196 161.58C134.288 161.486 134.397 161.411 134.518 161.36C134.639 161.308 134.769 161.281 134.9 161.28L140.92 161.22C141.159 161.251 141.378 161.368 141.538 161.548C141.698 161.728 141.787 161.96 141.789 162.201C141.792 162.442 141.707 162.676 141.551 162.859C141.395 163.042 141.178 163.163 140.94 163.2L134.92 163.28ZM146.72 163.14C146.523 163.141 146.329 163.084 146.165 162.975C146 162.867 145.871 162.712 145.794 162.53C145.717 162.348 145.695 162.147 145.732 161.953C145.769 161.76 145.862 161.581 146 161.44C146.438 161.04 146.118 161.112 152.72 161.08C152.918 161.079 153.111 161.136 153.276 161.244C153.441 161.353 153.57 161.508 153.647 161.69C153.724 161.872 153.745 162.072 153.709 162.266C153.672 162.46 153.578 162.639 153.44 162.78C153.084 163.176 153.402 163.106 146.72 163.14ZM158.54 163.02C158.275 163.022 158.02 162.92 157.83 162.734C157.641 162.548 157.533 162.295 157.53 162.03C157.528 161.765 157.63 161.509 157.816 161.32C158.002 161.13 158.255 161.022 158.52 161.02L164.54 160.96C164.805 160.957 165.061 161.06 165.25 161.246C165.44 161.431 165.548 161.685 165.55 161.95C165.553 162.215 165.45 162.47 165.264 162.66C165.079 162.849 164.825 162.957 164.56 162.96L158.54 163.02ZM197.64 152.68C197.375 152.678 197.12 152.576 196.927 152.395C196.734 152.213 196.617 151.964 196.6 151.7V145.68C196.596 145.551 196.618 145.422 196.664 145.302C196.711 145.181 196.781 145.071 196.87 144.978C196.959 144.885 197.067 144.81 197.185 144.759C197.304 144.708 197.431 144.681 197.56 144.68C197.826 144.678 198.083 144.779 198.277 144.961C198.47 145.144 198.586 145.394 198.6 145.66V151.68C198.606 151.809 198.585 151.939 198.54 152.06C198.494 152.181 198.424 152.292 198.334 152.385C198.244 152.479 198.137 152.553 198.017 152.604C197.898 152.654 197.77 152.68 197.64 152.68ZM196.5 139.88C196.5 133.186 196.398 133.52 196.76 133.16C196.903 133.032 197.08 132.947 197.269 132.915C197.458 132.883 197.652 132.905 197.829 132.978C198.007 133.051 198.16 133.172 198.271 133.328C198.383 133.484 198.448 133.668 198.46 133.86L198.52 139.86C198.522 139.992 198.497 140.124 198.447 140.247C198.398 140.37 198.324 140.482 198.231 140.577C198.139 140.672 198.028 140.747 197.906 140.799C197.784 140.851 197.653 140.878 197.52 140.88C197.388 140.881 197.256 140.856 197.133 140.807C197.01 140.757 196.898 140.684 196.803 140.591C196.708 140.498 196.633 140.388 196.581 140.266C196.529 140.143 196.502 140.012 196.5 139.88ZM196.42 128.08L196.36 122.06C196.359 121.928 196.383 121.798 196.432 121.676C196.482 121.554 196.554 121.444 196.646 121.35C196.738 121.256 196.847 121.181 196.968 121.13C197.089 121.078 197.219 121.051 197.35 121.05C197.482 121.048 197.612 121.073 197.734 121.122C197.855 121.171 197.966 121.244 198.06 121.336C198.154 121.428 198.229 121.537 198.28 121.658C198.332 121.779 198.359 121.908 198.36 122.04C198.39 128.13 198.548 128.352 198.14 128.76C198.003 128.902 197.826 129.001 197.632 129.043C197.439 129.085 197.237 129.069 197.052 128.996C196.868 128.923 196.71 128.797 196.597 128.634C196.485 128.471 196.423 128.278 196.42 128.08ZM197.32 117.26C197.055 117.26 196.801 117.154 196.613 116.967C196.426 116.779 196.32 116.525 196.32 116.26C196.29 110.146 196.12 109.93 196.56 109.54C196.702 109.413 196.877 109.328 197.064 109.295C197.251 109.262 197.444 109.282 197.621 109.353C197.798 109.423 197.951 109.542 198.064 109.695C198.177 109.848 198.245 110.03 198.26 110.22L198.32 116.24C198.323 116.373 198.299 116.505 198.25 116.629C198.201 116.752 198.128 116.865 198.034 116.96C197.941 117.055 197.83 117.13 197.708 117.182C197.585 117.233 197.453 117.26 197.32 117.26ZM196.22 104.46C196.188 98.0598 196.042 98.1618 196.44 97.7198C196.586 97.594 196.763 97.5109 196.952 97.4797C197.142 97.4484 197.337 97.4702 197.515 97.5427C197.693 97.6151 197.847 97.7354 197.961 97.8902C198.075 98.045 198.144 98.2283 198.16 98.4198L198.22 104.44C198.222 104.571 198.197 104.701 198.148 104.823C198.099 104.945 198.026 105.056 197.934 105.15C197.749 105.339 197.495 105.447 197.23 105.45C196.965 105.452 196.71 105.35 196.52 105.164C196.331 104.978 196.223 104.725 196.22 104.46ZM197.12 93.6398C196.855 93.6398 196.601 93.5344 196.413 93.3469C196.226 93.1593 196.12 92.905 196.12 92.6398C196.09 86.5498 195.93 86.3258 196.34 85.9198C196.485 85.7933 196.662 85.7091 196.852 85.6761C197.042 85.6432 197.237 85.6628 197.416 85.7329C197.595 85.8029 197.752 85.9208 197.869 86.0736C197.986 86.2264 198.059 86.4084 198.08 86.5998V92.6198C198.088 92.7507 198.069 92.8817 198.024 93.005C197.979 93.1282 197.91 93.241 197.82 93.3365C197.73 93.4319 197.622 93.5081 197.501 93.5602C197.381 93.6124 197.251 93.6394 197.12 93.6398ZM197.02 81.8198C196.755 81.8183 196.5 81.7164 196.307 81.5345C196.114 81.3526 195.997 81.1044 195.98 80.8398V74.8198C195.976 74.6896 195.997 74.5598 196.043 74.438C196.089 74.3161 196.158 74.2045 196.248 74.1097C196.337 74.0148 196.444 73.9386 196.563 73.8854C196.682 73.8322 196.81 73.8031 196.94 73.7998C197.208 73.8025 197.465 73.9075 197.659 74.0934C197.852 74.2793 197.967 74.5319 197.98 74.7998V80.8198C197.984 80.9488 197.962 81.0774 197.916 81.1979C197.87 81.3184 197.8 81.4284 197.71 81.5216C197.621 81.6147 197.514 81.6891 197.395 81.7403C197.277 81.7915 197.149 81.8185 197.02 81.8198ZM225.138 71.0798C225.004 71.0808 224.871 71.0552 224.747 71.0043C224.623 70.9534 224.51 70.8782 224.415 70.7833C224.321 70.6883 224.246 70.5754 224.195 70.4512C224.144 70.327 224.119 70.1939 224.12 70.0598V69.5398C224.119 69.3167 224.193 69.0998 224.329 68.9233C224.465 68.7468 224.657 68.621 224.873 68.5658C225.089 68.5106 225.317 68.5293 225.522 68.6188C225.726 68.7083 225.894 68.8635 226 69.0598L230.6 68.9798C230.732 68.9785 230.862 69.003 230.984 69.0521C231.105 69.1011 231.216 69.1737 231.31 69.2656C231.404 69.3575 231.479 69.467 231.53 69.5878C231.582 69.7087 231.609 69.8384 231.61 69.9698C231.612 70.1011 231.587 70.2314 231.538 70.3532C231.489 70.475 231.416 70.586 231.324 70.6798C231.232 70.7736 231.123 70.8484 231.002 70.8998C230.881 70.9513 230.752 70.9785 230.62 70.9798L225.138 71.0798ZM236.42 70.8998C236.221 70.905 236.025 70.8506 235.857 70.7436C235.689 70.6366 235.557 70.4819 235.477 70.2992C235.398 70.1166 235.374 69.9144 235.411 69.7185C235.447 69.5226 235.541 69.342 235.68 69.1998C236.036 68.7998 235.772 68.8538 242.4 68.7998C242.532 68.7971 242.662 68.8204 242.784 68.8682C242.907 68.9161 243.018 68.9875 243.113 69.0785C243.208 69.1695 243.284 69.2783 243.336 69.3986C243.389 69.5189 243.418 69.6484 243.42 69.7798C243.423 69.9111 243.4 70.0416 243.352 70.164C243.304 70.2863 243.232 70.398 243.141 70.4927C243.05 70.5874 242.942 70.6633 242.821 70.716C242.701 70.7687 242.572 70.7971 242.44 70.7998L236.42 70.8998ZM248.22 70.6998C247.956 70.702 247.702 70.6006 247.511 70.4174C247.321 70.2342 247.21 69.9838 247.202 69.7198C247.2 69.5868 247.223 69.4546 247.273 69.3309C247.322 69.2073 247.395 69.0947 247.488 68.9997C247.581 68.9047 247.692 68.8293 247.815 68.7778C247.937 68.7263 248.069 68.6997 248.202 68.6998L249.682 68.6798V66.1198C249.682 65.8546 249.788 65.6002 249.975 65.4127C250.163 65.2251 250.417 65.1198 250.682 65.1198C250.947 65.1198 251.202 65.2251 251.389 65.4127C251.577 65.6002 251.682 65.8546 251.682 66.1198V69.6598C251.682 69.9216 251.58 70.1729 251.396 70.3599C251.213 70.5469 250.964 70.6545 250.702 70.6598L248.22 70.6998ZM196.92 70.0198C196.651 70.022 196.391 69.9186 196.196 69.7317C196.002 69.5448 195.889 69.2893 195.88 69.0198C195.88 62.3698 195.788 62.6518 196.14 62.2998C196.282 62.1729 196.457 62.0882 196.644 62.0551C196.831 62.022 197.024 62.042 197.201 62.1127C197.378 62.1833 197.531 62.302 197.644 62.4552C197.757 62.6084 197.825 62.7901 197.84 62.9798L197.9 68.9998C197.903 69.1311 197.88 69.2617 197.832 69.384C197.784 69.5063 197.713 69.6181 197.622 69.7128C197.531 69.8075 197.422 69.8834 197.301 69.936C197.181 69.9887 197.052 70.0172 196.92 70.0198ZM224.18 63.7398V57.7198C224.18 56.6098 226.18 56.2938 226.18 57.7398V63.7598C226.179 63.8911 226.152 64.0209 226.1 64.1417C226.049 64.2625 225.974 64.372 225.88 64.4639C225.786 64.5559 225.675 64.6284 225.554 64.6775C225.432 64.7265 225.302 64.7511 225.17 64.7498C225.039 64.7485 224.909 64.7213 224.788 64.6698C224.667 64.6184 224.558 64.5436 224.466 64.4498C224.374 64.356 224.302 64.245 224.252 64.1232C224.203 64.0014 224.179 63.8711 224.18 63.7398ZM249.68 60.3198V54.2998C249.68 54.0345 249.786 53.7802 249.973 53.5927C250.161 53.4051 250.415 53.2998 250.68 53.2998C250.945 53.2998 251.2 53.4051 251.387 53.5927C251.575 53.7802 251.68 54.0345 251.68 54.2998V60.3198C251.68 60.585 251.575 60.8393 251.387 61.0269C251.2 61.2144 250.945 61.3198 250.68 61.3198C250.415 61.3198 250.161 61.2144 249.973 61.0269C249.786 60.8393 249.68 60.585 249.68 60.3198ZM195.8 57.1998L195.74 51.1998C195.738 50.9346 195.84 50.6791 196.026 50.4897C196.212 50.3003 196.465 50.1924 196.73 50.1898C196.995 50.1871 197.251 50.2899 197.44 50.4756C197.63 50.6613 197.738 50.9146 197.74 51.1798C197.77 57.2698 197.928 57.4918 197.52 57.8998C197.382 58.0437 197.203 58.1427 197.007 58.1841C196.812 58.2255 196.608 58.2074 196.423 58.132C196.238 58.0567 196.08 57.9276 195.969 57.7614C195.858 57.5953 195.799 57.3996 195.8 57.1998ZM224.24 51.9198L224.298 45.9198C224.292 45.7872 224.313 45.6548 224.36 45.5306C224.406 45.4064 224.478 45.2928 224.569 45.1969C224.661 45.101 224.771 45.0247 224.893 44.9725C225.015 44.9204 225.147 44.8935 225.279 44.8935C225.412 44.8935 225.543 44.9204 225.665 44.9725C225.787 45.0247 225.897 45.101 225.989 45.1969C226.081 45.2928 226.152 45.4064 226.199 45.5306C226.245 45.6548 226.266 45.7872 226.26 45.9198V51.9398C226.259 52.0724 226.231 52.2035 226.179 52.3255C226.128 52.4476 226.052 52.5582 225.957 52.651C225.863 52.7439 225.751 52.8172 225.627 52.8667C225.504 52.9163 225.373 52.9411 225.24 52.9398C225.108 52.9385 224.976 52.911 224.854 52.8591C224.732 52.8071 224.622 52.7316 224.529 52.6369C224.436 52.5422 224.363 52.4301 224.313 52.307C224.264 52.184 224.239 52.0524 224.24 51.9198ZM249.68 48.4998V42.4998C249.68 42.2346 249.786 41.9802 249.973 41.7927C250.161 41.6051 250.415 41.4998 250.68 41.4998C250.945 41.4998 251.2 41.6051 251.387 41.7927C251.575 41.9802 251.68 42.2346 251.68 42.4998V48.4998C251.68 48.765 251.575 49.0193 251.387 49.2069C251.2 49.3944 250.945 49.4998 250.68 49.4998C250.415 49.4998 250.161 49.3944 249.973 49.2069C249.786 49.0193 249.68 48.765 249.68 48.4998ZM196.7 46.3798C196.438 46.3798 196.187 46.2772 196 46.094C195.813 45.9107 195.705 45.6615 195.7 45.3998L195.66 42.2798C195.661 42.0094 195.768 41.7503 195.96 41.5591C196.151 41.3679 196.41 41.2603 196.68 41.2598H199.56C199.825 41.2598 200.08 41.3651 200.267 41.5527C200.455 41.7402 200.56 41.9945 200.56 42.2598C200.56 42.525 200.455 42.7793 200.267 42.9669C200.08 43.1544 199.825 43.2598 199.56 43.2598H197.68L197.7 45.3798C197.7 45.645 197.595 45.8993 197.407 46.0869C197.22 46.2744 196.965 46.3798 196.7 46.3798ZM262.26 43.2598H256.24C255.975 43.2598 255.721 43.1544 255.533 42.9669C255.346 42.7793 255.24 42.525 255.24 42.2598C255.24 41.9945 255.346 41.7402 255.533 41.5527C255.721 41.3651 255.975 41.2598 256.24 41.2598H262.26C262.525 41.2598 262.78 41.3651 262.967 41.5527C263.155 41.7402 263.26 41.9945 263.26 42.2598C263.26 42.525 263.155 42.7793 262.967 42.9669C262.78 43.1544 262.525 43.2598 262.26 43.2598ZM223.18 43.2598H217.16C216.895 43.2598 216.641 43.1544 216.453 42.9669C216.266 42.7793 216.16 42.525 216.16 42.2598C216.16 41.9945 216.266 41.7402 216.453 41.5527C216.641 41.3651 216.895 41.2598 217.16 41.2598H223.18C223.445 41.2598 223.7 41.3651 223.887 41.5527C224.075 41.7402 224.18 41.9945 224.18 42.2598C224.18 42.525 224.075 42.7793 223.887 42.9669C223.7 43.1544 223.445 43.2598 223.18 43.2598ZM211.36 43.2598H205.36C205.095 43.2598 204.841 43.1544 204.653 42.9669C204.466 42.7793 204.36 42.525 204.36 42.2598C204.36 41.9945 204.466 41.7402 204.653 41.5527C204.841 41.3651 205.095 41.2598 205.36 41.2598H211.36C211.625 41.2598 211.88 41.3651 212.067 41.5527C212.255 41.7402 212.36 41.9945 212.36 42.2598C212.36 42.525 212.255 42.7793 212.067 42.9669C211.88 43.1544 211.625 43.2598 211.36 43.2598Z" fill="black"/>
<path fill-rule="evenodd" clip-rule="evenodd" d="M132.301 127.114L123.877 178.868C123.727 179.902 123.251 180.861 122.519 181.606C121.786 182.351 120.836 182.843 119.805 183.012C115.861 184.11 102.103 183.4 102.103 183.4C102.103 183.4 99.8629 183.664 99.4609 179.366L100.559 177.628C100.545 177.134 100.759 176.104 99.5189 175.748C100.361 163.412 105.691 118.486 110.945 118.548C116.739 118.624 132.545 121.386 132.301 127.114Z" fill="white"/>
<path fill-rule="evenodd" clip-rule="evenodd" d="M99.4021 157.526C97.2421 156.016 93.1321 170.254 93.1321 170.254C93.1321 170.254 89.2401 174.4 89.3581 177.092C89.4815 178.875 89.9203 180.621 90.6541 182.25C90.5804 183.911 91.1345 185.538 92.2061 186.808C95.3854 190.331 98.9757 193.459 102.9 196.126C104.808 197.284 107.646 201.8 109.634 204.84C111.622 207.88 117.934 213.088 119.918 214.74C121.902 216.392 135.982 238.358 139.874 245.406C143.766 252.454 172.258 295.504 186.846 294.354C201.434 293.204 231.79 281.034 231.79 281.034L275.91 217.108C275.91 217.108 262.51 221.088 235.744 237.474C210.378 253 192.524 255.92 192.524 255.92C192.524 255.92 176.84 245.26 169.204 240.132C161.568 235.004 140.97 215.352 138.084 204.976C135.198 194.6 134.988 188.22 131.284 180.506C129.111 176.033 127.298 171.393 125.864 166.63L123.6 179.342L126.61 187.024L120.438 182.8C113.965 183.957 107.342 183.999 100.854 182.926C100.177 181.859 99.8086 180.626 99.7881 179.362C100.514 178.09 101.158 177.084 99.7581 175.706C99.4081 171.498 102.056 159.382 99.4021 157.526Z" fill="white"/>
<path d="M133.288 127.158C133.584 120.492 117.346 117.592 110.956 117.558C104.01 117.516 99.0084 168.584 98.5344 175.49C98.5158 175.755 98.6034 176.017 98.7778 176.217C98.9522 176.418 99.1991 176.541 99.4644 176.56C99.7296 176.578 99.9913 176.491 100.192 176.316C100.393 176.142 100.516 175.895 100.534 175.63C101.566 160.92 105.268 134.63 108.534 124.1L130.76 130.272L123.034 177.852L100.234 177.252C100.088 177.25 99.944 177.281 99.8117 177.342C99.6793 177.403 99.5625 177.494 99.4699 177.607C99.3773 177.72 99.3113 177.852 99.2768 177.993C99.2422 178.135 99.24 178.283 99.2704 178.426C99.0278 178.472 98.8109 178.606 98.6614 178.802C98.5118 178.999 98.4402 179.244 98.4604 179.49C98.4642 180.283 98.6252 181.067 98.9342 181.798C99.2432 182.528 99.6939 183.19 100.26 183.746C100.756 184.173 101.39 184.406 102.044 184.402C105.698 184.584 116.52 184.964 120.066 183.978C121.287 183.766 122.409 183.173 123.271 182.284C124.133 181.395 124.692 180.256 124.866 179.03L133.288 127.158ZM109.186 122.2C109.798 120.618 110.386 119.666 110.93 119.554C115.954 119.618 127.074 121.588 130.42 125.13C130.943 125.599 131.26 126.255 131.302 126.956L131.086 128.28L109.186 122.2ZM119.536 182.05C115.794 183.092 102.29 182.408 102.028 182.406C101.584 182.406 100.694 181.758 100.458 179.298L100.444 179.256L122.554 179.836C122.241 180.401 121.809 180.891 121.288 181.273C120.767 181.655 120.169 181.921 119.536 182.05Z" fill="black"/>
<path d="M126.077 188.376C124.689 187.5 119.947 183.776 119.745 183.622C119.594 183.503 119.48 183.342 119.418 183.16C119.355 182.978 119.346 182.782 119.393 182.595C119.439 182.408 119.538 182.239 119.678 182.107C119.819 181.975 119.994 181.886 120.183 181.852C120.847 181.715 121.457 181.388 121.939 180.912C122.421 180.437 122.756 179.831 122.901 179.17C122.945 178.936 123.07 178.725 123.254 178.575C123.439 178.426 123.67 178.346 123.908 178.352C124.146 178.357 124.373 178.447 124.551 178.606C124.728 178.764 124.843 178.98 124.875 179.216C124.999 180.12 126.583 184.58 127.553 187.18C127.628 187.376 127.639 187.592 127.584 187.795C127.529 187.998 127.412 188.179 127.248 188.312C127.085 188.444 126.883 188.522 126.673 188.533C126.463 188.545 126.254 188.489 126.077 188.376ZM122.375 183.134C123.013 183.63 123.797 184.234 124.557 184.808C124.239 183.914 123.903 182.944 123.615 182.066C123.263 182.487 122.844 182.847 122.375 183.134Z" fill="black"/>
<path d="M129.701 210.126C129.465 210.126 129.237 210.042 129.057 209.89C128.877 209.738 128.757 209.527 128.717 209.294C127.853 204.224 122.167 199.134 119.551 197.464C116.935 195.794 108.511 190.724 108.425 190.664C108.308 190.599 108.206 190.511 108.124 190.405C108.042 190.299 107.982 190.177 107.947 190.048C107.913 189.918 107.905 189.783 107.924 189.651C107.943 189.518 107.988 189.39 108.058 189.276C108.127 189.161 108.218 189.061 108.327 188.983C108.435 188.904 108.558 188.848 108.689 188.818C108.82 188.787 108.955 188.784 109.087 188.807C109.219 188.83 109.345 188.88 109.457 188.952C109.541 189.002 117.971 194.076 120.627 195.77C122.901 197.222 129.627 202.758 130.687 208.95C130.713 209.094 130.707 209.242 130.669 209.384C130.631 209.525 130.563 209.657 130.469 209.769C130.375 209.881 130.258 209.971 130.125 210.033C129.992 210.095 129.848 210.127 129.701 210.126Z" fill="black"/>
<path d="M109.263 141.324C106.919 143.758 105.396 146.865 104.908 150.209C104.42 153.553 104.992 156.965 106.543 159.968C111.855 169.41 124.183 165.204 125.925 153.276C127.657 141.41 117.103 133.754 109.263 141.324ZM115.417 159.812L111.355 151.744L113.541 150.234L115.417 154.852L120.903 146.188L122.481 148.342L115.417 159.812Z" fill="black"/>
<path d="M238.136 190.816C237.736 190.816 246.28 195.616 121.978 124.216C121.804 124.116 121.665 123.966 121.577 123.786C121.489 123.605 121.458 123.403 121.487 123.205C121.516 123.006 121.604 122.821 121.739 122.673C121.874 122.526 122.051 122.422 122.246 122.376L248.924 92.3517C249.18 92.2963 249.448 92.3437 249.669 92.4834C249.89 92.6232 250.048 92.8442 250.109 93.0991C250.169 93.3539 250.127 93.6222 249.991 93.8464C249.856 94.0705 249.638 94.2325 249.384 94.2977L125.164 123.738L238.634 188.958C238.821 189.069 238.966 189.239 239.048 189.44C239.129 189.642 239.143 189.865 239.087 190.075C239.03 190.285 238.907 190.471 238.736 190.604C238.564 190.738 238.354 190.812 238.136 190.816Z" fill="black"/>
<path fill-rule="evenodd" clip-rule="evenodd" d="M314.251 179.218C314.299 173.326 327.137 156.25 316.959 120.662C306.781 85.074 250.813 104.832 250.813 104.832C250.813 104.832 239.317 123.338 239.463 128.496C239.609 133.654 242.663 133.658 238.159 139.336C233.655 145.014 232.845 147.316 230.681 149.774C228.517 152.232 226.427 155.692 229.361 157.3C232.295 158.908 238.095 160.822 236.785 162.93L234.631 166.4C235.009 167.445 235.687 168.356 236.578 169.019C237.47 169.683 238.537 170.07 239.647 170.132C238.892 171.701 238.434 173.396 238.297 175.132C239.898 176.002 241.329 177.153 242.521 178.532C243.495 180.112 240.989 191.896 249.153 193.092C254.991 193.645 260.881 193.043 266.487 191.32L276.487 215.92C276.487 215.92 260.581 236.666 253.825 251.206C253.825 251.206 300.337 199.428 336.065 218.146C336.065 218.146 326.019 205.182 321.337 197.848C316.655 190.514 314.203 185.11 314.251 179.218Z" fill="white"/>
<path fill-rule="evenodd" clip-rule="evenodd" d="M251.006 136.33C252.294 137.742 245.972 139.068 245.972 139.068C245.465 138.246 245.145 137.323 245.035 136.363C244.925 135.404 245.028 134.433 245.336 133.518C247.454 133.9 249.42 134.875 251.006 136.33Z" fill="white"/>
<path d="M241.066 127.9C242.278 126.196 244.098 125.022 246.152 124.622C247.359 124.489 248.582 124.613 249.738 124.987C250.894 125.361 251.957 125.977 252.858 126.792C253.066 126.957 253.2 127.198 253.231 127.461C253.262 127.725 253.186 127.99 253.022 128.198C252.857 128.407 252.616 128.541 252.353 128.572C252.089 128.602 251.824 128.527 251.616 128.362C250.932 127.724 250.121 127.237 249.236 126.933C248.352 126.628 247.413 126.513 246.482 126.594C244.973 126.906 243.635 127.768 242.728 129.012C242.578 129.228 242.35 129.376 242.092 129.424C241.835 129.473 241.568 129.419 241.35 129.273C241.132 129.127 240.98 128.902 240.927 128.645C240.874 128.388 240.924 128.121 241.066 127.9Z" fill="black"/>
<path d="M251.743 135.656C250.009 134.04 247.847 132.956 245.515 132.534C244.688 132.386 243.929 131.982 243.345 131.378C243.261 131.277 243.158 131.193 243.042 131.132C242.925 131.071 242.798 131.033 242.667 131.021C242.537 131.009 242.405 131.022 242.279 131.061C242.154 131.1 242.037 131.163 241.936 131.247C241.835 131.331 241.751 131.434 241.69 131.55C241.629 131.667 241.591 131.794 241.579 131.925C241.566 132.055 241.58 132.187 241.619 132.313C241.658 132.438 241.721 132.555 241.805 132.656C242.477 133.386 243.322 133.936 244.261 134.256C243.993 134.914 243.863 135.619 243.877 136.328C243.877 141.352 248.721 140.696 247.999 135.456C248.843 135.829 249.611 136.353 250.267 137.002C250.354 137.104 250.461 137.188 250.581 137.247C250.701 137.307 250.831 137.342 250.965 137.351C251.099 137.359 251.233 137.34 251.36 137.295C251.486 137.251 251.602 137.181 251.701 137.091C251.8 137 251.88 136.891 251.936 136.769C251.992 136.647 252.023 136.515 252.027 136.381C252.03 136.247 252.007 136.114 251.959 135.989C251.91 135.864 251.836 135.752 251.743 135.656Z" fill="black"/>
<path d="M288.876 158.634C288.438 158.956 287.476 159.584 287.044 159.91C286.938 159.988 286.849 160.086 286.781 160.199C286.713 160.311 286.667 160.436 286.648 160.566C286.628 160.696 286.634 160.829 286.666 160.956C286.698 161.084 286.754 161.204 286.832 161.31C289.454 164.876 288.878 178.78 277.814 178.458C266.296 178.094 264.69 165.928 269.912 160.512C271.289 158.99 273.068 157.89 275.044 157.338C277.021 156.787 279.113 156.807 281.078 157.396C281.327 157.486 281.602 157.474 281.842 157.361C282.082 157.248 282.268 157.045 282.358 156.796C282.544 156.28 282.866 155.258 283.052 154.746C283.142 154.497 283.13 154.222 283.017 153.982C282.905 153.742 282.701 153.556 282.452 153.466C279.732 152.62 276.826 152.568 274.077 153.316C271.328 154.064 268.849 155.581 266.932 157.688C265.009 159.871 263.727 162.543 263.229 165.41C262.731 168.276 263.036 171.224 264.11 173.928C266.268 179.234 271.25 182.396 277.78 182.602C280.294 182.807 282.811 182.254 285.007 181.014C287.204 179.774 288.978 177.904 290.1 175.646C294.368 167.534 291.206 156.914 288.876 158.634Z" fill="black"/>
<path fill-rule="evenodd" clip-rule="evenodd" d="M366.213 162.218C365.399 158.298 367.703 154.534 374.487 149.852C381.271 145.17 378.173 132.134 378.173 132.134C383.617 118.534 373.911 115.49 373.911 115.49C373.255 105.648 363.681 102.89 363.681 102.89C376.681 100.356 368.389 86.0896 368.389 86.0896C368.146 89.3149 367.049 92.4174 365.209 95.0776C362.233 99.1296 359.009 94.2156 352.383 93.2976C345.757 92.3796 342.091 96.4396 337.917 98.7436C329.087 75.1036 304.673 80.3056 280.651 83.6616C256.629 87.0176 248.501 95.7316 248.797 98.7616C249.093 101.792 249.485 106.082 256.333 108.716C263.181 111.35 270.133 114.748 277.603 113.716C277.603 113.716 276.431 133.978 285.489 138.774C285.489 138.774 289.361 127.532 296.459 130.034C301.403 131.776 303.703 142.434 299.517 147.02L294.317 152.702C294.317 152.702 292.917 164.232 298.399 172.158C297.515 174.66 296.469 177.102 295.267 179.468C293.655 182.772 293.939 197.068 302.983 195.408C304.168 195.249 305.308 194.85 306.334 194.237C307.36 193.623 308.25 192.807 308.951 191.839C309.651 190.87 310.148 189.769 310.409 188.603C310.671 187.436 310.693 186.229 310.473 185.054C310.32 186.441 309.624 187.712 308.537 188.589C307.451 189.466 306.062 189.877 304.673 189.734C301.567 189.464 302.165 183.748 303.649 177.032C306.784 178.735 310.316 179.576 313.883 179.468C318.247 175.765 322.418 171.841 326.379 167.71L326.407 167.538C328.399 168.773 330.705 169.41 333.049 169.372C332.373 173.54 333.002 177.815 334.849 181.612C337.945 188.494 346.979 186.686 346.979 186.686C346.979 186.686 349.861 195.386 344.769 197.862C339.677 200.338 332.169 195.542 332.169 195.542C348.247 212.062 359.625 192.842 362.721 185.466C363.596 183.174 363.967 180.72 363.808 178.272C363.65 175.824 362.965 173.439 361.801 171.28C368.973 178.738 379.139 162.916 379.139 162.916C374.083 170.316 367.027 166.138 366.213 162.218Z" fill="#81F889"/>
<path d="M341.743 158.172C340.778 157.48 339.987 156.573 339.431 155.523C338.876 154.472 338.572 153.308 338.543 152.12C338.475 146.342 344.971 140.846 345.249 140.614C345.453 140.444 345.716 140.361 345.98 140.385C346.244 140.408 346.488 140.536 346.658 140.739C346.829 140.943 346.911 141.205 346.888 141.469C346.864 141.734 346.737 141.978 346.533 142.148C346.471 142.2 340.483 147.272 340.543 152.1C340.571 152.991 340.807 153.862 341.232 154.645C341.656 155.428 342.258 156.101 342.989 156.61C349.371 161.698 359.685 163.01 364.435 156.29C361.531 158.42 357.25 160.578 353.036 159.112C345.696 156.572 341.387 150.794 346.653 145.184C346.742 145.084 346.85 145.003 346.971 144.946C347.091 144.888 347.222 144.856 347.356 144.85C347.489 144.844 347.622 144.865 347.748 144.911C347.873 144.957 347.987 145.028 348.085 145.12C348.182 145.211 348.26 145.321 348.315 145.443C348.369 145.565 348.398 145.697 348.4 145.83C348.403 145.964 348.379 146.096 348.329 146.22C348.279 146.344 348.205 146.457 348.111 146.552C343.841 151.106 347.991 155.25 353.687 157.222C359.713 159.308 366.487 151.822 366.557 151.742C366.707 151.573 366.91 151.461 367.132 151.422C367.354 151.383 367.583 151.42 367.781 151.527C367.98 151.635 368.136 151.806 368.224 152.014C368.313 152.221 368.329 152.452 368.269 152.67C364.887 165.06 350.595 165.238 341.743 158.172Z" fill="black"/>
<path fill-rule="evenodd" clip-rule="evenodd" d="M319.912 325.344C319.912 325.344 332.712 315.452 339.54 280.322C347.246 240.688 328.322 221.164 318.216 220.374C308.11 219.584 289.122 231.5 277.602 255.39C266.082 279.28 266.02 307.06 264.092 321.51C262.164 335.96 252.656 389.452 252.656 389.452L301.48 388.518C301.48 388.518 311.52 354.83 319.912 325.344Z" fill="white"/>
<path d="M378.337 162.344C376.427 165.126 374.023 166.38 371.537 165.888C370.529 165.696 369.592 165.235 368.826 164.553C368.06 163.87 367.493 162.993 367.187 162.014C366.445 158.438 368.871 154.94 375.049 150.672C381.783 146.022 379.659 134.334 379.209 132.216C382.845 122.874 379.775 117.016 374.849 114.792C374.556 112.304 373.647 109.929 372.205 107.881C370.762 105.834 368.831 104.179 366.587 103.066C368.622 102.32 370.281 100.803 371.205 98.842C373.699 93.35 369.431 85.884 369.249 85.57C369.141 85.382 368.974 85.2342 368.775 85.149C368.575 85.0639 368.353 85.0459 368.143 85.0978C367.932 85.1497 367.744 85.2687 367.607 85.4369C367.47 85.605 367.391 85.8132 367.383 86.03C367.144 89.056 366.114 91.966 364.395 94.468C362.097 97.606 359.031 93.192 352.515 92.29C346.231 91.416 342.603 94.67 338.397 97.27C329.013 74.39 304.585 79.282 280.507 82.654C256.603 85.992 247.407 94.854 247.799 98.896C247.871 101.027 248.478 103.105 249.565 104.94C247.337 108.572 238.317 123.592 238.455 128.524C238.613 133.97 241.513 133.482 237.371 138.714C233.155 144.032 231.829 146.95 229.925 149.114C227.649 151.698 226.653 153.904 226.961 155.67C227.063 156.208 227.289 156.715 227.62 157.15C227.952 157.585 228.381 157.937 228.873 158.178C231.039 159.364 235.639 161.104 235.929 162.404C233.599 166.156 233.503 166.104 233.663 166.668C234.014 167.696 234.616 168.619 235.415 169.355C236.214 170.09 237.184 170.615 238.237 170.88C237.66 172.24 237.339 173.695 237.289 175.172C237.295 175.343 237.346 175.51 237.435 175.656C237.524 175.802 237.65 175.922 237.799 176.006C239.256 176.777 240.56 177.807 241.649 179.044C242.295 180.536 240.133 192.796 249.003 194.092C254.681 194.672 260.418 194.148 265.897 192.548L275.205 215.424C274.185 215.955 273.222 216.591 272.333 217.32C266.873 219.418 254.599 224.762 235.225 236.624C212.363 250.624 195.471 254.332 192.749 254.864C190.421 253.284 176.737 243.988 169.765 239.302C162.027 234.102 141.809 214.628 139.051 204.702C136.205 194.474 135.947 187.892 132.183 180.066C130.037 175.645 128.246 171.06 126.825 166.356C126.754 166.1 126.584 165.883 126.353 165.753C126.122 165.622 125.848 165.589 125.593 165.66C125.337 165.731 125.12 165.901 124.99 166.132C124.859 166.363 124.826 166.636 124.897 166.892C126.344 171.713 128.178 176.408 130.381 180.934C134.011 188.486 134.251 194.904 137.123 205.238C140.123 215.994 160.991 235.81 168.649 240.954C193.607 257.724 191.975 257.018 192.689 256.902C192.869 256.872 211.027 253.772 236.269 238.32C246.575 231.864 257.296 226.093 268.361 221.046C256.649 233.41 240.475 261.156 230.469 280.476C225.245 282.522 199.611 292.34 186.771 293.352C173.303 294.444 145.425 253.38 140.751 244.916C137.551 239.134 127.509 223.268 122.783 216.728C123.564 216.889 124.362 216.95 125.159 216.908C125.424 216.892 125.672 216.771 125.848 216.572C126.024 216.373 126.114 216.112 126.098 215.847C126.082 215.582 125.961 215.334 125.762 215.158C125.563 214.982 125.302 214.892 125.037 214.908C123.425 214.929 121.833 214.557 120.397 213.824C116.486 210.862 112.983 207.397 109.977 203.52C107.923 200.368 105.377 196.444 103.423 195.26C99.6124 192.666 96.1216 189.631 93.0228 186.218C92.1706 185.174 91.6831 183.881 91.6348 182.534C94.3008 177.73 99.3768 174.472 99.5008 177.4C98.2627 179.545 96.4933 181.336 94.3628 182.6C94.1473 182.747 93.9977 182.972 93.9459 183.228C93.8941 183.484 93.9443 183.749 94.0857 183.968C94.2272 184.188 94.4486 184.343 94.7029 184.401C94.9572 184.459 95.2241 184.416 95.4468 184.28C95.6588 184.142 95.9008 183.97 96.1448 183.794C98.5091 185.011 100.718 186.509 102.725 188.254C102.918 188.436 103.175 188.535 103.44 188.528C103.706 188.52 103.957 188.408 104.14 188.215C104.322 188.022 104.421 187.765 104.413 187.499C104.406 187.234 104.294 186.982 104.101 186.8C102.194 185.11 100.096 183.647 97.8508 182.442C99.7128 180.83 101.561 178.768 101.503 177.336C101.517 176.929 101.446 176.524 101.294 176.146C101.141 175.768 100.911 175.427 100.618 175.144C100.325 174.861 99.9761 174.643 99.5934 174.504C99.2107 174.365 98.803 174.307 98.3968 174.336C99.4644 172.88 100 171.102 99.9148 169.298C100.031 169.23 100.132 169.139 100.212 169.031C100.292 168.923 100.348 168.799 100.379 168.668C100.921 166.306 102.495 158.468 99.9788 156.71C99.7686 156.559 99.5244 156.461 99.2678 156.426C99.0111 156.392 98.7498 156.42 98.5068 156.51C96.0968 157.362 93.3688 165.872 92.2408 169.748C91.3948 170.678 88.2408 174.348 88.3628 177.134C88.482 178.955 88.9129 180.743 89.6368 182.418C89.6498 184.225 90.2688 185.975 91.3948 187.388C94.6517 191.029 98.3464 194.254 102.395 196.988C104.177 198.072 107.521 203.422 108.809 205.388C110.785 208.414 116.545 213.222 119.293 215.508C121.107 217.018 134.979 238.588 139.011 245.888C142.311 251.866 170.571 295.378 186.297 295.376C195.747 295.376 220.235 286.576 229.097 283.164C226.561 288.146 224.497 292.444 223.149 295.564C214.807 314.798 224.123 328.244 226.949 338.764C229.723 349.104 223.075 389.436 223.009 389.842C222.985 389.985 222.993 390.132 223.031 390.272C223.07 390.412 223.138 390.542 223.232 390.652C223.326 390.763 223.443 390.852 223.575 390.913C223.706 390.974 223.85 391.006 223.995 391.006L343.205 389.606C343.462 389.603 343.708 389.501 343.892 389.322C344.076 389.142 344.184 388.899 344.193 388.642C344.617 377.348 352.895 287.566 351.655 259.842C350.435 232.454 337.655 218.378 336.841 217.514C336.529 217.114 326.741 204.452 322.187 197.314C317.959 190.694 315.335 185.392 315.269 179.596C317.281 177.86 323.025 172.826 326.693 168.848C328.306 169.694 330.076 170.198 331.893 170.328C331.527 174.335 332.236 178.367 333.945 182.01C336.707 188.158 343.725 188.038 346.261 187.78C346.779 189.834 347.777 195.28 344.341 196.952C339.823 199.152 332.795 194.732 332.723 194.686C332.516 194.553 332.268 194.501 332.025 194.54C331.783 194.578 331.563 194.705 331.407 194.895C331.252 195.086 331.172 195.327 331.183 195.572C331.194 195.817 331.295 196.05 331.467 196.226C335.881 200.762 340.325 203.048 344.707 203.048C353.485 203.048 360.335 193.772 363.659 185.848C365.2 182.041 365.328 177.809 364.021 173.916C369.855 175.96 376.667 168.628 379.997 163.45C380.121 163.23 380.158 162.971 380.099 162.726C380.041 162.48 379.891 162.265 379.681 162.125C379.471 161.985 379.215 161.93 378.966 161.97C378.717 162.011 378.492 162.144 378.337 162.344ZM98.9928 158.526C99.5928 159.486 99.4508 163.146 98.6668 167.074C98.091 166.789 97.446 166.672 96.8067 166.738C96.1674 166.805 95.56 167.051 95.0548 167.448C95.9002 164.289 97.2286 161.279 98.9928 158.526ZM90.8848 179.976C90.5917 179.025 90.415 178.042 90.3588 177.048C90.2848 175.396 92.4608 172.434 93.8528 170.948C94.8328 169.93 96.6408 168.582 97.4388 168.698C97.5088 168.698 97.6248 168.724 97.7588 168.976C98.7228 170.802 96.0968 174.488 94.4788 176.054C93.0898 177.173 91.8781 178.495 90.8848 179.976ZM235.745 166.498L235.931 166.198C238.615 166.925 241.38 167.307 244.161 167.334C242.821 168.278 241.276 168.888 239.653 169.116C238.832 169.052 238.041 168.777 237.356 168.319C236.672 167.86 236.117 167.233 235.745 166.498ZM240.067 175.052C239.785 174.866 239.523 174.698 239.313 174.572C239.496 173.351 239.843 172.159 240.343 171.03C241.624 170.809 242.86 170.376 243.999 169.748C242.735 171.654 241.137 173.728 240.067 175.052ZM338.557 280.132C333.631 305.47 325.675 317.492 321.825 322.068C326.897 304.284 331.165 288.654 331.969 283.726C331.996 283.594 331.997 283.458 331.97 283.325C331.944 283.193 331.891 283.067 331.814 282.956C331.738 282.845 331.64 282.75 331.526 282.678C331.412 282.605 331.284 282.557 331.151 282.535C331.018 282.513 330.882 282.519 330.75 282.551C330.619 282.584 330.496 282.642 330.388 282.723C330.281 282.804 330.19 282.907 330.123 283.024C330.056 283.141 330.013 283.27 329.997 283.404C327.975 295.772 302.941 379.668 300.365 388.268H253.853C265.129 324.558 265.207 321.714 266.161 311.114C267.543 295.714 269.437 274.624 278.503 255.824C290.037 231.908 308.027 221.338 317.275 221.338C322.529 221.338 327.729 226.012 330.911 230.194C336.073 236.98 343.933 252.492 338.557 280.132ZM320.501 198.4C323.613 203.27 329.591 211.6 333.005 216.062C303.931 204.062 270.223 233.442 257.821 245.662C263.717 235.575 270.217 225.854 277.287 216.552C277.783 215.908 277.995 216.994 267.411 190.966C267.316 190.732 267.135 190.543 266.907 190.437C266.678 190.33 266.417 190.314 266.177 190.392C260.715 192.061 254.981 192.649 249.295 192.126C244.445 191.416 243.931 186.422 243.819 181.366C243.757 178.578 243.855 178.032 241.681 176.248C244.083 173.458 246.109 170.365 247.707 167.048C247.975 166.788 248.169 166.588 248.199 166.556C248.348 166.392 248.439 166.183 248.457 165.962C248.474 165.741 248.418 165.52 248.296 165.334C248.174 165.149 247.994 165.009 247.785 164.937C247.575 164.865 247.347 164.864 247.137 164.936C244.271 165.9 239.367 164.96 237.043 164.416L237.631 163.468C237.924 162.985 238.029 162.41 237.926 161.854C237.823 161.298 237.518 160.8 237.071 160.454C238.174 161.091 239.391 161.506 240.653 161.676C243.383 161.676 243.991 158.772 243.907 156.038C243.903 155.907 243.873 155.777 243.819 155.658C243.765 155.538 243.688 155.43 243.592 155.34C243.496 155.25 243.384 155.18 243.261 155.133C243.138 155.087 243.007 155.065 242.876 155.069C242.745 155.073 242.615 155.103 242.495 155.157C242.376 155.211 242.268 155.288 242.178 155.384C241.996 155.577 241.899 155.835 241.907 156.1C241.989 158.734 241.379 159.396 241.107 159.56C240.707 159.804 239.951 159.646 239.015 159.134C237.523 158.4 235.91 157.944 234.255 157.79C234.095 157.782 233.935 157.812 233.789 157.879C233.643 157.945 233.515 158.045 233.415 158.17C232.049 157.51 230.765 156.944 229.833 156.432C229.604 156.337 229.401 156.187 229.244 155.995C229.087 155.803 228.979 155.575 228.931 155.332C228.731 154.242 229.647 152.462 231.423 150.444C232.411 149.277 233.309 148.035 234.107 146.73C240.043 137.594 242.707 137.062 241.107 131.986C240.708 130.857 240.484 129.673 240.443 128.476C240.339 124.776 247.369 112.398 250.899 106.588C253.191 108.508 255.859 109.927 258.733 110.754C264.407 113.016 270.245 115.354 276.543 114.842C276.441 119.36 276.691 135.26 285.003 139.662C285.13 139.73 285.271 139.769 285.415 139.777C285.56 139.785 285.704 139.762 285.838 139.709C285.973 139.656 286.094 139.574 286.194 139.47C286.294 139.365 286.37 139.241 286.417 139.104C286.439 139.044 288.571 132.98 292.329 131.168C299.529 127.69 303.301 142.156 298.689 146.438C295.553 150.782 287.831 155.326 283.029 157.474C282.786 157.582 282.597 157.783 282.502 158.031C282.408 158.279 282.415 158.555 282.524 158.797C282.632 159.039 282.833 159.229 283.081 159.323C283.329 159.418 283.604 159.41 283.847 159.302C287.011 157.837 290.058 156.131 292.961 154.2C292.855 157.976 293.211 165.99 297.331 172.226C296.482 174.549 295.496 176.82 294.377 179.026C292.129 183.642 293.473 198.172 303.177 196.388C313.085 194.574 311.489 184.97 311.471 184.874C311.429 184.639 311.304 184.427 311.119 184.276C310.934 184.125 310.701 184.045 310.462 184.051C310.224 184.057 309.995 184.148 309.817 184.307C309.64 184.467 309.525 184.685 309.495 184.922C309.451 185.488 309.292 186.038 309.028 186.54C308.764 187.042 308.4 187.485 307.959 187.842C307.518 188.199 307.009 188.462 306.463 188.615C305.917 188.769 305.345 188.809 304.783 188.734C302.349 188.518 303.895 180.876 304.397 178.45C307.193 179.745 310.235 180.422 313.317 180.436C313.595 186.376 316.275 191.78 320.501 198.4ZM304.601 190.728C305.397 190.831 306.205 190.776 306.979 190.565C307.753 190.354 308.478 189.991 309.111 189.498C308.634 190.831 307.788 192.002 306.672 192.873C305.556 193.745 304.216 194.282 302.807 194.422C301.866 194.663 300.874 194.614 299.962 194.28C299.05 193.945 298.261 193.342 297.699 192.55C296.567 190.618 295.857 188.469 295.616 186.243C295.374 184.017 295.607 181.765 296.299 179.636C298.111 175.936 302.347 167.268 300.477 160.384C299.793 157.208 297.936 154.408 295.277 152.542C296.901 151.331 298.385 149.941 299.701 148.4C301.825 150.106 307.825 155.716 305.991 163.484C303.683 173.2 297.965 190.148 304.603 190.724L304.601 190.728ZM298.123 169.692C295.896 165.051 294.812 159.945 294.961 154.8C296.77 156.411 298.028 158.549 298.561 160.912C299.177 163.826 299.027 166.85 298.125 169.688L298.123 169.692ZM313.523 178.464C310.501 178.478 307.519 177.776 304.821 176.416C305.805 172.09 307.021 167.768 307.919 163.946C310.019 155.056 303.295 148.746 300.895 146.816C304.695 141.32 302.045 130.944 296.783 129.088C291.383 127.18 287.253 132.044 284.983 137.288C278.545 132.594 278.467 118.232 278.553 114.608C283.759 113.966 288.866 112.677 293.753 110.77C300.071 108.152 311.553 104.826 317.435 111.97C317.516 112.079 317.618 112.17 317.735 112.237C317.852 112.305 317.982 112.349 318.116 112.365C318.251 112.381 318.387 112.37 318.517 112.332C318.647 112.294 318.768 112.23 318.872 112.144C318.977 112.058 319.063 111.952 319.125 111.831C319.187 111.711 319.224 111.58 319.234 111.444C319.244 111.309 319.226 111.174 319.182 111.046C319.138 110.918 319.068 110.8 318.977 110.7C312.281 102.564 299.819 106.1 292.977 108.918C287.972 110.798 282.76 112.074 277.453 112.718C270.303 113.876 263.401 110.374 256.671 107.778C251.239 105.69 250.175 102.806 249.771 98.662C249.571 96.634 256.825 87.974 280.771 84.63C304.371 81.332 327.869 76.298 336.659 98.336C332.587 101.31 332.879 107.806 333.169 110.336C323.799 112.234 322.817 125.946 322.737 127.488C320.895 134.27 325.841 140.348 327.879 142.488C321.941 147.82 320.621 159.024 322.737 164.452C323.222 165.702 324.007 166.813 325.023 167.688C321.167 171.852 314.925 177.264 313.531 178.46L313.523 178.464ZM362.535 170.586C362.365 170.41 362.136 170.303 361.893 170.284C361.649 170.266 361.407 170.337 361.212 170.485C361.017 170.632 360.883 170.846 360.835 171.086C360.788 171.326 360.829 171.575 360.953 171.786C362.037 173.811 362.674 176.045 362.823 178.338C362.971 180.63 362.627 182.928 361.813 185.076C359.095 191.554 353.505 199.58 346.699 200.876C343.794 201.358 340.813 200.76 338.319 199.194C340.598 199.841 343.031 199.69 345.213 198.766C351.027 195.938 348.063 186.766 347.935 186.366C347.858 186.134 347.699 185.938 347.487 185.815C347.276 185.692 347.027 185.651 346.787 185.7C346.709 185.716 338.505 187.282 335.767 181.198C334.028 177.596 333.423 173.551 334.031 169.598C334.067 169.448 334.067 169.291 334.033 169.14C333.998 168.99 333.929 168.849 333.83 168.73C333.732 168.61 333.608 168.515 333.466 168.452C333.325 168.389 333.171 168.36 333.017 168.366C332.953 168.366 326.495 168.566 324.617 163.732C322.661 158.712 324.287 147.592 329.981 143.37C330.1 143.282 330.198 143.169 330.268 143.038C330.338 142.907 330.378 142.763 330.385 142.615C330.392 142.467 330.367 142.319 330.31 142.183C330.253 142.046 330.167 141.923 330.057 141.824C329.983 141.756 322.697 135.042 324.709 127.916C324.73 127.84 324.743 127.763 324.747 127.684C324.747 127.54 325.447 113.096 334.417 112.168C334.554 112.154 334.686 112.111 334.806 112.043C334.926 111.975 335.031 111.883 335.113 111.773C335.196 111.663 335.255 111.537 335.286 111.403C335.318 111.269 335.322 111.13 335.297 110.994C335.281 110.906 333.743 102.166 338.395 99.594C339.395 99.04 340.379 98.394 341.329 97.752C347.395 93.698 350.755 92.792 358.289 96.284C361.069 97.572 363.689 98.792 366.009 95.644C367.342 93.7776 368.305 91.6729 368.845 89.444C371.231 95.746 370.207 100.574 363.485 101.886C363.265 101.929 363.065 102.044 362.919 102.214C362.772 102.384 362.687 102.598 362.677 102.822C362.666 103.046 362.732 103.267 362.863 103.45C362.993 103.632 363.181 103.765 363.397 103.828C363.761 103.934 372.309 106.542 372.909 115.544C372.922 115.745 372.995 115.937 373.12 116.096C373.244 116.254 373.413 116.371 373.605 116.432C375.527 117.182 377.091 118.637 377.977 120.5C379.325 123.376 379.077 127.16 377.241 131.75C377.163 131.94 377.148 132.15 377.197 132.35C377.225 132.472 380.061 144.766 373.915 149.012C366.979 153.8 364.301 157.93 365.231 162.412C365.748 164.22 366.91 165.775 368.498 166.783C370.085 167.791 371.987 168.182 373.843 167.882C370.341 171.444 365.977 174.152 362.543 170.582L362.535 170.586Z" fill="black"/>
<path d="M21.1719 10H85.6939V74.522H21.1719V10Z" fill="white"/>
<path fill-rule="evenodd" clip-rule="evenodd" d="M85.7019 9H21.1719C20.9067 9 20.6523 9.10536 20.4648 9.29289C20.2772 9.48043 20.1719 9.73478 20.1719 10V74.522C20.1719 74.7872 20.2772 75.0416 20.4648 75.2291C20.6523 75.4166 20.9067 75.522 21.1719 75.522H85.7019C85.9671 75.522 86.2214 75.4166 86.409 75.2291C86.5965 75.0416 86.7019 74.7872 86.7019 74.522V10C86.7019 9.73478 86.5965 9.48043 86.409 9.29289C86.2214 9.10536 85.9671 9 85.7019 9ZM84.7019 73.522H27.7279V11H84.7019V73.522Z" fill="black"/>
<path fill-rule="evenodd" clip-rule="evenodd" d="M37.8107 38.924H41.0107L41.3627 26.508H51.5767L51.6647 23.584H37.8047L37.8107 38.924Z" fill="black"/>
<path fill-rule="evenodd" clip-rule="evenodd" d="M75.0689 38.924H71.8689L71.5189 26.508H61.3009L61.2109 23.584H75.0729L75.0689 38.924Z" fill="black"/>
<path fill-rule="evenodd" clip-rule="evenodd" d="M37.8107 47.0918H41.0107L41.3627 59.5058H51.5767L51.6647 62.4318H37.8047L37.8107 47.0918Z" fill="black"/>
<path fill-rule="evenodd" clip-rule="evenodd" d="M75.0689 47.0918H71.8689L71.5189 59.5058H61.3009L61.2109 62.4318H75.0729L75.0689 47.0918Z" fill="black"/>
<path d="M48.7578 37.4036C48.7578 37.7387 48.7955 38.0705 48.8688 38.3802C48.9421 38.6898 49.0495 38.9711 49.1848 39.2081C49.3202 39.4451 49.481 39.6331 49.6579 39.7613C49.8348 39.8896 50.0243 39.9556 50.2158 39.9556C50.4073 39.9556 50.5969 39.8896 50.7738 39.7613C50.9507 39.6331 51.1114 39.4451 51.2468 39.2081C51.3822 38.9711 51.4896 38.6898 51.5628 38.3802C51.6361 38.0705 51.6738 37.7387 51.6738 37.4036C51.6738 37.0684 51.6361 36.7366 51.5628 36.427C51.4896 36.1173 51.3822 35.836 51.2468 35.599C51.1114 35.3621 50.9507 35.1741 50.7738 35.0458C50.5969 34.9176 50.4073 34.8516 50.2158 34.8516C50.0243 34.8516 49.8348 34.9176 49.6579 35.0458C49.481 35.1741 49.3202 35.3621 49.1848 35.599C49.0495 35.836 48.9421 36.1173 48.8688 36.427C48.7955 36.7366 48.7578 37.0684 48.7578 37.4036Z" fill="black"/>
<path d="M61.2109 37.4036C61.2109 38.0804 61.3645 38.7295 61.638 39.2081C61.9114 39.6867 62.2823 39.9556 62.6689 39.9556C63.0556 39.9556 63.4265 39.6867 63.6999 39.2081C63.9733 38.7295 64.1269 38.0804 64.1269 37.4036C64.1269 36.7267 63.9733 36.0776 63.6999 35.599C63.4265 35.1204 63.0556 34.8516 62.6689 34.8516C62.2823 34.8516 61.9114 35.1204 61.638 35.599C61.3645 36.0776 61.2109 36.7267 61.2109 37.4036Z" fill="black"/>
<path d="M56.5177 46.3083C56.2684 46.2176 56.0653 46.0316 55.9531 45.7912C55.841 45.5508 55.829 45.2756 55.9197 45.0263C56.0104 44.777 56.1964 44.574 56.4368 44.4618C56.6772 44.3497 56.9524 44.3376 57.2017 44.4283C59.5457 45.2823 60.5897 43.5303 59.6177 42.5723C58.235 40.811 57.3583 38.7064 57.0817 36.4843C57.0455 36.2224 57.1146 35.9567 57.2738 35.7456C57.4331 35.5344 57.6694 35.3949 57.9313 35.3577C58.1931 35.3204 58.459 35.3883 58.6709 35.5466C58.8827 35.7049 59.0232 35.9407 59.0617 36.2023C59.2811 37.9915 59.956 39.6945 61.0217 41.1483C63.5157 43.6003 60.9257 47.9103 56.5177 46.3083Z" fill="black"/>
<path d="M49.7469 48.6483C49.6247 48.415 49.5995 48.1428 49.6769 47.891C49.7542 47.6392 49.9277 47.4281 50.1598 47.3035C50.3919 47.1789 50.6637 47.1509 50.9163 47.2256C51.1689 47.3003 51.3818 47.4716 51.5089 47.7023C53.4229 51.1023 60.7949 51.0163 62.1589 47.9183C62.2633 47.681 62.4558 47.4935 62.6958 47.3955C62.9359 47.2974 63.2046 47.2964 63.4453 47.3926C63.6861 47.4889 63.8801 47.6749 63.9863 47.9114C64.0926 48.1479 64.1028 48.4164 64.0149 48.6603C62.1009 53.4883 52.2689 53.4003 49.7469 48.6483Z" fill="black"/>
<path d="M75.1055 289.186H139.627V353.708H75.1055V289.186Z" fill="white"/>
<path fill-rule="evenodd" clip-rule="evenodd" d="M139.626 288.186H75.1016C74.8363 288.186 74.582 288.291 74.3945 288.478C74.2069 288.666 74.1016 288.92 74.1016 289.186V353.708C74.1016 353.973 74.2069 354.227 74.3945 354.415C74.582 354.602 74.8363 354.708 75.1016 354.708H139.626C139.891 354.708 140.145 354.602 140.333 354.415C140.52 354.227 140.626 353.973 140.626 353.708V289.186C140.626 288.92 140.52 288.666 140.333 288.478C140.145 288.291 139.891 288.186 139.626 288.186ZM138.626 352.708H81.6596V290.186H138.626V352.708Z" fill="black"/>
<path fill-rule="evenodd" clip-rule="evenodd" d="M109.669 330.726C109.033 330.476 108.505 330.013 108.174 329.415C107.842 328.818 107.729 328.124 107.854 327.452C107.979 326.781 108.333 326.173 108.856 325.734C109.38 325.296 110.04 325.053 110.723 325.047C111.406 325.041 112.069 325.274 112.6 325.704C113.13 326.134 113.495 326.736 113.63 327.405C113.766 328.074 113.664 328.77 113.343 329.373C113.021 329.976 112.5 330.448 111.869 330.708L113.689 337.108H107.811L109.669 330.726Z" fill="black"/>
<path d="M126.272 318.924H121.812V307.124C121.811 305.305 121.105 303.558 119.842 302.248C118.611 301.155 117.166 300.331 115.599 299.83C114.031 299.328 112.376 299.16 110.74 299.336C100.504 299.494 100.374 307.484 100.374 307.554L100.248 318.93H93.8477C93.5824 318.93 93.3281 319.036 93.1405 319.223C92.953 319.411 92.8477 319.665 92.8477 319.93V341.944C92.8477 342.21 92.953 342.464 93.1405 342.651C93.3281 342.839 93.5824 342.944 93.8477 342.944H126.272C126.537 342.944 126.791 342.839 126.979 342.651C127.166 342.464 127.272 342.21 127.272 341.944V319.924C127.272 319.659 127.166 319.405 126.979 319.217C126.791 319.03 126.537 318.924 126.272 318.924ZM102.374 307.566C102.374 307.316 102.544 301.456 110.774 301.33C112.128 301.173 113.5 301.293 114.807 301.682C116.113 302.072 117.327 302.723 118.374 303.596C119.287 304.519 119.806 305.762 119.82 307.06V318.924H117.164V309.548C117.192 307.763 116.555 306.031 115.378 304.688C114.779 304.12 114.069 303.682 113.292 303.402C112.516 303.122 111.689 303.006 110.866 303.062C106.206 303.174 104.938 307.594 104.936 309.91V318.924H102.248L102.374 307.566ZM115.164 318.924H106.936V309.924C106.936 309.724 107.044 305.158 110.912 305.066C111.46 305.014 112.014 305.078 112.536 305.254C113.059 305.429 113.538 305.713 113.944 306.086C114.748 307.046 115.181 308.262 115.164 309.514V318.924ZM125.272 340.938H94.8497V320.924H125.272V340.938Z" fill="black"/>
<path d="M272.285 18.6279H319.551V65.8939H272.285V18.6279Z" fill="white"/>
<path fill-rule="evenodd" clip-rule="evenodd" d="M319.549 17.6279H272.285C272.02 17.6279 271.766 17.7333 271.578 17.9208C271.39 18.1084 271.285 18.3627 271.285 18.6279V65.8939C271.285 66.1591 271.39 66.4135 271.578 66.601C271.766 66.7886 272.02 66.8939 272.285 66.8939H319.549C319.814 66.8939 320.069 66.7886 320.256 66.601C320.444 66.4135 320.549 66.1591 320.549 65.8939V18.6279C320.549 18.3627 320.444 18.1084 320.256 17.9208C320.069 17.7333 319.814 17.6279 319.549 17.6279ZM318.549 64.8939H277.089V19.6279H318.549V64.8939Z" fill="black"/>
<path d="M288.95 49.7477C286.592 49.7477 284.75 47.0217 284.75 43.5477C284.75 40.0737 286.596 37.3477 288.95 37.3477C291.304 37.3477 293.15 40.0737 293.15 43.5477C293.15 47.0217 291.3 49.7477 288.95 49.7477ZM288.95 39.3357C287.906 39.3357 286.75 41.0637 286.75 43.5357C286.75 46.0077 287.91 47.7357 288.95 47.7357C289.99 47.7357 291.15 46.0097 291.15 43.5357C291.15 41.0617 289.992 39.3357 288.95 39.3357Z" fill="black"/>
<path d="M314.757 42.6783C312.011 41.0783 311.737 40.8463 311.407 40.8923L295.983 41.0823C295.247 36.2983 292.431 32.8203 288.955 32.8203C284.899 32.8203 281.723 37.5303 281.723 43.5423C281.723 49.5543 284.899 54.2643 288.955 54.2643C292.271 54.2643 294.969 51.0883 295.851 46.6483H299.231C299.159 50.8843 299.031 51.1503 299.451 51.5723C299.871 51.9943 299.897 51.8743 303.825 51.8343C303.982 51.832 304.136 51.7928 304.275 51.7198C304.414 51.6469 304.534 51.5422 304.625 51.4143C305.025 51.9683 305.203 51.8263 309.289 51.7603C309.551 51.7561 309.801 51.6489 309.985 51.4618C310.17 51.2747 310.273 51.0228 310.273 50.7603V46.6563C312.137 46.6563 311.303 46.9863 314.847 44.3463C314.98 44.2479 315.087 44.118 315.157 43.9682C315.228 43.8184 315.26 43.6534 315.251 43.4881C315.242 43.3227 315.192 43.1622 315.106 43.0208C315.02 42.8795 314.9 42.7618 314.757 42.6783ZM288.957 52.2643C286.121 52.2643 283.725 48.2643 283.725 43.5423C283.725 38.8203 286.125 34.8203 288.957 34.8203C291.789 34.8203 294.185 38.8203 294.185 43.5423C294.185 48.2643 291.789 52.2643 288.955 52.2643H288.957ZM301.179 49.8523L301.233 46.6523H303.595C303.425 47.7101 303.377 48.7836 303.451 49.8523H301.179ZM308.279 49.7763L305.879 49.8063C305.92 48.7516 305.853 47.6954 305.679 46.6543H308.279V49.7763ZM311.079 44.6523H296.103C296.129 44.2843 296.177 43.9223 296.177 43.5423C296.177 43.3843 296.151 43.2363 296.145 43.0803L311.145 42.8963L312.431 43.6443L311.079 44.6523Z" fill="black"/>
</svg>
