<svg width="404" height="251" viewBox="0 0 404 251" fill="none" xmlns="http://www.w3.org/2000/svg">
<path d="M87.1946 108.154C87.1141 108.155 87.0342 108.14 86.9597 108.11C86.8851 108.079 86.8173 108.034 86.7604 107.977C86.7035 107.92 86.6585 107.853 86.6283 107.778C86.598 107.704 86.583 107.624 86.5841 107.543L86.6086 105.577C86.6118 105.418 86.6775 105.265 86.7916 105.154C86.9058 105.042 87.0592 104.979 87.2191 104.979C87.3821 104.982 87.5373 105.049 87.6515 105.166C87.7657 105.282 87.8296 105.439 87.8296 105.602L87.8051 106.92H88.904C89.0652 106.92 89.2204 106.982 89.3366 107.093C89.4528 107.205 89.521 107.358 89.5267 107.519C89.5267 107.681 89.4624 107.836 89.3479 107.95C89.2334 108.065 89.0782 108.129 88.9162 108.129L87.1946 108.154ZM92.4571 108.093C92.2952 108.094 92.1393 108.031 92.0237 107.918C91.908 107.805 91.8421 107.65 91.8405 107.488C91.8389 107.326 91.9017 107.17 92.015 107.055C92.1284 106.939 92.283 106.873 92.4449 106.872L96.1201 106.835C96.2407 106.834 96.3587 106.869 96.4594 106.936C96.5601 107.002 96.6389 107.096 96.6859 107.207C96.7329 107.318 96.746 107.441 96.7235 107.559C96.7011 107.678 96.6441 107.787 96.5597 107.873C96.3155 108.117 96.5121 108.072 92.4571 108.093ZM99.661 108.019C99.4991 108.021 99.3432 107.958 99.2275 107.845C99.1119 107.731 99.046 107.577 99.0444 107.415C99.0428 107.253 99.1056 107.097 99.2189 106.981C99.3323 106.866 99.4869 106.8 99.6488 106.798L103.324 106.749C103.487 106.749 103.644 106.813 103.76 106.928C103.876 107.042 103.944 107.197 103.947 107.36C103.947 107.522 103.882 107.677 103.768 107.792C103.653 107.906 103.498 107.97 103.336 107.97L99.661 108.019ZM106.865 107.934C106.703 107.934 106.548 107.87 106.433 107.755C106.319 107.641 106.254 107.485 106.254 107.323C106.254 107.161 106.319 107.006 106.433 106.892C106.548 106.777 106.703 106.713 106.865 106.713L110.54 106.676C110.702 106.675 110.858 106.737 110.974 106.851C111.089 106.964 111.155 107.119 111.157 107.281C111.158 107.443 111.096 107.598 110.982 107.714C110.869 107.83 110.714 107.896 110.552 107.897L106.865 107.934ZM86.8283 102.488C86.5951 102.254 86.6794 102.469 86.7062 98.3735C86.7102 98.255 86.7486 98.1403 86.8167 98.0433C86.8848 97.9462 86.9796 97.8711 87.0897 97.8271C87.1997 97.7831 87.3202 97.7721 87.4364 97.7954C87.5526 97.8187 87.6595 97.8753 87.7441 97.9583C87.9883 98.2025 87.9883 98.0145 87.8784 102.061C87.8791 102.183 87.8433 102.302 87.7755 102.404C87.7077 102.505 87.6111 102.584 87.498 102.63C87.385 102.676 87.2608 102.687 87.1414 102.662C87.0221 102.637 86.913 102.576 86.8283 102.488ZM87.3656 95.4553C87.2025 95.4553 87.0459 95.3914 86.9295 95.2772C86.8131 95.1631 86.7461 95.0078 86.7429 94.8448L86.8039 91.1574C86.8042 90.9988 86.8674 90.8468 86.9795 90.7347C87.0916 90.6225 87.2436 90.5594 87.4022 90.5591C87.5672 90.5597 87.7252 90.6255 87.8418 90.7422C87.9585 90.8588 88.0243 91.0168 88.0249 91.1818L87.9639 94.857C87.9635 95.0156 87.9004 95.1676 87.7883 95.2797C87.6761 95.3918 87.5242 95.4549 87.3656 95.4553ZM78.6477 93.6238C78.5682 93.6231 78.4897 93.6068 78.4166 93.5758C78.3435 93.5447 78.2773 93.4995 78.2217 93.4428C78.1661 93.3861 78.1223 93.3189 78.0927 93.2452C78.0631 93.1715 78.0484 93.0927 78.0494 93.0133L78.0127 89.4235C78.0138 89.2665 78.0746 89.1157 78.1827 89.0017C78.2908 88.8877 78.4382 88.8191 78.5951 88.8098C78.7519 88.8005 78.9064 88.8512 79.0272 88.9515C79.1481 89.0519 79.2263 89.1944 79.2459 89.3503V92.6958C79.3071 92.794 79.3391 92.9076 79.3382 93.0233C79.3373 93.139 79.3035 93.2521 79.2408 93.3494C79.1781 93.4466 79.0891 93.524 78.9841 93.5726C78.879 93.6212 78.7624 93.639 78.6477 93.6238ZM82.274 93.5139C82.1148 93.5121 81.9624 93.4488 81.8486 93.3374C81.7349 93.2259 81.6685 93.0748 81.6635 92.9156C81.6602 92.7557 81.7197 92.6009 81.8293 92.4845C81.9389 92.368 82.0898 92.2993 82.2496 92.2929L85.9492 92.183C86.0294 92.1822 86.1089 92.1972 86.1833 92.2271C86.2577 92.2571 86.3254 92.3014 86.3827 92.3575C86.4399 92.4136 86.4856 92.4805 86.517 92.5542C86.5484 92.628 86.565 92.7072 86.5658 92.7874C86.5666 92.8676 86.5516 92.9471 86.5217 93.0215C86.4917 93.0959 86.4474 93.1636 86.3913 93.2209C86.3352 93.2781 86.2684 93.3238 86.1946 93.3552C86.1208 93.3866 86.0416 93.4032 85.9614 93.404L82.274 93.5139ZM89.4901 93.2941C89.3282 93.2973 89.1716 93.2361 89.0548 93.1239C88.9381 93.0117 88.8706 92.8577 88.8674 92.6958C88.8642 92.5339 88.9254 92.3773 89.0376 92.2606C89.1498 92.1438 89.3038 92.0764 89.4657 92.0731L93.1531 91.9632C93.315 91.9616 93.4709 92.0244 93.5866 92.1377C93.7022 92.2511 93.7681 92.4057 93.7697 92.5676C93.7713 92.7295 93.7086 92.8855 93.5952 93.0011C93.4819 93.1167 93.3272 93.1826 93.1653 93.1842L89.4901 93.2941ZM93.1165 89.5945V86.835C93.0252 86.796 92.9448 86.7352 92.8823 86.658C92.8197 86.5808 92.777 86.4895 92.7578 86.3921C92.7385 86.2946 92.7433 86.194 92.7718 86.0988C92.8003 86.0037 92.8515 85.9169 92.9211 85.846C93.1507 85.6385 93.2874 85.6629 93.7148 85.6629C93.7952 85.6619 93.875 85.677 93.9495 85.7073C94.0241 85.7377 94.0917 85.7826 94.1486 85.8395C94.2055 85.8964 94.2505 85.9641 94.2808 86.0386C94.3111 86.1131 94.3262 86.1929 94.3253 86.2734V89.5823C94.306 89.728 94.2349 89.862 94.1248 89.9595C94.0147 90.057 93.8732 90.1115 93.7262 90.113C93.5791 90.1144 93.4365 90.0628 93.3245 89.9676C93.2125 89.8723 93.1386 89.7398 93.1165 89.5945ZM87.451 88.2514C87.2883 88.2473 87.1336 88.18 87.0196 88.0637C86.9057 87.9475 86.8414 87.7915 86.8405 87.6287L86.865 86.2978C86.8649 86.138 86.9276 85.9845 87.0394 85.8704C87.1513 85.7562 87.3035 85.6905 87.4633 85.6873H89.8198C89.9391 85.6878 90.0556 85.7232 90.155 85.7891C90.2544 85.8551 90.3323 85.9487 90.3791 86.0585C90.4259 86.1683 90.4394 86.2893 90.4182 86.4067C90.3969 86.5241 90.3417 86.6327 90.2593 86.719C89.9968 86.9803 89.904 86.9083 88.0738 86.9083L88.0615 87.6348C88.0637 87.7158 88.0494 87.7965 88.0196 87.8719C87.9897 87.9472 87.945 88.0158 87.8879 88.0734C87.8309 88.131 87.7628 88.1765 87.6877 88.2071C87.6126 88.2377 87.5321 88.2527 87.451 88.2514ZM77.9883 85.8827C77.9676 81.8143 77.8894 82.0402 78.1226 81.7801C78.2125 81.7039 78.3215 81.6537 78.4378 81.6349C78.5541 81.616 78.6734 81.6293 78.7827 81.6733C78.892 81.7173 78.9872 81.7903 79.0581 81.8844C79.129 81.9785 79.1728 82.0902 79.1849 82.2075V85.8704C79.1857 85.949 79.171 86.027 79.1417 86.0999C79.1124 86.1728 79.069 86.2392 79.014 86.2953C78.959 86.3514 78.8935 86.3962 78.8212 86.427C78.7489 86.4578 78.6713 86.474 78.5927 86.4748C78.5141 86.4756 78.4362 86.461 78.3633 86.4316C78.2904 86.4023 78.224 86.3589 78.1679 86.3039C78.1117 86.2489 78.067 86.1834 78.0362 86.1111C78.0054 86.0389 77.9891 85.9612 77.9883 85.8827ZM78.5378 79.2771C78.3753 79.2782 78.2186 79.2167 78.1003 79.1052C77.9821 78.9938 77.9113 78.841 77.9028 78.6788C77.9028 74.6165 77.8406 74.8082 78.0616 74.564C78.1499 74.4889 78.2572 74.4396 78.3718 74.4215C78.4863 74.4033 78.6036 74.4171 78.7108 74.4613C78.818 74.5054 78.911 74.5782 78.9796 74.6717C79.0481 74.7652 79.0896 74.8758 79.0994 74.9914L79.1361 78.6666C79.1361 78.8264 79.0734 78.9798 78.9616 79.094C78.8497 79.2081 78.6976 79.2739 78.5378 79.2771ZM77.854 71.4627L77.8418 70.0952C77.8418 69.9353 77.9044 69.7819 78.0163 69.6677C78.1281 69.5536 78.2803 69.4879 78.4401 69.4847L80.7478 69.4358C80.8693 69.4326 80.9891 69.4658 81.0917 69.5312C81.1943 69.5965 81.275 69.6909 81.3235 69.8025C81.3721 69.914 81.3862 70.0374 81.3641 70.157C81.342 70.2766 81.2847 70.3869 81.1995 70.4737C80.9492 70.6996 80.9468 70.6532 79.0628 70.6935L79.075 71.4505C79.0758 71.5306 79.0608 71.6102 79.0309 71.6846C79.0009 71.7589 78.9566 71.8267 78.9005 71.8839C78.7872 71.9996 78.6325 72.0655 78.4706 72.0671C78.3087 72.0687 78.1528 72.0059 78.0371 71.8926C77.9215 71.7792 77.8556 71.6246 77.854 71.4627ZM84.3009 70.5958C84.2207 70.5974 84.141 70.5832 84.0663 70.554C83.9916 70.5248 83.9234 70.4812 83.8656 70.4256C83.8078 70.37 83.7615 70.3036 83.7293 70.2302C83.6971 70.1567 83.6798 70.0777 83.6782 69.9975C83.6766 69.9173 83.6908 69.8376 83.72 69.7629C83.7492 69.6882 83.7928 69.62 83.8483 69.5622C83.9039 69.5044 83.9703 69.4581 84.0438 69.4259C84.1172 69.3938 84.1963 69.3764 84.2765 69.3748L87.9517 69.3015C88.1136 69.2983 88.2701 69.3595 88.3869 69.4717C88.5037 69.5839 88.5711 69.7379 88.5744 69.8998C88.5776 70.0617 88.5164 70.2183 88.4042 70.3351C88.292 70.4518 88.138 70.5193 87.9761 70.5225L84.3009 70.5958ZM91.517 70.4615C91.4368 70.4631 91.3571 70.4489 91.2824 70.4197C91.2077 70.3905 91.1395 70.3468 91.0817 70.2913C91.0239 70.2357 90.9776 70.1693 90.9454 70.0959C90.9132 70.0224 90.8959 69.9433 90.8943 69.8632C90.8927 69.783 90.9069 69.7033 90.9361 69.6286C90.9653 69.5539 91.0089 69.4857 91.0644 69.4279C91.12 69.3701 91.1864 69.3238 91.2598 69.2916C91.3333 69.2594 91.4124 69.2421 91.4925 69.2405L92.7257 69.216V67.9096C92.7338 67.7477 92.8059 67.5956 92.9261 67.4868C93.0464 67.3781 93.2049 67.3215 93.3668 67.3296C93.5287 67.3377 93.6808 67.4098 93.7895 67.53C93.8983 67.6502 93.9548 67.8087 93.9467 67.9706V69.8143C93.9449 69.9736 93.8817 70.126 93.7702 70.2398C93.6587 70.3535 93.5076 70.4198 93.3485 70.4248L91.517 70.4615ZM92.7257 64.4297V60.7667C92.7257 60.6048 92.7901 60.4496 92.9046 60.3351C93.0191 60.2206 93.1743 60.1562 93.3362 60.1562C93.4982 60.1562 93.6534 60.2206 93.7679 60.3351C93.8824 60.4496 93.9467 60.6048 93.9467 60.7667V64.4419C93.9451 64.6039 93.8793 64.7585 93.7636 64.8718C93.648 64.9852 93.4921 65.048 93.3301 65.0463C93.1682 65.0447 93.0136 64.9788 92.9002 64.8632C92.7869 64.7476 92.7241 64.5917 92.7257 64.4297Z" fill="#090909"/>
<path d="M79.454 208.605C79.373 208.605 79.2927 208.59 79.2176 208.56C79.1424 208.53 79.074 208.485 79.0162 208.428C78.9584 208.372 78.9123 208.304 78.8805 208.23C78.8488 208.155 78.8321 208.075 78.8313 207.994C78.8305 207.913 78.8456 207.833 78.8759 207.758C78.9061 207.682 78.9509 207.614 79.0076 207.556C79.0642 207.498 79.1318 207.452 79.2063 207.421C79.2808 207.389 79.3608 207.372 79.4418 207.371L89.5028 207.237C89.6647 207.234 89.8213 207.295 89.9381 207.407C90.0548 207.519 90.1223 207.673 90.1255 207.835C90.1287 207.997 90.0675 208.154 89.9553 208.271C89.8431 208.387 89.6891 208.455 89.5272 208.458L79.454 208.605ZM99.2097 208.324C99.0478 208.325 98.8919 208.263 98.7762 208.149C98.6606 208.036 98.5947 207.881 98.5931 207.719C98.5915 207.557 98.6543 207.401 98.7676 207.286C98.881 207.17 99.0356 207.104 99.1975 207.103L101.786 207.066C101.948 207.063 102.105 207.124 102.221 207.236C102.338 207.348 102.405 207.502 102.409 207.664C102.412 207.826 102.351 207.983 102.239 208.1C102.126 208.216 101.972 208.284 101.81 208.287L99.2097 208.324ZM77.5126 200.876C77.3517 200.874 77.198 200.809 77.0849 200.695C76.9717 200.58 76.9082 200.426 76.9082 200.265V190.192C76.9082 190.03 76.9725 189.875 77.087 189.76C77.2015 189.646 77.3568 189.581 77.5187 189.581C77.6806 189.581 77.8359 189.646 77.9504 189.76C78.0649 189.875 78.1292 190.03 78.1292 190.192V200.265C78.1273 200.427 78.0615 200.583 77.9461 200.697C77.8307 200.811 77.675 200.875 77.5126 200.876ZM77.5248 181.12C77.3622 181.115 77.2076 181.048 77.0937 180.932C76.9798 180.816 76.9155 180.66 76.9143 180.497V176.48C76.9143 176.318 76.9786 176.163 77.0931 176.048C77.2076 175.934 77.3629 175.87 77.5248 175.87L83.5565 175.809C83.6781 175.805 83.7979 175.839 83.9004 175.904C84.003 175.969 84.0838 176.064 84.1323 176.175C84.1808 176.287 84.195 176.41 84.1729 176.53C84.1508 176.649 84.0935 176.76 84.0083 176.846C83.7507 177.104 83.9875 177.026 78.1353 177.078V180.509C78.1353 180.671 78.071 180.827 77.9565 180.941C77.842 181.056 77.6867 181.12 77.5248 181.12ZM93.2635 176.944C93.1015 176.946 92.9456 176.883 92.83 176.77C92.7143 176.656 92.6485 176.502 92.6469 176.34C92.6452 176.178 92.708 176.022 92.8214 175.906C92.9347 175.791 93.0893 175.725 93.2512 175.723L103.324 175.625C103.486 175.624 103.642 175.687 103.758 175.8C103.874 175.913 103.939 176.068 103.941 176.23C103.943 176.392 103.88 176.548 103.767 176.663C103.653 176.779 103.499 176.845 103.337 176.846L93.2635 176.944ZM106.182 170.106L105.974 160.021C105.972 159.941 105.987 159.861 106.016 159.786C106.045 159.712 106.089 159.644 106.144 159.586C106.2 159.528 106.266 159.482 106.34 159.449C106.413 159.417 106.492 159.4 106.572 159.398C106.734 159.398 106.889 159.46 107.005 159.571C107.121 159.683 107.189 159.836 107.195 159.997L107.403 170.082C107.406 170.244 107.345 170.401 107.232 170.517C107.12 170.634 106.966 170.702 106.804 170.705C106.724 170.706 106.644 170.692 106.57 170.663C106.495 170.634 106.427 170.59 106.369 170.535C106.252 170.422 106.185 170.268 106.182 170.106ZM121.359 155.723H111.298C111.136 155.723 110.98 155.659 110.866 155.544C110.751 155.43 110.687 155.275 110.687 155.113C110.687 154.951 110.751 154.795 110.866 154.681C110.98 154.566 111.136 154.502 111.298 154.502H121.359C121.521 154.502 121.676 154.566 121.79 154.681C121.905 154.795 121.969 154.951 121.969 155.113C121.969 155.275 121.905 155.43 121.79 155.544C121.676 155.659 121.521 155.723 121.359 155.723ZM126.157 150.79C125.995 150.79 125.84 150.726 125.725 150.611C125.611 150.497 125.547 150.342 125.547 150.18C125.571 145.894 125.595 142.585 125.62 140.094C125.62 139.45 126.804 139.203 126.804 140.107V150.192C126.795 150.356 126.722 150.51 126.601 150.622C126.481 150.733 126.321 150.794 126.157 150.79Z" fill="#090909"/>
<path d="M166.925 139.656C166.769 139.653 166.62 139.59 166.509 139.481C166.398 139.372 166.333 139.225 166.326 139.07C166.326 139.07 166.278 138.044 166.278 138.032C166.274 137.87 166.335 137.713 166.448 137.596C166.56 137.48 166.714 137.412 166.876 137.409C167.038 137.406 167.194 137.467 167.311 137.579C167.428 137.691 167.495 137.845 167.498 138.007L167.511 138.422L169.586 138.398C169.666 138.397 169.745 138.412 169.819 138.441C169.892 138.471 169.96 138.514 170.016 138.57C170.073 138.626 170.118 138.692 170.149 138.765C170.18 138.838 170.196 138.917 170.197 138.996C170.199 139.076 170.185 139.155 170.156 139.23C170.127 139.304 170.083 139.371 170.027 139.428C169.971 139.485 169.905 139.531 169.831 139.561C169.757 139.592 169.678 139.607 169.599 139.607L166.925 139.656ZM173.139 139.546C172.978 139.547 172.823 139.484 172.707 139.373C172.591 139.261 172.522 139.109 172.517 138.947C172.517 138.788 172.579 138.634 172.691 138.52C172.803 138.406 172.955 138.34 173.115 138.337L176.79 138.264C176.953 138.264 177.11 138.328 177.226 138.442C177.343 138.556 177.41 138.711 177.413 138.874C177.414 138.954 177.4 139.033 177.37 139.107C177.341 139.18 177.297 139.248 177.241 139.304C177.186 139.361 177.119 139.406 177.046 139.437C176.973 139.468 176.894 139.484 176.815 139.485L173.139 139.546ZM180.343 139.436C180.18 139.438 180.022 139.374 179.906 139.26C179.789 139.145 179.722 138.989 179.721 138.825C179.719 138.662 179.782 138.504 179.897 138.388C180.011 138.271 180.168 138.204 180.331 138.203L181.027 138.19L181.003 136.432C181.003 136.269 181.067 136.113 181.181 135.996C181.295 135.88 181.45 135.813 181.613 135.81C181.775 135.81 181.93 135.874 182.045 135.988C182.159 136.103 182.224 136.258 182.224 136.42L182.248 138.789C182.249 138.95 182.188 139.106 182.076 139.222C181.964 139.338 181.811 139.406 181.65 139.411C179.892 139.453 180.465 139.436 180.343 139.436ZM166.131 134.527L165.972 130.828C165.969 130.666 166.03 130.509 166.142 130.393C166.255 130.276 166.409 130.208 166.571 130.205C166.732 130.202 166.889 130.263 167.006 130.375C167.123 130.488 167.19 130.642 167.193 130.803L167.352 134.479C167.355 134.559 167.343 134.639 167.315 134.714C167.287 134.789 167.245 134.859 167.19 134.917C167.136 134.976 167.071 135.024 166.998 135.058C166.925 135.091 166.846 135.11 166.766 135.114C166.686 135.117 166.606 135.104 166.53 135.076C166.455 135.049 166.386 135.006 166.327 134.952C166.268 134.898 166.22 134.832 166.187 134.759C166.153 134.686 166.134 134.608 166.131 134.527ZM180.978 132.891L180.942 129.216C180.942 129.054 181.006 128.899 181.12 128.784C181.235 128.67 181.39 128.606 181.552 128.606C181.632 128.605 181.71 128.619 181.784 128.649C181.858 128.679 181.925 128.722 181.982 128.778C182.038 128.834 182.084 128.9 182.115 128.973C182.146 129.046 182.162 129.125 182.163 129.204C182.182 133.111 182.276 133.059 182.016 133.319C181.931 133.402 181.823 133.459 181.706 133.482C181.588 133.505 181.467 133.493 181.356 133.447C181.246 133.402 181.151 133.325 181.084 133.226C181.017 133.127 180.98 133.011 180.978 132.891ZM165.826 127.324L165.679 123.624C165.676 123.462 165.737 123.305 165.849 123.189C165.962 123.072 166.116 123.005 166.278 123.001C166.439 122.998 166.596 123.059 166.713 123.171C166.83 123.284 166.897 123.438 166.9 123.6L167.047 127.275C167.05 127.355 167.037 127.435 167.01 127.51C166.982 127.586 166.94 127.655 166.885 127.714C166.831 127.773 166.765 127.82 166.692 127.854C166.62 127.888 166.541 127.907 166.461 127.91C166.38 127.913 166.3 127.9 166.225 127.873C166.15 127.845 166.081 127.803 166.022 127.748C165.963 127.694 165.915 127.628 165.881 127.555C165.848 127.483 165.829 127.404 165.826 127.324ZM180.917 125.687L180.881 122.012C180.88 121.932 180.895 121.853 180.925 121.778C180.955 121.704 180.999 121.636 181.055 121.579C181.111 121.522 181.178 121.476 181.252 121.444C181.326 121.413 181.405 121.396 181.485 121.396C181.565 121.395 181.645 121.41 181.719 121.44C181.793 121.47 181.861 121.514 181.918 121.57C181.976 121.626 182.021 121.693 182.053 121.767C182.084 121.841 182.101 121.92 182.102 122C182.12 125.733 182.224 125.865 181.955 126.103C181.871 126.186 181.764 126.242 181.647 126.266C181.531 126.289 181.411 126.278 181.301 126.234C181.191 126.19 181.096 126.115 181.028 126.018C180.96 125.921 180.921 125.806 180.917 125.687ZM165.533 120.12L165.374 116.42C165.371 116.258 165.432 116.102 165.544 115.985C165.656 115.868 165.81 115.801 165.972 115.797C166.134 115.794 166.291 115.855 166.408 115.968C166.524 116.08 166.592 116.234 166.595 116.396L166.754 120.071C166.756 120.232 166.696 120.387 166.587 120.505C166.478 120.623 166.328 120.695 166.168 120.706C166.087 120.709 166.007 120.696 165.932 120.669C165.857 120.641 165.788 120.599 165.729 120.544C165.67 120.49 165.622 120.424 165.588 120.352C165.555 120.279 165.536 120.2 165.533 120.12ZM181.467 119.082C181.305 119.082 181.15 119.018 181.035 118.903C180.921 118.789 180.856 118.633 180.856 118.471C180.838 114.752 180.741 114.618 180.991 114.369C181.078 114.291 181.185 114.239 181.301 114.219C181.416 114.198 181.534 114.21 181.643 114.253C181.752 114.296 181.847 114.369 181.917 114.462C181.987 114.556 182.03 114.667 182.041 114.784L182.077 118.459C182.078 118.623 182.015 118.78 181.9 118.896C181.786 119.013 181.63 119.08 181.467 119.082ZM165.227 112.916L165.142 110.877L164.69 110.889C164.569 110.892 164.449 110.859 164.346 110.794C164.244 110.728 164.163 110.634 164.114 110.522C164.066 110.411 164.052 110.287 164.074 110.168C164.096 110.048 164.153 109.938 164.238 109.851C164.473 109.617 164.605 109.662 165.716 109.656C165.876 109.652 166.031 109.712 166.147 109.822C166.263 109.931 166.332 110.082 166.339 110.242L166.448 112.867C166.455 113.029 166.397 113.187 166.287 113.306C166.177 113.425 166.024 113.495 165.862 113.502C165.7 113.508 165.543 113.45 165.424 113.34C165.304 113.23 165.234 113.078 165.227 112.916ZM180.795 111.267L180.759 107.592C180.757 107.512 180.771 107.432 180.8 107.358C180.829 107.283 180.873 107.215 180.929 107.157C180.984 107.099 181.051 107.053 181.124 107.021C181.198 106.989 181.277 106.971 181.357 106.97C181.522 106.967 181.681 107.03 181.8 107.144C181.919 107.258 181.988 107.415 181.992 107.58C181.992 111.637 182.048 111.468 181.833 111.683C181.748 111.766 181.642 111.822 181.525 111.846C181.409 111.869 181.289 111.858 181.179 111.814C181.069 111.77 180.974 111.695 180.906 111.598C180.838 111.501 180.799 111.386 180.795 111.267ZM143.054 111.121C142.974 111.122 142.894 111.107 142.82 111.077C142.746 111.047 142.678 111.003 142.621 110.946C142.563 110.89 142.518 110.823 142.486 110.75C142.455 110.676 142.438 110.597 142.438 110.517C142.437 110.436 142.452 110.357 142.482 110.282C142.512 110.208 142.556 110.14 142.612 110.083C142.668 110.026 142.735 109.98 142.809 109.949C142.883 109.917 142.962 109.901 143.042 109.9L146.717 109.863C146.863 109.883 146.997 109.954 147.094 110.064C147.192 110.174 147.246 110.315 147.248 110.462C147.249 110.609 147.198 110.752 147.102 110.864C147.007 110.976 146.875 111.05 146.729 111.072L143.054 111.121ZM150.258 111.035C150.137 111.036 150.019 111.001 149.919 110.935C149.818 110.869 149.739 110.774 149.692 110.663C149.645 110.552 149.632 110.43 149.655 110.311C149.677 110.193 149.734 110.084 149.818 109.998C150.086 109.753 149.89 109.797 153.921 109.778C154.042 109.777 154.16 109.812 154.26 109.878C154.361 109.945 154.44 110.039 154.487 110.15C154.534 110.261 154.547 110.384 154.524 110.502C154.502 110.621 154.445 110.73 154.361 110.816C154.143 111.057 154.337 111.015 150.258 111.035ZM157.474 110.962C157.312 110.964 157.156 110.901 157.041 110.788C156.925 110.674 156.859 110.52 156.858 110.358C156.856 110.196 156.919 110.04 157.032 109.924C157.145 109.809 157.3 109.743 157.462 109.741L161.137 109.705C161.299 109.703 161.455 109.766 161.571 109.879C161.686 109.992 161.752 110.147 161.754 110.309C161.755 110.471 161.693 110.627 161.579 110.742C161.466 110.858 161.311 110.924 161.149 110.926L157.474 110.962ZM181.345 104.65C181.183 104.649 181.027 104.587 180.909 104.476C180.792 104.365 180.72 104.213 180.71 104.051V100.376C180.707 100.297 180.721 100.219 180.749 100.145C180.777 100.072 180.82 100.005 180.874 99.9477C180.929 99.8909 180.994 99.8455 181.067 99.8142C181.139 99.783 181.217 99.7665 181.296 99.7657C181.458 99.7645 181.615 99.8261 181.733 99.9375C181.851 100.049 181.922 100.202 181.931 100.364V104.039C181.934 104.118 181.922 104.197 181.894 104.271C181.866 104.345 181.823 104.413 181.768 104.47C181.714 104.527 181.648 104.572 181.575 104.603C181.502 104.634 181.424 104.65 181.345 104.65ZM180.649 96.8353C180.649 92.7486 180.586 92.9525 180.807 92.7327C180.895 92.6549 181.002 92.6031 181.118 92.5835C181.233 92.5638 181.352 92.577 181.46 92.6216C181.568 92.6662 181.662 92.7403 181.73 92.8356C181.798 92.9308 181.838 93.0432 181.845 93.1601L181.882 96.8231C181.883 96.9041 181.867 96.9844 181.837 97.0595C181.807 97.1346 181.762 97.2031 181.706 97.2609C181.649 97.3187 181.581 97.3648 181.507 97.3965C181.432 97.4282 181.352 97.445 181.271 97.4458C181.19 97.4466 181.11 97.4314 181.035 97.4012C180.96 97.371 180.891 97.3262 180.834 97.2695C180.776 97.2128 180.73 97.1453 180.698 97.0708C180.666 96.9963 180.649 96.9163 180.649 96.8353ZM180.6 89.6314L180.563 85.9562C180.562 85.876 180.577 85.7965 180.607 85.7221C180.637 85.6477 180.682 85.58 180.738 85.5227C180.794 85.4655 180.861 85.4198 180.934 85.3884C181.008 85.357 181.087 85.3404 181.168 85.3396C181.248 85.3388 181.327 85.3538 181.402 85.3837C181.476 85.4137 181.544 85.458 181.601 85.5141C181.658 85.5702 181.704 85.6371 181.735 85.7108C181.767 85.7846 181.783 85.8638 181.784 85.944C181.802 89.6619 181.899 89.7975 181.65 90.0466C181.566 90.1337 181.458 90.1939 181.34 90.2196C181.221 90.2452 181.098 90.2352 180.986 90.1907C180.873 90.1462 180.777 90.0693 180.708 89.9697C180.639 89.8701 180.601 89.7524 180.6 89.6314ZM181.149 83.0258C180.987 83.0258 180.832 82.9615 180.718 82.847C180.603 82.7325 180.539 82.5772 180.539 82.4153C180.52 78.6827 180.417 78.5509 180.685 78.3128C180.772 78.2353 180.878 78.1836 180.993 78.1634C181.107 78.1432 181.225 78.1554 181.333 78.1985C181.441 78.2417 181.534 78.3141 181.603 78.4076C181.672 78.5012 181.714 78.6121 181.723 78.7279L181.76 82.4031C181.761 82.4843 181.747 82.565 181.717 82.6405C181.687 82.716 181.642 82.7847 181.585 82.8427C181.528 82.9007 181.461 82.9468 181.386 82.9782C181.311 83.0096 181.23 83.0258 181.149 83.0258ZM180.478 75.2114C180.458 71.3042 180.369 71.3665 180.612 71.0967C180.701 71.0199 180.809 70.9692 180.925 70.9501C181.041 70.931 181.159 70.9443 181.268 70.9886C181.377 71.0328 181.471 71.1062 181.541 71.2007C181.61 71.2952 181.652 71.4071 181.662 71.524L181.699 75.1992C181.699 75.2794 181.684 75.3589 181.655 75.4333C181.625 75.5077 181.58 75.5754 181.524 75.6327C181.411 75.7483 181.256 75.8142 181.094 75.8158C180.932 75.8175 180.776 75.7547 180.661 75.6413C180.545 75.528 180.479 75.3734 180.478 75.2114ZM181.027 68.6058C180.865 68.6058 180.71 68.5415 180.595 68.427C180.481 68.3125 180.417 68.1573 180.417 67.9953C180.398 64.2774 180.301 64.1407 180.551 63.8928C180.64 63.8156 180.748 63.7642 180.863 63.744C180.979 63.7239 181.098 63.7359 181.208 63.7787C181.317 63.8215 181.413 63.8934 181.484 63.9867C181.556 64.08 181.6 64.1911 181.613 64.3079V67.9831C181.618 68.063 181.606 68.1431 181.579 68.2183C181.552 68.2935 181.509 68.3624 181.454 68.4207C181.399 68.479 181.333 68.5254 181.26 68.5573C181.186 68.5891 181.107 68.6056 181.027 68.6058ZM180.966 61.3898C180.804 61.3889 180.649 61.3266 180.531 61.2156C180.413 61.1046 180.342 60.953 180.331 60.7915V57.1163C180.328 57.0368 180.341 56.9576 180.369 56.8832C180.397 56.8088 180.44 56.7406 180.494 56.6827C180.549 56.6248 180.614 56.5783 180.687 56.5458C180.759 56.5134 180.838 56.4956 180.917 56.4936C181.081 56.4952 181.238 56.5593 181.356 56.6728C181.474 56.7863 181.544 56.9405 181.552 57.1041V60.7793C181.555 60.858 181.541 60.9365 181.513 61.0101C181.485 61.0837 181.442 61.1508 181.387 61.2077C181.333 61.2646 181.267 61.31 181.195 61.3412C181.123 61.3725 181.045 61.389 180.966 61.3898ZM198.132 54.833C198.05 54.8337 197.969 54.818 197.893 54.7869C197.817 54.7558 197.749 54.71 197.691 54.652C197.633 54.594 197.587 54.5251 197.556 54.4493C197.525 54.3734 197.51 54.2922 197.511 54.2103V53.8928C197.51 53.7567 197.555 53.6242 197.638 53.5165C197.721 53.4087 197.838 53.3319 197.97 53.2982C198.102 53.2645 198.241 53.2759 198.366 53.3306C198.491 53.3852 198.594 53.48 198.658 53.5998L201.467 53.551C201.547 53.5501 201.626 53.5651 201.701 53.5951C201.775 53.625 201.843 53.6693 201.9 53.7254C201.957 53.7816 202.003 53.8484 202.034 53.9222C202.066 53.9959 202.082 54.0752 202.083 54.1553C202.084 54.2355 202.069 54.3151 202.039 54.3894C202.009 54.4638 201.965 54.5316 201.909 54.5888C201.853 54.6461 201.786 54.6917 201.712 54.7231C201.638 54.7546 201.559 54.7711 201.479 54.7719L198.132 54.833ZM205.02 54.7231C204.898 54.7263 204.778 54.6931 204.676 54.6278C204.573 54.5625 204.493 54.468 204.444 54.3565C204.395 54.245 204.381 54.1215 204.403 54.0019C204.425 53.8823 204.483 53.7721 204.568 53.6853C204.785 53.4411 204.624 53.474 208.671 53.4411C208.751 53.4395 208.83 53.4537 208.905 53.4829C208.98 53.5121 209.048 53.5557 209.106 53.6112C209.164 53.6668 209.21 53.7332 209.242 53.8067C209.274 53.8801 209.292 53.9592 209.293 54.0393C209.295 54.1195 209.281 54.1992 209.251 54.2739C209.222 54.3486 209.179 54.4168 209.123 54.4746C209.067 54.5324 209.001 54.5788 208.928 54.6109C208.854 54.6431 208.775 54.6605 208.695 54.6621L205.02 54.7231ZM212.224 54.601C212.062 54.6024 211.907 54.5405 211.791 54.4286C211.675 54.3168 211.607 54.1639 211.602 54.0027C211.601 53.9215 211.615 53.8408 211.645 53.7653C211.675 53.6899 211.72 53.6211 211.777 53.5631C211.833 53.5051 211.901 53.4591 211.976 53.4276C212.051 53.3962 212.131 53.38 212.213 53.38L213.116 53.3678V51.8049C213.116 51.643 213.18 51.4877 213.295 51.3732C213.409 51.2587 213.565 51.1944 213.727 51.1944C213.889 51.1944 214.044 51.2587 214.158 51.3732C214.273 51.4877 214.337 51.643 214.337 51.8049V53.9661C214.337 54.1259 214.275 54.2794 214.163 54.3935C214.051 54.5077 213.899 54.5734 213.739 54.5766L212.224 54.601ZM180.905 54.1859C180.74 54.1872 180.582 54.1241 180.463 54.01C180.345 53.8959 180.275 53.7399 180.27 53.5754C180.27 49.5156 180.214 49.6877 180.429 49.4728C180.515 49.3954 180.622 49.3436 180.736 49.3235C180.851 49.3033 180.969 49.3154 181.076 49.3586C181.184 49.4017 181.278 49.4742 181.347 49.5677C181.416 49.6612 181.457 49.7721 181.467 49.888L181.503 53.5632C181.505 53.6433 181.491 53.723 181.462 53.7977C181.432 53.8724 181.389 53.9406 181.333 53.9985C181.278 54.0563 181.211 54.1026 181.138 54.1348C181.064 54.1669 180.985 54.1843 180.905 54.1859ZM197.547 50.3519V46.6767C197.547 45.9991 198.768 45.8062 198.768 46.6889V50.3641C198.767 50.4443 198.751 50.5235 198.719 50.5973C198.688 50.6711 198.642 50.7379 198.585 50.794C198.528 50.8502 198.46 50.8945 198.386 50.9244C198.311 50.9543 198.232 50.9693 198.152 50.9685C198.071 50.9677 197.992 50.9512 197.918 50.9197C197.845 50.8883 197.778 50.8427 197.722 50.7854C197.666 50.7282 197.621 50.6604 197.591 50.586C197.561 50.5117 197.546 50.4321 197.547 50.3519ZM213.115 48.264V44.5888C213.115 44.4269 213.179 44.2716 213.294 44.1571C213.408 44.0427 213.564 43.9783 213.725 43.9783C213.887 43.9783 214.043 44.0427 214.157 44.1571C214.272 44.2716 214.336 44.4269 214.336 44.5888V48.264C214.336 48.4259 214.272 48.5812 214.157 48.6957C214.043 48.8102 213.887 48.8745 213.725 48.8745C213.564 48.8745 213.408 48.8102 213.294 48.6957C213.179 48.5812 213.115 48.4259 213.115 48.264ZM180.221 46.3593L180.185 42.6963C180.183 42.5344 180.246 42.3784 180.359 42.2628C180.472 42.1472 180.627 42.0813 180.789 42.0797C180.951 42.0781 181.107 42.1408 181.223 42.2542C181.338 42.3675 181.404 42.5222 181.406 42.6841C181.424 46.402 181.52 46.5375 181.271 46.7866C181.187 46.8745 181.078 46.9349 180.958 46.9602C180.839 46.9855 180.715 46.9744 180.602 46.9284C180.489 46.8824 180.392 46.8036 180.324 46.7022C180.256 46.6007 180.221 46.4813 180.221 46.3593ZM197.584 43.1358L197.619 39.4729C197.616 39.3919 197.628 39.3111 197.657 39.2353C197.685 39.1594 197.729 39.0901 197.785 39.0316C197.841 38.973 197.908 38.9264 197.983 38.8946C198.057 38.8627 198.137 38.8463 198.218 38.8463C198.299 38.8463 198.379 38.8627 198.454 38.8946C198.528 38.9264 198.596 38.973 198.652 39.0316C198.708 39.0901 198.751 39.1594 198.779 39.2353C198.808 39.3111 198.821 39.3919 198.817 39.4729V43.1481C198.816 43.229 198.8 43.3091 198.768 43.3836C198.736 43.4581 198.69 43.5256 198.632 43.5823C198.574 43.639 198.506 43.6837 198.431 43.714C198.356 43.7442 198.275 43.7594 198.194 43.7586C198.113 43.7578 198.033 43.741 197.959 43.7093C197.884 43.6776 197.817 43.6315 197.76 43.5736C197.703 43.5158 197.659 43.4474 197.628 43.3723C197.598 43.2972 197.583 43.2168 197.584 43.1358ZM213.115 41.0479V37.3849C213.115 37.223 213.179 37.0678 213.294 36.9533C213.408 36.8388 213.564 36.7745 213.725 36.7745C213.887 36.7745 214.043 36.8388 214.157 36.9533C214.272 37.0678 214.336 37.223 214.336 37.3849V41.0479C214.336 41.2099 214.272 41.3651 214.157 41.4796C214.043 41.5941 213.887 41.6584 213.725 41.6584C213.564 41.6584 213.408 41.5941 213.294 41.4796C213.179 41.3651 213.115 41.2099 213.115 41.0479ZM180.771 39.7537C180.611 39.7537 180.457 39.6911 180.343 39.5792C180.229 39.4673 180.163 39.3152 180.16 39.1554L180.136 37.2506C180.136 37.0856 180.202 36.9274 180.319 36.8107C180.435 36.694 180.593 36.6283 180.759 36.6279H182.517C182.679 36.6279 182.834 36.6923 182.948 36.8067C183.063 36.9212 183.127 37.0765 183.127 37.2384C183.127 37.4003 183.063 37.5556 182.948 37.6701C182.834 37.7846 182.679 37.8489 182.517 37.8489H181.369L181.381 39.1432C181.381 39.3051 181.317 39.4604 181.202 39.5749C181.088 39.6894 180.933 39.7537 180.771 39.7537ZM220.795 37.8489H217.12C216.958 37.8489 216.803 37.7846 216.688 37.6701C216.574 37.5556 216.509 37.4003 216.509 37.2384C216.509 37.0765 216.574 36.9212 216.688 36.8067C216.803 36.6923 216.958 36.6279 217.12 36.6279H220.795C220.957 36.6279 221.112 36.6923 221.227 36.8067C221.341 36.9212 221.406 37.0765 221.406 37.2384C221.406 37.4003 221.341 37.5556 221.227 37.6701C221.112 37.7846 220.957 37.8489 220.795 37.8489ZM196.937 37.8489H193.262C193.1 37.8489 192.944 37.7846 192.83 37.6701C192.715 37.5556 192.651 37.4003 192.651 37.2384C192.651 37.0765 192.715 36.9212 192.83 36.8067C192.944 36.6923 193.1 36.6279 193.262 36.6279H196.937C197.099 36.6279 197.254 36.6923 197.368 36.8067C197.483 36.9212 197.547 37.0765 197.547 37.2384C197.547 37.4003 197.483 37.5556 197.368 37.6701C197.254 37.7846 197.099 37.8489 196.937 37.8489ZM189.721 37.8489H186.058C185.896 37.8489 185.74 37.7846 185.626 37.6701C185.511 37.5556 185.447 37.4003 185.447 37.2384C185.447 37.0765 185.511 36.9212 185.626 36.8067C185.74 36.6923 185.896 36.6279 186.058 36.6279H189.721C189.883 36.6279 190.038 36.6923 190.152 36.8067C190.267 36.9212 190.331 37.0765 190.331 37.2384C190.331 37.4003 190.267 37.5556 190.152 37.6701C190.038 37.7846 189.883 37.8489 189.721 37.8489Z" fill="#090909"/>
<path fill-rule="evenodd" clip-rule="evenodd" d="M141.453 89.0411L136.31 120.637C136.218 121.268 135.928 121.853 135.481 122.308C135.034 122.763 134.454 123.064 133.824 123.167C131.416 123.837 123.017 123.404 123.017 123.404C123.017 123.404 121.65 123.565 121.404 120.941L122.075 119.88C122.066 119.578 122.197 118.949 121.44 118.732C121.954 111.201 125.208 83.7737 128.415 83.8116C131.952 83.858 141.602 85.5442 141.453 89.0411Z" fill="white"/>
<path fill-rule="evenodd" clip-rule="evenodd" d="M121.37 107.609C120.051 106.687 117.542 115.379 117.542 115.379C117.542 115.379 115.166 117.91 115.238 119.554C115.313 120.642 115.581 121.708 116.029 122.702C115.984 123.716 116.322 124.71 116.977 125.485C118.918 127.636 121.109 129.545 123.505 131.174C124.67 131.881 126.403 134.638 127.616 136.494C128.83 138.35 132.684 141.529 133.895 142.538C135.106 143.546 143.702 156.956 146.078 161.259C148.454 165.562 165.848 191.844 174.754 191.142C183.66 190.44 202.192 183.01 202.192 183.01L229.128 143.983C229.128 143.983 220.947 146.413 204.606 156.417C189.12 165.895 178.221 167.678 178.221 167.678C178.221 167.678 168.646 161.17 163.984 158.039C159.322 154.909 146.747 142.911 144.985 136.577C143.223 130.242 143.095 126.347 140.834 121.638C139.507 118.907 138.4 116.074 137.525 113.166L136.143 120.927L137.98 125.617L134.212 123.038C130.26 123.744 126.217 123.77 122.256 123.115C121.843 122.464 121.618 121.711 121.605 120.939C122.049 120.163 122.442 119.549 121.587 118.707C121.373 116.138 122.99 108.742 121.37 107.609Z" fill="white"/>
<path d="M142.059 89.0688C142.24 84.9992 132.327 83.2288 128.426 83.208C124.185 83.1824 121.132 114.359 120.842 118.575C120.831 118.737 120.884 118.897 120.991 119.02C121.097 119.142 121.248 119.217 121.41 119.229C121.572 119.24 121.732 119.187 121.854 119.08C121.977 118.974 122.052 118.823 122.063 118.661C122.693 109.68 124.953 93.6305 126.947 87.2019L140.516 90.9699L135.799 120.017L121.88 119.651C121.791 119.65 121.703 119.669 121.622 119.706C121.541 119.744 121.47 119.799 121.413 119.868C121.357 119.937 121.316 120.017 121.295 120.104C121.274 120.191 121.273 120.281 121.291 120.368C121.143 120.396 121.011 120.478 120.92 120.598C120.828 120.718 120.785 120.867 120.797 121.017C120.799 121.502 120.898 121.981 121.086 122.427C121.275 122.873 121.55 123.277 121.896 123.616C122.199 123.876 122.585 124.019 122.985 124.016C125.216 124.127 131.823 124.359 133.987 123.757C134.732 123.628 135.417 123.266 135.944 122.723C136.47 122.181 136.811 121.485 136.918 120.737L142.059 89.0688ZM127.345 86.042C127.719 85.0761 128.078 84.495 128.41 84.4266C131.477 84.4657 138.266 85.6683 140.308 87.8307C140.627 88.1171 140.821 88.5176 140.847 88.9455L140.715 89.7538L127.345 86.042ZM133.664 122.58C131.379 123.216 123.135 122.799 122.975 122.798C122.704 122.798 122.161 122.402 122.017 120.9L122.008 120.875L135.506 121.229C135.315 121.574 135.051 121.873 134.733 122.106C134.415 122.339 134.05 122.502 133.664 122.58Z" fill="#090909"/>
<path d="M137.656 126.441C136.808 125.906 133.913 123.633 133.79 123.539C133.698 123.466 133.628 123.368 133.59 123.257C133.552 123.146 133.546 123.026 133.575 122.912C133.603 122.798 133.663 122.694 133.749 122.614C133.835 122.533 133.942 122.479 134.057 122.458C134.462 122.374 134.835 122.175 135.129 121.885C135.424 121.594 135.628 121.225 135.717 120.821C135.743 120.678 135.819 120.549 135.932 120.458C136.045 120.366 136.186 120.318 136.331 120.321C136.476 120.325 136.615 120.38 136.724 120.476C136.832 120.573 136.902 120.705 136.922 120.849C136.998 121.401 137.965 124.123 138.557 125.711C138.602 125.831 138.609 125.962 138.575 126.086C138.542 126.211 138.47 126.321 138.37 126.402C138.27 126.483 138.148 126.53 138.019 126.537C137.891 126.544 137.764 126.51 137.656 126.441ZM135.396 123.241C135.785 123.543 136.264 123.912 136.728 124.263C136.534 123.717 136.328 123.125 136.153 122.589C135.937 122.846 135.682 123.066 135.396 123.241Z" fill="#090909"/>
<path d="M139.865 139.72C139.722 139.72 139.582 139.669 139.472 139.576C139.362 139.483 139.289 139.354 139.265 139.212C138.737 136.117 135.266 133.009 133.669 131.99C132.072 130.97 126.929 127.875 126.877 127.838C126.805 127.798 126.743 127.744 126.692 127.68C126.642 127.615 126.606 127.541 126.585 127.462C126.564 127.383 126.559 127.3 126.571 127.22C126.582 127.139 126.61 127.061 126.652 126.991C126.694 126.921 126.75 126.86 126.816 126.812C126.883 126.764 126.958 126.729 127.038 126.711C127.117 126.693 127.2 126.69 127.28 126.704C127.361 126.719 127.438 126.749 127.507 126.793C127.558 126.824 132.704 129.921 134.326 130.956C135.714 131.842 139.82 135.222 140.467 139.002C140.483 139.09 140.479 139.18 140.456 139.267C140.433 139.353 140.392 139.433 140.334 139.502C140.277 139.57 140.205 139.625 140.124 139.663C140.043 139.701 139.955 139.72 139.865 139.72Z" fill="#090909"/>
<path d="M127.389 97.7168C125.958 99.2026 125.028 101.1 124.73 103.141C124.433 105.183 124.782 107.266 125.729 109.099C128.972 114.863 136.498 112.295 137.562 105.013C138.619 97.7693 132.176 93.0953 127.389 97.7168ZM131.146 109.004L128.667 104.078L130.001 103.156L131.146 105.976L134.496 100.686L135.459 102.001L131.146 109.004Z" fill="#090909"/>
<path d="M206.068 127.931C205.824 127.931 211.04 130.861 135.154 87.2714C135.048 87.2104 134.962 87.1189 134.909 87.0089C134.856 86.8988 134.836 86.7752 134.854 86.6541C134.872 86.5331 134.925 86.4201 135.008 86.3298C135.091 86.2396 135.198 86.1763 135.317 86.1481L212.654 67.8185C212.81 67.7847 212.974 67.8136 213.109 67.8989C213.244 67.9842 213.341 68.1192 213.377 68.2747C213.414 68.4303 213.388 68.5941 213.306 68.731C213.223 68.8678 213.09 68.9667 212.935 69.0065L137.099 86.9796L206.372 126.796C206.486 126.864 206.575 126.968 206.625 127.091C206.674 127.214 206.683 127.35 206.648 127.478C206.614 127.606 206.539 127.72 206.434 127.802C206.329 127.883 206.201 127.929 206.068 127.931Z" fill="#090909"/>
<path fill-rule="evenodd" clip-rule="evenodd" d="M252.535 120.851C252.564 117.254 260.402 106.829 254.188 85.103C247.974 63.3766 213.806 75.4388 213.806 75.4388C213.806 75.4388 206.788 86.7367 206.877 89.8857C206.966 93.0346 208.83 93.0371 206.081 96.5035C203.331 99.9699 202.836 101.375 201.515 102.876C200.194 104.376 198.918 106.489 200.709 107.47C202.501 108.452 206.041 109.621 205.242 110.908L203.927 113.026C204.158 113.664 204.571 114.22 205.116 114.625C205.66 115.03 206.312 115.266 206.989 115.304C206.528 116.262 206.249 117.297 206.165 118.357C207.142 118.888 208.016 119.591 208.744 120.433C209.338 121.397 207.808 128.591 212.792 129.321C216.357 129.659 219.953 129.291 223.375 128.24L229.48 143.258C229.48 143.258 219.769 155.923 215.645 164.8C215.645 164.8 244.04 133.19 265.852 144.617C265.852 144.617 259.719 136.702 256.861 132.225C254.002 127.748 252.505 124.448 252.535 120.851Z" fill="white"/>
<path fill-rule="evenodd" clip-rule="evenodd" d="M213.923 94.6679C214.71 95.5299 210.85 96.3394 210.85 96.3394C210.54 95.8378 210.345 95.2742 210.278 94.6886C210.211 94.103 210.274 93.5098 210.462 92.9512C211.755 93.1846 212.955 93.7799 213.923 94.6679Z" fill="white"/>
<path d="M207.855 89.5213C208.595 88.4806 209.707 87.7641 210.96 87.5201C211.697 87.4385 212.444 87.5144 213.149 87.7428C213.855 87.9711 214.504 88.3468 215.054 88.8448C215.181 88.9454 215.263 89.0923 215.282 89.2533C215.301 89.4143 215.255 89.5761 215.154 89.7032C215.054 89.8303 214.907 89.9123 214.746 89.931C214.585 89.9498 214.423 89.9039 214.296 89.8033C213.878 89.4138 213.383 89.1164 212.843 88.9305C212.303 88.7445 211.73 88.6742 211.162 88.724C210.241 88.9143 209.424 89.4405 208.87 90.2002C208.778 90.3316 208.639 90.422 208.482 90.4517C208.325 90.4815 208.162 90.4483 208.029 90.3593C207.896 90.2703 207.803 90.1326 207.771 89.9758C207.738 89.8191 207.768 89.6559 207.855 89.5213Z" fill="#090909"/>
<path d="M214.374 94.2563C213.315 93.2697 211.996 92.6081 210.572 92.3503C210.067 92.26 209.604 92.0131 209.247 91.6446C209.196 91.5829 209.133 91.5318 209.062 91.4944C208.991 91.457 208.913 91.4339 208.833 91.4265C208.754 91.419 208.673 91.4274 208.596 91.4511C208.52 91.4748 208.449 91.5134 208.387 91.5646C208.325 91.6158 208.274 91.6787 208.237 91.7497C208.199 91.8206 208.176 91.8983 208.169 91.9781C208.161 92.058 208.17 92.1386 208.193 92.2152C208.217 92.2919 208.256 92.3631 208.307 92.4248C208.717 92.8704 209.233 93.2062 209.806 93.4016C209.643 93.803 209.563 94.2334 209.572 94.6666C209.572 97.7337 212.529 97.3332 212.088 94.1342C212.603 94.3618 213.073 94.6817 213.473 95.078C213.526 95.1403 213.591 95.1912 213.664 95.2277C213.738 95.2642 213.818 95.2857 213.899 95.2907C213.981 95.2958 214.063 95.2843 214.14 95.2571C214.217 95.2298 214.288 95.1874 214.349 95.1322C214.409 95.077 214.458 95.0102 214.492 94.9357C214.526 94.8613 214.545 94.7808 214.547 94.699C214.55 94.6172 214.535 94.5357 214.506 94.4594C214.476 94.3832 214.431 94.3149 214.374 94.2563Z" fill="#090909"/>
<path d="M237.042 108.285C236.775 108.482 236.187 108.865 235.924 109.064C235.859 109.111 235.804 109.171 235.763 109.24C235.721 109.309 235.693 109.385 235.681 109.464C235.669 109.544 235.673 109.625 235.693 109.703C235.712 109.781 235.746 109.854 235.794 109.919C237.395 112.096 237.043 120.584 230.289 120.387C223.257 120.165 222.276 112.738 225.464 109.431C226.305 108.502 227.391 107.831 228.598 107.494C229.804 107.157 231.081 107.169 232.281 107.529C232.433 107.584 232.601 107.576 232.748 107.508C232.894 107.439 233.008 107.315 233.063 107.163C233.176 106.848 233.373 106.224 233.486 105.911C233.541 105.759 233.534 105.591 233.465 105.445C233.396 105.298 233.272 105.185 233.12 105.13C231.459 104.614 229.685 104.582 228.007 105.038C226.329 105.495 224.816 106.421 223.645 107.707C222.471 109.04 221.688 110.672 221.384 112.421C221.08 114.171 221.266 115.971 221.922 117.622C223.24 120.861 226.281 122.792 230.268 122.917C231.802 123.043 233.339 122.705 234.68 121.948C236.021 121.191 237.104 120.049 237.789 118.671C240.395 113.718 238.464 107.235 237.042 108.285Z" fill="#090909"/>
<path fill-rule="evenodd" clip-rule="evenodd" d="M284.255 110.473C283.758 108.08 285.165 105.782 289.307 102.924C293.448 100.065 291.557 92.1067 291.557 92.1067C294.881 83.8039 288.955 81.9456 288.955 81.9456C288.555 75.9371 282.71 74.2533 282.71 74.2533C290.646 72.7063 285.584 63.9969 285.584 63.9969C285.436 65.966 284.766 67.86 283.642 69.4841C281.826 71.9578 279.857 68.9578 275.812 68.3974C271.767 67.837 269.529 70.3156 266.981 71.7222C261.59 57.29 246.685 60.4658 232.02 62.5146C217.355 64.5635 212.392 69.8834 212.573 71.7332C212.754 73.583 212.993 76.202 217.174 77.8101C221.355 79.4181 225.599 81.4926 230.159 80.8626C230.159 80.8626 229.444 93.2325 234.974 96.1604C234.974 96.1604 237.337 89.2972 241.671 90.8247C244.689 91.8882 246.093 98.3949 243.538 101.195L240.363 104.663C240.363 104.663 239.508 111.703 242.855 116.541C242.316 118.069 241.677 119.56 240.943 121.004C239.959 123.021 240.132 131.749 245.654 130.735C246.377 130.638 247.073 130.395 247.699 130.021C248.326 129.646 248.869 129.148 249.297 128.557C249.725 127.965 250.028 127.293 250.187 126.581C250.347 125.869 250.36 125.132 250.226 124.414C250.133 125.262 249.708 126.037 249.045 126.573C248.381 127.108 247.533 127.359 246.685 127.271C244.789 127.107 245.154 123.617 246.06 119.517C247.974 120.557 250.13 121.07 252.308 121.004C254.972 118.744 257.519 116.348 259.937 113.826L259.954 113.721C261.17 114.475 262.578 114.864 264.009 114.84C263.596 117.385 263.98 119.995 265.108 122.313C266.998 126.514 272.513 125.411 272.513 125.411C272.513 125.411 274.273 130.722 271.164 132.234C268.055 133.745 263.472 130.817 263.472 130.817C273.287 140.903 280.233 129.169 282.124 124.666C282.658 123.267 282.884 121.769 282.787 120.274C282.691 118.78 282.273 117.324 281.562 116.005C285.94 120.558 292.147 110.899 292.147 110.899C289.06 115.417 284.752 112.866 284.255 110.473Z" fill="#81F889"/>
<path d="M269.319 108.002C268.73 107.58 268.247 107.026 267.908 106.385C267.569 105.744 267.383 105.032 267.366 104.307C267.324 100.78 271.29 97.4246 271.46 97.283C271.584 97.1791 271.744 97.1287 271.905 97.143C272.067 97.1573 272.216 97.2351 272.32 97.3593C272.424 97.4835 272.474 97.6439 272.46 97.8052C272.445 97.9665 272.368 98.1156 272.243 98.2195C272.206 98.2513 268.55 101.348 268.587 104.295C268.604 104.839 268.747 105.371 269.007 105.849C269.266 106.327 269.633 106.738 270.08 107.049C273.976 110.155 280.273 110.956 283.173 106.853C281.4 108.154 278.786 109.471 276.213 108.576C271.732 107.025 269.102 103.498 272.317 100.073C272.371 100.012 272.437 99.9626 272.51 99.9276C272.584 99.8925 272.664 99.8726 272.745 99.8689C272.827 99.8652 272.908 99.8779 272.985 99.9062C273.061 99.9345 273.131 99.9778 273.191 100.034C273.25 100.089 273.298 100.156 273.331 100.231C273.364 100.306 273.382 100.386 273.383 100.467C273.385 100.549 273.37 100.63 273.34 100.706C273.309 100.781 273.264 100.85 273.207 100.908C270.6 103.688 273.134 106.218 276.611 107.422C280.29 108.696 284.425 104.125 284.468 104.077C284.56 103.974 284.683 103.905 284.819 103.881C284.954 103.857 285.094 103.88 285.215 103.946C285.336 104.011 285.432 104.116 285.486 104.242C285.54 104.369 285.55 104.51 285.513 104.643C283.449 112.207 274.723 112.316 269.319 108.002Z" fill="#090909"/>
<path fill-rule="evenodd" clip-rule="evenodd" d="M255.991 210.061C255.991 210.061 263.806 204.022 267.974 182.575C272.679 158.378 261.126 146.459 254.956 145.977C248.786 145.494 237.194 152.769 230.161 167.354C223.128 181.939 223.09 198.898 221.913 207.72C220.736 216.542 214.932 249.198 214.932 249.198L244.739 248.628C244.739 248.628 250.868 228.062 255.991 210.061Z" fill="white"/>
<path d="M291.66 110.55C290.494 112.249 289.026 113.014 287.508 112.714C286.893 112.597 286.321 112.315 285.853 111.899C285.386 111.482 285.04 110.946 284.853 110.349C284.4 108.166 285.881 106.03 289.652 103.425C293.764 100.586 292.467 93.4502 292.192 92.1572C294.412 86.4539 292.538 82.8776 289.53 81.5198C289.352 80.0011 288.797 78.551 287.916 77.3009C287.035 76.0508 285.856 75.0404 284.486 74.3611C285.729 73.9058 286.742 72.9793 287.306 71.7824C288.828 68.4295 286.223 63.8715 286.111 63.6798C286.045 63.565 285.944 63.4748 285.822 63.4228C285.7 63.3708 285.565 63.3599 285.436 63.3916C285.308 63.4233 285.193 63.4959 285.109 63.5986C285.025 63.7012 284.977 63.8283 284.972 63.9607C284.826 65.808 284.197 67.5846 283.148 69.112C281.745 71.0278 279.873 68.3331 275.895 67.7824C272.059 67.2488 269.844 69.2354 267.276 70.8227C261.547 56.8545 246.634 59.841 231.935 61.8996C217.341 63.9375 211.727 69.3477 211.966 71.8153C212.011 73.1163 212.381 74.3852 213.045 75.5052C211.684 77.7225 206.178 86.8922 206.262 89.9032C206.358 93.228 208.129 92.93 205.6 96.1242C203.026 99.3708 202.217 101.152 201.054 102.473C199.665 104.051 199.057 105.398 199.245 106.476C199.307 106.804 199.445 107.114 199.648 107.379C199.85 107.645 200.112 107.86 200.412 108.007C201.734 108.731 204.543 109.793 204.72 110.587C203.297 112.877 203.239 112.846 203.336 113.19C203.551 113.817 203.918 114.381 204.406 114.83C204.894 115.279 205.486 115.599 206.129 115.761C205.777 116.592 205.581 117.48 205.55 118.382C205.554 118.486 205.585 118.588 205.639 118.677C205.694 118.766 205.77 118.84 205.861 118.891C206.751 119.362 207.547 119.99 208.212 120.746C208.606 121.656 207.286 129.141 212.701 129.932C216.168 130.286 219.67 129.966 223.015 128.99L228.698 142.956C228.075 143.28 227.487 143.668 226.944 144.113C223.611 145.394 216.118 148.656 204.29 155.898C190.333 164.445 180.02 166.709 178.359 167.034C176.937 166.069 168.583 160.394 164.327 157.533C159.603 154.358 147.26 142.47 145.576 136.41C143.838 130.166 143.681 126.147 141.383 121.369C140.073 118.67 138.979 115.872 138.112 113C138.069 112.843 137.965 112.711 137.824 112.631C137.683 112.552 137.516 112.531 137.36 112.575C137.204 112.618 137.071 112.722 136.992 112.863C136.912 113.004 136.892 113.171 136.935 113.327C137.819 116.27 138.938 119.137 140.283 121.899C142.499 126.51 142.646 130.428 144.399 136.737C146.23 143.303 158.97 155.401 163.645 158.542C178.882 168.78 177.886 168.349 178.322 168.278C178.432 168.259 189.517 166.367 204.927 156.933C211.22 152.992 217.764 149.469 224.52 146.388C217.369 153.936 207.495 170.875 201.387 182.67C198.197 183.919 182.548 189.913 174.709 190.53C166.487 191.197 149.467 166.128 146.614 160.96C144.66 157.43 138.53 147.744 135.644 143.752C136.121 143.85 136.609 143.887 137.095 143.861C137.257 143.852 137.408 143.778 137.516 143.656C137.623 143.535 137.678 143.376 137.668 143.214C137.658 143.052 137.585 142.9 137.463 142.793C137.342 142.685 137.182 142.631 137.02 142.64C136.036 142.653 135.064 142.426 134.188 141.979C131.8 140.17 129.661 138.055 127.826 135.688C126.572 133.764 125.018 131.368 123.825 130.645C121.499 129.062 119.368 127.209 117.476 125.125C116.956 124.488 116.658 123.698 116.629 122.876C118.256 119.943 121.355 117.954 121.431 119.742C120.675 121.052 119.595 122.145 118.294 122.917C118.162 123.006 118.071 123.144 118.039 123.3C118.008 123.456 118.039 123.618 118.125 123.752C118.211 123.886 118.346 123.981 118.502 124.016C118.657 124.052 118.82 124.025 118.956 123.942C119.085 123.858 119.233 123.753 119.382 123.645C120.825 124.389 122.174 125.303 123.399 126.368C123.517 126.48 123.674 126.54 123.836 126.535C123.998 126.531 124.151 126.462 124.263 126.344C124.374 126.227 124.434 126.07 124.43 125.908C124.425 125.746 124.357 125.592 124.239 125.481C123.075 124.449 121.794 123.556 120.423 122.82C121.56 121.836 122.688 120.577 122.653 119.703C122.662 119.454 122.618 119.207 122.525 118.976C122.432 118.746 122.292 118.537 122.113 118.365C121.934 118.192 121.721 118.059 121.487 117.974C121.254 117.889 121.005 117.854 120.757 117.871C121.408 116.982 121.736 115.897 121.683 114.796C121.754 114.754 121.816 114.699 121.865 114.633C121.914 114.566 121.948 114.491 121.967 114.411C122.298 112.969 123.259 108.184 121.723 107.111C121.594 107.018 121.445 106.959 121.288 106.938C121.132 106.916 120.972 106.934 120.824 106.989C119.353 107.509 117.687 112.704 116.999 115.07C116.482 115.638 114.557 117.879 114.631 119.58C114.704 120.691 114.967 121.783 115.409 122.805C115.417 123.908 115.795 124.977 116.482 125.84C118.47 128.063 120.726 130.031 123.198 131.7C124.285 132.362 126.327 135.628 127.113 136.829C128.32 138.676 131.836 141.611 133.514 143.007C134.621 143.929 143.09 157.097 145.552 161.554C147.566 165.203 164.819 191.767 174.42 191.766C180.189 191.766 195.139 186.394 200.549 184.311C199.001 187.352 197.741 189.976 196.918 191.881C191.825 203.623 197.512 211.832 199.238 218.254C200.931 224.567 196.872 249.19 196.832 249.437C196.818 249.525 196.822 249.614 196.846 249.7C196.869 249.785 196.911 249.865 196.969 249.932C197.026 250 197.097 250.054 197.178 250.091C197.258 250.129 197.346 250.148 197.434 250.148L270.212 249.293C270.369 249.292 270.519 249.229 270.631 249.12C270.743 249.01 270.809 248.862 270.815 248.705C271.074 241.81 276.127 186.998 275.37 170.073C274.626 153.352 266.823 144.759 266.326 144.231C266.136 143.987 260.16 136.257 257.38 131.899C254.799 127.858 253.197 124.621 253.157 121.083C254.385 120.023 257.892 116.949 260.131 114.521C261.116 115.038 262.197 115.345 263.306 115.424C263.083 117.871 263.515 120.332 264.558 122.556C266.245 126.31 270.529 126.236 272.077 126.079C272.394 127.333 273.003 130.658 270.905 131.678C268.147 133.021 263.856 130.323 263.812 130.295C263.686 130.214 263.535 130.182 263.387 130.206C263.238 130.229 263.104 130.306 263.009 130.423C262.914 130.539 262.866 130.686 262.872 130.836C262.879 130.986 262.941 131.128 263.046 131.235C265.74 134.004 268.453 135.4 271.129 135.4C276.488 135.4 280.67 129.737 282.699 124.899C283.64 122.576 283.718 119.992 282.92 117.615C286.481 118.863 290.64 114.387 292.673 111.225C292.749 111.091 292.771 110.933 292.736 110.783C292.7 110.633 292.609 110.502 292.48 110.417C292.352 110.331 292.196 110.297 292.044 110.322C291.892 110.347 291.754 110.428 291.66 110.55ZM121.121 108.219C121.487 108.805 121.4 111.04 120.922 113.438C120.57 113.264 120.176 113.193 119.786 113.233C119.396 113.273 119.025 113.424 118.716 113.666C119.233 111.738 120.044 109.9 121.121 108.219ZM116.171 121.315C115.992 120.734 115.884 120.134 115.85 119.527C115.804 118.518 117.133 116.71 117.983 115.803C118.581 115.181 119.685 114.359 120.172 114.429C120.215 114.429 120.285 114.445 120.367 114.599C120.956 115.714 119.353 117.964 118.365 118.92C117.517 119.603 116.777 120.41 116.171 121.315ZM204.608 113.086L204.721 112.903C206.36 113.347 208.048 113.58 209.745 113.597C208.927 114.173 207.984 114.546 206.993 114.685C206.492 114.645 206.009 114.478 205.591 114.198C205.173 113.918 204.835 113.535 204.608 113.086ZM207.246 118.308C207.074 118.195 206.914 118.092 206.786 118.015C206.898 117.27 207.109 116.542 207.415 115.853C208.197 115.718 208.951 115.454 209.647 115.07C208.875 116.234 207.899 117.5 207.246 118.308ZM267.374 182.46C264.367 197.928 259.51 205.268 257.159 208.062C260.256 197.204 262.861 187.662 263.352 184.654C263.369 184.573 263.369 184.49 263.353 184.409C263.337 184.328 263.304 184.252 263.258 184.184C263.211 184.116 263.151 184.058 263.082 184.014C263.012 183.97 262.934 183.94 262.853 183.927C262.771 183.914 262.688 183.917 262.608 183.937C262.528 183.956 262.453 183.992 262.387 184.042C262.321 184.091 262.266 184.154 262.225 184.225C262.184 184.296 262.158 184.375 262.148 184.457C260.914 192.008 245.631 243.226 244.058 248.477H215.662C222.546 209.582 222.594 207.845 223.176 201.374C224.02 191.972 225.176 179.097 230.711 167.62C237.753 153.019 248.736 146.566 254.381 146.566C257.589 146.566 260.764 149.419 262.706 151.973C265.858 156.115 270.656 165.585 267.374 182.46ZM256.351 132.562C258.251 135.536 261.9 140.621 263.985 143.345C246.235 136.019 225.656 153.955 218.085 161.416C221.684 155.258 225.653 149.323 229.969 143.644C230.272 143.251 230.401 143.914 223.94 128.024C223.881 127.881 223.771 127.766 223.632 127.701C223.492 127.636 223.333 127.626 223.186 127.674C219.852 128.692 216.351 129.052 212.88 128.732C209.919 128.299 209.605 125.25 209.537 122.163C209.499 120.461 209.559 120.128 208.231 119.039C209.698 117.335 210.935 115.447 211.91 113.422C212.074 113.263 212.192 113.141 212.211 113.122C212.302 113.022 212.357 112.894 212.368 112.759C212.379 112.624 212.344 112.489 212.27 112.376C212.196 112.262 212.086 112.177 211.958 112.133C211.83 112.089 211.691 112.089 211.562 112.133C209.813 112.721 206.819 112.147 205.4 111.815L205.759 111.236C205.938 110.941 206.002 110.591 205.939 110.251C205.876 109.912 205.69 109.607 205.417 109.396C206.09 109.785 206.833 110.039 207.604 110.142C209.27 110.142 209.642 108.37 209.59 106.7C209.588 106.62 209.57 106.541 209.537 106.468C209.504 106.395 209.457 106.329 209.398 106.274C209.34 106.219 209.271 106.176 209.196 106.148C209.121 106.12 209.041 106.106 208.961 106.109C208.881 106.111 208.802 106.13 208.729 106.163C208.656 106.196 208.59 106.243 208.535 106.301C208.424 106.419 208.364 106.576 208.369 106.738C208.419 108.346 208.047 108.75 207.881 108.851C207.637 109 207.175 108.903 206.604 108.591C205.693 108.142 204.708 107.864 203.698 107.77C203.6 107.765 203.503 107.784 203.413 107.824C203.324 107.864 203.246 107.925 203.185 108.002C202.351 107.599 201.567 107.254 200.998 106.941C200.858 106.883 200.735 106.791 200.639 106.674C200.543 106.557 200.477 106.418 200.448 106.269C200.325 105.604 200.885 104.517 201.969 103.285C202.572 102.573 203.12 101.815 203.608 101.018C207.231 95.4404 208.858 95.1156 207.881 92.0167C207.637 91.3273 207.501 90.6047 207.476 89.8739C207.412 87.615 211.704 80.0583 213.859 76.5113C215.258 77.6835 216.887 78.5498 218.642 79.0546C222.106 80.4356 225.67 81.8629 229.515 81.5503C229.452 84.3086 229.605 94.0155 234.679 96.7029C234.757 96.7442 234.843 96.7682 234.931 96.7731C235.019 96.778 235.107 96.7638 235.19 96.7314C235.272 96.6991 235.346 96.6493 235.407 96.5856C235.468 96.5218 235.514 96.4457 235.543 96.3623C235.556 96.3256 236.858 92.6236 239.152 91.5173C243.548 89.394 245.85 98.2255 243.035 100.84C241.12 103.492 236.406 106.266 233.474 107.577C233.326 107.643 233.211 107.766 233.153 107.917C233.095 108.069 233.1 108.237 233.166 108.385C233.232 108.533 233.355 108.648 233.506 108.706C233.657 108.764 233.826 108.759 233.974 108.693C235.905 107.799 237.766 106.757 239.538 105.578C239.473 107.884 239.69 112.776 242.206 116.583C241.688 118.002 241.085 119.388 240.402 120.735C239.03 123.553 239.85 132.423 245.775 131.334C251.823 130.227 250.849 124.363 250.838 124.305C250.812 124.161 250.736 124.032 250.623 123.94C250.51 123.847 250.368 123.799 250.222 123.802C250.077 123.806 249.937 123.861 249.829 123.959C249.72 124.056 249.651 124.19 249.632 124.334C249.605 124.679 249.508 125.016 249.347 125.322C249.186 125.629 248.964 125.899 248.694 126.117C248.425 126.335 248.114 126.495 247.781 126.589C247.447 126.683 247.098 126.707 246.755 126.661C245.269 126.529 246.213 121.864 246.519 120.383C248.227 121.174 250.084 121.587 251.965 121.595C252.135 125.222 253.771 128.521 256.351 132.562ZM246.644 127.879C247.13 127.942 247.623 127.908 248.096 127.779C248.569 127.65 249.011 127.429 249.397 127.128C249.106 127.942 248.59 128.656 247.909 129.188C247.227 129.72 246.409 130.048 245.549 130.134C244.974 130.281 244.369 130.251 243.812 130.047C243.255 129.843 242.773 129.475 242.43 128.991C241.739 127.812 241.306 126.499 241.158 125.141C241.011 123.782 241.153 122.407 241.576 121.107C242.682 118.848 245.268 113.556 244.126 109.354C243.709 107.415 242.575 105.705 240.952 104.566C241.944 103.827 242.849 102.979 243.653 102.037C244.949 103.079 248.612 106.504 247.493 111.246C246.084 117.178 242.593 127.525 246.645 127.876L246.644 127.879ZM242.689 115.036C241.33 112.203 240.668 109.086 240.759 105.945C241.863 106.928 242.632 108.233 242.957 109.676C243.333 111.455 243.241 113.301 242.69 115.034L242.689 115.036ZM252.091 120.391C250.246 120.4 248.426 119.972 246.778 119.141C247.379 116.5 248.121 113.862 248.67 111.528C249.952 106.101 245.847 102.249 244.382 101.07C246.701 97.7151 245.084 91.3806 241.871 90.2475C238.574 89.0827 236.053 92.0521 234.667 95.2536C230.737 92.3879 230.689 83.6199 230.742 81.4075C233.92 81.0157 237.038 80.2286 240.021 79.0644C243.878 77.4661 250.888 75.4356 254.479 79.797C254.529 79.8633 254.591 79.9188 254.662 79.9603C254.734 80.0017 254.813 80.0282 254.895 80.0382C254.977 80.0481 255.06 80.0413 255.14 80.0181C255.219 79.9949 255.293 79.9559 255.357 79.9033C255.421 79.8508 255.473 79.7858 255.511 79.7124C255.549 79.639 255.572 79.5586 255.577 79.4762C255.583 79.3937 255.573 79.3109 255.546 79.2328C255.519 79.1547 255.476 79.0828 255.421 79.0217C251.333 74.0546 243.725 76.2134 239.548 77.9338C236.492 79.0815 233.31 79.8603 230.07 80.2536C225.705 80.9606 221.491 78.8226 217.383 77.2378C214.067 75.9631 213.417 74.2024 213.17 71.6725C213.048 70.4344 217.477 65.1475 232.096 63.106C246.504 61.0925 260.849 58.0193 266.215 71.4735C263.729 73.2891 263.908 77.2549 264.085 78.7994C258.364 79.9582 257.765 88.3293 257.716 89.2707C256.591 93.4111 259.611 97.1217 260.855 98.4282C257.23 101.683 256.424 108.523 257.716 111.837C258.012 112.6 258.492 113.279 259.112 113.813C256.758 116.355 252.947 119.659 252.096 120.389L252.091 120.391ZM282.013 115.582C281.909 115.475 281.769 115.409 281.621 115.398C281.472 115.386 281.324 115.43 281.205 115.52C281.086 115.61 281.004 115.741 280.975 115.887C280.946 116.034 280.971 116.186 281.047 116.315C281.709 117.551 282.098 118.915 282.188 120.314C282.279 121.714 282.069 123.117 281.572 124.428C279.913 128.383 276.5 133.283 272.345 134.074C270.571 134.369 268.751 134.003 267.229 133.047C268.621 133.442 270.105 133.35 271.438 132.786C274.987 131.059 273.177 125.46 273.099 125.216C273.052 125.074 272.955 124.954 272.826 124.879C272.697 124.804 272.545 124.779 272.398 124.809C272.351 124.819 267.342 125.775 265.671 122.061C264.609 119.862 264.24 117.392 264.611 114.979C264.633 114.887 264.633 114.791 264.612 114.699C264.591 114.607 264.549 114.522 264.489 114.449C264.429 114.376 264.353 114.318 264.266 114.279C264.18 114.241 264.086 114.223 263.992 114.227C263.953 114.227 260.01 114.349 258.864 111.398C257.67 108.333 258.662 101.544 262.138 98.9666C262.211 98.9129 262.271 98.8437 262.314 98.764C262.356 98.6842 262.381 98.596 262.385 98.5057C262.39 98.4154 262.374 98.3252 262.339 98.2417C262.305 98.1582 262.252 98.0834 262.185 98.0228C262.14 97.9813 257.692 93.8824 258.92 89.532C258.933 89.4858 258.941 89.4383 258.943 89.3904C258.943 89.3025 259.37 80.4844 264.847 79.9179C264.93 79.9091 265.011 79.8832 265.084 79.8418C265.158 79.8003 265.221 79.7441 265.272 79.6768C265.322 79.6095 265.358 79.5326 265.377 79.4507C265.397 79.3688 265.399 79.2839 265.384 79.2011C265.374 79.1474 264.435 73.8117 267.275 72.2415C267.886 71.9032 268.486 71.5089 269.066 71.1169C272.77 68.642 274.821 68.0888 279.42 70.2207C281.118 71.007 282.717 71.7518 284.133 69.83C284.947 68.6906 285.535 67.4057 285.865 66.0449C287.322 69.8923 286.696 72.8398 282.593 73.6407C282.458 73.6669 282.336 73.7374 282.247 73.8411C282.157 73.9448 282.105 74.0756 282.099 74.2124C282.093 74.3492 282.133 74.4841 282.213 74.5955C282.292 74.7068 282.407 74.7881 282.539 74.8263C282.761 74.891 287.98 76.4832 288.346 81.9789C288.354 82.1015 288.399 82.2189 288.475 82.3156C288.55 82.4123 288.654 82.4839 288.771 82.521C289.944 82.9787 290.899 83.867 291.44 85.0045C292.263 86.7603 292.111 89.0705 290.991 91.8727C290.943 91.9889 290.934 92.1171 290.964 92.239C290.981 92.3134 292.712 99.8189 288.96 102.411C284.726 105.334 283.091 107.856 283.659 110.592C283.974 111.695 284.684 112.645 285.653 113.26C286.622 113.876 287.783 114.114 288.916 113.931C286.778 116.106 284.114 117.759 282.018 115.58L282.013 115.582Z" fill="#090909"/>
<path d="M73.6113 17.543H113.002V56.9336H73.6113V17.543Z" fill="white"/>
<path fill-rule="evenodd" clip-rule="evenodd" d="M113.006 16.9326H73.6105C73.4486 16.9326 73.2933 16.9969 73.1788 17.1114C73.0643 17.2259 73 17.3812 73 17.5431V56.9337C73 57.0956 73.0643 57.2509 73.1788 57.3654C73.2933 57.4799 73.4486 57.5442 73.6105 57.5442H113.006C113.168 57.5442 113.323 57.4799 113.438 57.3654C113.552 57.2509 113.616 57.0956 113.616 56.9337V17.5431C113.616 17.3812 113.552 17.2259 113.438 17.1114C113.323 16.9969 113.168 16.9326 113.006 16.9326ZM112.395 56.3232H77.6129V18.1536H112.395V56.3232Z" fill="#090909"/>
<path fill-rule="evenodd" clip-rule="evenodd" d="M83.7693 35.202H85.7229L85.9378 27.622H92.1734L92.2271 25.8369H83.7656L83.7693 35.202Z" fill="#090909"/>
<path fill-rule="evenodd" clip-rule="evenodd" d="M106.515 35.202H104.561L104.348 27.622H98.1096L98.0547 25.8369H106.517L106.515 35.202Z" fill="#090909"/>
<path fill-rule="evenodd" clip-rule="evenodd" d="M83.7693 40.1875H85.7229L85.9378 47.7662H92.1734L92.2271 49.5525H83.7656L83.7693 40.1875Z" fill="#090909"/>
<path fill-rule="evenodd" clip-rule="evenodd" d="M106.515 40.1875H104.561L104.348 47.7662H98.1096L98.0547 49.5525H106.517L106.515 40.1875Z" fill="#090909"/>
<path d="M90.4531 34.2738C90.4531 34.4784 90.4761 34.681 90.5209 34.87C90.5656 35.0591 90.6312 35.2308 90.7138 35.3755C90.7965 35.5202 90.8946 35.6349 91.0026 35.7132C91.1106 35.7915 91.2263 35.8318 91.3432 35.8318C91.4601 35.8318 91.5759 35.7915 91.6839 35.7132C91.7919 35.6349 91.89 35.5202 91.9726 35.3755C92.0553 35.2308 92.1209 35.0591 92.1656 34.87C92.2103 34.681 92.2333 34.4784 92.2333 34.2738C92.2333 34.0692 92.2103 33.8666 92.1656 33.6776C92.1209 33.4886 92.0553 33.3168 91.9726 33.1721C91.89 33.0275 91.7919 32.9127 91.6839 32.8344C91.5759 32.7561 91.4601 32.7158 91.3432 32.7158C91.2263 32.7158 91.1106 32.7561 91.0026 32.8344C90.8946 32.9127 90.7965 33.0275 90.7138 33.1721C90.6312 33.3168 90.5656 33.4886 90.5209 33.6776C90.4761 33.8666 90.4531 34.0692 90.4531 34.2738Z" fill="#090909"/>
<path d="M98.0547 34.2738C98.0547 34.687 98.1485 35.0833 98.3154 35.3755C98.4823 35.6677 98.7087 35.8318 98.9448 35.8318C99.1809 35.8318 99.4073 35.6677 99.5742 35.3755C99.7411 35.0833 99.8349 34.687 99.8349 34.2738C99.8349 33.8606 99.7411 33.4643 99.5742 33.1721C99.4073 32.88 99.1809 32.7158 98.9448 32.7158C98.7087 32.7158 98.4823 32.88 98.3154 33.1721C98.1485 33.4643 98.0547 33.8606 98.0547 34.2738Z" fill="#090909"/>
<path d="M95.189 39.7091C95.0368 39.6537 94.9128 39.5401 94.8444 39.3933C94.7759 39.2466 94.7685 39.0786 94.8239 38.9264C94.8793 38.7742 94.9929 38.6502 95.1396 38.5818C95.2864 38.5133 95.4544 38.506 95.6066 38.5613C97.0376 39.0827 97.6749 38.0131 97.0815 37.4282C96.2374 36.353 95.7022 35.0681 95.5333 33.7115C95.5112 33.5516 95.5534 33.3894 95.6506 33.2605C95.7478 33.1316 95.8922 33.0464 96.052 33.0237C96.2118 33.0009 96.3742 33.0424 96.5035 33.139C96.6329 33.2357 96.7186 33.3796 96.7421 33.5394C96.8761 34.6317 97.2881 35.6713 97.9387 36.5589C99.4613 38.0558 97.8801 40.6871 95.189 39.7091Z" fill="#090909"/>
<path d="M91.0559 41.1378C90.9814 40.9953 90.966 40.8292 91.0132 40.6754C91.0604 40.5217 91.1664 40.3928 91.308 40.3168C91.4497 40.2407 91.6157 40.2236 91.7699 40.2692C91.9241 40.3148 92.0541 40.4194 92.1316 40.5602C93.3001 42.6359 97.8007 42.5834 98.6335 40.6921C98.6972 40.5472 98.8148 40.4328 98.9613 40.3729C99.1078 40.313 99.2719 40.3124 99.4189 40.3712C99.5658 40.4299 99.6843 40.5435 99.7491 40.6879C99.814 40.8322 99.8202 40.9962 99.7665 41.1451C98.598 44.0926 92.5956 44.0389 91.0559 41.1378Z" fill="#090909"/>
<path d="M106.537 187.986H145.928V227.377H106.537V187.986Z" fill="white"/>
<path fill-rule="evenodd" clip-rule="evenodd" d="M145.926 187.375H106.534C106.372 187.375 106.217 187.439 106.103 187.554C105.988 187.668 105.924 187.824 105.924 187.985V227.376C105.924 227.538 105.988 227.693 106.103 227.808C106.217 227.922 106.372 227.987 106.534 227.987H145.926C146.088 227.987 146.243 227.922 146.358 227.808C146.472 227.693 146.537 227.538 146.537 227.376V187.985C146.537 187.824 146.472 187.668 146.358 187.554C146.243 187.439 146.088 187.375 145.926 187.375ZM145.316 226.766H110.538V188.596H145.316V226.766Z" fill="#090909"/>
<path fill-rule="evenodd" clip-rule="evenodd" d="M127.636 213.346C127.248 213.193 126.925 212.91 126.723 212.546C126.521 212.181 126.452 211.757 126.528 211.347C126.604 210.937 126.821 210.567 127.14 210.299C127.46 210.031 127.862 209.882 128.279 209.879C128.696 209.876 129.102 210.017 129.425 210.28C129.749 210.543 129.972 210.91 130.054 211.319C130.137 211.727 130.075 212.152 129.879 212.52C129.683 212.888 129.365 213.176 128.979 213.335L130.09 217.242H126.502L127.636 213.346Z" fill="#090909"/>
<path d="M137.772 206.14H135.05V198.937C135.049 197.826 134.618 196.759 133.847 195.96C133.096 195.292 132.214 194.789 131.257 194.483C130.3 194.177 129.289 194.074 128.29 194.182C122.041 194.278 121.962 199.156 121.962 199.199L121.885 206.144H117.978C117.816 206.144 117.66 206.208 117.546 206.323C117.432 206.437 117.367 206.593 117.367 206.755V220.194C117.367 220.356 117.432 220.511 117.546 220.626C117.66 220.74 117.816 220.805 117.978 220.805H137.772C137.934 220.805 138.09 220.74 138.204 220.626C138.319 220.511 138.383 220.356 138.383 220.194V206.751C138.383 206.589 138.319 206.434 138.204 206.319C138.09 206.205 137.934 206.14 137.772 206.14ZM123.183 199.206C123.183 199.054 123.287 195.476 128.311 195.399C129.138 195.303 129.975 195.376 130.773 195.614C131.571 195.852 132.312 196.25 132.951 196.783C133.509 197.346 133.825 198.105 133.834 198.898V206.14H132.212V200.416C132.229 199.326 131.841 198.269 131.122 197.449C130.756 197.102 130.323 196.835 129.849 196.664C129.374 196.493 128.87 196.423 128.367 196.457C125.522 196.525 124.748 199.224 124.747 200.637V206.14H123.106L123.183 199.206ZM130.991 206.14H125.968V200.646C125.968 200.524 126.034 197.736 128.395 197.68C128.73 197.648 129.068 197.687 129.387 197.795C129.706 197.902 129.999 198.075 130.246 198.303C130.737 198.889 131.002 199.631 130.991 200.396V206.14ZM137.162 219.58H118.589V207.361H137.162V219.58Z" fill="#090909"/>
<path d="M226.914 22.8105H255.77V51.6664H226.914V22.8105Z" fill="white"/>
<path fill-rule="evenodd" clip-rule="evenodd" d="M255.768 22.2002H226.913C226.751 22.2002 226.596 22.2645 226.482 22.379C226.367 22.4935 226.303 22.6488 226.303 22.8107V51.6665C226.303 51.8284 226.367 51.9837 226.482 52.0982C226.596 52.2127 226.751 52.277 226.913 52.277H255.768C255.93 52.277 256.085 52.2127 256.2 52.0982C256.314 51.9837 256.378 51.8284 256.378 51.6665V22.8107C256.378 22.6488 256.314 22.4935 256.2 22.379C256.085 22.2645 255.93 22.2002 255.768 22.2002ZM255.157 51.056H229.846V23.4212H255.157V51.056Z" fill="#090909"/>
<path d="M237.088 41.8085C235.648 41.8085 234.523 40.1442 234.523 38.0234C234.523 35.9025 235.65 34.2383 237.088 34.2383C238.525 34.2383 239.652 35.9025 239.652 38.0234C239.652 40.1442 238.522 41.8085 237.088 41.8085ZM237.088 35.452C236.45 35.452 235.744 36.5069 235.744 38.016C235.744 39.5252 236.453 40.5801 237.088 40.5801C237.722 40.5801 238.431 39.5264 238.431 38.016C238.431 36.5057 237.724 35.452 237.088 35.452Z" fill="#090909"/>
<path d="M252.843 37.4939C251.167 36.5171 250.999 36.3754 250.798 36.4035L241.381 36.5195C240.932 33.5989 239.213 31.4756 237.091 31.4756C234.615 31.4756 232.676 34.351 232.676 38.0214C232.676 41.6917 234.615 44.5671 237.091 44.5671C239.115 44.5671 240.762 42.6282 241.301 39.9176H243.364C243.32 42.5036 243.242 42.666 243.499 42.9237C243.755 43.1813 243.771 43.108 246.169 43.0836C246.265 43.0822 246.359 43.0583 246.444 43.0137C246.529 42.9692 246.602 42.9053 246.657 42.8272C246.902 43.1654 247.01 43.0787 249.505 43.0384C249.665 43.0359 249.818 42.9704 249.93 42.8562C250.043 42.742 250.106 42.5882 250.106 42.4279V39.9224C251.243 39.9224 250.734 40.1239 252.898 38.5122C252.979 38.4521 253.044 38.3728 253.087 38.2814C253.131 38.1899 253.15 38.0892 253.145 37.9882C253.139 37.8873 253.109 37.7893 253.056 37.703C253.004 37.6167 252.93 37.5448 252.843 37.4939ZM237.092 43.3461C235.361 43.3461 233.898 40.9041 233.898 38.0214C233.898 35.1386 235.363 32.6966 237.092 32.6966C238.821 32.6966 240.284 35.1386 240.284 38.0214C240.284 40.9041 238.821 43.3461 237.091 43.3461H237.092ZM244.554 41.8736L244.587 39.92H246.029C245.925 40.5658 245.896 41.2212 245.941 41.8736H244.554ZM248.888 41.8272L247.423 41.8455C247.448 41.2016 247.407 40.5568 247.301 39.9212H248.888V41.8272ZM250.598 38.699H241.455C241.471 38.4743 241.5 38.2533 241.5 38.0214C241.5 37.9249 241.484 37.8345 241.48 37.7393L250.638 37.627L251.423 38.0836L250.598 38.699Z" fill="#090909"/>
</svg>
