<svg width="670" height="468" viewBox="0 0 670 468" fill="none" xmlns="http://www.w3.org/2000/svg">
<path d="M197.164 40.1279H12.082V192.27H197.164V40.1279Z" fill="white"/>
<path d="M197.167 193.087H12.0846C11.633 193.087 11.2656 192.722 11.2656 192.268V40.1286C11.2656 39.677 11.633 39.3096 12.0846 39.3096H197.167C197.619 39.3096 197.986 39.6746 197.986 40.1286V192.27C197.986 192.722 197.619 193.09 197.167 193.09V193.087ZM12.9036 191.452H196.348V40.9476H12.9036V191.452Z" fill="black"/>
<path d="M146.886 50.3193C125.36 50.3193 107.848 67.8296 107.848 89.3576C107.848 110.886 125.36 128.396 146.886 128.396C168.412 128.396 185.924 110.886 185.924 89.3576C185.924 67.8296 168.419 50.3193 146.886 50.3193ZM147.705 51.9644C157.29 52.1726 165.997 56.0009 172.509 62.1387L147.705 87.3569V51.9644ZM173.677 63.2853C180.06 69.8443 184.064 78.7316 184.277 88.5386H148.84L173.677 63.2853ZM146.886 126.758C126.263 126.758 109.486 109.98 109.486 89.3576C109.486 69.0066 125.821 52.4043 146.067 51.9667L146.072 89.4418C146.095 89.6945 146.238 89.9379 146.495 90.0783C146.743 90.1976 146.502 90.1555 184.279 90.1789C183.841 110.427 167.237 126.762 146.888 126.762L146.886 126.758Z" fill="black"/>
<path d="M135.741 168.421H32.7135C32.2619 168.421 31.8945 168.056 31.8945 167.602V75.7803C31.8945 74.6969 33.5325 74.6969 33.5325 75.7803V166.785H135.741C136.825 166.785 136.825 168.421 135.741 168.421Z" fill="black"/>
<path d="M40.2231 182.517C41.4142 166.919 48.1745 95.1113 63.8174 97.1143C72.7047 98.2656 76.5025 119.95 80.5226 142.908C83.8665 162.007 87.325 181.762 93.3154 181.762C103.831 181.762 105.717 150.26 111.811 127.988C112.096 126.952 113.678 127.375 113.39 128.424C106.913 152.109 105.64 183.4 93.3154 183.4C85.9491 183.4 82.6871 164.768 78.908 143.191C75.3419 122.824 71.3007 99.7375 63.6068 98.7383C49.9599 97.1635 42.8978 168.943 41.8588 182.641C41.7746 183.741 40.1459 183.566 40.2255 182.517H40.2231Z" fill="black"/>
<path d="M455.921 44.9531H274.699V192.27H455.921V44.9531Z" fill="white"/>
<path d="M455.919 193.087H274.698C274.246 193.087 273.879 192.722 273.879 192.268V44.9538C273.879 44.5021 274.246 44.1348 274.698 44.1348H455.919C456.371 44.1348 456.738 44.4998 456.738 44.9538V192.271C456.738 192.722 456.373 193.087 455.919 193.087ZM275.517 191.452H455.103V45.7704H275.517V191.452Z" fill="black"/>
<path d="M318.854 185.441H286.831C286.379 185.441 286.012 185.076 286.012 184.622V109.435C286.012 108.984 286.379 108.616 286.831 108.616H318.854C319.305 108.616 319.673 108.981 319.673 109.435V184.622C319.673 185.073 319.305 185.441 318.854 185.441ZM287.65 183.805H318.035V110.254H287.65V183.805Z" fill="black"/>
<path d="M360.661 185.44H328.635C328.184 185.44 327.816 185.075 327.816 184.621V63.2878C327.816 62.8361 328.184 62.4688 328.635 62.4688H360.661C361.112 62.4688 361.48 62.8338 361.48 63.2878V184.621C361.48 185.073 361.112 185.44 360.661 185.44ZM329.457 183.805H359.842V64.1068H329.457V183.805Z" fill="black"/>
<path d="M402.473 185.44H370.448C369.996 185.44 369.629 185.075 369.629 184.621V112.137C369.629 111.686 369.996 111.318 370.448 111.318H402.473C402.925 111.318 403.292 111.683 403.292 112.137V184.621C403.292 185.073 402.927 185.44 402.473 185.44ZM371.269 183.805H401.656V112.959H371.269V183.805Z" fill="black"/>
<path d="M444.278 185.44H412.253C411.801 185.44 411.434 185.075 411.434 184.621V83.0231C411.434 82.5715 411.799 82.2041 412.253 82.2041H444.278C444.729 82.2041 445.097 82.5691 445.097 83.0231V184.621C445.097 185.073 444.732 185.44 444.278 185.44ZM413.072 183.805H443.459V83.8421H413.072V183.805Z" fill="black"/>
<path d="M312.18 81.4695H286.831C286.379 81.4695 286.012 81.1045 286.012 80.6506V63.2878C286.012 62.8361 286.379 62.4688 286.831 62.4688H312.18C312.632 62.4688 312.999 62.8338 312.999 63.2878V80.6506C312.999 81.1022 312.632 81.4695 312.18 81.4695ZM287.65 79.8339H311.361V64.1068H287.65V79.8339Z" fill="black"/>
<path d="M307.012 90.1737H286.832C285.749 90.1737 285.749 88.5381 286.832 88.5381H307.012C308.096 88.5381 308.096 90.1737 307.012 90.1737Z" fill="black"/>
<path d="M303.797 95.9657H286.832C285.749 95.9657 285.749 94.3301 286.832 94.3301H303.797C304.88 94.3301 304.88 95.9657 303.797 95.9657Z" fill="black"/>
<path d="M334.375 399.174L360.447 392.805C363.861 374.976 364.165 357.37 361.596 339.834L330.846 339.167C327.315 357.536 325.813 382.511 334.375 399.174Z" fill="white"/>
<path d="M334.37 399.99C334.068 399.99 333.785 399.824 333.64 399.548C324.957 382.649 326.452 357.667 330.037 339.01C330.112 338.619 330.369 338.348 330.86 338.348L361.61 339.015C362.008 339.022 362.345 339.319 362.401 339.714C365.013 357.533 364.636 375.268 361.248 392.956C361.187 393.272 360.95 393.522 360.637 393.597L334.37 399.99ZM331.518 339.997C328.162 357.863 326.707 381.844 334.808 398.221L359.738 392.13C362.956 375.025 363.335 357.866 360.88 340.634L331.518 339.997Z" fill="black"/>
<path d="M361.794 384.64C358.574 379.396 352.49 376.218 345.971 377.011C334.858 378.364 328.456 390.251 333.311 400.217C334.341 388.491 348.552 381.352 361.794 384.64Z" fill="#81F889"/>
<path d="M362.41 384.799C348 380.856 332.612 389.432 333.275 402.211C333.495 406.462 336.146 410.263 340.168 412.099C351.096 417.093 372.917 418.436 396.499 417.896C393.204 415.055 396.813 401.076 402.099 400.624C387.864 394.119 375.846 388.477 362.412 384.801L362.41 384.799Z" fill="white"/>
<path d="M402.436 399.878C390.553 394.43 375.516 387.352 362.305 383.924C358.877 378.593 352.589 375.383 345.871 376.197C334.353 377.601 327.535 389.886 332.479 400.383C332.046 406.128 335.191 410.726 339.827 412.844C353.261 418.981 381.722 419.054 396.516 418.712C398.598 418.67 401.53 413.085 402.49 410.265C403.58 407.064 404.355 400.758 402.436 399.878ZM346.067 377.823C351.527 377.156 356.677 379.438 359.913 383.413C348.824 381.553 336.155 386.465 333.05 397.219C330.537 388.068 336.794 378.956 346.067 377.823ZM340.505 411.353C329.142 406.163 332.837 387.225 352.06 384.853C355.336 384.445 358.849 384.675 362.19 385.587C375.404 389.203 387.352 394.795 399.965 400.549C395.732 403.292 393.247 412.991 394.98 417.107C368.693 417.61 349.879 415.635 340.503 411.353H340.505Z" fill="black"/>
<path d="M351.078 354.101C362.69 352.601 370.653 340.178 368.867 326.353C367.079 312.528 356.222 302.539 344.611 304.039C333.002 305.539 325.039 317.959 326.824 331.784C328.61 345.609 339.47 355.601 351.078 354.101Z" fill="#81F889"/>
<path d="M348.776 355.067C330.201 355.067 319.203 329.695 330.003 312.849C341.586 294.777 366.712 303.332 369.675 326.25C371.622 341.32 362.145 355.067 348.776 355.067ZM331.381 313.733C320.699 330.397 332.804 355.61 350.971 353.289C362.114 351.847 369.776 339.81 368.051 326.458C365.276 304.986 342.154 296.928 331.383 313.733H331.381Z" fill="black"/>
<path d="M316.652 360.615C297.127 363.942 281.438 381.724 266.012 382.068C263.066 397.72 260.595 413.686 261.412 427.799H334.829L339.009 374.753C339.161 367.235 330.809 358.202 316.652 360.615Z" fill="#81F889"/>
<path d="M257.582 308.829C266.18 303.049 288.19 295.922 307.024 299.249C314.199 300.515 335.298 294.794 350.333 309.91C365.637 328.859 355.951 365.239 339.007 374.756C339.162 367.238 330.81 358.205 316.651 360.618C297.072 363.955 284.541 379.752 267.258 381.977C244.565 384.898 239.223 321.177 257.585 308.831L257.582 308.829Z" fill="white"/>
<path d="M350.913 309.331C335.642 293.979 313.861 299.613 307.166 298.441C287.925 295.043 265.936 302.225 257.126 308.15C239.047 320.304 243.09 381.504 265.032 382.866C261.974 396.859 259.887 408.496 260.453 427.635C260.465 428.075 260.827 428.428 261.27 428.428L334.828 428.618C335.256 428.618 335.609 428.29 335.644 427.864L339.788 375.249C357.051 365.105 366.434 328.517 350.913 309.331ZM337.423 384.394C327.129 364.064 316.629 369.399 298.562 379.297C286.691 385.798 277.023 391.187 265.112 390.464C265.603 387.969 266.142 385.454 266.71 382.854C283.324 381.534 297.392 364.731 316.786 361.424C330.024 359.173 338.307 367.377 338.185 374.706L337.423 384.396V384.394ZM291.797 426.872C302.086 422.639 310.096 417.641 316.65 415.09C323.245 412.539 326.68 421.286 330.218 426.97L291.797 426.872ZM334.067 426.98L332.172 426.975C328.526 421.626 324.592 410.237 316.056 413.564C308.409 416.538 299.571 422.346 287.321 426.86L262.063 426.795C262.014 424.881 261.99 423.041 261.995 421.27C285.009 420.065 299.898 406.949 316.4 400.697C323.539 397.996 329.612 406.778 333.243 412.025C333.924 413.005 334.526 413.878 335.045 414.549L334.067 426.98ZM335.244 412.032C330.323 404.988 324.103 396.026 315.82 399.164C299.239 405.44 284.527 418.415 262.004 419.627C262.056 414.858 262.295 410.56 262.685 406.516C284.426 407.045 300.362 391.533 315.939 386.743C325.159 383.898 331.68 394.067 335.186 399.527C335.527 400.055 335.836 400.54 336.115 400.952L335.242 412.029L335.244 412.032ZM315.459 385.175C299.639 390.045 284.029 405.327 262.854 404.883C263.336 400.435 264 396.267 264.796 392.081C283.427 394.374 304.41 374.837 318.104 372.383C328.673 370.494 333.782 380.755 336.531 386.273L337.17 387.543L336.325 398.27C332.764 392.738 325.631 382.051 315.459 385.175ZM339.758 373.34C338.897 365.398 330.024 357.493 316.51 359.805C296.69 363.182 284.241 378.956 267.15 381.16C245.578 383.858 240.182 321.509 258.036 309.504C266.965 303.505 288.903 296.883 306.879 300.051C313.943 301.298 335.029 295.682 349.691 310.422C364.159 328.339 355.869 362.931 339.758 373.342V373.34Z" fill="black"/>
<path d="M288.966 346.451L346.265 345.225C349.953 345.145 352.831 342.026 352.614 338.345L351.956 327.186C351.759 323.844 348.984 321.158 345.64 321.071L288.839 321.794C285.233 321.841 282.357 324.806 282.423 328.414L282.638 340.077C282.704 343.561 285.481 346.364 288.966 346.453V346.451Z" fill="white"/>
<path d="M353.433 338.296L352.775 327.134C352.553 323.372 349.429 320.348 345.662 320.25L288.828 320.975C285.535 321.018 282.877 323.191 281.957 326.032C281.117 327.565 280.277 329.697 280.305 331.278L280.521 342.939C280.593 346.837 283.703 349.973 287.597 350.076L344.934 348.852C349.759 348.747 353.714 343.182 353.428 338.298L353.433 338.296ZM345.619 321.886C348.544 321.961 350.969 324.31 351.14 327.23L351.797 338.392C351.989 341.612 349.469 344.336 346.249 344.406L288.987 345.63C285.942 345.552 283.516 343.105 283.46 340.056L283.244 328.393C283.186 325.297 285.645 322.653 288.851 322.609L345.619 321.886Z" fill="black"/>
<path d="M346.16 340.117C346.953 340.098 347.564 339.436 347.517 338.643L346.859 327.483C346.82 326.791 346.202 326.192 345.509 326.173L288.907 326.898C288.523 326.903 288.193 327.046 287.927 327.322C287.372 327.897 287.517 327.298 287.751 339.979C287.765 340.723 288.357 341.32 289.101 341.341L346.16 340.117Z" fill="white"/>
<path d="M348.335 338.596L347.677 327.437C347.611 326.318 346.65 325.387 345.498 325.356L288.896 326.082C287.696 326.096 286.69 327.076 286.715 328.333L286.931 339.995C286.952 341.177 287.897 342.127 289.119 342.16L346.179 340.936C347.438 340.908 348.407 339.853 348.335 338.596ZM346.549 339.116C346.285 339.401 346.481 340.768 289.123 340.527C288.819 340.527 288.576 340.274 288.569 339.967L288.353 328.305C288.346 327.968 288.613 327.727 288.917 327.722L345.487 326.997C345.751 327.004 346.025 327.271 346.039 327.535C346.743 339.801 346.788 338.856 346.547 339.116H346.549Z" fill="black"/>
<path d="M344.441 332.341L338.802 332.439L335.077 329.402C334.662 329.072 334.117 329.21 333.869 329.594L330.28 335.166L325.326 330.055C324.956 329.671 324.287 329.737 324.015 330.235L322.684 332.706L319.471 332.769C318.994 332.779 319.071 332.819 316.548 335.671C314.276 332.917 314.157 332.608 313.724 332.739L309.592 332.83L306.615 329.086C306.238 328.611 305.515 328.7 305.246 329.22L301.725 336.029L300.4 333.471C300.257 333.195 299.963 333.017 299.654 333.032L289.896 333.273C289.444 333.284 289.086 333.659 289.098 334.11C289.11 334.562 289.524 335.009 289.938 334.908L299.186 334.681L301.002 338.187C301.306 338.774 302.15 338.774 302.457 338.187L306.126 331.096L308.569 334.166C308.897 334.581 309.011 334.48 313.368 334.384C316.113 337.709 316.015 337.742 316.518 337.749C317.054 337.749 317.021 337.613 319.867 334.398C323.299 334.33 323.601 334.461 323.903 333.902L324.93 331.997L329.823 337.045C330.179 337.41 330.804 337.377 331.101 336.918L334.751 331.248L337.999 333.897C338.306 334.148 338.133 334.08 344.472 333.975C345.44 333.958 345.656 332.437 344.441 332.339V332.341Z" fill="black"/>
<path d="M278.738 305.95C280.028 316.841 274.157 346.853 266.044 352.001C254.033 359.625 250.899 330.158 253.848 312.624L278.738 305.95Z" fill="black"/>
<path d="M258.453 283.587C264.053 272.549 282.038 292.023 278.128 306.32L258.453 283.587Z" fill="#81F889"/>
<path d="M278.129 307.139C277.544 307.139 277.878 307.352 257.836 284.123C257.619 283.87 257.574 283.512 257.726 283.215C263.911 271.031 283.071 291.365 278.92 306.538C278.829 306.875 278.517 307.139 278.129 307.139ZM259.446 283.482L277.673 304.544C279.69 291.716 264.538 274.95 259.446 283.482Z" fill="black"/>
<path d="M227.34 286.538C227.34 286.538 231.524 312.442 260.35 335.196C261.831 336.366 263.158 337.222 264.366 336.735C274.811 332.505 277.687 311.803 278.268 306.36C278.357 305.534 278.134 304.705 277.643 304.032C270.038 293.609 258.378 273.848 250.801 270.958L227.34 286.538Z" fill="white"/>
<path d="M264.671 337.491C262.973 338.184 261.278 336.974 259.842 335.837C231.097 313.15 226.571 286.931 226.529 286.666C226.48 286.348 226.618 286.032 226.885 285.852L250.346 270.272C250.568 270.127 250.844 270.094 251.09 270.19C258.985 273.2 270.498 292.848 278.302 303.547C278.913 304.382 279.189 305.412 279.081 306.442C278.421 312.624 275.435 333.132 264.671 337.491ZM228.247 286.917C229.028 290.647 234.846 314.021 260.857 334.552C262.221 335.628 263.281 336.279 264.058 335.972C274.233 331.852 277.001 310.504 277.452 306.268C277.518 305.644 277.352 305.021 276.98 304.511C269.733 294.58 258.173 275.177 250.889 271.88L228.247 286.917Z" fill="black"/>
<path d="M249.555 266.468C248.354 273.687 245.202 278.186 233.884 280.056C229.503 280.782 224.468 278.671 221.744 275.46C219.018 285.705 227.411 295.603 238.831 295.603C248.549 295.603 256.427 288.328 256.427 279.352C256.427 274.103 253.734 269.437 249.555 266.468Z" fill="#81F889"/>
<path d="M246.25 211.937C246.25 235.11 253.254 258.589 248.307 271.164C246.231 276.439 240.805 278.914 233.888 280.056C232.187 280.337 230.443 280.246 228.791 279.754C216.672 276.155 217.365 264.788 220.047 250.696C221.989 240.496 225.578 231.389 227.228 212.369C227.228 212.369 228.826 215.056 237.48 214.964C245.22 214.883 246.25 211.937 246.25 211.937Z" fill="white"/>
<path d="M250.445 266.114C252.434 252.945 247.125 232.217 247.071 212.252C247.808 208.817 240.369 208.653 236.866 208.653C233.539 208.653 226.149 209.044 226.409 212.334C224.764 231.265 221.186 240.318 219.241 250.544C217.348 260.489 216.183 269.858 220.844 275.697C218.324 286.355 227.127 296.424 238.834 296.424C248.987 296.424 257.25 288.768 257.25 279.354C257.25 274.019 254.594 269.248 250.445 266.114ZM220.849 250.848C222.728 240.971 226.154 232.138 227.876 214.253C231.082 216.029 241.408 216.307 245.449 214.07C245.842 236.548 252.247 258.905 247.544 270.862C245.791 275.318 241.408 277.983 233.752 279.246C232.158 279.516 230.522 279.417 229.022 278.968C218.263 275.774 217.847 266.622 220.849 250.848ZM222.225 277.164C224.478 279.202 227.845 280.608 230.447 280.934C230.883 285.635 233.312 291.363 237.393 294.728C227.913 293.984 220.849 286.021 222.225 277.164ZM240.294 294.726C235.577 292.161 232.64 285.911 232.107 281.03C232.745 281.022 233.384 280.966 234.018 280.863C245.449 278.973 248.751 274.26 250.113 267.937C260.959 277.021 254.744 293.572 240.294 294.726Z" fill="black"/>
<path d="M249.865 194.593C249.456 193.877 248.726 193.114 247.823 192.622L247.905 186.419C241.498 185.432 235.472 185.13 230.415 186.583C230.415 186.583 228.7 193.856 229.025 196.961C229.309 199.647 228.936 203.375 230.984 204.912L230.394 214.19C232.432 215.393 241.13 214.89 242.434 214.508C243.737 214.127 243.466 212.442 243.466 212.442L243.73 206.634C244.783 206.321 245.77 205.668 246.515 204.477C249.374 199.9 250.846 196.306 249.865 194.588V194.593Z" fill="white"/>
<path d="M257.489 184.5C254.913 184.519 250.993 186.627 248.679 189.727C248.709 187.427 248.679 186.653 248.812 185.78C249.095 183.901 249.795 179.251 249.924 178.046C250.088 176.525 250.52 170.392 250.52 168.817C250.52 167.242 249.814 166.482 248.728 166.646C247.642 166.809 247.317 167.949 246.936 169.685C246.554 171.422 245.796 177.775 245.578 178.643C245.422 179.265 244.792 183.044 244.448 185.132C244.205 185.106 243.964 185.08 243.725 185.054C243.69 183.517 243.681 180.948 243.884 178.252C244.001 176.729 242.691 167.827 242.691 166.255C242.691 164.682 241.984 163.92 240.898 164.083C239.813 164.247 239.417 165.298 239.27 167.069C239.052 169.676 239.672 177.964 239.541 178.849C239.272 180.665 239.127 183.145 239.057 184.771C238.886 184.769 238.717 184.767 238.549 184.767C238.526 183.365 238.535 181.278 238.701 179.097C238.804 177.728 237.627 169.73 237.627 168.314C237.627 166.898 236.923 166.173 235.947 166.32C234.971 166.468 234.615 167.411 234.484 169.004C234.29 171.347 234.847 178.795 234.728 179.59C234.482 181.25 234.353 183.529 234.29 184.987C234.045 185.015 233.804 185.047 233.565 185.08C233.553 183.969 233.572 182.452 233.691 180.873C233.775 179.771 232.917 173.329 232.828 172.194C232.72 170.846 231.899 170.132 230.993 170.589C230.284 170.947 229.921 171.466 229.814 172.748C229.657 174.634 230.106 180.629 230.01 181.271C229.84 182.424 229.739 183.95 229.68 185.101C229.57 187.343 227.844 193.595 228.206 197.042C228.466 199.495 228.148 203.129 229.959 205.089L229.57 214.148C229.552 214.602 230.057 215.046 230.666 215.168C233.848 215.793 239.321 215.893 242.997 214.971C243.919 214.74 244.114 214.328 244.125 213.977L244.345 207.289C245.419 206.891 246.425 206.157 247.207 204.907C250.579 199.511 251.653 196.109 250.584 194.199C253.24 191.372 256.092 188.23 258.53 187.605C260.412 187.125 260.21 184.469 257.484 184.49L257.489 184.5ZM242.511 213.42C239.115 214.246 234.159 214.141 231.241 213.602L231.559 206.138C233.925 206.985 236.448 206.33 237.882 206.88C239.382 207.451 241.1 207.811 242.698 207.663L242.511 213.42ZM245.822 204.048C244.018 206.938 240.44 206.105 238.469 205.352C236.349 204.537 235.142 205.419 232.346 204.673C229.676 203.955 230.167 200.007 229.842 196.878C229.58 194.391 230.74 188.887 231.108 187.247C235.196 186.173 240.302 186.133 247.078 187.128L247.022 191.426C245.726 191.073 244.224 191.333 242.897 192.407C239.118 195.474 238.334 198.472 238.303 198.598C238.041 199.642 239.618 200.042 239.89 199.001C239.897 198.973 240.608 196.375 243.929 193.68C244.713 193.045 245.55 192.816 246.414 192.968C247.535 193.184 248.627 194.077 249.159 195.004C249.573 195.729 249.69 197.868 245.824 204.051L245.822 204.048Z" fill="black"/>
<path d="M295.541 282.312L293.349 301.488C293.129 303.402 293.92 305.293 295.436 306.484C303.551 312.863 315.895 314.169 323.809 306.547C324.417 305.962 324.775 305.16 324.798 304.315L325.39 284.825L295.541 282.31V282.312Z" fill="#81F889"/>
<path d="M310.33 228.37C299.997 228.37 291.985 233.427 289.109 239.417C286.233 245.408 283.82 252.879 283.82 252.879L287.106 259.644L283.94 266.147L289.67 289.496L311.301 290.717L327.805 283.458C330.173 274.213 333.461 254.805 333.74 244.551C333.74 235.615 323.259 228.37 310.33 228.37Z" fill="white"/>
<path d="M333.743 244.554C333.462 254.852 330.149 274.363 327.809 283.461L311.305 290.72L316.53 266.978L319.319 260.85C319.621 260.185 319.539 260.347 316.39 253.612C316.39 253.612 317.283 244.734 320.702 237.614C322.56 233.743 327.603 232.016 331.569 237.742C332.961 239.813 333.743 242.12 333.743 244.549V244.554Z" fill="#81F889"/>
<path d="M283.77 252.739L288.595 252.692C288.595 252.692 289.47 249.552 292.697 249.332C296.537 249.07 297.585 252.778 297.585 252.778L301.979 252.858C301.979 252.858 303.39 249.128 307.481 249.488C311.571 249.849 312.053 253.097 312.053 253.097L316.363 253.429L319.611 260.077L316.422 266.935L284.132 266.032L287.2 259.656L283.77 252.739Z" fill="white"/>
<path d="M292.74 276.155C292.239 275.196 293.695 274.44 294.193 275.401C296.662 280.145 303.347 279.391 307.014 275.46C307.761 274.664 308.949 275.79 308.212 276.576C303.813 281.298 295.768 281.977 292.74 276.155Z" fill="black"/>
<path d="M310.334 227.554C298.983 227.554 291.125 233.336 288.373 239.067C285.507 245.038 283.068 252.557 283.045 252.631C282.902 253.071 282.858 252.784 286.124 259.495C286.239 259.731 286.365 259.347 283.206 265.792C283.005 266.203 283.031 265.852 288.876 289.692C288.963 290.041 289.267 290.296 289.625 290.317L293.776 290.551L292.536 301.395C292.288 303.578 293.205 305.775 294.93 307.13C303.401 313.787 316.224 314.985 324.376 307.137C325.148 306.398 325.588 305.403 325.616 304.343L326.201 285.064C328.237 284.168 328.471 284.17 328.598 283.667C330.832 274.948 334.41 255.39 334.558 244.58C334.7 234.19 322.107 227.556 310.329 227.556L310.334 227.554ZM289.85 239.776C295.187 228.663 314.001 225.993 325.602 233.242C323.08 233.38 321.028 235.046 319.965 237.262C317.08 243.269 315.973 250.376 315.669 252.737C314.658 252.65 313.624 252.573 312.559 252.505C310.788 247.49 303.038 247.257 301.646 252.098C301.646 252.098 299.142 252.039 298.309 252.025C296.652 247.668 289.478 246.997 287.926 252.025C287.004 252.032 285.916 252.042 284.966 252.053C285.741 249.772 287.671 244.313 289.85 239.776ZM287.599 260.517C287.863 259.977 287.865 259.326 287.599 258.779L285.125 253.687C286.272 253.673 287.596 253.661 288.572 253.654C288.963 253.654 289.3 253.373 289.37 252.987C290.144 248.873 296.032 249.428 296.907 253.027C296.996 253.39 297.319 253.647 297.691 253.652C298.69 253.666 301.601 253.734 301.601 253.734C302.312 253.715 302.93 253.301 303.136 252.634C304.224 249.152 310.018 249.529 311.094 253.315C311.226 253.766 311.628 254.089 312.091 254.117C313.383 254.197 314.633 254.291 315.849 254.398L318.571 260.218C318.676 260.452 318.767 260.082 316.023 266.154L285.233 265.366L287.594 260.517H287.599ZM290.327 288.714L284.996 266.997L315.519 267.778L310.657 289.863L290.327 288.714ZM323.248 305.958C315.321 313.589 303.267 311.592 295.948 305.841C294.665 304.832 293.982 303.201 294.167 301.582L294.366 299.85C302.322 306.894 314.925 309.372 324.028 302.885C323.979 304.484 324.063 305.172 323.246 305.96L323.248 305.958ZM324.098 300.618C323.948 300.845 323.761 301.046 323.536 301.212C314.544 308.031 302.195 304.821 295.138 298.339C294.946 298.161 294.766 297.967 294.604 297.761L295.227 292.323C302.97 299.577 315.384 302.024 324.259 295.32L324.098 300.618ZM324.339 292.709C324.189 293.135 323.922 293.507 323.562 293.79C314.885 300.618 303.005 297.459 296.226 291.014C296.109 290.905 295.999 290.788 295.896 290.668L311.307 291.536C311.567 291.536 310.711 291.876 324.547 285.792L324.337 292.709H324.339ZM327.116 282.871L312.452 289.32L317.277 267.317L320.064 261.191C320.305 260.662 320.305 260.059 320.059 259.525L317.23 253.476C317.394 252.072 318.421 244.261 321.442 237.969C322.291 236.2 323.85 235.021 325.514 234.89C329.517 234.532 332.922 240.178 332.924 244.544C332.658 254.288 329.609 272.966 327.114 282.874L327.116 282.871Z" fill="black"/>
<path d="M292.693 260.822C294.003 260.822 295.066 259.759 295.066 258.449C295.066 257.139 294.003 256.076 292.693 256.076C291.383 256.076 290.32 257.139 290.32 258.449C290.32 259.759 291.383 260.822 292.693 260.822Z" fill="white"/>
<path d="M292.687 261.641C291.177 261.641 289.79 260.543 289.542 258.938C289.273 257.199 290.468 255.566 292.207 255.295C293.939 255.026 295.579 256.224 295.85 257.96C296.148 259.874 294.678 261.641 292.687 261.641ZM292.694 256.895C291.744 256.895 291.014 257.749 291.159 258.688C291.285 259.502 292.029 260.11 292.932 259.986C294.818 259.691 294.603 256.898 292.694 256.898V256.895Z" fill="black"/>
<path d="M306.58 260.822C307.89 260.822 308.953 259.759 308.953 258.449C308.953 257.139 307.89 256.076 306.58 256.076C305.269 256.076 304.207 257.139 304.207 258.449C304.207 259.759 305.269 260.822 306.58 260.822Z" fill="white"/>
<path d="M303.429 258.937C303.158 257.201 304.346 255.566 306.094 255.294C308.9 254.859 310.826 258.053 309.158 260.334C307.482 262.621 303.86 261.736 303.432 258.935L303.429 258.937ZM306.581 256.895C305.086 256.895 304.456 258.82 305.664 259.703C306.34 260.196 307.321 260.07 307.833 259.366C308.587 258.334 307.84 256.892 306.579 256.892L306.581 256.895Z" fill="black"/>
<path d="M296.891 262.499C297.076 262.265 297.45 262.347 297.518 262.64C297.958 264.568 298.173 267.287 297.813 270.027C297.721 270.729 297.057 271.211 296.364 271.082C295.075 270.844 293.245 270.282 293.208 269.009C293.161 267.437 295.812 263.877 296.891 262.499Z" fill="#81F889"/>
<path d="M296.213 271.885C293.104 271.314 292.416 270.018 292.388 269.033C292.338 267.364 294.451 264.275 296.246 261.992C296.855 261.217 298.092 261.493 298.315 262.453C298.848 264.779 298.958 267.577 298.624 270.135C298.472 271.296 297.374 272.1 296.213 271.885ZM296.913 263.817C294.767 266.683 294.007 268.38 294.023 268.984C294.04 269.494 295.015 270.001 296.511 270.278C296.763 270.32 296.969 270.147 296.997 269.924C297.257 267.942 297.222 265.733 296.911 263.819L296.913 263.817Z" fill="black"/>
<path d="M329.948 275.17C325.373 275.17 321.664 269.432 321.664 262.356C321.664 255.28 325.373 249.542 329.948 249.542H336.294V275.172L329.948 275.17Z" fill="white"/>
<path d="M336.233 275.17C340.293 275.17 343.583 269.432 343.583 262.356C343.583 255.28 340.293 249.542 336.233 249.542C332.173 249.542 328.883 255.28 328.883 262.356C328.883 269.432 332.173 275.17 336.233 275.17Z" fill="white"/>
<path d="M344.404 262.356C344.404 254.767 340.869 248.812 336.338 248.726H329.95C324.931 248.726 320.848 254.838 320.848 262.356C320.848 269.874 324.931 275.989 329.95 275.989H336.338C340.871 275.898 344.404 269.945 344.404 262.356ZM329.95 274.353C325.834 274.353 322.486 268.971 322.486 262.356C322.486 255.741 325.834 250.359 329.95 250.359H332.297C326.658 255.434 326.658 269.278 332.297 274.353H329.95ZM336.238 274.353C332.697 274.353 329.707 268.859 329.707 262.356C329.707 255.853 332.697 250.359 336.238 250.359C339.778 250.359 342.769 255.853 342.769 262.356C342.769 268.859 339.778 274.353 336.238 274.353Z" fill="black"/>
<path d="M336.233 269.096C332.676 269.096 332.679 255.615 336.233 255.617C339.788 255.62 339.788 269.098 336.233 269.096Z" fill="white"/>
<path d="M336.233 269.912C333.656 269.912 332.746 265.836 332.746 262.344C332.746 258.865 333.663 254.798 336.233 254.798C340.906 254.798 340.938 269.912 336.233 269.912ZM335.004 266.713C335.348 267.691 335.809 268.274 336.233 268.276C338.088 268.281 338.835 260.187 337.091 257.164C335.208 253.911 333.376 262.071 335.004 266.713Z" fill="black"/>
<path d="M348.647 264.785C349.541 264.807 350.276 264.076 350.26 263.183L349.637 227.774L347.707 227.729L346.094 259.74C346.085 259.946 345.912 260.105 345.706 260.101L336.355 259.886C335.716 259.871 335.611 264.484 336.25 264.5L348.65 264.785H348.647Z" fill="white"/>
<path d="M350.969 221.395C349.555 220.714 348.109 220.676 346.665 221.297C346.349 221.432 346.162 221.76 346.204 222.104C347.002 228.361 346.902 227.416 346.888 227.689L345.296 259.272L336.374 259.069C335.157 259.188 335.038 260.763 335.005 262.137C334.951 264.317 335.328 265.298 336.229 265.319L348.675 265.607C350.014 265.607 351.1 264.5 351.071 263.161C350.241 222.319 350.07 229.76 351.394 222.223C351.453 221.884 351.282 221.547 350.971 221.395H350.969ZM349.211 263.746C348.881 264.074 349.85 263.997 336.716 263.693C336.587 262.981 336.622 261.42 336.783 260.718L345.687 260.922C346.319 260.901 346.881 260.438 346.911 259.785L348.483 228.569L348.83 228.579C349.44 263.739 349.565 263.393 349.211 263.746Z" fill="black"/>
<path d="M240.65 193.209C240.072 191.706 238.338 192.17 236.375 193.901C233.546 196.398 230.251 199.332 230.251 199.332C230.251 199.332 232.331 185.695 232.563 181.883C232.795 178.069 233.487 174.14 231.985 173.908C230.483 173.677 229.785 175.481 229.324 178.139C228.861 180.797 226.785 192.514 226.785 192.514C227.136 188.784 227.904 178.396 227.478 174.716C227.132 171.711 224.586 172.659 224.354 173.929C224.296 174.245 224.153 175.462 223.97 177.112C223.624 175.591 222.335 174.285 221.284 174.795C220.395 175.228 220.79 177.149 220.35 180.084C219.557 185.386 220.299 183.13 219.211 179.183C218.869 177.947 216.309 177.521 216.211 179.782C216.071 183.013 216.459 190.312 215.911 192.5C215.219 195.273 217.772 201.523 217.657 203.835C217.54 206.147 217.191 206.296 216.964 208.11C216.501 211.807 216.85 211 216.386 214.465C215.425 221.689 198.855 251.053 192.312 269.673C197.542 270.48 200.893 270.66 204.686 273.223C209.24 276.3 212.523 283.437 213.88 287.522C222.779 271.62 227.721 219.054 230.485 208.917C230.485 208.917 233.354 203.097 235.223 200.828C238.46 196.899 241.233 194.704 240.655 193.199L240.65 193.209Z" fill="white"/>
<path d="M214.545 290.077C214.241 287.728 210.499 277.163 204.679 273.229C200.678 270.524 197.17 270.475 191.428 269.541C184.719 268.449 186.165 271.891 177.36 279.767C171.037 285.423 161.382 285.512 152.933 286.251C138.502 287.515 148.145 286.792 114.339 293.44C112.388 293.824 109.016 292.878 105.637 294.631C103.685 295.642 101.752 299.072 98.2165 302.877C94.5216 306.85 91.1918 308.004 88.9618 315.703C86.9845 322.538 88.0586 330.627 89.2098 338.702C90.9368 350.782 88.5195 383.794 95.3079 395.883C96.4521 405.278 95.7899 415.766 97.5683 427.307L183.423 427.459C181.151 411.254 174.699 388.378 174.517 378.389C174.337 368.399 174.587 358.997 174.587 358.997C176.925 339.238 175.755 330.892 170.885 323.265C189.259 312.253 184.165 317.425 191.887 314.596C194.774 313.538 196.986 311.224 199.531 309.497C203.243 306.979 207.874 305.552 210.553 301.955C211.943 300.088 215.011 293.669 214.547 290.077H214.545Z" fill="#81F889"/>
<path d="M241.412 192.914C241.059 191.994 240.422 191.665 239.95 191.55C238.572 191.211 236.945 192.305 235.831 193.288C234.287 194.65 232.605 196.143 231.395 197.219C234.577 175.794 234.182 173.419 232.106 173.101C229.408 172.659 228.79 176.41 228.512 178.001C228.226 179.641 228.615 177.453 228.287 174.627C227.836 170.7 223.944 171.599 223.544 173.789C223.521 173.918 223.483 174.185 223.436 174.564C222.631 173.81 221.695 173.686 220.919 174.068C219.699 174.662 219.87 176.242 219.709 178.38C218.548 176.733 215.504 176.995 215.387 179.758C215.27 182.391 215.602 190.347 215.111 192.312C214.317 195.486 216.948 201.521 216.833 203.804C216.721 206.065 216.388 206.072 216.145 208.019C215.7 211.559 216.005 211.096 215.567 214.372C214.652 221.254 198.38 250.316 191.76 268.77C186.996 268.016 185.849 269.116 183.095 272.493C173.344 284.459 169.13 284.115 150.22 285.657C145.397 286.051 133.211 286.568 132.586 291.089L134.357 290.859C136.276 288.421 144.078 287.801 150.349 287.291C168.774 285.791 174.076 286.149 184.363 273.529C187.81 269.301 188.039 269.902 194.182 270.791C198.34 271.397 201.087 271.798 204.22 273.913C209.825 277.699 213.447 287.976 213.732 290.188C214.154 293.44 211.273 299.62 209.895 301.471C207.04 305.304 202.5 306.032 196.636 310.646C193.91 312.79 191.5 314.585 187.089 314.84C184.738 314.973 182.957 315.074 170.433 322.585C170.742 323.044 171.034 323.505 171.315 323.968C189.504 313.073 184.253 318.268 192.167 315.371C195.216 314.252 197.465 311.886 199.99 310.178C203.661 307.681 208.386 306.235 211.205 302.447C212.672 300.477 215.855 293.854 215.354 289.975C215.286 289.448 215.08 288.61 214.753 287.574C223.675 270.913 228.505 219.433 231.247 209.214C234.565 202.562 235.738 201.378 238.436 198.394C240.582 196.021 242.002 194.454 241.412 192.914ZM237.224 197.295C234.631 200.166 233.136 201.684 229.752 208.548C227.681 212.61 222.678 267.321 214.023 285.505C212.361 281.211 209.254 275.333 205.138 272.551C201.41 270.033 198.08 269.703 193.41 269.018C196.664 260.027 202.098 248.716 207.012 238.495C216.07 219.646 217.268 216.71 217.488 211.398C217.778 204.24 219.451 206.498 217.636 199.267C217.06 196.976 216.344 194.131 216.7 192.703C217.079 191.192 217.041 187.722 217.008 184.366C216.962 179.782 216.863 179.096 217.575 179C217.947 178.951 218.354 179.185 218.415 179.405C218.644 180.233 218.876 181.542 219.089 183.194C218.74 185.803 218.309 189.111 218.108 190.679C217.919 192.135 219.564 192.191 219.744 190.794C221.366 178.259 221.277 179.922 221.412 177.351C221.452 176.616 221.499 175.698 221.637 175.537C221.7 175.507 221.845 175.441 222.105 175.591C222.896 176.064 223.046 177.222 223.085 177.634C222.543 182.567 221.733 190.438 221.686 190.899C221.639 191.349 221.967 191.76 222.416 191.8C222.847 191.838 223.268 191.517 223.315 191.07C223.874 185.622 224.979 175.062 225.156 174.082C225.217 173.759 226.425 172.769 226.661 174.814C227.061 178.284 226.366 188.187 225.966 192.439C225.87 193.468 227.405 193.695 227.588 192.661C230.131 178.268 230.424 174.517 231.837 174.711C233.019 175.722 229.696 197.594 229.439 199.213C229.324 199.972 230.22 200.456 230.793 199.948C236.781 194.667 238.518 192.879 239.559 193.141C239.62 193.155 239.763 193.19 239.884 193.504C240.116 194.103 238.644 195.724 237.224 197.295Z" fill="black"/>
<path d="M182.626 427.654C180.946 420.812 174.993 387.431 173.786 382.412C172.677 377.795 173.723 359.719 173.767 358.951C176.8 333.3 173.767 327.069 164.983 316.972C157.469 306.355 154.305 299.763 149.834 295.376C145.222 290.841 143.813 290.282 139.058 291.075C137.972 291.232 137.734 289.636 138.789 289.458C144.342 288.543 146.268 289.575 150.98 294.206C155.651 298.79 158.747 305.321 166.27 315.963C175.349 326.393 178.506 332.837 175.401 359.099C175.394 359.237 174.329 377.653 175.38 382.033C175.873 384.095 183.375 423.84 184.218 427.27C184.475 428.325 182.884 428.707 182.626 427.658V427.654Z" fill="black"/>
<path d="M139.995 376.251C137.129 372.174 133.401 371.454 130.731 372.12C131.504 367.125 128.307 364.457 127.027 360.09C125.483 354.83 125.211 348.274 126.196 340.048C127.221 331.47 126.056 322.395 122.911 314.493C122.511 313.496 120.988 314.088 121.39 315.102C124.437 322.753 125.567 331.542 124.57 339.852C121.547 365.117 130.912 364.81 128.937 372.743C125.991 373.754 125.141 373.134 124.058 371.599C123.435 370.719 122.092 371.655 122.719 372.544C124.556 375.141 126.508 375.495 130.462 373.922C132.589 373.077 136.01 373.426 138.657 377.189C140.805 380.247 139.314 386.907 138.329 389.17L132.301 403.006C130.919 406.177 128.232 409.567 125.909 411.06C119.836 414.954 113.371 409.406 107.561 405.98C96.1812 399.274 93.6073 393.321 92.5028 380.722C92.3273 378.71 92.1448 376.627 91.8218 374.491C90.0481 362.697 90.9139 350.438 89.5474 338.504C86.9359 315.67 90.1347 311.592 97.0307 305.213C98.7155 303.654 100.742 301.223 102.888 298.647C106.194 294.671 106.119 293.815 112.014 294.43C113.064 294.538 113.972 294.629 114.663 294.514C115.734 294.332 115.444 292.713 114.384 292.902C113.923 292.984 113.078 292.893 112.185 292.801C105.583 292.106 105.195 293.321 101.631 297.598C99.5204 300.133 97.5291 302.524 95.9215 304.01C88.8126 310.585 85.2277 315.113 87.9257 338.689C89.2853 350.588 88.4124 362.789 90.2072 374.73C91.3562 382.36 90.701 389.362 94.6626 396.187C95.0604 406.481 95.3857 418.286 96.8482 427.749C97.012 428.821 98.6336 428.568 98.4651 427.499C97.0962 418.637 96.7499 407.906 96.3989 398.766C98.6593 401.689 101.933 404.56 106.73 407.389C110.226 409.453 112.732 411.505 116.616 413.031C120.11 414.404 123.695 414.428 126.798 412.432C129.402 410.756 132.285 407.146 133.806 403.654L139.834 389.818C140.826 387.539 142.707 380.093 140 376.241L139.995 376.251Z" fill="black"/>
<path d="M146.387 233.276C148.203 235.853 150.578 240.367 151.68 243.189C152.354 244.93 152.597 245.613 151.715 247.256C150.896 248.786 150.381 249.221 151.453 251.919C154.261 259.04 159.341 261.457 153.061 263.411C153.065 268.016 151.98 272.525 151.94 278.326C151.94 278.326 151.367 281.129 148.334 281.2C145.304 281.27 135.41 279.646 135.41 279.646C135.41 279.646 136.084 290.663 143.492 293.017C136.978 299.648 118.913 298.647 108.535 296.332C108.535 296.332 114.175 290.188 111.308 268.498C108.442 246.811 119.016 219.962 146.387 233.276Z" fill="white"/>
<path d="M154.83 258.134C155.022 258.097 156.433 258.483 157.156 255.497C157.357 254.666 157.823 253.538 158.054 252.298C158.744 248.634 157.303 247.927 156.086 247.557C153.304 246.715 151.49 247.461 150.922 250.197C151.395 252.766 154.015 256.821 154.83 258.134Z" fill="white"/>
<path d="M146.604 264.96C146.012 263.794 145.904 262.784 146.286 261.958C146.918 260.596 148.525 260.291 149.918 259.936C150.982 259.664 151.389 261.228 150.357 261.513C148.233 262.11 147.039 262.201 148.064 264.22C148.553 265.18 147.089 265.922 146.604 264.96Z" fill="black"/>
<path d="M148.327 249.123C148.299 248.714 148.077 248.342 147.728 248.122C145.402 246.65 138.967 246.643 136.775 248.15C136.452 248.372 136.251 248.732 136.234 249.125C136.18 250.324 136.25 253.431 136.726 255.624C137.119 257.432 138.169 257.816 140.273 258.12C143.125 258.532 146.86 258.649 147.712 256.347C148.564 254.044 148.419 250.466 148.325 249.125L148.327 249.123Z" fill="white"/>
<path d="M145.699 252.608C145.592 252.509 143.172 250.467 139.643 252.678C138.714 253.249 137.86 251.861 138.773 251.288C142.465 248.978 145.634 250.34 146.794 251.386C147.599 252.109 146.507 253.312 145.702 252.605L145.699 252.608Z" fill="black"/>
<path d="M144.477 252.801C144.72 252.127 144.414 251.399 143.792 251.175C143.171 250.952 142.471 251.315 142.228 251.989C141.985 252.663 142.292 253.391 142.913 253.615C143.534 253.838 144.235 253.475 144.477 252.801Z" fill="black"/>
<path d="M156.321 246.776C153.931 246.048 151.931 246.485 150.971 247.939C150.798 248.198 150.325 248.999 150.211 249.565C150.073 250.251 150.314 249.724 149.198 250.108C149.158 248.999 149.184 248.07 148.166 247.429C145.528 245.76 138.768 245.784 136.311 247.473C135.778 247.838 135.443 248.442 135.415 249.088C135.392 249.584 135.389 250.435 135.431 251.432L127.831 252.111C126.799 252.204 126.865 253.744 127.904 253.744L135.537 253.066C135.911 257.329 136.489 258.401 140.158 258.927C143.205 259.363 147.419 259.496 148.482 256.627C148.994 255.249 149.169 253.473 149.209 251.926C149.488 251.76 149.916 251.563 150.29 251.58C150.822 251.641 149.907 251.793 154.13 258.565C154.341 258.904 154.64 259.009 154.905 258.948C156.611 259.11 157.544 257.352 157.947 255.686C158.15 254.849 158.604 253.784 158.855 252.445C159.629 248.329 157.907 247.251 156.321 246.771V246.776ZM146.946 256.061C146.31 257.781 143.034 257.692 140.392 257.308C138.303 257.006 137.795 256.676 137.528 255.45C137.06 253.29 137.006 250.227 137.053 249.16C137.107 247.899 144.635 247.129 147.293 248.814C147.419 248.893 147.501 249.031 147.51 249.179C147.583 250.239 147.758 253.868 146.946 256.061ZM157.247 252.148C157.02 253.356 156.58 254.381 156.356 255.307C156.087 256.426 155.714 257.081 155.246 257.264C154.109 255.452 153.143 253.934 152.284 251.793C152.403 251.524 152.375 251.203 152.181 250.955C151.83 250.503 151.877 250.77 151.753 250.204C152.104 248.5 153.215 247.543 155.845 248.346C156.69 248.601 157.846 248.952 157.247 252.151V252.148Z" fill="black"/>
<path d="M141.375 269.462C142.547 270.365 143.738 271.287 144.585 272.499C144.965 273.042 145.32 273.681 145.947 273.894C147.63 274.467 149.404 272.717 149.31 271.673C148.449 271.21 145.716 270.889 144.77 270.592C143.633 270.234 142.517 269.801 141.375 269.462Z" fill="white"/>
<path d="M146.634 274.827C145.328 274.827 144.712 274.144 144.055 273.18C143.17 271.884 142.267 271.186 140.872 270.11C140.161 269.565 140.73 268.423 141.605 268.676C142.751 269.02 143.858 269.45 145.012 269.813C145.96 270.112 148.641 270.384 149.694 270.955C151.016 271.668 149.189 274.825 146.631 274.825L146.634 274.827ZM144.815 271.458C145.464 272.235 145.777 272.974 146.208 273.122C146.994 273.379 147.906 272.817 148.316 272.188C147.279 271.905 145.791 271.701 144.815 271.458Z" fill="black"/>
<path d="M136.98 244.212C144.316 239.464 147.756 243.386 147.901 243.559C148.591 244.376 147.367 245.443 146.654 244.621C146.534 244.486 143.913 241.673 137.872 245.588C136.964 246.173 136.074 244.801 136.98 244.212Z" fill="black"/>
<path d="M152.214 251.617C151.294 249.301 151.662 249.069 152.436 247.644C153.519 245.653 153.131 244.67 152.443 242.894C151.346 240.086 149.179 235.972 147.438 233.365C149.322 231.367 148.339 227.295 144.794 227.181C144.546 226.018 143.748 224.918 142.568 224.167C139.496 222.215 136.129 223.116 133.002 220.98C131.172 219.73 128.699 219.541 126.652 220.523C126.017 220.826 125.424 220.797 124.873 220.437C122.18 218.673 118.485 218.754 115.85 220.582C113.756 219.349 110.662 220.077 109.476 222.309C108.952 223.296 108.706 224.672 108.006 224.892C106.909 225.241 106.886 224.523 105.486 226.411C104.337 227.96 102.014 226.446 99.9241 230.932C96.5522 238.167 92.8152 251.704 100.203 256.538C101.284 257.247 101.279 257.247 101.476 258.043C102.096 260.547 103.025 261.473 105.278 263.474C106.792 264.817 108.479 266.256 108.36 268.208C108.217 270.485 108.842 272.223 111.077 272.677C111.495 277.275 112.214 290.094 108.004 295.944C107.831 296.183 107.599 297.039 108.629 297.247C119.922 299.513 131.928 300.762 142.266 295.176C142.858 294.858 143.392 294.486 143.855 294.065C144.246 293.714 144.204 293.082 143.766 292.783C137.914 288.777 137.322 286.544 136.323 280.643C140.514 281.518 147.56 283.739 151.187 280.851C152.16 280.079 152.707 279.002 152.696 277.898C152.605 271.341 153.739 267.681 153.758 264.036C154.341 263.832 154.916 263.582 155.403 263.261C159.292 260.708 154.729 258.01 152.209 251.613L152.214 251.617ZM154.509 261.897C153.229 262.737 151.268 262.913 150.103 263.432C149.125 263.877 149.775 265.365 150.777 264.927C151.172 264.747 151.463 264.693 152.113 264.525C151.898 269.046 150.969 270.96 151.062 277.926C151.065 278.204 150.988 278.928 150.176 279.573C149.193 280.353 146.563 281.42 139.987 279.8C130.134 277.374 127.04 278.216 125.063 275.42C124.44 274.533 123.099 275.481 123.727 276.365C125.762 279.246 128.641 279.171 134.622 280.306C135.455 286.334 136.292 289.418 141.922 293.487C133.002 299.136 119.494 297.463 110.026 295.827C113.674 289.453 113.218 278.179 112.731 272.738C114.533 272.514 116.697 271.44 117.371 270.529C118.485 269.027 117.631 267.359 117.455 266.004C120.883 268.274 123.823 267.572 125.114 265.721C125.737 264.831 124.389 263.895 123.773 264.785C123.074 265.781 121.34 266.406 118.754 264.888C115.712 263.097 113.365 258.897 113.732 255.902C114.222 251.919 120.043 251.968 121.937 256.262C122.07 256.566 122.369 256.822 122.697 256.751C128.802 256.667 129.981 253.653 127.178 249.82C126.544 248.957 126.329 248.667 126.96 247.611C127.522 246.671 127.199 245.564 126.127 244.579C127.218 243.376 127.302 241.282 126.139 240.072C128.14 239.758 129.333 237.975 129.041 236.342C133.906 236.882 134.856 240.381 139.723 236.148C141.513 236.349 144.302 235.806 145.503 234.376C145.695 234.341 145.877 234.292 146.055 234.234C147.721 236.723 149.874 240.802 150.92 243.481C151.699 245.501 151.664 245.66 150.765 247.284C150.276 248.168 149.846 248.929 150.112 250.344C150.592 252.968 152.937 256.651 154.13 258.565C155.661 261.017 155.499 261.249 154.509 261.897Z" fill="black"/>
<path d="M134.305 383.523C134.305 383.523 158.873 396.508 168.488 402.066C178.103 407.621 186.862 409.168 191.78 409.118C202.778 409.004 204.068 406.35 206.665 408.412C210.014 411.068 210.11 410.838 212.459 412.975C213.432 413.859 213.828 415.928 214.932 417.849C216.498 420.57 219.212 423.088 220.464 423.966C220.464 423.966 221.51 425.145 220.834 426.423C220.158 427.7 216.547 427.326 214.366 425.896C214.366 425.896 212.623 430.017 207.208 425.807C201.793 421.598 199.149 419.393 199.149 419.393C199.149 419.393 192.485 421.46 190.002 421.235C187.519 421.01 180.452 418.453 180.452 418.453L145.186 414.091C145.186 414.091 133.606 412.888 119.582 406.57C124.314 397.882 128.972 387.766 134.305 383.523Z" fill="white"/>
<path d="M220.59 423.286C220.407 423.048 217.428 421.106 214.784 415.323C213.747 413.063 213.64 412.579 210.036 409.946C205.869 406.909 206.287 406.296 201.93 407.204C191.246 409.431 181.287 408.514 168.897 401.356C160.466 396.484 140.332 385.79 135.664 383.317C136.123 383.008 136.406 382.865 136.406 382.865C137.381 382.388 136.665 380.921 135.697 381.389C135.524 381.471 131.398 383.497 127.902 389.949C125.794 393.84 119.38 405.685 117.594 406.874C116.932 407.311 117.227 408.374 118.048 408.374C118.537 408.374 119.048 407.793 119.427 407.349C136.661 414.469 143.852 414.898 160.512 416.66C178.975 418.602 179.78 418.81 183.964 420.6C188.758 422.657 190.429 422.222 196.141 420.872C200.117 419.933 199.721 420.111 201.43 421.674C203.83 423.869 208.522 428.346 211.953 428.346C213.029 428.346 214.25 427.59 214.454 426.469C215.994 427.204 217.887 428.093 219.085 428.093C222.143 428.093 223.947 424.705 220.59 423.286ZM220.746 425.545C220.62 426.006 219.836 426.569 218.72 426.431C217.87 426.317 214.835 424.866 213.076 423.958C210.846 422.311 207.254 418.983 205.915 417.107C205.286 416.222 203.952 417.174 204.584 418.057C206.163 420.268 210.057 423.773 212.156 425.315C212.699 425.713 212.889 426.05 212.837 426.211C212.76 426.45 212.299 426.712 211.957 426.712C209.161 426.712 204.472 422.231 202.543 420.469C200.484 418.588 200.451 418.174 195.771 419.283C190.095 420.614 188.859 420.921 184.617 419.1C180.512 417.341 180.157 417.085 160.69 415.036C144.673 413.344 137.683 413.037 120.463 406.003C122.298 403.403 125.106 398.56 129.344 390.732C131.026 387.63 132.865 385.629 134.246 384.421C137.183 385.978 159.181 397.638 168.078 402.776C179.766 409.532 189.17 410.035 191.789 409.939C202.398 409.829 204.057 407.386 206.156 409.057C209.404 411.633 209.666 411.547 211.91 413.585C212.68 414.287 213.406 416.515 214.445 418.314C215.074 419.407 215.79 420.474 216.52 421.419C214.417 420.212 212.435 418.387 209.475 414.118C208.857 413.227 207.509 414.163 208.129 415.05C212.779 421.751 215.016 422.687 220.217 424.906C220.641 425.086 220.821 425.304 220.753 425.547L220.746 425.545Z" fill="black"/>
<path d="M357.942 420.271L374.565 341.523H441.606L423.871 427.668H317.656V420.271H357.942Z" fill="white"/>
<path d="M316.836 420.274V427.668C316.836 428.12 317.203 428.487 317.655 428.487H423.87C424.275 428.487 424.619 428.192 424.68 427.79L442.405 341.694C442.716 340.231 444.799 340.706 374.564 340.706C374.175 340.706 373.843 340.976 373.763 341.355L357.276 419.454H317.655C317.203 419.454 316.836 419.82 316.836 420.274ZM440.594 342.342L424.314 419.454H358.947L375.226 342.342H440.594ZM423.166 426.849H357.781L358.645 421.09H424.029L423.163 426.849H423.166ZM318.474 421.09H356.988L356.125 426.849H318.474V421.09Z" fill="black"/>
<path d="M400.144 395.245C393.105 395.245 388.671 387.129 391.013 379.239C392.801 373.23 398.001 369.392 403.083 370.305C403.572 370.394 403.876 370.892 403.717 371.374C401.738 377.21 404.805 381.949 410.365 380.896C410.889 380.807 411.332 381.195 411.336 381.691C411.409 388.655 406.514 395.245 400.147 395.245H400.144ZM392.586 379.705C390.864 385.505 393.197 391.557 397.79 393.197C403.649 395.305 409.275 389.364 409.675 382.644C403.682 383.119 400.259 378.017 401.876 371.814C398.186 371.65 394.116 374.557 392.586 379.705Z" fill="black"/>
<path d="M406.294 377.522C405.573 377.517 405.264 377.052 405.339 376.577C405.915 372.856 408.76 365.944 415.329 366.29C415.799 366.318 416.157 366.734 416.094 367.217C415.209 374.115 411.921 377.566 406.294 377.522ZM414.339 367.93C409.584 368.274 407.738 373.609 407.169 375.849C412.35 375.437 413.798 371.363 414.339 367.93Z" fill="black"/>
<path d="M110.059 420.271L93.4355 341.521H26.3945L44.1294 427.668L150.344 427.665V420.271H110.059Z" fill="white"/>
<path d="M150.343 419.454H110.722L94.234 341.354C94.1545 340.975 93.8199 340.706 93.4338 340.706H26.3928C25.8663 340.706 25.4848 341.188 25.5925 341.694L43.318 427.789C43.3788 428.192 43.7228 428.486 44.1276 428.486H150.343C150.794 428.486 151.162 428.121 151.162 427.668V420.273C151.162 419.821 150.794 419.454 150.343 419.454ZM92.7692 342.342L109.049 419.454H43.6807L27.4013 342.342H92.7692ZM43.9662 421.09H109.35L110.214 426.848H44.8296L43.9662 421.09ZM149.521 426.848H111.871L111.007 421.09H149.521V426.848Z" fill="black"/>
<path d="M67.1682 396.016C61.95 396.016 56.9588 391.435 55.6742 385.187C54.4152 379.047 57.1788 373.213 62.0998 371.615C62.5584 371.456 63.0779 371.76 63.1598 372.258C64.1801 378.363 69.1292 381.059 73.5143 377.516C73.8934 377.207 74.4948 377.301 74.7475 377.76C79.2497 385.975 75.1898 396.014 67.1659 396.014L67.1682 396.016ZM61.7465 373.517C58.1663 375.235 56.2662 379.917 57.2794 384.859C58.4985 390.789 63.4266 394.996 68.2329 394.301C74.3848 393.386 76.561 385.528 73.7343 379.386C69.0543 382.449 63.347 380.16 61.7465 373.517Z" fill="black"/>
<path d="M67.0445 376.078C65.7973 372.523 65.0228 365.075 70.9991 362.295C71.4461 362.085 71.9515 362.319 72.1106 362.749C74.6074 369.311 73.2666 373.888 68.1958 376.532C67.7699 376.756 67.2107 376.558 67.0445 376.078ZM70.9009 364.209C66.8129 366.776 67.7325 372.334 68.3081 374.578C72.691 371.772 72.0428 367.495 70.9009 364.209Z" fill="black"/>
<path d="M456.299 428.484H11.6993C10.6159 428.484 10.6159 426.849 11.6993 426.849H456.299C457.383 426.849 457.383 428.484 456.299 428.484Z" fill="black"/>
</svg>
