<svg width="655" height="460" viewBox="0 0 655 460" fill="none" xmlns="http://www.w3.org/2000/svg">
<path d="M449.502 396.396H12.5018C11.4369 396.396 11.4369 394.788 12.5018 394.788H449.502C450.567 394.788 450.567 396.396 449.502 396.396Z" fill="black"/>
<path d="M250.329 325.034H193.169C187.61 297.763 187.621 270.609 193.169 243.338H250.329C255.888 270.503 255.867 297.866 250.329 325.034Z" fill="white"/>
<path d="M250.327 325.839H193.165C192.783 325.839 192.452 325.572 192.376 325.197C186.991 298.77 186.626 271.455 192.376 243.179C192.452 242.804 192.783 242.535 193.165 242.535H250.327C250.708 242.535 251.04 242.802 251.115 243.177C256.61 270.029 256.725 297.682 251.115 325.197C251.04 325.572 250.708 325.839 250.327 325.839ZM193.825 324.231H249.669C254.998 297.673 255.014 270.699 249.669 244.143H193.825C188.484 270.846 188.473 297.53 193.825 324.231Z" fill="black"/>
<path d="M252.684 257.297C235.466 281.21 204.39 279.13 191.363 253.446C191.878 250.075 192.481 246.71 193.166 243.338H250.326C251.329 248.239 252.178 253.412 252.684 257.297Z" fill="black"/>
<path d="M221.563 353.225C238.937 353.225 253.02 340.218 253.02 324.173C253.02 308.129 238.937 295.122 221.563 295.122C204.189 295.122 190.105 308.129 190.105 324.173C190.105 340.218 204.189 353.225 221.563 353.225Z" fill="#81F889"/>
<path d="M221.564 354.03C203.776 354.03 189.305 340.637 189.305 324.173C189.305 307.71 203.776 294.319 221.564 294.319C239.353 294.319 253.824 307.712 253.824 324.173C253.824 340.634 239.353 354.03 221.564 354.03ZM221.564 295.925C204.662 295.925 190.912 308.598 190.912 324.171C190.912 339.744 204.664 352.42 221.564 352.42C238.465 352.42 252.217 339.747 252.217 324.171C252.217 308.595 238.465 295.925 221.564 295.925Z" fill="black"/>
<path d="M236.923 320.905C243.319 325.648 246.592 333.523 245.444 341.4C243.641 353.818 235.685 371.211 224.572 390.349H169.395C172.55 374.854 176.306 360.044 180.807 346.09C188.945 320.827 217.545 306.553 236.923 320.905Z" fill="white"/>
<path d="M225.267 390.753C225.124 390.999 224.858 391.154 224.57 391.154H169.395C168.876 391.154 168.505 390.68 168.607 390.188C171.863 374.191 175.711 359.273 180.042 345.844C181.999 339.772 185.242 334.038 189.424 329.261C213.795 301.454 249.822 316.935 246.241 341.517C244.553 353.128 237.494 369.692 225.267 390.753ZM170.382 389.546H224.108C236.089 368.855 242.998 352.617 244.647 341.285C248 318.267 213.9 303.781 190.638 330.321C186.597 334.935 183.465 340.473 181.576 346.338C177.351 359.439 173.584 373.973 170.382 389.546Z" fill="black"/>
<path d="M260.391 228.948C263.584 204.236 249.349 182.03 228.595 179.348C207.841 176.667 188.429 194.527 185.236 219.239C182.044 243.952 196.28 266.156 217.034 268.838C237.787 271.52 257.199 253.66 260.391 228.948Z" fill="#81F889"/>
<path d="M221.199 269.912C196.971 269.912 181.094 245.039 184.44 219.135C187.683 194.019 207.539 175.773 228.699 178.549C249.859 181.281 264.437 203.936 261.191 229.05C258.326 251.243 241.66 269.912 221.199 269.912ZM186.034 219.342C183.037 242.537 196.055 265.316 217.137 268.042C238.707 270.818 256.658 251.567 259.595 228.845C262.723 204.615 248.771 182.767 228.492 180.145C208.199 177.534 189.165 195.113 186.034 219.342Z" fill="black"/>
<path d="M365.814 390.349H244.806L237.336 305.766C237.768 295.508 245.917 277.547 273.492 274.286C296.428 271.572 325.132 305.766 358.44 309.474L365.812 390.351L365.814 390.349Z" fill="#81F889"/>
<path d="M372.763 184.784C357.395 174.452 328.175 164.838 294.51 170.784C281.865 173.017 244.011 162.773 217.09 189.842C189.731 223.716 207.046 288.755 237.339 305.766C237.065 292.325 251.213 273.578 277.088 274.247C302.606 274.907 326.361 306.649 358.508 309.384C399.264 312.853 405.591 206.855 372.765 184.786L372.763 184.784Z" fill="white"/>
<path d="M373.214 184.117C357.241 173.378 328.141 164.024 294.373 169.99C290.718 170.639 286.958 170.462 282.774 170.188C262.122 168.838 235.914 169.772 216.465 189.335C189.29 222.982 205.492 288.357 236.574 306.256L243.892 390.42C243.982 391.48 245.587 391.342 245.495 390.28L244.256 376.017C244.971 375.065 245.751 373.979 246.599 372.797C252.862 364.071 263.293 349.537 277.139 349.537C304.189 349.537 332.9 393.306 365.408 390.063L365.443 390.427C365.546 391.487 367.149 391.335 367.046 390.275L359.394 310.246C400.414 312.098 406.123 206.243 373.212 184.117H373.214ZM365.256 388.463C333.889 391.588 305.316 348.636 277.677 347.937C262.874 347.571 252.6 361.812 244.046 373.593L242.16 351.918C242.538 351.35 242.936 350.74 243.354 350.096C249.27 341.011 259.201 325.831 275.929 326.231C305.061 326.97 330.391 364.595 362.839 363.19L365.256 388.463ZM362.687 361.582C331.09 362.88 305.544 325.364 275.97 324.621C260.167 324.18 250.284 336.404 241.935 349.326L240.097 328.207C242.892 323.382 256.657 301.794 278.772 302.348C303.097 302.962 334.204 337.212 360.288 336.529L362.685 361.585L362.687 361.582ZM360.137 334.921C334.786 335.592 303.745 301.364 278.813 300.738C258.056 300.133 244.435 318.299 239.863 325.498L238.14 305.695C237.903 291.727 252.768 274.438 277.065 275.05C302.013 275.696 325.805 307.003 357.765 310.122L360.137 334.921ZM387.042 282.729C373.619 320.861 348.579 311.258 314.477 289.551C301.724 281.434 289.681 273.768 277.107 273.442C252.862 272.825 237.266 289.553 236.553 304.375C206.706 286.202 191.436 222.915 217.661 190.41C236.594 171.372 262.343 170.455 282.67 171.796C286.958 172.076 290.822 172.251 294.651 171.575C327.983 165.689 357.321 175.368 372.317 185.448C393.636 199.789 398.236 250.925 387.042 282.729Z" fill="black"/>
<path d="M410.476 330.462H353.316C347.757 303.188 347.771 276.041 353.316 248.766H410.476C416.038 275.938 416.019 303.287 410.476 330.462Z" fill="white"/>
<path d="M410.476 331.267H353.314C352.932 331.267 352.601 331 352.525 330.625C346.95 303.262 346.961 275.972 352.525 248.607C352.601 248.232 352.932 247.963 353.314 247.963H410.476C410.857 247.963 411.189 248.23 411.264 248.605C416.828 275.8 416.814 303.427 411.264 330.625C411.189 331 410.857 331.267 410.476 331.267ZM353.974 329.659H409.818C415.149 303.096 415.163 276.131 409.818 249.571H353.974C348.631 276.31 348.615 302.924 353.974 329.659Z" fill="black"/>
<path d="M412.066 258.462C404.726 271.354 393.291 276.614 378.826 276.614C368.136 276.614 358.393 271.959 351.074 264.321C351.771 257.501 351.932 255.585 353.319 248.766H410.479C411.251 252.545 411.509 254.684 412.066 258.462Z" fill="black"/>
<path d="M290.752 377.163C288.236 365.978 280.124 358.137 276.557 363.577C274.88 366.123 274.779 370.649 276.255 377.032C278.482 386.652 281.87 393.437 285.557 395.65C293.101 400.176 292.661 385.661 290.752 377.165V377.163Z" fill="black"/>
<path d="M276.5 366.76C278.791 366.222 284.044 365.548 284.044 365.548C284.044 365.548 291.183 374.304 291.05 390.74L281.756 391.076C284.249 386.025 283.883 373.395 276.5 366.76Z" fill="white"/>
<path d="M381.711 367.473C399.085 367.473 413.168 354.466 413.168 338.421C413.168 322.377 399.085 309.37 381.711 309.37C364.337 309.37 350.254 322.377 350.254 338.421C350.254 354.466 364.337 367.473 381.711 367.473Z" fill="#81F889"/>
<path d="M381.709 368.278C363.921 368.278 349.449 354.885 349.449 338.424C349.449 321.963 363.921 308.57 381.709 308.57C399.497 308.57 413.969 321.963 413.969 338.424C413.969 354.885 399.497 368.278 381.709 368.278ZM381.709 310.176C364.806 310.176 351.057 322.849 351.057 338.422C351.057 353.995 364.809 366.668 381.709 366.668C398.609 366.668 412.361 353.995 412.361 338.422C412.361 322.849 398.609 310.176 381.709 310.176Z" fill="black"/>
<path d="M353.58 334.636C379.225 327.686 406.753 343.892 405.286 367.95C404.801 375.896 399.98 382.934 392.751 386.267C373.107 395.326 331.125 397.125 288.984 395.51C294.934 390.283 288.347 363.637 278.91 362.657C304.495 350.856 329.485 341.166 353.58 334.636Z" fill="white"/>
<path d="M240.194 392.849C257.559 395.434 270.428 395.347 278.943 392.667C280.999 392.021 282.528 390.278 282.903 388.155C283.602 384.189 283.296 378.886 281.836 374.244C280.334 369.469 276.5 365.789 271.67 364.478C257.789 360.711 245.047 358.643 233.738 358.715C229.982 365.854 243.244 386.832 240.194 392.849Z" fill="white"/>
<path d="M372.383 332.683C366.106 331.784 359.535 332.186 353.364 333.858C330.61 340.025 306.145 349.206 278.568 361.925C277.825 362.263 278.009 363.374 278.821 363.455C279.858 363.563 280.907 364.053 281.933 364.876L276.645 365.838C276.314 365.897 275.143 364.586 271.877 363.699C257.707 359.853 245.062 357.905 234.275 357.905C229.222 357.905 214.904 362.146 208.124 364.731C202.353 366.932 197.41 370.435 192.822 374.074C187.532 378.267 191.272 382.772 193.516 382.225C189.386 386.137 192.021 389.224 194.772 389.974C194.772 389.974 193.583 392.09 194.243 393.279C196.304 396.986 200.918 395.572 202.137 395.117C201.675 396.239 202.843 400.137 207.871 400.71C212.381 401.237 222.95 398.171 227.09 396.729L240.227 393.665C251.674 395.363 268.096 396.922 279.182 393.433C280.385 393.053 281.425 392.354 282.211 391.437L290.121 391.326C289.804 392.952 289.247 394.199 288.447 394.903C287.902 395.383 288.226 396.287 288.948 396.31C315.035 397.315 369.248 397.989 393.083 386.993C415.441 376.682 409.158 337.975 372.381 332.681L372.383 332.683ZM282.108 388.016C281.784 389.852 280.479 391.34 278.699 391.899C270.463 394.491 257.875 394.592 241.276 392.193C242.943 385.077 231.621 366.346 234.256 359.517C244.901 359.517 257.427 361.447 271.459 365.253C276.05 366.5 279.645 369.95 281.071 374.483C282.425 378.796 282.823 383.982 282.108 388.016ZM283.233 389.817C284.693 386.496 284.127 378.853 282.605 374C281.765 371.33 280.249 368.998 278.253 367.183L283.361 366.254C287.984 371.496 290.988 382.662 290.346 389.716L283.233 389.817ZM404.479 367.898C404.012 375.56 399.387 382.319 392.411 385.537C375.637 393.27 339.509 396.543 290.602 394.765C294.698 387.766 289.544 366.541 281.179 362.498C307.882 350.28 331.652 341.412 353.785 335.415C378.889 328.603 405.912 344.408 404.477 367.901L404.479 367.898Z" fill="black"/>
<path d="M382.285 272.603C403.21 272.603 420.175 252.404 420.175 227.486C420.175 202.569 403.21 182.369 382.285 182.369C361.359 182.369 344.395 202.569 344.395 227.486C344.395 252.404 361.359 272.603 382.285 272.603Z" fill="#81F889"/>
<path d="M382.287 273.408C360.952 273.408 343.594 252.809 343.594 227.486C343.594 202.163 360.952 181.564 382.287 181.564C403.621 181.564 420.98 202.163 420.98 227.486C420.98 252.809 403.621 273.408 382.287 273.408ZM382.287 183.174C361.837 183.174 345.201 203.056 345.201 227.489C345.201 251.921 361.837 271.803 382.287 271.803C402.736 271.803 419.372 251.921 419.372 227.489C419.372 203.056 402.736 183.174 382.287 183.174Z" fill="black"/>
<path d="M391.667 263.697C399.204 242.935 397.111 206.056 383.028 187.781C382.377 186.936 383.649 185.954 384.304 186.796C398.696 205.474 400.86 243.091 393.18 264.244C392.817 265.245 391.306 264.697 391.667 263.697Z" fill="black"/>
<path d="M391.488 340.767C397.668 333.474 398.643 321.804 396.872 313.476C396.78 313.041 398.411 312.91 398.505 313.342C400.359 322.057 399.248 334.1 392.714 341.809C392.051 342.594 390.784 341.595 391.488 340.767Z" fill="black"/>
<path d="M230.887 384.523C230.751 384.566 217.397 388.872 212.335 390.316C207.233 391.772 200.793 395.126 198.636 395.126C197.376 395.126 195.717 394.693 195.062 393.746C192.67 390.293 204.407 386.772 208.834 384.07C211.491 382.446 225.12 379.076 229.235 378.08C230.27 377.834 229.893 376.266 228.858 376.516C223.51 377.809 210.775 380.995 207.995 382.694C205.474 384.235 198.818 386.678 195.533 389.065C193.242 388.946 192.417 387.674 192.125 386.659C191.943 386.018 191.6 384.824 193.978 383.021C197.125 380.633 203.029 377.354 206.019 375.792C210.138 373.641 226.089 369.17 226.25 369.127C227.266 368.844 226.85 367.289 225.815 367.576C225.155 367.76 209.545 372.137 205.274 374.364C204.439 374.801 196.985 378.718 193.003 381.74C189.753 384.205 190.351 386.308 190.574 387.101C191.053 388.794 192.288 389.976 194.015 390.448C193.058 391.639 192.842 393.369 193.737 394.663C194.797 396.191 197.037 396.731 198.634 396.731C200.124 396.731 202.728 395.675 205.743 394.452C212.169 391.837 208.409 393.327 231.379 386.055C232.402 385.723 231.887 384.187 230.887 384.523Z" fill="white"/>
<path d="M315.757 146.8L291.216 157.594L262.008 156.014L262.73 179.842C262.771 181.353 263.411 182.786 264.499 183.832C278.648 197.455 300.717 195.12 315.221 183.719C317.932 181.59 319.345 178.209 318.954 174.786L315.757 146.8Z" fill="#81F889"/>
<path d="M291.216 157.594L262.008 156.014L262.102 159.093C265.695 159.07 287.996 161.058 291.439 161.368C292.133 161.43 291.6 161.552 316.035 149.238L315.757 146.8L291.216 157.594Z" fill="black"/>
<path d="M331.33 75.0622C331.548 59.0864 312.592 46.1328 289.479 46.1328C271.008 46.1328 254.922 55.1741 249.781 65.8829C244.638 76.5917 240.328 89.9478 240.328 89.9478L246.202 102.044L240.54 113.668L250.784 155.406L291.216 157.591L320.72 144.614C324.954 128.086 331.079 93.3978 331.328 75.0622H331.33Z" fill="white"/>
<path d="M296.763 114.954C296.763 114.954 240.406 113.728 240.866 113.422C241.326 113.116 246.073 101.63 246.073 101.63L240.406 89.6836L296.303 90.9095L302.736 103.313L296.763 114.954Z" fill="white"/>
<path d="M331.331 75.0629C330.827 93.4836 324.905 128.354 320.723 144.615L291.219 157.591L297.038 115.15L302.022 104.197C302.275 103.64 302.275 103.006 302.017 102.449L296.785 91.2571C296.785 91.2571 301.905 75.3848 308.018 62.6589C311.337 55.7405 320.353 52.6539 327.446 62.8912C329.935 66.5919 331.331 70.7159 331.331 75.0629Z" fill="#81F889"/>
<path d="M326.472 116.353C325.43 122.482 324.317 128.409 323.22 133.672C312.647 129.15 310.262 116.543 310.262 116.543L326.472 116.353Z" fill="black"/>
<path d="M328.107 62.4332C319.96 50.6641 303.957 45.3281 289.478 45.3281C271.676 45.3281 254.675 53.8243 249.056 65.5336C243.95 76.1688 239.605 89.564 239.561 89.6997C239.499 89.8975 239.513 90.1114 239.605 90.3C245.426 102.255 245.415 101.823 245.035 102.6C239.322 114.294 239.66 113.461 239.759 113.861L250.003 155.597C250.088 155.942 250.387 156.19 250.742 156.211L261.227 156.777L261.929 179.864C261.975 181.589 262.69 183.204 263.941 184.411C278.185 198.126 300.718 196.144 315.719 184.354C318.631 182.07 320.176 178.369 319.756 174.696L316.625 147.301C321.414 145.196 321.375 145.332 321.503 144.819C325.908 127.624 331.916 91.427 332.136 75.0878C332.196 70.6856 330.784 66.4168 328.109 62.4378L328.107 62.4332ZM250.507 66.2305C259.684 47.1221 297.045 39.7184 319.215 55.6942C314.213 54.6477 309.518 57.6653 307.29 62.309C301.898 73.533 297.227 87.3445 296.217 90.3943C282.475 89.1983 265.02 88.7912 241.447 89.1247C242.579 85.7506 246.284 75.0303 250.507 66.2305ZM246.482 103.307C246.873 102.506 246.875 101.586 246.482 100.779L241.604 90.7324C265.165 90.415 282.564 90.8152 296.247 92.0135L301.284 102.784C301.641 103.555 301.615 103.139 296.523 114.33L241.811 112.895L246.482 103.307ZM241.574 114.501L296.116 115.931L290.52 156.747L251.425 154.631L241.574 114.501ZM318.155 174.878C318.511 177.999 317.198 181.145 314.725 183.084C301.424 193.538 279.494 197.149 265.059 183.25C264.112 182.339 263.573 181.12 263.537 179.816L263.419 175.941C268.645 180.237 276.762 183.351 285.688 183.351C298.085 183.351 310.707 177.438 317.653 170.492L318.155 174.878ZM317.405 168.316C317.055 168.794 316.653 169.241 316.209 169.65C303.396 181.41 280.954 187.224 264.599 174.82C264.089 174.436 263.668 173.965 263.343 173.424L263.008 162.327C263.18 162.495 263.362 162.656 263.553 162.808C279.172 175.101 301.549 170.864 315.379 157.718C315.636 157.476 315.878 157.221 316.105 156.956L317.403 168.316H317.405ZM315.836 154.583C315.418 155.303 314.893 155.965 314.272 156.552C301.963 168.254 280.352 173.981 264.549 161.543C263.783 160.94 263.219 160.14 262.913 159.222L262.842 156.864C291.532 158.417 291.27 158.449 291.544 158.332L315.082 147.977L315.836 154.583ZM320.041 144.033L292.211 156.276L297.818 115.375L302.754 104.528C303.106 103.755 303.101 102.874 302.747 102.104L297.648 91.2039C298.384 88.9568 303.179 74.5818 308.741 63.0059C310.36 59.6341 313.357 57.3824 316.561 57.1248C324.029 56.5636 330.517 66.6238 330.522 75.0487C330.034 92.9105 324.434 126.53 320.036 144.03L320.041 144.033Z" fill="black"/>
<path d="M254.441 131.254C253.949 130.304 255.382 129.57 255.87 130.508C260.511 139.421 273.007 138.117 279.856 130.761C280.578 129.979 281.761 131.081 281.034 131.858C273.465 139.984 259.632 141.222 254.441 131.254Z" fill="black"/>
<path d="M324.546 129.795C316.367 129.795 309.738 119.54 309.738 106.887C309.738 94.2352 316.369 83.9795 324.546 83.9795H335.892V129.795H324.546Z" fill="white"/>
<path d="M335.786 129.795C343.043 129.795 348.924 119.539 348.924 106.887C348.924 94.2356 343.043 83.9795 335.786 83.9795C328.53 83.9795 322.648 94.2356 322.648 106.887C322.648 119.539 328.53 129.795 335.786 129.795Z" fill="white"/>
<path d="M349.729 106.885C349.729 93.9152 343.574 83.3467 335.97 83.1765L324.546 83.1719C315.937 83.1719 308.934 93.8094 308.934 106.885C308.934 119.96 315.937 130.598 324.546 130.598L335.97 130.593C343.574 130.423 349.729 119.855 349.729 106.885ZM324.548 128.988C316.827 128.988 310.544 119.07 310.544 106.885C310.544 94.6995 316.825 84.7819 324.548 84.7819H330.738C318.902 92.6249 318.902 121.147 330.738 128.99L324.548 128.988ZM335.786 128.988C328.985 128.988 323.454 119.07 323.454 106.885C323.454 94.6995 328.985 84.7819 335.786 84.7819C342.587 84.7819 348.121 94.6995 348.121 106.885C348.121 119.07 342.587 128.988 335.786 128.988Z" fill="black"/>
<path d="M335.785 118.935C329.428 118.933 329.433 94.8356 335.788 94.8379C342.145 94.8402 342.14 118.937 335.785 118.935Z" fill="white"/>
<path d="M335.787 119.738C328.33 119.738 328.333 94.0309 335.787 94.0332C341.753 94.0332 342.422 108.9 340.118 115.449C338.867 118.995 337.07 119.738 335.787 119.738ZM335.787 95.6409C334.324 95.6409 333.395 97.6603 332.972 98.8632C330.628 105.503 332.036 118.126 335.785 118.128C336.553 118.128 337.261 117.581 337.884 116.5C341.137 110.876 339.927 95.6455 335.787 95.6409Z" fill="black"/>
<path d="M250.301 102.929C252.355 100.871 258.427 100.646 261.24 102.405C262.139 102.975 261.288 104.332 260.382 103.771C258.121 102.348 252.879 102.624 251.442 104.066C250.697 104.811 249.547 103.684 250.301 102.929Z" fill="black"/>
<path d="M285.614 104.066C284.179 102.619 278.933 102.352 276.674 103.771C275.761 104.33 274.919 102.976 275.816 102.405C278.634 100.641 284.708 100.873 286.755 102.93C287.507 103.689 286.357 104.809 285.614 104.066Z" fill="black"/>
<path d="M266.945 107.143C267.276 106.72 267.939 106.876 268.058 107.392C268.847 110.837 269.229 115.699 268.585 120.601C268.419 121.856 267.235 122.717 265.993 122.487C263.686 122.061 260.415 121.056 260.349 118.779C260.266 115.968 265.018 109.607 266.945 107.143Z" fill="#81F889"/>
<path d="M265.846 123.275C261.787 122.53 259.606 120.982 259.544 118.804C259.457 115.857 263.742 109.923 266.304 106.646C267.038 105.698 268.569 106.027 268.843 107.214C269.775 111.29 269.972 116.207 269.381 120.704C269.161 122.41 267.537 123.592 265.846 123.275ZM267.348 107.922C263.468 112.923 261.101 117.058 261.152 118.753C261.205 120.589 264.657 121.419 266.138 121.693C266.978 121.831 267.686 121.253 267.787 120.494C268.326 116.373 268.16 111.706 267.348 107.922Z" fill="black"/>
<path d="M177.975 390.358H39.8812L24.0503 266.037C23.3258 260.342 27.7671 255.298 33.5079 255.298H150.348C156.309 255.298 161.342 259.73 162.096 265.646L177.975 390.358Z" fill="white"/>
<path d="M177.975 391.161H39.8811C39.4763 391.161 39.1336 390.86 39.0807 390.457L23.2475 266.133C22.4655 259.955 27.2794 254.49 33.5055 254.49H150.346C156.696 254.49 162.089 259.237 162.894 265.539L178.774 390.255C178.836 390.733 178.463 391.161 177.975 391.161ZM40.5918 389.553H177.062L161.298 265.744C160.597 260.247 155.889 256.103 150.348 256.103H33.5078C28.2523 256.103 24.1836 260.721 24.8483 265.933L40.5918 389.553Z" fill="black"/>
<path d="M46.2347 383.141L31.2065 265.123C31.0294 263.739 32.1104 262.513 33.5042 262.513H150.344C152.667 262.513 154.641 264.249 154.933 266.554L169.779 383.138L46.2347 383.141Z" fill="#81F889"/>
<path d="M169.782 383.944H46.2356C45.8308 383.944 45.4881 383.643 45.4352 383.24L30.407 265.222C30.177 263.357 31.6191 261.708 33.5074 261.708H150.347C153.077 261.708 155.391 263.748 155.736 266.451L170.583 383.035C170.645 383.514 170.27 383.941 169.782 383.941V383.944ZM46.9463 382.336H168.869L154.138 266.655C153.899 264.753 152.27 263.318 150.35 263.318H33.5074C32.5966 263.318 31.8905 264.121 32.0078 265.022L46.9463 382.336Z" fill="black"/>
<path d="M177.977 405.534H55.0582C46.677 405.534 39.8828 398.74 39.8828 390.358H177.979L177.977 405.534Z" fill="white"/>
<path d="M177.975 406.338H55.0562C46.2449 406.338 39.0781 399.169 39.0781 390.358C39.0781 389.914 39.4369 389.553 39.8831 389.553H177.977C178.421 389.553 178.782 389.912 178.782 390.358V405.535C178.782 405.979 178.424 406.34 177.977 406.34L177.975 406.338ZM40.7065 391.16C41.1274 398.714 47.3995 404.728 55.0539 404.728H177.17V391.16H40.7065Z" fill="black"/>
<path d="M108.843 397.946C108.843 399.786 107.353 401.276 105.513 401.276H84.1663C82.3263 401.276 80.8359 399.786 80.8359 397.946C80.8359 396.106 82.3263 394.615 84.1663 394.615H105.513C107.353 394.615 108.843 396.106 108.843 397.946Z" fill="white"/>
<path d="M105.511 402.079H84.1667C81.8874 402.079 80.0312 400.223 80.0312 397.944C80.0312 395.665 81.8874 393.809 84.1667 393.809H105.511C107.79 393.809 109.646 395.665 109.646 397.944C109.646 400.223 107.79 402.079 105.511 402.079ZM84.1667 395.419C82.7752 395.419 81.639 396.553 81.639 397.946C81.639 399.34 82.7729 400.474 84.1667 400.474H105.511C106.902 400.474 108.038 399.34 108.038 397.946C108.038 396.553 106.904 395.419 105.511 395.419H84.1667Z" fill="black"/>
<path d="M76.4854 397.946C76.4854 399.786 74.995 401.276 73.155 401.276H62.2093C60.3693 401.276 58.8789 399.786 58.8789 397.946C58.8789 396.106 60.3693 394.615 62.2093 394.615H73.155C74.995 394.615 76.4854 396.106 76.4854 397.946Z" fill="white"/>
<path d="M73.1553 402.079H62.2096C59.9303 402.079 58.0742 400.223 58.0742 397.944C58.0742 395.665 59.9303 393.809 62.2096 393.809H73.1553C75.4346 393.809 77.2907 395.665 77.2907 397.944C77.2907 400.223 75.4346 402.079 73.1553 402.079ZM62.2096 395.419C60.8181 395.419 59.6819 396.553 59.6819 397.946C59.6819 399.34 60.8158 400.474 62.2096 400.474H73.1553C74.5468 400.474 75.683 399.34 75.683 397.946C75.683 396.553 74.5491 395.419 73.1553 395.419H62.2096Z" fill="black"/>
<path d="M52.5606 370.824C52.7515 372.303 54.0096 373.41 55.5 373.41H158.308C160.095 373.41 161.477 371.836 161.247 370.065L149.069 275.949C148.878 274.471 147.62 273.364 146.129 273.364H43.3238C41.5367 273.364 40.1544 274.937 40.3844 276.708L52.5606 370.824Z" fill="white"/>
<path d="M158.306 374.212H55.4986C53.6103 374.212 52.0003 372.802 51.7611 370.928L39.5826 276.809C39.2905 274.555 41.0477 272.557 43.3201 272.557H146.128C148.016 272.557 149.626 273.969 149.865 275.843L162.044 369.959C162.338 372.197 160.595 374.212 158.306 374.212ZM43.3201 274.167C42.0321 274.167 41.0086 275.303 41.1788 276.607L53.355 370.723C53.4953 371.797 54.4153 372.604 55.4986 372.604H158.306C159.62 372.604 160.613 371.45 160.45 370.166L148.271 276.05C148.131 274.976 147.211 274.167 146.128 274.167H43.3201Z" fill="black"/>
<path d="M144.583 306.511C141.543 283.038 112.372 270.972 97.9736 287.357C83.3157 304.032 98.5141 333.421 121.887 333.421C136.239 333.421 146.517 321.468 144.583 306.511ZM142.854 305.81H120.233L133.916 289.247C138.504 293.588 141.802 299.4 142.854 305.81ZM119.088 304.674L116.079 281.437C122.186 281.667 128.028 284.183 132.72 288.173L119.088 304.674ZM137.869 324.812C124.444 340.082 96.9455 328.75 94.0636 306.511C92.2535 292.518 101.718 281.805 114.458 281.43L117.731 306.718C117.781 307.121 118.124 307.42 118.529 307.42H143.072C143.755 314.048 141.922 320.203 137.869 324.812Z" fill="black"/>
<path d="M78.7885 301.746H51.8532C51.4484 301.746 51.108 301.447 51.0551 301.044C48.5159 281.354 48.5734 282.785 48.9161 282.394C49.2887 281.97 48.9138 282.122 76.4563 282.122C76.8611 282.122 77.2015 282.421 77.2544 282.824L79.5866 300.84C79.651 301.309 79.2853 301.748 78.7885 301.748V301.746ZM52.5616 300.138H77.8731L75.7502 283.73H50.4387L52.5616 300.138Z" fill="black"/>
<path d="M79.4449 306.82H52.5096C51.4447 306.82 51.4447 305.212 52.5096 305.212H79.4449C80.5098 305.212 80.5098 306.82 79.4449 306.82Z" fill="black"/>
<path d="M78.0742 311.891H53.1698C52.1049 311.891 52.1049 310.283 53.1698 310.283H78.0742C79.1391 310.283 79.1391 311.891 78.0742 311.891Z" fill="black"/>
<path d="M74.9499 316.965H53.8221C52.7572 316.965 52.7572 315.357 53.8221 315.357H74.9499C76.0148 315.357 76.0148 316.965 74.9499 316.965Z" fill="black"/>
<path d="M150.789 348.388H123.853C122.788 348.388 122.788 346.78 123.853 346.78H150.789C151.854 346.78 151.854 348.388 150.789 348.388Z" fill="black"/>
<path d="M151.201 353.461H125.224C124.16 353.461 124.16 351.854 125.224 351.854H151.201C152.266 351.854 152.266 353.461 151.201 353.461Z" fill="black"/>
<path d="M151.977 358.535H128.349C127.285 358.535 127.285 356.928 128.349 356.928H151.977C153.042 356.928 153.042 358.535 151.977 358.535Z" fill="black"/>
<path d="M107.958 359.802H62.1396C61.7348 359.802 61.3944 359.503 61.3415 359.101L56.661 322.924C56.5207 321.866 58.1215 321.666 58.2549 322.717L62.8457 358.192H107.956C109.021 358.192 109.021 359.8 107.956 359.8L107.958 359.802Z" fill="black"/>
<path d="M66.1367 367.526C65.8446 359.848 65.3892 331.947 73.0528 333.067C77.3009 333.755 80.0655 342.433 82.9934 351.619C85.1347 358.335 87.7959 366.693 90.1856 366.693C97.0028 366.693 93.5527 336.112 105.54 336.112C106.605 336.112 106.605 337.72 105.54 337.72C95.1719 337.72 99.0843 368.301 90.1856 368.301C86.6206 368.301 84.2285 360.798 81.4593 352.109C79.9528 347.382 75.3275 331.77 71.5877 335.054C67.5673 338.608 67.45 359.655 67.7444 367.468C67.7881 368.547 66.1735 368.581 66.1367 367.526Z" fill="black"/>
<path d="M177.977 405.534H276.191C280.382 405.534 283.779 402.137 283.779 397.946C283.779 393.756 280.382 390.358 276.191 390.358H177.977V405.534Z" fill="white"/>
<path d="M276.191 406.339H177.977C177.533 406.339 177.172 405.98 177.172 405.533V390.356C177.172 389.912 177.531 389.551 177.977 389.551H276.191C280.819 389.551 284.582 393.316 284.582 397.941C284.582 402.567 280.817 406.334 276.191 406.334V406.339ZM178.78 404.731H276.191C279.931 404.731 282.974 401.688 282.974 397.946C282.974 394.204 279.931 391.163 276.191 391.163H178.78V404.731Z" fill="black"/>
<path d="M173.837 421.027C141.136 420.417 126.243 416.799 94.1512 401.661C92.4262 400.847 91.6902 398.793 92.5021 397.07C93.3163 395.345 95.3794 394.611 97.0929 395.421C129.967 410.925 144.425 413.579 173.968 414.127C183.182 414.302 365.666 414.221 365.666 414.221C402.618 414.221 442.042 407.448 442.042 326.554V244.371C442.042 192.605 414.79 110.34 363.24 110.34H338.172C336.268 110.34 334.722 108.795 334.722 106.89C334.722 104.986 336.268 103.44 338.172 103.44H363.24C418.421 103.44 448.942 186.769 448.942 244.371V326.554C448.942 421.121 394.768 421.121 365.666 421.121L173.839 421.027H173.837Z" fill="black"/>
<path d="M110.188 156.048L103.164 155.818C102.968 154.903 102.724 153.997 102.439 153.113L108.405 149.408C108.73 149.203 108.835 148.782 108.645 148.449L103.486 139.513C103.295 139.18 102.872 139.06 102.536 139.242L96.3327 142.556C95.7025 141.869 95.0447 141.211 94.3547 140.583L97.6736 134.375C97.8507 134.037 97.7311 133.621 97.4022 133.425L88.4621 128.266C88.1286 128.076 87.7077 128.181 87.503 128.506L83.7977 134.472C82.9145 134.187 82.0106 133.947 81.0929 133.747L80.8652 126.728C80.8514 126.341 80.5363 126.04 80.1545 126.04H69.8344C69.4526 126.04 69.1375 126.341 69.1237 126.728L68.896 133.747C67.976 133.947 67.0744 134.187 66.1912 134.472L62.4813 128.506C62.2812 128.181 61.8557 128.076 61.5268 128.266L52.5867 133.425C52.2532 133.621 52.1336 134.039 52.3153 134.375L55.6342 140.583C54.9465 141.209 54.2841 141.866 53.6562 142.556L47.4531 139.242C47.115 139.06 46.6941 139.18 46.5032 139.513L41.3397 148.449C41.1488 148.782 41.2546 149.203 41.5835 149.408L47.5451 153.113C47.2599 153.997 47.0207 154.903 46.8206 155.818L39.801 156.048C39.4192 156.057 39.1133 156.372 39.1133 156.759V167.074C39.1133 167.461 39.4192 167.771 39.801 167.785L46.8206 168.013C47.0207 168.933 47.2599 169.834 47.5451 170.718L41.5835 174.427C41.2546 174.628 41.1465 175.053 41.3397 175.387C46.8528 184.964 46.5308 184.676 47.1196 184.676C47.3703 184.676 46.9839 184.842 53.6562 181.272C54.2818 181.965 54.9442 182.622 55.6342 183.25L52.3153 189.453C52.1336 189.791 52.2532 190.212 52.5867 190.403L61.5268 195.567C61.8718 195.76 62.2858 195.64 62.4813 195.328L66.1912 189.361C67.0744 189.647 67.9783 189.886 68.896 190.086L69.1237 197.105C69.1375 197.487 69.4526 197.793 69.8344 197.793H80.1545C80.5363 197.793 80.8514 197.487 80.8652 197.105L81.0929 190.086C82.0129 189.886 82.9145 189.647 83.7977 189.361C87.7123 195.666 87.5444 195.661 88.1079 195.661C88.3908 195.661 87.7905 195.974 97.4022 190.406C97.7311 190.215 97.8507 189.791 97.6736 189.456L94.3547 183.253C95.0424 182.627 95.7002 181.969 96.3327 181.275L102.536 184.593C102.865 184.773 103.288 184.662 103.486 184.322L108.645 175.387C108.835 175.053 108.73 174.628 108.405 174.427L102.439 170.718C102.724 169.834 102.968 168.93 103.164 168.013L110.188 167.785C110.57 167.771 110.871 167.461 110.871 167.074V156.759C110.871 156.372 110.57 156.057 110.188 156.048ZM74.9956 175.925C67.2607 175.925 60.9863 169.65 60.9863 161.915C60.9863 154.181 67.2607 147.902 74.9956 147.902C82.7305 147.902 89.0095 154.176 89.0095 161.915C89.0095 169.655 82.7351 175.925 74.9956 175.925Z" fill="white"/>
<path d="M80.1587 198.598H69.8386C69.0175 198.598 68.3528 197.956 68.3229 197.135L68.1182 190.732C67.5846 190.603 67.0579 190.465 66.5496 190.314L63.1663 195.753C62.7523 196.418 61.8231 196.664 61.1285 196.266L52.1861 191.102C51.4823 190.698 51.2224 189.789 51.6088 189.074L54.6333 183.42C54.2354 183.043 53.8536 182.661 53.4902 182.28L47.8345 185.304C47.1284 185.677 46.1969 185.405 45.8059 184.722L40.647 175.789C40.233 175.071 40.463 174.17 41.1668 173.74L46.5971 170.361C46.4476 169.853 46.3073 169.328 46.1785 168.792L39.7799 168.588C38.9565 168.558 38.3125 167.893 38.3125 167.072V156.757C38.3125 155.929 38.9588 155.262 39.7868 155.243L46.1785 155.032C46.3073 154.493 46.4453 153.969 46.5971 153.463L41.1622 150.084C40.4653 149.652 40.2399 148.755 40.6447 148.042L45.8082 139.104C46.2199 138.389 47.11 138.133 47.8368 138.529L53.4925 141.547C53.8605 141.16 54.24 140.778 54.6333 140.408L51.6065 134.75C51.2201 134.033 51.4708 133.14 52.1792 132.724L61.1262 127.565C61.8231 127.153 62.7408 127.386 63.1686 128.082L66.5496 133.515C67.0648 133.363 67.5892 133.223 68.1182 133.096L68.3229 126.698C68.3528 125.874 69.0175 125.23 69.8386 125.23H80.1587C80.9775 125.23 81.6445 125.872 81.6721 126.696L81.8791 133.096C82.4058 133.223 82.9302 133.361 83.4454 133.515L86.8264 128.078C87.2634 127.381 88.1558 127.158 88.8688 127.563L97.8112 132.722C98.5173 133.142 98.768 134.026 98.3931 134.743L95.364 140.41C95.7527 140.778 96.1345 141.158 96.5048 141.547L102.16 138.527C102.892 138.136 103.78 138.389 104.191 139.106L109.346 148.04C109.755 148.753 109.527 149.647 108.837 150.084L103.396 153.465C103.55 153.99 103.692 154.512 103.817 155.032L110.217 155.243C111.036 155.266 111.68 155.929 111.68 156.757V167.072C111.68 167.893 111.041 168.558 110.222 168.588L103.817 168.792C103.692 169.31 103.554 169.832 103.396 170.361L108.833 173.744C109.532 174.172 109.757 175.069 109.348 175.787L104.189 184.725C103.777 185.417 102.878 185.677 102.167 185.309L96.5048 182.277C96.1345 182.671 95.755 183.05 95.364 183.418L98.3885 189.076C98.7726 189.803 98.5196 190.691 97.8135 191.102L88.8711 196.264C88.1535 196.673 87.2358 196.413 86.8264 195.753L83.4477 190.314C82.9371 190.463 82.415 190.603 81.8791 190.732L81.6721 197.133C81.6422 197.954 80.9775 198.598 80.1587 198.598ZM66.1954 188.559C66.5266 188.559 66.9475 188.837 69.0727 189.299C69.4338 189.377 69.696 189.69 69.7052 190.061L69.9306 197.082L80.1587 196.99L80.2921 190.058C80.3036 189.69 80.5635 189.377 80.9246 189.299C81.8515 189.097 82.7117 188.867 83.5558 188.595C83.9008 188.483 84.2918 188.621 84.485 188.936L88.1903 194.904L97.0039 189.709L93.6482 183.63C93.4757 183.303 93.5424 182.905 93.8161 182.655C94.4831 182.045 95.1225 181.408 95.7389 180.732C95.9896 180.456 96.3944 180.389 96.7141 180.564L102.915 183.883L107.947 174.984L102.013 171.398C101.698 171.205 101.56 170.821 101.673 170.471C101.958 169.577 102.195 168.696 102.374 167.843C102.453 167.479 102.768 167.217 103.138 167.205L110.165 166.98L110.068 156.849L103.136 156.619C102.768 156.607 102.453 156.345 102.374 155.984C102.193 155.124 101.956 154.238 101.673 153.353C101.56 153.003 101.701 152.619 102.013 152.426L107.98 148.72L102.791 139.911L96.7118 143.262C96.3898 143.435 95.9896 143.368 95.7389 143.097C95.1225 142.428 94.4831 141.788 93.8138 141.176C93.5401 140.928 93.4734 140.528 93.6459 140.201L96.9625 133.996L88.0615 128.963L84.4804 134.897C84.2872 135.212 83.9031 135.357 83.5535 135.238C82.6933 134.964 81.817 134.729 80.92 134.534C80.5589 134.456 80.2967 134.143 80.2875 133.775L80.0598 126.753L69.834 126.843L69.7006 133.773C69.6891 134.143 69.4292 134.456 69.0681 134.534C68.1711 134.729 67.2948 134.964 66.4346 135.238C66.0804 135.357 65.7009 135.21 65.5077 134.897L61.7978 128.931L52.9888 134.12L56.3445 140.203C56.5193 140.53 56.4503 140.93 56.1766 141.179C55.505 141.79 54.8633 142.43 54.2538 143.097C54.0054 143.373 53.6006 143.44 53.2786 143.265L47.0755 139.953L42.0408 148.849L47.9748 152.43C48.2899 152.623 48.4302 153.008 48.3152 153.359C48.0507 154.181 47.8138 155.066 47.6114 155.991C47.5332 156.352 47.2204 156.614 46.8524 156.623L39.8305 156.855L39.9202 167.077L46.8501 167.21C47.2204 167.222 47.5332 167.481 47.6114 167.843C47.8138 168.769 48.0438 169.63 48.3152 170.474C48.4302 170.826 48.2876 171.207 47.9748 171.403L42.0109 175.113L47.202 183.922L53.2809 180.566C53.6075 180.391 54.01 180.465 54.2584 180.736C54.8426 181.383 55.4889 182.029 56.1789 182.657C56.4526 182.903 56.5216 183.305 56.3468 183.632L53.0279 189.835L61.9312 194.87C65.74 188.556 65.5675 188.559 66.1954 188.559ZM74.9952 176.73C66.8279 176.73 60.1855 170.085 60.1855 161.92C60.1855 153.755 66.8302 147.103 74.9952 147.103C83.1602 147.103 89.8118 153.75 89.8118 161.92C89.8118 170.09 83.1648 176.73 74.9952 176.73ZM74.9952 148.709C67.7157 148.709 61.7932 154.634 61.7932 161.918C61.7932 169.202 67.7157 175.12 74.9952 175.12C82.2747 175.12 88.2041 169.197 88.2041 161.918C88.2041 154.638 82.2793 148.709 74.9952 148.709Z" fill="black"/>
<path d="M198.461 80.8123L189.445 80.5156C189.194 79.3403 188.882 78.1788 188.516 77.0426L196.173 72.2862C196.589 72.024 196.725 71.4812 196.481 71.0557L189.861 59.5879C189.615 59.1601 189.075 59.006 188.64 59.2406L180.68 63.4933C179.87 62.6101 179.026 61.766 178.143 60.961L182.403 52.9961C182.63 52.5637 182.476 52.0278 182.055 51.7748L170.583 45.1554C170.155 44.9093 169.615 45.0473 169.352 45.4636L164.596 53.1203C163.462 52.7546 162.303 52.4464 161.123 52.1911L160.833 43.182C160.817 42.6852 160.412 42.2988 159.92 42.2988H146.674C146.184 42.2988 145.78 42.6875 145.761 43.182L145.471 52.1911C144.292 52.4487 143.135 52.7546 141.998 53.1203L137.237 45.4636C136.98 45.0473 136.432 44.9116 136.012 45.1554L124.539 51.7748C124.111 52.0255 123.957 52.5614 124.192 52.9961L128.451 60.961C127.568 61.766 126.717 62.6101 125.914 63.4933L117.954 59.2406C117.522 59.006 116.979 59.1601 116.733 59.5879L110.107 71.0557C109.861 71.4835 109.998 72.024 110.419 72.2862L118.071 77.0426C117.706 78.1765 117.398 79.3403 117.142 80.5156L108.133 80.8123C107.643 80.8238 107.25 81.2286 107.25 81.7254V94.9665C107.25 95.4633 107.643 95.8612 108.133 95.8796L117.142 96.1694C117.398 97.3493 117.706 98.5062 118.071 99.6424L110.419 104.403C109.996 104.661 109.861 105.208 110.107 105.634L116.733 117.102C116.899 117.392 117.207 117.557 117.526 117.557C117.848 117.557 117.223 117.84 125.914 113.189C126.719 114.08 127.568 114.924 128.451 115.726L124.192 123.687C123.957 124.119 124.111 124.662 124.539 124.908L136.012 131.534C136.453 131.783 136.987 131.629 137.237 131.226L141.998 123.567C143.132 123.933 144.292 124.241 145.471 124.496L145.761 133.505C145.777 133.995 146.182 134.389 146.674 134.389H159.92C160.41 134.389 160.815 133.995 160.833 133.505L161.123 124.496C162.303 124.239 163.46 123.933 164.596 123.567L169.352 131.226C169.523 131.5 169.826 131.654 170.127 131.654C170.482 131.654 169.513 132.176 182.055 124.908C182.478 124.664 182.63 124.121 182.403 123.687L178.143 115.726C179.026 114.921 179.87 114.08 180.68 113.189L188.64 117.449C189.063 117.679 189.604 117.536 189.861 117.102L196.481 105.634C196.727 105.206 196.589 104.659 196.173 104.403L188.516 99.6424C188.882 98.5085 189.194 97.3493 189.445 96.1694L198.461 95.8796C198.951 95.8635 199.34 95.4633 199.34 94.9665V81.7254C199.34 81.2286 198.951 80.8238 198.461 80.8123ZM153.296 106.324C143.369 106.324 135.317 98.2716 135.317 88.3448C135.317 78.418 143.369 70.3611 153.296 70.3611C163.223 70.3611 171.28 78.4134 171.28 88.3448C171.28 98.2762 163.227 106.324 153.296 106.324Z" fill="white"/>
<path d="M159.92 135.191H146.674C145.759 135.191 144.988 134.446 144.958 133.531L144.687 125.145C143.889 124.959 143.107 124.749 142.352 124.522L137.918 131.652C137.446 132.406 136.409 132.678 135.62 132.238L124.136 125.605C123.324 125.14 123.037 124.128 123.481 123.305L127.446 115.894C126.848 115.333 126.278 114.763 125.744 114.195L118.333 118.16C117.556 118.581 116.47 118.275 116.033 117.5L109.412 106.039C108.947 105.239 109.212 104.197 110.003 103.718L117.119 99.2885C116.889 98.5249 116.682 97.7429 116.496 96.954L108.11 96.6826C107.181 96.6527 106.449 95.8983 106.449 94.9668V81.7257C106.449 80.8011 107.197 80.0306 108.119 80.0099L116.5 79.7339C116.684 78.9404 116.894 78.1607 117.124 77.3994L110 72.9719C109.205 72.4774 108.949 71.4608 109.416 70.6535L116.04 59.188C116.509 58.3738 117.526 58.0978 118.343 58.5371L125.751 62.4954C126.291 61.9204 126.862 61.3523 127.451 60.798L123.485 53.3805C123.046 52.5663 123.334 51.5566 124.136 51.0851L135.613 44.4634C136.407 43.9988 137.442 44.261 137.925 45.0453L142.357 52.173C143.111 51.943 143.893 51.736 144.691 51.5497L144.963 43.1639C144.993 42.2324 145.747 41.501 146.679 41.501H159.924C160.856 41.501 161.61 42.2301 161.64 43.1662L161.911 51.552C162.71 51.7383 163.492 51.9476 164.246 52.1753L168.673 45.0453C169.17 44.2587 170.185 44.0011 170.987 44.4634L182.462 51.0851C183.265 51.5612 183.55 52.5686 183.12 53.3782L179.152 60.8003C179.73 61.3431 180.298 61.9112 180.852 62.4977L188.265 58.5371C189.074 58.0978 190.107 58.3922 190.565 59.1926L197.182 70.6581C197.644 71.4608 197.391 72.4774 196.609 72.9719L189.475 77.4017C189.712 78.1837 189.919 78.9657 190.098 79.7362L198.484 80.0122C199.399 80.0352 200.144 80.8057 200.144 81.728V94.9691C200.144 95.9006 199.418 96.655 198.488 96.6849L190.098 96.9563C189.921 97.7245 189.712 98.5042 189.475 99.2908L196.602 103.725C197.38 104.204 197.642 105.241 197.184 106.039L190.563 117.507C190.112 118.286 189.049 118.588 188.26 118.16L180.852 114.197C180.309 114.777 179.739 115.345 179.152 115.897L183.117 123.31C183.55 124.131 183.265 125.138 182.467 125.605L170.99 132.234C170.185 132.684 169.143 132.402 168.673 131.659L164.246 124.524C163.492 124.754 162.71 124.961 161.911 125.147L161.64 133.533C161.61 134.462 160.856 135.194 159.924 135.194L159.92 135.191ZM141.998 122.762C142.366 122.762 142.946 123.123 145.641 123.71C146.002 123.788 146.265 124.101 146.274 124.469L146.566 133.478L159.92 133.584L160.32 124.469C160.347 123.535 161.049 123.864 164.349 122.799C164.692 122.684 165.085 122.824 165.279 123.139L170.033 130.798L181.652 124.209L177.434 116.104C177.262 115.777 177.328 115.379 177.602 115.129C178.474 114.335 179.306 113.5 180.084 112.647C180.334 112.373 180.739 112.306 181.059 112.479L189.019 116.739L195.784 105.232L188.09 100.323C187.283 99.829 187.945 99.346 188.654 96.0018C188.729 95.6384 189.045 95.3762 189.415 95.3647L198.431 95.0726C198.539 80.6953 198.647 81.8453 198.431 81.6153L189.415 81.3186C189.045 81.3071 188.732 81.0449 188.654 80.6815C187.945 77.3419 187.285 76.8543 188.09 76.3598L195.747 71.6057L189.164 59.9907L181.059 64.2043C180.737 64.3791 180.332 64.3101 180.086 64.0387C179.288 63.1693 178.453 62.3367 177.602 61.5593C177.328 61.3109 177.262 60.9107 177.434 60.5841L181.694 52.6192L170.18 45.8549L165.279 53.5507C165.085 53.8681 164.694 54.0107 164.349 53.8911C161.033 52.8216 160.347 53.1505 160.32 52.2213L160.028 43.2122L146.674 43.1041L146.274 52.2213C146.246 53.1551 145.545 52.8262 142.244 53.8911C141.899 54.0084 141.51 53.8658 141.315 53.5507L136.554 45.8917L124.941 52.4743L129.159 60.5841C129.332 60.9107 129.265 61.3086 128.992 61.5593C128.113 62.3597 127.28 63.1923 126.51 64.0364C126.261 64.3124 125.857 64.3814 125.535 64.2043L117.574 59.9516L110.805 71.4585L118.499 76.3598C118.814 76.553 118.952 76.9371 118.839 77.2867C117.774 80.6148 118.094 81.291 117.17 81.3186L108.16 81.6153L108.055 94.9645L117.17 95.3647C117.538 95.3762 117.85 95.6361 117.929 95.9972C118.179 97.1495 118.485 98.2926 118.839 99.3966C118.952 99.7462 118.812 100.128 118.499 100.323L110.847 105.084L117.429 116.697L125.535 112.479C125.859 112.304 126.261 112.371 126.512 112.649C128.794 115.17 129.606 115.264 129.159 116.104L124.9 124.064L136.414 130.835C141.559 122.758 141.368 122.762 141.998 122.762ZM153.293 107.127C142.936 107.127 134.512 98.702 134.512 88.3451C134.512 77.9882 142.936 69.5564 153.293 69.5564C163.65 69.5564 172.082 77.9836 172.082 88.3451C172.082 98.7066 163.655 107.127 153.293 107.127ZM153.293 71.1641C143.824 71.1641 136.119 78.8737 136.119 88.3451C136.119 97.8165 143.824 105.519 153.293 105.519C162.762 105.519 170.474 97.8142 170.474 88.3451C170.474 78.876 162.765 71.1641 153.293 71.1641Z" fill="black"/>
<path d="M323.49 253.833L227.833 251.786C221.675 251.652 216.871 246.448 217.234 240.3L218.334 221.667C218.662 216.09 223.295 211.605 228.879 211.46L323.703 212.667C329.725 212.746 334.525 217.698 334.412 223.717L334.051 243.184C333.943 249.003 329.304 253.681 323.49 253.833Z" fill="white"/>
<path d="M334.54 219.577C332.96 215.168 328.758 211.931 323.716 211.865L228.862 210.657C222.861 210.814 217.886 215.63 217.532 221.624C216.32 242.204 216.458 238.593 216.458 242.42C216.398 246.673 219.889 251.595 221.746 253.603C223.912 255.951 226.868 257.285 230.06 257.352C230.06 257.352 325.65 259.403 325.756 259.399C332.003 259.238 336.987 254.215 337.102 247.963L337.461 228.496C337.509 225.899 336.005 222.148 334.54 219.577ZM218.04 240.348L219.14 221.716C219.443 216.552 223.73 212.398 228.894 212.265L323.693 213.472C329.268 213.546 333.712 218.128 333.611 223.703L333.252 243.17C333.151 248.559 328.857 252.89 323.475 253.028L227.854 250.981C222.155 250.859 217.709 246.038 218.043 240.346L218.04 240.348Z" fill="black"/>
<path d="M235.011 217.594C234.673 217.23 234.583 217.311 229.477 217.278C226.625 217.26 224.26 219.509 224.095 222.355L223.025 240.46C222.844 243.512 225.233 246.107 228.29 246.171L233.276 246.275C233.709 246.275 234.063 245.937 234.081 245.504L235.231 218.178C235.241 217.959 235.162 217.75 235.011 217.594Z" fill="black"/>
<path d="M251.02 217.79C250.694 217.438 251.308 217.477 239.647 217.403C239.217 217.401 238.86 217.741 238.842 218.174L237.68 245.539C237.662 245.981 238.009 246.367 238.467 246.376L249.272 246.606C249.705 246.606 250.059 246.268 250.077 245.836C251.255 217.808 251.386 218.169 251.02 217.79Z" fill="black"/>
<path d="M266.524 217.987C266.199 217.638 266.827 217.67 255.659 217.592C255.228 217.59 254.872 217.93 254.854 218.362L253.692 245.866C253.674 246.317 254.028 246.694 254.479 246.703L264.769 246.942C265.201 246.942 265.555 246.604 265.574 246.172C266.758 217.997 266.889 218.369 266.524 217.987Z" fill="black"/>
<path d="M282.011 218.19C281.684 217.838 282.31 217.951 270.649 217.796C270.148 217.734 269.851 218.132 269.835 218.567L268.669 246.204C268.65 246.655 269.009 247.032 269.455 247.041L280.263 247.276C280.695 247.276 281.05 246.937 281.068 246.505C282.252 218.217 282.377 218.572 282.011 218.19Z" fill="black"/>
<path d="M296.266 246.802L297.443 218.937L286.65 218.797L285.477 246.567L296.266 246.802Z" fill="white"/>
<path d="M296.265 247.604C284.535 247.478 285.22 247.466 284.892 247.117C284.53 246.732 284.664 247.087 285.846 218.762C285.864 218.327 286.272 217.95 286.66 217.991L297.454 218.134C297.907 218.139 298.266 218.52 298.248 218.971L297.068 246.834C297.049 247.266 296.695 247.609 296.263 247.604H296.265ZM286.318 245.78L295.495 245.978L296.603 219.732L287.419 219.611L286.318 245.78Z" fill="black"/>
<path d="M312.27 247.13L313.452 219.132L302.663 218.992L301.48 246.898L312.27 247.13Z" fill="white"/>
<path d="M312.272 247.936C300.542 247.809 301.228 247.798 300.899 247.448C300.538 247.064 300.673 247.418 301.862 218.958C301.881 218.523 302.177 218.169 302.677 218.187L313.466 218.33C313.919 218.334 314.278 218.716 314.259 219.167L313.075 247.165C313.056 247.598 312.702 247.94 312.27 247.936H312.272ZM302.325 246.112L311.502 246.31L312.615 219.928L303.436 219.806L302.325 246.112Z" fill="black"/>
<path d="M323.344 219.245L318.675 219.188L317.488 247.227L322.838 247.342C325.6 247.305 327.475 245.246 327.523 242.841L327.87 223.916C327.916 221.37 325.89 219.282 323.344 219.245Z" fill="white"/>
<path d="M322.851 248.145C317.136 248.12 317.228 248.122 316.903 247.777C316.542 247.393 316.673 247.761 317.872 219.153C317.89 218.721 318.23 218.429 318.686 218.383L323.357 218.44C326.336 218.482 328.735 220.927 328.677 223.933L328.33 242.857C328.272 245.718 326.023 248.159 322.851 248.145ZM318.329 246.441L322.858 246.537C325.124 246.503 326.681 244.819 326.722 242.825L327.069 223.901C327.106 221.791 325.427 220.08 323.334 220.048L319.447 220L318.332 246.438L318.329 246.441Z" fill="black"/>
</svg>
