<?xml version="1.0" encoding="UTF-8"?>
<svg version="1.1" xmlns="http://www.w3.org/2000/svg" width="512" height="512">
    <path d="M0 0 C1.797372 -0.00389722 3.59474091 -0.00954102 5.3921026 -0.0167709 C10.3096695 -0.03148276 15.22691478 -0.02136973 20.14447117 -0.00703418 C25.45603548 0.00409585 30.76755544 -0.00787365 36.07911682 -0.01687622 C46.47542139 -0.03079625 56.87160435 -0.02326187 67.2679031 -0.00820064 C79.3769214 0.00867317 91.48590952 0.00544752 103.59493594 0.00170528 C125.20030859 -0.00417091 146.80562293 0.00998951 168.41098022 0.03465271 C189.37291652 0.0585787 210.33477492 0.06565433 231.29672241 0.05516052 C254.12940108 0.04375067 276.96204373 0.04182164 299.79472196 0.05625862 C302.22939324 0.05778445 304.66406452 0.0593048 307.09873581 0.06081963 C308.89555085 0.06195635 308.89555085 0.06195635 310.72866518 0.06311603 C319.16841595 0.06785786 327.60815063 0.06600818 336.04790115 0.06175423 C346.33212166 0.05682713 356.61626853 0.0628141 366.90047218 0.08264852 C372.14713933 0.09251824 377.39369438 0.09762898 382.64036751 0.08975601 C387.44418272 0.08269504 392.24777181 0.08951369 397.05155723 0.10735964 C398.78825029 0.11140136 400.52496398 0.1104089 402.26164933 0.10384078 C414.41615146 0.06181076 425.01534004 0.53380095 434.22348022 9.50120544 C439.13287294 15.82372361 440.37421706 20.90288995 440.36049461 28.8371067 C440.36314644 29.58161054 440.36579827 30.32611437 440.36853045 31.09317893 C440.37622387 33.60180987 440.37678264 36.11039186 440.37738037 38.61903381 C440.38139496 40.43027223 440.38583318 42.24150974 440.39065993 44.05274618 C440.40263157 49.04109447 440.40827524 54.02943309 440.41284108 59.01779294 C440.41879488 64.39356703 440.43040522 69.76932954 440.44113159 75.14509583 C440.4656598 88.13283276 440.4802829 101.12057353 440.49319166 114.10832649 C440.49690314 117.77585266 440.5008764 121.44337844 440.50494432 125.11090422 C440.53017921 147.88001154 440.55223486 170.64911946 440.56467247 193.41823769 C440.56760222 198.69280118 440.57056388 203.96736465 440.57357788 209.2419281 C440.57432393 210.55291349 440.57506998 211.86389888 440.57583864 213.2146111 C440.58849505 234.456648 440.62172186 255.69860125 440.66337971 276.94059904 C440.70578701 298.74323378 440.72936607 320.54582568 440.73459303 342.34850156 C440.73800839 354.5923781 440.7497785 366.83612389 440.78269577 379.07995987 C440.81068074 389.50633175 440.82170234 399.93254607 440.81050031 410.3589526 C440.80530986 415.67869516 440.80822595 420.9981077 440.83296585 426.31780243 C440.85543504 431.18989874 440.85473639 436.06142749 440.83576198 440.93353359 C440.83295873 442.69401877 440.83857852 444.45454224 440.85357492 446.21496578 C440.93665414 456.60469745 440.7204889 465.62403745 433.23366773 473.62862837 C425.34220419 481.2056769 418.15101524 481.93814625 407.58700562 481.84178162 C406.30748992 481.84214322 405.02797422 481.84250483 403.70968533 481.84287739 C400.26445422 481.84355163 396.81953893 481.82622879 393.37438202 481.80504608 C390.13557323 481.78789666 386.89677723 481.78715322 383.65792847 481.78501892 C374.20057094 481.76930879 364.74327154 481.72742505 355.28598022 481.68870544 C334.14535522 481.62683044 313.00473022 481.56495544 291.22348022 481.50120544 C291.22348022 420.12120544 291.22348022 358.74120544 291.22348022 295.50120544 C311.68348022 295.50120544 332.14348022 295.50120544 353.22348022 295.50120544 C353.78937866 290.97401794 354.3552771 286.44683044 354.93832397 281.78245544 C357.36670939 262.35537211 359.79509481 242.92828878 362.22348022 223.50120544 C338.79348022 223.50120544 315.36348022 223.50120544 291.22348022 223.50120544 C291.14098022 213.99308044 291.05848022 204.48495544 290.97348022 194.68870544 C290.93706421 191.70863464 290.90064819 188.72856384 290.86312866 185.65818787 C290.85143374 183.26602395 290.84124383 180.87385199 290.83285522 178.48167419 C290.81239136 177.26403381 290.79192749 176.04639343 290.77084351 174.79185486 C290.76684874 164.90380477 292.36118735 155.30581787 299.48910522 147.93089294 C311.56401229 137.97725334 331.5054694 140.23948117 346.16098022 140.37620544 C352.45160522 140.41745544 358.74223022 140.45870544 365.22348022 140.50120544 C364.89348022 119.71120544 364.56348022 98.92120544 364.22348022 77.50120544 C341.8131009 75.7349615 341.8131009 75.7349615 319.41635132 75.13059998 C316.82407727 75.12616368 314.23343339 75.08936875 311.64144897 75.05198669 C286.03612834 74.88012077 261.46209301 81.46956292 242.34066772 99.29808044 C226.61142192 115.66578272 218.30711888 139.13219581 218.01815796 161.62986755 C218.00825836 162.30388611 217.99835876 162.97790466 217.98815918 163.67234802 C217.95686582 165.87438078 217.93191574 168.07643503 217.90707397 170.27854919 C217.88647657 171.81554691 217.86547941 173.35253932 217.84410095 174.88952637 C217.78916782 178.91551894 217.73963295 182.94156016 217.69125366 186.96763611 C217.63194599 191.80862444 217.56587781 196.64952473 217.50095367 201.49044037 C217.40330652 208.82730784 217.3142031 216.16423437 217.22348022 223.50120544 C196.43348022 223.50120544 175.64348022 223.50120544 154.22348022 223.50120544 C154.22348022 247.26120544 154.22348022 271.02120544 154.22348022 295.50120544 C175.01348022 295.50120544 195.80348022 295.50120544 217.22348022 295.50120544 C217.22348022 356.88120544 217.22348022 418.26120544 217.22348022 481.50120544 C158.11236337 481.62211455 158.11236337 481.62211455 133.36801147 481.64768982 C127.7138771 481.65356329 122.05974297 481.6596247 116.40560913 481.66600037 C115.69697153 481.66679161 114.98833393 481.66758286 114.25822246 481.66839808 C102.82306454 481.6814402 91.38795195 481.70508845 79.9528209 481.73266383 C68.21421628 481.7607346 56.47563536 481.77738524 44.73699856 481.78347093 C38.14487196 481.78738293 31.55284808 481.79658164 24.96075439 481.81839561 C18.75562594 481.83876265 12.55064249 481.84503872 6.34548378 481.84052849 C4.06868006 481.84135358 1.79187147 481.84731781 -0.48490334 481.85882187 C-3.59579564 481.87376908 -6.70614192 481.87015061 -9.81704712 481.86196899 C-10.71589913 481.87070752 -11.61475115 481.87944604 -12.5408411 481.88844937 C-20.58706403 481.83133511 -27.14806344 479.83661389 -33.17105103 474.30979919 C-39.38914834 467.30498397 -40.89827267 460.28004655 -40.91074085 451.12313652 C-40.91309308 450.38622031 -40.91544531 449.64930409 -40.91786882 448.89005709 C-40.92454187 446.41324692 -40.92410111 443.93648941 -40.9236908 441.45967102 C-40.92699047 439.66890639 -40.93071625 437.87814251 -40.93483227 436.08737957 C-40.9448485 431.16022734 -40.94856846 426.23308729 -40.95122159 421.30592632 C-40.95512571 415.99422882 -40.96470391 410.68254096 -40.97343445 405.37084961 C-40.99319489 392.54073556 -41.00326414 379.71062072 -41.01216224 366.88049525 C-41.01654547 360.83898631 -41.02191215 354.79747825 -41.02715111 348.75597 C-41.04416229 328.67385223 -41.05865691 308.591735 -41.06589985 288.50961113 C-41.06780975 283.29847589 -41.06973008 278.08734066 -41.07168579 272.87620544 C-41.07216953 271.58100094 -41.07265327 270.28579644 -41.07315167 268.95134331 C-41.08145365 247.96548698 -41.10679393 226.97968762 -41.13926647 205.99385618 C-41.1723309 184.4499572 -41.19034802 162.90608719 -41.19354409 141.36216271 C-41.19570966 129.2652846 -41.20446531 117.16848959 -41.23000526 105.0716362 C-41.25170373 94.77049493 -41.25976681 84.46945696 -41.25003848 74.16829543 C-41.24549147 68.91327571 -41.24740358 63.65846915 -41.26679993 58.40347862 C-41.28441525 53.58941402 -41.28344698 48.77571834 -41.26790264 43.96164991 C-41.26552412 42.22338725 -41.26986277 40.48509916 -41.28173129 38.74687539 C-41.35390469 27.47522964 -41.11629877 16.9047747 -33.21401978 8.06370544 C-23.69141152 -0.44839239 -12.03372496 -0.07240139 0 0 Z " fill="#FFFFFF" transform="translate(55.776519775390625,14.498794555664063)"/>
</svg>
