<svg width="25" height="25" viewBox="0 0 25 25" fill="none" xmlns="http://www.w3.org/2000/svg">
<path d="M22.5 3.5H3L2 4V8L3 9.5L8 12.5L9.5 14.5V20L15 22L15.5 20L16 13.5L22.5 9.5V3.5Z" fill="white" fill-opacity="0.1"/>
<path fill-rule="evenodd" clip-rule="evenodd" d="M5.16004 2.34375C5.1763 2.34375 5.19262 2.34375 5.209 2.34375H19.8413C20.536 2.34372 21.1299 2.34369 21.6046 2.40356C22.108 2.46707 22.5946 2.60968 22.9942 2.98463C23.401 3.36619 23.5625 3.84225 23.6335 4.33755C23.6987 4.79254 23.6987 5.3583 23.6986 6.00373V6.81263C23.6986 7.32149 23.6986 7.76141 23.6607 8.12824C23.6197 8.52298 23.5303 8.89333 23.3158 9.24889C23.1028 9.60177 22.8161 9.85792 22.4854 10.0875C22.1741 10.3039 21.7762 10.5278 21.3083 10.7913L18.2433 12.5166C17.5455 12.9094 17.3026 13.0508 17.1404 13.1916C16.7679 13.515 16.5546 13.8738 16.4544 14.3233C16.4116 14.5155 16.4069 14.7575 16.4069 15.4926V18.3385C16.407 19.2773 16.407 20.0744 16.3104 20.6871C16.2076 21.3386 15.9692 21.9634 15.3442 22.3544C14.7334 22.7365 14.0605 22.7014 13.4067 22.546C12.777 22.3966 12.001 22.0931 11.0698 21.7291L10.9793 21.6938C10.5432 21.5232 10.1612 21.374 9.85883 21.2178C9.53388 21.05 9.23211 20.8413 9.00123 20.5164C8.76775 20.1878 8.67414 19.8354 8.6324 19.4753C8.59434 19.1469 8.59437 18.7527 8.5944 18.3131V15.4926C8.5944 14.7575 8.58977 14.5155 8.54692 14.3233C8.44669 13.8738 8.23338 13.515 7.8609 13.1916C7.69872 13.0508 7.45578 12.9094 6.75809 12.5166L3.69306 10.7913C3.22512 10.5278 2.82725 10.3039 2.51584 10.0875C2.18528 9.85792 1.89848 9.60177 1.68552 9.24889C1.47094 8.89333 1.3816 8.52298 1.34071 8.12824C1.30269 7.7614 1.30272 7.32149 1.30274 6.81263L1.30275 6.05694C1.30275 6.03914 1.30274 6.0214 1.30274 6.00372C1.30269 5.35829 1.30264 4.79254 1.36785 4.33755C1.43882 3.84225 1.6004 3.36619 2.00709 2.98463C2.40673 2.60968 2.89331 2.46707 3.39674 2.40356C3.8714 2.34369 4.46531 2.34372 5.16004 2.34375ZM3.59228 3.95378C3.24472 3.99763 3.13419 4.0697 3.07618 4.12413C3.02523 4.17193 2.95799 4.2561 2.91455 4.5592C2.86712 4.89015 2.86525 5.34238 2.86525 6.05694V6.7755C2.86525 7.33197 2.86621 7.6904 2.89488 7.96723C2.92159 8.22505 2.96746 8.34903 3.0233 8.44157C3.08076 8.53679 3.17617 8.64375 3.40726 8.80426C3.65072 8.97338 3.98332 9.16154 4.49016 9.44687L7.52457 11.155C7.55299 11.171 7.58097 11.1868 7.60854 11.2023C8.19052 11.5297 8.58688 11.7527 8.88524 12.0117C9.50124 12.5465 9.89645 13.196 10.072 13.9833C10.1573 14.3659 10.1571 14.7949 10.1569 15.4005C10.1569 15.4307 10.1569 15.4615 10.1569 15.4926V18.2733C10.1569 18.7652 10.1581 19.0677 10.1845 19.2954C10.2084 19.5014 10.246 19.5706 10.2749 19.6114C10.3065 19.6557 10.369 19.7227 10.5757 19.8295C10.7969 19.9438 11.1018 20.064 11.5832 20.2521C12.5842 20.6434 13.2575 20.9047 13.7677 21.0258C14.2663 21.1443 14.4305 21.0829 14.5155 21.0297C14.5864 20.9854 14.6958 20.8955 14.767 20.4438C14.8421 19.9673 14.8444 19.2952 14.8444 18.2733V15.4926C14.8444 15.4615 14.8444 15.4307 14.8444 15.4005C14.8442 14.7949 14.844 14.3659 14.9293 13.9833C15.1048 13.196 15.5 12.5465 16.1161 12.0117C16.4144 11.7527 16.8108 11.5297 17.3927 11.2023C17.4203 11.1868 17.4484 11.171 17.4768 11.155L20.5112 9.44687C21.018 9.16154 21.3507 8.97338 21.5941 8.80426C21.8251 8.64375 21.9205 8.53679 21.978 8.44157C22.0339 8.34903 22.0797 8.22505 22.1064 7.96723C22.1351 7.6904 22.1361 7.33197 22.1361 6.7755V6.05694C22.1361 5.34238 22.1342 4.89015 22.0868 4.5592C22.0434 4.2561 21.9761 4.17193 21.9251 4.12413C21.8671 4.0697 21.7566 3.99763 21.4091 3.95378C21.0439 3.90772 20.5496 3.90625 19.7923 3.90625H5.209C4.45166 3.90625 3.95747 3.90772 3.59228 3.95378Z" fill="white"/>
</svg>
