<svg enable-background="new 0 0 1920 1920" viewBox="0 0 1920 1920" xmlns="http://www.w3.org/2000/svg"><path d="m1919.5 960c0 529.9-429.6 959.5-959.5 959.5s-959.5-429.6-959.5-959.5 429.6-959.5 959.5-959.5 959.5 429.6 959.5 959.5" fill="#93d5f6"/><path d="m1919.5 959.9c0-6.2-.1-12.3-.2-18.4v4c.2 4.9.2 9.6.2 14.4" fill="#36a9e1"/><path d="m1919.3 978.4c.1-6.1.2-12.3.2-18.4 0 4.8 0 9.6-.2 14.4z" fill="#36a9e1"/><path d="m1919.3 974.3v4.1c0-1.4 0-2.7 0-4.1" fill="#36a9e1"/><path d="m1919.3 945.6c0-1.3 0-2.7 0-4.1z" fill="#36a9e1"/><path d="m1919.5 959.9c0 4.8-.1 9.6-.2 14.4.2-4.8.2-9.6.2-14.4" fill="#36a9e1"/><path d="m1919.5 959.9c0-4.8 0-9.6-.2-14.4.1 4.9.2 9.6.2 14.4" fill="#36a9e1"/><path d="m1919.3 945.6c.1 4.8.2 9.6.2 14.4 0-4.9-.1-9.6-.2-14.4" fill="#36a9e1"/><path d="m1919.3 974.3c.1-4.8.2-9.6.2-14.4 0 4.9-.1 9.6-.2 14.4" fill="#36a9e1"/><path d="m1416.8 1642.2c-127.9 102-285 168.9-456.8 185.9 28.6 2.8 57.7 4.3 87 4.3 475.7 0 862.5-380.7 872.3-854-7.9 312.7-216.9 575.4-502.5 663.8" fill="#36a9e1"/><path d="m1919.3 941.5c-9.8-473.4-396.6-854-872.2-854-29.4 0-58.4 1.5-87.1 4.3 171.8 17 329 83.9 456.8 185.9 285.6 88.4 494.6 351.1 502.5 663.8" fill="#36a9e1"/><path d="m1578 1473.9c-46 63-100.3 119.6-161.2 168.3 285.6-88.4 494.6-351.1 502.5-663.8 0-1.3 0-2.7 0-4-5.7 225-144.8 416.9-341.3 499.5" fill="#008ecf"/><path d="m1416.8 277.7c60.9 48.6 115.2 105.3 161.2 168.3 196.4 82.6 335.6 274.5 341.3 499.6 0-1.3 0-2.7 0-4.1-7.9-312.7-216.9-575.4-502.5-663.8" fill="#008ecf"/><path d="m1660.5 1335.9c-23.3 48.7-50.9 94.8-82.5 138 196.4-82.6 335.6-274.5 341.3-499.6.1-4.8.2-9.6.2-14.4 0 171.8-107.6 318.3-259 376" fill="#006ab0"/><path d="m1859.8 960c0 389.5-402.8 705.3-899.7 705.3s-899.9-315.8-899.9-705.3 402.9-705.3 899.8-705.3 899.8 315.8 899.8 705.3" fill="#006ab0"/><path d="m1578 446c31.5 43.2 59.2 89.3 82.5 138 151.4 57.7 259.1 204.3 259.1 376 0-4.8-.1-9.6-.2-14.4-5.8-225.1-144.9-417-341.4-499.6" fill="#006ab0"/><path d="m1660.5 584c20.4 42.6 37.4 87.2 50.7 133.3 117.9 17.9 208.3 119.7 208.3 242.7 0-171.8-107.6-318.3-259-376" fill="#004490"/><path d="m1711.2 1202.6c-13.3 46.1-30.4 90.7-50.7 133.3 151.4-57.7 259-204.3 259-376 0 123-90.3 224.8-208.3 242.7" fill="#004490"/><path d="m1711.2 717.3c22.3 77 34.2 158.5 34.2 242.7s-12 165.6-34.2 242.7c117.9-17.9 208.3-119.7 208.3-242.7s-90.3-224.8-208.3-242.7" fill="#1d327b"/><path d="m503.2 277.7c127.8-102 285-168.9 456.8-185.9-28.6-2.8-57.7-4.3-87-4.3-475.7 0-862.5 380.7-872.3 854 7.9-312.7 216.9-575.4 502.5-663.8" fill="#36a9e1"/><path d="m.7 978.4c9.8 473.4 396.6 854 872.3 854 29.4 0 58.4-1.5 87-4.3-171.8-17-329-83.9-456.8-185.9-285.6-88.4-494.6-351.1-502.5-663.8" fill="#36a9e1"/><path d="m1205.5 1674c-86.3 0-168.9-15.3-245.5-43.3-76.6 28-159.3 43.3-245.5 43.3-73.6 0-144.5-11.1-211.3-31.8 127.9 102 285 168.9 456.8 185.9 171.8-17 328.9-83.9 456.8-185.9-66.8 20.6-137.7 31.8-211.3 31.8" fill="#008ecf"/><path d="m714.5 245.9c86.3 0 168.9 15.3 245.5 43.3 76.6-28 159.3-43.3 245.5-43.3 73.6 0 144.5 11.1 211.3 31.8-127.9-102-285-168.9-456.8-185.9-171.8 17-328.9 83.9-456.8 185.9 66.8-20.6 137.7-31.8 211.3-31.8" fill="#008ecf"/><path d="m1416.8 277.7c-66.8-20.7-137.7-31.8-211.3-31.8-86.3 0-168.9 15.3-245.5 43.3 86.4 31.6 165 79.5 232.1 139.9 53.6-17.2 110.8-26.5 170.2-26.5 76.5 0 149.4 15.4 215.8 43.3-46.1-62.9-100.4-119.6-161.3-168.2" fill="#006ab0"/><path d="m1192.1 1490.7c-67.1 60.4-145.7 108.3-232.1 139.9 76.5 28 159.2 43.3 245.5 43.3 73.6 0 144.5-11.1 211.3-31.8 60.9-48.7 115.2-105.3 161.2-168.3-66.3 27.9-139.2 43.3-215.8 43.3-59.3.1-116.5-9.2-170.1-26.4" fill="#006ab0"/><path d="m1192.1 429.2c55.4 49.9 103 108.3 140.6 173.3 55.3-28.6 118-44.8 184.6-44.8 50.4 0 98.7 9.3 143.2 26.3-23.3-48.7-51-94.8-82.5-137.9-66.3-27.9-139.2-43.3-215.8-43.3-59.3-.1-116.5 9.2-170.1 26.4" fill="#004490"/><path d="m1332.7 1317.4c-37.6 64.9-85.2 123.4-140.6 173.3 53.6 17.2 110.8 26.5 170.2 26.5 76.5 0 149.4-15.4 215.8-43.3 31.5-43.2 59.2-89.3 82.5-137.9-44.5 17-92.8 26.3-143.2 26.3-66.7-.1-129.4-16.3-184.7-44.9" fill="#004490"/><path d="m1669.7 960c0 307.2-317.7 556.3-709.7 556.3s-709.6-249.1-709.6-556.3 317.7-556.3 709.6-556.3 709.7 249.1 709.7 556.3" fill="#004490"/><path d="m1428.5 959.9c0 130.3-34.9 252.3-95.8 357.5 55.3 28.6 118 44.7 184.6 44.7 50.5 0 98.7-9.3 143.2-26.3 20.4-42.6 37.4-87.2 50.7-133.3-12.1 1.8-24.5 2.8-37.2 2.8-135.6.1-245.5-109.8-245.5-245.4" fill="#1d327b"/><path d="m1332.7 602.5c60.9 105.1 95.8 227.2 95.8 357.5 0-135.6 109.9-245.5 245.5-245.5 12.7 0 25.1 1 37.2 2.8-13.3-46.1-30.3-90.7-50.7-133.3-44.5-17-92.8-26.3-143.2-26.3-66.6 0-129.3 16.2-184.6 44.8" fill="#1d327b"/><path d="m1428.5 959.9c0 135.6 109.9 245.5 245.5 245.5 12.7 0 25.1-.9 37.2-2.8 22.3-77.1 34.3-158.5 34.3-242.7s-12-165.6-34.3-242.7c-12.1-1.8-24.5-2.8-37.2-2.8-135.6.1-245.5 110-245.5 245.5" fill="#1e2a6e"/><path d="m503.2 1642.2c-60.9-48.6-115.2-105.3-161.2-168.3-196.5-82.6-335.6-274.5-341.3-499.6v4.1c7.9 312.7 216.9 575.4 502.5 663.8" fill="#008ecf"/><path d="m503.2 277.7c-285.6 88.4-494.6 351.1-502.5 663.8v4.1c5.7-225.1 144.8-417 341.3-499.6 46-63 100.3-119.7 161.2-168.3" fill="#008ecf"/><path d="m503.2 1642.2c66.8 20.7 137.7 31.8 211.3 31.8 86.3 0 168.9-15.3 245.5-43.3-86.4-31.6-165-79.5-232.1-139.9-53.6 17.2-110.8 26.5-170.2 26.5-76.5 0-149.4-15.4-215.8-43.3 46.1 62.9 100.4 119.6 161.3 168.2" fill="#006ab0"/><path d="m727.9 429.2c67.1-60.4 145.7-108.3 232.1-140-76.5-28-159.3-43.3-245.5-43.3-73.6 0-144.5 11.1-211.3 31.8-60.9 48.7-115.2 105.3-161.2 168.3 66.4-27.9 139.2-43.3 215.8-43.3 59.3 0 116.5 9.3 170.1 26.5" fill="#006ab0"/><path d="m960 574.3c63.3-66.1 142.8-116.5 232.1-145.1-67.1-60.4-145.7-108.3-232.1-139.9-86.4 31.6-165 79.5-232.1 139.9 89.3 28.6 168.8 79 232.1 145.1" fill="#004490"/><path d="m960 1345.6c-63.3 66.1-142.8 116.5-232.1 145.1 67.1 60.4 145.7 108.3 232.1 139.9 86.4-31.6 165-79.5 232.1-139.9-89.3-28.6-168.8-79-232.1-145.1" fill="#004490"/><path d="m1115 959.9c0 149.7-59 285.5-155 385.6 63.3 66.1 142.8 116.5 232.1 145.1 55.4-49.9 103-108.4 140.6-173.3-129.3-66.7-217.7-201.7-217.7-357.4" fill="#1d327b"/><path d="m960 574.3c96 100.1 155 236 155 385.6 0-155.6 88.4-290.6 217.7-357.5-37.6-64.9-85.2-123.4-140.6-173.3-89.3 28.7-168.8 79.1-232.1 145.2" fill="#1d327b"/><path d="m1115 959.9c0 155.6 88.4 290.6 217.7 357.5 60.9-105.2 95.8-227.2 95.8-357.5s-34.9-252.3-95.8-357.5c-129.3 66.9-217.7 201.9-217.7 357.5" fill="#1e2a6e"/><path d="m259.5 584c23.3-48.7 50.9-94.8 82.5-138-196.5 82.6-335.7 274.5-341.3 499.6-.1 4.8-.2 9.6-.2 14.4 0-171.8 107.6-318.3 259-376" fill="#006ab0"/><path d="m342 1473.9c-31.5-43.2-59.2-89.3-82.5-138-151.4-57.7-259.1-204.3-259.1-376 0 4.8.1 9.6.2 14.4 5.8 225.1 144.9 417 341.4 499.6" fill="#006ab0"/><path d="m727.9 1490.7c-55.4-49.9-103-108.3-140.6-173.3-55.3 28.6-118 44.8-184.6 44.8-50.4 0-98.7-9.3-143.2-26.3 23.3 48.7 51 94.8 82.5 137.9 66.4 27.9 139.2 43.3 215.8 43.3 59.3.1 116.5-9.2 170.1-26.4" fill="#004490"/><path d="m587.3 602.5c37.6-64.9 85.2-123.4 140.6-173.3-53.6-17.2-110.8-26.5-170.2-26.5-76.5 0-149.4 15.4-215.8 43.3-31.5 43.2-59.2 89.3-82.5 137.9 44.5-17 92.8-26.3 143.2-26.3 66.7.1 129.4 16.3 184.7 44.9" fill="#004490"/><path d="m805 959.9c0-149.7 59-285.5 155-385.6-63.3-66.1-142.8-116.5-232.1-145.1-55.4 49.9-103 108.4-140.6 173.3 129.3 66.8 217.7 201.8 217.7 357.4" fill="#1d327b"/><path d="m960 1345.6c-96-100.1-155-236-155-385.6 0 155.6-88.4 290.6-217.7 357.5 37.6 64.9 85.2 123.4 140.6 173.3 89.3-28.7 168.8-79.1 232.1-145.2" fill="#1d327b"/><path d="m960 574.3c-96 100.1-155 236-155 385.6 0 149.7 59 285.5 155 385.6 96-100.1 155-236 155-385.6s-59-285.5-155-385.6" fill="#1e2a6e"/><path d="m208.8 717.3c13.3-46.1 30.4-90.7 50.7-133.3-151.4 57.7-259 204.2-259 376 0-123 90.4-224.8 208.3-242.7" fill="#004490"/><path d="m259.5 1335.9c-20.4-42.6-37.4-87.2-50.7-133.3-118-17.9-208.3-119.7-208.3-242.6 0 171.7 107.6 318.2 259 375.9" fill="#004490"/><path d="m587.3 1317.4c-60.9-105.1-95.8-227.2-95.8-357.5 0 135.6-109.9 245.5-245.5 245.5-12.7 0-25.1-1-37.2-2.8 13.3 46.1 30.3 90.7 50.7 133.3 44.5 17 92.8 26.3 143.2 26.3 66.6 0 129.3-16.2 184.6-44.8" fill="#1d327b"/><path d="m491.5 959.9c0-130.3 34.9-252.3 95.8-357.5-55.3-28.6-118-44.7-184.6-44.7-50.5 0-98.7 9.3-143.2 26.3-20.4 42.6-37.4 87.2-50.7 133.3 12.1-1.8 24.5-2.8 37.2-2.8 135.6 0 245.5 109.9 245.5 245.4" fill="#1d327b"/><path d="m805 959.9c0-155.6-88.4-290.6-217.7-357.5-60.9 105.2-95.8 227.2-95.8 357.5s34.9 252.3 95.8 357.5c129.3-66.8 217.7-201.8 217.7-357.5" fill="#1e2a6e"/><path d="m208.8 1202.6c-22.3-77-34.2-158.5-34.2-242.7s12-165.6 34.2-242.7c-117.9 18-208.3 119.8-208.3 242.7 0 123 90.4 224.8 208.3 242.7" fill="#1d327b"/><path d="m491.5 959.9c0-135.6-109.9-245.5-245.5-245.5-12.7 0-25.1.9-37.2 2.8-22.3 77.1-34.3 158.5-34.3 242.7s12 165.6 34.3 242.7c12.1 1.8 24.5 2.8 37.2 2.8 135.6 0 245.5-109.9 245.5-245.5" fill="#1e2a6e"/><g fill="#fff"><path d="m562.1 385.7 22.2 11.5c1.4.7 2.9.7 4.3.1 8-3.2 20.2-5 25-.1 2.8 2.9 5 8.4 2.8 15-.2.6 0 1.3.6 1.7l9.4 4.8c1.4-1.4 3.8-4.1 6.4-6.9 14.7-16.1 30.9-33.4 40.4-40.4-4.7-2.8-13.5-4.9-17.7-2l-1.5 1-1.5-1.1c-2-1.4-5.3-2.3-8.9-2.3-4.8 0-8.8 1.4-10.4 2.7 3.6 3.9 7 8.6 5.7 12.9-.8 2.8-3.4 4.7-7.5 5.7-1 .2-1.8.2-2.4.2-1.6 0-2.9-.5-3.8-1.4-1.4-1.5-1.2-3.4-1.1-5.2.2-2.6.2-4.3-1.8-6-1.9-1.7-4.4-.6-6.9.6-1.8.8-3.5 1.6-5.3 1.6-1.7 0-4.1-.7-5.5-4.3-.9-2.5-.7-5 .7-7.1 2.3-3.4 7.3-4.9 11.2-4.9 1.8 0 3.4.3 4.7.9.2-.6.4-1.7.4-3.2-.1-3-1.3-6.8-3.8-8.3l-1.7-1 .6-1.9c.6-2.1 1.3-10-1.4-13.5-.9-1.2-2-1.7-3.7-1.7-2 0-5.6.8-11.7 4.9l-1.8 1.2-1.5-1.6c.2.2-.4 0-1.5 0-.9 0-8.4.2-11.6 7.9 4.6 2.3 8.9 7.1 8.8 11.8 0 1.7-.8 5.8-7.1 7.3-7 1.7-8.5-3.1-9.2-5.9-.6-2.2-1-3.6-2.6-4.5-1.5-.9-2.1-.6-3.6.6-1.1.9-2.5 2-4.4 2-2.7 0-4.7-2.1-5.9-3.7-3-3.8-2.3-6.7-1.6-8.1 1.7-3.5 6.1-4.7 9.4-4.7 1.3 0 2.5.2 3.5.5.6-1.2 1-3.1.7-5.4-.4-2.3-1.8-6.3-7.5-7.9l-2.1-.5.2-3.5c.4-5.1 1-13.3-9.2-17.1-.2 11.5-4.6 27.5-8.6 41.8-2.8 10-6.1 22.3-5.4 25.4z"/><path d="m492.7 515.9c25.9 0 46.2-30.4 76.7-7.4l.5-4.5c-14.2-15.4-33.9-19.6-53.3-10.9-19 8.5-34.2.4-34.2-14 0-5.8 3.5-13.7 11.9-17.1-17.7-1.4-34.1 10.4-34.1 24.3-.1 17 13.2 29.6 32.5 29.6"/><path d="m464.2 425.8 20.8-7.4 19.1-1s4.6-9.4 4.9-10.4c-.1 0-1.9-6.1-1.9-6.1s1.1-4.1 3.5-7.7c-27.2 0-15.6 0-25.6 0l-21-7.4-3.8 6.9c1.9 1.7 5 5.6 5 12.8 0 6.7-2.1 9.7-5 13 1 1.8 4 7.3 4 7.3"/><path d="m646.5 414.2c72.9-1.7 139.7-3.1 141.1-3.1 2.3-.1 15.6-5.7 21.8-8.8-6.2-3.1-18.7-8.8-21.8-8.8-2.2 0-56.6-.1-121.2-.1-6.7 6.7-14 14.5-19.9 20.8"/><path d="m347.7 420.4 4.1-1.1v-24.5l-4.1-1.2c-7.5-2.1-14.9 3.5-14.9 11.3v4.3c0 7.7 7.4 13.3 14.9 11.2"/><path d="m451.6 453.2-2.6-5.4v-31c3.1-2.3 5.2-6.4 5.2-11.1s-2.1-8.8-5.2-11.1v-31l2.6-5.4v-2.1h-19.7v2.1l2.6 5.4v84.1l-2.6 5.4v2.1h19.7z"/><path d="m371.3 548.8c-.4 5.6 2.3 11 6.9 14.1 5.7 3.8 17.8 10.9 24.4 15.3l37.1-40.1c-4-3.4-9-10.3-10.4-15.5h-56.8c-.2 8.4-.6 18.9-1.2 26.2"/><path d="m699.8 496.9c0 32.3 20.4 49.3 44.9 66.1 3.3-2.8 7.8-6.2 12.7-9.5-24.5-16.7-42.5-30.1-42.5-56.6 0-48.6 41-52.3 53.6-52.3 26.1 0 52.5 16.2 52.5 52.3 0 24.9-19.5 40.6-33.5 49.6-13.9 8.9-30.2 18.4-40.7 29.4l-.2-.1c-2.5-.6-4.9-.8-7.3-.8-35.5-2.5-44.3 27.6-30.2 37.7.2 12 8.5 21.8 15.2 21.6 3.2 3.1 6.9 6.1 11.3 8.8 3.8-.4 10-2.7 10-2.7-2.7-8.5-14.4-29.4 6.2-51.7 10.8-11.7 31.1-23.7 50.5-37 22.3-15.4 33.6-33.6 33.6-54.8 0-46.3-35-67.3-67.5-67.3-31.7 0-68.6 17.6-68.6 67.3"/><path d="m409.8 430.3h13.7v-47.3l-13.7-4.2z"/><path d="m362.4 430.3h13.7v-47.3l-13.7-4.2z"/><path d="m385.8 430.3h13.7v-47.3l-13.7-4.2z"/><path d="m378.2 480.1c-.6 9.6-1.7 20.5-2.1 31.5h47.4c-2.7-12.2-5.7-28-8-39.5h-.1l5.8-31.9-51.6-.5 6.9 25.4c1.4 4.9 2 10 1.7 15"/><path d="m447.7 545.7-33.2 37.5c20.7 13.6 39.9 27.6 45.6 31.3 11.9-7.6 23.4-19.7 30.9-29.9-5.2-5.1-12.3-13.8-15.5-21.8-9.5-5.7-17.9-11.2-27.8-17.1"/><path d="m394.3 851.9c-2.4 2.7-4.3 4.6-5.2 7.8-9.3 2.8-16.7 11.1-17.2 22.1 27.3-6.3 40.8-6 65.2-2.5 1.3 2 1.2 3.8 1.2 3.8s-25.4.2-40.6 7.1c-.9 2.5-1 5.6-.6 8.2-6 9.4-5 18.6 2 27.3 25.7-38.6 82.3-39.9 68.4 3.5 13.4 2.5 22.1-9.2 27.8-22.4 5.7-13.3-2.1-33.3 23.5-37.2 10.4-1.6 20.2-3.6 33.4-7.6-.3-4.5-5.2-14.7-9-19.2 7.4 0 17.6 8.7 21.1 14.5 3.3-1.4 7.3-3.5 10.6-5.1-1.2-4.6-10.4-15.8-15-20 7.7.7 21.1 9 25.5 14.3 2.9-1.8 5.8-3.7 8.6-5.7-1.4-4.5-8.8-14.7-14.8-19.2 6.5-.1 20 7.2 24.5 11.5 3-2.6 5.8-5.3 8.4-8.2-11.1-29.6 8.1-44.7 41-59.9 1.6-.8 8.9-3.8 15-6.9-2.6-11-5.7-35.9-4.3-48.5-17-5-43.7-8.1-56.7-8.1-20.9 8.4-63 38.9-75.2 56.6 26.8 18.4 13 100.2-63.8 89.8-19.5-2.6-27.4-20.9-39.1-27.9-2.5.5-5.6 1.7-8.6 3.6-9.7-3.8-21.7-1.2-28.5 8.4 22.7 4.1 36 15.5 44.9 26.9-.3.9-.7 2.3-.7 2.3s-28-9.3-41.8-9.3"/><path d="m751 758.1c-1.2-3.2-2.2-6.9-2.9-10.9-4.5-1.6-16.2-3.2-20.3-3.7 1.3-5.2 12.8-7.1 18.9-7.6-.3-4-.3-8.1-.2-12-4.1-1.3-14.4-3.2-17.9-3.6 1.3-5.3 12.4-6.7 18.7-7.1.5-4.1 1.3-7.7 2.2-10.7 2 .2 4 .3 5.9.3 8.6 0 16.3-.1 24.9-3.6 25.4-10.1 42.9-33.2 42.9-59.8 0-27.6-18.8-50-36.6-65l-12.4 9.2c16.9 13.5 32.8 31.5 32.8 54.7 0 18.5-12.7 35.5-32.3 43.4-14.5 5.8-33.7 5.8-49.9-7.8-34.7-32.7-95.8-90.8-102.2-97.2-34 28.3-77 34.2-121.1 12.6-28.3 39.1-81.1 60.3-108.9 61.9-30.9 1.8-55.3-13.8-64-40.2-2.7-.1-6 .3-9.4 1.5-8.5-6.2-20.9-6.7-30 1 18.8 6.7 30.2 22.4 37.6 37.1-.5.8-.7 1.4-1.2 2.1-12.1-9.5-25-15.8-38.4-19.1-3 2-5.2 3.5-6.8 6.1-9.9.3-19.4 6.6-22.6 17.3 31.3-4.7 56 7.9 64.4 13.4.4 1.2.4 2.5.3 3.2-7-1-22.1-.4-35.7 4-.9 2.7-1.3 5.8-1.1 9.1-8.5 7.7-11.1 21-3.9 31.6 23-36.7 73.7-35.1 68.4-9.7-2.3 5.9-7.6 9.8-14.4 12.8 12.6 9 36.9-2.2 52.7-27.9 11.8-19.3 60.5-26.3 76.7-3.2 4.9-.6 9.6-2 13.9-4-1.3-4.9-8.6-16.7-14.7-22 11.2 1 21.7 9.5 26.5 15.5 3.7-1.8 6-3.3 9.2-5.9-1.2-5-7.7-14-12.5-19.1 6.4.2 18 6.4 22 10.5 2.2-2.3 6.4-6.7 8.2-9 46.8 42.8 108.1 26.4 159.2 45.3-5.5 32.6 2.7 89.7 29.3 112.7 46.5-23.2 77.3 29.7 66 72.2-4 15.1-22 20-49.7 10.7-3.6 2.7-5.8 7.4-6.3 12.5-8.5 5-13.9 15.2-11.4 26.1 13.3-11 30.9-14.6 49.2-12.6v2.5s-30.1 6.7-38.3 18.4c0 2.5 1.1 5.6 3 8.7-2.5 9.8 1.1 21 10.9 26.9 2.8-33.4 31.6-40.3 31.6-40.3s.9 1.2 1.7 2.1c-7.2 4.9-13.3 16.9-13.6 26.9 1.2 1.3 3.2 2.5 5.4 3.6.4 10.7 7.9 20.7 19.7 22.9-9.2-26.1.5-43.2 8-50.2s16.7-10 24-2c4.6 5.8 4.6 13.3 2.4 21.3 11.5-5.8 16.6-20.3 11.8-29.5-10.5-20.3-13.3-42.4-12-62.4-3.3-1.2-10.8-2.7-15.4-2.8 2-4.3 11.7-7.2 16.4-7.5.6-4.4 1.5-9.8 2.5-13.9-3.7-2.4-12.2-5.3-17.9-6.4 3.3-4.6 14.8-4.3 20.7-3.9 1.4-4.7 3.1-9.8 4.8-13.7-2.1-2.7-9.6-7-15-8.6 4.3-3.7 14.7-3.1 20.3-1.3 1.9-3.1 3.8-5.5 5.5-7.2-14.3-16.2-59.1-43.1-79.6-48.7"/><path d="m534.4 413.8c.7-2 3-3 5-2.3l16.4 6.1c1.1.4 1.8 1.5 1.7 2.7l-.2 3.4-14 4.9c-2.4.5-4.8-1-5.3-3.4l-.6-3.2c-.4-2.1-1.5-4-3.1-5.3l-.7-.6zm-14.3-2.4c-2.4 4.5-11.2 19.9-15.2 27.3-.9 1.7-.5 3.7.9 5l5.6 5.2c.8.8 2 1 3 .5 3.2-1.4 9.9-4.4 11.5-5 .9.8 2.6 4.4 2.8 6.2-2.6 1.4-10.8 5.4-13.2 7.6-1.1 4.9-.7 7.8 1.7 11.6 8.9 0 11.6 3.6 11.6 12.1h6.7c2.3-11.6 7.2-20.2 19.6-20.2 11.7 0 23.9 12 23.9 35.1 0 26.2-7.2 38.8-24.1 38.8-13.2 0-17.8-10.9-19.8-23.6-1.5 0-4.5-.1-5-.1-18.1 9.7-28.5 43.6-43.1 47.6 1.3 2.3 2.8 4.5 4.5 6.5 1.7 2.1 4.6 2.9 7.2 2 6.2-2.4 14-6.8 18.4-11.4-.5 8.2-4.9 15.2-11 22.1 2.8 1.7 5.6 3.3 8.6 4.6 2.5 1.1 5.5.5 7.4-1.4 4.3-4.6 9.3-11.8 12.6-17.7 1 8.6.3 16.7-3.2 24.7 2.6.6 5.2 1.1 7.8 1.5 4.2.6 8.6-1.4 10.5-5.2 3-5.7 4.5-13.1 5.8-18.9 3.1 8 5.1 15.2 5.5 24.5 2.9-.3 5.7-.6 8.5-1.1 4.3-.7 7.6-4.3 7.9-8.7.5-6.9.6-15.2 0-21.1 5.7 8.7 9.9 19.4 12.1 24 3.2-1.3 6.8-3.3 10.2-5.3 3.9-2.3 5.4-7.1 3.7-11.3-2.6-6-4.8-11.9-6.6-18.7 4.6 5.7 10.8 10.2 16.5 13.3 3.1 1.7 6.9.8 9.1-1.9 2.1-2.4 4-4.9 5.7-7.5-6-5.6-15.4-16.5-17.6-24.4 3.7 3.7 11.5 8.6 18.2 11.4 3.2 1.4 6.9-.2 8.2-3.5 1.2-3.1 2.3-6.3 3.2-9.5-6.3-4-18.1-11.9-21.4-18.5 3.2 2.2 9.8 4.6 15.9 6.1 4.1 1 8.1-2 8.2-6.2.1-2.5 0-4.9-.2-7.4-8.4-1.6-18-6.8-22.1-12.9 4.8 2.3 16.1 3.3 20.4 1.4-.7-2.9-1.5-5.6-2.6-8.4-7.6-1.8-13-6.7-16.6-12.9 5.8 2.2 10.5 2.4 12.6 1.6l-5.3-11.8c-7.5-6-12.2-19.9-7.7-29 0 0-8.3-4.3-13.6-7.2-2.2-1.2-3.1-3.8-2.1-6.1 3.5-8 4.6-16.4-14.9-7.9-2.8 1.2-7.2 1.5-10.2-.1-21.7-11.1-44.3-22.6-47.4-24.3-6.4 4.9-11.4 10.6-14.7 18.5.9 3.3 3.6 6.2 1.6 10"/><path d="m404.8 1012.8 10.2-17.8.7-1.1 2.6-4.6 15.9-27.8 17.3-30.2h-.1c1.6-2.8 2.3-6.2.3-10.6-1.6-3.6-4.8-6.7-8.7-7.5-6.9-1.4-13.6 3.2-14.8 10.1-1.1 6.1 2.6 12 8.4 13.9l-10.3 18c-1.5 2.5-4.6 3.5-7.3 2.1-11.1-5.9-52-25.3-74.4-31.8-3.1 2.8-6.1 11.5-6 16.1 27 11.6 56.8 30 68.2 39 2 1.6 2.5 4.4 1.2 6.5l-17.9 31.3c-1.3 2.2-2 4.8-1.6 7.8 1 6.6 6.6 11.6 13.7 10.9 4.4-.4 8.4-3.4 10-7.5 3-7.2-.9-14.6-7.4-16.8"/><path d="m704.2 972.7c-28.6 20.7-77.5 35-111.1 35-69 0-127.4-26.1-150-37.7 0 0-2.4 8.9 3.6 18.7-11.3-.5-18.6 7.7-18.6 7.7 47.2 32.5 102.8 54.2 168.9 54.2 66.4 0 115.3-20.5 150.6-49.1-22.6-3.6-36.5-14-43.4-28.8"/></g></svg>
