<svg width="129" height="20" viewBox="0 0 129 20" fill="none" xmlns="http://www.w3.org/2000/svg">
<path d="M26.0325 16.5789L24.0956 18.5027L13.2184 7.70852L12.25 6.74736L13.3523 5.65332H15.0243L26.0325 16.5789Z" fill="#010101"/>
<path d="M0 0V19.5141H1.32098L7.29214 13.5862L9.226 11.6668L13.2112 7.71143L25.1119 19.5229H26.4329V0H0ZM2.74162 14.2579V2.72255H23.6898V14.2609L15.0201 5.65623H11.4098L2.74162 14.2579Z" fill="white"/>
<path d="M10.9748 13.7855L9.23438 15.51L13.2687 19.5141H17.1439L11.1727 13.5876L10.9748 13.7855Z" fill="white"/>
<path d="M8.25754 10.7033L6.32031 12.6267L7.28926 13.5881L9.22649 11.6647L8.25754 10.7033Z" fill="white"/>
<path d="M33.4141 19.1302V0.803223H45.2433V3.58778H36.7641V8.56337H44.4371V11.345H36.7596V19.1302H33.4141Z" fill="white"/>
<path d="M56.1011 13.3529V5.38013H59.3738V19.1243H56.2008V16.6882H56.0521C55.7443 17.4541 55.2128 18.1112 54.5258 18.575C53.8137 19.0672 52.9375 19.3133 51.8972 19.3133C51.0561 19.3299 50.2261 19.1207 49.4948 18.7079C48.7884 18.2939 48.2219 17.6808 47.8674 16.9465C47.4766 16.1729 47.2812 15.2378 47.2812 14.1413V5.38013H50.5391V13.6305C50.5391 14.5015 50.7796 15.1935 51.2605 15.7063C51.7415 16.2191 52.3728 16.4755 53.1542 16.4755C53.6415 16.4743 54.1211 16.3547 54.5511 16.1271C55.0107 15.8861 55.3957 15.5258 55.6653 15.0847C55.9712 14.5594 56.1222 13.9593 56.1011 13.3529Z" fill="white"/>
<path d="M65.9795 0.803223V19.1302H62.7188V0.803223H65.9795Z" fill="white"/>
<path d="M75.3783 19.4063C73.9968 19.4063 72.8112 19.1051 71.8215 18.5027C70.8356 17.9031 70.0441 17.0349 69.541 16.0016C69.0085 14.9376 68.7422 13.7102 68.7422 12.3194C68.7422 10.9286 69.0119 9.69283 69.5514 8.61208C70.0597 7.57575 70.8555 6.70498 71.8453 6.10214C72.837 5.50271 74.0077 5.20299 75.3575 5.20299C76.3889 5.18474 77.4112 5.39666 78.349 5.82309C79.1956 6.20436 79.9199 6.80983 80.4424 7.57299C80.9649 8.33615 81.2654 9.22747 81.3108 10.1491H78.1869C78.077 9.51497 77.764 8.93298 77.2943 8.48954C76.8232 8.04562 76.1935 7.82317 75.4051 7.82219C74.7774 7.81075 74.1622 7.99738 73.6482 8.35518C73.117 8.74193 72.7087 9.27174 72.4716 9.88182C72.1743 10.6392 72.0317 11.4478 72.0521 12.2604C72.0316 13.0836 72.1726 13.903 72.4671 14.6729C72.7008 15.288 73.1051 15.825 73.6334 16.2216C74.0793 16.5213 74.5949 16.7032 75.1314 16.7499C75.6679 16.7967 76.2075 16.7069 76.6993 16.4889C77.0804 16.3077 77.4106 16.0359 77.6603 15.6975C77.9306 15.3216 78.1121 14.8902 78.1913 14.4351H81.3153C81.2557 15.3556 80.9574 16.2451 80.4495 17.0174C79.9421 17.7734 79.2385 18.3794 78.413 18.7714C77.5502 19.1947 76.5386 19.4063 75.3783 19.4063Z" fill="white"/>
<path d="M84 19.1302V5.38014H87.1641V7.67009H87.3129C87.527 6.92954 87.986 6.28207 88.616 5.83193C89.2337 5.39917 89.9738 5.17222 90.7298 5.18377C90.9098 5.18377 91.1121 5.18377 91.3383 5.20592C91.5274 5.21633 91.7157 5.23852 91.9021 5.27236V8.25919C91.6886 8.19519 91.4694 8.15169 91.2475 8.12926C90.9626 8.09051 90.6753 8.07078 90.3877 8.0702C89.8303 8.06106 89.2796 8.1921 88.787 8.45112C88.3259 8.694 87.9406 9.05755 87.6728 9.50235C87.3967 9.97123 87.2562 10.5066 87.2667 11.0497V19.1302H84Z" fill="white"/>
<path d="M102.894 13.3529V5.38013H106.158V19.1243H102.992V16.6882H102.844C102.533 17.4555 101.998 18.1128 101.307 18.575C100.595 19.0672 99.7188 19.3133 98.6785 19.3133C97.8373 19.3299 97.0073 19.1207 96.276 18.7079C95.57 18.2934 95.0036 17.6805 94.6486 16.9465C94.2579 16.1729 94.0625 15.2378 94.0625 14.1413V5.38013H97.3263V13.6305C97.3263 14.5015 97.5668 15.1935 98.0477 15.7063C98.5287 16.2191 99.16 16.4755 99.9414 16.4755C100.429 16.4743 100.908 16.3547 101.338 16.1271C101.798 15.8861 102.183 15.5258 102.452 15.0847C102.761 14.5603 102.914 13.9599 102.894 13.3529Z" fill="white"/>
<path d="M109.516 19.1302V5.38012H112.64V7.71584H112.802C113.065 6.96139 113.568 6.31248 114.236 5.86734C114.946 5.41092 115.779 5.17877 116.625 5.20147C117.564 5.20147 118.357 5.42638 119.005 5.8762C119.65 6.32515 120.13 6.9712 120.371 7.71584H120.519C120.822 6.95772 121.365 6.3178 122.066 5.89244C122.849 5.42095 123.753 5.18313 124.668 5.20738C125.942 5.20738 126.983 5.607 127.792 6.40624C128.601 7.20549 129.004 8.37187 129 9.9054V19.1302H125.727V10.4C125.727 9.54662 125.499 8.9216 125.042 8.52493C124.576 8.12756 123.979 7.91694 123.365 7.93436C122.577 7.93436 121.962 8.17748 121.52 8.66372C121.079 9.14996 120.858 9.78088 120.858 10.5565V19.1287H117.648V10.2701C117.648 9.55991 117.434 8.99444 117.004 8.56922C116.782 8.35579 116.518 8.18945 116.229 8.08031C115.939 7.97118 115.631 7.92152 115.322 7.93436C114.87 7.9298 114.427 8.05213 114.042 8.28722C113.651 8.52995 113.333 8.87395 113.123 9.28234C112.886 9.7429 112.768 10.2549 112.779 10.7721V19.1287L109.516 19.1302Z" fill="white"/>
</svg>
