<svg width="29" height="34" viewBox="0 0 29 34" fill="none" xmlns="http://www.w3.org/2000/svg">
<path d="M15.567 7.34674V0H24.0473C25.4151 0 26.7121 0.608509 27.5864 1.66048L27.8987 2.03634C28.5855 2.86264 28.9614 3.90318 28.9614 4.97758V10.3706H21.6594V7.34674H15.567Z" fill="white"/>
<path d="M27.5877 31.4205C26.714 32.5002 25.3994 33.1275 24.0105 33.1275H15.567V25.7808H21.4355V20.3379H15.0071V12.9912H28.9614V28.0943C28.9614 29.148 28.5997 30.1699 27.9369 30.989L27.5877 31.4205Z" fill="white"/>
<path d="M7.9963 25.7808H13.26V33.1275H4.96897C3.56977 33.1275 2.24657 32.4909 1.37336 31.3976L1.0061 30.9378C0.354775 30.1223 0 29.1097 0 28.066V5.00526C0 3.94127 0.368703 2.91015 1.04336 2.0874L1.37426 1.68386C2.24831 0.617949 3.55417 0 4.93262 0H13.26V7.34674H7.9963V25.7808Z" fill="white"/>
</svg>
