<svg width="41" height="58" viewBox="0 0 41 58" fill="none" xmlns="http://www.w3.org/2000/svg">
<path d="M40.7453 0H0V57.6919H40.7453V0Z" fill="white"/>
<path d="M29.4092 46.3585H20.517C18.0828 46.356 15.749 45.3879 14.0278 43.6667C12.3065 41.9455 11.3385 39.6117 11.336 37.1775V29.7859H5.65552V25.1895H21.8093C23.8253 25.1907 25.7584 25.9925 27.1835 27.4185C28.6086 28.8445 29.4092 30.7781 29.4092 32.7941V46.3585ZM15.9182 29.7906V37.1823C15.92 38.3982 16.4039 39.5638 17.2637 40.4237C18.1235 41.2835 19.2892 41.7673 20.5051 41.7692H24.8009V32.7941C24.8028 31.9986 24.4888 31.2348 23.9278 30.6707C23.3668 30.1067 22.6048 29.7884 21.8093 29.7859L15.9182 29.7906Z" fill="#276A35"/>
<path d="M22.6083 11.335H15.8083V15.9314H22.6083V11.335Z" fill="#276A35"/>
<path d="M15.8125 15.9307H11.2161V22.7306H15.8125V15.9307Z" fill="#00BF4D"/>
</svg>
