<svg width="246" height="73" viewBox="0 0 246 73" fill="none" xmlns="http://www.w3.org/2000/svg">
<g clip-path="url(#clip0_3043_15952)">
<path d="M51.4675 0.00390625H0V72.8776H51.4675V0.00390625Z" fill="white"/>
<path d="M37.1483 58.562H25.9161C22.8413 58.5589 19.8934 57.336 17.7192 55.1619C15.5451 52.9877 14.3222 50.0398 14.3191 46.965V37.6282H7.1438V31.8223H27.5484C30.095 31.8239 32.5368 32.8366 34.3369 34.6379C36.1371 36.4391 37.1483 38.8815 37.1483 41.4281V58.562ZM20.1071 37.6342V46.971C20.1095 48.507 20.7207 49.9793 21.8067 51.0654C22.8928 52.1515 24.3652 52.7627 25.9011 52.765H31.3274V41.4281C31.3298 40.4232 30.9331 39.4585 30.2245 38.746C29.5158 38.0334 28.5533 37.6314 27.5484 37.6282L20.1071 37.6342Z" fill="#276A35"/>
<path d="M28.5579 14.3213H19.9685V20.1273H28.5579V14.3213Z" fill="#276A35"/>
<path d="M19.9737 20.127H14.1677V28.7163H19.9737V20.127Z" fill="#00BF4D"/>
<path d="M104.131 25.9521L99.9249 30.1138C97.2621 27.2915 94.1588 25.8804 90.615 25.8804C87.5276 25.8804 84.9366 26.9038 82.8418 28.9508C81.8319 29.9125 81.0326 31.0734 80.4943 32.3599C79.956 33.6464 79.6905 35.0306 79.7146 36.425C79.6927 37.8631 79.9709 39.29 80.5315 40.6145C81.0921 41.939 81.9227 43.132 82.9703 44.1175C85.1349 46.2222 87.8047 47.2746 90.9797 47.2746C93.0426 47.2746 94.7836 46.8401 96.2027 45.9711C97.6218 45.1021 98.7639 43.7438 99.6289 41.8961H90.5402V36.2994H106.326L106.371 37.6209C106.37 40.3679 105.633 43.0646 104.236 45.4299C102.934 47.7703 101.024 49.7154 98.7081 51.0595C96.4479 52.3551 93.796 53.0028 90.7525 53.0028C87.7134 53.0563 84.7117 52.3252 82.0376 50.8801C79.4946 49.4697 77.3981 47.3743 75.9864 44.832C74.5114 42.254 73.7431 39.3323 73.7591 36.3622C73.7029 32.3575 75.1751 28.482 77.8759 25.5246C81.1307 21.8712 85.3691 20.0445 90.5911 20.0445C93.2194 20.0248 95.8243 20.5395 98.2477 21.5573C100.251 22.4123 102.212 23.8773 104.131 25.9521Z" fill="white"/>
<path d="M121.234 28.4074C123.4 28.4023 125.528 28.9685 127.405 30.0488C129.273 31.1005 130.826 32.6318 131.904 34.4845C132.982 36.3371 133.546 38.444 133.537 40.5874C133.547 42.7435 132.985 44.8637 131.908 46.7312C130.859 48.5982 129.321 50.1436 127.459 51.2008C125.568 52.2782 123.425 52.8343 121.249 52.8122C119.661 52.8365 118.085 52.5337 116.62 51.9227C115.154 51.3117 113.829 50.4055 112.729 49.2605C111.571 48.0821 110.662 46.6825 110.056 45.1452C109.45 43.6079 109.16 41.9644 109.204 40.3127C109.247 38.6609 109.622 37.0348 110.308 35.5313C110.993 34.0278 111.974 32.6777 113.192 31.5615C115.37 29.5192 118.249 28.3903 121.234 28.4074ZM121.33 33.8905C120.487 33.8684 119.648 34.0251 118.869 34.3503C118.091 34.6754 117.39 35.1616 116.813 35.777C115.617 37.0367 115.019 38.6471 115.019 40.6083C115.019 42.6294 115.617 44.2647 116.813 45.5144C117.386 46.1293 118.083 46.6158 118.858 46.9419C119.633 47.2681 120.469 47.4266 121.309 47.4069C122.159 47.4291 123.004 47.2715 123.789 46.9443C124.573 46.6172 125.28 46.1278 125.862 45.5084C127.072 44.2448 127.677 42.6164 127.677 40.6233C127.677 38.6302 127.088 37.0048 125.91 35.7471C125.321 35.1323 124.608 34.6491 123.819 34.3291C123.029 34.0091 122.181 33.8597 121.33 33.8905Z" fill="white"/>
<path d="M132.304 29.0029H138.239L144.102 42.6957L149.953 29.0029H155.854L145.988 52.2119H142.203L132.304 29.0029Z" fill="white"/>
<path d="M159.097 20.4482H164.921V29.0047H168.365V34.0155H164.912V52.2137H159.097V34.0155H156.107V29.0047H159.097V20.4482Z" fill="white"/>
<path d="M193.858 42.2943H175.148C175.354 43.8297 176.126 45.2329 177.313 46.2288C178.487 47.2034 179.982 47.6907 181.797 47.6907C182.838 47.7054 183.871 47.5111 184.835 47.1193C185.798 46.7274 186.674 46.1461 187.409 45.4096L192.315 47.7116C191.204 49.3506 189.691 50.6766 187.92 51.5624C186.212 52.3935 184.185 52.8101 181.839 52.8121C178.2 52.8121 175.235 51.663 172.945 49.3649C170.655 47.0669 169.51 44.1908 169.51 40.7367C169.51 37.1969 170.652 34.2571 172.936 31.9171C175.22 29.5772 178.08 28.4072 181.516 28.4072C185.174 28.4072 188.146 29.5772 190.435 31.9171C192.723 34.2571 193.868 37.3464 193.87 41.1852L193.858 42.2943ZM188.034 37.7081C187.657 36.4265 186.853 35.3123 185.756 34.551C184.606 33.7345 183.225 33.308 181.815 33.3342C180.279 33.3057 178.775 33.7861 177.54 34.7005C176.771 35.2686 176.059 36.2711 175.405 37.7081H188.034Z" fill="white"/>
<path d="M220.418 33.6939L215.569 36.3607C214.817 35.5225 213.901 34.8479 212.878 34.3785C211.882 33.9884 210.82 33.7994 209.751 33.8225C207.572 33.8225 205.809 34.4722 204.462 35.7717C203.115 37.0713 202.442 38.7365 202.444 40.7675C202.444 42.7407 203.092 44.3521 204.387 45.6018C205.683 46.8515 207.385 47.4764 209.494 47.4764C212.099 47.4764 214.128 46.5874 215.581 44.8096L220.173 47.9547C217.681 51.1896 214.168 52.808 209.634 52.81C205.554 52.81 202.358 51.6011 200.046 49.1835C198.719 47.8461 197.724 46.2166 197.141 44.4256C196.557 42.6345 196.401 40.7316 196.685 38.8694C196.969 37.0071 197.685 35.2372 198.776 33.7014C199.867 32.1657 201.302 30.9068 202.967 30.0256C205.047 28.9288 207.369 28.3716 209.721 28.4051C211.869 28.3701 213.995 28.8412 215.927 29.7804C217.734 30.6794 219.28 32.0269 220.418 33.6939Z" fill="white"/>
<path d="M224.815 20.0439H230.594V31.348C231.619 30.4402 232.777 29.696 234.029 29.1416C235.133 28.6611 236.323 28.4109 237.527 28.4061C238.61 28.3827 239.686 28.5831 240.688 28.9946C241.69 29.4062 242.597 30.02 243.351 30.7979C244.702 32.1771 245.378 34.2041 245.378 36.8789V52.216H239.641V42.0241C239.641 39.3374 239.512 37.5177 239.255 36.565C239.071 35.7255 238.609 34.973 237.942 34.4303C237.278 33.9462 236.471 33.6989 235.649 33.7278C234.523 33.7076 233.433 34.1281 232.612 34.8997C231.718 35.766 231.105 36.8803 230.851 38.0987C230.681 38.7963 230.596 40.3908 230.594 42.8822V52.204H224.815V20.0439Z" fill="white"/>
<path d="M80.0233 61.9805L85.0609 72.7852H83.8949L82.1968 69.2305H77.5448L75.8616 72.7852H74.6658L79.7692 61.9805H80.0233ZM79.8888 64.2765L78.0381 68.1871H81.7304L79.8888 64.2765Z" fill="white"/>
<path d="M89.8625 61.713V62.7175C89.5576 62.5738 89.2275 62.4915 88.8909 62.4754C88.7163 62.4691 88.5434 62.5116 88.3916 62.5979C88.2779 62.6575 88.1897 62.7563 88.1434 62.876C88.0951 63.1532 88.0781 63.435 88.0926 63.7161V64.7954H89.7608V65.6923H88.0926V72.7958H87.0462V65.6833H85.9968V64.7864H87.0462V63.5516C87.0236 63.1358 87.0773 62.7194 87.2047 62.3229C87.3136 62.0709 87.5014 61.8611 87.7398 61.7249C88.019 61.5691 88.3351 61.4916 88.6547 61.5007C89.0653 61.5142 89.4719 61.5856 89.8625 61.713Z" fill="white"/>
<path d="M90.9045 64.7951H91.9569V65.9641C92.2156 65.5584 92.5519 65.2079 92.9465 64.9326C93.2675 64.7137 93.6462 64.5951 94.0347 64.5918C94.3516 64.6044 94.6602 64.697 94.9317 64.8609L94.3965 65.7279C94.226 65.6466 94.041 65.5999 93.8524 65.5904C93.4816 65.6032 93.1289 65.7535 92.8628 66.0119C92.4992 66.3695 92.246 66.824 92.1333 67.3214C92.0077 67.7788 91.945 68.6966 91.945 70.0839V72.7746H90.9045V64.7951Z" fill="white"/>
<path d="M96.1722 61.5039C96.2838 61.5039 96.3943 61.526 96.4974 61.5689C96.6004 61.6118 96.6939 61.6746 96.7726 61.7538C96.8512 61.833 96.9134 61.927 96.9556 62.0303C96.9978 62.1337 97.0191 62.2444 97.0183 62.356C97.0204 62.4674 96.9995 62.578 96.9568 62.6809C96.9141 62.7838 96.8505 62.8768 96.7701 62.9539C96.6927 63.0339 96.5997 63.0971 96.4968 63.1398C96.394 63.1825 96.2835 63.2037 96.1722 63.202C95.9494 63.2005 95.7361 63.1111 95.5788 62.9532C95.4215 62.7953 95.3329 62.5818 95.3321 62.359C95.3307 62.2477 95.3519 62.1372 95.3946 62.0344C95.4373 61.9316 95.5004 61.8386 95.5802 61.761C95.656 61.6799 95.7477 61.6152 95.8495 61.571C95.9513 61.5267 96.0612 61.5039 96.1722 61.5039ZM95.661 64.7926H96.6894V72.784H95.661V64.7926Z" fill="white"/>
<path d="M106.586 66.4555L105.77 66.9637C105.441 66.512 105.006 66.1479 104.503 65.9035C104.001 65.659 103.446 65.5416 102.888 65.5616C102.441 65.5471 101.996 65.6228 101.58 65.7841C101.163 65.9454 100.783 66.189 100.463 66.5003C100.152 66.7924 99.9055 67.1462 99.7393 67.539C99.573 67.9318 99.4905 68.355 99.4972 68.7815C99.496 69.3586 99.6499 69.9254 99.9427 70.4228C100.228 70.9274 100.65 71.3417 101.159 71.6187C101.92 72.0217 102.799 72.1449 103.641 71.9668C104.484 71.7887 105.237 71.3205 105.77 70.644L106.586 71.1792C106.202 71.7565 105.67 72.2201 105.046 72.5216C104.36 72.8504 103.606 73.0142 102.846 72.9999C102.269 73.019 101.694 72.9231 101.154 72.7178C100.615 72.5125 100.122 72.2019 99.7035 71.804C99.302 71.4301 98.9834 70.9762 98.7681 70.4715C98.5529 69.9669 98.4458 69.4227 98.4538 68.8741C98.4522 68.1163 98.6546 67.3719 99.0396 66.7192C99.4246 66.0664 99.9782 65.5292 100.642 65.1639C101.344 64.7883 102.13 64.597 102.926 64.6079C103.447 64.605 103.965 64.6868 104.46 64.85C104.909 64.9893 105.331 65.2025 105.71 65.4809C106.061 65.7472 106.358 66.0779 106.586 66.4555Z" fill="white"/>
<path d="M116.516 64.7925V72.784H115.503V71.4087C115.111 71.9069 114.617 72.3148 114.053 72.6046C113.506 72.8712 112.904 73.0073 112.295 73.0022C111.753 73.0103 111.215 72.9049 110.716 72.6928C110.217 72.4806 109.768 72.1665 109.398 71.7705C109.008 71.378 108.701 70.911 108.496 70.3973C108.29 69.8837 108.19 69.3339 108.202 68.7808C108.193 68.2325 108.296 67.6883 108.504 67.181C108.713 66.6737 109.022 66.2141 109.413 65.83C109.788 65.4357 110.241 65.1233 110.742 64.9123C111.244 64.7014 111.784 64.5965 112.328 64.6042C112.951 64.5924 113.568 64.7362 114.122 65.0227C114.681 65.3248 115.16 65.7551 115.521 66.2784V64.8075L116.516 64.7925ZM112.409 65.5788C111.849 65.5749 111.3 65.722 110.817 66.0045C110.334 66.2871 109.937 66.6947 109.667 67.1843C109.385 67.6756 109.237 68.2322 109.237 68.7987C109.237 69.3652 109.385 69.9218 109.667 70.4132C109.939 70.9086 110.34 71.3217 110.827 71.609C111.3 71.8921 111.842 72.0409 112.394 72.0395C112.955 72.0394 113.507 71.892 113.993 71.612C114.481 71.3449 114.884 70.946 115.156 70.461C115.431 69.9604 115.572 69.3968 115.563 68.8256C115.574 68.3979 115.5 67.9723 115.343 67.5742C115.186 67.1761 114.951 66.8137 114.651 66.5086C114.361 66.2074 114.013 65.9693 113.627 65.8093C113.241 65.6492 112.826 65.5708 112.409 65.5788Z" fill="white"/>
<path d="M123.355 61.5039C123.466 61.5039 123.577 61.526 123.68 61.5689C123.783 61.6118 123.877 61.6746 123.955 61.7538C124.034 61.833 124.096 61.927 124.138 62.0303C124.18 62.1337 124.202 62.2444 124.201 62.356C124.203 62.4674 124.182 62.578 124.139 62.6809C124.097 62.7838 124.033 62.8768 123.953 62.9539C123.875 63.0339 123.782 63.0971 123.679 63.1398C123.577 63.1825 123.466 63.2037 123.355 63.202C123.132 63.1997 122.919 63.1101 122.761 62.9525C122.604 62.7949 122.514 62.5818 122.512 62.359C122.511 62.2475 122.533 62.137 122.576 62.0342C122.619 61.9314 122.683 61.8384 122.763 61.761C122.839 61.6799 122.93 61.6152 123.032 61.571C123.134 61.5267 123.244 61.5039 123.355 61.5039ZM122.844 64.7926H123.872V72.784H122.844V64.7926Z" fill="white"/>
<path d="M126.009 64.7924H127.037V66.2394C127.397 65.7362 127.862 65.317 128.4 65.0107C128.901 64.7387 129.463 64.5987 130.033 64.6041C130.595 64.593 131.149 64.7513 131.62 65.0585C132.078 65.3538 132.436 65.7812 132.646 66.2843C132.867 66.7985 132.978 67.5957 132.978 68.676V72.7898H131.949V68.972C131.971 68.3549 131.933 67.7371 131.835 67.1274C131.752 66.661 131.509 66.2383 131.148 65.9315C130.766 65.6508 130.3 65.5094 129.826 65.5309C129.213 65.5281 128.619 65.748 128.155 66.1497C127.676 66.5415 127.335 67.0771 127.183 67.6775C127.06 68.395 127.011 69.1233 127.037 69.851V72.7809H126.009V64.7924Z" fill="white"/>
<path d="M142.936 66.4536L142.119 66.9619C141.791 66.5102 141.356 66.1461 140.853 65.9016C140.351 65.6571 139.796 65.5397 139.237 65.5597C138.791 65.5453 138.346 65.621 137.93 65.7823C137.513 65.9435 137.133 66.1871 136.813 66.4985C136.502 66.7906 136.255 67.1443 136.089 67.5371C135.923 67.9299 135.84 68.3531 135.847 68.7796C135.846 69.3568 136 69.9236 136.293 70.421C136.578 70.9255 137 71.3399 137.509 71.6168C138.27 72.0198 139.149 72.143 139.991 71.9649C140.834 71.7868 141.587 71.3187 142.119 70.6422L142.936 71.1774C142.551 71.7525 142.019 72.214 141.396 72.5138C140.71 72.8426 139.956 73.0064 139.196 72.9921C138.619 73.0112 138.044 72.9153 137.504 72.71C136.965 72.5047 136.472 72.1941 136.053 71.7962C135.651 71.4228 135.332 70.9689 135.117 70.4642C134.902 69.9594 134.795 69.415 134.804 68.8663C134.802 68.1085 135.004 67.3641 135.39 66.7113C135.775 66.0586 136.328 65.5214 136.992 65.1561C137.694 64.7805 138.48 64.5892 139.276 64.6C139.796 64.597 140.313 64.6788 140.807 64.8422C141.255 64.9784 141.678 65.1886 142.057 65.4641C142.41 65.7345 142.709 66.0705 142.936 66.4536Z" fill="white"/>
<path d="M146.043 71.17C146.162 71.1686 146.279 71.1915 146.389 71.2372C146.498 71.283 146.597 71.3507 146.68 71.4361C146.85 71.6071 146.946 71.8388 146.946 72.0804C146.946 72.322 146.85 72.5537 146.68 72.7247C146.596 72.8092 146.497 72.8763 146.387 72.9221C146.278 72.9679 146.16 72.9915 146.041 72.9915C145.923 72.9915 145.805 72.9679 145.695 72.9221C145.586 72.8763 145.486 72.8092 145.403 72.7247C145.232 72.5537 145.136 72.322 145.136 72.0804C145.136 71.8388 145.232 71.6071 145.403 71.4361C145.486 71.3503 145.585 71.2824 145.695 71.2366C145.805 71.1908 145.924 71.1682 146.043 71.17Z" fill="white"/>
</g>
<defs>
<clipPath id="clip0_3043_15952">
<rect width="245.894" height="72.9997" fill="white"/>
</clipPath>
</defs>
</svg>
