<svg width="541" height="393" viewBox="0 0 541 393" fill="none" xmlns="http://www.w3.org/2000/svg">
<g clip-path="url(#clip0_441_61988)">
<path d="M142.824 233.114H238.067C262.942 233.114 256.693 221.313 234.232 220.656C240.547 203.95 227.079 193.304 211.381 201.968C206.57 165.159 154.541 186.098 164.474 213.009C159.888 207.81 145.305 209.427 148.839 222.07C142.487 222.235 132.931 224.311 132.603 228.299C132.31 231.877 138.016 233.112 142.827 233.112L142.824 233.114Z" fill="white"/>
<path d="M238.07 233.886H142.825C138.117 233.886 131.423 232.659 131.786 228.239C132.153 223.735 141.42 221.677 147.816 221.338C146.725 216.375 148.32 212.48 152.267 210.567C155.583 208.957 159.926 209.167 162.959 210.834C156.577 184.264 206.285 165.49 212.028 200.741C227.384 193.039 241.002 203.216 235.357 219.924C246.654 220.451 254.99 223.909 254.92 228.125C254.862 231.731 248.561 233.886 238.07 233.886ZM149.634 221.874C149.765 222.357 149.393 222.826 148.863 222.842C141.757 223.025 133.669 225.337 133.418 228.358C133.161 231.55 139.377 232.342 142.825 232.342H238.07C248.53 232.342 253.248 230.213 253.283 228.102C253.325 225.537 246.72 221.792 234.207 221.426C233.657 221.41 233.273 220.892 233.46 220.396C239.566 204.25 226.756 194.38 211.796 202.631C211.274 202.916 210.639 202.603 210.569 202.06C205.901 166.326 155.712 186.929 165.25 212.755C165.545 213.565 164.423 214.16 163.842 213.501C159.774 208.884 146.327 210.051 149.634 221.874Z" fill="#000001"/>
<path d="M120.5 73.1741C139.101 73.1741 154.18 58.9745 154.18 41.4584C154.18 23.9423 139.101 9.74268 120.5 9.74268C101.899 9.74268 86.8203 23.9423 86.8203 41.4584C86.8203 58.9745 101.899 73.1741 120.5 73.1741Z" fill="white"/>
<path d="M120.5 73.9485C101.476 73.9485 86 59.3733 86 41.4608C86 23.5484 101.476 8.97314 120.5 8.97314C139.524 8.97314 154.999 23.5484 154.999 41.4608C154.999 59.3733 139.524 73.9485 120.5 73.9485ZM120.5 10.5149C102.38 10.5149 87.6373 24.3954 87.6373 41.4586C87.6373 58.5219 102.38 72.4024 120.5 72.4024C138.62 72.4024 153.36 58.5219 153.36 41.4586C153.36 24.3954 138.617 10.5149 120.5 10.5149Z" fill="#000001"/>
<path d="M262.082 274.334C291.679 264.346 320.48 256.187 348.675 249.363C349.181 249.24 349.715 249.284 350.19 249.489C375.185 260.286 403.171 275.295 432.503 292.198C433.199 292.599 433.618 293.318 433.592 294.086C432.655 324.295 427.933 358.254 421.326 394.079C421.199 394.765 420.728 395.351 420.061 395.651C393.12 407.697 364.272 418.048 333.996 427.125C333.419 427.297 332.792 427.248 332.255 426.986C304.285 413.323 274.131 394.352 249.054 375.494C248.473 375.057 248.157 374.384 248.206 373.685C250.092 346.632 254.352 310.862 260.604 275.995C260.742 275.229 261.309 274.594 262.084 274.332L262.082 274.334Z" fill="white"/>
<path d="M370.38 415.265C377.093 379.526 382.567 343.648 385.392 306.379C357.013 290.171 328.514 274.731 300.619 262.17L327.42 255.003C351.101 264.68 379.595 281.066 409.443 299.336C407.297 329.439 401.596 366.398 394.288 406.455L370.38 415.263V415.265Z" fill="#81F889"/>
<path d="M404.099 377.466C404.099 377.466 402.532 388.863 400.684 397.765C400.684 397.765 416.159 392.204 416.843 391.823C417.579 391.415 420.09 375.706 420.235 372.635L404.099 377.466Z" fill="white"/>
<path d="M307.538 385.83C307.538 385.83 305.419 400.191 305.027 405.624C305.027 405.624 323.246 415.958 327.645 417.716L330.739 396.865C323.347 393.632 315.615 389.959 307.538 385.83Z" fill="white"/>
<path d="M327.646 418.487C326.217 418.487 305.858 406.996 304.605 406.283C304.342 406.133 304.188 405.86 304.209 405.569C304.598 400.173 306.706 385.865 306.727 385.72C306.807 385.177 307.441 384.892 307.931 385.148C330.391 396.629 331.748 395.652 331.551 396.969C328.375 418.276 328.67 418.485 327.646 418.485V418.487ZM305.881 405.205C308.47 406.667 321.959 414.263 326.988 416.577L329.843 397.321C322.908 394.273 315.635 390.819 308.193 387.036C307.708 390.387 306.27 400.498 305.884 405.202L305.881 405.205Z" fill="#000001"/>
<path d="M277.809 292.941C276.966 292.941 264.671 286.227 263.062 285.307C262.137 284.776 262.985 283.461 263.912 283.986C266.215 285.303 272.733 288.865 278.181 291.479C278.945 291.847 278.666 292.941 277.809 292.941Z" fill="#000001"/>
<path d="M279.678 300.672C278.504 300.672 264.336 292.987 262.239 291.79C261.314 291.258 262.164 289.941 263.089 290.468C266.401 292.361 274.77 296.867 280.027 299.201C280.818 299.551 280.547 300.672 279.678 300.672Z" fill="#000001"/>
<path d="M271.932 303.804C271.328 303.804 261.968 298.587 261.417 298.272C260.492 297.74 261.34 296.424 262.268 296.951C264.319 298.124 268.341 300.314 272.323 302.353C273.068 302.732 272.777 303.804 271.932 303.804Z" fill="#000001"/>
<path d="M400.684 398.537C400.167 398.537 399.78 398.089 399.879 397.617C401.699 388.843 403.268 377.481 403.284 377.367C403.324 377.069 403.544 376.82 403.846 376.729C421.285 371.506 420.24 371.667 420.732 372.022C420.945 372.174 421.065 372.417 421.053 372.668C421.013 373.482 418.722 391.675 417.261 392.487C416.628 392.84 400.989 398.535 400.684 398.535V398.537ZM404.842 378.053C404.537 380.201 403.261 389.024 401.767 396.547C407.456 394.498 414.944 391.776 416.27 391.225C416.945 389.577 418.863 378.112 419.322 373.716L404.842 378.05V378.053Z" fill="#000001"/>
<path d="M404.546 392.504C405.443 388.322 406.148 384.555 406.762 380.649C406.926 379.641 408.544 379.866 408.385 380.876C407.762 384.811 407.055 388.602 406.15 392.811C405.937 393.812 404.326 393.506 404.544 392.504H404.546Z" fill="#000001"/>
<path d="M408.88 390.881C409.388 388.512 409.889 386.03 410.377 383.313C410.55 382.296 412.171 382.565 411.991 383.569C411.503 386.304 410.997 388.803 410.484 391.187C410.271 392.189 408.66 391.882 408.878 390.881H408.88Z" fill="#000001"/>
<path d="M413.059 389.56C413.956 385.376 414.664 381.608 415.275 377.704C415.439 376.701 417.058 376.919 416.898 377.931C416.278 381.862 415.57 385.654 414.664 389.867C414.451 390.868 412.841 390.561 413.059 389.56Z" fill="#000001"/>
<path d="M274.561 393.569C276.697 368.056 282.674 325.054 288.926 290.184C295.592 284.679 368.313 262.436 375.392 261.214L397.353 272.777C366.051 282.389 336.18 292.096 313.797 302.293C307.449 337.487 302.766 373.098 298.979 408.932L274.561 393.569Z" fill="#81F889"/>
<path d="M432.933 291.541C399.082 272.036 372.897 258.451 350.533 248.79C349.889 248.51 349.156 248.448 348.472 248.616C318.455 255.884 290.104 264.058 261.804 273.609C260.75 273.964 259.98 274.831 259.795 275.869C253.981 308.298 249.458 343.933 247.387 373.637C247.322 374.585 247.75 375.507 248.54 376.101C274.745 395.809 305.12 414.606 331.877 427.674C332.621 428.038 333.486 428.091 334.245 427.864C366.28 418.26 394.465 407.953 420.413 396.351C421.319 395.945 421.961 395.147 422.132 394.214C429.555 353.973 433.572 321.23 434.411 294.113C434.446 293.074 433.876 292.088 432.93 291.543L432.933 291.541ZM420.518 393.949C420.439 394.39 420.134 394.765 419.708 394.955C393.828 406.526 365.709 416.809 333.748 426.391C333.38 426.503 332.975 426.468 332.631 426.302C305.966 413.278 275.687 394.54 249.561 374.892C249.193 374.614 248.992 374.184 249.025 373.738C251.091 344.083 255.604 308.505 261.408 276.125C261.497 275.638 261.86 275.23 262.357 275.062C290.61 265.529 318.912 257.368 348.879 250.111C349.179 250.036 349.528 250.056 349.847 250.193C372.15 259.827 398.281 273.386 432.073 292.858C432.518 293.116 432.787 293.577 432.771 294.064C431.935 321.108 427.925 353.781 420.516 393.949H420.518Z" fill="#000001"/>
<path d="M410.246 298.343C398.93 291.532 388.114 285.252 377.826 279.52C384.069 277.475 390.491 275.426 397.113 273.368C398.139 273.046 397.635 271.584 396.6 271.901C364.923 281.754 337.726 291.38 313.462 301.325C313.209 301.429 313.027 301.647 312.982 301.905C306.438 338.405 299.973 384.202 297.945 408.429C297.858 409.446 299.491 409.568 299.577 408.551C301.594 384.454 308.012 338.97 314.523 302.576C326.146 297.82 338.443 293.138 351.586 288.468C361.744 293.945 372.643 300.008 384.542 306.8C382.024 339.762 377.264 374.206 369.574 415.135C369.387 416.141 370.999 416.41 371.188 415.404C378.925 374.224 383.698 339.599 386.209 306.438C386.233 306.149 386.081 305.873 385.818 305.723C374.201 299.089 363.531 293.144 353.574 287.762C360.723 285.239 368.122 282.718 375.798 280.188C386.296 286.02 397.359 292.43 408.948 299.4C406.1 336.641 399.942 371.246 393.349 406.358C393.164 407.364 394.773 407.633 394.963 406.627C401.594 371.33 407.78 336.541 410.618 299.053C410.642 298.771 410.497 298.502 410.244 298.348L410.246 298.343Z" fill="#000001"/>
<path d="M375.243 260.456C373.159 260.815 364.616 263.222 353.633 266.541C344.527 261.865 335.949 257.716 327.934 254.119C327.521 253.934 327.034 254.097 326.84 254.485C326.161 255.826 327.507 254.953 351.478 267.194C344.269 269.387 336.169 271.921 328.224 274.499C318.67 269.689 309.685 265.399 300.974 261.475C299.985 261.038 299.292 262.428 300.264 262.869C308.544 266.596 317.075 270.659 326.109 275.188C308.174 281.05 291.523 287.01 288.384 289.604C287.515 290.323 276.719 356.77 273.691 392.95C273.604 393.962 275.237 394.095 275.323 393.071C277.392 368.398 283.287 326.302 289.682 290.597C297.465 284.917 369.16 263.074 375.538 261.973C376.611 261.788 376.302 260.262 375.241 260.456H375.243Z" fill="#000001"/>
<path d="M353.962 288.546C353.962 288.546 375.849 281.113 377.444 280.374L375.774 279.337L352.191 287.71L353.962 288.546Z" fill="#000001"/>
<path d="M432.242 291.468C405.05 300.079 373.319 309.273 347.291 316.079C318.439 304.44 289.368 289.163 261.427 274.694C260.471 274.2 259.689 275.556 260.635 276.046C288.584 290.557 317.61 305.761 346.373 317.387C343.703 349.994 337.217 394.955 332.23 427.017C332.076 428.034 333.699 428.246 333.854 427.242C338.843 395.154 345.333 350.149 348.006 317.498C374.005 310.691 405.64 301.524 432.762 292.933C433.799 292.604 433.254 291.133 432.239 291.471L432.242 291.468Z" fill="#000001"/>
<path d="M242.772 126.671C254.249 49.7231 342.758 13.0887 418.651 38.4321C478.634 47.8064 543.523 98.2396 530.067 182.378C526.471 186.496 521.028 188.42 516.61 189.531C507.372 197.123 491.079 201.599 474.13 201.318C450.995 206.855 421.548 204.417 407.757 198.641C388.793 199.534 365.082 193.55 356.364 187.389C338.35 185.782 309.143 176.496 298.903 165.425C285.819 161.675 269.322 151.715 261.353 142.389C253.577 139.374 246.508 133.789 242.77 126.673L242.772 126.671Z" fill="white"/>
<path d="M516.612 189.529C524.126 144.661 500.703 61.5481 418.652 38.4302C475.582 67.6226 487.125 137.31 474.132 201.316C491.762 200.443 506.641 197.15 516.612 189.529Z" fill="#81F889"/>
<path d="M407.758 198.639C428.735 147.542 437.397 75.3869 418.649 38.4326C381.208 69.8638 361.172 123.204 356.365 187.39C371.733 196.03 389.125 199.058 407.758 198.641V198.639Z" fill="#81F889"/>
<path d="M298.907 165.421C310.893 89.3751 359.146 49.4013 418.652 38.4302C356.431 26.0672 272.699 60.9636 261.357 142.385C271.914 153.923 284.872 160.732 298.907 165.421Z" fill="#81F889"/>
<path d="M502.521 81.8647C481.628 58.8306 451.096 42.718 418.918 37.7C341.652 11.9089 253.399 49.8623 241.959 126.563C241.936 126.718 241.964 126.874 242.037 127.013C244.536 131.766 248.557 136.006 253.542 139.259C269.678 180.931 306.951 234.12 347.11 273.008C346.007 276.359 349.86 279.72 354.09 279.72C357.196 279.72 359.704 277.876 359.522 275.236C396.759 261.856 485.514 225.389 510.148 194.642C512.71 193.319 515.017 191.843 517.003 190.228C521.07 189.192 526.827 187.299 530.699 182.866C530.793 182.758 530.853 182.63 530.875 182.491C538.67 133.754 519.758 100.869 502.521 81.8647ZM407.185 197.889C388.688 198.628 365.876 192.849 357.217 187.017C362.271 120.462 383.408 69.5613 418.374 39.6984C436.583 77.0938 427.085 149.094 407.183 197.887L407.185 197.889ZM420.433 40.2587C477.039 70.973 485.024 142.903 473.42 200.686C450.51 206.037 422.429 203.608 408.801 198.22C428.556 149.65 438.021 78.2937 420.433 40.2587ZM355.608 186.538C336.827 184.661 309.457 175.298 299.772 165.18C310.626 97.0752 351.806 52.6436 415.901 39.7469C381.499 69.9738 360.679 120.634 355.608 186.538ZM298.235 164.413C285.392 160.498 269.821 150.892 262.213 142.155C268.322 99.1088 293.701 73.9882 313.945 60.4871C342.774 41.2622 380.918 32.9776 414.467 38.4588C350.445 51.7393 309.27 96.3098 298.235 164.413ZM243.618 126.539C254.551 54.3442 334.192 17.4474 407.518 35.973C375.388 32.6225 340.118 41.1431 312.999 59.2254C292.593 72.8324 267.041 98.0876 260.686 141.271C253.158 138.119 246.983 132.803 243.618 126.539ZM347.941 271.596C308.672 233.478 272.233 181.714 255.833 140.642C257.43 141.538 259.105 142.334 260.847 143.02C266.64 149.725 277.035 156.942 287.416 161.834C302.735 201.025 321.747 235.571 349.009 270.745C348.599 270.986 348.241 271.27 347.944 271.594L347.941 271.596ZM350.558 270.125C324.549 236.619 305.077 202.417 289.538 162.803C292.572 164.139 295.579 165.26 298.439 166.094C308.661 176.932 336.855 186.364 356.06 188.133C364.855 194.199 388.55 200.271 407.602 199.415C419.885 204.488 439.67 205.818 454.033 204.956C432.062 228.153 393.426 254.346 356.559 271.052C354.809 270.022 352.551 269.625 350.558 270.125ZM359.114 273.723C358.847 273.156 358.458 272.613 357.966 272.126C395.431 255.038 434.609 228.277 456.368 204.797C462.449 204.327 468.502 203.449 474.224 202.086C486.057 202.291 497.567 200.152 506.627 196.29C479.604 225.972 393.632 261.261 359.114 273.723ZM515.844 189.126C505.606 197.381 488.802 200.637 475.116 200.551C486.75 142.157 478.679 73.4081 425.577 41.3858C499.621 66.4888 523.382 143.245 515.844 189.126ZM529.286 182.045C526.028 185.674 521.297 187.445 517.608 188.462C524.616 142.987 501.61 68.5379 430.976 41.6769C490.543 56.186 541.211 106.809 529.286 182.045Z" fill="#000001"/>
<path d="M116.926 70.3864C107.535 52.4232 132.774 38.0509 147.741 52.4232C141.501 15.3675 218.176 19.812 203.794 62.0952C211.451 57.4654 225.217 60.4365 222.87 72.5965C222.87 72.5965 242.533 73.9552 242.533 80.612C242.533 83.9294 221.404 83.3758 200.567 83.3758L103.439 83.2611C83.9086 83.2611 92.301 73.0994 116.926 70.3864Z" fill="white"/>
<path d="M103.438 84.033C84.0836 84.0198 89.2015 72.9825 115.709 69.7489C107.6 52.0085 131.292 38.2009 146.658 50.4204C143.512 14.8469 216.913 19.4502 205.14 60.5291C213.926 56.7728 225.319 61.0828 223.818 71.8951C228.06 72.2678 243.355 74.0633 243.355 80.6098C243.355 85.3256 229.859 84.1124 103.44 84.0308L103.438 84.033ZM117.66 70.0445C117.909 70.5231 117.581 71.09 117.021 71.1518C101.602 72.8523 93.2958 77.3939 93.4504 79.8841C93.5254 81.084 96.1862 82.4824 103.44 82.4868C223.466 82.564 238.942 83.2522 241.631 80.7267C241.718 75.7418 228.071 73.7302 222.813 73.3663C222.326 73.3332 221.979 72.9097 222.066 72.4575C223.141 66.897 220.651 64.0185 218.374 62.5826C214.51 60.1453 208.429 60.2137 204.243 62.7436C203.58 63.1385 202.789 62.5363 203.021 61.8592C216.988 20.7891 142.526 16.5034 148.555 52.3019C148.677 53.043 147.717 53.4974 147.159 52.9636C132.794 39.167 108.724 52.9437 117.665 70.0445H117.66Z" fill="#000001"/>
</g>
<defs>
<clipPath id="clip0_441_61988">
<rect width="541" height="393" fill="white"/>
</clipPath>
</defs>
</svg>
