<svg width="658" height="404" viewBox="0 0 658 404" fill="none" xmlns="http://www.w3.org/2000/svg">
<g clip-path="url(#clip0_392_21612)">
<path fill-rule="evenodd" clip-rule="evenodd" d="M82.1276 189.04C76.5677 181.769 51.3281 160.545 51.3281 160.545C57.3394 157.178 60.6615 147.508 60.6615 147.508C52.9438 140.783 56.3544 133.684 61.7264 133.269C67.0983 132.854 73.4487 142.533 73.4487 142.533C74.884 142.698 76.3334 142.698 77.7687 142.533C79.987 142.25 79.7948 138.608 79.4124 135.664C79.0301 132.72 81.3392 124.108 82.0606 124.32C83.8728 123.136 89.1 120.505 89.1 120.505L104.313 118.777C104.313 118.777 101.414 123.471 104.183 125.689C106.952 127.908 112.05 131.163 112.618 133.727C113.186 136.291 106.004 138.191 106.004 138.191L108.216 142.511C107.6 143.229 106.839 143.806 105.982 144.206C105.125 144.605 104.193 144.817 103.248 144.827L106.613 147.682L102.537 152.32C102.537 152.32 106.406 158.314 104.639 160.828C102.872 163.342 91.0311 161.8 91.0311 161.8C91.0311 161.8 84.7887 179.776 82.1276 189.04Z" fill="white"/>
<path fill-rule="evenodd" clip-rule="evenodd" d="M101.335 125.752C99.5933 126.654 98.2632 128.188 97.6172 130.04C98.3385 130.296 99.1167 130.348 99.8658 130.19C100.615 130.032 101.306 129.669 101.862 129.143L101.335 125.752Z" fill="white"/>
<path d="M94.2438 125.652C95.5505 122.927 97.832 120.791 100.637 119.666C100.772 119.623 100.914 119.606 101.056 119.617C101.197 119.628 101.335 119.666 101.462 119.731C101.588 119.795 101.701 119.883 101.793 119.991C101.885 120.099 101.955 120.224 101.999 120.359C102.043 120.494 102.06 120.636 102.049 120.777C102.038 120.919 101.999 121.057 101.935 121.183C101.871 121.31 101.782 121.422 101.675 121.514C101.567 121.607 101.442 121.677 101.307 121.721C99.0789 122.664 97.2675 124.382 96.2072 126.557C96.0872 126.817 95.8687 127.019 95.5997 127.119C95.3307 127.218 95.0334 127.206 94.773 127.086C94.5126 126.966 94.3106 126.748 94.2114 126.479C94.1121 126.21 94.1238 125.912 94.2438 125.652Z" fill="#000001"/>
<path fill-rule="evenodd" clip-rule="evenodd" d="M81.9864 124.319C79.8957 128.453 79.065 133.11 79.5974 137.711C80.6558 144.82 73.4479 142.539 73.4479 142.539C73.4479 142.539 68.2056 135.698 65.5941 134.305C62.9827 132.912 58.1767 132.853 56.7705 136.329C55.3644 139.804 56.1463 143.889 60.6045 147.446C59.0216 152.798 55.6713 157.455 51.1005 160.657C51.1005 160.657 52.4419 153.376 51.3295 149.799C50.2171 146.222 46.1973 141.049 44.8711 138.642L81.9864 124.319Z" fill="#81F889"/>
<path fill-rule="evenodd" clip-rule="evenodd" d="M88.6797 120.615C88.6797 120.615 128.538 118.695 129.057 105.279L101.743 107.493C101.99 111.651 96.4298 116.081 88.6797 120.615Z" fill="#81F889"/>
<path d="M101.577 124.082C99.3845 125.265 97.657 127.155 96.6761 129.446C96.6043 129.61 96.5747 129.79 96.5898 129.969C96.6049 130.147 96.6644 130.32 96.7628 130.47C96.8612 130.62 96.9954 130.743 97.1534 130.828C97.3114 130.913 97.4881 130.958 97.6675 130.958C98.8491 130.958 98.4624 129.791 100.283 127.804L100.398 128.467C100.447 128.749 100.606 129.001 100.841 129.166C101.076 129.331 101.366 129.395 101.648 129.346C101.931 129.297 102.182 129.137 102.347 128.903C102.512 128.668 102.577 128.378 102.528 128.096L102.199 126.21C102.381 126.1 102.506 126.037 102.506 126.037C102.634 125.976 102.749 125.89 102.845 125.785C102.94 125.679 103.013 125.556 103.061 125.422C103.109 125.289 103.129 125.147 103.122 125.005C103.115 124.863 103.08 124.724 103.019 124.595C102.958 124.467 102.872 124.352 102.767 124.257C102.661 124.161 102.538 124.088 102.404 124.04C102.27 123.993 102.128 123.972 101.987 123.979C101.845 123.986 101.705 124.021 101.577 124.082Z" fill="#000001"/>
<path fill-rule="evenodd" clip-rule="evenodd" d="M125.118 363.52C107.756 362.337 69.7202 351.234 53.0536 349.374C41.8756 348.128 35.8125 353.796 35.8125 353.796C35.8125 353.796 36.1127 379.398 38.4758 392.587H124.647L125.118 363.52Z" fill="white"/>
<path d="M252.019 392.943C251.736 392.944 251.463 392.832 251.261 392.633C251.059 392.433 250.943 392.162 250.939 391.879L245.598 22.8815C245.598 22.186 245.814 22.1234 246.928 22.0996H432.202C433.122 22.0996 434.092 24.2596 432.202 24.2596H247.773L253.091 391.863C253.091 392.148 252.978 392.422 252.777 392.624C252.577 392.826 252.304 392.941 252.019 392.943Z" fill="#000001"/>
<path fill-rule="evenodd" clip-rule="evenodd" d="M320.729 91.1399C320.729 91.1399 316.929 85.7767 312.681 89.2888C308.432 92.801 313.413 99.7411 322.776 102.404C322.776 102.404 335.088 92.4532 328.785 87.2843C324.632 83.8672 320.729 91.1399 320.729 91.1399Z" fill="white"/>
<path fill-rule="evenodd" clip-rule="evenodd" d="M354.336 80.7237C354.336 80.7237 353.304 73.045 347.487 75.2741C341.67 77.5032 343.072 87.4673 350.79 94.3857C350.79 94.3857 367.536 88.1822 363.996 79.6761C361.661 74.0688 354.336 80.7237 354.336 80.7237Z" fill="white"/>
<path fill-rule="evenodd" clip-rule="evenodd" d="M380.945 99.8765C380.945 99.8765 382.63 93.0812 376.857 92.2237C371.083 91.3661 368.949 100.216 373.297 109.473C373.297 109.473 389.849 112.122 389.644 103.486C389.508 97.7921 380.945 99.8765 380.945 99.8765Z" fill="white"/>
<path d="M322.475 103.441C315.977 101.594 311.04 97.6194 310.186 93.5521C310.039 92.693 310.094 91.8112 310.348 90.9773C310.602 90.1434 311.047 89.3805 311.649 88.7497C312.251 88.1189 312.992 87.6376 313.813 87.3444C314.634 87.0513 315.512 86.9543 316.377 87.0613C317.981 87.3545 319.451 88.1512 320.572 89.3358C325.916 81.6095 331.672 86.6099 331.657 90.9363C331.633 96.5653 323.784 102.972 323.449 103.248C323.314 103.356 323.155 103.43 322.985 103.463C322.816 103.497 322.641 103.489 322.475 103.441ZM315.684 89.1846C314.822 89.2119 313.998 89.5468 313.362 90.1285C312.911 90.4678 312.57 90.9322 312.382 91.4637C312.193 91.9953 312.165 92.5706 312.301 93.1179C312.86 95.7812 316.537 99.3625 322.522 101.211C324.805 99.2567 329.484 94.5155 329.497 90.9363C329.508 90.4792 329.426 90.0245 329.255 89.6003C329.084 89.176 328.828 88.7911 328.504 88.4692C328.179 88.1472 327.792 87.895 327.366 87.7279C326.94 87.5609 326.485 87.4825 326.028 87.4976C324.084 87.8799 322.226 90.6318 321.673 91.6578C321.586 91.8198 321.46 91.957 321.305 92.0563C321.151 92.1557 320.973 92.214 320.79 92.2257C320.606 92.2373 320.423 92.202 320.257 92.1231C320.091 92.0441 319.948 91.9241 319.842 91.7744C319.376 91.0697 318.765 90.473 318.049 90.0248C317.333 89.5765 316.529 89.287 315.692 89.1759L315.684 89.1846Z" fill="#000001"/>
<path d="M350.789 95.4663C350.523 95.4663 350.266 95.3678 350.068 95.1898C344.945 90.5955 342.1 84.2689 342.99 79.4434C343.111 78.4512 343.465 77.5017 344.023 76.6723C344.581 75.843 345.328 75.1573 346.201 74.671C347.075 74.1848 348.051 73.9119 349.049 73.8746C350.048 73.8372 351.042 74.0364 351.949 74.456C353.446 75.5019 354.523 77.045 354.989 78.8105C358.799 76.0025 363.196 74.9441 364.991 79.262C365.383 80.1726 365.579 81.1551 365.568 82.1462C365.556 83.1373 365.337 84.115 364.925 85.0162C362.343 90.9411 351.682 95.4663 350.789 95.4663ZM345.113 79.8344C344.521 83.042 346.137 88.5025 351.021 93.1313C356.697 90.7942 365.354 85.7506 362.998 80.0936C362.889 79.7292 362.691 79.3981 362.42 79.1308C362.15 78.8635 361.817 78.6687 361.451 78.5643C359.423 78.1129 356.071 80.6098 355.062 81.5235C354.917 81.6553 354.738 81.7451 354.546 81.7831C354.353 81.8212 354.154 81.8061 353.97 81.7395C353.785 81.6729 353.622 81.5572 353.498 81.405C353.375 81.2528 353.295 81.0698 353.267 80.8755C353.067 79.1042 352.201 77.4754 350.843 76.3201C350.237 76.0826 349.584 75.989 348.935 76.0465C348.286 76.1041 347.659 76.3113 347.104 76.6518C346.549 76.9923 346.08 77.4569 345.735 78.0091C345.389 78.5613 345.176 79.1861 345.113 79.8344Z" fill="#000001"/>
<path d="M373.126 110.541C372.952 110.513 372.788 110.443 372.648 110.338C372.507 110.232 372.395 110.093 372.32 109.934C367.659 99.9983 370.16 90.1184 377.016 91.1574C380.854 91.7233 382.5 94.6998 382.226 98.5511C386.546 97.9852 390.622 99.1235 390.725 103.463C390.903 110.986 380.398 111.66 373.126 110.541ZM374.035 108.489C377.193 108.904 384.315 109.232 387.239 106.679C387.623 106.368 387.939 105.983 388.168 105.545C388.397 105.108 388.534 104.628 388.57 104.136C388.607 103.644 388.542 103.149 388.381 102.683C388.219 102.216 387.964 101.788 387.63 101.424C385.967 100.143 382.425 100.629 381.202 100.927C381.022 100.969 380.835 100.965 380.657 100.914C380.48 100.863 380.318 100.767 380.188 100.636C380.059 100.505 379.964 100.343 379.915 100.165C379.865 99.9872 379.862 99.7996 379.906 99.6203C380.296 97.9964 380.101 96.287 379.355 94.7927C379.02 94.3295 378.582 93.9501 378.076 93.6838C377.57 93.4176 377.01 93.2718 376.438 93.2578C375.867 93.2438 375.3 93.362 374.781 93.6031C374.263 93.8442 373.807 94.2018 373.45 94.648C371.75 96.9268 371.24 102.208 374.035 108.489Z" fill="#000001"/>
<path fill-rule="evenodd" clip-rule="evenodd" d="M314.759 187.149C334.034 188.033 351.366 192.629 365.907 202.537L378.161 213.586L370.601 274.871C370.601 274.871 381.129 326.739 392.467 395.477H288.484C288.484 395.477 288.776 353.435 288.981 334.855L298.701 190.631C303.965 189.094 309.331 187.93 314.759 187.149Z" fill="#81F889"/>
<path fill-rule="evenodd" clip-rule="evenodd" d="M323.195 131.551C322.607 135.081 323.268 136.915 320.59 139.543C317.713 142.366 317.408 147.149 318.162 151.367C318.875 155.077 319.227 158.847 319.212 162.625C319.032 164.491 316.894 173.051 326.798 172.46C326.798 172.46 326.979 183.003 327.014 186.562L314.758 187.145C314.758 187.145 317.397 205.168 329.314 209.225C341.231 213.281 365.907 202.529 365.907 202.529C363.406 199.732 361.413 196.52 360.016 193.038C350.296 194.729 342.347 194.237 344.952 189.226C352.312 164.556 348.335 136.306 348.335 136.306C333.803 136.007 326.037 129.862 328.5 123.633C325.969 125.654 324.13 128.412 323.236 131.525L323.195 131.551Z" fill="white"/>
<path d="M322.099 149.943C321.2 149.313 316.746 146.023 317.302 143.215C317.502 142.193 318.688 141.75 322.084 140.623C323.66 140.189 325.182 139.578 326.62 138.802C327.367 138.154 326.963 136.452 326.762 135.91C326.671 135.644 326.686 135.352 326.806 135.098C326.926 134.843 327.141 134.645 327.404 134.546C327.668 134.447 327.959 134.455 328.217 134.569C328.475 134.682 328.678 134.891 328.784 135.152C328.838 135.292 330.08 138.642 328.043 140.426C326.531 141.757 321.131 143.008 319.403 143.904C320.289 145.664 321.645 147.143 323.322 148.179C323.522 148.353 323.651 148.595 323.684 148.859C323.717 149.123 323.652 149.39 323.5 149.608C323.349 149.827 323.122 149.982 322.864 150.044C322.605 150.105 322.333 150.07 322.099 149.943Z" fill="#000001"/>
<path d="M326.611 139.919C326.484 139.69 325.276 137.452 323.948 138.435C323.732 138.619 323.452 138.71 323.169 138.689C322.886 138.668 322.623 138.537 322.436 138.324C322.249 138.111 322.153 137.832 322.17 137.549C322.186 137.266 322.314 137 322.524 136.81C324.101 135.476 326.667 135.627 328.492 138.856C328.562 138.979 328.607 139.116 328.624 139.256C328.641 139.397 328.631 139.54 328.593 139.677C328.555 139.813 328.49 139.941 328.403 140.053C328.315 140.165 328.207 140.258 328.083 140.328C327.96 140.398 327.824 140.442 327.683 140.46C327.542 140.477 327.399 140.466 327.262 140.428C327.126 140.39 326.998 140.326 326.886 140.238C326.774 140.151 326.681 140.042 326.611 139.919Z" fill="#000001"/>
<path d="M340.997 146.775C340.776 146.774 340.561 146.706 340.381 146.58C340.2 146.454 340.062 146.275 339.986 146.069C339.816 145.474 339.527 144.92 339.137 144.441C338.746 143.962 338.262 143.568 337.713 143.282C336.782 142.932 335.755 142.932 334.823 143.282C334.561 143.39 334.267 143.391 334.004 143.283C333.741 143.176 333.531 142.97 333.419 142.709C333.308 142.448 333.303 142.154 333.406 141.89C333.51 141.626 333.713 141.413 333.972 141.297C334.76 140.966 335.609 140.81 336.462 140.838C337.316 140.867 338.153 141.079 338.916 141.461C339.68 141.844 340.351 142.387 340.885 143.053C341.419 143.719 341.803 144.493 342.01 145.321C342.07 145.484 342.09 145.66 342.068 145.832C342.045 146.005 341.982 146.17 341.882 146.312C341.783 146.455 341.651 146.572 341.496 146.652C341.342 146.733 341.171 146.775 340.997 146.775Z" fill="#000001"/>
<path d="M327.55 133.567C327.327 133.567 327.108 133.497 326.926 133.368C326.743 133.239 326.605 133.056 326.531 132.845C326.293 132.169 325.987 131.746 325.691 131.681C325.224 131.575 324.412 132.139 324.017 132.545C323.82 132.753 323.548 132.874 323.262 132.882C322.975 132.889 322.697 132.783 322.49 132.586C322.282 132.389 322.16 132.117 322.153 131.831C322.145 131.544 322.251 131.267 322.448 131.059C322.907 130.542 323.478 130.139 324.118 129.879C324.758 129.619 325.449 129.51 326.138 129.56C326.735 129.73 327.275 130.057 327.702 130.508C328.13 130.958 328.429 131.514 328.568 132.119C328.627 132.283 328.646 132.458 328.623 132.63C328.6 132.802 328.535 132.966 328.436 133.108C328.336 133.25 328.203 133.365 328.049 133.445C327.895 133.525 327.724 133.567 327.55 133.567Z" fill="#000001"/>
<path d="M344.411 140.327C342.854 136.666 340.322 134.927 336.635 136.469C336.385 136.602 336.092 136.63 335.821 136.549C335.55 136.468 335.321 136.283 335.185 136.035C335.048 135.787 335.014 135.495 335.091 135.222C335.168 134.95 335.348 134.718 335.594 134.577C337.37 133.673 339.43 133.499 341.333 134.093C342.514 134.577 343.577 135.308 344.451 136.237C345.326 137.166 345.99 138.272 346.4 139.48C346.513 139.744 346.515 140.042 346.408 140.308C346.301 140.574 346.093 140.786 345.829 140.898C345.565 141.011 345.268 141.014 345.002 140.906C344.736 140.799 344.523 140.591 344.411 140.327Z" fill="#000001"/>
<path d="M337.526 155.776C337.247 155.856 337.01 156.041 336.866 156.293C336.722 156.545 336.682 156.843 336.754 157.124C336.461 157.482 335.242 157.556 333.644 157.435C330.484 156.547 327.218 153.664 323.861 153.979C323.386 153.172 322.639 152.562 321.754 152.258C320.869 151.954 319.904 151.976 319.034 152.32C318.847 152.385 318.681 152.5 318.555 152.652C318.429 152.804 318.347 152.988 318.319 153.184C318.157 154.92 318.584 156.66 319.532 158.123C320.48 159.587 321.893 160.688 323.544 161.249C328.08 163.116 337.003 159.794 338.169 158.768C339.429 157.657 338.992 155.424 337.526 155.776ZM324.367 159.243C323.383 158.916 322.506 158.331 321.826 157.548C321.146 156.766 320.689 155.815 320.503 154.795C323.361 157.243 326.887 158.777 330.627 159.2C328.584 159.789 326.419 159.807 324.367 159.251V159.243Z" fill="#000001"/>
<path d="M346.802 180.646C344.166 179.917 341.864 178.298 340.286 176.063C338.708 173.829 337.953 171.118 338.147 168.39C338.305 160.182 346.355 157.305 350.585 156.922C350.871 156.897 351.156 156.986 351.377 157.17C351.597 157.354 351.736 157.619 351.762 157.905C351.787 158.192 351.698 158.477 351.514 158.697C351.33 158.918 351.065 159.057 350.779 159.082C350.358 159.121 340.465 160.136 340.307 168.442C340.099 170.676 340.683 172.912 341.956 174.76C343.23 176.608 345.113 177.948 347.275 178.548C347.53 178.632 347.745 178.808 347.877 179.042C348.01 179.275 348.05 179.55 347.991 179.812C347.932 180.074 347.778 180.304 347.558 180.458C347.338 180.613 347.069 180.679 346.802 180.646Z" fill="#000001"/>
<path d="M381.009 140.921C379.039 125.619 369.623 109.385 349.103 109.385C334.748 109.385 321.758 112.193 316.628 125.202C314.334 131.034 316.997 133.661 321.93 132.929C321.663 135.557 321.796 136.851 319.839 138.778C316.126 142.426 316.533 148.355 317.107 151.563C317.502 153.784 317.829 156.315 318.012 158.456C316.822 160.259 310.526 169.599 305.83 172.928C305.634 173.067 305.49 173.267 305.421 173.497C305.351 173.727 305.361 173.974 305.447 174.198C307.782 179.412 311.946 183.591 317.152 185.944C310.825 186.538 304.558 187.653 298.414 189.277C298.16 189.343 297.939 189.499 297.791 189.716C297.644 189.934 297.581 190.198 297.614 190.458C297.647 190.719 297.774 190.958 297.971 191.132C298.168 191.306 298.422 191.402 298.684 191.402C299.365 191.402 305.095 189.614 313.882 188.359C314.666 192.407 318.153 206.561 328.974 210.246C338.694 213.549 357.097 207.563 366.342 203.52C366.498 203.452 366.636 203.348 366.745 203.216C366.853 203.085 366.929 202.929 366.966 202.763C367.003 202.596 367 202.424 366.957 202.259C366.914 202.094 366.833 201.941 366.72 201.813C364.615 199.416 362.844 196.744 361.456 193.871C372.759 191.711 386.709 186.743 388.651 181.967C392.081 173.552 382.953 156.069 381.009 140.921ZM321.354 140.316C322.205 139.508 322.879 138.53 323.332 137.447C323.785 136.364 324.007 135.198 323.984 134.024C323.981 131.081 325.07 128.241 327.039 126.053C327.06 127.961 327.789 129.793 329.084 131.194C332.292 134.866 338.763 137.059 347.373 137.37C348.511 147.79 348.617 158.296 347.691 168.737C343.906 170.349 333.476 171.087 326.751 171.385C320.85 171.645 319.39 169.02 320.196 163.393C320.341 159.299 320.013 155.201 319.22 151.181C318.824 148.937 318.226 143.381 321.345 140.316H321.354ZM364.143 202.103C358.884 204.23 339.502 211.559 329.67 208.207C320.235 204.995 316.876 192.143 316.062 188.166L326.112 187.689C326.916 192.774 328.056 197.778 328.056 197.83C328.122 198.107 328.294 198.347 328.536 198.497C328.778 198.648 329.069 198.697 329.347 198.634C329.624 198.57 329.866 198.4 330.018 198.16C330.171 197.92 330.223 197.629 330.162 197.351C330.149 197.295 328.896 191.771 328.106 186.479C328.076 183.557 327.955 176.252 327.907 173.519C331.516 173.386 342.044 172.854 347.464 171.109C346.831 177.078 345.675 182.979 344.008 188.745C343.608 189.332 343.387 190.022 343.371 190.731C343.356 191.441 343.546 192.14 343.919 192.743C346.215 196.107 355.263 194.929 359.294 194.273C360.524 197.101 362.154 199.738 364.135 202.103H364.143Z" fill="#000001"/>
<path fill-rule="evenodd" clip-rule="evenodd" d="M156.469 188.741L161.411 315L230.721 347.205L329.098 326.342L325.929 198.509L243.584 174.701L156.469 188.741Z" fill="white"/>
<path d="M242.783 310.291C242.53 310.292 242.284 310.203 242.089 310.041C241.895 309.879 241.763 309.653 241.718 309.404L236.459 280.257C236.41 279.987 236.466 279.709 236.614 279.478C236.763 279.248 236.994 279.083 237.26 279.017C276.062 269.262 273.332 269.815 273.922 270.182C274.511 270.549 273.909 268.405 280.129 299.511C280.183 299.781 280.131 300.061 279.985 300.294C279.839 300.527 279.61 300.696 279.343 300.766C240.567 310.864 243.006 310.291 242.783 310.291ZM238.763 280.868L243.638 307.868L277.812 298.93L272.507 272.416L238.763 280.868Z" fill="#000001"/>
<path d="M326.999 198.481C326.995 198.253 326.918 198.032 326.779 197.851C326.64 197.67 326.447 197.538 326.228 197.475C238.43 171.209 243.776 173.574 243.418 173.637L156.303 187.677C156.042 187.719 155.805 187.855 155.638 188.06C155.471 188.264 155.385 188.523 155.395 188.787L160.435 308.732C160.446 309.018 160.572 309.288 160.782 309.483C160.993 309.677 161.273 309.779 161.559 309.768C161.845 309.756 162.115 309.631 162.31 309.42C162.504 309.209 162.606 308.93 162.595 308.643L157.627 190.394L223.438 217.964C230.09 356.595 229.453 347.597 230.062 348.061C230.671 348.526 223.984 349.692 329.321 327.401C329.568 327.35 329.79 327.215 329.948 327.017C330.106 326.82 330.19 326.573 330.185 326.321L326.999 198.481ZM160.372 189.193L243.517 175.801L321.229 198.265L224.604 216.111L160.372 189.193ZM231.738 345.875L225.606 218.111L324.871 199.788L327.995 325.461L231.738 345.875Z" fill="#000001"/>
<path fill-rule="evenodd" clip-rule="evenodd" d="M195.371 182.471L268.338 209.128L272.507 263.588L286.314 259.633L283.141 206.406L210.091 180.1L195.371 182.471Z" fill="white"/>
<path d="M272.504 264.676C272.231 264.677 271.969 264.574 271.768 264.389C271.568 264.204 271.445 263.95 271.424 263.678L267.32 209.913L195.001 183.486C194.777 183.404 194.586 183.249 194.459 183.047C194.332 182.845 194.275 182.607 194.298 182.369C194.321 182.131 194.421 181.908 194.585 181.734C194.748 181.559 194.964 181.444 195.2 181.406C211.232 178.824 210.085 178.948 210.456 179.084L283.505 205.388C283.704 205.46 283.878 205.589 284.005 205.758C284.132 205.928 284.206 206.131 284.218 206.343L287.391 259.576C287.405 259.821 287.336 260.063 287.194 260.264C287.053 260.464 286.847 260.61 286.611 260.678C271.904 264.89 272.738 264.676 272.504 264.676ZM199.632 182.877L268.709 208.123C268.904 208.194 269.074 208.32 269.2 208.485C269.325 208.651 269.4 208.849 269.415 209.056L273.481 262.192L285.186 258.84L282.103 207.183L209.987 181.211L199.632 182.877Z" fill="#000001"/>
<path d="M244.497 287.536C244.23 287.537 243.973 287.441 243.773 287.264C243.574 287.087 243.447 286.842 243.417 286.577C243.387 286.313 243.456 286.046 243.611 285.829C243.765 285.612 243.995 285.46 244.255 285.402L262.842 281.127C263.121 281.063 263.414 281.112 263.657 281.264C263.9 281.417 264.073 281.659 264.137 281.938C264.201 282.217 264.152 282.511 263.999 282.754C263.847 282.996 263.605 283.169 263.326 283.233C243.49 287.769 244.713 287.536 244.497 287.536Z" fill="#000001"/>
<path d="M246.368 293.678C246.103 293.677 245.848 293.579 245.651 293.402C245.454 293.225 245.329 292.982 245.3 292.719C245.27 292.456 245.338 292.191 245.491 291.975C245.644 291.759 245.871 291.606 246.128 291.546L266.026 287.01C266.167 286.972 266.313 286.963 266.457 286.983C266.601 287.003 266.74 287.052 266.865 287.127C266.989 287.201 267.098 287.301 267.183 287.418C267.269 287.536 267.329 287.67 267.362 287.812C267.394 287.953 267.398 288.1 267.372 288.243C267.346 288.387 267.292 288.523 267.212 288.645C267.133 288.766 267.029 288.871 266.908 288.951C266.787 289.032 266.651 289.087 266.508 289.114C245.381 293.933 246.584 293.678 246.368 293.678Z" fill="#000001"/>
<path d="M247.911 301.266C247.647 301.266 247.393 301.17 247.196 300.995C246.999 300.82 246.872 300.58 246.84 300.318C246.808 300.057 246.873 299.792 247.022 299.575C247.171 299.358 247.394 299.203 247.649 299.139L266.009 294.529C266.288 294.46 266.582 294.504 266.828 294.651C267.074 294.798 267.251 295.038 267.321 295.316C267.39 295.594 267.346 295.888 267.199 296.134C267.052 296.38 266.812 296.557 266.534 296.627C246.608 301.632 248.129 301.266 247.911 301.266Z" fill="#000001"/>
<path d="M193.931 247.144L174.135 232.106C173.976 231.987 173.788 231.914 173.591 231.895C173.394 231.876 173.195 231.911 173.017 231.997C172.839 232.083 172.687 232.216 172.58 232.383C172.472 232.549 172.412 232.742 172.407 232.94L171.975 250.302C171.953 251.077 170.932 249.969 191.508 266.759C191.662 266.884 191.847 266.965 192.044 266.992C192.241 267.019 192.441 266.991 192.623 266.911C192.805 266.831 192.962 266.703 193.076 266.54C193.189 266.377 193.256 266.186 193.268 265.988L194.368 248.06C194.375 247.883 194.34 247.707 194.264 247.547C194.188 247.388 194.073 247.249 193.931 247.144Z" fill="#000001"/>
<path fill-rule="evenodd" clip-rule="evenodd" d="M159.807 261.832C159.807 261.832 156.567 259.192 155.163 260.594C153.759 261.996 155.75 265.916 155.75 265.916C155.271 266.177 154.854 266.538 154.527 266.975C154.201 267.412 153.973 267.914 153.858 268.447C153.743 268.98 153.745 269.532 153.863 270.064C153.981 270.597 154.213 271.098 154.543 271.532C153.7 272.166 153.139 273.104 152.977 274.146C152.816 275.188 153.068 276.252 153.679 277.111C153.679 277.111 156.677 288.054 160.426 288.054L160.057 280.926C160.057 280.926 167.118 282.175 164.809 277.518C164.809 277.518 170.509 278.083 167.781 273.735C167.781 273.735 170.486 272.439 167.671 268.722C165.416 266.038 162.764 263.715 159.807 261.832Z" fill="white"/>
<path d="M160.439 260.967C155.739 257.204 151.849 259.475 154.391 265.577C153.566 266.254 152.997 267.194 152.781 268.24C152.564 269.286 152.712 270.375 153.201 271.324C152.383 272.136 151.881 273.212 151.786 274.361C151.691 275.509 152.009 276.653 152.682 277.588C153.33 279.923 156.192 289.131 160.417 289.131C160.564 289.131 160.709 289.101 160.843 289.043C160.978 288.986 161.1 288.902 161.202 288.797C161.666 288.304 161.51 288.261 161.202 282.142C164.156 282.323 166.766 281.338 166.301 278.58C169.068 278.288 170.323 276.515 169.155 274.005C172.675 270.188 164.794 263.712 160.439 260.967ZM155.927 261.373C156.411 260.885 158.409 262.101 159.128 262.684C162.009 264.517 164.597 266.775 166.805 269.38C167.476 270.27 168.317 271.698 167.58 272.538C163.576 270.695 159.881 268.243 156.629 265.268C155.907 263.756 155.462 261.831 155.938 261.365L155.927 261.373ZM155.901 280.381C156.875 281.001 157.924 281.493 159.024 281.843L159.26 286.379C157.765 284.614 156.625 282.578 155.901 280.381ZM164.109 279.468C163.778 279.9 162.469 280.059 161.197 279.973C161.095 279.949 160.991 279.94 160.886 279.947C160.581 279.899 160.274 279.867 159.966 279.852C158.031 279.212 156.248 278.183 154.726 276.828C154.268 276.311 154.004 275.651 153.979 274.961C153.955 274.271 154.171 273.594 154.592 273.046C157.284 275.556 160.518 277.411 164.044 278.467C164.213 278.93 164.238 279.288 164.107 279.465L164.109 279.468ZM167.39 275.951C167.152 276.342 165.91 276.536 164.94 276.443C160.655 275.709 156.121 271.538 155.404 270.858C155.005 270.336 154.813 269.685 154.868 269.03C154.922 268.375 155.218 267.764 155.698 267.315C159.06 270.357 162.896 272.829 167.055 274.633C167.448 275.351 167.489 275.787 167.386 275.949L167.39 275.951Z" fill="#000001"/>
<path fill-rule="evenodd" clip-rule="evenodd" d="M378.162 213.586C378.162 213.586 387.36 222.545 386.215 233.168C385.07 243.791 362.548 301.694 344.782 310.347C327.016 319 294.691 321.337 282.574 330.535C270.456 339.732 274.798 341.952 262.637 345.672C259.937 346.284 257.161 346.489 254.401 346.279C254.401 346.279 248.322 348.471 244.337 346.117C246.714 345.205 248.883 343.826 250.716 342.06C252.355 339.9 258.678 329.115 261.133 326.364C259.88 326.204 258.609 326.256 257.373 326.519C255.686 326.964 246.491 330.895 241.728 328.271C236.965 325.647 240.924 323.927 244.501 323.383C248.212 322.817 258.397 315.49 262.712 314.049C267.216 312.537 276.562 317.607 286.829 310.377C300.402 301.136 314.519 292.719 329.102 285.17C329.102 285.17 355.858 209.318 378.162 213.586Z" fill="white"/>
<path d="M288.475 396.557C288.187 396.557 287.913 396.786 287.71 396.583C287.609 396.482 287.529 396.361 287.475 396.229C287.421 396.097 287.393 395.955 287.395 395.812C287.395 395.812 287.686 353.424 287.891 334.842C287.895 334.555 288.012 334.282 288.217 334.082C288.422 333.881 288.698 333.771 288.984 333.774C289.271 333.778 289.544 333.895 289.744 334.1C289.944 334.305 290.055 334.581 290.051 334.867C289.866 351.679 289.619 387.643 289.561 394.399H391.185C380.056 327.078 369.639 275.599 369.533 275.087C369.505 274.948 369.504 274.805 369.531 274.666C369.558 274.527 369.612 274.394 369.69 274.276C369.848 274.037 370.095 273.87 370.375 273.813C370.656 273.756 370.948 273.812 371.187 273.97C371.426 274.128 371.592 274.375 371.65 274.655C371.756 275.169 382.311 326.986 393.522 394.967C393.546 395.12 393.537 395.276 393.496 395.425C393.455 395.574 393.382 395.713 393.282 395.831C393.079 396.073 392.779 396.555 392.463 396.557H288.475Z" fill="#000001"/>
<path d="M378.951 212.849C378.606 212.49 375.13 209.445 366.639 201.736C366.535 201.637 366.411 201.56 366.277 201.509C366.142 201.459 365.998 201.436 365.855 201.441C365.711 201.447 365.57 201.481 365.439 201.542C365.309 201.603 365.192 201.69 365.096 201.797C364.999 201.903 364.925 202.028 364.878 202.164C364.83 202.3 364.81 202.444 364.819 202.588C364.828 202.732 364.866 202.872 364.93 203.001C364.994 203.13 365.083 203.245 365.192 203.339L375.234 212.393C353.751 214.581 330.563 277.882 328.239 284.375C313.755 291.927 299.722 300.313 286.21 309.49C279.645 314.118 273.569 313.468 268.683 312.946C263.173 312.362 263.247 311.987 253.872 317.501C250.903 319.487 247.702 321.102 244.34 322.309C237.35 323.374 236.964 326.871 241.208 329.221C245.671 331.675 253.239 329.068 256.473 327.955C257.271 327.617 258.121 327.419 258.987 327.37C256.304 331.098 251.103 339.771 249.857 341.41C248.156 343.033 246.143 344.294 243.941 345.117C243.753 345.192 243.59 345.318 243.471 345.48C243.352 345.643 243.28 345.836 243.265 346.037C243.25 346.239 243.291 346.44 243.385 346.619C243.478 346.798 243.62 346.947 243.794 347.05C245.476 347.814 247.294 348.236 249.141 348.291C250.988 348.346 252.827 348.034 254.553 347.372C257.371 347.587 260.206 347.363 262.955 346.706C275.453 342.888 271.308 340.442 283.229 331.398C295.053 322.428 327.446 319.992 345.26 311.31C363.488 302.435 386.125 244.134 387.295 233.276C388.434 222.627 379.895 213.789 378.951 212.849ZM385.138 233.052C384.023 243.398 361.537 300.984 344.314 309.377C336.322 313.265 325.206 315.896 314.456 318.449C292.208 323.715 283.389 325.849 272.893 338.211C270.517 341.004 269.221 342.544 262.255 344.672C261.325 344.966 260.36 345.137 259.385 345.181C260.065 344.667 260.658 344.047 261.143 343.345C261.271 343.14 261.326 342.897 261.3 342.656C261.273 342.414 261.166 342.189 260.996 342.016C260.826 341.844 260.603 341.733 260.362 341.703C260.121 341.672 259.877 341.724 259.67 341.849L253.95 345.305C251.772 346.033 249.461 346.271 247.181 346.002C248.852 345.216 250.347 344.102 251.578 342.726C253.55 340.123 259.449 329.889 261.946 327.096C262.076 326.95 262.165 326.772 262.202 326.581C262.239 326.389 262.223 326.191 262.157 326.008C262.09 325.824 261.975 325.662 261.824 325.539C261.673 325.416 261.491 325.336 261.298 325.307C259.437 325.01 257.53 325.222 255.779 325.921C252.816 326.94 245.88 329.325 242.262 327.338C240.75 326.5 240.625 325.998 240.625 325.998C240.709 325.674 242.02 324.867 244.677 324.461C248.33 323.256 251.797 321.546 254.976 319.38C263.489 314.373 263.184 314.55 268.465 315.11C273.433 315.639 280.233 316.363 287.473 311.269C297.928 303.904 321.91 289.557 329.567 286.164C332.986 284.585 336.63 283.549 340.367 283.09C340.654 283.09 340.928 282.976 341.131 282.774C341.333 282.571 341.447 282.297 341.447 282.01C341.447 281.724 341.333 281.449 341.131 281.246C340.928 281.044 340.654 280.93 340.367 280.93C337.139 281.194 333.974 281.974 330.993 283.241C335.648 270.739 358.699 211.691 377.668 214.601C379.001 216.039 386.114 223.999 385.138 233.052Z" fill="#000001"/>
<path fill-rule="evenodd" clip-rule="evenodd" d="M102.566 303.252C105.726 308.925 109.209 314.412 112.999 319.685C126.335 331.304 172.101 337.916 184.219 338.045C196.336 338.175 200.397 340.834 204.762 344.488C209.128 348.143 217.863 348.437 221.045 346.648C224.226 344.86 235.035 348.97 237.193 347.454C239.351 345.938 235.264 343.67 231.292 341.253C227.319 338.836 217.314 325.647 217.314 325.647C219.014 325.232 233.164 319.167 234.285 316.681C235.406 314.194 232.968 312.808 228.574 314.484C223.153 316.113 217.509 316.879 211.849 316.752C205.732 316.886 201.386 319.113 194.889 321.227C188.392 323.342 170.028 317.501 161.409 309.177C152.791 300.852 136.094 290.784 136.094 290.784C136.094 290.784 133.884 286.389 130.778 279.587L102.566 303.252Z" fill="white"/>
<path d="M238.869 346.421C238.806 344.611 236.467 343.108 232.652 340.805L231.855 340.322C229.028 338.594 222.338 330.366 219.068 326.145C223.172 324.543 234.056 319.819 235.268 317.112C236.592 314.155 234.188 311.17 228.187 313.468C222.878 315.036 217.358 315.777 211.823 315.663C205.516 315.801 201.056 318.076 194.543 320.199C188.441 322.19 170.334 316.311 162.143 308.399C154.035 300.575 139.2 291.419 136.912 290.024C135.322 286.708 120.511 255.626 114.016 235.138C107.026 213.069 93.1052 204.36 89.5412 199.52C86.6879 195.632 86.0852 192.882 83.2772 188.886C85.6316 180.795 90.5089 166.545 91.7358 162.981C95.3754 163.4 103.681 164.042 105.501 161.45C107.294 158.899 104.983 154.35 103.853 152.436L107.396 148.399C107.49 148.291 107.562 148.166 107.608 148.03C107.653 147.894 107.671 147.75 107.66 147.607C107.65 147.464 107.611 147.325 107.546 147.197C107.481 147.069 107.391 146.956 107.281 146.863L105.728 145.544C106.972 145.014 108.088 144.225 109.001 143.228C109.144 143.065 109.235 142.864 109.262 142.649C109.289 142.434 109.25 142.216 109.152 142.023L107.534 138.869C110.068 138.053 114.258 136.264 113.647 133.502C112.975 130.478 107.875 127.279 104.832 124.862C103.279 123.62 104.415 120.904 104.959 119.822C116.429 117.775 129.799 113.617 130.117 105.35C130.129 105.194 130.107 105.038 130.052 104.891C129.998 104.745 129.912 104.612 129.801 104.501C129.298 104.024 131.372 104.013 102.534 106.346C101.022 101.475 92.5458 78.5446 67.7252 84.314C52.7953 87.77 41.1313 96.3171 36.5262 107.158C35.0071 110.447 34.3051 114.054 34.48 117.672C34.6548 121.29 35.7014 124.813 37.5306 127.94C42.9543 139.226 48.8533 145.446 50.3048 150.118C51.2419 154.516 50.6259 159.102 48.5617 163.096C46.2095 167.323 41.6173 174.999 37.6947 178.239C31.8627 183.074 21.1081 203.192 20.7431 211.657C20.3845 219.947 24.7801 252.669 31.7375 275.645C37.2584 293.884 35.8242 333.494 35.0617 348.132C34.5397 363.105 35.3268 378.095 37.4139 392.93C37.4673 393.163 37.6062 393.367 37.803 393.503C37.9998 393.638 38.2403 393.694 38.4767 393.661H124.661C124.959 393.624 125.234 393.479 125.433 393.253C125.632 393.027 125.741 392.737 125.741 392.436L126.199 364.732C126.367 364.751 128.903 365.054 129.071 365.054C129.218 365.054 129.363 365.024 129.498 364.966C129.632 364.909 129.754 364.824 129.855 364.718C129.956 364.612 130.034 364.487 130.085 364.349C130.136 364.212 130.159 364.066 130.151 363.919C130.136 363.669 128.907 339.663 128.816 328.804C146.789 334.51 165.398 337.973 184.221 339.116C195.941 339.239 199.846 341.76 204.082 345.309C208.868 349.309 218.098 349.543 221.591 347.568C224.373 345.989 235.097 350.227 237.827 348.318C238.151 348.12 238.417 347.84 238.6 347.508C238.782 347.175 238.875 346.801 238.869 346.421ZM102.899 108.482L127.793 106.467C125.427 115.213 102.063 118.407 93.0815 119.22C98.799 115.574 102.711 111.867 102.899 108.482ZM79.9508 126.266C78.5188 129.953 78.0303 133.94 78.5295 137.865C78.7736 139.504 78.5511 140.632 77.8686 141.217C77.2972 141.536 76.6662 141.733 76.015 141.797C75.3638 141.86 74.7065 141.789 74.0843 141.586C72.9567 140.137 68.6173 134.674 66.1052 133.346C65.6268 133.095 65.1247 132.891 64.6062 132.739C74.8813 128.741 78.6591 126.762 79.9508 126.266ZM57.7719 136.729C58.8325 134.113 62.7399 133.996 65.0879 135.253C67.924 137.56 70.4466 140.227 72.5917 143.187C72.7263 143.363 72.9118 143.494 73.1231 143.561C74.1333 143.915 75.2105 144.036 76.2741 143.915C77.3378 143.795 78.3605 143.436 79.2661 142.865C79.9454 142.179 80.4323 141.326 80.678 140.392C80.9237 139.459 80.9194 138.477 80.6658 137.545C80.148 133.164 80.9442 128.728 82.9532 124.801C94.1593 119.304 82.8949 123.289 102.441 120.228C101.918 121.254 101.739 122.421 101.931 123.556C102.122 124.691 102.675 125.734 103.506 126.531C105.897 128.441 111.096 131.864 111.558 133.959C111.731 134.739 108.841 136.318 105.726 137.145C105.57 137.187 105.425 137.262 105.302 137.367C105.179 137.472 105.081 137.603 105.015 137.75C104.95 137.898 104.918 138.058 104.922 138.22C104.927 138.381 104.968 138.54 105.041 138.683L106.893 142.293C106.437 142.757 105.894 143.125 105.294 143.375C104.694 143.626 104.05 143.753 103.4 143.751C103.167 143.714 102.929 143.755 102.721 143.867C102.513 143.978 102.348 144.155 102.25 144.369C102.152 144.583 102.127 144.824 102.179 145.054C102.23 145.284 102.356 145.491 102.536 145.643L105.063 147.788L101.721 151.598C101.567 151.774 101.474 151.996 101.457 152.23C101.44 152.464 101.499 152.697 101.626 152.894C103.067 155.132 104.678 158.875 103.75 160.195C102.92 161.378 96.5677 161.424 91.1569 160.718C90.9106 160.685 90.6607 160.739 90.4494 160.87C90.2382 161 90.0784 161.2 89.997 161.435C89.9387 161.603 84.5451 177.183 81.6745 186.739C76.9938 181.026 58.9124 165.787 52.8903 160.733C56.7729 157.667 59.6881 153.545 61.2863 148.863C63.4708 149.732 65.8383 150.04 68.1723 149.758C68.4436 149.695 68.6801 149.53 68.8324 149.296C68.9847 149.063 69.0411 148.78 68.9899 148.507C68.9386 148.233 68.7836 147.99 68.5572 147.828C68.3308 147.665 68.0505 147.597 67.7749 147.637C65.516 147.817 63.248 147.427 61.1783 146.505C57.6056 143.606 56.396 140.135 57.7719 136.729ZM46.5075 139.241C48.4256 138.61 51.6915 137.513 55.7156 136.063C54.128 140.167 55.4499 144.401 59.3617 147.807C58.024 151.812 55.6796 155.406 52.5534 158.244C53.6809 148.807 51.9097 147.725 46.5075 139.241ZM123.587 391.507H39.386C37.3859 379.411 36.9603 358.005 36.902 354.325C38.1764 353.437 42.8982 350.694 52.7823 350.456C62.3641 350.204 91.8114 360.295 124.036 364.468L123.587 391.507ZM230.254 345.97C227.494 345.464 222.748 344.43 220.515 345.693C217.672 347.3 209.462 347.013 205.455 343.657C200.872 339.82 196.669 337.094 184.231 336.961C171.703 336.829 126.713 330.2 113.843 319.013C110.299 314.128 107.044 309.04 104.095 303.774L130.341 281.055C135.4 292.093 135.201 291.51 135.525 291.704C135.692 291.806 152.209 301.811 160.648 309.952C169.701 318.689 188.389 324.48 195.221 322.253C201.807 320.113 205.937 317.959 211.871 317.829C217.653 317.944 223.418 317.155 228.956 315.49C231.475 314.531 232.961 314.786 233.345 315.19C233.594 315.453 233.421 315.959 233.298 316.235C232.481 318.048 219.258 324.059 217.057 324.592C216.883 324.635 216.722 324.72 216.589 324.84C216.456 324.96 216.355 325.111 216.295 325.28C216.235 325.449 216.218 325.63 216.245 325.807C216.273 325.984 216.344 326.152 216.452 326.294C216.865 326.841 226.626 339.686 230.73 342.173C238.864 347.108 238.246 347.434 230.254 345.97Z" fill="#000001"/>
<path d="M100.34 304.305C98.8281 305.573 94.3482 309.254 93.6181 309.861C91.7433 304.606 85.3324 286.928 81.5221 279.908C72.4501 263.205 59.5744 232.088 68.9445 221.413C78.105 210.976 89.0908 210.097 97.6271 214.046C98.9037 214.635 99.8778 212.739 98.6185 212.162C89.3953 207.937 77.2043 208.732 67.3201 219.988C54.8181 234.231 77.0401 276.204 79.6321 280.943C83.9521 288.9 92.0305 311.809 92.1126 312.047C92.1705 312.211 92.2673 312.359 92.3948 312.478C92.5223 312.597 92.6767 312.684 92.8448 312.73C93.0129 312.776 93.1897 312.781 93.3601 312.744C93.5305 312.707 93.6895 312.63 93.8233 312.518C94.8925 311.621 100.303 307.183 101.854 305.874C102.906 304.971 101.444 303.379 100.34 304.305Z" fill="white"/>
<path d="M82.3034 195.696C82.4678 195.821 82.6636 195.897 82.8689 195.916C83.0741 195.935 83.2806 195.896 83.465 195.804C83.6494 195.712 83.8044 195.57 83.9125 195.395C84.0206 195.219 84.0775 195.017 84.0768 194.811C84.0702 194.653 84.0279 194.499 83.953 194.36C83.8782 194.221 83.7728 194.101 83.6448 194.009C69.2549 183.494 50.1648 178.321 43.2096 176.697C41.9136 176.392 41.4816 178.501 43.1621 178.902C50.2858 180.596 68.5356 185.657 82.3034 195.696Z" fill="white"/>
<path d="M119.457 321.664C119.17 321.638 118.906 321.5 118.721 321.279C118.537 321.059 118.448 320.774 118.473 320.487C118.499 320.201 118.637 319.936 118.857 319.752C119.078 319.567 119.363 319.478 119.649 319.504C119.844 319.523 124.349 319.86 125.079 316.173C125.137 315.892 125.303 315.645 125.542 315.487C125.782 315.329 126.074 315.272 126.355 315.329C126.636 315.387 126.883 315.553 127.041 315.792C127.199 316.032 127.256 316.324 127.198 316.605C126.781 318.267 125.752 319.711 124.317 320.648C122.882 321.586 121.147 321.948 119.457 321.664Z" fill="#000001"/>
<path d="M146.469 42.652C146.469 47.3207 147.388 51.9437 149.175 56.257C150.962 60.5703 153.58 64.4894 156.882 67.7907C160.183 71.0919 164.102 73.7106 168.415 75.4973C172.729 77.2839 177.352 78.2035 182.02 78.2035C186.689 78.2035 191.312 77.2839 195.625 75.4973C199.938 73.7106 203.858 71.0919 207.159 67.7907C210.46 64.4894 213.079 60.5703 214.865 56.257C216.652 51.9437 217.572 47.3207 217.572 42.652C217.572 37.9833 216.652 33.3604 214.865 29.0471C213.079 24.7338 210.46 20.8146 207.159 17.5134C203.858 14.2121 199.938 11.5934 195.625 9.80678C191.312 8.02015 186.689 7.10059 182.02 7.10059C177.352 7.10059 172.729 8.02015 168.415 9.80678C164.102 11.5934 160.183 14.2121 156.882 17.5134C153.58 20.8146 150.962 24.7338 149.175 29.0471C147.388 33.3604 146.469 37.9833 146.469 42.652Z" fill="#000001"/>
<path d="M201.529 22.7584C201.362 22.5767 201.138 22.4576 200.894 22.4211C200.65 22.3845 200.4 22.4327 200.188 22.5575C199.611 22.8966 186.251 30.8843 176.533 49.8469C172.832 45.7479 168.546 42.2178 163.813 39.3709C163.604 39.2578 163.364 39.2167 163.13 39.2539C162.895 39.2911 162.679 39.4046 162.516 39.5767C162.352 39.7489 162.25 39.9701 162.225 40.2062C162.2 40.4424 162.253 40.6802 162.377 40.8829C166.823 48.3643 171.696 55.5834 176.972 62.5045C177.084 62.6404 177.227 62.747 177.389 62.815C177.551 62.8829 177.728 62.9102 177.903 62.8944C178.078 62.8787 178.247 62.8204 178.394 62.7246C178.542 62.6287 178.664 62.4983 178.75 62.3447C200.73 22.7195 202.888 24.2315 201.529 22.7584Z" fill="white"/>
<path d="M194.428 171.846C194.204 171.845 193.986 171.777 193.802 171.652C192.354 170.593 190.972 169.513 189.654 168.433C189.549 168.337 189.464 168.221 189.404 168.091C189.344 167.962 189.31 167.822 189.304 167.68C189.298 167.538 189.32 167.395 189.369 167.261C189.418 167.128 189.493 167.005 189.59 166.9C189.686 166.795 189.802 166.71 189.931 166.65C190.061 166.59 190.2 166.556 190.343 166.55C190.485 166.544 190.627 166.566 190.761 166.615C190.895 166.664 191.018 166.738 191.123 166.835C192.398 167.893 193.737 168.928 195.076 169.902C195.257 170.038 195.391 170.228 195.459 170.444C195.526 170.66 195.524 170.893 195.452 171.108C195.381 171.323 195.243 171.51 195.059 171.642C194.876 171.775 194.655 171.846 194.428 171.846ZM185.594 164.394C185.451 164.398 185.31 164.371 185.179 164.315C185.049 164.258 184.932 164.174 184.838 164.068C183.606 162.882 182.397 161.608 181.209 160.269C181.034 160.052 180.95 159.776 180.974 159.499C180.998 159.222 181.127 158.964 181.336 158.78C181.545 158.596 181.817 158.5 182.095 158.512C182.373 158.524 182.636 158.642 182.829 158.843C183.93 160.096 185.097 161.327 186.35 162.534C186.5 162.686 186.603 162.879 186.645 163.089C186.688 163.298 186.667 163.516 186.586 163.714C186.506 163.912 186.369 164.083 186.192 164.204C186.016 164.324 185.807 164.391 185.594 164.394ZM177.126 155.169C176.111 153.789 175.139 152.32 174.21 150.808C174.087 150.566 174.059 150.286 174.133 150.024C174.206 149.762 174.376 149.538 174.608 149.396C174.84 149.254 175.117 149.204 175.383 149.258C175.65 149.311 175.887 149.462 176.046 149.682C176.932 151.108 177.882 152.536 178.876 153.918C178.974 154.032 179.048 154.165 179.092 154.308C179.136 154.452 179.15 154.603 179.132 154.753C179.114 154.902 179.066 155.046 178.989 155.175C178.913 155.304 178.81 155.416 178.688 155.504C178.565 155.591 178.426 155.652 178.279 155.683C178.132 155.713 177.98 155.713 177.833 155.681C177.686 155.65 177.547 155.588 177.426 155.5C177.304 155.411 177.202 155.299 177.126 155.169ZM171.078 145.082C170.344 143.57 169.67 141.997 168.983 140.267C168.931 140.134 168.906 139.991 168.909 139.848C168.913 139.705 168.945 139.565 169.003 139.434C169.061 139.303 169.145 139.186 169.249 139.088C169.353 138.99 169.476 138.913 169.61 138.863C169.871 138.773 170.157 138.782 170.412 138.89C170.668 138.997 170.874 139.196 170.992 139.446C170.992 139.692 172.636 143.334 173.022 144.155C173.12 144.409 173.118 144.69 173.018 144.943C172.917 145.195 172.725 145.401 172.479 145.518C172.234 145.635 171.953 145.655 171.693 145.574C171.434 145.493 171.214 145.317 171.078 145.082ZM166.931 134.066C166.424 132.317 166.006 130.543 165.678 128.752C165.678 128.503 165.764 128.262 165.922 128.069C166.079 127.876 166.298 127.743 166.542 127.694C166.822 127.647 167.108 127.709 167.345 127.865C167.581 128.021 167.75 128.261 167.817 128.536C168.793 133.469 169.329 133.573 168.897 134.303C168.795 134.491 168.639 134.643 168.45 134.741C168.26 134.839 168.046 134.878 167.834 134.853C167.622 134.827 167.423 134.739 167.262 134.599C167.101 134.459 166.986 134.272 166.931 134.066ZM165.765 123.482C165.502 123.484 165.248 123.388 165.052 123.213C164.856 123.037 164.733 122.795 164.706 122.533C164.512 120.741 164.328 118.991 164.296 117.306C164.289 117.164 164.31 117.022 164.357 116.889C164.405 116.755 164.479 116.632 164.574 116.527C164.669 116.421 164.784 116.336 164.913 116.275C165.041 116.214 165.18 116.179 165.322 116.172C165.464 116.165 165.606 116.186 165.739 116.234C165.873 116.281 165.996 116.355 166.101 116.45C166.207 116.546 166.292 116.661 166.353 116.789C166.414 116.917 166.449 117.056 166.456 117.198C166.521 118.861 166.65 120.568 166.845 122.296C166.86 122.446 166.843 122.598 166.795 122.742C166.747 122.885 166.67 123.017 166.568 123.129C166.467 123.241 166.342 123.33 166.204 123.391C166.066 123.451 165.916 123.482 165.765 123.482ZM164.274 110.783C164.339 109.074 164.447 107.327 164.62 105.556C164.62 105.405 164.652 105.256 164.713 105.118C164.775 104.98 164.864 104.856 164.976 104.755C165.088 104.654 165.22 104.578 165.363 104.531C165.507 104.484 165.658 104.467 165.808 104.482C165.959 104.497 166.104 104.544 166.235 104.619C166.366 104.693 166.48 104.795 166.569 104.916C166.659 105.038 166.722 105.177 166.755 105.324C166.787 105.471 166.788 105.624 166.758 105.772C166.607 107.435 166.499 109.141 166.434 110.869C166.423 111.156 166.298 111.426 166.087 111.62C165.877 111.815 165.598 111.918 165.311 111.906C165.025 111.895 164.755 111.77 164.56 111.559C164.366 111.349 164.263 111.069 164.274 110.783ZM166.521 100.372C166.365 100.371 166.211 100.336 166.07 100.27C165.929 100.204 165.804 100.108 165.703 99.9887C165.603 99.8697 165.529 99.7304 165.488 99.5802C165.446 99.4301 165.437 99.2727 165.462 99.1189C165.743 97.3693 166.089 95.6413 166.456 93.9781C166.486 93.8386 166.544 93.7066 166.626 93.5895C166.708 93.4725 166.812 93.3728 166.932 93.2963C167.053 93.2197 167.187 93.1679 167.328 93.1437C167.469 93.1194 167.613 93.1233 167.752 93.1552C168.03 93.2226 168.271 93.3955 168.424 93.6373C168.577 93.8791 168.631 94.1709 168.573 94.4512C168.184 96.1122 167.86 97.7992 167.579 99.4602C167.539 99.7129 167.411 99.9432 167.217 100.11C167.023 100.277 166.776 100.37 166.521 100.372ZM169.156 89.0749C168.986 89.0761 168.817 89.0369 168.665 88.9606C168.513 88.8843 168.381 88.773 168.279 88.6359C168.178 88.4988 168.111 88.3396 168.083 88.1716C168.055 88.0035 168.068 87.8312 168.119 87.6688C169.069 84.5605 169.804 82.7461 169.847 82.6813C169.966 82.4265 170.176 82.2254 170.436 82.1175C170.696 82.0096 170.987 82.0027 171.251 82.0981C171.384 82.1525 171.504 82.2326 171.605 82.3338C171.706 82.4351 171.786 82.5554 171.84 82.6878C171.895 82.8203 171.922 82.9622 171.921 83.1053C171.92 83.2485 171.891 83.3899 171.834 83.5216C171.834 83.7376 171.441 84.1998 170.171 88.3189C170.101 88.5347 169.966 88.7234 169.784 88.8588C169.602 88.9943 169.383 89.0698 169.156 89.0749Z" fill="#000001"/>
<path fill-rule="evenodd" clip-rule="evenodd" d="M106.721 127.648C99.4669 132.723 90.9607 135.711 82.127 136.288C83.217 139.916 83.9094 143.652 84.192 147.43C83.9414 150.421 79.5977 159.683 79.5977 159.683C79.5977 159.683 94.2857 164.284 104.522 161.785C107.082 161.785 113.086 134.897 112.996 133.524C112.905 132.15 106.721 127.648 106.721 127.648Z" fill="#81F889"/>
<path d="M114.076 133.465C113.996 132.216 111.737 129.966 107.361 126.769C107.171 126.633 106.944 126.56 106.71 126.563C106.477 126.565 106.251 126.642 106.065 126.782C98.9917 131.706 90.7147 134.618 82.1167 135.206L67.6447 134.625C67.3591 134.617 67.0816 134.72 66.8717 134.914C66.6617 135.108 66.536 135.376 66.5215 135.662C66.5157 135.803 66.5379 135.945 66.5869 136.078C66.6359 136.212 66.7107 136.334 66.807 136.438C66.9033 136.543 67.0192 136.627 67.1481 136.686C67.277 136.746 67.4164 136.779 67.5583 136.785L81.2894 137.336C82.2747 140.59 82.8856 143.946 83.1103 147.339C82.1214 151.144 80.7463 154.839 79.0063 158.365C73.8417 156.389 68.5519 148.455 68.4979 148.371C68.34 148.132 68.0937 147.965 67.813 147.908C67.5322 147.85 67.2402 147.907 67.001 148.064C66.7618 148.222 66.5951 148.469 66.5376 148.749C66.4801 149.03 66.5365 149.322 66.6943 149.561C66.9513 149.952 73.1073 158.977 79.2806 160.72C86.9594 162.88 96.9926 164.698 104.68 162.856C105.123 162.788 105.526 162.562 105.816 162.221C108.946 158.908 114.152 134.633 114.076 133.465ZM104.27 160.744C96.0919 162.733 84.7605 160.003 81.108 159.003C81.8164 157.439 83.052 154.646 83.9937 152.091C88.3266 154.155 93.0868 155.164 97.8847 155.035C98.1711 155.035 98.4458 154.921 98.6483 154.718C98.8509 154.516 98.9647 154.241 98.9647 153.955C98.9647 153.668 98.8509 153.394 98.6483 153.191C98.4458 152.988 98.1711 152.875 97.8847 152.875C93.3251 153.014 88.8009 152.033 84.7087 150.017C85.3758 148.18 85.4951 146.188 85.0521 144.284C87.0696 143.829 99.712 140.852 103.196 137.197C103.394 136.99 103.501 136.713 103.494 136.426C103.487 136.14 103.367 135.868 103.159 135.67C102.952 135.473 102.675 135.365 102.388 135.372C102.102 135.379 101.83 135.5 101.632 135.707C99.0014 138.465 88.8084 141.224 84.6676 142.157C84.2961 140.312 83.8382 138.485 83.5228 137.301C91.83 136.529 99.8074 133.671 106.715 128.992C108.62 130.313 110.367 131.851 111.92 133.573C111.847 136.405 106.354 158.78 104.27 160.744Z" fill="#000001"/>
</g>
<defs>
<clipPath id="clip0_392_21612">
<rect width="404" height="404" fill="white" transform="translate(25)"/>
</clipPath>
</defs>
</svg>
