<svg width="662" height="400" viewBox="0 0 662 400" fill="none" xmlns="http://www.w3.org/2000/svg">
<path d="M51.6407 201.825H130.394C150.963 201.825 145.795 191.463 127.224 190.886C132.445 176.217 121.309 166.868 108.328 174.476C104.35 142.155 61.3285 160.541 69.5424 184.171C65.7502 179.606 53.6918 181.026 56.6144 192.127C51.3618 192.273 43.4598 194.095 43.1886 197.597C42.9465 200.738 47.6645 201.823 51.6427 201.823L51.6407 201.825Z" fill="white"/>
<path d="M130.395 202.503H51.6398C47.7468 202.503 42.2115 201.426 42.5117 197.545C42.8158 193.59 50.4777 191.783 55.767 191.485C54.8645 187.127 56.1834 183.707 59.4469 182.028C62.1894 180.614 65.7802 180.798 68.2883 182.262C63.0106 158.932 104.113 142.446 108.862 173.399C121.559 166.636 132.82 175.572 128.152 190.243C137.493 190.706 144.386 193.743 144.328 197.444C144.28 200.611 139.07 202.503 130.395 202.503ZM57.27 191.955C57.3784 192.38 57.0705 192.792 56.6328 192.806C50.7566 192.966 44.0689 194.996 43.8616 197.65C43.6486 200.452 48.7888 201.147 51.6398 201.147H130.395C139.045 201.147 142.945 199.278 142.974 197.425C143.009 195.172 137.548 191.884 127.201 191.562C126.746 191.549 126.429 191.094 126.583 190.658C131.633 176.481 121.04 167.814 108.67 175.059C108.238 175.309 107.713 175.034 107.655 174.558C103.795 143.18 62.2959 161.271 70.1825 183.949C70.4265 184.66 69.4988 185.183 69.0185 184.604C65.6543 180.55 54.5352 181.575 57.27 191.955Z" fill="#000001"/>
<path d="M33.1771 61.3854C48.5576 61.3854 61.026 48.917 61.026 33.5365C61.026 18.1559 48.5576 5.6875 33.1771 5.6875C17.7965 5.6875 5.32812 18.1559 5.32812 33.5365C5.32812 48.917 17.7965 61.3854 33.1771 61.3854Z" fill="white"/>
<path d="M33.1753 62.0663C17.4447 62.0663 4.64844 49.2681 4.64844 33.5395C4.64844 17.8109 17.4447 5.0127 33.1753 5.0127C48.9058 5.0127 61.7021 17.8109 61.7021 33.5395C61.7021 49.2681 48.9058 62.0663 33.1753 62.0663ZM33.1753 6.3665C18.1923 6.3665 6.00225 18.5547 6.00225 33.5376C6.00225 48.5205 18.1923 60.7087 33.1753 60.7087C48.1582 60.7087 60.3463 48.5205 60.3463 33.5376C60.3463 18.5547 48.1563 6.3665 33.1753 6.3665Z" fill="#000001"/>
<path d="M150.247 238.021C174.72 229.251 198.535 222.087 221.848 216.094C222.267 215.986 222.708 216.025 223.101 216.205C243.769 225.685 266.909 238.865 291.164 253.707C291.739 254.059 292.086 254.691 292.064 255.365C291.29 281.891 287.385 311.709 281.921 343.166C281.817 343.769 281.428 344.284 280.876 344.547C258.599 355.124 234.745 364.214 209.711 372.183C209.234 372.334 208.715 372.292 208.271 372.061C185.144 360.065 160.21 343.407 139.475 326.847C138.994 326.464 138.733 325.873 138.774 325.259C140.333 301.504 143.856 270.096 149.025 239.479C149.139 238.807 149.608 238.249 150.249 238.019L150.247 238.021Z" fill="white"/>
<path d="M239.797 361.769C245.348 330.388 249.874 298.884 252.21 266.158C228.744 251.927 205.179 238.369 182.113 227.339L204.274 221.047C223.855 229.544 247.416 243.932 272.096 259.974C270.322 286.407 265.608 318.86 259.565 354.034L239.797 361.767V361.769Z" fill="#81F889"/>
<path d="M267.675 328.578C267.675 328.578 266.38 338.586 264.852 346.403C264.852 346.403 277.648 341.52 278.213 341.185C278.822 340.827 280.898 327.033 281.018 324.337L267.675 328.578Z" fill="white"/>
<path d="M187.838 335.924C187.838 335.924 186.085 348.534 185.762 353.304C185.762 353.304 200.826 362.378 204.463 363.922L207.022 345.614C200.909 342.774 194.516 339.549 187.838 335.924Z" fill="white"/>
<path d="M204.459 364.599C203.278 364.599 186.443 354.508 185.407 353.883C185.19 353.751 185.062 353.511 185.08 353.255C185.401 348.518 187.144 335.954 187.162 335.826C187.228 335.35 187.752 335.1 188.157 335.325C206.729 345.406 207.851 344.548 207.688 345.704C205.062 364.413 205.306 364.597 204.459 364.597V364.599ZM186.463 352.936C188.603 354.22 199.757 360.89 203.915 362.922L206.276 346.014C200.541 343.337 194.528 340.304 188.374 336.983C187.973 339.924 186.784 348.803 186.465 352.934L186.463 352.936Z" fill="#000001"/>
<path d="M196.71 354.004C198.267 348.767 197.403 348.172 197.368 348.149C197.268 348.091 196.264 347.676 192.015 351.771C191.475 352.288 190.613 351.674 190.929 350.998C193.342 345.796 192.825 345.004 192.801 344.973C192.772 344.971 192.1 344.806 189.335 346.946C188.632 347.494 187.793 346.425 188.506 345.873C191.209 343.781 192.751 343.198 193.654 343.923C194.281 344.423 194.637 345.403 193.367 348.744C195.592 346.936 197.087 346.396 198.071 346.993C199.011 347.564 199.235 348.995 198.74 351.517C200.196 349.931 202.187 348.062 203.715 347.773C204.596 347.599 204.85 348.939 203.969 349.106C202.408 349.402 199.415 352.64 197.897 354.612C197.444 355.201 196.497 354.722 196.71 354.006V354.004Z" fill="#000001"/>
<path d="M163.247 254.36C162.55 254.36 152.384 248.464 151.053 247.656C150.288 247.19 150.989 246.035 151.756 246.496C153.66 247.653 159.05 250.78 163.555 253.076C164.187 253.399 163.956 254.36 163.247 254.36Z" fill="#000001"/>
<path d="M164.792 261.15C163.822 261.15 152.107 254.402 150.373 253.35C149.608 252.884 150.311 251.727 151.076 252.19C153.815 253.852 160.735 257.809 165.081 259.858C165.736 260.166 165.511 261.15 164.792 261.15Z" fill="#000001"/>
<path d="M158.388 263.898C157.888 263.898 150.149 259.318 149.694 259.041C148.929 258.574 149.63 257.418 150.397 257.881C152.094 258.911 155.419 260.834 158.711 262.624C159.327 262.957 159.087 263.898 158.388 263.898Z" fill="#000001"/>
<path d="M264.855 347.083C264.427 347.083 264.107 346.69 264.188 346.275C265.693 338.571 266.991 328.594 267.005 328.493C267.037 328.232 267.22 328.013 267.469 327.934C281.889 323.347 281.025 323.489 281.432 323.801C281.608 323.934 281.707 324.147 281.697 324.368C281.664 325.083 279.77 341.057 278.561 341.77C278.038 342.08 265.107 347.081 264.855 347.081V347.083ZM268.293 329.096C268.041 330.982 266.985 338.729 265.75 345.336C270.454 343.536 276.646 341.146 277.742 340.662C278.3 339.216 279.886 329.148 280.266 325.288L268.293 329.094V329.096Z" fill="#000001"/>
<path d="M268.046 341.785C268.788 338.113 269.371 334.805 269.878 331.375C270.014 330.49 271.352 330.687 271.22 331.574C270.705 335.03 270.12 338.359 269.373 342.054C269.196 342.934 267.864 342.664 268.044 341.785H268.046Z" fill="#000001"/>
<path d="M271.632 340.359C272.052 338.278 272.467 336.1 272.87 333.713C273.013 332.821 274.353 333.057 274.204 333.938C273.801 336.34 273.383 338.534 272.959 340.628C272.782 341.507 271.45 341.238 271.63 340.359H271.632Z" fill="#000001"/>
<path d="M275.087 339.199C275.829 335.525 276.414 332.217 276.919 328.789C277.055 327.908 278.393 328.099 278.261 328.988C277.748 332.44 277.163 335.769 276.414 339.468C276.237 340.348 274.907 340.078 275.087 339.199Z" fill="#000001"/>
<path d="M160.566 342.72C162.333 320.318 167.275 282.558 172.445 251.94C177.957 247.105 238.088 227.575 243.941 226.502L262.1 236.655C236.217 245.095 211.517 253.619 193.01 262.573C187.761 293.476 183.889 324.745 180.757 356.21L160.566 342.72Z" fill="#81F889"/>
<path d="M291.517 253.13C263.527 236.003 241.876 224.075 223.383 215.592C222.851 215.346 222.245 215.291 221.679 215.439C196.859 221.82 173.416 228.998 150.016 237.384C149.145 237.696 148.507 238.457 148.354 239.369C143.547 267.844 139.807 299.135 138.095 325.217C138.041 326.05 138.395 326.86 139.048 327.381C160.717 344.686 185.833 361.191 207.957 372.666C208.573 372.986 209.288 373.032 209.915 372.833C236.404 364.4 259.71 355.35 281.165 345.162C281.915 344.806 282.446 344.105 282.587 343.285C288.725 307.951 292.046 279.199 292.74 255.389C292.769 254.476 292.298 253.611 291.516 253.132L291.517 253.13ZM281.253 343.053C281.187 343.44 280.935 343.77 280.582 343.936C259.183 354.096 235.932 363.126 209.505 371.539C209.2 371.638 208.865 371.607 208.581 371.462C186.532 360.025 161.495 343.572 139.893 326.319C139.589 326.075 139.422 325.697 139.449 325.306C141.157 299.266 144.889 268.026 149.689 239.594C149.762 239.166 150.063 238.808 150.473 238.661C173.835 230.29 197.237 223.124 222.016 216.752C222.264 216.686 222.553 216.703 222.816 216.823C241.258 225.283 262.865 237.189 290.807 254.286C291.175 254.513 291.397 254.918 291.384 255.346C290.692 279.093 287.377 307.782 281.251 343.053H281.253Z" fill="#000001"/>
<path d="M272.76 259.102C263.404 253.121 254.459 247.607 245.953 242.574C251.115 240.778 256.425 238.979 261.901 237.172C262.749 236.889 262.332 235.605 261.476 235.884C235.283 244.536 212.795 252.988 192.732 261.721C192.523 261.812 192.372 262.004 192.335 262.23C186.924 294.28 181.578 334.493 179.901 355.767C179.83 356.66 181.179 356.766 181.251 355.873C182.919 334.714 188.225 294.776 193.61 262.819C203.22 258.643 213.388 254.531 224.255 250.431C232.655 255.24 241.667 260.564 251.506 266.528C249.424 295.471 245.488 325.716 239.13 361.655C238.975 362.538 240.307 362.774 240.464 361.891C246.861 325.731 250.809 295.328 252.885 266.21C252.904 265.956 252.778 265.714 252.561 265.583C242.955 259.757 234.133 254.537 225.9 249.811C231.811 247.596 237.929 245.382 244.276 243.161C252.957 248.281 262.104 253.91 271.687 260.03C269.332 292.731 264.24 323.117 258.788 353.948C258.635 354.831 259.966 355.068 260.123 354.185C265.606 323.19 270.721 292.643 273.068 259.726C273.087 259.478 272.967 259.242 272.758 259.106L272.76 259.102Z" fill="#000001"/>
<path d="M243.814 225.835C242.09 226.15 235.026 228.263 225.945 231.178C218.415 227.072 211.322 223.429 204.695 220.27C204.354 220.108 203.951 220.251 203.79 220.592C203.228 221.769 204.342 221.002 224.163 231.751C218.202 233.677 211.504 235.902 204.935 238.166C197.035 233.942 189.605 230.175 182.402 226.729C181.585 226.346 181.012 227.566 181.815 227.953C188.662 231.227 195.716 234.794 203.186 238.77C188.356 243.918 174.587 249.151 171.992 251.429C171.273 252.06 162.347 310.406 159.843 342.175C159.771 343.064 161.121 343.18 161.193 342.281C162.903 320.617 167.778 283.653 173.065 252.301C179.501 247.313 238.784 228.134 244.058 227.167C244.945 227.004 244.689 225.664 243.812 225.835H243.814Z" fill="#000001"/>
<path d="M226.218 250.5C226.218 250.5 244.315 243.973 245.634 243.324L244.253 242.414L224.754 249.766L226.218 250.5Z" fill="#000001"/>
<path d="M290.946 253.066C268.462 260.627 242.225 268.7 220.703 274.677C196.846 264.456 172.808 251.042 149.704 238.337C148.914 237.903 148.267 239.094 149.05 239.524C172.159 252.266 196.16 265.616 219.944 275.825C217.736 304.456 212.373 343.936 208.25 372.089C208.122 372.982 209.464 373.168 209.592 372.286C213.717 344.11 219.084 304.592 221.294 275.922C242.792 269.945 268.95 261.896 291.376 254.352C292.234 254.063 291.783 252.772 290.944 253.068L290.946 253.066Z" fill="#000001"/>
<path d="M134.279 108.36C143.769 40.794 216.955 8.62601 279.709 30.8796C329.308 39.1109 382.962 83.3954 371.835 157.276C368.862 160.892 364.361 162.581 360.709 163.557C353.07 170.223 339.598 174.153 325.583 173.907C306.454 178.768 282.104 176.628 270.701 171.556C255.02 172.34 235.414 167.086 228.206 161.676C213.31 160.264 189.16 152.11 180.692 142.39C169.873 139.097 156.233 130.351 149.644 122.162C143.214 119.514 137.368 114.61 134.277 108.362L134.279 108.36Z" fill="white"/>
<path d="M360.707 163.556C366.92 124.158 347.552 51.1783 279.707 30.8789C326.78 56.5122 336.325 117.703 325.582 173.906C340.16 173.139 352.462 170.248 360.707 163.556Z" fill="#81F889"/>
<path d="M270.706 171.555C288.052 126.688 295.214 63.3297 279.712 30.8809C248.752 58.48 232.185 105.317 228.211 161.677C240.918 169.264 255.299 171.923 270.706 171.557V171.555Z" fill="#81F889"/>
<path d="M180.697 142.388C190.608 75.6132 230.507 40.5129 279.711 30.8794C228.263 20.0237 159.026 50.6655 149.648 122.16C158.378 132.291 169.092 138.27 180.697 142.388Z" fill="#81F889"/>
<path d="M349.06 69.0177C331.784 48.7919 306.538 34.6437 279.93 30.2375C216.042 7.5908 143.067 40.917 133.608 108.267C133.589 108.402 133.612 108.54 133.672 108.662C135.739 112.835 139.064 116.558 143.186 119.415C156.528 156.006 187.348 202.71 220.554 236.857C219.642 239.799 222.828 242.751 226.326 242.751C228.894 242.751 230.968 241.132 230.817 238.813C261.608 227.065 334.997 195.044 355.366 168.045C357.485 166.883 359.392 165.587 361.035 164.17C364.397 163.259 369.158 161.598 372.359 157.705C372.437 157.61 372.487 157.498 372.504 157.375C378.95 114.58 363.312 85.705 349.06 69.0177ZM270.229 170.896C254.934 171.545 236.072 166.471 228.912 161.35C233.091 102.909 250.569 58.2143 279.481 31.9923C294.537 64.8284 286.684 128.051 270.227 170.894L270.229 170.896ZM281.183 32.4842C327.989 59.4539 334.592 122.614 324.997 173.352C306.053 178.051 282.833 175.918 271.565 171.187C287.9 128.539 295.727 65.882 281.183 32.4842ZM227.581 160.929C212.052 159.281 189.421 151.06 181.412 142.176C190.387 82.3737 224.438 43.3592 277.436 32.0349C248.99 58.5765 231.774 103.06 227.581 160.929ZM180.141 141.502C169.522 138.064 156.646 129.629 150.356 121.958C155.407 84.1594 176.392 62.1014 193.131 50.2464C216.969 33.3654 248.51 26.0909 276.25 30.9038C223.312 42.5651 189.265 81.7017 180.141 141.502ZM134.979 108.245C144.02 44.8525 209.873 12.4541 270.504 28.721C243.937 25.7791 214.773 33.2609 192.349 49.1386C175.476 61.0866 154.347 83.2627 149.093 121.181C142.868 118.413 137.763 113.746 134.979 108.245ZM221.242 235.618C188.772 202.146 158.641 156.694 145.08 120.629C146.401 121.415 147.785 122.115 149.226 122.717C154.016 128.605 162.612 134.942 171.195 139.238C183.862 173.65 199.583 203.984 222.125 234.87C221.786 235.081 221.49 235.331 221.244 235.616L221.242 235.618ZM223.405 234.326C201.899 204.904 185.799 174.872 172.95 140.088C175.458 141.261 177.945 142.245 180.31 142.977C188.762 152.495 212.075 160.776 227.955 162.33C235.227 167.656 254.82 172.988 270.574 172.236C280.73 176.691 297.09 177.859 308.966 177.102C290.799 197.471 258.852 220.47 228.367 235.139C226.921 234.235 225.053 233.886 223.405 234.326ZM230.48 237.485C230.26 236.987 229.938 236.51 229.531 236.082C260.51 221.078 292.905 197.579 310.897 176.962C315.925 176.55 320.93 175.779 325.661 174.582C335.446 174.762 344.963 172.883 352.455 169.492C330.11 195.555 259.023 226.542 230.48 237.485ZM360.076 163.201C351.61 170.451 337.716 173.309 326.399 173.234C336.019 121.96 329.345 61.5921 285.436 33.4739C346.662 55.5164 366.309 122.914 360.076 163.201ZM371.191 156.984C368.497 160.17 364.585 161.726 361.534 162.618C367.329 122.688 348.306 57.3157 289.901 33.7296C339.155 46.4697 381.051 90.9207 371.191 156.984Z" fill="#000001"/>
<path d="M30.2231 58.938C22.4585 43.1649 43.3273 30.5448 55.7033 43.1649C50.5437 10.627 113.944 14.5296 102.052 51.6577C108.384 47.5924 119.766 50.2012 117.826 60.8787C117.826 60.8787 134.085 62.0717 134.085 67.9169C134.085 70.8299 116.613 70.3437 99.3835 70.3437L19.0711 70.243C2.92219 70.243 9.86168 61.3203 30.2231 58.938Z" fill="white"/>
<path d="M19.0704 70.9217C3.06683 70.9101 7.2987 61.2184 29.2172 58.3791C22.5121 42.8016 42.1026 30.6774 54.8079 41.4071C52.2068 10.1707 112.9 14.2128 103.165 50.2834C110.43 46.985 119.851 50.7695 118.609 60.2636C122.117 60.5909 134.764 62.1675 134.764 67.9158C134.764 72.0567 123.604 70.9914 19.0723 70.9198L19.0704 70.9217ZM30.8305 58.6386C31.0358 59.0589 30.7647 59.5567 30.3018 59.6109C17.552 61.1042 10.6842 65.092 10.812 67.2786C10.874 68.3322 13.0742 69.5601 19.0723 69.564C118.319 69.6318 131.115 70.2361 133.338 68.0185C133.41 63.6413 122.126 61.875 117.778 61.5554C117.376 61.5264 117.089 61.1545 117.161 60.7575C118.05 55.8749 115.991 53.3474 114.108 52.0865C110.912 49.9464 105.885 50.0064 102.424 52.2279C101.875 52.5746 101.221 52.0458 101.413 51.4513C112.962 15.3884 51.3914 11.6253 56.3767 43.0592C56.4774 43.7099 55.6833 44.1089 55.2223 43.6402C43.3441 31.5257 23.4417 43.6228 30.8344 58.6386H30.8305Z" fill="#000001"/>
<path d="M330.072 81.7513C329.146 80.8429 329.053 80.6706 328.734 80.6318L323.313 134.428L182.975 116.236C182.925 116.662 183.146 116.774 184.122 117.735C324.649 136.093 324.324 136.177 324.684 135.89C325.04 135.609 325.114 135.875 330.273 82.3052C330.293 82.0999 330.221 81.8985 330.072 81.7532V81.7513Z" fill="#000001"/>
<path d="M190.156 63.9062L183.648 116.319L323.312 134.426L328.648 81.3043L190.156 63.9062Z" fill="white"/>
<path d="M323.311 135.107L183.561 116.992C183.191 116.944 182.929 116.607 182.974 116.237L189.481 63.8235C189.528 63.4574 189.859 63.1882 190.24 63.2347L328.732 80.6328C329.096 80.6773 329.357 81.0066 329.323 81.3727C323.979 135.178 324.266 135.107 323.311 135.107ZM184.403 115.735L322.705 133.668L327.905 81.8975L190.744 64.6679L184.405 115.737L184.403 115.735Z" fill="#000001"/>
<path d="M193.338 108.316L197.444 74.6086C197.595 73.3633 198.548 72.5653 199.96 72.7358C220.565 75.2206 220.256 74.996 220.941 75.7823C221.553 76.4854 221.449 77.9321 220.608 78.519C219.754 79.1136 220.314 78.9722 201.604 76.6945L200.016 89.7368L216.386 91.7298C217.622 91.8828 218.35 92.5897 218.197 93.8583C218.05 95.0591 217.159 95.5839 215.935 95.4329L199.565 93.4399L197.688 108.845C197.326 111.866 192.972 111.371 193.338 108.316Z" fill="#000001"/>
<path d="M252.427 116.002C252.209 117.827 249.36 118.307 248.366 116.272L242.559 104.018C240.154 98.9782 237.747 99.5088 229.289 98.4804L227.58 112.489C227.216 115.526 222.87 114.98 223.232 111.96L227.338 78.2527C227.491 76.9899 228.462 76.2132 229.854 76.3798L243.164 78.0028C250.733 78.9209 255.449 82.7015 254.519 90.3324C253.758 96.5746 249.482 99.6831 243.193 99.6831C245.195 100.605 246.305 102.298 247.258 104.32C252.607 115.669 252.534 115.129 252.425 116.004L252.427 116.002ZM240.576 96.1485C245.916 96.7993 249.567 95.2227 250.219 89.8617C250.87 84.5375 247.692 82.2541 242.346 81.6033L231.504 80.2824L229.734 94.8276L240.576 96.1485Z" fill="#000001"/>
<path d="M260.077 116.279L264.161 82.7335C264.311 81.494 265.26 80.6902 266.679 80.8606C288.255 83.4598 287.515 83.1906 288.195 83.9711C288.84 84.7109 288.671 86.0919 287.868 86.6555C287.037 87.2404 287.676 87.1203 268.325 84.7652L266.724 97.914L283.63 99.9728C284.842 100.118 285.596 100.833 285.447 102.045C285.297 103.259 284.399 103.769 283.184 103.622L266.278 101.563L264.607 115.304C283.692 117.627 283.339 117.382 284.033 118.132C284.654 118.804 284.538 120.255 283.703 120.842C282.844 121.444 283.62 121.293 262.07 118.698C260.648 118.527 259.922 117.51 260.075 116.277L260.077 116.279Z" fill="#000001"/>
<path d="M291.307 120.083L295.392 86.5377C295.541 85.3001 296.49 84.4944 297.909 84.6667C319.47 87.293 318.745 86.9928 319.425 87.7772C320.066 88.5132 319.905 89.8922 319.098 90.4616C318.269 91.0445 318.92 90.9283 299.556 88.5693L297.954 101.72L314.86 103.777C316.084 103.928 316.826 104.647 316.677 105.849C316.532 107.048 315.646 107.579 314.415 107.426L297.508 105.369L295.837 119.108C315.031 121.446 314.575 121.189 315.263 121.938C315.883 122.61 315.77 124.057 314.934 124.648C314.078 125.246 314.757 125.116 293.3 122.504C291.871 122.329 291.154 121.311 291.305 120.081L291.307 120.083Z" fill="#000001"/>
</svg>
