<svg width="86" height="57" viewBox="0 0 86 57" fill="none" xmlns="http://www.w3.org/2000/svg">
<path d="M39.5587 42.1895V45.0764C39.5587 45.8649 39.9978 46.5122 40.5382 46.5122H44.458C45.0022 46.5122 45.4394 45.863 45.4394 45.0764V42.1895M41.0098 22.0651C39.8824 22.0656 38.8013 22.5138 38.0043 23.3112C37.2073 24.1085 36.7596 25.1898 36.7596 26.3172M56.4983 28.1902H60M52.9736 16.7113L55.4577 14.2273M54.883 37.9202L57.367 40.4023M42.499 10V12.8315M29.5919 14.2254L32.0588 16.7113M27.6826 40.4023L30.1495 37.9202M28.4998 28.1902H25" stroke="white" stroke-width="2.864" stroke-linecap="round" stroke-linejoin="round"/>
<path d="M48.3869 35.3532C49.6659 34.0417 52.6274 32.2352 53.1704 27.714C53.3872 26.3296 53.3148 24.9152 52.9579 23.5602C52.6009 22.2051 51.9671 20.9386 51.0963 19.8407C50.2255 18.7427 49.1367 17.837 47.8985 17.1806C46.6603 16.5243 45.2996 16.1316 43.902 16.0272C42.5045 15.9228 41.1005 16.1091 39.7785 16.5742C38.4565 17.0393 37.2452 17.7732 36.221 18.7297C35.1968 19.6861 34.3818 20.8444 33.8275 22.1314C33.2732 23.4184 32.9915 24.8063 33.0002 26.2076C33.0002 31.849 36.4186 33.9003 37.8716 35.3532C39.0111 36.5269 38.8352 36.9666 38.8352 38.8592C38.822 39.0978 38.8575 39.3365 38.9396 39.5609C39.0216 39.7853 39.1486 39.9906 39.3126 40.1643C39.4767 40.338 39.6744 40.4764 39.8938 40.5712C40.1131 40.666 40.3495 40.7151 40.5884 40.7155H45.6701C45.9092 40.7159 46.1459 40.6674 46.3655 40.5729C46.5852 40.4784 46.7831 40.3399 46.9472 40.166C47.1113 39.9921 47.238 39.7864 47.3195 39.5617C47.4011 39.3369 47.4358 39.0979 47.4214 38.8592C47.3354 36.9303 47.106 36.6684 48.3869 35.3532Z" stroke="white" stroke-width="2.864" stroke-linecap="round" stroke-linejoin="round"/>
</svg>
