<svg width="20" height="21" viewBox="0 0 20 21" fill="none" xmlns="http://www.w3.org/2000/svg">
<path d="M10.0001 7.48886C8.5665 7.48886 7.39658 8.65878 7.39658 10.0924C7.39658 11.526 8.5665 12.6959 10.0001 12.6959C11.4337 12.6959 12.6036 11.526 12.6036 10.0924C12.6036 8.65878 11.4337 7.48886 10.0001 7.48886ZM17.8087 10.0924C17.8087 9.01425 17.8185 7.94589 17.7579 6.86972C17.6974 5.61972 17.4122 4.51035 16.4981 3.59628C15.5821 2.68027 14.4747 2.39707 13.2247 2.33652C12.1466 2.27597 11.0782 2.28574 10.002 2.28574C8.92392 2.28574 7.85556 2.27597 6.77939 2.33652C5.52939 2.39707 4.42001 2.68222 3.50595 3.59628C2.58994 4.5123 2.30673 5.61972 2.24619 6.86972C2.18564 7.94785 2.19541 9.01621 2.19541 10.0924C2.19541 11.1685 2.18564 12.2389 2.24619 13.315C2.30673 14.565 2.59189 15.6744 3.50595 16.5885C4.42197 17.5045 5.52939 17.7877 6.77939 17.8482C7.85751 17.9088 8.92587 17.899 10.002 17.899C11.0802 17.899 12.1485 17.9088 13.2247 17.8482C14.4747 17.7877 15.5841 17.5025 16.4981 16.5885C17.4142 15.6725 17.6974 14.565 17.7579 13.315C17.8204 12.2389 17.8087 11.1705 17.8087 10.0924ZM10.0001 14.0982C7.7833 14.0982 5.99423 12.3092 5.99423 10.0924C5.99423 7.87558 7.7833 6.08652 10.0001 6.08652C12.2169 6.08652 14.006 7.87558 14.006 10.0924C14.006 12.3092 12.2169 14.0982 10.0001 14.0982ZM14.17 6.858C13.6524 6.858 13.2345 6.44003 13.2345 5.92246C13.2345 5.40488 13.6524 4.98691 14.17 4.98691C14.6876 4.98691 15.1056 5.40488 15.1056 5.92246C15.1057 6.04536 15.0816 6.16708 15.0347 6.28066C14.9877 6.39423 14.9188 6.49743 14.8319 6.58433C14.745 6.67124 14.6418 6.74014 14.5282 6.7871C14.4146 6.83406 14.2929 6.85816 14.17 6.858Z" fill="white"/>
</svg>
