<svg width="235" height="216" viewBox="0 0 235 216" fill="none" xmlns="http://www.w3.org/2000/svg">
<path d="M105.238 131.127C102.227 124.682 76.4486 115.258 75.8407 115.24C53.534 114.572 55.2237 114.551 55.0186 114.648C54.2143 115.026 35.2685 123.969 30.3651 127.391C25.5034 130.783 22.2455 144.069 21.882 145.607C16.3293 153.875 13.777 163.796 14.6503 173.716C14.7092 174.657 14.9765 175.572 15.4329 176.397C15.8894 177.221 16.5235 177.933 17.2893 178.482C21.1759 181.331 28.8854 180.835 33.4879 179.822C33.6219 179.791 33.7415 179.716 33.8268 179.608C33.912 179.5 33.958 179.366 33.957 179.229L108.022 179.993C108.022 140.312 107.953 142.293 108.076 142.279C108.238 142.265 108.388 142.187 108.492 142.062C108.597 141.938 108.647 141.777 108.633 141.615C108.068 137.96 106.922 134.419 105.238 131.127Z" fill="#000001"/>
<path d="M29.5827 121.678C29.3777 121.609 28.7047 121.476 27.5074 121.076C27.428 121.054 27.354 121.015 27.2898 120.963C27.2256 120.911 27.1725 120.847 27.1338 120.774C27.095 120.701 27.0713 120.621 27.0642 120.539C27.0571 120.457 27.0666 120.374 27.0922 120.295C27.1178 120.217 27.159 120.144 27.2133 120.082C27.2676 120.02 27.3338 119.969 27.4081 119.933C27.4824 119.897 27.5632 119.877 27.6457 119.873C27.7282 119.869 27.8106 119.881 27.8881 119.91C29.1271 120.303 29.8652 120.487 29.8652 120.487C30.0122 120.534 30.136 120.635 30.2118 120.77C30.2877 120.905 30.31 121.063 30.2744 121.213C30.2387 121.363 30.1477 121.495 30.0195 121.581C29.8914 121.667 29.7354 121.702 29.5827 121.678ZM24.7689 120.094C24.1169 119.824 23.4537 119.554 22.8164 119.271C22.7422 119.238 22.6753 119.191 22.6194 119.132C22.5635 119.073 22.5198 119.004 22.4907 118.928C22.4616 118.852 22.4478 118.771 22.4499 118.69C22.4521 118.609 22.4702 118.529 22.5033 118.455C22.5363 118.38 22.5837 118.313 22.6426 118.258C22.7015 118.202 22.7709 118.158 22.8467 118.129C22.9226 118.1 23.0034 118.086 23.0846 118.088C23.1657 118.09 23.2457 118.108 23.3199 118.141C23.9216 118.412 24.5479 118.682 25.2233 118.952C25.3748 119.012 25.4961 119.13 25.5605 119.28C25.625 119.43 25.6274 119.599 25.5672 119.75C25.5069 119.902 25.389 120.023 25.2393 120.087C25.0896 120.152 24.9204 120.154 24.7689 120.094ZM20.482 118.068C20.3845 118.072 20.2875 118.051 20.2007 118.006C19.5745 117.687 18.947 117.343 18.3329 116.987C18.263 116.947 18.2018 116.894 18.1528 116.83C18.1038 116.766 18.068 116.694 18.0475 116.616C18.027 116.538 18.0223 116.457 18.0335 116.377C18.0448 116.298 18.0719 116.221 18.1131 116.152C18.1962 116.014 18.3287 115.913 18.4837 115.87C18.6387 115.827 18.8044 115.844 18.947 115.919C19.5376 116.263 20.1516 116.594 20.7656 116.913C20.8853 116.978 20.9802 117.081 21.0353 117.205C21.0905 117.329 21.1028 117.468 21.0704 117.6C21.0379 117.732 20.9625 117.85 20.856 117.935C20.7495 118.019 20.618 118.066 20.482 118.068ZM16.1974 115.563C16.0801 115.561 15.9654 115.527 15.8659 115.464C15.2396 115.047 14.6624 114.642 14.1221 114.236C14.0566 114.189 14.001 114.129 13.9587 114.06C13.9163 113.991 13.888 113.915 13.8753 113.835C13.8627 113.755 13.8659 113.673 13.8849 113.595C13.9038 113.516 13.9381 113.442 13.9858 113.377C14.0869 113.251 14.2318 113.169 14.3914 113.146C14.551 113.123 14.7132 113.162 14.8454 113.254C15.4103 113.659 15.9752 114.064 16.5388 114.433C16.6508 114.505 16.7362 114.612 16.7821 114.737C16.8281 114.862 16.8321 114.999 16.7935 115.126C16.755 115.254 16.676 115.365 16.5684 115.444C16.4609 115.523 16.3307 115.564 16.1974 115.563ZM12.242 112.579C11.9412 112.579 11.8073 112.475 10.2662 111.007C10.207 110.951 10.1594 110.885 10.1261 110.811C10.0928 110.737 10.0744 110.657 10.0722 110.576C10.0699 110.495 10.0837 110.414 10.1127 110.338C10.1418 110.263 10.1856 110.194 10.2416 110.135C10.3573 110.021 10.5126 109.956 10.6751 109.953C10.8375 109.951 10.9946 110.012 11.1135 110.123C11.617 110.601 12.1205 111.056 12.6362 111.498C12.7313 111.579 12.7993 111.688 12.8311 111.809C12.8628 111.93 12.8569 112.057 12.814 112.175C12.7711 112.293 12.6934 112.394 12.5912 112.466C12.4889 112.538 12.3671 112.578 12.242 112.579ZM8.23994 108.907C7.72418 108.33 7.28087 107.802 6.86457 107.274C6.7654 107.145 6.72123 106.982 6.74171 106.821C6.76219 106.66 6.84567 106.514 6.97386 106.414C7.10292 106.318 7.26347 106.275 7.42304 106.294C7.58262 106.312 7.72932 106.39 7.83347 106.512C9.12534 108.196 9.30708 108.093 9.30708 108.514C9.30291 108.636 9.26249 108.754 9.19099 108.853C9.11948 108.952 9.02012 109.027 8.90561 109.069C8.79109 109.111 8.6666 109.118 8.54804 109.089C8.42948 109.061 8.32221 108.997 8.23994 108.907ZM5.16992 104.904C4.77573 104.29 4.39627 103.676 4.06471 103.074C4.02601 103.003 4.00167 102.925 3.9931 102.844C3.98453 102.764 3.99188 102.683 4.01475 102.605C4.03761 102.527 4.07553 102.455 4.12635 102.392C4.17717 102.329 4.23989 102.277 4.31093 102.238C4.38196 102.199 4.45993 102.175 4.54037 102.167C4.62081 102.158 4.70215 102.165 4.77975 102.188C4.85735 102.211 4.92968 102.249 4.99262 102.3C5.05557 102.351 5.10788 102.413 5.14659 102.484C5.47815 103.086 5.83427 103.676 6.20267 104.228C6.29224 104.365 6.32373 104.532 6.29022 104.692C6.25671 104.852 6.16095 104.993 6.024 105.082C5.88705 105.172 5.72012 105.203 5.55995 105.17C5.39978 105.136 5.25948 105.04 5.16992 104.904ZM2.76302 100.47C2.4683 99.8073 2.21042 99.1442 1.96359 98.4933C1.90829 98.3402 1.91603 98.1715 1.98511 98.0241C2.05419 97.8767 2.17896 97.7628 2.33199 97.7074C2.48538 97.6541 2.65329 97.6613 2.80157 97.7275C2.94985 97.7936 3.06736 97.9138 3.13019 98.0635C3.65333 99.5371 3.94068 99.9632 3.94068 100.213C3.94412 100.355 3.89785 100.494 3.80981 100.606C3.72178 100.719 3.59746 100.797 3.4582 100.827C3.31893 100.858 3.17339 100.839 3.04655 100.774C2.9197 100.709 2.81946 100.601 2.76302 100.47ZM1.10521 95.7057C0.921006 95.0058 0.761365 94.3058 0.626284 93.6304C0.595344 93.4692 0.629713 93.3023 0.721832 93.1664C0.813951 93.0305 0.956272 92.9368 1.11749 92.9059C1.2787 92.8749 1.44561 92.9093 1.58148 93.0014C1.71736 93.0935 1.81107 93.2359 1.84201 93.3971C1.96481 94.0479 2.11095 94.7233 2.29638 95.3987C2.33709 95.5567 2.31338 95.7243 2.23048 95.8648C2.14757 96.0053 2.01225 96.1071 1.85429 96.1478C1.69633 96.1885 1.52867 96.1648 1.38819 96.0819C1.24771 95.999 1.14592 95.8637 1.10521 95.7057ZM0.196481 90.7446C0.148589 90.2927 0.0736805 89.6259 0.0245602 88.6324C0.016418 88.4696 0.0732988 88.3101 0.18269 88.1892C0.29208 88.0683 0.44502 87.9958 0.607864 87.9877C0.770709 87.9796 0.930117 88.0364 1.05102 88.1458C1.17193 88.2552 1.24443 88.4082 1.25257 88.571C1.26117 88.754 1.36677 90.4818 1.42449 90.6586C1.43013 90.7393 1.41984 90.8202 1.3942 90.8969C1.36856 90.9735 1.32807 91.0444 1.27504 91.1054C1.22202 91.1664 1.1575 91.2163 1.08516 91.2524C1.01283 91.2885 0.934098 91.31 0.853466 91.3156C0.690622 91.327 0.529919 91.2732 0.406711 91.1662C0.283502 91.0591 0.20788 90.9074 0.196481 90.7446ZM0.614005 86.3483C0.453266 86.3483 0.298923 86.2853 0.184122 86.1728C0.0693202 86.0603 0.00321477 85.9073 0 85.7466C0 85.5587 0.0822765 84.1809 0.147361 83.5853C0.154137 83.5053 0.176728 83.4274 0.213826 83.3562C0.250924 83.285 0.30179 83.2218 0.363474 83.1704C0.425159 83.119 0.496434 83.0804 0.573168 83.0567C0.649902 83.0331 0.730567 83.0249 0.810486 83.0327C0.891271 83.0403 0.969735 83.064 1.04134 83.1021C1.11295 83.1403 1.17627 83.1923 1.22766 83.2551C1.27905 83.3179 1.31747 83.3903 1.34072 83.468C1.36396 83.5458 1.37157 83.6274 1.36309 83.7081C1.30046 84.4326 1.26485 85.0957 1.22801 85.7589C1.21737 85.9159 1.14855 86.0633 1.035 86.1723C0.921459 86.2813 0.771347 86.3441 0.614005 86.3483ZM0.540323 80.8223C0.655658 80.0816 0.811439 79.3478 1.00697 78.6241C1.05103 78.4716 1.15243 78.3421 1.2899 78.2628C1.42737 78.1834 1.59023 78.1604 1.74431 78.1985C1.89839 78.2367 2.03172 78.333 2.11633 78.4673C2.20095 78.6016 2.23026 78.7634 2.19814 78.9188C2.0385 79.5574 1.89113 80.2083 1.75482 80.9328C1.72371 81.0799 1.6397 81.2105 1.51872 81.2998C1.39774 81.3891 1.24821 81.4308 1.09846 81.4172C0.948716 81.4036 0.809178 81.3355 0.706303 81.2258C0.603428 81.1162 0.544368 80.9726 0.540323 80.8223ZM1.80395 76.033C2.02302 75.2839 2.29005 74.5497 2.60338 73.8349C2.67124 73.6871 2.7927 73.5707 2.94318 73.5091C3.09366 73.4476 3.26191 73.4455 3.41387 73.5033C3.5625 73.5698 3.67917 73.6919 3.73885 73.8434C3.79854 73.9949 3.79649 74.1638 3.73315 74.3138C3.47527 74.9401 3.22721 75.5774 2.99634 76.2295C2.94809 76.3651 2.85373 76.4794 2.72975 76.5525C2.60578 76.6257 2.46006 76.6529 2.31805 76.6295C2.17604 76.6061 2.04676 76.5335 1.9528 76.4245C1.85883 76.3155 1.80615 76.1769 1.80395 76.033ZM4.38276 72.1034C4.27604 72.1037 4.17107 72.0762 4.07823 72.0235C3.98539 71.9709 3.90787 71.8949 3.85333 71.8032C3.79878 71.7115 3.76909 71.6071 3.76718 71.5004C3.76527 71.3937 3.79121 71.2883 3.84244 71.1947C4.174 70.5684 4.51662 69.9421 4.88625 69.3404C4.92097 69.2601 4.97244 69.1881 5.03721 69.1294C5.10199 69.0706 5.17858 69.0263 5.26186 68.9995C5.34513 68.9728 5.43316 68.9641 5.52006 68.9741C5.60696 68.9841 5.69072 69.0126 5.76572 69.0576C5.84073 69.1026 5.90526 69.1631 5.95498 69.235C6.0047 69.307 6.03848 69.3888 6.05403 69.4749C6.06959 69.5609 6.06658 69.6493 6.0452 69.7342C6.02382 69.819 5.98456 69.8982 5.93006 69.9667C4.86169 71.7718 4.91081 72.1034 4.38276 72.1034ZM6.35863 67.2405C6.35863 66.9875 6.45073 66.861 7.73523 65.1897C7.81103 65.0937 7.9138 65.0225 8.03036 64.9852C8.14691 64.948 8.27193 64.9464 8.38938 64.9807C8.50682 65.015 8.61134 65.0837 8.68952 65.1778C8.7677 65.2719 8.81598 65.3872 8.82816 65.509C8.88587 65.8884 8.72869 65.8099 7.47735 67.6089C7.40177 67.7173 7.29322 67.7985 7.16783 67.8403C7.04244 67.8821 6.90691 67.8823 6.78138 67.8409C6.65585 67.7996 6.54702 67.7188 6.47108 67.6106C6.39514 67.5024 6.35613 67.3726 6.35986 67.2405H6.35863ZM10.0697 63.9985C9.90683 63.9985 9.75066 63.9338 9.63551 63.8187C9.52036 63.7035 9.45567 63.5474 9.45567 63.3845C9.45567 63.1254 9.479 63.0419 11.0889 61.432C11.2045 61.3164 11.3614 61.2514 11.5249 61.2514C11.6884 61.2514 11.8452 61.3164 11.9608 61.432C12.0764 61.5476 12.1414 61.7044 12.1414 61.8679C12.1414 62.0315 12.0764 62.1883 11.9608 62.3039C10.4712 63.7529 10.5375 63.9985 10.0697 63.9985ZM13.6186 60.5233C13.4953 60.5217 13.3754 60.4831 13.2744 60.4124C13.1733 60.3418 13.0959 60.2423 13.0522 60.1271C13.0085 60.0118 13.0005 59.886 13.0292 59.7662C13.058 59.6463 13.1221 59.5378 13.2134 59.4549C13.7279 58.9883 14.2817 58.5339 14.8466 58.0918C14.9085 58.0335 14.9817 57.9886 15.0618 57.96C15.1419 57.9314 15.227 57.9198 15.3118 57.9259C15.3967 57.9319 15.4793 57.9555 15.5545 57.9952C15.6297 58.0349 15.6958 58.0897 15.7488 58.1563C15.8017 58.2228 15.8402 58.2996 15.8618 58.3819C15.8835 58.4641 15.8879 58.5499 15.8746 58.6339C15.8614 58.7179 15.8309 58.7982 15.785 58.8698C15.7391 58.9413 15.6788 59.0026 15.608 59.0497C13.944 60.3661 14.0018 60.5233 13.6186 60.5233ZM17.536 57.4778C17.455 57.479 17.3747 57.4639 17.2996 57.4334C17.2246 57.403 17.1565 57.3578 17.0992 57.3006C17.042 57.2433 16.9968 57.1752 16.9663 57.1001C16.9359 57.0251 16.9208 56.9448 16.922 56.8638C16.9221 56.7624 16.9467 56.6626 16.9937 56.5728C17.0408 56.483 17.1089 56.4059 17.1921 56.348C17.3149 56.2891 18.2138 55.6333 18.7271 55.3779C18.833 55.3171 18.9546 55.2893 19.0763 55.2979C19.1981 55.3066 19.3145 55.3513 19.4107 55.4264C19.507 55.5016 19.5786 55.6037 19.6165 55.7197C19.6544 55.8357 19.6569 55.9604 19.6236 56.0779C19.577 56.2276 19.4763 56.3546 19.3411 56.434L19.3166 56.4586C17.7939 57.3317 17.8651 57.4778 17.536 57.4778Z" fill="#000001"/>
<path d="M192.834 131.342C192.727 131.342 192.621 131.313 192.528 131.259C192.435 131.205 192.358 131.127 192.304 131.034C192.251 130.941 192.223 130.835 192.223 130.728C192.223 130.62 192.251 130.514 192.305 130.421C192.528 130.073 192.564 130.244 194.652 129.513C194.805 129.462 194.971 129.474 195.116 129.545C195.26 129.616 195.371 129.741 195.424 129.893C195.451 129.968 195.463 130.048 195.459 130.127C195.456 130.207 195.436 130.285 195.402 130.357C195.367 130.429 195.319 130.494 195.26 130.547C195.2 130.6 195.131 130.641 195.056 130.667C194.331 130.94 193.589 131.166 192.834 131.342ZM196.91 129.046C196.91 128.461 197.348 128.513 199.171 127.621C199.281 127.572 199.403 127.555 199.522 127.574C199.641 127.593 199.753 127.645 199.842 127.726C199.932 127.807 199.997 127.912 200.028 128.028C200.059 128.145 200.056 128.268 200.018 128.383C199.991 128.459 199.949 128.529 199.894 128.588C199.839 128.647 199.773 128.694 199.699 128.727C198.066 129.543 197.887 129.488 197.771 129.611C197.677 129.65 197.575 129.666 197.474 129.657C197.372 129.648 197.275 129.614 197.19 129.558C197.105 129.502 197.035 129.426 196.986 129.337C196.937 129.248 196.911 129.148 196.91 129.046ZM201.983 127.474C201.849 127.473 201.719 127.428 201.613 127.345C201.507 127.263 201.431 127.149 201.396 127.019C201.361 126.89 201.37 126.753 201.42 126.629C201.471 126.505 201.561 126.4 201.676 126.332C201.72 126.287 201.983 126.199 203.481 125.288C203.622 125.207 203.788 125.183 203.946 125.222C204.104 125.261 204.24 125.36 204.327 125.497C204.369 125.565 204.397 125.641 204.409 125.72C204.421 125.8 204.417 125.881 204.398 125.958C204.379 126.036 204.344 126.109 204.296 126.173C204.248 126.237 204.187 126.291 204.118 126.332C203.567 126.676 202.965 127.032 202.276 127.4C202.187 127.451 202.086 127.476 201.983 127.474ZM206.195 124.858C206.034 124.858 205.88 124.795 205.765 124.683C205.65 124.57 205.584 124.417 205.581 124.257C205.581 123.773 205.827 123.839 207.509 122.513C207.573 122.46 207.647 122.42 207.727 122.397C207.807 122.373 207.891 122.366 207.973 122.375C208.056 122.384 208.136 122.41 208.209 122.451C208.281 122.491 208.345 122.546 208.396 122.612C208.447 122.678 208.484 122.753 208.505 122.834C208.526 122.914 208.531 122.998 208.519 123.08C208.507 123.163 208.479 123.242 208.436 123.313C208.393 123.385 208.336 123.446 208.269 123.495C206.571 124.785 206.448 124.858 206.195 124.858ZM209.486 121.162C209.486 120.767 209.624 120.833 211.193 119.308C211.31 119.195 211.466 119.133 211.629 119.133C211.791 119.133 211.948 119.195 212.065 119.308C212.121 119.366 212.166 119.434 212.196 119.51C212.226 119.585 212.241 119.665 212.24 119.747C212.238 119.828 212.221 119.908 212.189 119.982C212.156 120.056 212.11 120.123 212.051 120.18C211.56 120.671 211.046 121.162 210.505 121.629C210.416 121.707 210.306 121.758 210.189 121.775C210.072 121.792 209.952 121.775 209.844 121.726C209.737 121.676 209.645 121.597 209.582 121.497C209.518 121.397 209.485 121.281 209.486 121.162ZM212.972 117.662C212.943 117.294 213.202 117.263 214.423 115.661C214.526 115.543 214.669 115.469 214.825 115.454C214.981 115.439 215.136 115.484 215.26 115.579C215.383 115.675 215.466 115.814 215.491 115.968C215.516 116.122 215.48 116.28 215.393 116.41C214.963 116.962 214.521 117.503 214.042 118.055C213.96 118.146 213.852 118.211 213.733 118.24C213.614 118.269 213.489 118.263 213.374 118.22C213.259 118.178 213.16 118.102 213.088 118.003C213.016 117.903 212.976 117.785 212.972 117.662ZM215.944 113.708C215.944 113.379 216.206 113.227 217.1 111.608C217.178 111.465 217.31 111.358 217.466 111.312C217.623 111.266 217.791 111.284 217.935 111.363C218.078 111.441 218.184 111.573 218.23 111.729C218.276 111.886 218.258 112.054 218.18 112.198C217.824 112.824 217.456 113.438 217.075 114.027C217.004 114.138 216.899 114.223 216.776 114.27C216.653 114.317 216.518 114.323 216.391 114.287C216.264 114.251 216.152 114.176 216.072 114.071C215.991 113.967 215.947 113.84 215.944 113.708ZM218.315 109.361C218.548 108.624 218.827 107.902 219.15 107.2C219.207 107.047 219.323 106.922 219.471 106.854C219.62 106.787 219.789 106.78 219.943 106.837C220.096 106.894 220.22 107.01 220.288 107.158C220.356 107.307 220.362 107.476 220.305 107.629C220.047 108.305 219.775 108.968 219.482 109.607C219.422 109.73 219.323 109.83 219.2 109.891C219.077 109.951 218.937 109.969 218.803 109.94C218.668 109.912 218.547 109.84 218.459 109.735C218.371 109.63 218.32 109.498 218.315 109.361ZM220.624 105.321C220.529 105.321 220.434 105.299 220.349 105.256C220.264 105.214 220.189 105.152 220.132 105.076C220.075 104.999 220.036 104.911 220.019 104.817C220.002 104.723 220.007 104.626 220.033 104.535C220.219 103.872 220.389 103.209 220.525 102.545C220.559 102.386 220.655 102.247 220.792 102.158C220.929 102.07 221.095 102.039 221.255 102.073C221.414 102.107 221.553 102.204 221.642 102.341C221.73 102.477 221.761 102.644 221.727 102.803C221.581 103.503 221.396 104.191 221.211 104.866C221.176 104.996 221.1 105.11 220.994 105.192C220.888 105.274 220.758 105.319 220.624 105.321ZM221.004 99.8684C221.004 99.7247 221.126 99.2311 221.238 97.7317C221.251 97.5688 221.328 97.4178 221.453 97.3119C221.577 97.206 221.738 97.1538 221.901 97.1668C222.064 97.1798 222.215 97.257 222.321 97.3814C222.427 97.5057 222.479 97.6671 222.466 97.8299C222.3 99.7554 222.232 99.7947 222.232 99.9544C222.22 100.117 222.144 100.269 222.021 100.376C221.898 100.483 221.737 100.537 221.575 100.525C221.412 100.514 221.26 100.438 221.153 100.315C221.046 100.192 220.992 100.031 221.004 99.8684ZM221.963 95.5335C221.802 95.5303 221.649 95.4642 221.536 95.3494C221.424 95.2346 221.361 95.0803 221.361 94.9195C221.361 92.6293 221.229 92.6968 221.484 92.4144C221.566 92.3238 221.673 92.2599 221.792 92.2307C221.911 92.2016 222.036 92.2086 222.15 92.2508C222.265 92.293 222.365 92.3685 222.436 92.4677C222.508 92.5668 222.548 92.6851 222.552 92.8074C222.588 93.6854 222.6 94.2711 222.589 94.9195C222.587 95.0838 222.519 95.2405 222.402 95.3555C222.285 95.4705 222.127 95.5345 221.963 95.5335ZM221.114 90.0321C221.054 89.3812 220.968 88.6935 220.856 87.9813C220.833 87.8199 220.876 87.6561 220.974 87.5258C221.072 87.3956 221.217 87.3096 221.379 87.2868C221.54 87.264 221.704 87.3063 221.834 87.4043C221.964 87.5023 222.05 87.648 222.073 87.8094C222.148 88.2772 222.342 89.7042 222.342 89.9707C222.35 90.1335 222.293 90.2929 222.184 90.4138C222.075 90.5347 221.922 90.6072 221.759 90.6154C221.596 90.6235 221.436 90.5666 221.316 90.4572C221.195 90.3478 221.122 90.1949 221.114 90.0321ZM220.377 85.1937C220.23 84.4569 220.081 83.7938 219.934 83.1675C219.908 83.0138 219.941 82.8559 220.028 82.726C220.114 82.596 220.246 82.5037 220.398 82.4678C220.55 82.4318 220.709 82.455 220.845 82.5325C220.98 82.61 221.081 82.736 221.126 82.885C221.195 83.1626 221.593 84.8769 221.593 85.0709C221.592 85.2222 221.535 85.3676 221.433 85.4794C221.331 85.5912 221.191 85.6614 221.041 85.6766C220.89 85.6918 220.739 85.651 220.617 85.5618C220.495 85.4727 220.41 85.3416 220.378 85.1937H220.377ZM219.211 80.429C219.026 79.7905 218.83 79.1273 218.609 78.4396C218.584 78.3623 218.575 78.2809 218.582 78.2C218.589 78.1192 218.612 78.0405 218.649 77.9685C218.687 77.8966 218.739 77.8328 218.801 77.7809C218.863 77.729 218.935 77.6899 219.013 77.666C219.166 77.6216 219.33 77.6376 219.472 77.7107C219.614 77.7838 219.722 77.9085 219.774 78.059C219.997 78.7589 220.205 79.4343 220.388 80.0852C220.417 80.164 220.429 80.2479 220.424 80.3316C220.418 80.4152 220.396 80.497 220.358 80.5717C220.32 80.6464 220.267 80.7126 220.203 80.7662C220.138 80.8197 220.063 80.8594 219.983 80.883C219.903 80.9065 219.818 80.9133 219.735 80.9029C219.652 80.8926 219.571 80.8653 219.499 80.8227C219.427 80.7802 219.364 80.7233 219.315 80.6556C219.265 80.5879 219.23 80.5108 219.212 80.429H219.211ZM217.688 75.7503C217.467 75.124 217.22 74.4609 216.962 73.8101C216.932 73.735 216.917 73.6548 216.919 73.574C216.92 73.4932 216.937 73.4135 216.969 73.3393C217.001 73.2652 217.047 73.1981 217.105 73.1419C217.164 73.0857 217.232 73.0415 217.307 73.0118C217.459 72.9547 217.627 72.9587 217.776 73.0228C217.925 73.0869 218.043 73.2062 218.105 73.3557C218.423 74.0617 218.682 74.7928 218.879 75.5415C218.878 75.6853 218.827 75.8242 218.734 75.9339C218.641 76.0437 218.513 76.1174 218.371 76.1423C218.23 76.1671 218.084 76.1415 217.959 76.0699C217.834 75.9982 217.738 75.8851 217.688 75.7503Z" fill="#000001"/>
<path fill-rule="evenodd" clip-rule="evenodd" d="M10.2891 37.4464C10.2891 27.1987 22.5188 18.8789 37.5828 18.8789C52.6468 18.8789 64.8765 27.1987 64.8765 37.4464C64.8765 43.5029 60.5355 49.1788 53.2448 52.6541C53.0387 57.1262 54.2414 61.5503 56.6833 65.3026C51.6649 63.4535 47.4223 59.9567 44.6488 55.3839C42.3153 55.8077 39.9483 56.0202 37.5767 56.0188C22.5188 56.0164 10.2891 47.6941 10.2891 37.4464Z" fill="white"/>
<path fill-rule="evenodd" clip-rule="evenodd" d="M233.924 48.5258C233.924 36.4397 219.501 26.6279 201.735 26.6279C183.97 26.6279 169.547 36.4397 169.547 48.5258C169.547 55.6679 174.668 62.3618 183.265 66.4547C183.605 70.9652 182.456 75.8797 179.204 81.3677C185.122 79.1901 190.127 75.0695 193.4 69.6795C196.151 70.1786 198.943 70.4289 201.739 70.4273C219.501 70.4273 233.924 60.6155 233.924 48.5258Z" fill="white"/>
<path d="M56.4568 65.8672C51.4571 64.007 47.2033 60.562 44.3449 56.0579C42.1108 56.4385 39.8486 56.6295 37.5823 56.6289C22.1941 56.6289 9.67578 48.023 9.67578 37.4474C9.67578 26.8718 22.1941 18.2646 37.5823 18.2646C52.9705 18.2646 65.49 26.8705 65.49 37.4474C65.49 43.6476 61.1404 49.4598 53.835 53.0505C53.7314 57.277 54.909 61.4359 57.2132 64.9806C57.28 65.091 57.3103 65.2196 57.2998 65.3481C57.2894 65.4767 57.2387 65.5987 57.1549 65.6968C57.0712 65.795 56.9587 65.8643 56.8334 65.8948C56.7081 65.9254 56.5763 65.9157 56.4568 65.8672ZM45.1849 55.0705C47.5548 59.0054 51.0721 62.1208 55.2644 63.9982C53.3229 60.5264 52.4097 56.5738 52.6315 52.6022C52.6397 52.4943 52.6762 52.3904 52.7375 52.3011C52.7987 52.2118 52.8825 52.1403 52.9803 52.0938C60.0438 48.7266 64.262 43.2522 64.262 37.4425C64.262 27.5423 52.2938 19.4877 37.5823 19.4877C22.8707 19.4877 10.9038 27.5472 10.9038 37.4474C10.9038 47.3476 22.872 55.4021 37.5823 55.4021C43.9348 55.4021 44.706 54.2527 45.1849 55.0705Z" fill="#000001"/>
<path d="M178.677 81.0675C181.63 76.083 182.94 71.4325 182.677 66.8656C174.063 62.6523 168.934 55.8208 168.934 48.5338C168.934 36.1211 183.65 26.022 201.736 26.022C219.822 26.022 234.539 36.1223 234.539 48.5252C234.539 60.9281 219.824 71.0371 201.736 71.0371C199.045 71.0384 196.358 70.8096 193.706 70.3531C190.348 75.6761 185.334 79.7476 179.434 81.9406C179.316 81.9864 179.187 81.9947 179.064 81.9643C178.942 81.9339 178.831 81.8663 178.748 81.7707C178.665 81.6751 178.614 81.5563 178.601 81.4304C178.588 81.3045 178.615 81.1778 178.677 81.0675ZM201.736 27.25C184.325 27.25 170.162 36.7977 170.162 48.5338C170.162 55.4266 175.16 61.9191 183.53 65.9138C183.627 65.9602 183.711 66.0315 183.772 66.1206C183.833 66.2096 183.87 66.3133 183.878 66.421C184.137 71.1939 183.009 75.9396 180.629 80.0851C185.721 77.8695 189.996 74.1234 192.861 69.367C193.365 68.5074 194.432 69.8115 201.732 69.8115C219.143 69.8115 233.307 60.2638 233.307 48.5277C233.307 36.7916 219.147 27.2451 201.736 27.2451V27.25Z" fill="#000001"/>
<path d="M21.6387 27.5146H54.1686V48.6708H21.6387V27.5146Z" fill="white"/>
<path d="M54.1681 49.2845H21.6394C21.4766 49.2845 21.3204 49.2198 21.2052 49.1047C21.0901 48.9896 21.0254 48.8334 21.0254 48.6705V27.5144C21.0254 27.3516 21.0901 27.1954 21.2052 27.0802C21.3204 26.9651 21.4766 26.9004 21.6394 26.9004H54.1681C54.331 26.9004 54.4871 26.9651 54.6023 27.0802C54.7174 27.1954 54.7821 27.3516 54.7821 27.5144V48.6705C54.7821 48.8334 54.7174 48.9896 54.6023 49.1047C54.4871 49.2198 54.331 49.2845 54.1681 49.2845ZM22.2534 48.0565H53.5541V28.1284H22.2534V48.0565Z" fill="#000001"/>
<path d="M182.176 36.8149H220.54V61.7656H182.176V36.8149Z" fill="#81F889"/>
<path fill-rule="evenodd" clip-rule="evenodd" d="M198.888 36.8149L198.976 45.2686L186.744 36.8149H182.175V39.6627L194.751 47.1462L182.17 46.9251V51.4172H194.874L182.181 57.8814V61.7656H186.76L199.089 53.3182V61.7656H203.51V53.204L215.749 61.7656H220.539V57.8041L207.811 51.2649L220.539 51.4197V46.9522H207.823L220.539 39.5043V36.8149H214.388L204.003 45.0794V36.8149H198.888Z" fill="white"/>
<path fill-rule="evenodd" clip-rule="evenodd" d="M182.176 37.7421V36.8149H183.781L200.496 47.7958L200.237 36.8149H202.12V47.7958L219.289 36.8149H220.54V37.6917L203.381 48.4884H220.54V49.6624H203.376L220.54 60.8544V61.7656H219.597L202.12 50.5085V61.7656H200.008L200.166 50.7209L183.125 61.7656H182.176V60.7218L199.234 49.768H182.176V48.6984H199.447L182.176 37.7421Z" fill="white"/>
<path d="M220.539 62.3799H182.175C182.012 62.3799 181.856 62.3152 181.74 62.2C181.625 62.0849 181.561 61.9287 181.561 61.7659V36.8152C181.561 36.6523 181.625 36.4962 181.74 36.381C181.856 36.2659 182.012 36.2012 182.175 36.2012H220.539C220.702 36.2012 220.858 36.2659 220.973 36.381C221.088 36.4962 221.153 36.6523 221.153 36.8152V61.7659C221.153 61.9287 221.088 62.0849 220.973 62.2C220.858 62.3152 220.702 62.3799 220.539 62.3799ZM182.789 61.1519H219.925V37.4292H182.789V61.1519Z" fill="#000001"/>
<path d="M30.5085 32.5859H29.0914L28.6542 31.2351C28.6042 31.122 28.5223 31.0259 28.4187 30.9584C28.315 30.8909 28.194 30.855 28.0703 30.855C27.9466 30.855 27.8256 30.8909 27.7219 30.9584C27.6183 31.0259 27.5364 31.122 27.4864 31.2351L27.048 32.5859H25.6321C25.5038 32.5874 25.3793 32.6291 25.2759 32.705C25.1726 32.7809 25.0956 32.8873 25.0557 33.0092C25.0159 33.1311 25.0153 33.2624 25.0539 33.3847C25.0925 33.507 25.1684 33.6142 25.2711 33.6911L26.4168 34.5249L25.9784 35.8757C25.9381 35.9991 25.938 36.1322 25.9781 36.2556C26.0182 36.3791 26.0963 36.4867 26.2014 36.563C26.3065 36.6393 26.433 36.6803 26.5628 36.6801C26.6926 36.68 26.8191 36.6387 26.9239 36.5622L28.0697 35.7296L29.2166 36.5622C29.3216 36.6382 29.4478 36.6791 29.5774 36.6789C29.7069 36.6788 29.8331 36.6378 29.9379 36.5616C30.0427 36.4854 30.1207 36.3781 30.1608 36.2549C30.2008 36.1317 30.2009 35.999 30.161 35.8757L29.7238 34.5249L30.8695 33.6911C30.9722 33.6142 31.0481 33.507 31.0867 33.3847C31.1253 33.2624 31.1247 33.1311 31.0849 33.0092C31.045 32.8873 30.968 32.7809 30.8647 32.705C30.7613 32.6291 30.6368 32.5874 30.5085 32.5859Z" fill="white"/>
<path d="M32.988 30.4737C32.907 30.2219 32.6823 30.2612 32.3605 30.2612C32.2537 29.937 32.2291 29.7295 31.9639 29.7295C31.6986 29.7295 31.6679 29.9554 31.5685 30.2612C31.1927 30.2612 31.0208 30.2256 30.941 30.4737C30.8611 30.7217 31.0724 30.8322 31.3241 31.014C31.2087 31.3726 31.1215 31.5248 31.3315 31.6771C31.5415 31.8294 31.7465 31.6378 31.9639 31.4794C32.1984 31.6489 32.2795 31.7361 32.417 31.7361C32.4655 31.7361 32.5132 31.7247 32.5564 31.7027C32.5996 31.6807 32.6369 31.6489 32.6654 31.6097C32.6939 31.5706 32.7128 31.5252 32.7204 31.4774C32.728 31.4295 32.7242 31.3806 32.7093 31.3345L32.6061 31.014C32.9095 30.7905 33.0703 30.7193 32.988 30.4737Z" fill="#000001"/>
<path d="M35.1735 32.168C35.0925 31.9224 34.869 31.9556 34.5472 31.9556C34.4392 31.6314 34.4146 31.4238 34.1494 31.4238C33.8841 31.4238 33.8534 31.6498 33.7539 31.9556C33.3782 31.9556 33.2063 31.9199 33.1264 32.168C33.0466 32.4161 33.2591 32.5266 33.5096 32.7083C33.3941 33.0669 33.307 33.2192 33.5182 33.3714C33.7294 33.5237 33.9332 33.3322 34.1494 33.1737C34.3839 33.3432 34.465 33.4304 34.6037 33.4304C34.6522 33.4303 34.7 33.4187 34.7431 33.3966C34.7862 33.3745 34.8235 33.3425 34.8519 33.3032C34.8803 33.2639 34.899 33.2184 34.9065 33.1705C34.9139 33.1226 34.9099 33.0737 34.8948 33.0276L34.7916 32.7083C35.0949 32.4873 35.2558 32.4148 35.1735 32.168Z" fill="#000001"/>
<path d="M35.1741 35.1104C35.093 34.8648 34.8695 34.8979 34.5478 34.8979C34.4397 34.5737 34.4152 34.3662 34.1499 34.3662C33.8847 34.3662 33.854 34.5922 33.7545 34.8979C33.3787 34.8979 33.2068 34.8636 33.127 35.1104C33.0472 35.3572 33.2498 35.4591 33.5101 35.6519C33.3947 36.0093 33.3075 36.1628 33.5187 36.3151C33.7299 36.4673 33.9338 36.2758 34.1499 36.1174C34.3845 36.2868 34.4655 36.374 34.6043 36.374C34.6528 36.3739 34.7005 36.3623 34.7437 36.3402C34.7868 36.3181 34.8241 36.2861 34.8525 36.2468C34.8809 36.2075 34.8996 36.1621 34.907 36.1142C34.9144 36.0663 34.9104 36.0173 34.8953 35.9712L34.7922 35.6519L35.0636 35.4542C35.1161 35.4161 35.1551 35.3622 35.175 35.3004C35.1949 35.2385 35.1946 35.172 35.1741 35.1104Z" fill="#000001"/>
<path d="M32.988 37.0298C32.907 36.7842 32.6823 36.8174 32.3605 36.8174C32.2537 36.4932 32.2291 36.2856 31.9639 36.2856C31.6986 36.2856 31.6679 36.5116 31.5685 36.8174C31.1927 36.8174 31.0208 36.7818 30.941 37.0298C30.8611 37.2779 31.0724 37.3884 31.3241 37.5701C31.2087 37.9287 31.1215 38.081 31.3315 38.2333C31.5415 38.3855 31.7465 38.194 31.9639 38.0356C32.1984 38.205 32.2795 38.2922 32.417 38.2922C32.4656 38.2923 32.5135 38.2809 32.5568 38.2588C32.6001 38.2368 32.6376 38.2048 32.6661 38.1655C32.6946 38.1262 32.7134 38.0807 32.7209 38.0327C32.7284 37.9847 32.7244 37.9356 32.7093 37.8894L32.6061 37.5701C32.9095 37.3503 33.0703 37.2766 32.988 37.0298Z" fill="#000001"/>
<path d="M116.782 61.5756C124.016 62.4335 131.294 60.3826 137.015 55.8742C142.737 51.3658 146.433 44.7692 147.291 37.5355C148.149 30.3019 146.098 23.0237 141.59 17.3022C137.081 11.5806 130.485 7.88439 123.251 7.02656C119.669 6.60181 116.039 6.8867 112.567 7.86495C109.095 8.84321 105.851 10.4957 103.018 12.728C97.296 17.2364 93.5997 23.833 92.7419 31.0667C92.3171 34.6484 92.602 38.2787 93.5803 41.7504C94.5585 45.222 96.211 48.467 98.4433 51.3C100.676 54.133 103.444 56.4986 106.591 58.2617C109.737 60.0248 113.2 61.1509 116.782 61.5756Z" fill="white"/>
<path fill-rule="evenodd" clip-rule="evenodd" d="M119.766 6.77344C119.766 6.77344 115.262 7.3506 116.303 8.50247C117.344 9.65435 116.722 11.3736 115.178 12.2749C113.635 13.1763 114.184 13.6134 115.792 13.8799C117.401 14.1464 112.52 17.9606 116.712 17.9569C120.904 17.9532 124.547 17.1796 123.115 14.6253C121.683 12.0711 119.869 11.6007 122.708 10.0952C125.548 8.58966 125.006 7.43411 122.689 7.07921C121.726 6.89017 120.747 6.78783 119.766 6.77344Z" fill="#81F889"/>
<path fill-rule="evenodd" clip-rule="evenodd" d="M92.6699 31.7676C94.6839 15.0667 109.168 9.06543 109.168 9.06543C109.168 9.06543 113.466 9.63891 112.448 11.2415C111.43 12.844 109.378 12.8379 110.266 14.6639C111.154 16.49 111.726 16.5465 109.2 17.2968C106.674 18.0471 103.097 18.4855 102.305 19.867C101.513 21.2485 101.547 21.2362 102.909 21.7422C104.271 22.2481 104.892 21.9878 103.221 23.4614C101.55 24.935 101.902 26.2772 99.9262 26.8052C97.9504 27.3333 96.4436 28.5797 97.1165 30.4168C97.7895 32.2539 100.862 31.7492 101.087 35.044C101.087 35.044 103.982 32.5879 105.808 34.3072C107.634 36.0264 109.124 35.9036 111.118 36.8221C113.113 37.7407 113.665 38.7869 112.83 40.4681C111.995 42.1492 110.878 45.4722 111.797 46.99C112.717 48.5079 109.219 50.0674 108.097 53.0429C106.976 56.0184 109.91 58.2128 110.294 59.9983C110.294 59.9983 107.243 58.8317 106.329 57.0867C105.415 55.3417 102.463 56.4175 101.342 53.248C100.221 50.0785 100.32 49.2754 99.3245 47.2307C98.3286 45.1861 99.1489 44.5463 98.4035 43.3539C97.6581 42.1615 96.4055 41.5978 97.6998 39.4771C98.9942 37.3563 99.9225 36.6355 98.8308 35.3694C97.7391 34.1033 92.751 36.6637 92.6699 31.7676Z" fill="#81F889"/>
<path fill-rule="evenodd" clip-rule="evenodd" d="M131.041 55.1958C131.678 55.6207 132.392 55.046 133.944 53.9543C135.362 53.1379 136.676 52.1533 137.858 51.0218C139.721 49.2093 140.784 49.1687 140.896 47.4201C141.008 45.6714 139.804 44.8044 141.279 43.0545C142.754 41.3046 143.472 40.3467 143.056 38.0798C142.64 35.8129 142.215 35.808 142.541 34.0065C142.868 32.205 143.033 31.0507 141.425 29.8313C139.818 28.6119 139.706 30.1076 137.505 29.2468C135.608 28.4316 133.469 28.3806 131.535 29.1043C129.795 29.7883 128.268 27.6503 126.746 29.1682C125.223 30.686 126.081 31.4044 124.29 31.9643C122.498 32.5243 119.242 34.1821 120.114 36.0868C120.986 37.9914 120.343 38.8682 121.687 41.027C123.032 43.1859 124.053 44.5797 125.875 44.1241C127.697 43.6685 128.292 44.1523 129.927 44.0479C131.563 43.9436 132.165 43.6587 132.62 45.7536C133.076 47.8486 135.008 47.2788 134.41 48.54C133.812 49.8012 132.445 50.6841 132.246 52.0239C132.047 53.3636 130.404 54.7709 131.041 55.1958Z" fill="#81F889"/>
<path fill-rule="evenodd" clip-rule="evenodd" d="M147.484 34.3C147.436 20.7539 136.572 12.3887 136.572 12.3887C136.313 12.8537 136.179 13.3777 136.183 13.9099C136.186 14.442 136.327 14.9641 136.592 15.4255C137.495 17.0981 137.801 18.7534 136.854 18.2745C135.907 17.7956 135.476 17.604 134.903 19.0371C134.329 20.4702 133.657 17.9233 132.919 19.2827C132.181 20.6421 132.864 22.6806 131.17 22.0163C129.475 21.3519 129.84 23.1534 128.608 23.1436C127.376 23.1338 124.619 25.3601 125.936 26.0441C127.252 26.7281 127.503 25.2447 129.24 26.1436C130.978 27.0425 132.131 26.8239 133.206 25.4228C134.28 24.0216 134.534 22.9987 135.991 23.6127C137.447 24.2267 138.821 22.0543 139.973 22.7531C141.125 23.4518 141.324 25.7985 143.586 25.3798C145.848 24.961 143.009 28.0384 144.814 29.7085C146.619 31.3786 144.452 33.158 147.484 34.3Z" fill="#81F889"/>
<path d="M120.016 62.3795C114.463 62.3798 109.034 60.7331 104.416 57.6479C99.798 54.5626 96.1988 50.1772 94.0734 45.0464C91.9479 39.9155 91.3916 34.2696 92.475 28.8226C93.5583 23.3756 96.2325 18.3721 100.159 14.445C104.086 10.5179 109.09 7.84342 114.537 6.75986C119.984 5.6763 125.63 6.2323 130.761 8.35755C135.892 10.4828 140.277 14.0818 143.363 18.6995C146.448 23.3172 148.095 28.7462 148.095 34.2999C148.087 41.7444 145.126 48.8816 139.862 54.1458C134.598 59.41 127.461 62.3711 120.016 62.3795ZM120.016 7.44946C114.706 7.44922 109.514 9.02387 105.098 11.9743C100.682 14.9247 97.2403 19.1183 95.2078 24.0249C93.1753 28.9314 92.6434 34.3305 93.6795 39.5393C94.7155 44.7481 97.2729 49.5327 101.028 53.2881C104.784 57.0434 109.568 59.6008 114.777 60.6369C119.986 61.6729 125.385 61.1411 130.291 59.1086C135.198 57.0761 139.392 53.6342 142.342 49.2183C145.292 44.8024 146.867 39.6107 146.867 34.2999C146.859 27.1812 144.027 20.3564 138.994 15.3227C133.96 10.2891 127.135 7.45759 120.016 7.44946Z" fill="#000001"/>
<path fill-rule="evenodd" clip-rule="evenodd" d="M105.973 14.5598C101.675 4.53431 101.949 5.43567 101.949 4.55887C101.967 3.50393 102.399 2.49842 103.152 1.75889C103.904 1.01936 104.917 0.60498 105.972 0.60498C107.027 0.60498 108.04 1.01936 108.793 1.75889C109.546 2.49842 109.978 3.50393 109.996 4.55887C109.996 5.78074 109.858 5.17656 105.973 14.5598Z" fill="white"/>
<path d="M105.411 14.8019C101.568 5.66056 101.338 6.03633 101.338 4.56272C101.358 3.34583 101.855 2.18548 102.723 1.33192C103.59 0.478363 104.758 0 105.975 0C107.193 0 108.361 0.478363 109.228 1.33192C110.096 2.18548 110.593 3.34583 110.613 4.56272C110.613 5.60285 110.794 4.91148 106.541 14.8055C106.493 14.9162 106.414 15.0103 106.314 15.0764C106.213 15.1425 106.095 15.1775 105.975 15.1771C105.854 15.1767 105.737 15.1409 105.637 15.0742C105.536 15.0075 105.458 14.9128 105.411 14.8019ZM102.625 5.18901L105.976 13.0016C109.319 4.93113 109.385 5.54513 109.385 4.56272C109.384 4.08884 109.285 3.62031 109.093 3.18705C108.901 2.75379 108.621 2.36532 108.27 2.04643C107.92 1.72754 107.506 1.48524 107.057 1.33499C106.607 1.18475 106.132 1.12986 105.66 1.17383C105.188 1.2178 104.73 1.35966 104.317 1.59036C103.903 1.82107 103.541 2.13554 103.256 2.51371C102.97 2.89188 102.767 3.32543 102.658 3.7867C102.549 4.24798 102.538 4.72683 102.625 5.19269V5.18901Z" fill="#000001"/>
<path d="M104.141 4.55881C104.141 5.04734 104.335 5.51587 104.68 5.86131C105.026 6.20676 105.494 6.40083 105.983 6.40083C106.471 6.40083 106.94 6.20676 107.285 5.86131C107.631 5.51587 107.825 5.04734 107.825 4.55881C107.825 4.07028 107.631 3.60175 107.285 3.25631C106.94 2.91087 106.471 2.7168 105.983 2.7168C105.494 2.7168 105.026 2.91087 104.68 3.25631C104.335 3.60175 104.141 4.07028 104.141 4.55881Z" fill="#000001"/>
<path fill-rule="evenodd" clip-rule="evenodd" d="M108.34 41.3045L104.399 50.49L100.458 41.3045C100.337 40.7194 100.348 40.1148 100.491 39.5346C100.633 38.9543 100.902 38.413 101.28 37.9499C101.657 37.4868 102.133 37.1135 102.672 36.8571C103.212 36.6008 103.802 36.4678 104.399 36.4678C104.997 36.4678 105.586 36.6008 106.126 36.8571C106.666 37.1135 107.141 37.4868 107.519 37.9499C107.896 38.413 108.166 38.9543 108.308 39.5346C108.45 40.1148 108.461 40.7194 108.34 41.3045Z" fill="white"/>
<path d="M104.398 35.855C103.168 35.8566 101.989 36.3458 101.12 37.2153C100.251 38.0849 99.7619 39.2637 99.7606 40.4932C99.7606 41.5321 99.4523 40.5472 103.833 50.7348C103.88 50.8455 103.959 50.94 104.059 51.0064C104.159 51.0727 104.277 51.1081 104.398 51.1081C104.518 51.1081 104.636 51.0727 104.736 51.0064C104.837 50.94 104.915 50.8455 104.962 50.7348C109.248 40.767 109.036 41.5394 109.036 40.4932C109.034 39.2634 108.545 38.0845 107.676 37.2149C106.806 36.3454 105.627 35.8563 104.398 35.855ZM104.398 48.9357C100.787 40.519 100.989 41.1993 100.989 40.4932C100.98 40.04 101.062 39.5896 101.229 39.1684C101.397 38.7472 101.647 38.3636 101.964 38.0401C102.281 37.7165 102.66 37.4595 103.078 37.2841C103.496 37.1086 103.945 37.0183 104.398 37.0183C104.851 37.0183 105.3 37.1086 105.718 37.2841C106.136 37.4595 106.515 37.7165 106.832 38.0401C107.15 38.3636 107.399 38.7472 107.567 39.1684C107.734 39.5896 107.816 40.04 107.808 40.4932C107.806 41.4731 107.748 40.8517 104.398 48.9357Z" fill="#000001"/>
<path d="M102.564 40.4929C102.564 40.9814 102.759 41.4499 103.104 41.7954C103.449 42.1408 103.918 42.3349 104.406 42.3349C104.895 42.3349 105.364 42.1408 105.709 41.7954C106.054 41.4499 106.248 40.9814 106.248 40.4929C106.248 40.0044 106.054 39.5358 105.709 39.1904C105.364 38.845 104.895 38.6509 104.406 38.6509C103.918 38.6509 103.449 38.845 103.104 39.1904C102.759 39.5358 102.564 40.0044 102.564 40.4929Z" fill="#000001"/>
<path fill-rule="evenodd" clip-rule="evenodd" d="M66.9306 68.4196C66.9306 68.4196 51.061 64.8449 46.284 77.8163C41.5071 90.7878 47.2505 95.6139 42.627 99.9205C39.7329 102.711 37.4381 106.063 35.8828 109.77C35.8828 109.77 63.8347 122.209 92.2484 110.21C92.2484 110.21 83.6794 95.9859 84.1436 84.4353C84.6078 72.8846 77.4374 67.3979 66.9306 68.4196Z" fill="white"/>
<path fill-rule="evenodd" clip-rule="evenodd" d="M57.7725 120.625C57.716 120.768 55.1483 124.512 55.7795 126.396C55.895 126.615 56.0542 126.807 56.2472 126.962C56.4402 127.116 56.6629 127.23 56.9015 127.294C57.1401 127.359 57.3895 127.374 57.6342 127.339C57.8789 127.303 58.1137 127.218 58.3239 127.088C60.0898 126.121 60.9506 122.804 61.0108 122.681C59.7883 122.252 58.6805 121.549 57.7725 120.625Z" fill="white"/>
<path fill-rule="evenodd" clip-rule="evenodd" d="M52.3085 121.53C54.5349 122.137 56.6496 119.914 57.0683 119.811C56.1992 118.64 55.611 117.285 55.3491 115.851C54.9426 116.042 53.9062 116.535 52.4657 117.227C51.0437 117.907 50.8791 121.142 52.3085 121.53Z" fill="white"/>
<path fill-rule="evenodd" clip-rule="evenodd" d="M75.9101 116.531C75.7769 118.066 75.0805 119.497 73.9551 120.548C75.3292 121.344 77.8294 122.351 78.9825 121.793C79.1905 121.675 79.3643 121.505 79.487 121.3C79.6096 121.094 79.677 120.861 79.6825 120.622C80.0116 118.183 76.8176 116.857 75.9101 116.531Z" fill="white"/>
<path fill-rule="evenodd" clip-rule="evenodd" d="M67.9455 123.137C66.0304 123.455 64.0728 123.411 62.1738 123.008C62.1738 123.428 62.2303 126.279 63.6204 127.695C64.106 128.191 64.7683 128.474 65.4621 128.482C66.156 128.49 66.8247 128.222 67.3216 127.738C68.3421 126.504 68.0462 124.247 67.9455 123.137Z" fill="white"/>
<path fill-rule="evenodd" clip-rule="evenodd" d="M73.0163 121.312C71.8527 122.102 70.543 122.651 69.1641 122.927C69.5902 123.68 71.9394 127.61 74.5513 127.24C75.4466 127.117 75.3913 126.347 75.0794 125.329C74.5659 123.907 73.8726 122.557 73.0163 121.312Z" fill="white"/>
<path d="M65.7044 116.007C55.4144 116.015 45.2146 114.089 35.6353 110.331C35.4917 110.267 35.3782 110.15 35.3181 110.005C35.258 109.86 35.2559 109.697 35.3124 109.55C36.8935 105.752 39.2418 102.32 42.2101 99.4707C46.4455 95.5252 40.9698 90.4805 45.7099 77.6048C50.4107 64.8335 65.5742 67.5192 66.9643 67.7955C78.1662 66.7455 85.226 72.9335 84.7631 84.4596C84.3111 95.6971 92.6948 109.757 92.7795 109.894C92.8248 109.969 92.8533 110.054 92.8632 110.141C92.8731 110.228 92.8642 110.317 92.8369 110.4C92.8097 110.484 92.7648 110.561 92.7053 110.626C92.6458 110.69 92.5731 110.742 92.4922 110.776C84.0032 114.296 74.8938 116.075 65.7044 116.007ZM36.6914 109.441C40.7205 111.059 65.9291 120.319 91.3685 109.912C89.7169 107.023 83.1188 94.7859 83.535 84.4104C83.9649 73.7047 77.6099 67.9993 66.9901 69.0272C66.6941 69.0493 51.527 65.3554 46.8618 78.0285C42.1229 90.9103 47.9891 95.7658 43.0464 100.37C40.3697 102.961 38.2128 106.04 36.6914 109.441Z" fill="#000001"/>
<path fill-rule="evenodd" clip-rule="evenodd" d="M55.1801 105.602L55.282 115.426C55.282 115.426 55.9181 123.612 65.6697 123.332C75.8377 123.042 75.9076 116.541 75.9076 116.541L75.1561 107.015C77.4991 102.97 78.8942 92.8414 77.4893 86.1795C76.0083 79.1602 73.2674 73.7766 66.3857 73.5948C60.2812 71.7995 55.5792 84.0611 52.3729 87.9466C51.7035 91.7681 51.888 95.6903 52.9132 99.4321C53.5022 101.546 54.2603 103.609 55.1801 105.602Z" fill="white"/>
<path d="M65.5345 99.8097C64.4748 99.8097 64.4048 99.3443 63.749 99.1061C63.2492 98.9268 62.774 99.6046 61.6749 99.084C60.6286 98.5928 60.8153 97.4077 61.5914 96.5383C61.7012 96.4247 61.8506 96.3579 62.0085 96.3516C62.1664 96.3454 62.3206 96.4002 62.439 96.5048C62.5575 96.6093 62.6311 96.7555 62.6445 96.9129C62.658 97.0704 62.6102 97.2269 62.5112 97.35C62.3446 97.5283 62.2288 97.7479 62.1759 97.9861C62.9017 98.2686 63.4481 97.2493 65.0004 98.4122C65.0718 98.4829 65.1592 98.5352 65.2552 98.5647C65.3512 98.5942 65.453 98.6 65.5517 98.5817C66.0663 98.5817 66.0712 97.9456 67.3851 97.9149C68.3258 97.8928 68.5432 97.7638 68.5898 97.7184C68.5462 97.546 68.4694 97.3838 68.3639 97.2407C68.3175 97.1728 68.2853 97.0962 68.2691 97.0155C68.2529 96.9349 68.2531 96.8518 68.2697 96.7713C68.2862 96.6907 68.3188 96.6143 68.3654 96.5465C68.4121 96.4788 68.4719 96.4211 68.5413 96.3769C68.6106 96.3327 68.6882 96.3029 68.7693 96.2893C68.8504 96.2756 68.9334 96.2784 69.0134 96.2975C69.0934 96.3165 69.1688 96.3515 69.2351 96.4002C69.3013 96.449 69.3571 96.5106 69.3991 96.5813C69.5963 96.8161 69.7257 97.1003 69.7733 97.4033C69.8209 97.7063 69.7849 98.0165 69.6692 98.3005C69.3008 98.998 68.3651 99.1147 67.4134 99.138C67.2876 99.126 67.1608 99.1408 67.0412 99.1814C66.9216 99.2221 66.8119 99.2876 66.7196 99.3738C66.3972 99.6693 65.9715 99.8259 65.5345 99.8097Z" fill="#000001"/>
<path fill-rule="evenodd" clip-rule="evenodd" d="M70.5047 101.465C69.0691 102.377 67.3978 102.849 65.697 102.823C64.0721 102.701 62.4626 102.424 60.8906 101.994C61.2141 103.034 61.8608 103.944 62.7366 104.591C63.6124 105.239 64.6718 105.59 65.7609 105.595C69.79 105.812 70.5047 101.465 70.5047 101.465Z" fill="white"/>
<path d="M72.6653 99.5402C72.5845 99.4234 72.4656 99.3381 72.329 99.2991C72.1924 99.26 72.0464 99.2695 71.9161 99.326C71.7857 99.3825 71.6789 99.4825 71.614 99.6089C71.5491 99.7353 71.53 99.8803 71.5601 100.019C69.4285 99.9939 67.3389 100.613 65.5649 101.795C64.273 101.198 62.8795 100.852 61.4585 100.774C61.4954 100.659 61.4976 100.536 61.4647 100.419C61.4318 100.303 61.3653 100.199 61.2735 100.12C61.1817 100.042 61.0687 99.9918 60.9487 99.9771C60.8286 99.9624 60.707 99.9834 60.5988 100.038C60.2521 100.224 59.8796 100.357 59.4936 100.434C59.3701 100.431 59.2481 100.463 59.1423 100.526C59.0365 100.59 58.9513 100.683 58.8968 100.794C58.6672 101.305 59.1498 101.629 59.6336 101.963C59.8718 102.132 60.1222 102.283 60.3827 102.415C61.8563 107.422 69.3312 107.703 71.0234 101.876C72.373 101.127 73.4843 100.844 72.6653 99.5402ZM62.0037 103.056C64.5825 103.771 66.8322 104.053 69.2182 102.884C68.8543 103.51 68.336 104.032 67.7129 104.4C67.0898 104.768 66.3827 104.971 65.6591 104.988C64.9354 105.005 64.2194 104.837 63.5795 104.499C62.9396 104.16 62.397 103.664 62.0037 103.056Z" fill="#000001"/>
<path d="M55.0196 86.797C54.8982 86.7965 54.7796 86.76 54.679 86.6921C54.5783 86.6242 54.5 86.528 54.454 86.4156C54.408 86.3032 54.3963 86.1797 54.4205 86.0607C54.4447 85.9417 54.5036 85.8326 54.5898 85.7471C55.6293 84.8056 56.8915 84.1444 58.2573 83.8258C59.6231 83.5072 61.0475 83.5416 62.3963 83.9259C62.4738 83.9483 62.5461 83.9856 62.6091 84.0359C62.6722 84.0862 62.7247 84.1484 62.7637 84.219C62.8027 84.2896 62.8274 84.3672 62.8364 84.4473C62.8455 84.5274 62.8386 84.6086 62.8163 84.6861C62.7939 84.7635 62.7565 84.8359 62.7063 84.8989C62.656 84.962 62.5938 85.0145 62.5232 85.0535C62.4526 85.0925 62.375 85.1172 62.2949 85.1262C62.2147 85.1352 62.1336 85.1284 62.0561 85.106C60.9165 84.7788 59.7124 84.7463 58.5568 85.0118C57.4012 85.2773 56.332 85.832 55.4494 86.6239C55.3343 86.7355 55.18 86.7976 55.0196 86.797Z" fill="#000001"/>
<path d="M75.7686 86.7987C75.6237 86.7994 75.4833 86.748 75.3732 86.6537C71.9262 83.7421 69.4677 84.7651 69.4419 84.7749C69.368 84.8072 69.2884 84.8245 69.2078 84.826C69.1271 84.8275 69.0469 84.8131 68.9718 84.7836C68.8968 84.7542 68.8282 84.7102 68.7701 84.6542C68.712 84.5983 68.6655 84.5314 68.6333 84.4574C68.601 84.3835 68.5836 84.3039 68.5821 84.2233C68.5806 84.1426 68.595 84.0625 68.6245 83.9874C68.654 83.9123 68.698 83.8437 68.7539 83.7857C68.8099 83.7276 68.8768 83.6811 68.9507 83.6488C69.0735 83.5923 72.1435 82.3213 76.1628 85.7156C76.2588 85.7966 76.3276 85.9052 76.36 86.0267C76.3923 86.1481 76.3866 86.2765 76.3436 86.3946C76.3006 86.5127 76.2225 86.6148 76.1196 86.687C76.0168 86.7593 75.8943 86.7982 75.7686 86.7987Z" fill="#000001"/>
<path fill-rule="evenodd" clip-rule="evenodd" d="M74.5277 88.4168C73.2334 91.2142 70.0332 89.425 70.0332 89.425C70.256 89.057 70.5509 88.7378 70.9002 88.4866C71.2494 88.2354 71.6458 88.0573 72.0656 87.9632C72.4854 87.869 72.9199 87.8606 73.343 87.9386C73.7661 88.0165 74.1691 88.1792 74.5277 88.4168Z" fill="white"/>
<path fill-rule="evenodd" clip-rule="evenodd" d="M56.9316 88.1494C58.2247 90.9468 61.5219 89.2927 61.5219 89.2927C61.5219 89.2927 59.691 86.4216 56.9316 88.1494Z" fill="white"/>
<path d="M74.8377 87.8879C74.4109 87.6102 73.9327 87.4209 73.4314 87.3313C72.9301 87.2418 72.416 87.2537 71.9194 87.3663C71.4228 87.479 70.9538 87.6902 70.5403 87.9873C70.1268 88.2844 69.777 88.6615 69.5118 89.0962C69.4304 89.2334 69.4055 89.3969 69.4425 89.552C69.4795 89.7072 69.5754 89.8419 69.7099 89.9276C69.8444 90.0133 70.007 90.0433 70.1633 90.0112C70.3196 89.9791 70.4572 89.8875 70.5471 89.7557C70.7493 89.4581 71.0005 89.1969 71.29 88.9833C71.3306 89.2714 71.4733 89.5354 71.6921 89.7272C71.911 89.919 72.1914 90.0259 72.4824 90.0283C72.8081 90.0283 73.1204 89.8989 73.3507 89.6686C73.581 89.4383 73.7104 89.126 73.7104 88.8003C73.7104 88.7635 73.692 88.7328 73.6895 88.6971C73.8686 88.7649 74.0419 88.847 74.2078 88.9427C74.2772 88.9839 74.354 89.0109 74.4339 89.0223C74.5138 89.0338 74.5951 89.0293 74.6733 89.0093C74.7515 88.9893 74.8249 88.9541 74.8895 88.9057C74.954 88.8573 75.0084 88.7967 75.0495 88.7272C75.0907 88.6578 75.1177 88.581 75.1291 88.5011C75.1406 88.4212 75.1361 88.3399 75.1161 88.2617C75.0961 88.1835 75.0609 88.1101 75.0125 88.0455C74.9641 87.9809 74.9035 87.9265 74.834 87.8854L74.8377 87.8879Z" fill="#000001"/>
<path d="M61.9455 88.8302C61.6812 88.3945 61.3319 88.0166 60.9184 87.7187C60.5049 87.4209 60.0358 87.2093 59.5388 87.0966C59.0419 86.9838 58.5274 86.9722 58.0259 87.0625C57.5244 87.1527 57.0461 87.3429 56.6197 87.6218C56.5502 87.6629 56.4896 87.7173 56.4412 87.7819C56.3928 87.8464 56.3576 87.9199 56.3376 87.9981C56.3175 88.0762 56.3131 88.1576 56.3245 88.2375C56.336 88.3173 56.363 88.3942 56.4041 88.4636C56.4453 88.533 56.4997 88.5937 56.5642 88.6421C56.6288 88.6905 56.7022 88.7257 56.7804 88.7457C56.8586 88.7657 56.9399 88.7701 57.0198 88.7587C57.0997 88.7473 57.1765 88.7202 57.2459 88.6791C57.4118 88.5834 57.5851 88.5013 57.7642 88.4335C57.7642 88.4691 57.7433 88.4998 57.7433 88.5367C57.7433 88.8624 57.8727 89.1747 58.103 89.405C58.3333 89.6353 58.6456 89.7647 58.9713 89.7647C59.2625 89.7617 59.5429 89.6546 59.7619 89.4626C59.9809 89.2707 60.1238 89.0067 60.1649 88.7184C60.4519 88.9334 60.701 89.1949 60.9017 89.4921C60.9452 89.5606 61.0017 89.6199 61.0681 89.6666C61.1345 89.7133 61.2094 89.7464 61.2886 89.7642C61.3678 89.7819 61.4497 89.7839 61.5297 89.7699C61.6096 89.756 61.686 89.7265 61.7546 89.683C61.8231 89.6396 61.8824 89.583 61.9291 89.5166C61.9758 89.4503 62.009 89.3753 62.0267 89.2961C62.0444 89.2169 62.0464 89.135 62.0325 89.0551C62.0185 88.9751 61.989 88.8987 61.9455 88.8302Z" fill="#000001"/>
<path d="M75.7401 107.184C78.018 103.396 79.4965 93.1724 78.0929 86.0622C78.0798 86.0197 78.0625 85.9786 78.0414 85.9394C75.2955 72.8476 67.941 72.8611 66.4981 73.006C65.7914 72.6921 64.9952 72.6437 64.2557 72.8697C62.3928 73.3425 60.3372 75.047 58.1415 77.9328C53.0379 84.6439 53.2835 85.8277 51.9327 87.4855C51.9067 87.5236 51.8857 87.5649 51.87 87.6083L51.8553 87.6353C51.8492 87.65 51.7767 87.8072 51.7706 87.8392C51.0815 91.7617 51.2728 95.7884 52.3305 99.628C52.9331 101.784 53.7135 103.886 54.6637 105.913V115.178C54.6762 117.447 55.5737 119.621 57.1652 121.239C59.0072 123.051 61.6941 123.966 65.1657 123.966C68.6581 123.966 72.7057 123.207 74.921 120.528C76.0243 119.212 76.5663 117.515 76.4302 115.803L75.7401 107.184ZM53.4959 99.2425C52.5178 95.6292 52.3352 91.8467 52.9605 88.156C54.466 86.255 54.0571 85.3217 59.1116 78.6758C63.6798 72.6757 65.9884 74.1321 65.9884 74.1321C66.0581 74.1839 66.1377 74.2207 66.2222 74.2401C66.3068 74.2595 66.3944 74.2612 66.4797 74.2451C66.7916 74.1911 74.1117 72.9631 76.8612 86.3091C78.2992 93.6304 76.6034 103.295 74.7294 106.505C74.6129 106.596 74.5346 106.727 74.5096 106.873C72.0806 110.339 65.2873 111.115 60.5803 109.378C55.7984 107.611 55.1758 104.391 53.4959 99.2425ZM73.9595 119.76C72.4858 121.527 69.8739 122.519 66.1948 122.707C62.5623 122.903 59.8091 122.109 58.0383 120.374C56.6933 118.985 55.9265 117.137 55.893 115.204V107.716C59.9798 112.442 70.2423 112.751 74.6201 108.575C74.6312 108.698 75.2219 115.8 75.212 115.926C75.3034 117.319 74.8548 118.693 73.9595 119.764V119.76Z" fill="#000001"/>
<path fill-rule="evenodd" clip-rule="evenodd" d="M33.7944 184.236L89.8113 184.893L94.6766 140.93C94.6766 140.93 47.542 140.233 30.1055 142.233L33.7944 184.236Z" fill="white"/>
<path d="M89.8122 185.507L33.7867 184.85C33.6345 184.849 33.4884 184.79 33.3768 184.687C33.2651 184.583 33.1959 184.442 33.1825 184.29L29.4985 142.292C29.4843 142.133 29.5332 141.974 29.6346 141.85C29.736 141.726 29.882 141.646 30.0413 141.628C47.3132 139.645 94.2158 140.314 94.691 140.322C94.7765 140.323 94.8607 140.342 94.9383 140.378C95.0159 140.413 95.0852 140.465 95.1417 140.529C95.4205 140.846 95.6477 138.019 90.4274 184.963C90.4101 185.114 90.3377 185.253 90.2241 185.353C90.1105 185.454 89.9638 185.509 89.8122 185.507ZM34.3565 183.628L89.2632 184.273L93.9935 141.538C88.2219 141.465 47.2469 141.015 30.7707 142.781L34.3565 183.628Z" fill="#000001"/>
<path d="M83.8973 89.6364C83.8403 88.9527 83.5453 88.3107 83.0638 87.822C82.5823 87.3333 81.9447 87.0289 81.262 86.9618C81.5076 84.62 82.0099 76.1221 77.1482 70.6808C74.2832 67.4733 70.0761 65.9383 64.6642 66.1384C59.051 66.3398 54.7935 68.1978 52.0157 71.6645C47.6317 77.1205 48.2715 84.7845 48.5638 86.9679C47.8835 87.037 47.2489 87.3421 46.77 87.8302C46.2911 88.3183 45.9982 88.9586 45.942 89.6401C45.8081 92.6143 45.1598 100.858 47.8958 101.702C50.256 102.431 52.8483 102.093 52.7243 99.7245C52.6371 98.0286 52.4713 92.8857 52.4504 92.2471C52.6346 91.2242 53.0497 88.1763 51.6658 87.3007C51.5012 87.1993 51.3257 87.1169 51.1426 87.0551C50.8749 85.4341 50.0018 78.4873 53.7128 73.703C56.035 70.7115 59.7362 69.0881 64.7183 68.8781C69.4535 68.6816 73.0798 69.9538 75.4498 72.669C79.6251 77.4582 78.8134 85.3641 78.5751 87.0969C78.4372 87.1506 78.3044 87.2168 78.1785 87.2946C76.7945 88.1701 77.2108 91.2181 77.3938 92.241C77.3741 92.882 77.2071 98.0225 77.1199 99.7183C76.9971 102.092 79.5944 102.42 81.9484 101.695C84.666 100.858 84.041 92.7555 83.8973 89.6364Z" fill="#000001"/>
<path fill-rule="evenodd" clip-rule="evenodd" d="M129.024 92.8282L132.6 98.3236L136.744 78.4716C145.006 80.6875 153.725 80.5275 161.899 78.0098C161.852 79.6622 162.101 81.3097 162.636 82.874C163.478 84.9002 166.226 94.1717 166.843 95.6023C169.114 90.3737 169.422 84.5014 167.712 79.0635C166.293 75.7479 163.446 63.2148 141.31 68.871C127.636 73.3311 129.024 92.8282 129.024 92.8282Z" fill="#81F889"/>
<path fill-rule="evenodd" clip-rule="evenodd" d="M115.456 208.443C115.456 208.443 85.0447 212.725 81.8728 202.426C78.7008 192.126 89.6939 152.928 105.53 143.102C121.367 133.275 133.201 124.867 133.201 124.867L134.877 117.085L136.389 124.867H162.536L163.991 116.693L167.26 124.867C167.26 124.867 193.593 130.16 204.418 143.705C215.243 157.25 234.98 191.861 224.818 199.779C214.656 207.697 192.871 206.974 192.871 206.974L115.456 208.443Z" fill="white"/>
<path fill-rule="evenodd" clip-rule="evenodd" d="M135.325 117.3C135.325 117.3 134.128 135.054 149.985 139.895C149.985 139.895 163.938 134.86 163.326 117.763C166.577 112.959 167.369 102.747 166.658 96.631C165.867 89.8402 161.888 81.9723 161.901 78.0107C145.593 81.7672 136.746 78.4725 136.746 78.4725C136.746 78.4725 134.811 85.9007 133.515 93.5242C132.22 101.148 131.55 100.885 132.333 106.113C132.949 110.246 132.82 114.124 135.325 117.3Z" fill="white"/>
<path d="M167.267 96.5745C166.636 89.5356 162.022 81.3349 162.505 78.1003C162.521 78.0043 162.514 77.9056 162.483 77.8132C162.452 77.7208 162.399 77.6374 162.328 77.5704C162.257 77.5035 162.171 77.4551 162.077 77.4295C161.983 77.4039 161.884 77.4019 161.789 77.4237C159.878 77.7221 145.319 80.8842 137.093 77.9444C136.563 77.7553 136.243 77.964 136.151 78.3128C136.13 78.3877 134.193 85.854 132.906 93.4173C131.619 100.981 130.928 100.861 131.724 106.2C132.544 111.718 132.147 116.526 137.585 120.171C142.281 123.322 144.501 125.472 149.217 125.472C155.615 125.472 162.822 121.599 165.148 115.6C167.438 109.699 167.744 101.903 167.267 96.5745ZM164.003 115.158C161.888 120.61 155.553 123.835 150.387 124.203C145.293 124.563 143.624 122.747 138.268 119.153C134.14 116.386 133.733 112.776 133.26 108.592C132.637 103.042 132.203 103.279 133.194 98.4742C134.37 92.7947 134.753 88.8958 137.182 79.2338C143.948 81.4147 154.458 80.1695 161.251 78.7696C161.368 82.7385 165.468 90.2613 166.04 96.6789C166.506 101.873 166.216 109.453 164.003 115.158Z" fill="#000001"/>
<path fill-rule="evenodd" clip-rule="evenodd" d="M156.601 142.646C152.549 139.065 148.385 138.997 144.102 142.646C145.135 145.985 146.397 149.25 147.878 152.417L145.988 156.224L155.646 155.988L153.875 152.196L156.601 142.646Z" fill="#81F889"/>
<path d="M130.051 130.744C129.961 130.609 129.82 130.516 129.66 130.484C129.501 130.453 129.335 130.486 129.2 130.576C124.566 133.678 112.131 143.674 109.381 145.893C108.667 144.788 108.161 144.063 108.097 143.973C108 143.846 107.859 143.762 107.701 143.737C107.544 143.713 107.384 143.751 107.254 143.843C107.124 143.935 107.035 144.074 107.005 144.23C106.975 144.386 107.007 144.548 107.095 144.681C114.266 154.961 113.09 157.907 114.346 157.907C114.441 157.907 114.535 157.885 114.62 157.842C114.704 157.8 114.778 157.739 114.836 157.663C114.893 157.587 114.932 157.5 114.949 157.406C114.967 157.313 114.963 157.217 114.937 157.126C113.743 153.535 112.098 150.11 110.041 146.933C112.554 144.905 125.229 134.707 129.883 131.592C130.017 131.501 130.11 131.361 130.141 131.203C130.173 131.044 130.14 130.879 130.051 130.744Z" fill="#000001"/>
<path d="M201.373 143.864C201.313 143.811 201.242 143.77 201.165 143.745C201.089 143.719 201.008 143.709 200.927 143.715C200.847 143.72 200.768 143.742 200.696 143.778C200.624 143.814 200.559 143.864 200.507 143.925C200.472 143.964 200.316 144.147 200.085 144.426C193.862 138.879 172.087 129.42 171.153 129.015C171.004 128.949 170.835 128.946 170.683 129.006C170.531 129.066 170.409 129.183 170.344 129.333C170.279 129.482 170.276 129.651 170.336 129.803C170.395 129.955 170.513 130.077 170.662 130.142C170.891 130.24 193.315 139.981 199.312 145.384C197.508 147.679 194.163 152.315 192.814 156.698C192.786 156.776 192.774 156.859 192.779 156.942C192.784 157.024 192.806 157.105 192.843 157.18C192.881 157.254 192.932 157.32 192.996 157.373C193.059 157.427 193.133 157.467 193.212 157.492C193.292 157.516 193.375 157.524 193.458 157.515C193.54 157.506 193.62 157.481 193.692 157.44C193.765 157.4 193.828 157.345 193.879 157.279C193.93 157.213 193.966 157.138 193.987 157.057C195.757 151.308 201.373 144.796 201.431 144.729C201.538 144.607 201.592 144.447 201.581 144.285C201.571 144.122 201.496 143.971 201.373 143.864Z" fill="#000001"/>
<path d="M204.899 143.318C194.413 130.196 170.12 124.832 167.567 124.299C167.001 121.438 166.029 118.673 164.68 116.087C164.643 116.016 164.592 115.952 164.53 115.9C164.468 115.849 164.396 115.81 164.319 115.786C164.242 115.762 164.161 115.753 164.081 115.76C164.001 115.767 163.923 115.79 163.851 115.828C163.411 116.444 163.029 117.099 162.71 117.785C163.258 132.181 151.618 138.416 149.939 139.237C134.977 134.505 135.891 118.042 135.94 117.341C135.667 116.756 135.298 116.222 134.847 115.76C134.692 115.711 134.523 115.726 134.379 115.801C134.235 115.876 134.126 116.006 134.077 116.161C133.332 118.892 132.852 121.688 132.645 124.511C131.049 125.638 119.761 133.552 105.213 142.58C89.0028 152.636 77.9937 191.89 81.2921 202.605C84.0748 211.645 106.318 210.356 115.547 209.055C115.706 209.029 115.847 208.942 115.942 208.812C116.037 208.683 116.078 208.522 116.056 208.363C116.033 208.205 115.95 208.061 115.823 207.963C115.696 207.865 115.536 207.82 115.377 207.839C115.078 207.881 85.4502 211.937 82.4661 202.244C79.331 192.06 90.4003 153.215 105.861 143.623C118.918 135.518 129.339 128.323 132.531 126.093C132.039 134.291 133.28 142.501 136.174 150.188C136.215 150.292 136.283 150.384 136.372 150.453C136.461 150.521 136.566 150.564 136.678 150.577C136.79 150.59 136.902 150.571 137.004 150.524C137.106 150.477 137.193 150.403 137.256 150.31C139.097 147.747 141.271 145.44 143.722 143.451C144.682 146.514 145.843 149.511 147.196 152.423L145.448 155.931C145.376 156.078 145.364 156.247 145.417 156.402C145.469 156.557 145.581 156.684 145.728 156.757C145.874 156.829 146.044 156.841 146.198 156.788C146.353 156.736 146.481 156.624 146.553 156.477L148.273 153.016L153.49 152.824L154.978 156.185C155.05 156.323 155.171 156.429 155.318 156.48C155.465 156.532 155.626 156.526 155.768 156.464C155.911 156.402 156.024 156.287 156.086 156.144C156.148 156.001 156.153 155.84 156.1 155.694L154.534 152.155L156.955 143.669C159.239 145.924 161.209 148.477 162.812 151.257C162.867 151.355 162.947 151.436 163.044 151.492C163.141 151.548 163.251 151.576 163.363 151.573C163.475 151.571 163.584 151.538 163.679 151.478C163.773 151.418 163.849 151.333 163.899 151.233C163.974 151.082 169.947 138.817 167.815 125.613C171.951 126.545 194.329 132.055 203.946 144.087C212.985 155.397 228.398 181.827 226.936 194.231C226.885 195.199 226.638 196.147 226.21 197.017C225.782 197.887 225.183 198.661 224.447 199.293C214.579 206.983 193.118 206.364 192.9 206.358C192.737 206.353 192.579 206.412 192.46 206.523C192.341 206.635 192.271 206.789 192.265 206.952C192.26 207.115 192.32 207.273 192.431 207.392C192.542 207.511 192.696 207.581 192.859 207.586C202.163 207.921 217.508 206.26 225.204 200.263C236.446 191.49 214.018 154.726 204.899 143.318ZM136.926 148.677C133.515 139.076 132.748 128.734 134.706 118.735C134.828 122.941 136.236 135.009 147.794 139.753C142.861 141.395 138.555 146.532 136.926 148.677ZM153.409 151.601L148.242 151.79C146.893 148.833 145.73 145.794 144.761 142.692C149.313 139.58 152.374 139.909 155.926 142.777L153.409 151.601ZM163.268 149.626C161.671 147.056 157.209 140.581 152.108 139.434C164.891 131.575 163.651 119.13 163.975 117.432C170.423 130.666 164.983 145.58 163.268 149.626Z" fill="#000001"/>
<path d="M136.387 92.2871C137.021 91.4102 137.839 90.6835 138.784 90.1584C139.73 89.6334 140.779 89.3229 141.858 89.249C142.736 89.2908 143.595 89.5088 144.387 89.89C145.178 90.2712 145.884 90.8079 146.463 91.468C146.554 91.5769 146.604 91.7139 146.605 91.8556C146.607 91.9973 146.559 92.135 146.47 92.2455C146.381 92.356 146.257 92.4323 146.118 92.4616C145.98 92.4909 145.835 92.4713 145.709 92.4062C144.413 91.6163 142.899 91.2592 141.386 91.3866C139.873 91.514 138.44 92.1192 137.294 93.1148C137.182 93.2289 137.031 93.2952 136.872 93.2998C136.713 93.3044 136.558 93.2469 136.44 93.1394C136.323 93.032 136.251 92.883 136.241 92.7239C136.232 92.5649 136.284 92.4082 136.387 92.2871Z" fill="#000001"/>
<path d="M161.409 92.7734C157.841 89.8396 153 92.2932 152.95 92.3178C152.813 92.3895 152.655 92.4071 152.506 92.3671C152.356 92.3271 152.228 92.2323 152.146 92.1018C152.063 91.9712 152.033 91.8144 152.061 91.6626C152.089 91.5108 152.173 91.3751 152.297 91.2826C154.77 89.416 157.01 88.7209 158.958 89.2183C159.69 89.4257 160.371 89.7842 160.957 90.2706C161.542 90.757 162.02 91.3607 162.358 92.0427C162.417 92.1691 162.43 92.3117 162.397 92.4471C162.364 92.5824 162.286 92.7025 162.175 92.7875C162.065 92.8725 161.929 92.9174 161.79 92.9148C161.65 92.9123 161.516 92.8624 161.409 92.7734Z" fill="#000001"/>
<path fill-rule="evenodd" clip-rule="evenodd" d="M145.084 94.4803C144.698 94.8977 144.23 95.2291 143.708 95.453C143.186 95.6768 142.622 95.788 142.054 95.7793C141.487 95.7707 140.927 95.6423 140.412 95.4025C139.897 95.1628 139.439 94.8172 139.066 94.3882C139.066 94.3882 141.454 91.5625 145.084 94.4803Z" fill="white"/>
<path fill-rule="evenodd" clip-rule="evenodd" d="M159.136 94.3881C159.136 94.3881 156.752 91.5637 153.119 94.4802C155.128 96.2657 157.132 96.3628 159.136 94.3881Z" fill="white"/>
<path d="M145.469 94.0009C141.424 90.7479 138.628 93.9591 138.602 93.9911C138.502 94.1158 138.454 94.2746 138.47 94.4338C138.485 94.593 138.561 94.74 138.683 94.8436C138.805 94.9471 138.963 94.9989 139.122 94.9881C139.282 94.9773 139.431 94.9046 139.538 94.7856C139.832 94.466 140.189 94.2102 140.587 94.034C140.511 94.2678 140.492 94.5162 140.531 94.7587C140.571 95.0012 140.667 95.2308 140.813 95.4287C140.959 95.6265 141.149 95.7869 141.369 95.8965C141.589 96.0061 141.832 96.0618 142.077 96.059C142.496 96.0584 142.897 95.8918 143.193 95.5958C143.489 95.2997 143.656 94.8984 143.657 94.4798C143.647 94.3967 143.631 94.3145 143.607 94.2342C144.59 94.7438 144.672 95.0938 145.081 95.0938C145.209 95.0946 145.333 95.0557 145.437 94.9825C145.542 94.9093 145.621 94.8054 145.663 94.6853C145.706 94.5651 145.71 94.4347 145.676 94.312C145.641 94.1894 145.569 94.0807 145.469 94.0009Z" fill="#000001"/>
<path d="M159.609 93.9912C159.582 93.9592 156.785 90.7455 152.743 94.001C152.68 94.0516 152.628 94.114 152.589 94.1848C152.55 94.2556 152.526 94.3333 152.517 94.4135C152.509 94.4937 152.516 94.5749 152.538 94.6523C152.561 94.7298 152.599 94.802 152.649 94.8649C152.7 94.9278 152.762 94.9801 152.833 95.0189C152.904 95.0576 152.982 95.0821 153.062 95.0908C153.142 95.0995 153.223 95.0923 153.301 95.0697C153.378 95.0471 153.45 95.0094 153.513 94.9588C153.851 94.6819 154.217 94.4399 154.604 94.2368C154.58 94.3171 154.564 94.3993 154.554 94.4824C154.555 94.901 154.722 95.3023 155.018 95.5983C155.314 95.8944 155.715 96.0609 156.134 96.0616C156.379 96.0646 156.622 96.0091 156.842 95.8996C157.062 95.79 157.253 95.6297 157.399 95.4318C157.545 95.2338 157.641 95.0041 157.68 94.7614C157.72 94.5188 157.7 94.2704 157.625 94.0366C158.022 94.2133 158.379 94.469 158.674 94.7881C158.782 94.9033 158.93 94.9726 159.088 94.9816C159.245 94.9906 159.4 94.9386 159.52 94.8364C159.641 94.7342 159.717 94.5896 159.733 94.4327C159.75 94.2758 159.705 94.1186 159.609 93.9936V93.9912Z" fill="#000001"/>
<path d="M149.653 108.33C148.179 108.33 147.394 107.503 145.87 107.195C144.102 106.834 144.491 104.827 145.475 103.281C145.565 103.149 145.702 103.058 145.859 103.026C146.015 102.994 146.178 103.024 146.312 103.109C146.447 103.195 146.542 103.33 146.579 103.485C146.616 103.64 146.592 103.804 146.51 103.941C146.098 104.495 145.882 105.172 145.896 105.863C145.907 105.89 145.934 105.952 146.121 105.985C147.877 106.34 148.484 107.091 149.659 107.091C149.816 107.108 149.974 107.092 150.124 107.043C150.274 106.993 150.411 106.912 150.527 106.804C151.786 105.84 152.536 106.19 152.693 105.699C152.69 105.399 152.625 105.103 152.503 104.828C152.381 104.554 152.205 104.307 151.985 104.103C151.927 104.043 151.882 103.972 151.852 103.894C151.823 103.816 151.809 103.733 151.813 103.65C151.816 103.567 151.837 103.485 151.873 103.41C151.909 103.335 151.96 103.268 152.023 103.213C152.086 103.158 152.159 103.117 152.238 103.092C152.318 103.066 152.401 103.057 152.484 103.065C152.567 103.073 152.647 103.097 152.721 103.137C152.794 103.177 152.858 103.232 152.909 103.297C154.283 104.874 154.415 106.77 152.445 107.24C150.97 107.593 151.234 108.33 149.653 108.33Z" fill="#000001"/>
<path fill-rule="evenodd" clip-rule="evenodd" d="M142.076 109.932C142.076 109.932 147.449 109.151 149.281 110.361C151.628 109.436 154.21 109.286 156.649 109.932C155.821 111.105 154.714 112.053 153.427 112.69C152.141 113.328 150.716 113.634 149.281 113.582C146.519 113.269 143.962 111.974 142.076 109.932Z" fill="white"/>
<path d="M149.693 114.205C148.157 114.13 146.652 113.75 145.266 113.086C143.879 112.422 142.639 111.488 141.617 110.339C141.544 110.257 141.494 110.156 141.474 110.047C141.453 109.939 141.462 109.827 141.5 109.723C141.538 109.619 141.603 109.527 141.688 109.457C141.774 109.387 141.876 109.342 141.986 109.325C142.531 109.245 147.178 108.61 149.318 109.678C151.696 108.809 154.282 108.691 156.729 109.337C156.822 109.361 156.909 109.407 156.981 109.471C157.054 109.534 157.11 109.614 157.146 109.703C157.182 109.793 157.196 109.889 157.188 109.985C157.179 110.081 157.148 110.174 157.098 110.256C156.277 111.466 155.174 112.458 153.883 113.146C152.593 113.834 151.155 114.198 149.693 114.205ZM143.457 110.398C147.835 114.111 152.636 113.572 155.501 110.335C153.501 109.97 151.439 110.172 149.548 110.919C149.452 110.965 149.346 110.985 149.241 110.978C149.135 110.97 149.033 110.936 148.945 110.877C147.902 110.186 145.261 110.239 143.457 110.395V110.398Z" fill="#000001"/>
<path d="M150.52 117.505C148.543 117.462 146.61 116.907 144.911 115.894C144.842 115.851 144.783 115.794 144.736 115.727C144.689 115.66 144.656 115.585 144.639 115.506C144.622 115.426 144.62 115.344 144.635 115.264C144.65 115.184 144.68 115.107 144.725 115.039C144.77 114.971 144.827 114.913 144.895 114.867C144.962 114.821 145.038 114.789 145.118 114.773C145.197 114.757 145.28 114.757 145.359 114.773C145.439 114.789 145.515 114.821 145.583 114.866C145.778 114.996 150.474 117.978 154.654 114.941C154.786 114.845 154.95 114.806 155.111 114.831C155.272 114.857 155.416 114.945 155.512 115.077C155.607 115.209 155.647 115.373 155.621 115.534C155.596 115.695 155.508 115.839 155.376 115.935C153.969 116.968 152.266 117.519 150.52 117.505Z" fill="#000001"/>
<path d="M174.608 95.5727C174.537 94.0389 173.455 92.6255 171.107 92.192C171.419 89.4228 172.251 77.9336 165.738 70.6429C161.993 66.4493 156.484 64.4587 149.394 64.7055C142.035 64.9695 136.458 67.4071 132.816 71.9311C126.921 79.2599 127.954 89.6304 128.319 92.1932C125.973 92.6329 124.9 94.0451 124.83 95.5715C124.649 99.5146 123.83 110.254 127.274 111.316C130.221 112.227 133.552 111.888 133.399 108.902C133.285 106.657 133.061 99.7443 133.03 98.994C133.212 97.9858 133.854 93.7565 132.087 92.6378C131.849 92.4986 131.594 92.3905 131.328 92.316C131.003 90.4532 129.663 80.941 134.736 74.3945C137.841 70.3875 142.786 68.2139 149.434 67.9339C155.771 67.665 160.601 69.3768 163.777 73.013C170.07 80.2177 167.719 92.3983 167.339 92.6378C165.571 93.7565 166.214 97.9858 166.395 98.994C166.371 99.7443 166.15 106.657 166.027 108.902C165.876 111.841 169.119 112.252 172.154 111.316C175.628 110.25 174.798 99.5588 174.608 95.5727Z" fill="#000001"/>
<path fill-rule="evenodd" clip-rule="evenodd" d="M140.992 30.3885L137.05 39.5777L133.104 30.3885C132.984 29.8034 132.995 29.1988 133.137 28.6186C133.279 28.0383 133.549 27.497 133.926 27.0339C134.303 26.5708 134.779 26.1975 135.319 25.9411C135.858 25.6848 136.448 25.5518 137.046 25.5518C137.643 25.5518 138.233 25.6848 138.773 25.9411C139.312 26.1975 139.788 26.5708 140.165 27.0339C140.543 27.497 140.812 28.0383 140.954 28.6186C141.096 29.1988 141.108 29.8034 140.987 30.3885H140.992Z" fill="white"/>
<path d="M137.049 24.9399C135.82 24.9412 134.641 25.4302 133.772 26.2995C132.902 27.1688 132.413 28.3475 132.412 29.5769C132.412 31.0738 132.62 30.6133 136.484 39.8197C136.531 39.9305 136.61 40.0249 136.711 40.0913C136.811 40.1577 136.929 40.1931 137.049 40.1931C137.169 40.1931 137.287 40.1577 137.388 40.0913C137.488 40.0249 137.567 39.9305 137.614 39.8197C141.9 29.852 141.687 30.6232 141.687 29.5769C141.686 28.3474 141.196 27.1687 140.327 26.2994C139.457 25.4302 138.279 24.9412 137.049 24.9399ZM140.402 30.2081L137.049 38.0195C133.699 29.9343 133.64 30.5569 133.64 29.5769C133.64 29.1023 133.739 28.633 133.931 28.1989C134.123 27.7648 134.403 27.3755 134.754 27.0559C135.105 26.7363 135.518 26.4934 135.968 26.3428C136.418 26.1923 136.895 26.1373 137.367 26.1814C137.84 26.2255 138.298 26.3677 138.712 26.599C139.127 26.8303 139.488 27.1455 139.774 27.5245C140.059 27.9035 140.263 28.338 140.371 28.8001C140.479 29.2622 140.489 29.7417 140.402 30.2081Z" fill="#000001"/>
<path d="M135.217 29.5769C135.217 30.0654 135.411 30.5339 135.756 30.8794C136.102 31.2248 136.57 31.4189 137.059 31.4189C137.547 31.4189 138.016 31.2248 138.361 30.8794C138.707 30.5339 138.901 30.0654 138.901 29.5769C138.901 29.0883 138.707 28.6198 138.361 28.2744C138.016 27.9289 137.547 27.7349 137.059 27.7349C136.57 27.7349 136.102 27.9289 135.756 28.2744C135.411 28.6198 135.217 29.0883 135.217 29.5769Z" fill="#000001"/>
<path fill-rule="evenodd" clip-rule="evenodd" d="M115.184 215.386L105.535 157.714C105.535 157.714 179.797 153.736 200.97 157.862L192.034 214.314L115.184 215.386Z" fill="white"/>
<path d="M115.182 216C115.037 216 114.896 215.949 114.785 215.855C114.674 215.761 114.6 215.631 114.576 215.488L104.928 157.818C104.914 157.733 104.918 157.645 104.94 157.562C104.962 157.478 105.001 157.4 105.055 157.332C105.109 157.265 105.177 157.21 105.254 157.17C105.331 157.131 105.415 157.108 105.502 157.103C106.239 157.063 180.083 153.174 201.086 157.262C201.243 157.292 201.382 157.381 201.473 157.512C201.565 157.642 201.602 157.803 201.578 157.961L192.641 214.413C192.619 214.556 192.546 214.686 192.437 214.781C192.327 214.876 192.188 214.928 192.043 214.93L115.182 216ZM106.253 158.291L115.7 214.765L191.507 213.707L200.269 158.356C179.793 154.676 113.738 157.91 106.253 158.291Z" fill="#000001"/>
</svg>
