<svg width="20" height="21" viewBox="0 0 20 21" fill="none" xmlns="http://www.w3.org/2000/svg">
<g clip-path="url(#clip0_214_2254)">
<path fill-rule="evenodd" clip-rule="evenodd" d="M0.833496 2.45745C0.833496 2.05123 0.994868 1.66164 1.28211 1.3744C1.56935 1.08715 1.95894 0.925783 2.36516 0.925783H17.6335C17.8348 0.925454 18.0342 0.964836 18.2203 1.04167C18.4064 1.11851 18.5754 1.23129 18.7179 1.37356C18.8603 1.51584 18.9733 1.6848 19.0503 1.87079C19.1273 2.05678 19.1669 2.25614 19.1668 2.45745V17.7258C19.167 17.9271 19.1276 18.1266 19.0506 18.3126C18.9737 18.4987 18.8608 18.6678 18.7185 18.8102C18.5762 18.9526 18.4072 19.0656 18.2211 19.1426C18.0351 19.2196 17.8357 19.2592 17.6343 19.2591H2.36516C2.16395 19.2591 1.96471 19.2195 1.77883 19.1424C1.59294 19.0654 1.42406 18.9525 1.28182 18.8102C1.13958 18.6679 1.02677 18.4989 0.949848 18.313C0.872924 18.1271 0.833387 17.9278 0.833496 17.7266V2.45745ZM8.09016 7.91578H10.5727V9.16245C10.931 8.44578 11.8477 7.80078 13.2252 7.80078C15.866 7.80078 16.4918 9.22828 16.4918 11.8475V16.6991H13.8193V12.4441C13.8193 10.9525 13.461 10.1108 12.551 10.1108C11.2885 10.1108 10.7635 11.0183 10.7635 12.4441V16.6991H8.09016V7.91578ZM3.50683 16.585H6.18016V7.80078H3.50683V16.5841V16.585ZM6.56266 4.93578C6.5677 5.16468 6.52697 5.39227 6.44286 5.60521C6.35875 5.81815 6.23296 6.01215 6.07286 6.17581C5.91276 6.33947 5.72158 6.46951 5.51054 6.55829C5.29951 6.64707 5.07286 6.6928 4.84391 6.6928C4.61496 6.6928 4.38832 6.64707 4.17728 6.55829C3.96625 6.46951 3.77507 6.33947 3.61497 6.17581C3.45487 6.01215 3.32907 5.81815 3.24496 5.60521C3.16085 5.39227 3.12012 5.16468 3.12516 4.93578C3.13506 4.4865 3.32048 4.05894 3.64173 3.74469C3.96298 3.43043 4.39452 3.25446 4.84391 3.25446C5.29331 3.25446 5.72484 3.43043 6.04609 3.74469C6.36734 4.05894 6.55277 4.4865 6.56266 4.93578Z" fill="white"/>
</g>
<defs>
<clipPath id="clip0_214_2254">
<rect width="20" height="20" fill="white" transform="translate(0 0.0927734)"/>
</clipPath>
</defs>
</svg>
