<svg width="16" height="16" viewBox="0 0 16 16" fill="none" xmlns="http://www.w3.org/2000/svg">
<path d="M8.10673 7.24666C8.04007 7.23999 7.96007 7.23999 7.88673 7.24666C6.30004 7.19333 5.04004 5.89333 5.04004 4.29333C5.04004 2.65999 6.36004 1.33333 8.00007 1.33333C9.6334 1.33333 10.9601 2.65999 10.9601 4.29333C10.9534 5.89333 9.6934 7.19333 8.10673 7.24666Z" stroke="white" stroke-linecap="round" stroke-linejoin="round"/>
<path d="M4.77332 9.70667C3.15999 10.7867 3.15999 12.5467 4.77332 13.62C6.60666 14.8467 9.61334 14.8467 11.4467 13.62C13.06 12.54 13.06 10.78 11.4467 9.70667C9.62001 8.48667 6.61332 8.48667 4.77332 9.70667Z" stroke="white" stroke-linecap="round" stroke-linejoin="round"/>
</svg>
