<svg width="16" height="16" viewBox="0 0 16 16" fill="none" xmlns="http://www.w3.org/2000/svg">
<path d="M10.6667 7.33334L10.3333 12.6667M10.6667 7.33334C10.6667 4.33334 9.66666 2.66668 7.99992 1.33334C6.33332 2.66668 5.33332 4.33334 5.33332 7.33334M10.6667 7.33334L12 8.33334C12.8393 8.96288 13.3333 9.95081 13.3333 11V12.9741C13.3333 13.4566 12.8367 13.7793 12.3959 13.5833L10.3333 12.6667M10.3333 12.6667H5.66666M5.33332 7.33334L5.66666 12.6667M5.33332 7.33334L3.99999 8.33334C3.16064 8.96288 2.66666 9.95081 2.66666 11V12.9741C2.66666 13.4566 3.16322 13.7793 3.60408 13.5833L5.66666 12.6667M7.99999 6.00001V7.33334" stroke="white" stroke-width="1.33333" stroke-linecap="round" stroke-linejoin="round"/>
</svg>
