<svg width="15" height="14" viewBox="0 0 15 14" fill="none" xmlns="http://www.w3.org/2000/svg">
<path fill-rule="evenodd" clip-rule="evenodd" d="M1.08203 1.72061C1.08203 1.43625 1.19499 1.16354 1.39606 0.962469C1.59713 0.761399 1.86984 0.648439 2.1542 0.648439H12.842C12.983 0.648209 13.1225 0.675776 13.2528 0.729561C13.383 0.783347 13.5014 0.862295 13.6011 0.961885C13.7008 1.06148 13.7799 1.17975 13.8338 1.30994C13.8877 1.44014 13.9154 1.57969 13.9154 1.72061V12.4084C13.9155 12.5494 13.8879 12.689 13.834 12.8192C13.7802 12.9495 13.7012 13.0678 13.6015 13.1675C13.5019 13.2672 13.3836 13.3463 13.2534 13.4002C13.1231 13.4541 12.9836 13.4818 12.8426 13.4818H2.1542C2.01335 13.4818 1.87388 13.454 1.74376 13.4001C1.61364 13.3462 1.49542 13.2672 1.39586 13.1675C1.29629 13.0679 1.21732 12.9497 1.16348 12.8195C1.10963 12.6894 1.08195 12.5499 1.08203 12.409V1.72061ZM6.1617 5.54144H7.89945V6.41411C8.15028 5.91244 8.79195 5.46094 9.7562 5.46094C11.6048 5.46094 12.0429 6.46019 12.0429 8.29361V11.6898H10.1721V8.71127C10.1721 7.66711 9.92128 7.07794 9.28428 7.07794C8.40053 7.07794 8.03303 7.71319 8.03303 8.71127V11.6898H6.1617V5.54144ZM2.95336 11.6099H4.8247V5.46094H2.95336V11.6093V11.6099ZM5.09245 3.45544C5.09598 3.61566 5.06747 3.77498 5.00859 3.92404C4.94971 4.0731 4.86165 4.20889 4.74958 4.32346C4.63751 4.43802 4.50369 4.52905 4.35596 4.59119C4.20824 4.65334 4.04959 4.68535 3.88932 4.68535C3.72906 4.68535 3.57041 4.65334 3.42268 4.59119C3.27496 4.52905 3.14113 4.43802 3.02906 4.32346C2.91699 4.20889 2.82894 4.0731 2.77006 3.92404C2.71118 3.77498 2.68267 3.61566 2.6862 3.45544C2.69312 3.14094 2.82292 2.84165 3.0478 2.62167C3.27267 2.40169 3.57475 2.27852 3.88932 2.27852C4.2039 2.27852 4.50597 2.40169 4.73085 2.62167C4.95572 2.84165 5.08552 3.14094 5.09245 3.45544Z" fill="white"/>
</svg>
