<svg width="50" height="50" viewBox="0 0 50 50" fill="none" xmlns="http://www.w3.org/2000/svg">
<mask id="mask0_2929_17017" style="mask-type:luminance" maskUnits="userSpaceOnUse" x="0" y="0" width="50" height="50">
<path d="M0 0H50V50H0V0Z" fill="white"/>
</mask>
<g mask="url(#mask0_2929_17017)">
<path d="M48.1992 16.0176C48.4668 16.208 48.6787 16.4591 48.8193 16.7462L39.6484 25V10.1562L48.1992 16.0176Z" fill="#B0B0B0"/>
<path d="M39.6494 24.9369C39.639 24.9464 27.698 35.61 27.6445 35.6576C26.1494 37.0308 23.8525 37.0308 22.3574 35.6576C21.1636 34.5914 11.4922 25.954 10.3359 24.9214L10.3525 24.9028V6.83635H39.6494V24.9369Z" fill="white"/>
<path d="M34.6494 6.83496V6.83594H15.3516V6.83496L22.7432 1.69531C24.0957 0.737305 25.9062 0.737305 27.2588 1.69531L34.6494 6.83496Z" fill="#B0B0B0"/>
<path d="M47.0723 49.0215C48.1438 49.0215 49.0254 48.153 49.0254 47.0684V17.6094C49.0254 17.3047 48.9541 17.0087 48.8213 16.7441C48.3674 17.1494 44.5235 20.5828 27.6455 35.6553C26.1504 37.0283 23.8535 37.0283 22.3584 35.6553C21.5439 34.9279 2.02884 17.4997 1.18262 16.7441C1.0498 17.0087 0.978516 17.3047 0.978516 17.6094V47.0684C0.978516 48.1527 1.85977 49.0215 2.93164 49.0215H47.0723Z" fill="#00BF4D"/>
<path d="M1.7998 16.0176C1.53223 16.208 1.32031 16.4591 1.17969 16.7462L10.3506 24.9023V10.1562L1.7998 16.0176Z" fill="#B0B0B0"/>
<path d="M25 14.6484C26.0791 14.6484 26.9531 15.5225 26.9531 16.6016C26.9531 17.6807 26.0791 18.5547 25 18.5547C23.9209 18.5547 23.0469 17.6807 23.0469 16.6016C23.0469 15.5225 23.9209 14.6484 25 14.6484Z" fill="#6E6E6E"/>
<path d="M25 18.5547C22.8428 18.5547 21.0938 18.3506 21.0938 20.5078C21.0938 22.6707 22.8455 26.3672 25 26.3672C27.1547 26.3672 28.9062 22.6704 28.9062 20.5078C28.9062 18.3506 27.1572 18.5547 25 18.5547Z" fill="#00BF4D"/>
<path fill-rule="evenodd" clip-rule="evenodd" d="M34.134 7.57204C34.5406 7.85462 35.0993 7.75396 35.382 7.34743C35.6646 6.94079 35.564 6.38213 35.1574 6.09938L27.7668 0.959731L27.7658 0.960707C26.1055 -0.211029 23.8879 -0.211376 22.2277 0.960707V0.959731L14.8361 6.09938C14.4296 6.38211 14.329 6.9408 14.6115 7.34743C14.8942 7.75401 15.4529 7.85459 15.8596 7.57204L23.2512 2.43239L23.258 2.4275C24.2998 1.6898 25.6947 1.68984 26.7365 2.4275L26.7434 2.43239L34.134 7.57204Z" fill="black"/>
<path d="M47.0723 49.918C47.8108 49.9178 48.4857 49.6348 48.9912 49.1748C49.5616 48.6554 49.9219 47.903 49.9219 47.0684V17.6094C49.9218 17.1679 49.8186 16.7375 49.626 16.3506C49.4196 15.9293 49.1103 15.5618 48.7217 15.2852C48.7174 15.2821 48.7123 15.2784 48.708 15.2754L40.1572 9.41406C39.7489 9.13447 39.1902 9.2395 38.9102 9.64746C38.6304 10.056 38.7351 10.6146 39.1436 10.8945L47.6836 16.749C47.8283 16.8528 47.9413 16.9871 48.0156 17.1387L48.0195 17.1465C48.0898 17.2865 48.1288 17.4449 48.1289 17.6094V47.0684C48.1289 47.3778 47.9964 47.6552 47.7842 47.8486C47.5946 48.0212 47.3451 48.1249 47.0723 48.125H2.93164C2.65864 48.125 2.40945 48.0213 2.21973 47.8486C2.00724 47.6552 1.875 47.378 1.875 47.0684V17.6094C1.87506 17.4861 1.89709 17.366 1.9375 17.2549L1.98438 17.1465L1.98828 17.1387C2.06247 16.9875 2.17499 16.8526 2.31934 16.749L10.8604 10.8945C11.2683 10.6144 11.3733 10.0558 11.0938 9.64746C10.8139 9.23931 10.2551 9.13484 9.84668 9.41406L1.2959 15.2754C1.29174 15.2782 1.28639 15.2822 1.28223 15.2852C0.893703 15.5618 0.583342 15.9285 0.376953 16.3496L0.37793 16.3506C0.185355 16.7375 0.0821058 17.1679 0.0820312 17.6094V47.0684C0.0820312 47.9032 0.441991 48.6553 1.0127 49.1748C1.51828 49.6349 2.19296 49.918 2.93164 49.918H47.0723Z" fill="black"/>
<path fill-rule="evenodd" clip-rule="evenodd" d="M21.7592 36.3259C23.5946 38.0033 26.4062 38.0033 28.2416 36.3259L30.8637 33.9851L40.2465 25.6052L49.4174 17.4158L49.4828 17.3504L49.4838 17.3484C49.817 16.982 49.7905 16.4151 49.4242 16.0818C49.0772 15.7663 48.5502 15.7739 48.2123 16.0867L39.0512 24.2673L29.6684 32.6472L27.0463 34.988L27.0375 34.9968C25.8855 36.0549 24.1153 36.0549 22.9633 34.9968L22.9545 34.988L20.3324 32.6472L10.9496 24.2673L1.77872 16.0769C1.44055 15.7734 0.920094 15.7696 0.576574 16.0818C0.210405 16.4149 0.183347 16.9819 0.516027 17.3484L0.58341 17.4158L9.75431 25.6052L19.1371 33.9851L21.7592 36.3259Z" fill="black"/>
<path fill-rule="evenodd" clip-rule="evenodd" d="M0.92597 49.0895C1.2442 49.4689 1.81014 49.5188 2.18964 49.2008L20.3098 34.0025C20.6891 33.6843 20.7391 33.1183 20.4211 32.7389C20.1028 32.3599 19.5368 32.3097 19.1574 32.6275L1.0373 47.8258C0.658023 48.1439 0.608297 48.71 0.92597 49.0895Z" fill="black"/>
<path fill-rule="evenodd" clip-rule="evenodd" d="M47.8119 49.1989C48.1914 49.5168 48.7574 49.4669 49.0756 49.0876C49.3934 48.7082 49.3434 48.1421 48.9643 47.8239L30.8441 32.6257C30.4647 32.3077 29.8987 32.3577 29.5805 32.737C29.2624 33.1165 29.3124 33.6825 29.6918 34.0007L47.8119 49.1989Z" fill="black"/>
<path d="M17.1855 46.0898C17.7245 46.0897 18.1621 45.6523 18.1621 45.1133C18.162 44.5744 17.7244 44.1369 17.1855 44.1367C16.6465 44.1367 16.2091 44.5743 16.209 45.1133C16.209 45.6523 16.6465 46.0898 17.1855 46.0898ZM32.8096 46.0117C33.3048 46.0117 33.7058 45.6104 33.7061 45.1152C33.7061 44.6199 33.3049 44.2188 32.8096 44.2188H21.0908C20.5957 44.2189 20.1943 44.62 20.1943 45.1152C20.1946 45.6102 20.5958 46.0115 21.0908 46.0117H32.8096Z" fill="black"/>
<path d="M39.6484 25.834C40.1437 25.834 40.5448 25.4327 40.5449 24.9375V6.83691C40.5449 6.34159 40.1438 5.94043 39.6484 5.94043H10.3516C9.85643 5.94065 9.45508 6.34173 9.45508 6.83691V24.9375C9.45517 25.4326 9.85649 25.8338 10.3516 25.834C10.8468 25.834 11.248 25.4327 11.248 24.9375V7.7334H38.752V24.9375C38.752 25.4326 39.1534 25.8338 39.6484 25.834Z" fill="black"/>
<path d="M25 19.4512C26.5744 19.4512 27.8495 18.1759 27.8496 16.6016C27.8496 15.0271 26.5744 13.752 25 13.752C23.4257 13.7521 22.1504 15.0272 22.1504 16.6016C22.1505 18.1758 23.4258 19.451 25 19.4512ZM25 17.6582C24.4164 17.6581 23.9435 17.1852 23.9434 16.6016C23.9434 16.0179 24.4163 15.5451 25 15.5449C25.5838 15.5449 26.0566 16.0178 26.0566 16.6016C26.0565 17.1852 25.5837 17.6582 25 17.6582Z" fill="black"/>
<path fill-rule="evenodd" clip-rule="evenodd" d="M20.46 21.1417C20.8101 21.4919 21.3773 21.4918 21.7275 21.1417C22.0778 20.7915 22.0778 20.2244 21.7275 19.8741L20.0371 18.1837V14.6485C20.0371 14.1532 19.6359 13.7521 19.1406 13.7521C18.6455 13.7522 18.2441 14.1533 18.2441 14.6485V18.5548C18.2442 18.7926 18.3387 19.0204 18.5068 19.1886L20.46 21.1417Z" fill="black"/>
<path d="M19.1406 29.2168C19.6359 29.2168 20.0371 28.8156 20.0371 28.3203V24.9688L22.0898 23.9414C22.5326 23.7197 22.7118 23.1812 22.4902 22.7383C22.2685 22.2957 21.7299 22.1164 21.2871 22.3379L18.7393 23.6123C18.4358 23.7643 18.2442 24.0747 18.2441 24.4141V28.3203C18.2441 28.8155 18.6455 29.2166 19.1406 29.2168Z" fill="black"/>
<path fill-rule="evenodd" clip-rule="evenodd" d="M28.2724 21.1417C28.6225 21.4919 29.1897 21.4918 29.5399 21.1417L31.4931 19.1886C31.6612 19.0204 31.7557 18.7926 31.7557 18.5548V14.6485C31.7557 14.1532 31.3546 13.7521 30.8593 13.7521C30.364 13.7522 29.9628 14.1533 29.9628 14.6485V18.1837L28.2724 19.8741C27.9223 20.2244 27.9222 20.7915 28.2724 21.1417Z" fill="black"/>
<path fill-rule="evenodd" clip-rule="evenodd" d="M30.8586 29.2168C31.354 29.2168 31.7551 28.8156 31.7551 28.3203V24.4141C31.755 24.0746 31.5636 23.7643 31.26 23.6123L28.7121 22.3379C28.2693 22.1165 27.7307 22.2956 27.509 22.7383C27.2875 23.1811 27.4667 23.7197 27.9094 23.9414L29.9621 24.9688V28.3203C29.9621 28.8156 30.3634 29.2167 30.8586 29.2168Z" fill="black"/>
<path d="M25 15.5449C26.5744 15.5449 27.8495 14.2697 27.8496 12.6953C27.8496 12.2 27.4484 11.7988 26.9531 11.7988C26.4579 11.799 26.0566 12.2001 26.0566 12.6953C26.0566 13.279 25.5837 13.752 25 13.752C24.4164 13.7518 23.9434 13.2789 23.9434 12.6953C23.9434 12.2 23.5422 11.7988 23.0469 11.7988C22.5517 11.799 22.1504 12.2001 22.1504 12.6953C22.1505 14.2696 23.4257 15.5448 25 15.5449Z" fill="black"/>
<path d="M25.002 27.2637C26.0437 27.2637 26.9183 26.6894 27.5723 26.001C28.2348 25.3033 28.7671 24.3929 29.1426 23.4814V23.4805C29.5503 22.4897 29.8046 21.4178 29.8047 20.5078C29.8047 19.8536 29.6732 19.2624 29.3379 18.7803C28.9959 18.2885 28.5164 18.0159 28.0293 17.8652C27.5588 17.7198 27.041 17.6755 26.5508 17.6602C26.066 17.645 25.5086 17.6582 25.002 17.6582C24.4953 17.6582 23.9379 17.645 23.4531 17.6602C22.9629 17.6755 22.445 17.7197 21.9746 17.8652C21.4876 18.0159 21.008 18.2886 20.666 18.7803C20.3308 19.2624 20.1992 19.8537 20.1992 20.5078C20.1993 21.4179 20.4536 22.4906 20.8613 23.4814C21.2368 24.3929 21.769 25.3033 22.4316 26.001C23.0856 26.6895 23.9602 27.2636 25.002 27.2637ZM25.002 25.4707C24.6485 25.4706 24.2123 25.2709 23.7324 24.7656C23.2611 24.2694 22.8355 23.5649 22.5195 22.7979C22.1736 21.9571 21.9922 21.121 21.9922 20.5078C21.9922 20.0842 22.0787 19.8912 22.1387 19.8047C22.1919 19.7281 22.2854 19.647 22.5049 19.5791C22.7411 19.506 23.0656 19.467 23.5098 19.4531C23.9594 19.4391 24.4303 19.4512 25.002 19.4512C25.5737 19.4512 26.0445 19.4391 26.4941 19.4531C26.9383 19.467 27.2628 19.5061 27.499 19.5791C27.7187 19.6471 27.8119 19.7281 27.8652 19.8047C27.9252 19.8911 28.0117 20.0838 28.0117 20.5078C28.0117 21.121 27.8303 21.9571 27.4844 22.7979L27.3604 23.082C27.0608 23.7374 26.6839 24.3314 26.2715 24.7656C25.7916 25.2708 25.3554 25.4707 25.002 25.4707Z" fill="black"/>
<path d="M25 27.2637C25.4952 27.2637 25.8964 26.8624 25.8965 26.3672V18.5547C25.8965 18.0594 25.4953 17.6582 25 17.6582C24.5048 17.6583 24.1035 18.0595 24.1035 18.5547V26.3672C24.1036 26.8623 24.5049 27.2635 25 27.2637Z" fill="black"/>
</g>
</svg>
