<svg width="27" height="38" viewBox="0 0 27 38" fill="none" xmlns="http://www.w3.org/2000/svg">
<path d="M26.7914 0H0V37.9344H26.7914V0Z" fill="white"/>
<path d="M19.3376 30.4809H13.4907C11.8901 30.4793 10.3556 29.8427 9.22379 28.711C8.09203 27.5792 7.45548 26.0447 7.45383 24.4441V19.5838H3.71875V16.5615H14.3404C15.666 16.5623 16.9371 17.0895 17.8741 18.0272C18.8112 18.9648 19.3376 20.2362 19.3376 21.5619V30.4809ZM10.4668 19.5869V24.4472C10.468 25.2467 10.7862 26.0132 11.3515 26.5785C11.9169 27.1439 12.6833 27.4621 13.4829 27.4633H16.3075V21.5619C16.3088 21.0388 16.1023 20.5366 15.7334 20.1657C15.3645 19.7948 14.8635 19.5855 14.3404 19.5838L10.4668 19.5869Z" fill="#276A35"/>
<path d="M14.8657 7.45312H10.3945V10.4754H14.8657V7.45312Z" fill="#276A35"/>
<path d="M10.3953 10.4756H7.37305V14.9468H10.3953V10.4756Z" fill="#00BF4D"/>
</svg>
