<svg width="652" height="400" viewBox="0 0 652 400" fill="none" xmlns="http://www.w3.org/2000/svg">
<path d="M193.829 369.756C193.022 369.76 193.009 368.537 193.816 368.535C195.541 368.53 197.285 368.473 199.005 368.405C199.81 368.372 199.863 369.585 199.058 369.622C197.329 369.703 195.568 369.748 193.829 369.756ZM188.597 369.711C186.859 369.69 185.09 369.593 183.361 369.488C182.554 369.439 182.638 368.225 183.435 368.275C185.152 368.384 186.898 368.452 188.624 368.497C189.418 368.516 189.4 369.721 188.597 369.711ZM204.23 369.313C203.462 369.313 203.409 368.157 204.187 368.097C205.904 367.965 207.642 367.808 209.353 367.61C210.147 367.519 210.298 368.731 209.487 368.823C208.116 368.978 204.639 369.313 204.23 369.313ZM178.197 369.092C177.656 369.051 175.139 368.789 172.938 368.506C172.138 368.403 172.295 367.195 173.095 367.298C174.798 367.519 176.532 367.717 178.253 367.876C179.018 367.946 178.963 369.092 178.197 369.092ZM214.589 368.145C213.827 368.145 213.769 367.044 214.498 366.937C216.211 366.687 217.936 366.399 219.622 366.089C220.415 365.944 220.631 367.139 219.843 367.284C219.265 367.391 214.95 368.145 214.589 368.145ZM167.853 367.742C167.517 367.742 163.523 366.978 162.607 366.795C161.819 366.638 162.052 365.443 162.846 365.6C164.537 365.936 166.258 366.25 167.952 366.535C168.683 366.657 168.594 367.744 167.853 367.744V367.742ZM224.836 366.273C224.126 366.273 223.993 365.23 224.71 365.069C226.392 364.696 228.092 364.295 229.76 363.87C230.54 363.672 230.839 364.849 230.061 365.047C229.708 365.137 225.207 366.273 224.836 366.273ZM157.631 365.695C157.451 365.695 153.058 364.551 152.42 364.374C151.644 364.159 151.964 362.991 152.742 363.2C154.399 363.65 156.089 364.089 157.771 364.49C158.471 364.657 158.349 365.693 157.631 365.693V365.695ZM234.936 363.687C234.249 363.687 234.094 362.692 234.771 362.492C236.422 362.003 238.094 361.491 239.726 360.94C240.488 360.682 240.874 361.844 240.108 362.096C239.6 362.263 235.173 363.687 234.936 363.687ZM147.584 362.927C147.194 362.927 142.821 361.388 142.416 361.245C141.657 360.977 142.064 359.829 142.825 360.098C144.445 360.671 146.109 361.225 147.766 361.741C148.43 361.949 148.278 362.927 147.584 362.927ZM244.828 360.397C244.161 360.397 243.986 359.456 244.619 359.22C246.231 358.618 247.86 357.978 249.451 357.324C250.19 357.021 250.664 358.139 249.917 358.449C249.57 358.593 245.141 360.397 244.828 360.397ZM137.719 359.454C137.453 359.454 133.073 357.598 132.648 357.411C131.907 357.089 132.392 355.98 133.131 356.294C134.723 356.975 136.341 357.654 137.942 358.281C138.563 358.523 138.386 359.454 137.719 359.454ZM254.464 356.434C253.807 356.434 253.609 355.545 254.208 355.274C255.776 354.56 257.349 353.813 258.889 353.052C259.613 352.695 260.152 353.782 259.433 354.143C259.095 354.313 254.85 356.432 254.466 356.432L254.464 356.434ZM128.124 355.299C127.868 355.299 123.363 353.006 123.169 352.905C122.455 352.534 123.01 351.454 123.729 351.822C125.264 352.61 126.828 353.4 128.387 354.139C128.973 354.416 128.772 355.299 128.124 355.299ZM263.782 351.809C263.15 351.809 262.934 350.963 263.491 350.662C265.002 349.843 266.523 348.986 268.007 348.121C268.704 347.713 269.321 348.765 268.624 349.172C268.329 349.345 264.125 351.811 263.784 351.811L263.782 351.809ZM118.854 350.491C118.515 350.491 114.445 348 114.039 347.754C113.35 347.335 113.983 346.297 114.67 346.72C116.134 347.622 117.648 348.501 119.155 349.355C119.696 349.661 119.481 350.493 118.854 350.493V350.491ZM272.43 345.424C273.884 344.505 275.342 343.548 276.763 342.572C277.422 342.12 278.12 343.121 277.449 343.581C276.018 344.561 274.539 345.517 273.082 346.454C272.409 346.887 271.753 345.853 272.43 345.424ZM109.61 344.945C108.145 344.004 106.7 342.991 105.286 341.986C104.628 341.519 105.336 340.53 105.99 340.995C107.393 341.996 108.838 342.98 110.279 343.932C110.943 344.371 110.299 345.387 109.61 344.945ZM280.992 339.573C282.375 338.553 283.764 337.497 285.12 336.43C285.758 335.93 286.507 336.89 285.877 337.387C284.511 338.463 283.118 339.536 281.717 340.555C281.073 341.022 280.334 340.058 280.992 339.573ZM101.066 338.873C99.6968 337.802 98.3039 336.721 96.9594 335.621C96.3367 335.111 97.1127 334.17 97.7335 334.682C99.0585 335.778 100.438 336.857 101.806 337.907C102.45 338.401 101.689 339.358 101.066 338.871V338.873ZM289.132 333.14C290.443 332.027 291.759 330.878 293.035 329.716C293.633 329.173 294.451 330.075 293.852 330.616C292.562 331.78 291.241 332.946 289.92 334.067C289.318 334.578 288.513 333.666 289.134 333.142L289.132 333.14ZM92.9689 332.232C91.6632 331.082 90.3596 329.9 89.0966 328.707C88.5088 328.152 89.3488 327.272 89.9308 327.821C91.1821 329.004 92.4722 330.176 93.772 331.318C94.3734 331.848 93.5761 332.77 92.9689 332.232ZM296.818 326.166C298.06 324.965 299.286 323.717 300.477 322.48C301.038 321.898 301.911 322.744 301.356 323.324C300.155 324.573 298.91 325.815 297.666 327.039C297.096 327.601 296.24 326.724 296.818 326.166ZM85.3505 325.048C84.1341 323.805 82.9041 322.544 81.7343 321.267C81.1911 320.676 82.0796 319.847 82.6287 320.441C83.8004 321.704 85.0052 322.963 86.2177 324.191C86.79 324.771 85.9053 325.617 85.3485 325.046L85.3505 325.048ZM304.008 318.664C305.156 317.381 306.295 316.053 307.407 314.735C307.931 314.115 308.85 314.9 308.342 315.513C307.23 316.848 306.08 318.185 304.918 319.477C304.384 320.068 303.47 319.265 304.01 318.664H304.008ZM78.2501 317.36C77.1113 316.051 75.988 314.693 74.9036 313.34C74.3992 312.712 75.344 311.949 75.8503 312.576C76.9328 313.915 78.0503 315.257 79.1696 316.565C79.6954 317.178 78.7661 317.954 78.2501 317.36ZM311.135 311.676C310.668 311.676 310.338 311.111 310.662 310.694C311.715 309.332 312.773 307.936 313.778 306.535C314.243 305.887 315.239 306.595 314.759 307.253C311.558 311.653 311.512 311.676 311.135 311.676ZM71.7006 309.208C70.6705 307.815 69.6326 306.391 68.6413 304.967C68.1815 304.308 69.1806 303.611 69.6404 304.273C70.6259 305.687 71.6463 307.099 72.6745 308.479C73.1634 309.135 72.1662 309.839 71.7006 309.208ZM316.759 302.269C317.722 300.835 318.674 299.367 319.584 297.906C320.011 297.221 321.045 297.865 320.618 298.548C319.702 300.022 318.742 301.505 317.772 302.946C317.332 303.6 316.306 302.946 316.759 302.269ZM65.7293 300.626C64.7787 299.167 63.8611 297.667 62.9687 296.185C62.5535 295.496 63.5973 294.87 64.0124 295.558C64.8951 297.025 65.8108 298.509 66.7459 299.96C67.1863 300.643 66.1561 301.279 65.7293 300.626ZM322.248 293.442C323.103 291.944 323.953 290.417 324.764 288.887C325.14 288.177 326.213 288.747 325.837 289.455C325.022 290.994 324.17 292.542 323.303 294.045C322.907 294.732 321.85 294.136 322.248 293.442ZM60.3672 291.655C59.5233 290.144 58.7123 288.586 57.9247 287.036C57.5619 286.322 58.6444 285.767 59.0111 286.489C59.789 288.023 60.6097 289.564 61.4322 291.069C61.8144 291.77 60.7552 292.352 60.3672 291.655ZM327.121 284.254C327.882 282.7 328.621 281.109 329.311 279.534C329.633 278.803 330.755 279.288 330.425 280.029C329.717 281.614 328.974 283.212 328.213 284.788C327.86 285.519 326.776 284.962 327.123 284.254H327.121ZM55.6491 282.337C54.9138 280.766 54.2077 279.156 53.5364 277.565C53.2241 276.824 54.3454 276.35 54.6577 277.095C55.3232 278.678 56.0254 280.271 56.7529 281.829C57.0924 282.555 55.9944 283.075 55.6491 282.337ZM331.342 274.736C331.981 273.128 332.615 271.497 333.199 269.873C333.471 269.12 334.617 269.527 334.342 270.286C333.752 271.919 333.118 273.57 332.468 275.188C332.167 275.937 331.048 275.481 331.342 274.736ZM51.5906 272.721C50.9756 271.093 50.3703 269.44 49.8097 267.797C49.5497 267.035 50.7001 266.639 50.962 267.401C51.5188 269.031 52.1086 270.676 52.7274 272.286C53.0165 273.037 51.8758 273.473 51.5906 272.721ZM334.889 264.945C335.422 263.304 335.929 261.63 336.396 259.979C336.615 259.209 337.785 259.536 337.566 260.312C337.093 261.981 336.579 263.667 336.045 265.324C335.795 266.101 334.644 265.696 334.889 264.945ZM48.2014 262.815C47.699 261.151 47.214 259.455 46.7678 257.779C46.5602 256.999 47.7339 256.692 47.9415 257.466C48.3877 259.131 48.8668 260.807 49.3635 262.46C49.5963 263.238 48.4342 263.581 48.2034 262.817L48.2014 262.815ZM337.727 254.954C338.142 253.282 338.53 251.577 338.883 249.891C339.048 249.105 340.239 249.351 340.074 250.143C339.717 251.842 339.327 253.559 338.91 255.245C338.72 256.013 337.531 255.748 337.729 254.954H337.727ZM45.5145 252.694C45.1382 250.997 44.7676 249.274 44.4359 247.571C44.2826 246.781 45.4777 246.55 45.6309 247.34C45.9607 249.029 46.3157 250.737 46.6999 252.421C46.8803 253.208 45.6872 253.48 45.5126 252.694H45.5145ZM339.865 244.792C340.158 243.097 340.426 241.372 340.664 239.665C340.775 238.872 341.981 239.033 341.869 239.834C341.626 241.555 341.361 243.297 341.06 245.006C340.92 245.803 339.729 245.582 339.865 244.792ZM43.5415 242.416C43.2699 240.699 43.0294 238.957 42.8237 237.232C42.7287 236.429 43.9373 236.288 44.0324 237.085C44.2361 238.794 44.4786 240.526 44.7443 242.226C44.8685 243.021 43.6657 243.211 43.5396 242.418L43.5415 242.416ZM341.291 234.51C341.469 232.803 341.619 231.059 341.733 229.338C341.787 228.529 342.998 228.625 342.946 229.422C342.831 231.16 342.67 232.916 342.497 234.637C342.414 235.457 341.211 235.283 341.291 234.51ZM42.2902 232.025C42.1447 230.301 42.0225 228.539 41.9333 226.801C41.8925 225.994 43.1089 225.94 43.1497 226.741C43.237 228.465 43.3534 230.21 43.5066 231.921C43.5803 232.741 42.3562 232.805 42.2902 232.025ZM342.003 224.151C342.113 221.183 342.125 217.25 342.003 213.848C341.974 213.031 343.192 213.013 343.219 213.805C343.332 216.926 343.339 220.828 343.215 224.188C343.184 225.012 341.974 224.923 342.003 224.151ZM41.7509 221.569C41.7393 220.7 41.7393 217.202 41.7509 216.323C41.7626 215.514 42.9789 215.543 42.9673 216.34C42.9557 217.21 42.9557 220.682 42.9673 221.542C42.9789 222.354 41.7606 222.354 41.7509 221.569ZM41.9294 211.091C42.0186 209.356 42.135 207.597 42.2902 205.863C42.362 205.055 43.5726 205.176 43.5027 205.967C43.3514 207.688 43.237 209.43 43.1458 211.151C43.1031 211.968 41.8887 211.873 41.9294 211.091ZM341.737 208.666C341.609 206.945 341.473 205.203 341.299 203.494C341.217 202.693 342.428 202.566 342.511 203.368C342.69 205.088 342.839 206.844 342.955 208.579C343.01 209.399 341.797 209.448 341.739 208.666H341.737ZM42.8276 200.652C43.0333 198.921 43.2796 197.179 43.5493 195.462C43.6754 194.663 44.8763 194.855 44.7521 195.648C44.4863 197.352 44.2496 199.082 44.0401 200.793C43.9431 201.583 42.7306 201.461 42.8276 200.652ZM340.68 198.345C340.453 196.636 340.173 194.913 339.88 193.218C339.743 192.424 340.944 192.217 341.079 193.01C341.372 194.719 341.64 196.457 341.882 198.182C341.995 198.979 340.784 199.144 340.68 198.345ZM44.4436 190.302C44.7754 188.598 45.1362 186.874 45.5223 185.174C45.7008 184.393 46.8919 184.658 46.7096 185.448C46.3177 187.132 45.9646 188.843 45.6406 190.533C45.4874 191.33 44.2904 191.089 44.4436 190.302ZM339.498 188.612C338.751 188.612 339.048 188.253 337.75 183.068C337.554 182.284 338.74 182.002 338.928 182.777C339.339 184.464 339.737 186.179 340.092 187.879C340.171 188.253 339.888 188.614 339.496 188.614L339.498 188.612ZM47.373 180.864C46.985 180.864 46.6766 180.491 46.7813 180.095C47.2314 178.419 47.7164 176.724 48.215 175.059C48.4439 174.295 49.6176 174.638 49.379 175.416C47.8018 180.563 48.085 180.866 47.3711 180.866L47.373 180.864ZM337.003 178.487C336.307 178.487 336.577 178.227 334.914 173.076C334.668 172.312 335.82 171.94 336.07 172.702C336.61 174.353 337.112 176.039 337.587 177.713C337.696 178.095 337.407 178.487 337.003 178.487ZM49.8291 170.069C50.3897 168.432 50.9853 166.773 51.61 165.146C51.8991 164.393 53.032 164.826 52.7488 165.58C52.1396 167.2 51.5382 168.841 50.9795 170.465C50.7137 171.237 49.573 170.82 49.8291 170.069ZM333.81 168.566C333.145 168.566 333.405 168.322 331.389 163.316C331.09 162.573 332.217 162.114 332.52 162.864C333.168 164.476 333.798 166.122 334.384 167.753C334.524 168.141 334.247 168.566 333.81 168.566ZM54.132 161.14C53.7091 161.14 53.3948 160.703 53.5713 160.292C54.2581 158.697 54.9584 157.079 55.6956 155.502C56.039 154.771 57.139 155.289 56.7995 156.014C54.5452 160.835 54.778 161.138 54.1301 161.138L54.132 161.14ZM329.934 158.897C329.313 158.897 329.571 158.709 327.197 153.82C326.846 153.098 327.94 152.563 328.293 153.29C329.049 154.85 329.792 156.449 330.491 158.04C330.669 158.447 330.372 158.895 329.934 158.895V158.897ZM58.5261 151.674C58.076 151.674 57.7792 151.201 57.9868 150.792C58.7725 149.244 59.6028 147.692 60.437 146.163C60.8211 145.461 61.892 146.043 61.5021 146.749C58.8462 151.554 59.1081 151.674 58.5261 151.674ZM325.389 149.509C324.82 149.509 325.096 149.457 322.343 144.638C321.943 143.94 323 143.334 323.398 144.035C324.26 145.544 325.113 147.086 325.924 148.619C326.135 149.021 325.848 149.509 325.389 149.509ZM63.572 142.543C63.0948 142.543 62.8038 142.025 63.0463 141.621C63.9406 140.137 64.868 138.636 65.8147 137.175C66.2531 136.498 67.2774 137.157 66.8409 137.834C63.8087 142.527 64.1133 142.543 63.572 142.543ZM320.195 140.465C319.656 140.465 319.984 140.453 316.866 135.815C316.418 135.148 317.427 134.471 317.875 135.138C318.845 136.581 319.796 138.063 320.713 139.536C320.967 139.945 320.671 140.465 320.195 140.465ZM69.231 133.786C68.7402 133.786 68.4531 133.233 68.7305 132.829C69.716 131.405 70.7597 129.981 71.7996 128.588C72.2768 127.948 73.2585 128.67 72.7735 129.318C69.4153 133.817 69.7354 133.786 69.231 133.786ZM314.389 131.809C313.888 131.809 314.096 131.681 310.786 127.393C310.295 126.757 311.256 126.014 311.747 126.65C312.81 128.026 313.871 129.434 314.883 130.845C315.171 131.244 314.891 131.809 314.389 131.809ZM75.4836 125.446C74.987 125.446 74.6882 124.858 75.0142 124.454C76.1064 123.106 77.2257 121.746 78.3684 120.435C78.9 119.824 79.8079 120.629 79.286 121.23C75.829 125.195 76.0171 125.446 75.4836 125.446ZM308.004 123.56C307.482 123.56 307.711 123.401 304.146 119.414C303.608 118.813 304.514 118.002 305.054 118.601C306.221 119.897 307.366 121.238 308.47 122.565C308.792 122.953 308.522 123.56 308.004 123.56ZM82.3027 117.558C81.8022 117.558 81.4899 116.935 81.8604 116.531C83.0361 115.253 84.2621 113.988 85.4843 112.75C86.045 112.184 86.918 113.034 86.3438 113.612C82.5433 117.43 82.7877 117.558 82.3027 117.558ZM301.063 115.788C300.623 115.788 300.877 115.73 296.97 111.906C296.393 111.344 297.247 110.475 297.821 111.037C299.063 112.252 300.306 113.499 301.501 114.758C301.868 115.144 301.598 115.788 301.063 115.788ZM89.6553 110.156C89.1083 110.156 88.8308 109.479 89.2344 109.101C90.4973 107.908 91.8029 106.729 93.1105 105.58C93.7138 105.05 94.5247 105.962 93.9136 106.498C89.8765 110.046 90.0996 110.156 89.6553 110.156ZM293.596 108.506C293.161 108.506 293.447 108.442 289.289 104.911C288.676 104.391 289.462 103.465 290.075 103.985C291.402 105.111 292.723 106.275 294.007 107.444C294.42 107.821 294.147 108.506 293.594 108.506H293.596ZM97.4852 103.281C96.9303 103.281 96.651 102.567 97.103 102.199C98.4455 101.101 99.8268 100.006 101.21 98.9569C101.852 98.468 102.585 99.4341 101.949 99.921C97.5996 103.254 97.8867 103.281 97.4852 103.281ZM285.646 101.756C285.229 101.756 285.394 101.617 281.139 98.4699C280.487 97.9888 281.213 97.013 281.861 97.4883C283.267 98.5204 284.662 99.5951 286.024 100.67C286.478 101.029 286.222 101.756 285.646 101.756ZM105.777 96.9664C105.206 96.9664 104.931 96.2098 105.426 95.8587C106.84 94.8518 108.295 93.8547 109.746 92.9079C110.421 92.4676 111.088 93.4802 110.415 93.9245C106.093 96.7763 106.172 96.9664 105.777 96.9664ZM276.906 95.4629C275.494 94.4774 274.025 93.5229 272.568 92.6034C271.889 92.1746 272.543 91.1445 273.22 91.5771C274.685 92.5141 276.159 93.4783 277.593 94.458C278.258 94.9139 277.56 95.9169 276.906 95.461V95.4629ZM114.485 91.2395C113.884 91.2395 113.634 90.4344 114.167 90.1105C115.642 89.2142 117.163 88.3218 118.684 87.4643C119.384 87.0685 119.983 88.1278 119.283 88.5255C114.617 91.1658 114.837 91.2395 114.485 91.2395ZM268.448 89.9844C268.164 89.9844 266.729 89.0376 263.611 87.346C262.905 86.9638 263.483 85.891 264.193 86.277C265.718 87.1035 267.251 87.9706 268.756 88.8495C269.29 89.1618 269.07 89.9844 268.448 89.9844ZM123.289 84.9733C124.831 84.1721 126.409 83.3903 127.978 82.6492C128.702 82.3078 129.235 83.4 128.5 83.7492C126.944 84.4864 125.378 85.2605 123.85 86.0578C123.132 86.4322 122.577 85.3439 123.289 84.9733ZM259 84.9462C257.463 84.1799 255.882 83.431 254.307 82.7132C253.57 82.3776 254.082 81.2738 254.808 81.6055C256.393 82.3291 257.987 83.0877 259.541 83.8559C260.247 84.2051 259.737 85.3128 259.002 84.9462H259ZM132.977 81.6618C132.333 81.6618 132.126 80.7597 132.739 80.4919C134.324 79.8032 135.953 79.1339 137.575 78.5015C138.328 78.2086 138.763 79.3415 138.018 79.6306C133.303 81.4697 133.296 81.6598 132.976 81.6598L132.977 81.6618ZM249.779 80.7015C249.509 80.7015 249.795 80.6568 244.702 78.7498C243.949 78.4685 244.376 77.3239 245.127 77.611C246.753 78.2299 248.398 78.8662 250.008 79.5278C250.619 79.78 250.441 80.7015 249.779 80.7015ZM142.683 77.8594C141.998 77.8594 141.839 76.9049 142.483 76.6779C144.117 76.1017 145.785 75.5469 147.446 75.0308C148.214 74.7922 148.575 75.9523 147.807 76.191C145.176 77.0096 142.866 77.8594 142.683 77.8594ZM239.988 77.0562C239.705 77.0562 240.003 77.0019 234.833 75.4693C234.057 75.2384 234.408 74.0725 235.177 74.2995C236.849 74.7942 238.531 75.3238 240.178 75.8689C240.828 76.0843 240.679 77.0562 239.988 77.0562ZM152.618 74.7534C151.912 74.7534 151.776 73.7427 152.457 73.5584C154.131 73.1044 155.835 72.664 157.52 72.2586C158.302 72.0704 158.589 73.2577 157.804 73.4459C154.783 74.1695 152.831 74.7534 152.618 74.7534ZM229.976 74.1113C229.729 74.1113 229.046 73.8416 224.761 72.8852C223.969 72.7087 224.237 71.5214 225.021 71.694C226.72 72.0704 228.435 72.4797 230.123 72.9104C230.812 73.087 230.686 74.1113 229.976 74.1113ZM162.749 72.3459C162.01 72.3459 161.913 71.2847 162.626 71.1431C164.322 70.8055 166.051 70.4874 167.767 70.2002C168.557 70.0683 168.765 71.2653 167.967 71.3992C162.991 72.2372 162.966 72.3459 162.749 72.3459ZM219.771 71.8686C219.55 71.8686 218.609 71.6048 214.529 71.0092C213.736 70.8928 213.908 69.6842 214.708 69.8045C216.427 70.0664 218.171 70.3477 219.884 70.66C220.607 70.7919 220.506 71.8686 219.771 71.8686ZM173.021 70.6484C172.264 70.6484 172.189 69.5329 172.943 69.4359C174.66 69.2128 176.412 69.0246 178.146 68.8539C178.948 68.7743 179.066 69.9868 178.263 70.0664C173.859 70.5068 173.215 70.6484 173.021 70.6484ZM209.427 70.3399C208.987 70.3399 208.341 70.1711 204.195 69.8491C203.392 69.787 203.483 68.5803 204.286 68.6366C206.024 68.7608 207.776 68.9315 209.497 69.1274C210.253 69.2128 210.186 70.3399 209.427 70.3399ZM183.404 69.6609C182.622 69.6609 182.585 68.493 183.365 68.4484C185.099 68.3514 186.859 68.2486 188.593 68.2273C189.41 68.2176 189.42 69.4242 188.628 69.4398C185.711 69.496 183.672 69.6609 183.404 69.6609ZM199.036 69.5348C198.557 69.5348 196.639 69.4145 193.822 69.401C193.02 69.3971 193.024 68.1807 193.826 68.1846C195.568 68.1904 197.333 68.2486 199.062 68.3184C199.843 68.3495 199.83 69.5348 199.036 69.5348Z" fill="black"/>
<path d="M70.7536 71.6787C72.6936 71.6787 74.265 73.2501 74.265 75.1901C74.265 77.1301 72.6936 78.7015 70.7536 78.7015C68.8136 78.7015 67.2422 77.1301 67.2422 75.1901C67.2422 73.2501 68.8136 71.6787 70.7536 71.6787Z" fill="white"/>
<path d="M70.7534 79.3046C68.4797 79.3046 66.6328 77.4577 66.6328 75.184C66.6328 72.9104 68.4797 71.0635 70.7534 71.0635C73.0271 71.0635 74.8739 72.9104 74.8739 75.184C74.8739 77.4577 73.0271 79.3046 70.7534 79.3046ZM70.7534 72.2818C69.1548 72.2818 67.8511 73.5855 67.8511 75.184C67.8511 76.7826 69.1548 78.0863 70.7534 78.0863C72.3519 78.0863 73.6556 76.7826 73.6556 75.184C73.6556 73.5855 72.3519 72.2818 70.7534 72.2818Z" fill="black"/>
<path d="M314.705 47.4405C317.596 53.404 317.388 53.0665 317.621 53.1072L323.662 54.0636C323.918 54.1024 324.017 54.4245 323.831 54.6029C319.051 59.193 319.303 58.8981 319.342 59.1309L320.298 65.1721C320.337 65.4281 320.067 65.6241 319.838 65.5019C313.991 62.4017 314.354 62.5201 314.144 62.6287L308.695 65.4049C308.464 65.5213 308.194 65.3273 308.239 65.0712C309.316 58.838 309.409 58.966 309.213 58.7701L304.889 54.4458C304.706 54.2634 304.811 53.9453 305.067 53.9065C311.624 52.9442 311.254 53.0956 311.364 52.886L314.141 47.4366C314.257 47.2057 314.593 47.2077 314.705 47.4405Z" fill="#81F889"/>
<path d="M323.758 53.4603L317.87 52.5252L315.253 47.167C314.934 46.5151 313.964 46.4395 313.598 47.1534L310.89 52.469L304.984 53.2993C304.235 53.4021 303.917 54.3275 304.458 54.8688L308.674 59.0844L307.64 64.9568C307.51 65.7056 308.292 66.2915 308.971 65.9423L314.286 63.234C320.021 66.2818 319.666 66.1402 319.988 66.1402C320.52 66.1402 321.001 65.6513 320.906 65.0673L319.971 59.1794L324.26 55.0375C324.803 54.5137 324.518 53.5825 323.761 53.4603H323.758ZM319.012 58.4054C318.539 58.8671 318.663 58.7488 319.604 64.6813C314.294 61.8586 314.61 61.9789 314.288 61.9789C313.957 61.9789 314.37 61.8178 308.94 64.5862C309.985 58.6595 310.1 58.7798 309.644 58.3239L305.733 54.4129L311.21 53.6446C311.852 53.5593 311.7 53.5515 314.416 48.2204C317.065 53.6485 316.894 53.5981 317.528 53.7009L322.991 54.5661L319.014 58.4073L319.012 58.4054Z" fill="black"/>
<path d="M203.915 335.105L200.151 334.509L198.477 331.085C198.188 330.486 197.33 330.47 197.016 331.078L195.286 334.476L191.508 335.006C190.839 335.101 190.57 335.918 191.045 336.393L193.739 339.088L193.078 342.842C192.956 343.499 193.656 344.014 194.252 343.707L197.651 341.977C201.278 343.905 201.117 343.862 201.401 343.862C201.843 343.862 202.287 343.445 202.204 342.906L201.608 339.142L204.351 336.496C204.834 336.042 204.584 335.21 203.915 335.105Z" fill="black"/>
<path d="M273.07 218.97C273.07 263.45 237.008 299.509 192.523 299.509C148.039 299.509 111.984 263.45 111.984 218.97C111.984 174.489 148.047 138.427 192.527 138.427C237.008 138.427 273.07 174.491 273.07 218.97Z" fill="white"/>
<path d="M192.557 137.645C147.801 137.627 111.484 173.75 111.205 218.449C110.925 263.213 147.108 300.22 192.401 300.288C215.978 300.323 239.567 290.181 255.915 269.857C256.057 269.768 256.167 269.632 256.229 269.463C267.85 254.836 273.831 236.97 273.864 218.996C273.942 174.636 237.986 137.66 192.559 137.643L192.557 137.645ZM272.281 218.187H233.221C233.147 202.553 230.889 187.613 226.736 174.79C237.619 173.61 247.354 171.862 255.193 169.631C266.215 183.601 272.112 200.365 272.279 218.187H272.281ZM193.306 139.225C206.263 139.745 217.697 153.166 224.637 173.434C214.892 174.417 204.274 174.951 193.306 174.974V139.225ZM191.74 174.974C180.771 174.951 170.152 174.417 160.409 173.436C167.348 153.168 178.783 139.745 191.74 139.225V174.974ZM191.74 176.543V218.187H153.39C153.466 202.229 155.854 187.376 159.901 174.958C169.797 175.971 180.591 176.52 191.74 176.543ZM191.74 219.751V261.391C180.591 261.416 169.795 261.965 159.899 262.978C155.852 250.56 153.466 235.709 153.39 219.751H191.74ZM191.74 262.959V298.713C178.781 298.193 167.346 284.77 160.407 264.501C170.152 263.517 180.771 262.984 191.74 262.959ZM193.306 262.959C204.276 262.982 214.894 263.515 224.638 264.499C217.699 284.768 206.263 298.193 193.306 298.713V262.959ZM193.306 261.389V219.749H231.655C231.58 235.706 229.194 250.554 225.147 262.974C215.251 261.961 204.457 261.412 193.306 261.389ZM193.306 218.185V176.542C204.457 176.516 215.251 175.967 225.147 174.954C229.194 187.374 231.582 202.225 231.655 218.185H193.306ZM254.126 168.302C246.396 170.446 236.862 172.128 226.231 173.265C221.899 160.537 213.972 145.341 201.803 139.74C222.223 142.099 240.884 152.206 254.128 168.3L254.126 168.302ZM183.245 139.742C171.077 145.342 163.144 160.537 158.814 173.269C148.185 172.132 138.654 170.452 130.923 168.306C144.171 152.208 162.828 142.103 183.247 139.744L183.245 139.742ZM129.854 169.631C137.695 171.862 147.428 173.608 158.308 174.788C154.154 187.609 151.896 202.551 151.824 218.185H112.77C112.937 200.363 118.835 183.601 129.854 169.631ZM112.77 219.751H151.824C151.898 235.385 154.156 250.323 158.308 263.145C147.444 264.322 137.723 266.067 129.889 268.294C119.32 254.902 112.947 238.053 112.77 219.751ZM130.958 269.619C138.681 267.479 148.201 265.803 158.812 264.666C163.139 277.39 171.065 292.577 183.221 298.185C162.252 295.739 143.739 285.125 130.958 269.619ZM201.822 298.185C213.978 292.575 221.907 277.388 226.233 264.664C236.845 265.799 246.365 267.477 254.09 269.617C241.309 285.123 222.794 295.739 201.822 298.185ZM255.161 268.29C247.325 266.065 237.602 264.321 226.738 263.143C230.889 250.321 233.147 235.383 233.221 219.751H272.279C272.103 238.053 265.73 254.9 255.161 268.29Z" fill="black"/>
<path d="M96.6784 119.797H15.6562V200.817H96.6784V119.797Z" fill="white"/>
<path d="M97.2873 119.797C97.2873 119.463 97.0137 119.188 96.68 119.188H11.3123C10.9767 119.188 10.7031 119.461 10.7031 119.797V200.817C10.7031 201.152 10.9767 201.426 11.3123 201.426H96.6781C97.0118 201.426 97.2853 201.152 97.2853 200.817L97.2873 119.797ZM96.0709 200.21H16.267V120.404H96.0709V200.21Z" fill="black"/>
<path d="M71.0103 151.161C70.5719 150.967 70.1295 150.937 69.7008 151.042C69.8366 147.684 69.7765 144.854 69.7008 143.633C69.1751 135.068 64.49 130.286 55.7988 130.286C47.1076 130.286 41.4447 136.058 41.0955 144.45C41.0451 145.665 41.0994 148.105 41.3283 151.031C40.9131 150.937 40.4902 150.976 40.0673 151.162C37.1301 152.447 38.8781 158.736 42.3526 159.175C43.0801 163.171 43.7203 166.013 46.446 168.737C46.6633 170.747 47.158 177.366 44.5157 179.378C46.8224 183.023 52.5376 184.631 56.4409 187.904C59.2306 185.343 64.9459 182.936 67.3709 179.378C64.2649 177.393 64.5482 171.581 64.7829 169.344C67.5241 166.673 68.368 162.991 68.9558 159.19C71.8115 159.016 74.1259 152.524 71.0103 151.161Z" fill="white"/>
<path d="M51.0332 163.368C54.4437 163.842 57.7262 164.042 60.3762 162.982C60.3762 162.982 57.4876 168.178 54.7735 167.12C52.4397 166.211 51.0312 163.37 51.0312 163.37L51.0332 163.368Z" fill="white"/>
<path d="M52.9175 153.537C54.0233 150.132 53.3792 149.025 54.2076 149.1C54.4462 149.122 54.6228 149.335 54.5995 149.574C54.4133 151.432 54.0388 152.907 53.744 153.811C53.226 155.394 55.9963 156.686 57.8374 154.294C58.1885 153.838 58.8753 154.362 58.528 154.819C56.1631 157.939 52.0736 156.133 52.9175 153.537Z" fill="black"/>
<path d="M61.1086 162.191C57.601 163.873 52.3417 163.404 49.8954 162.552C49.3541 162.366 49.0689 163.185 49.6121 163.373C49.8876 163.468 50.2271 163.567 50.6151 163.66C51.0535 164.463 52.2078 165.934 53.5872 166.989C56.3866 169.121 58.9784 166.122 60.9301 163.216C61.1163 163.14 61.2987 163.06 61.4791 162.973C61.9971 162.725 61.6246 161.941 61.1047 162.191H61.1086ZM54.1207 166.298C53.0556 165.483 52.2622 164.519 51.814 163.902C54.2798 164.317 57.1335 164.333 59.5507 163.681C58.0453 165.755 56.1072 167.819 54.1207 166.298Z" fill="black"/>
<path d="M49.1508 149.854C49.7561 149.854 50.2469 150.437 50.2469 151.157C50.2469 151.877 49.7561 152.461 49.1508 152.461C48.5455 152.461 48.0547 151.877 48.0547 151.157C48.0547 150.437 48.5455 149.854 49.1508 149.854Z" fill="black"/>
<path d="M61.9633 149.854C62.5686 149.854 63.0594 150.437 63.0594 151.157C63.0594 151.877 62.5686 152.461 61.9633 152.461C61.358 152.461 60.8672 151.877 60.8672 151.157C60.8672 150.437 61.358 149.854 61.9633 149.854Z" fill="black"/>
<path d="M44.3779 146.662C44.5176 146.526 47.7885 143.37 52.0972 145.046C52.7937 145.318 52.3843 146.369 51.6879 146.097C48.0659 144.691 45.2859 147.353 45.1695 147.467C44.6418 147.985 43.8483 147.18 44.3779 146.664V146.662Z" fill="black"/>
<path d="M65.9358 147.466C65.8155 147.348 63.0336 144.694 59.4174 146.097C58.7209 146.366 58.3135 145.315 59.0081 145.045C63.3187 143.373 66.5915 146.527 66.7312 146.661C67.2608 147.177 66.4712 147.992 65.9358 147.466Z" fill="black"/>
<path d="M96.9395 200.144L94.5067 193.856C92.5027 188.362 87.901 184.3 82.2207 182.992L67.5931 179.013C64.3067 176.908 65.1467 171.077 65.2806 169.369C67.9171 166.727 68.7357 163.293 69.3371 159.584C70.7708 159.283 71.8068 157.795 72.3946 156.461C73.7914 153.277 72.3228 150.526 70.1578 150.551C70.2683 147.368 70.2043 144.737 70.1345 143.61C69.5835 134.61 64.6249 129.855 55.7979 129.855C46.9709 129.855 41.0306 135.578 40.6601 144.437C40.6174 145.484 40.6542 147.752 40.856 150.553C38.6774 150.586 37.333 153.386 38.6832 156.461C39.465 158.242 40.7978 159.276 41.9793 159.555C42.6874 163.317 43.3159 166.048 45.836 168.743C46.1619 169.911 46.9786 176.844 44.3131 178.988L29.3363 182.992C23.6385 184.304 19.0407 188.368 17.0328 193.862L14.73 200.159C14.6252 200.444 14.8406 200.739 15.1355 200.741C15.5681 200.739 15.4032 200.84 17.8456 194.157C19.7507 188.942 24.1177 185.083 29.54 183.83L39.7036 181.116C41.9967 188.236 46.546 195.556 46.5926 195.629C46.6585 195.736 46.7711 195.808 46.8913 195.829C47.1571 195.883 46.4742 196.364 55.8522 188.604V196.015C55.8522 196.588 56.7213 196.591 56.7213 196.011V188.979L64.8751 195.728C65.0905 195.907 65.3892 195.837 65.5231 195.623C65.5658 195.55 70.0743 188.302 72.3771 181.215L82.0053 183.834C87.416 185.081 91.7849 188.94 93.6919 194.165L96.1305 200.462C96.3342 201.001 97.1432 200.675 96.9395 200.144ZM70.1228 151.424C70.375 151.413 70.6117 151.461 70.8348 151.56C73.2695 152.637 71.7136 157.702 69.4846 158.628C69.8299 156.214 70.022 153.706 70.1228 151.424ZM40.922 151.424C41.1024 153.644 41.3837 156.135 41.8066 158.591C38.4019 157.221 38.1458 151.308 40.922 151.424ZM43.7854 163.501C41.89 156.895 41.4128 147.343 41.5292 144.475C41.8764 136.122 47.4792 130.725 55.7959 130.725C64.1127 130.725 68.7454 135.196 69.2634 143.662C69.4206 146.214 69.5544 157.939 67.2555 164.576C65.1041 170.795 58.8282 172.454 55.4564 172.454C51.6405 172.454 45.4635 169.342 43.7854 163.501ZM46.9127 169.775C49.6073 172.107 52.9946 173.317 55.4603 173.317C57.7903 173.317 61.4219 172.57 64.3222 170.231C64.0894 172.363 63.909 177.244 66.7375 179.471C63.5579 183.314 58.7486 185.25 56.3857 187.363C52.0071 184.548 47.6266 182.664 45.1027 179.45C47.4501 177.193 47.1397 171.868 46.9127 169.775ZM47.0756 194.743C46.0843 193.096 42.4972 186.921 40.5475 180.891L44.3422 179.878C46.8778 183.186 51.2408 185.151 55.4642 187.799L47.0756 194.743ZM65.042 194.739L56.9367 188.03C59.3248 185.873 64.1864 183.999 67.5097 179.892L71.5371 180.988C69.5816 186.981 66.0275 193.098 65.042 194.739Z" fill="black"/>
<path d="M42.9062 160.812C42.9062 160.812 45.145 158.218 54.457 158.1C63.771 157.984 68.1321 158.335 68.3687 162.106C68.6054 165.877 66.3647 170.594 64.1279 172.479C61.8892 174.365 54.5792 174.957 51.2774 174.365C47.9794 173.775 42.9062 169.769 42.9062 160.812ZM61.4119 168.143C62.5235 167.208 64.0115 164.485 64.32 162.036C64.4073 161.346 63.9378 160.702 63.251 160.575C62.3334 160.409 59.7571 161.165 57.4368 161.115C56.8587 161.103 56.3058 160.106 55.621 160.106C54.8334 160.106 54.8334 161.053 53.9565 161.062C50.8234 161.097 48.8795 160.603 47.4633 160.967C46.7901 161.14 46.3692 161.805 46.503 162.492C47.4478 167.336 49.867 168.952 51.5664 169.228C51.9059 169.282 52.6703 169.389 53.9662 169.389C57.5261 169.389 59.7862 169.705 61.4158 168.141L61.4119 168.143Z" fill="#81F889"/>
<path d="M63.3149 160.142C62.2983 159.948 59.6793 160.73 57.4309 160.672C57.3145 160.668 57.0662 160.459 56.8838 160.303C54.9671 158.672 54.6509 160.625 53.9408 160.625C50.7864 160.666 48.8638 160.154 47.3487 160.548C46.4582 160.783 45.8976 161.673 46.0702 162.577C47.2265 168.531 50.5128 169.505 51.4945 169.66C52.6643 169.846 53.9563 169.856 56.715 169.856C58.8238 169.856 60.4224 169.681 61.695 168.469C62.9075 167.439 64.4149 164.635 64.7369 162.084C64.8553 161.159 64.2267 160.307 63.3149 160.142ZM63.1713 161.008C63.6272 161.095 63.9454 161.52 63.8853 161.985C63.6641 163.728 62.4516 166.777 61.113 167.838C59.8559 169.037 58.1215 169.016 55.5025 168.977C53.871 168.962 52.7768 168.991 51.6342 168.808C50.7941 168.673 47.9734 167.813 46.9277 162.416C46.6561 160.99 48.9259 161.246 50.4779 161.361C54.292 161.646 54.5073 161.603 55.163 160.852C55.4831 160.486 55.6015 160.354 56.3328 160.979C57.1205 161.65 57.266 161.803 61.1518 161.2C62.0073 161.07 62.8144 160.944 63.1713 161.008Z" fill="black"/>
<path d="M68.8004 162.087C68.5268 157.714 63.1686 157.563 54.4502 157.672C45.0509 157.788 42.6686 160.419 42.5735 160.531C42.5076 160.609 42.4688 160.71 42.4688 160.815C42.4688 169.933 47.6874 174.173 51.1949 174.8C54.3745 175.363 61.9192 174.914 64.4024 172.823C66.68 170.902 69.0487 166.023 68.8004 162.087ZM63.8417 172.152C61.7427 173.921 54.5685 174.517 51.3481 173.942C48.1549 173.374 43.4077 169.453 43.3379 161.001C43.8811 160.535 46.5932 158.636 54.4599 158.537C64.2297 158.415 67.7334 158.941 67.9332 162.14C68.164 165.816 65.9622 170.367 63.8417 172.152Z" fill="black"/>
<path d="M50.9219 130.261C50.9219 130.261 59.4346 130.917 62.8044 128.484L50.9219 130.261Z" fill="#81F889"/>
<path d="M55.6641 134.115C58.2152 134.433 66.1071 134.393 68.6931 131.659L55.6641 134.115Z" fill="#81F889"/>
<path d="M69.0432 131.466C68.0907 129.202 64.9634 128.858 62.8333 128.523C63.811 126.433 46.4228 125.254 44.3839 131.46C34.6877 133.247 40.0654 151.163 40.0654 151.163C42.1761 150.294 41.0568 151.172 41.5107 146.658C41.889 142.904 45.4994 144.208 49.0903 135.15C51.4164 138.275 57.0521 137.635 62.2629 137.424C63.0583 139.232 64.2495 140.735 67.6522 143.595C69.6892 145.306 69.6834 147.564 69.5767 150.222C69.5592 150.68 69.8444 150.72 70.9289 151.169C70.9289 151.169 76.6267 135.416 69.0432 131.466Z" fill="#81F889"/>
<path d="M69.3713 131.14C68.3275 128.915 65.4292 128.472 63.3049 128.14H63.2738C62.6026 125.636 46.3997 125.143 44.0523 131.074C36.5484 132.707 37.466 144.006 39.6446 151.283C39.6796 151.405 39.7669 151.5 39.8755 151.552C40.1083 151.665 40.1917 151.578 41.2451 151.139C42.2423 150.724 41.606 149.948 41.9416 146.693C42.2908 143.362 46.0525 143.882 49.2302 135.966C51.983 138.698 57.7565 138.034 61.9896 137.862C62.8858 139.751 64.2885 141.325 67.375 143.917C69.2781 145.523 69.2452 147.707 69.1443 150.196C69.1268 150.606 69.3713 150.988 69.7476 151.143L70.7642 151.564C71.0125 151.667 71.2647 151.498 71.3326 151.298C73.4627 144.77 75.3891 134.445 69.3732 131.138L69.3713 131.14ZM70.6672 150.582L70.0813 150.34C69.6467 150.163 71.0571 145.872 67.9357 143.251C61.9973 138.263 63.0915 136.964 62.2631 136.979C57.8651 137.068 51.6862 137.875 49.4513 134.876C49.2593 134.608 48.8247 134.657 48.6986 134.977C47.4182 138.248 45.9322 140.954 42.7098 143.546C40.0501 145.678 41.3286 150.173 40.9231 150.334L40.3586 150.569C38.5233 143.713 37.4951 133.165 44.4655 131.881C44.6227 131.85 44.7527 131.741 44.8012 131.59C46.004 127.917 52.9802 127.374 55.087 127.291C59.0485 127.143 61.8848 127.805 62.3737 128.245C59.0602 130.416 51.0344 129.83 50.9529 129.824C50.3825 129.784 50.3127 130.637 50.8869 130.69C53.8901 130.965 60.0612 130.814 62.8684 128.959L63.1768 129.008C65.1188 129.308 67.505 129.673 68.4614 131.272C66.2149 133.844 58.5131 134.03 55.7234 133.683C55.1511 133.611 55.0424 134.475 55.6147 134.548C59.1009 134.991 66.5253 134.614 69.0221 131.943C75.2436 135.466 71.4859 148.08 70.6633 150.58L70.6672 150.582Z" fill="black"/>
<path d="M240.748 30.8516H156.477V115.123H240.748V30.8516Z" fill="white"/>
<path d="M209.354 94.8596L223.547 98.724C228.845 99.9462 233.169 103.766 235.033 108.872L237.367 114.904H159.414C159.414 114.904 162.361 104.009 167.38 101.149C172.398 98.2895 189.81 94.3086 189.81 94.3086L209.354 94.8596Z" fill="#81F889"/>
<path d="M241.36 30.8514C241.36 30.5177 241.086 30.2441 240.753 30.2441H151.961C151.627 30.2441 151.352 30.5177 151.352 30.8514V115.125C151.352 115.459 151.625 115.734 151.961 115.734H240.753C241.086 115.734 241.36 115.461 241.36 115.125V30.8514ZM240.143 114.516H157.088V31.4605H240.143V114.516Z" fill="black"/>
<path d="M211.857 67.7753C212.37 64.6674 212.649 62.0561 212.579 60.8999C212.075 52.6956 206.67 47.8359 198.341 47.8359C190.013 47.8359 183.935 53.6947 183.599 61.7341C183.551 62.8787 183.885 65.1039 184.426 67.7772C181.962 66.9857 180.631 69.8705 181.886 72.7281C182.8 74.8078 184.703 75.9795 186.139 75.349L186.182 75.3296C187.301 79.6752 187.803 82.0731 190.023 84.597C190.077 86.6728 190.023 92.9662 187.532 94.8635C193.924 111.54 202.786 111.87 209.427 94.8635C206.297 92.8614 206.476 86.6127 206.608 84.7037C208.655 82.2496 209.489 78.7692 210.294 75.4615C211.695 75.8709 213.441 74.7166 214.304 72.7533C215.559 69.8976 214.232 67.0982 211.854 67.7772L211.857 67.7753Z" fill="white"/>
<path d="M193.727 77.3627C196.512 77.8418 199.415 77.9156 202.532 77.2715C202.532 77.2715 197.387 85.4292 193.727 77.3627Z" fill="white"/>
<path d="M195.269 71.487C194.88 71.0602 195.524 70.4782 195.908 70.9011C197.223 72.3464 198.992 72.4124 200.275 70.744C200.626 70.2881 201.313 70.8119 200.965 71.2697C199.318 73.4406 196.891 73.266 195.269 71.487Z" fill="black"/>
<path d="M203.133 76.3927C199.713 77.8748 194.706 77.2269 192.399 76.3228C191.862 76.1152 191.545 76.9242 192.083 77.1357C192.343 77.2366 192.661 77.3433 193.029 77.4461C193.425 78.4297 195.047 80.1601 195.747 80.7421C198.355 82.8858 200.941 80.133 202.933 77.4073C203.117 77.3413 203.3 77.2695 203.48 77.1919C203.996 76.9688 203.674 76.1599 203.137 76.3927H203.133ZM196.296 80.0728C195.326 79.2697 194.612 78.3385 194.203 77.7313C196.541 78.2124 199.21 78.3268 201.532 77.8108C200.015 79.7295 198.128 81.5744 196.296 80.0728Z" fill="black"/>
<path d="M191.973 65.3643C192.553 65.3643 193.025 65.923 193.025 66.6117C193.025 67.3004 192.553 67.8591 191.973 67.8591C191.393 67.8591 190.922 67.3004 190.922 66.6117C190.922 65.923 191.393 65.3643 191.973 65.3643Z" fill="black"/>
<path d="M204.247 65.3643C204.827 65.3643 205.298 65.923 205.298 66.6117C205.298 67.3004 204.827 67.8591 204.247 67.8591C203.667 67.8591 203.195 67.3004 203.195 66.6117C203.195 65.923 203.667 65.3643 204.247 65.3643Z" fill="black"/>
<path d="M206.643 66.4578C206.298 66.4578 204.506 64.8825 202.238 66.2192C201.737 66.5141 201.303 65.7613 201.793 65.4723C203.365 64.5469 205.167 64.6012 206.87 65.6508C207.247 65.8836 207.076 66.4578 206.643 66.4578Z" fill="black"/>
<path d="M189.555 66.4581C189.112 66.4581 188.953 65.8781 189.324 65.6492C191.031 64.5996 192.835 64.5395 194.401 65.4707C194.897 65.7656 194.447 66.5105 193.956 66.2176C191.7 64.8732 189.867 66.4581 189.555 66.4581Z" fill="black"/>
<path d="M207.868 47.7526L207.911 47.7565C211.742 41.2458 206.481 33.2666 198.071 33.2666C189.712 33.2666 184.381 41.1954 188.235 47.7642H188.319C184.547 50.4104 179.742 56.0344 183.16 65.8179C183.288 66.1826 183.812 66.1671 183.921 65.7965C186.297 57.6951 192.457 58.281 192.657 49.9681C192.666 49.5374 193.473 49.2755 193.747 49.8381C197.908 58.3974 206.98 56.6902 212.512 63.5325C212.724 63.7944 213.131 63.6877 213.213 63.3812C215.056 56.403 212.235 51.0467 207.868 47.7526Z" fill="black"/>
<path d="M187.388 62.2875C187.52 62.1575 190.665 59.1234 194.81 60.7316C195.507 61.0013 195.098 62.0547 194.401 61.7831C190.95 60.4406 188.29 62.982 188.181 63.0907C187.667 63.6048 186.852 62.8152 187.388 62.2875Z" fill="black"/>
<path d="M208.035 63.0907C207.915 62.9723 205.259 60.4445 201.815 61.7831C201.119 62.0547 200.711 61.0013 201.408 60.7316C205.55 59.1234 208.697 62.1575 208.83 62.2875C209.362 62.8055 208.568 63.6164 208.035 63.0907Z" fill="black"/>
<path d="M237.767 114.75L235.437 108.727C233.513 103.46 229.101 99.5602 223.656 98.305L209.666 94.4988C206.349 92.3764 206.952 85.4428 207.007 84.8938C208.945 82.5348 209.709 79.6422 210.629 75.9543C211.327 76.0222 212.002 75.801 212.596 75.4383C216.179 73.2383 216.035 67.0322 212.392 67.2379C212.842 64.3861 213.081 62.0115 213.013 60.8747C212.495 52.4396 206.789 47.4033 198.341 47.4033C189.892 47.4033 183.513 53.427 183.164 61.7225C183.121 62.7875 183.403 64.7896 183.88 67.2456C180.163 66.9139 179.965 73.1995 183.587 75.4383C184.283 75.8651 185.085 76.0882 185.88 75.9019C186.858 79.6578 187.341 82.1022 189.558 84.7212C189.587 85.2081 189.96 92.3357 187.343 94.4638L172.987 98.3031C167.524 99.5641 163.112 103.462 161.188 108.729L158.98 114.76C158.875 115.045 159.091 115.342 159.389 115.342C159.806 115.342 159.64 115.478 162.001 109.018C163.824 104.03 168.003 100.334 173.192 99.1392L187.269 95.3795C193.813 112.135 203.02 112.114 209.68 95.4047L223.444 99.147C228.62 100.338 232.754 104.049 234.626 109.029C237.053 115.486 236.947 115.34 237.364 115.34C237.663 115.34 237.878 115.038 237.767 114.75ZM213.899 72.569C213.348 73.8261 212.146 75.124 210.838 75.0949C211.397 72.7591 211.88 70.3264 212.249 68.1206C214.26 67.8335 214.831 70.4544 213.899 72.569ZM184.043 74.6933C181.042 72.8425 181.176 67.5463 184.058 68.1322C184.493 70.2604 185.052 72.6602 185.663 75.0541C185.168 75.1608 184.604 75.0386 184.043 74.6933ZM187.803 79.6442C185.865 72.891 183.926 64.355 184.035 61.7554C184.361 53.9411 190.381 48.2705 198.343 48.2705C206.5 48.2705 211.659 53.0022 212.146 60.9309C212.311 63.6741 210.503 74.4644 208.351 80.6743C206.43 86.2285 201.753 88.2054 198.017 88.2054C194.796 88.2054 189.496 85.5495 187.803 79.6442ZM188.055 94.9993C190.313 92.939 190.499 87.8969 190.466 85.6892C192.722 87.8698 195.566 89.0765 198.015 89.0765C200.636 89.0765 203.689 88.1744 206.072 85.9026C205.988 88.1181 206.145 92.9487 208.9 95.0264C202.279 111.666 194.071 110.438 188.053 95.0012L188.055 94.9993Z" fill="black"/>
<path d="M378.694 118.22H297.656V199.257H378.694V118.22Z" fill="white"/>
<path d="M379.307 118.22C379.307 117.886 379.033 117.61 378.698 117.61H293.312C292.979 117.61 292.703 117.884 292.703 118.22V199.257C292.703 199.591 292.977 199.866 293.312 199.866H378.698C379.031 199.866 379.307 199.593 379.307 199.257V118.22ZM378.09 198.65H298.269V118.827H378.09V198.65Z" fill="black"/>
<path d="M363.673 171.117C363.446 172.368 361.332 173.441 358.059 174.285C357.873 174.334 357.671 174.256 357.564 174.093C354.629 169.648 354.757 169.602 354.561 169.639C354.363 169.676 354.462 169.65 353.618 174.766C353.574 175.032 353.366 175.236 353.1 175.278C344.787 176.609 333.107 176.964 323.965 176.017C323.721 175.992 323.527 175.804 323.496 175.565L322.784 170.38C322.764 170.215 322.534 170.174 322.454 170.32C319.624 175.515 319.715 175.468 319.325 175.404C314.153 174.555 310.463 173.098 309.794 171.041C308.81 168.021 312.995 164.127 317.164 143.288C320.605 126.086 334.921 130.994 334.921 130.994C334.921 130.994 340.696 127.174 348.398 131.751C353.913 135.027 357.426 143.103 359.758 151.129C362.263 159.749 364.176 168.354 363.673 171.117Z" fill="black"/>
<path d="M351.604 154.08C352.099 151.087 352.366 148.571 352.299 147.459C351.816 139.567 346.614 134.896 338.61 134.896C330.606 134.896 324.758 140.537 324.438 148.268C324.392 149.366 324.71 151.498 325.226 154.063C322.855 153.306 321.584 156.08 322.791 158.825C323.67 160.824 325.501 161.955 326.881 161.347L326.916 161.33C327.987 165.482 328.466 167.806 330.611 170.244C330.652 172.524 330.522 178.367 328.219 180.123C334.365 196.159 342.888 196.471 349.272 180.123C346.527 178.369 346.384 172.9 346.461 170.467C348.492 168.106 349.286 164.836 350.106 161.468C351.455 161.869 353.139 160.758 353.971 158.864C355.179 156.115 353.901 153.417 351.606 154.08H351.604Z" fill="white"/>
<path d="M333.992 164.604C336.943 164.982 339.868 165.003 342.763 164.47C342.763 164.47 340.126 169.192 337.096 168.068C334.667 167.168 333.992 164.604 333.992 164.604Z" fill="white"/>
<path d="M335.916 158.731C335.555 158.287 336.228 157.734 336.593 158.184C337.689 159.534 339.099 159.61 340.157 158.037C340.479 157.559 341.2 158.046 340.878 158.523C339.443 160.65 337.33 160.475 335.916 158.731Z" fill="black"/>
<path d="M343.208 163.752C339.928 165.177 335.117 164.555 332.899 163.686C332.356 163.476 332.049 164.289 332.581 164.498C332.829 164.595 333.134 164.696 333.485 164.797C333.871 165.754 335.415 167.405 336.1 167.971C338.56 170.004 340.923 167.358 342.782 164.842C343.042 164.755 343.298 164.659 343.548 164.551C344.066 164.328 343.742 163.521 343.204 163.752H343.208ZM336.655 167.302C335.739 166.543 335.064 165.666 334.667 165.082C336.82 165.523 339.231 165.639 341.414 165.205C340.007 166.98 338.337 168.7 336.653 167.304L336.655 167.302Z" fill="black"/>
<path d="M338.204 133.836C331.36 133.848 327.13 133.353 323.9 140.904C322.583 143.98 322.284 148.06 324.449 153.316C326.521 144.324 332.95 145.317 333.15 136.954C333.16 136.525 333.934 136.292 334.194 136.828C338.289 145.311 347.462 143.29 352.7 150.604C353.693 147.375 353.66 144.495 352.919 142.006C350.469 133.764 346.559 133.823 338.204 133.836Z" fill="black"/>
<path d="M329.774 147.635C329.355 147.635 329.177 147.073 329.539 146.836C329.665 146.753 332.667 144.851 335.837 146.696C336.335 146.985 335.897 147.738 335.398 147.449C332.575 145.808 330.055 147.635 329.774 147.635Z" fill="black"/>
<path d="M346.872 147.748C346.769 147.672 344.28 145.926 341.496 147.352C340.986 147.614 340.585 146.846 341.097 146.578C344.354 144.879 347.258 146.957 347.381 147.044C347.85 147.38 347.326 148.084 346.872 147.748Z" fill="black"/>
<path d="M376.551 199.239L374.308 193.447C372.451 188.375 368.211 184.625 362.965 183.417L349.519 179.758C347.002 178.01 346.661 173.569 346.96 170.541C348.822 168.273 349.559 165.483 350.442 161.951C352.066 162.09 353.628 160.686 354.357 159.023C355.663 156.059 354.297 153.436 352.147 153.539C352.58 150.802 352.809 148.524 352.741 147.434C352.246 139.311 346.748 134.461 338.616 134.461C330.483 134.461 324.343 140.258 324.01 148.247C323.965 149.312 324.242 151.248 324.691 153.545C322.231 153.345 321.224 156.35 322.397 159.021C323.15 160.738 324.863 162.286 326.627 161.904C327.552 165.468 328.02 167.843 330.154 170.366C330.181 170.822 330.545 177.704 328.018 179.733L314.23 183.415C308.971 184.627 304.726 188.377 302.873 193.449L300.753 199.251C300.65 199.534 300.862 199.831 301.158 199.833C301.581 199.831 301.43 199.911 303.686 193.743C305.438 188.954 309.448 185.407 314.438 184.257L327.961 180.645C334.259 196.749 343.121 196.725 349.526 180.662L362.755 184.261C367.728 185.403 371.695 188.967 373.493 193.753C375.819 199.94 375.722 199.833 376.143 199.833C376.448 199.833 376.663 199.53 376.553 199.241L376.551 199.239ZM353.556 158.67C352.919 160.123 351.697 161.093 350.65 161.093C351.183 158.854 351.647 156.526 352.002 154.412C353.884 154.16 354.47 156.592 353.554 158.672L353.556 158.67ZM323.191 158.67C322.289 156.606 322.863 154.016 324.869 154.441C325.3 156.536 325.847 158.86 326.407 161.064C325.29 161.299 323.905 160.3 323.191 158.67ZM328.497 165.476C326.632 158.983 324.768 150.778 324.873 148.28C325.185 140.774 330.966 135.328 338.614 135.328C346.446 135.328 351.404 139.877 351.87 147.488C352.031 150.123 350.293 160.496 348.223 166.467C346.38 171.8 341.887 173.699 338.302 173.699C335.207 173.699 330.123 171.146 328.497 165.476ZM328.739 180.253C330.897 178.272 331.085 173.47 331.056 171.331C333.225 173.416 335.952 174.568 338.302 174.568C340.814 174.568 343.736 173.707 346.027 171.542C345.949 173.692 346.116 178.286 348.745 180.28C342.385 196.248 334.517 195.072 328.741 180.255L328.739 180.253Z" fill="black"/>
<path d="M331.924 149.166C334.299 149.166 336.221 151.091 336.221 153.465C336.221 155.84 334.297 157.762 331.924 157.762C329.551 157.762 327.625 155.838 327.625 153.465C327.625 151.092 329.549 149.166 331.924 149.166Z" fill="white"/>
<path d="M344.961 149.166C347.336 149.166 349.26 151.091 349.26 153.465C349.26 155.84 347.336 157.762 344.961 157.762C342.587 157.762 340.664 155.838 340.664 153.465C340.664 151.092 342.589 149.166 344.961 149.166Z" fill="white"/>
<path d="M352.096 152.691L349.789 152.862C349.493 150.464 347.442 148.602 344.965 148.602C342.598 148.602 340.621 150.303 340.19 152.546C339.028 152.014 337.86 152.016 336.698 152.551C336.27 150.305 334.293 148.602 331.922 148.602C329.441 148.602 327.39 150.47 327.097 152.873L324.478 152.747C323.724 152.726 323.685 153.836 324.426 153.876L327.089 154.004C327.359 156.431 329.423 158.327 331.922 158.327C334.496 158.327 336.607 156.317 336.774 153.785C337.893 153.124 338.989 153.124 340.113 153.783C340.278 156.317 342.39 158.329 344.965 158.329C347.467 158.329 349.533 156.428 349.799 153.995L352.179 153.818C352.911 153.768 352.855 152.65 352.098 152.693L352.096 152.691ZM331.922 157.198C329.862 157.198 328.189 155.523 328.189 153.465C328.189 151.407 329.862 149.733 331.922 149.733C333.982 149.733 335.655 151.405 335.655 153.465C335.655 155.525 333.98 157.198 331.922 157.198ZM344.965 157.198C342.904 157.198 341.232 155.523 341.232 153.465C341.232 151.407 342.904 149.733 344.965 149.733C347.025 149.733 348.697 151.405 348.697 153.465C348.697 155.525 347.025 157.198 344.965 157.198Z" fill="black"/>
<path d="M360.006 278.767H276.086V362.687H360.006V278.767Z" fill="white"/>
<path d="M359.885 361.387C360.182 361.954 359.781 362.683 359.1 362.683C276.221 362.683 276.446 362.836 276.167 362.423C275.928 362.07 275.976 362.202 277.67 358.138H358.192L359.887 361.389L359.885 361.387Z" fill="#81F889"/>
<path d="M355.05 351.099C355.193 351.464 355.719 352.455 355.41 352.455L280.777 352.655C280.581 352.655 280.113 352.112 280.699 351.204C281.281 350.3 285.931 346.497 285.931 346.497L349.552 346.371L355.05 351.099Z" fill="#81F889"/>
<path d="M360.61 278.766C360.61 278.433 360.337 278.157 360.001 278.157H271.578C271.244 278.157 270.969 278.431 270.969 278.766V362.687C270.969 363.021 271.242 363.296 271.578 363.296H360.001C360.335 363.296 360.61 363.023 360.61 362.687V278.766ZM359.394 362.078H276.69V279.376H359.394V362.078Z" fill="black"/>
<path d="M334.174 311.502C333.79 311.333 333.375 311.285 332.952 311.341C333.287 308.01 333.402 305.22 333.324 303.977C332.781 295.103 326.932 289.854 317.93 289.854C308.929 289.854 302.354 296.19 301.993 304.881C301.943 306.103 302.116 308.462 302.48 311.302C299.995 310.891 298.905 313.917 300.15 316.756C300.971 318.62 302.527 319.811 303.92 319.772C304.88 324.256 305.398 326.764 308.384 329.552C308.545 332.728 309.006 338.598 306.244 340.705C313.154 358.735 322.738 359.088 329.916 340.705C326.996 338.837 326.986 333.053 327.2 330.037C328.49 328.861 329.58 327.375 330.224 325.511C330.804 323.833 331.297 321.867 331.708 319.815C335.317 319.491 337.278 312.868 334.172 311.502H334.174Z" fill="white"/>
<path d="M312.766 323.316C316.126 323.832 319.358 323.824 322.427 323.134C322.427 323.134 318.741 328.593 316.186 327.276C314.325 326.315 312.766 323.316 312.766 323.316Z" fill="white"/>
<path d="M314.637 316.123C314.245 315.694 314.895 315.118 315.275 315.537C316.719 317.122 318.655 317.18 320.052 315.362C320.403 314.906 321.089 315.43 320.742 315.888C318.975 318.22 316.362 318.018 314.637 316.123Z" fill="black"/>
<path d="M323.127 322.347C319.42 323.955 313.992 323.251 311.493 322.273C310.953 322.065 310.641 322.876 311.175 323.086C311.458 323.196 311.807 323.313 312.209 323.427C312.608 324.465 314.409 326.386 315.148 326.999C317.959 329.323 320.76 326.285 322.879 323.383C323.079 323.311 323.274 323.233 323.468 323.15C323.992 322.925 323.661 322.12 323.125 322.351L323.127 322.347ZM315.699 326.328C314.608 325.424 313.815 324.368 313.378 323.712C315.951 324.254 318.917 324.384 321.478 323.792C319.821 325.903 317.716 327.998 315.699 326.328Z" fill="black"/>
<path d="M311.049 308.806C311.676 308.806 312.184 309.409 312.184 310.152C312.184 310.895 311.676 311.498 311.049 311.498C310.422 311.498 309.914 310.895 309.914 310.152C309.914 309.409 310.422 308.806 311.049 308.806Z" fill="black"/>
<path d="M324.315 308.806C324.941 308.806 325.449 309.409 325.449 310.152C325.449 310.895 324.941 311.498 324.315 311.498C323.688 311.498 323.18 310.895 323.18 310.152C323.18 309.409 323.688 308.806 324.315 308.806Z" fill="black"/>
<path d="M306.123 305.507C306.265 305.367 309.648 302.104 314.099 303.833C314.795 304.103 314.386 305.156 313.689 304.884C309.908 303.416 306.944 306.279 306.919 306.31C306.406 306.822 305.58 306.041 306.123 305.507Z" fill="black"/>
<path d="M328.442 306.314C328.322 306.196 325.425 303.43 321.667 304.888C320.971 305.158 320.564 304.107 321.258 303.837C325.708 302.108 329.09 305.37 329.233 305.509C329.763 306.025 328.975 306.838 328.442 306.314Z" fill="black"/>
<path d="M331.649 291.066C333.418 289.714 333.678 287.547 332.244 284.902C329.788 287.149 327.429 288.371 325.222 288.022C326.234 285.857 326.283 283.754 324.962 281.729C320.911 285.426 308.225 284.637 306.113 291.064C296.073 292.915 301.167 311.473 301.167 311.473L302.588 310.881C302.5 309.385 302.535 308.017 302.665 306.766C302.782 305.645 303.338 304.615 304.217 303.903C308.394 300.517 310.297 296.61 310.984 294.876C314.288 296.249 320.515 296.498 324.513 295.479C325.334 297.347 327.156 300.651 330.671 303.61C332.811 305.412 332.83 307.862 332.658 310.881L334.078 311.473C334.078 311.473 339.506 295.159 331.649 291.066Z" fill="black"/>
<path d="M360.535 362.217L358.015 355.703C355.937 350.019 351.178 345.811 345.298 344.457L330.135 340.328C326.723 338.121 327.627 331.189 327.796 330.072C330.455 327.482 331.196 324.531 332.091 320.162C336.504 319.215 337.759 311.135 333.437 310.866C333.738 307.686 333.829 305.079 333.761 303.951C333.204 294.851 327.047 289.419 317.933 289.419C308.818 289.419 301.935 295.916 301.563 304.869C301.512 306.076 301.666 308.251 301.986 310.858C297.367 310.98 298.93 319.753 303.573 320.216C304.498 324.444 305.014 326.888 307.911 329.684C308.299 332.619 308.372 338.437 306.042 340.309L290.53 344.455C284.632 345.815 279.874 350.017 277.796 355.701L275.41 362.223C275.305 362.508 275.52 362.805 275.817 362.805C276.238 362.805 276.129 362.788 277.763 358.32H358.096L359.724 362.526C359.926 363.063 360.744 362.751 360.537 362.214L360.535 362.217ZM355.029 351.904H323.916C325.182 350.618 326.41 348.909 327.584 346.794H349.136C351.475 348.015 353.491 349.763 355.029 351.904ZM330.176 341.24C330.176 341.24 346.499 345.675 347.178 345.925H328.052C328.783 344.523 329.491 342.961 330.176 341.24ZM332.277 319.225C332.756 316.697 333.109 314.086 333.352 311.729C336.46 311.857 335.575 318.049 332.277 319.225ZM300.537 316.608C299.596 314.457 300.042 311.727 302.058 311.727H302.096C302.407 314.088 302.843 316.736 303.381 319.318C302.304 319.089 301.183 318.075 300.537 316.608ZM305.478 324.257C303.526 317.456 302.304 307.977 302.432 304.906C302.783 296.436 309.303 290.29 317.934 290.29C326.773 290.29 332.366 295.414 332.892 304.006C333.088 307.156 332.096 318.787 329.819 325.371C327.493 332.089 319.45 333.54 317.581 333.54C315.383 333.54 307.313 330.646 305.478 324.257ZM308.875 330.543C311.959 333.081 315.771 334.408 317.581 334.408C319.646 334.408 323.656 333.453 326.806 330.943C326.558 333.317 326.383 338.619 329.39 340.87C322.447 358.351 313.509 358.173 306.766 340.839C309.28 338.551 309.069 332.807 308.877 330.541L308.875 330.543ZM305.98 341.225C306.653 342.951 307.354 344.519 308.079 345.925H288.644C289.605 345.57 289.383 345.662 305.98 341.225ZM286.778 346.744C286.972 346.847 286.807 346.794 308.539 346.794C309.699 348.911 310.916 350.618 312.177 351.904H280.778C282.339 349.734 284.392 347.966 286.778 346.742V346.744ZM278.079 357.455C278.714 355.718 279.101 354.51 280.192 352.774H313.112C316.315 355.472 319.774 355.466 322.98 352.774H355.617C356.645 354.407 357.01 355.513 357.761 357.455H278.079Z" fill="black"/>
<path d="M120.091 285.467H37.9922V367.566H120.091V285.467Z" fill="white"/>
<path d="M120.703 285.463C120.703 285.129 120.43 284.854 120.094 284.854H33.5935C33.2599 284.854 32.9844 285.127 32.9844 285.463V367.565C32.9844 367.899 33.2579 368.175 33.5935 368.175H120.096C120.43 368.175 120.705 367.901 120.705 367.565L120.703 285.463ZM119.487 366.958H38.6046V286.076H119.487V366.958Z" fill="black"/>
<path d="M98.8269 337.561C99.1742 337.204 99.2906 337.468 94.1069 312.425C94.0215 312.011 95.2146 312.648 78.9516 304.442C78.7343 304.333 78.4744 304.364 78.2862 304.515L62.4015 317.628C62.2405 317.758 62.159 317.967 62.1842 318.171C64.9468 340.122 64.6558 344.811 67.8897 344.811C69.5911 344.811 68.9238 340.991 79.3377 341.387C86.9192 341.474 87.5691 343.335 89.8583 343.843C92.0524 344.326 97.2769 339.158 98.823 337.563L98.8269 337.561Z" fill="black"/>
<path d="M85.1335 342.712C84.6892 340.31 84.7338 336.826 84.792 335.095C87.4227 331.584 89.3956 321.275 89.0309 314.085C88.6526 306.636 86.344 302.721 78.2348 302.721C70.1256 302.721 68.0828 307.454 67.7569 315.284C67.5027 321.24 68.0401 330.866 71.7669 335.52C71.8464 337.27 71.9822 341.461 71.6039 343.915C71.2741 346.07 71.0859 347.577 68.0265 348.173C74.2539 364.419 82.885 364.739 89.3568 348.173C86.2063 347.511 85.6107 345.275 85.1335 342.71V342.712Z" fill="white"/>
<path d="M74.5 331.152C76.9075 331.534 79.4237 331.594 82.1184 331.078C82.1184 331.078 77.668 337.61 74.5 331.152Z" fill="white"/>
<path d="M76.2216 326.019C75.7832 325.646 76.3438 324.981 76.7823 325.353C77.7426 326.17 79.0094 326.133 79.863 325.276C80.2704 324.866 80.8795 325.487 80.476 325.889C79.2422 327.111 77.5175 327.125 76.2216 326.019Z" fill="black"/>
<path d="M82.6252 330.296C79.6783 331.478 75.354 330.962 73.3636 330.24C72.8282 330.044 72.5236 330.857 73.0687 331.057C73.2879 331.136 73.5557 331.218 73.8622 331.299C74.2599 332.151 75.5907 333.455 76.2232 333.938C78.4949 335.688 80.7628 333.418 82.501 331.268C82.6504 331.218 82.7998 331.164 82.9453 331.105C83.4865 330.886 83.1509 330.081 82.6252 330.296ZM75.0921 331.569C76.9856 331.911 79.1642 331.996 81.0557 331.643C78.59 334.434 77.1854 334.303 75.0921 331.569Z" fill="black"/>
<path d="M73.3263 319.899C74.4592 319.899 74.4592 321.865 73.3263 321.865C72.1933 321.865 72.1933 319.899 73.3263 319.899Z" fill="black"/>
<path d="M83.3341 319.899C84.4671 319.899 84.4671 321.865 83.3341 321.865C82.2011 321.865 82.2011 319.899 83.3341 319.899Z" fill="black"/>
<path d="M69.8759 317.601C69.9011 317.574 72.3785 314.918 75.6687 316.497C76.1886 316.747 75.8065 317.527 75.2943 317.279C72.6055 315.973 70.6053 318.096 70.518 318.187C70.1223 318.604 69.4801 318.012 69.8759 317.601Z" fill="black"/>
<path d="M86.1568 318.187C86.0675 318.09 83.9995 315.928 80.9595 317.531C80.4532 317.797 80.0438 317.032 80.556 316.763C84.1974 314.844 86.7698 317.572 86.7931 317.597C87.1811 318.045 86.5254 318.584 86.1587 318.188L86.1568 318.187Z" fill="black"/>
<path d="M71.3753 321.008C70.935 321.008 70.7759 320.441 71.1367 320.209C72.1766 319.535 73.8178 318.928 75.7132 319.84C76.2331 320.09 75.8509 320.87 75.3388 320.622C73.1912 319.58 71.7129 321.008 71.3753 321.008Z" fill="black"/>
<path d="M85.2606 321.143C84.3507 320.45 82.8977 319.818 81.2312 320.617C80.7132 320.865 80.3408 320.084 80.8568 319.835C82.4592 319.065 84.215 319.28 85.7805 320.448C86.2481 320.797 85.7126 321.488 85.2606 321.143Z" fill="black"/>
<path d="M116.992 367.554L114.72 361.683C112.842 356.546 108.545 352.747 103.233 351.523L89.7561 347.855C87.3447 347.199 86.3068 346.652 85.5676 342.64C85.1428 340.341 85.1757 336.989 85.2301 335.237C85.7267 334.55 86.1399 333.794 86.429 332.975C88.2448 327.813 89.8667 321.95 89.467 314.066C89.1062 306.995 86.8461 302.288 78.2364 302.288C69.6266 302.288 67.6498 307.478 67.3239 315.269C67.0717 321.302 67.6187 330.928 71.3435 335.681C71.458 338.314 71.524 341.509 71.167 343.948C70.8644 346.014 70.6723 347.166 68.1348 347.713L53.8622 351.523C48.533 352.749 44.2359 356.548 42.358 361.683L40.2065 367.559C40.1018 367.845 40.3171 368.141 40.6159 368.141C41.0252 368.141 40.8661 368.304 43.1747 361.984C44.9498 357.126 49.0161 353.531 54.0698 352.365L67.772 348.703C74.1565 365.024 83.1252 364.995 89.6183 348.718L103.018 352.367C108.06 353.527 112.082 357.14 113.905 361.99C116.266 368.269 116.165 368.143 116.582 368.143C116.918 368.143 117.098 367.825 116.996 367.557L116.992 367.554ZM69.7431 330.591C68.4918 326.228 67.9524 320.943 68.1872 315.302C68.4995 307.805 70.2901 303.155 78.2344 303.155C84.2892 303.155 88.1342 304.981 88.5998 314.099C88.9917 321.834 87.3951 327.597 85.6103 332.678C84.3027 336.407 80.0347 338.785 77.7746 338.71C75.3846 338.64 71.3164 336.075 69.7431 330.591ZM68.6217 348.491C71.4599 347.773 71.7257 346.134 72.0245 344.08C72.3601 341.777 72.3271 339.045 72.2515 336.717C74.1061 338.609 76.2285 339.559 77.7475 339.581C78.7253 339.594 81.6372 339.133 84.3299 336.31C84.3027 338.18 84.3474 340.822 84.7102 342.791C85.1971 345.408 85.845 347.651 88.7725 348.476C82.547 363.998 74.6357 363.753 68.6198 348.489L68.6217 348.491Z" fill="black"/>
<path d="M60.8228 330.563C60.8228 330.563 60.592 340.421 62.3128 344.658L60.8228 330.563Z" fill="#81F889"/>
<path d="M80.0105 299.413C73.8704 298.462 73.3039 301.106 69.7983 302.398C67.0959 303.394 60.6454 309.534 57.1728 321.616C55.2599 328.27 54.2686 337.778 56.3425 341.93C58.4144 346.076 66.4382 345.007 68.32 344.312C66.4208 338.614 66.9193 328.914 66.8767 321.604C66.8417 315.55 72.8325 312.541 73.0265 304.437C73.0362 304.005 73.8219 303.768 74.0818 304.311C78.0937 312.669 89.8055 310.973 89.9568 320.617C90.0694 327.836 90.1838 337.858 89.5184 343.377C95.2996 344.972 101.352 343.364 101.38 341.934C101.934 311.534 89.8579 300.94 80.0105 299.413Z" fill="#81F889"/>
<path d="M63.4796 345.401C60.5424 345.401 57.2483 344.701 55.9563 342.121C53.8397 337.891 54.7923 328.335 56.7555 321.495C60.3368 309.026 66.991 302.969 69.6449 301.99C73.0632 300.729 73.7752 297.997 80.084 298.973C85.939 299.879 91.2274 303.654 94.9735 309.602C99.7712 317.221 102.109 328.1 101.824 341.927C101.779 344.09 94.6942 345.227 89.4116 343.777C89.204 343.721 89.0682 343.521 89.0934 343.308C89.7161 338.202 89.6657 329.379 89.528 320.61C89.3805 311.205 77.6202 312.978 73.6956 304.487C73.6607 304.411 73.5598 304.38 73.4609 304.479C73.2436 308.817 71.4937 311.763 69.9495 314.365C66.8765 319.549 67.3518 319.816 67.3033 325.778C67.2509 332.24 67.2063 339.568 68.737 344.161C68.8107 344.383 68.6924 344.625 68.477 344.705C67.6545 345.005 65.666 345.399 63.4796 345.399V345.401ZM77.6396 299.631C73.8217 299.631 72.9895 301.695 69.9475 302.808C68.7738 303.237 66.5467 304.888 64.1198 308.114C55.8748 319.073 54.1346 336.547 56.7323 341.735C58.486 345.236 65.3032 344.728 67.7747 344.03C66.0055 338.2 66.4885 328.694 66.4439 321.605C66.4051 315.401 72.1844 312.396 72.5937 304.413C72.6403 303.507 74.0312 303.193 74.4794 304.118C78.4583 312.316 90.2419 310.609 90.399 320.602C90.5329 329.194 90.5775 337.837 90.0033 343.044C94.475 344.169 99.1756 343.389 100.638 342.291C100.869 342.119 100.953 341.979 100.957 341.913C101.548 328.265 98.9447 317.541 94.2383 310.066C89.6618 302.801 83.1997 299.631 77.6396 299.631Z" fill="black"/>
<path d="M61.9101 344.823C60.1486 340.563 60.3814 330.96 60.3892 330.556C60.4008 329.98 61.2641 330.003 61.2583 330.574C61.2583 330.669 61.0371 340.392 62.7133 344.493C62.9325 345.03 62.1235 345.341 61.9101 344.823Z" fill="black"/>
<path d="M95.2257 338.9C95.7747 331.464 94.7776 324.358 94.118 320.786C94.0152 320.226 94.8649 320.064 94.9696 320.629C95.6351 324.243 96.6555 331.433 96.091 338.964C96.0483 339.534 95.185 339.468 95.2257 338.898V338.9Z" fill="black"/>
<path d="M61.7684 322.521C62.0167 317.676 65.1188 311.274 65.2487 311.005C65.4932 310.496 66.2828 310.855 66.0306 311.387C65.9995 311.453 62.8761 317.894 62.6356 322.559C62.6065 323.118 61.7373 323.114 61.7684 322.521Z" fill="black"/>
<path d="M89.6108 310.465C85.9907 306.636 81.2203 304.298 80.0737 304.298C79.4976 304.298 79.4956 303.429 80.0718 303.429C81.6936 303.429 86.7764 306.197 90.2452 309.87C90.6409 310.289 89.9988 310.874 89.6108 310.465Z" fill="black"/>
</svg>
