<svg width="200" height="200" viewBox="0 0 200 200" fill="none" xmlns="http://www.w3.org/2000/svg">
<path d="M28.9824 131.098H47.4134V139.421H28.9824V131.098Z" fill="black"/>
<path d="M28.9824 143.111H47.4134V151.434H28.9824V143.111Z" fill="black"/>
<path d="M28.9824 155.126H47.4134V178.116H28.9824V155.126Z" fill="black"/>
<path d="M162.954 39.2188C164.018 39.2188 165.058 39.5342 165.942 40.1251C166.826 40.716 167.516 41.556 167.923 42.5387C168.33 43.5214 168.436 44.6027 168.229 45.6459C168.021 46.6892 167.509 47.6474 166.757 48.3996C166.005 49.1517 165.047 49.6639 164.003 49.8714C162.96 50.0789 161.879 49.9724 160.896 49.5654C159.913 49.1583 159.073 48.469 158.483 47.5846C157.892 46.7002 157.576 45.6604 157.576 44.5967C157.577 43.1706 158.143 41.803 159.152 40.7945C160.16 39.7861 161.528 39.2193 162.954 39.2188Z" fill="black"/>
<path d="M162.954 64.4482C164.018 64.4478 165.059 64.763 165.943 65.3538C166.828 65.9447 167.518 66.7846 167.926 67.7676C168.333 68.7505 168.44 69.8322 168.233 70.8759C168.026 71.9196 167.514 72.8784 166.762 73.6311C166.01 74.3838 165.051 74.8965 164.008 75.1045C162.964 75.3125 161.882 75.2063 160.899 74.7995C159.916 74.3927 159.075 73.7034 158.484 72.8189C157.892 71.9344 157.577 70.8943 157.576 69.8302C157.576 68.4035 158.142 67.035 159.151 66.0257C160.159 65.0165 161.527 64.449 162.954 64.4482Z" fill="black"/>
<path d="M12.5527 50.6469C12.5527 51.99 12.8173 53.3198 13.3312 54.5606C13.8452 55.8014 14.5985 56.9288 15.5482 57.8785C16.4978 58.8282 17.6252 59.5815 18.866 60.0954C20.1068 60.6094 21.4367 60.8739 22.7797 60.8739C24.1228 60.8739 25.4526 60.6094 26.6934 60.0954C27.9342 59.5815 29.0617 58.8282 30.0113 57.8785C30.961 56.9288 31.7143 55.8014 32.2283 54.5606C32.7422 53.3198 33.0067 51.99 33.0067 50.6469C33.0067 49.3039 32.7422 47.974 32.2283 46.7332C31.7143 45.4924 30.961 44.365 30.0113 43.4153C29.0617 42.4657 27.9342 41.7124 26.6934 41.1984C25.4526 40.6845 24.1228 40.4199 22.7797 40.4199C21.4367 40.4199 20.1068 40.6845 18.866 41.1984C17.6252 41.7124 16.4978 42.4657 15.5482 43.4153C14.5985 44.365 13.8452 45.4924 13.3312 46.7332C12.8173 47.974 12.5527 49.3039 12.5527 50.6469Z" fill="black"/>
<path d="M114.889 29.5481C114.889 30.0366 115.083 30.5051 115.428 30.8505C115.774 31.196 116.242 31.3901 116.731 31.3901C117.219 31.3901 117.688 31.196 118.033 30.8505C118.379 30.5051 118.573 30.0366 118.573 29.5481C118.573 29.0595 118.379 28.591 118.033 28.2456C117.688 27.9001 117.219 27.7061 116.731 27.7061C116.242 27.7061 115.774 27.9001 115.428 28.2456C115.083 28.591 114.889 29.0595 114.889 29.5481Z" fill="black"/>
<path d="M44.2285 39.219C44.2285 39.4609 44.2762 39.7004 44.3687 39.9239C44.4613 40.1473 44.597 40.3504 44.768 40.5214C44.9391 40.6925 45.1421 40.8282 45.3656 40.9207C45.5891 41.0133 45.8286 41.061 46.0705 41.061C46.3124 41.061 46.5519 41.0133 46.7754 40.9207C46.9989 40.8282 47.202 40.6925 47.373 40.5214C47.5441 40.3504 47.6797 40.1473 47.7723 39.9239C47.8649 39.7004 47.9125 39.4609 47.9125 39.219C47.9125 38.9771 47.8649 38.7375 47.7723 38.514C47.6797 38.2906 47.5441 38.0875 47.373 37.9165C47.202 37.7454 46.9989 37.6097 46.7754 37.5172C46.5519 37.4246 46.3124 37.377 46.0705 37.377C45.8286 37.377 45.5891 37.4246 45.3656 37.5172C45.1421 37.6097 44.9391 37.7454 44.768 37.9165C44.597 38.0875 44.4613 38.2906 44.3687 38.514C44.2762 38.7375 44.2285 38.9771 44.2285 39.219Z" fill="black"/>
<path d="M31.8004 109.977C32.5226 109.977 33.2284 110.191 33.8288 110.592C34.4291 110.994 34.8969 111.564 35.173 112.232C35.4491 112.899 35.5212 113.633 35.38 114.341C35.2389 115.049 34.8909 115.7 34.38 116.21C33.8692 116.721 33.2184 117.068 32.5101 117.209C31.8018 117.349 31.0677 117.277 30.4006 117C29.7336 116.723 29.1636 116.255 28.7627 115.654C28.3618 115.054 28.148 114.348 28.1484 113.626C28.1483 113.146 28.2427 112.671 28.4262 112.228C28.6097 111.785 28.8788 111.383 29.218 111.044C29.5572 110.705 29.9598 110.436 30.4029 110.253C30.8461 110.07 31.321 109.976 31.8004 109.977Z" fill="white"/>
<path d="M152.299 21.5114C152.299 22.4799 152.684 23.4088 153.368 24.0937C154.053 24.7786 154.982 25.1634 155.951 25.1634C156.919 25.1634 157.848 24.7786 158.533 24.0937C159.218 23.4088 159.603 22.4799 159.603 21.5114C159.603 20.5428 159.218 19.6139 158.533 18.929C157.848 18.2441 156.919 17.8594 155.951 17.8594C154.982 17.8594 154.053 18.2441 153.368 18.929C152.684 19.6139 152.299 20.5428 152.299 21.5114Z" fill="white"/>
<path d="M86.2623 5.84375C86.9845 5.84316 87.6908 6.05674 88.2916 6.45749C88.8925 6.85824 89.3611 7.42816 89.6381 8.09519C89.915 8.76222 89.988 9.4964 89.8478 10.2049C89.7075 10.9134 89.3603 11.5644 88.8501 12.0756C88.3399 12.5868 87.6896 12.9353 86.9813 13.0769C86.2731 13.2185 85.5388 13.1469 84.8712 12.8712C84.2036 12.5955 83.6328 12.128 83.2309 11.5279C82.829 10.9278 82.6141 10.222 82.6133 9.49975C82.6124 9.01997 82.7061 8.54472 82.889 8.10119C83.072 7.65766 83.3406 7.25458 83.6796 6.91499C84.0185 6.57541 84.4211 6.306 84.8643 6.12218C85.3074 5.93837 85.7825 5.84375 86.2623 5.84375Z" fill="white"/>
<path d="M12.123 21.5114C12.123 22.4799 12.5078 23.4088 13.1927 24.0937C13.8776 24.7786 14.8065 25.1634 15.775 25.1634C16.7436 25.1634 17.6725 24.7786 18.3574 24.0937C19.0423 23.4088 19.427 22.4799 19.427 21.5114C19.427 20.5428 19.0423 19.6139 18.3574 18.929C17.6725 18.2441 16.7436 17.8594 15.775 17.8594C14.8065 17.8594 13.8776 18.2441 13.1927 18.929C12.5078 19.6139 12.123 20.5428 12.123 21.5114Z" fill="white"/>
<path d="M145.016 117.736L140.488 118.408C139.491 118.409 138.53 118.036 137.796 117.361C137.062 116.686 136.609 115.76 136.527 114.767V114.721C136.356 113.754 136.54 112.759 137.044 111.917C137.548 111.076 138.34 110.444 139.272 110.139L143.772 109.471C143.498 109.556 141.066 110.371 141.653 114.271C141.728 115.148 142.103 115.972 142.716 116.603C143.329 117.235 144.142 117.635 145.016 117.736Z" fill="#81F889"/>
<path d="M176.416 35.3162V90.5162C176.416 90.856 176.28 91.1818 176.04 91.4221C175.8 91.6624 175.474 91.7976 175.134 91.7982H150.777C150.437 91.7976 150.112 91.6624 149.872 91.422C149.631 91.1817 149.496 90.8559 149.496 90.5162V35.3162C149.497 34.9765 149.632 34.6509 149.872 34.4106C150.112 34.1703 150.437 34.035 150.777 34.0342H175.134C175.474 34.035 175.799 34.1703 176.04 34.4105C176.28 34.6508 176.415 34.9764 176.416 35.3162ZM168.335 44.6002C168.335 43.5361 168.02 42.4957 167.429 41.6108C166.839 40.7258 165.999 40.0359 165.016 39.6284C164.033 39.2208 162.951 39.114 161.907 39.3212C160.863 39.5285 159.905 40.0407 159.152 40.7929C158.399 41.5451 157.887 42.5036 157.679 43.5472C157.471 44.5909 157.577 45.6727 157.984 46.6559C158.391 47.6391 159.081 48.4795 159.965 49.0709C160.85 49.6622 161.89 49.978 162.954 49.9782C164.381 49.9784 165.749 49.412 166.758 48.4035C167.767 47.3949 168.335 46.0269 168.335 44.6002ZM168.335 69.8332C168.335 68.7691 168.02 67.7287 167.429 66.8438C166.839 65.9588 165.999 65.2689 165.016 64.8614C164.033 64.4538 162.951 64.347 161.907 64.5542C160.863 64.7615 159.905 65.2737 159.152 66.0259C158.399 66.7781 157.887 67.7366 157.679 68.7802C157.471 69.8239 157.577 70.9057 157.984 71.8889C158.391 72.8721 159.081 73.7125 159.965 74.3039C160.85 74.8952 161.89 75.211 162.954 75.2112C164.381 75.2112 165.75 74.6443 166.759 73.6351C167.768 72.626 168.335 71.2573 168.335 69.8302V69.8332Z" fill="#81F889"/>
<path d="M52.2579 127.434V182.629C52.2576 182.969 52.1226 183.295 51.8825 183.535C51.6423 183.776 51.3166 183.911 50.9769 183.911H26.6199C26.28 183.911 25.9543 183.776 25.714 183.535C25.4737 183.295 25.3384 182.969 25.3379 182.629V127.434C25.3379 127.094 25.473 126.768 25.7134 126.528C25.9538 126.287 26.2799 126.152 26.6199 126.152H50.9769C51.1452 126.152 51.3119 126.186 51.4673 126.25C51.6228 126.314 51.7641 126.409 51.883 126.528C52.002 126.647 52.0964 126.788 52.1607 126.944C52.225 127.099 52.258 127.266 52.2579 127.434ZM47.4129 178.116V155.126H28.9829V178.116H47.4129ZM47.4129 151.436V143.112H28.9829V151.436H47.4129ZM47.4129 139.421V131.1H28.9829V139.423L47.4129 139.421Z" fill="#81F889"/>
<path d="M106.729 23.2996V78.4996C106.729 78.84 106.594 79.1667 106.354 79.4078C106.113 79.6489 105.787 79.7848 105.447 79.7856H81.0896C80.7493 79.7845 80.4233 79.6485 80.1832 79.4074C79.943 79.1664 79.8083 78.8399 79.8086 78.4996V23.2996C79.8089 22.9598 79.9439 22.634 80.184 22.3937C80.4242 22.1534 80.7498 22.0181 81.0896 22.0176H105.447C105.787 22.0178 106.112 22.153 106.353 22.3934C106.593 22.6337 106.728 22.9597 106.729 23.2996Z" fill="#81F889"/>
<path d="M36.2404 35.3162V90.5162C36.2404 90.685 36.2071 90.8521 36.1424 91.008C36.0778 91.1639 35.983 91.3056 35.8636 91.4248C35.7441 91.5441 35.6024 91.6386 35.4463 91.703C35.2903 91.7674 35.1231 91.8004 34.9544 91.8002H10.5994C10.4311 91.8002 10.2644 91.767 10.1089 91.7026C9.95343 91.6381 9.81217 91.5437 9.69321 91.4246C9.57424 91.3056 9.4799 91.1642 9.41559 91.0087C9.35127 90.8532 9.31823 90.6865 9.31836 90.5182V35.3182C9.31797 35.1497 9.35081 34.9828 9.41501 34.827C9.47921 34.6713 9.57351 34.5297 9.6925 34.4104C9.81149 34.2912 9.95284 34.1965 10.1085 34.132C10.2641 34.0674 10.4309 34.0342 10.5994 34.0342H34.9544C35.2948 34.0339 35.6215 34.1688 35.8626 34.4091C36.1037 34.6495 36.2396 34.9757 36.2404 35.3162ZM33.0054 50.6472C33.0056 48.6244 32.4059 46.647 31.2823 44.9651C30.1587 43.2831 28.5615 41.9722 26.6928 41.1979C24.824 40.4237 22.7677 40.2211 20.7838 40.6156C18.7999 41.0101 16.9775 41.984 15.5471 43.4142C14.1168 44.8445 13.1426 46.6668 12.7479 48.6506C12.3533 50.6345 12.5557 52.6909 13.3298 54.5597C14.1038 56.4284 15.4146 58.0257 17.0964 59.1496C18.7783 60.2734 20.7556 60.8732 22.7784 60.8732C25.4906 60.8732 28.0917 59.7958 30.0096 57.8781C31.9275 55.9604 33.0051 53.3594 33.0054 50.6472Z" fill="#81F889"/>
<path d="M140.759 36.5166C141.124 36.516 141.481 36.6237 141.785 36.8261C142.088 37.0285 142.325 37.3165 142.465 37.6536C142.605 37.9906 142.642 38.3616 142.571 38.7196C142.5 39.0776 142.324 39.4064 142.066 39.6645C141.808 39.9226 141.479 40.0983 141.121 40.1693C140.763 40.2404 140.392 40.2036 140.055 40.0637C139.718 39.9237 139.43 39.6869 139.227 39.3832C139.025 39.0795 138.917 38.7226 138.918 38.3576C138.918 37.8694 139.112 37.4013 139.457 37.0561C139.803 36.7109 140.271 36.5169 140.759 36.5166Z" fill="black"/>
<path d="M138.918 54.3801C138.918 54.8686 139.112 55.3371 139.457 55.6826C139.803 56.028 140.271 56.2221 140.76 56.2221C141.248 56.2221 141.717 56.028 142.062 55.6826C142.408 55.3371 142.602 54.8686 142.602 54.3801C142.602 53.8916 142.408 53.423 142.062 53.0776C141.717 52.7322 141.248 52.5381 140.76 52.5381C140.271 52.5381 139.803 52.7322 139.457 53.0776C139.112 53.423 138.918 53.8916 138.918 54.3801Z" fill="black"/>
<path d="M138.918 62.3908C138.918 62.8794 139.112 63.3479 139.457 63.6933C139.803 64.0388 140.271 64.2328 140.76 64.2328C141.248 64.2328 141.717 64.0388 142.062 63.6933C142.408 63.3479 142.602 62.8794 142.602 62.3908C142.602 61.9023 142.408 61.4338 142.062 61.0883C141.717 60.7429 141.248 60.5488 140.76 60.5488C140.271 60.5488 139.803 60.7429 139.457 61.0883C139.112 61.4338 138.918 61.9023 138.918 62.3908Z" fill="black"/>
<path d="M140.759 68.5557C141.124 68.5551 141.481 68.6627 141.784 68.8649C142.088 69.0671 142.325 69.3548 142.465 69.6917C142.605 70.0285 142.642 70.3993 142.571 70.7572C142.5 71.1151 142.325 71.4439 142.067 71.7022C141.81 71.9604 141.481 72.1364 141.123 72.2079C140.766 72.2794 140.395 72.2432 140.058 72.1039C139.721 71.9645 139.432 71.7284 139.229 71.4252C139.027 71.122 138.918 70.7655 138.918 70.4007C138.918 70.1586 138.965 69.9188 139.057 69.6951C139.15 69.4713 139.285 69.2679 139.456 69.0966C139.627 68.9252 139.83 68.7893 140.054 68.6965C140.277 68.6036 140.517 68.5558 140.759 68.5557Z" fill="black"/>
<path d="M62.0881 146.378C62.4528 146.378 62.8094 146.485 63.1129 146.688C63.4164 146.89 63.653 147.178 63.793 147.514C63.9329 147.851 63.9698 148.222 63.8991 148.58C63.8283 148.937 63.653 149.266 63.3954 149.524C63.1378 149.783 62.8094 149.959 62.4518 150.03C62.0942 150.102 61.7234 150.066 61.3863 149.926C61.0492 149.787 60.7609 149.551 60.558 149.248C60.355 148.945 60.2465 148.589 60.2461 148.224C60.2458 147.735 60.4397 147.266 60.7851 146.92C61.1305 146.574 61.5991 146.379 62.0881 146.378Z" fill="black"/>
<path d="M62.0881 162.4C62.4525 162.4 62.8086 162.508 63.1116 162.71C63.4145 162.913 63.6506 163.201 63.79 163.537C63.9294 163.874 63.9658 164.244 63.8946 164.602C63.8235 164.959 63.6479 165.287 63.3902 165.545C63.1325 165.802 62.8042 165.978 62.4468 166.049C62.0895 166.12 61.7191 166.083 61.3825 165.943C61.0459 165.804 60.7583 165.568 60.556 165.265C60.3538 164.961 60.2459 164.605 60.2461 164.241C60.2469 163.753 60.4412 163.285 60.7865 162.94C61.1318 162.595 61.5999 162.4 62.0881 162.4Z" fill="black"/>
<path d="M103.735 113.578C105.204 113.732 106.688 113.626 108.12 113.266C111.305 112.42 113.108 109.023 113.108 109.023C114.224 110.581 115.529 111.994 116.992 113.231L102.777 115.2C103.132 114.704 103.451 114.182 103.731 113.64L103.735 113.578Z" fill="black"/>
<path d="M97.8785 102.386C101.515 97.3024 110.816 89.4194 117.035 88.7864C118.715 88.6134 126.735 92.1264 132.998 94.9294C132.998 94.9294 147.598 94.4074 149.607 96.6744C157.938 106.051 165.238 131.701 166.663 134.55C168.089 137.399 188.622 148.865 195.428 152.386V193.872L155.316 169.604C152.772 169.916 150.198 169.916 147.654 169.604C126.108 165.42 97.2345 143.615 91.6435 141.024C87.5365 139.124 86.5595 135.149 86.0435 132.481C85.9328 131.728 85.7623 130.984 85.5335 130.257C85.1812 129.543 84.7128 128.892 84.1475 128.331C83.4715 127.589 82.6615 126.821 81.9395 126.107C81.3693 125.564 80.8414 124.978 80.3605 124.354C79.795 123.567 79.4744 122.63 79.4389 121.661C79.4033 120.692 79.6543 119.734 80.1605 118.907C80.5413 118.217 81.0199 117.585 81.5815 117.031C83.5695 115.039 88.3415 116.741 88.5345 116.807C88.721 115.354 89.2713 113.972 90.1345 112.788C93.1575 108.097 93.8405 105.542 94.8835 104.159C95.2209 103.694 95.6805 103.33 96.2115 103.109C96.5995 102.942 97.1795 102.691 97.8785 102.386ZM103.735 113.578V113.644C103.455 114.186 103.136 114.708 102.781 115.204C101.409 117.256 99.4484 118.844 97.1565 119.759C96.8675 119.859 96.5625 119.948 96.2565 120.026C97.4841 121.296 98.5416 122.72 99.4025 124.261C99.6264 124.665 99.8225 125.083 99.9895 125.512C99.9895 125.512 111.062 132.356 112.845 133.345C112.845 133.345 124.218 127.311 127.685 125.627C127.685 125.627 123.971 121.821 123.168 120.813L140.495 118.408L145.023 117.736L147.046 117.436C148.139 117.271 149.122 116.68 149.78 115.791C150.438 114.903 150.717 113.79 150.556 112.696C150.395 111.603 149.808 110.617 148.922 109.956C148.036 109.295 146.925 109.011 145.83 109.167L143.803 109.467C143.796 109.467 143.788 109.467 143.781 109.467L139.281 110.135L117.004 113.227C115.541 111.99 114.237 110.577 113.12 109.019C113.12 109.019 111.32 112.419 108.132 113.262C106.697 113.625 105.208 113.732 103.735 113.578Z" fill="white"/>
<path d="M195.429 152.389C188.623 148.868 168.088 137.398 166.664 134.553C165.24 131.708 157.939 106.053 149.608 96.6768C147.6 94.4098 133 94.9318 133 94.9318" stroke="black" stroke-width="0.772" stroke-linecap="round" stroke-linejoin="round"/>
<path d="M88.5325 116.814C88.3395 116.748 83.5675 115.046 81.5795 117.038C81.0179 117.592 80.5393 118.224 80.1585 118.914C79.6524 119.741 79.4013 120.699 79.4369 121.668C79.4725 122.637 79.7931 123.574 80.3585 124.361C80.8395 124.985 81.3673 125.571 81.9375 126.114C82.6595 126.828 83.4695 127.596 84.1455 128.338C84.7109 128.899 85.1792 129.55 85.5315 130.264C85.7603 130.991 85.9309 131.735 86.0415 132.488C86.5585 135.155 87.5355 139.128 91.6415 141.031C97.2325 143.622 126.106 165.431 147.652 169.611C150.196 169.923 152.77 169.923 155.315 169.611L195.427 193.879" stroke="black" stroke-width="0.772" stroke-linecap="round" stroke-linejoin="round"/>
<path d="M96.2422 120.022H96.2502C97.4777 121.292 98.5353 122.716 99.3962 124.257C99.6201 124.661 99.8162 125.079 99.9832 125.508C99.9832 125.508 111.056 132.352 112.839 133.341C112.839 133.341 124.212 127.307 127.679 125.623C127.679 125.623 123.965 121.817 123.162 120.809L123.151 120.801" stroke="black" stroke-width="0.772" stroke-linecap="round" stroke-linejoin="round"/>
<path d="M84.1468 128.334C84.1468 128.334 85.3208 124.102 86.2968 122.994C87.2728 121.886 84.7718 119.319 83.1738 118.173" stroke="black" stroke-width="0.772" stroke-linecap="round" stroke-linejoin="round"/>
<path d="M87.9149 129.1C87.3149 130.023 85.8149 131.409 86.0429 132.482" stroke="black" stroke-width="0.772" stroke-linecap="round" stroke-linejoin="round"/>
<path d="M117.036 113.266C117.036 113.266 117.02 113.254 116.993 113.231C115.53 111.994 114.225 110.581 113.109 109.023C113.109 109.023 111.309 112.423 108.121 113.266C106.689 113.626 105.205 113.732 103.736 113.578C103.105 113.523 102.479 113.419 101.863 113.266" stroke="black" stroke-width="0.772" stroke-linecap="round" stroke-linejoin="round"/>
<path d="M103.732 113.644C103.452 114.186 103.133 114.707 102.778 115.204C101.406 117.255 99.4451 118.843 97.1532 119.759C96.8642 119.859 96.5592 119.948 96.2532 120.026C96.0832 120.064 95.9132 120.099 95.7362 120.126C91.7902 120.809 88.3542 119.914 88.5362 116.806C88.7227 115.353 89.273 113.971 90.1362 112.787C93.1592 108.096 93.8422 105.54 94.8852 104.158C95.2226 103.692 95.6822 103.329 96.2132 103.108C96.6132 102.938 97.1892 102.687 97.8882 102.382C100.965 101.016 106.455 98.4949 110.111 96.5819C114.593 94.2379 116.018 94.7479 118.67 95.8679C121.322 96.9879 134.87 104.631 134.87 104.631" stroke="black" stroke-width="0.772" stroke-linecap="round" stroke-linejoin="round"/>
<path d="M139.991 98.0243C138.713 97.5073 136.068 96.3023 132.999 94.9323C126.737 92.1323 118.715 88.6163 117.036 88.7893C110.816 89.4193 101.516 97.3023 97.8789 102.389" stroke="black" stroke-width="0.772" stroke-linecap="round" stroke-linejoin="round"/>
<path d="M102.777 115.204L116.992 113.231L139.268 110.139" stroke="black" stroke-width="0.772" stroke-linecap="round" stroke-linejoin="round"/>
<path d="M140.49 118.408L123.163 120.813L99.7598 124.064" stroke="black" stroke-width="0.772" stroke-linecap="round" stroke-linejoin="round"/>
<path d="M76.6543 121.033L72.1523 123.763L75.7433 124.689L76.5493 124.898L81.7963 126.253" stroke="black" stroke-width="0.772" stroke-linecap="round" stroke-linejoin="round"/>
<path d="M80.1513 118.91L76.6543 121.033" stroke="black" stroke-width="0.772" stroke-linecap="round" stroke-linejoin="round"/>
<path d="M145.016 117.736L140.488 118.408C139.491 118.409 138.53 118.036 137.796 117.361C137.062 116.686 136.609 115.76 136.527 114.767V114.721C136.356 113.754 136.54 112.759 137.044 111.917C137.548 111.076 138.34 110.444 139.272 110.139L143.772 109.471" stroke="black" stroke-width="0.772" stroke-linecap="round" stroke-linejoin="round"/>
<path d="M145.018 117.736L147.041 117.436C148.134 117.271 149.116 116.679 149.774 115.791C150.432 114.902 150.711 113.79 150.55 112.696C150.389 111.602 149.802 110.617 148.916 109.956C148.03 109.294 146.919 109.011 145.825 109.167L143.798 109.467C143.79 109.466 143.782 109.466 143.775 109.467C143.501 109.552 141.069 110.367 141.656 114.267C141.729 115.145 142.104 115.97 142.717 116.602C143.33 117.234 144.143 117.635 145.018 117.736Z" stroke="black" stroke-width="0.772" stroke-linecap="round" stroke-linejoin="round"/>
<path d="M72.1521 123.763L69.8711 123.983" stroke="black" stroke-width="0.772" stroke-linecap="round" stroke-linejoin="round"/>
<path d="M34.9747 94.7996H10.5837C9.21684 94.7993 7.90606 94.2562 6.93955 93.2897C5.97305 92.3232 5.42995 91.0124 5.42969 89.6456V35.3386C5.43022 33.9718 5.9734 32.6612 6.93984 31.6947C7.90629 30.7283 9.21692 30.1851 10.5837 30.1846H34.9747C36.3415 30.1848 37.6523 30.7279 38.6188 31.6944C39.5853 32.6609 40.1284 33.9717 40.1287 35.3386V89.6456C40.1284 91.0124 39.5853 92.3232 38.6188 93.2897C37.6523 94.2562 36.3415 94.7993 34.9747 94.7996Z" stroke="black" stroke-width="0.772" stroke-linecap="round" stroke-linejoin="round"/>
<path d="M34.9544 91.8002H10.5994C10.4311 91.8002 10.2644 91.767 10.1089 91.7026C9.95343 91.6381 9.81217 91.5437 9.69321 91.4246C9.57424 91.3056 9.4799 91.1642 9.41559 91.0087C9.35127 90.8532 9.31823 90.6865 9.31836 90.5182V35.3182C9.31797 35.1497 9.35081 34.9828 9.41501 34.827C9.47921 34.6713 9.57351 34.5297 9.6925 34.4104C9.81149 34.2912 9.95284 34.1965 10.1085 34.132C10.2641 34.0674 10.4309 34.0342 10.5994 34.0342H34.9544C35.2948 34.0339 35.6215 34.1688 35.8626 34.4091C36.1037 34.6495 36.2396 34.9757 36.2404 35.3162V90.5162C36.2404 90.685 36.2071 90.8521 36.1424 91.008C36.0778 91.1639 35.983 91.3056 35.8636 91.4248C35.7441 91.5441 35.6024 91.6386 35.4463 91.703C35.2903 91.7674 35.1232 91.8004 34.9544 91.8002Z" stroke="black" stroke-width="0.772" stroke-linecap="round" stroke-linejoin="round"/>
<path d="M15.748 32.0732H28.607" stroke="black" stroke-width="0.772" stroke-linecap="round" stroke-linejoin="round"/>
<path d="M30.8827 21.9043H22.1777" stroke="black" stroke-width="0.772" stroke-linecap="round" stroke-linejoin="round"/>
<path d="M12.123 21.5114C12.123 22.4799 12.5078 23.4088 13.1927 24.0937C13.8776 24.7786 14.8065 25.1634 15.775 25.1634C16.7436 25.1634 17.6725 24.7786 18.3574 24.0937C19.0423 23.4088 19.427 22.4799 19.427 21.5114C19.427 20.5428 19.0423 19.6139 18.3574 18.929C17.6725 18.2441 16.7436 17.8594 15.775 17.8594C14.8065 17.8594 13.8776 18.2441 13.1927 18.929C12.5078 19.6139 12.123 20.5428 12.123 21.5114Z" stroke="black" stroke-width="0.772" stroke-linecap="round" stroke-linejoin="round"/>
<path d="M51.0002 186.915H26.6052C25.9283 186.915 25.258 186.782 24.6327 186.523C24.0073 186.264 23.4391 185.884 22.9605 185.406C22.4818 184.927 22.1022 184.359 21.8432 183.733C21.5843 183.108 21.451 182.438 21.4512 181.761V127.453C21.451 126.776 21.5843 126.106 21.8432 125.48C22.1022 124.855 22.4819 124.287 22.9605 123.808C23.4391 123.33 24.0074 122.95 24.6327 122.691C25.2581 122.433 25.9283 122.3 26.6052 122.3H51.0002C52.3668 122.3 53.6775 122.843 54.644 123.809C55.6104 124.776 56.1536 126.086 56.1542 127.453V181.761C56.1536 183.128 55.6105 184.438 54.644 185.405C53.6776 186.371 52.3669 186.914 51.0002 186.915Z" stroke="black" stroke-width="0.772" stroke-linecap="round" stroke-linejoin="round"/>
<path d="M50.9769 183.911H26.6199C26.28 183.911 25.9543 183.776 25.714 183.535C25.4737 183.295 25.3384 182.969 25.3379 182.629V127.434C25.3379 127.094 25.473 126.768 25.7134 126.528C25.9538 126.287 26.2799 126.152 26.6199 126.152H50.9769C51.1452 126.152 51.3119 126.186 51.4673 126.25C51.6228 126.314 51.7641 126.409 51.883 126.528C52.002 126.647 52.0964 126.788 52.1607 126.944C52.225 127.099 52.258 127.266 52.2579 127.434V182.629C52.2576 182.969 52.1226 183.295 51.8825 183.535C51.6423 183.776 51.3166 183.911 50.9769 183.911Z" stroke="black" stroke-width="0.772" stroke-linecap="round" stroke-linejoin="round"/>
<path d="M31.7656 124.188H44.6256" stroke="black" stroke-width="0.772" stroke-linecap="round" stroke-linejoin="round"/>
<path d="M46.9033 114.021H38.1973" stroke="black" stroke-width="0.772" stroke-linecap="round" stroke-linejoin="round"/>
<path d="M35.4445 113.626C35.4447 114.348 35.2308 115.053 34.8297 115.654C34.4287 116.254 33.8586 116.722 33.1916 116.999C32.5245 117.275 31.7905 117.347 31.0823 117.206C30.3742 117.066 29.7237 116.718 29.2132 116.207C28.7028 115.697 28.3552 115.046 28.2145 114.338C28.0738 113.63 28.1463 112.896 28.4229 112.229C28.6994 111.562 29.1675 110.992 29.7681 110.591C30.3686 110.19 31.0745 109.976 31.7965 109.977C32.7641 109.977 33.692 110.361 34.3761 111.046C35.0602 111.73 35.4445 112.658 35.4445 113.626Z" stroke="black" stroke-width="0.772" stroke-linecap="round" stroke-linejoin="round"/>
<path d="M105.461 82.7818H81.0699C80.3932 82.782 79.7232 82.6487 79.098 82.3897C78.4729 82.1307 77.9049 81.751 77.4266 81.2723C76.9483 80.7936 76.5691 80.2254 76.3105 79.6C76.052 78.9747 75.9193 78.3045 75.9199 77.6278V23.3278C75.9194 22.6512 76.0522 21.9811 76.3108 21.3558C76.5694 20.7305 76.9486 20.1623 77.4269 19.6836C77.9052 19.205 78.4731 18.8253 79.0982 18.5662C79.7233 18.3072 80.3933 18.1738 81.0699 18.1738H105.461C106.138 18.1733 106.808 18.3063 107.434 18.5651C108.059 18.8239 108.628 19.2035 109.107 19.6822C109.585 20.1609 109.965 20.7293 110.224 21.3549C110.483 21.9804 110.615 22.6508 110.615 23.3278V77.6278C110.616 78.3048 110.483 78.9753 110.224 79.601C109.965 80.2266 109.586 80.795 109.107 81.2737C108.628 81.7524 108.06 82.1321 107.434 82.3908C106.808 82.6496 106.138 82.7825 105.461 82.7818Z" stroke="black" stroke-width="0.772" stroke-linecap="round" stroke-linejoin="round"/>
<path d="M105.447 79.7826H81.0896C80.7498 79.7815 80.4243 79.6459 80.1842 79.4055C79.9442 79.1651 79.8091 78.8393 79.8086 78.4996V23.2996C79.8089 22.9598 79.9439 22.634 80.184 22.3937C80.4242 22.1534 80.7498 22.0181 81.0896 22.0176H105.447C105.787 22.0178 106.112 22.153 106.353 22.3934C106.593 22.6337 106.728 22.9597 106.729 23.2996V78.4996C106.728 78.8395 106.593 79.1654 106.353 79.4059C106.112 79.6463 105.787 79.7818 105.447 79.7826Z" stroke="black" stroke-width="0.772" stroke-linecap="round" stroke-linejoin="round"/>
<path d="M86.2363 20.0586H99.0953" stroke="black" stroke-width="0.772" stroke-linecap="round" stroke-linejoin="round"/>
<path d="M101.374 9.88965H92.668" stroke="black" stroke-width="0.772" stroke-linecap="round" stroke-linejoin="round"/>
<path d="M89.9153 9.49966C89.9151 10.2217 89.7008 10.9274 89.2996 11.5277C88.8983 12.1279 88.3281 12.5957 87.661 12.8719C86.9939 13.1481 86.2599 13.2204 85.5518 13.0795C84.8436 12.9385 84.1932 12.5908 83.6826 12.0803C83.1721 11.5698 82.8244 10.9193 82.6835 10.2112C82.5426 9.50304 82.6148 8.76903 82.891 8.10194C83.1672 7.43485 83.635 6.86463 84.2353 6.46338C84.8355 6.06212 85.5413 5.84785 86.2633 5.84766C86.7429 5.84753 87.2179 5.9419 87.661 6.12538C88.1041 6.30886 88.5068 6.57786 88.8459 6.91701C89.1851 7.25616 89.4541 7.6588 89.6376 8.10194C89.821 8.54508 89.9154 9.02003 89.9153 9.49966Z" stroke="black" stroke-width="0.772" stroke-linecap="round" stroke-linejoin="round"/>
<path d="M175.149 94.7996H150.758C149.391 94.7993 148.08 94.2562 147.113 93.2897C146.147 92.3232 145.604 91.0124 145.604 89.6456V35.3386C145.604 33.9718 146.147 32.6612 147.114 31.6947C148.08 30.7283 149.391 30.1851 150.758 30.1846H175.149C175.825 30.1844 176.496 30.3177 177.121 30.5766C177.746 30.8356 178.315 31.2152 178.793 31.6938C179.272 32.1725 179.651 32.7407 179.91 33.3661C180.169 33.9914 180.303 34.6617 180.303 35.3386V89.6456C180.303 90.3225 180.17 90.9928 179.911 91.6182C179.652 92.2437 179.272 92.8119 178.794 93.2906C178.315 93.7692 177.747 94.1489 177.121 94.4078C176.496 94.6667 175.825 94.7998 175.149 94.7996Z" stroke="black" stroke-width="0.772" stroke-linecap="round" stroke-linejoin="round"/>
<path d="M175.134 91.8001H150.777C150.437 91.7996 150.112 91.6643 149.872 91.424C149.631 91.1837 149.496 90.8579 149.496 90.5181V35.3181C149.497 34.9785 149.632 34.6528 149.872 34.4126C150.112 34.1723 150.437 34.0369 150.777 34.0361H175.134C175.474 34.0369 175.799 34.1722 176.04 34.4125C176.28 34.6527 176.415 34.9784 176.416 35.3181V90.5181C176.416 90.858 176.28 91.1838 176.04 91.4241C175.8 91.6644 175.474 91.7996 175.134 91.8001Z" stroke="black" stroke-width="0.772" stroke-linecap="round" stroke-linejoin="round"/>
<path d="M155.924 32.0732H168.783" stroke="black" stroke-width="0.772" stroke-linecap="round" stroke-linejoin="round"/>
<path d="M171.058 21.9043H162.352" stroke="black" stroke-width="0.772" stroke-linecap="round" stroke-linejoin="round"/>
<path d="M152.299 21.5114C152.299 22.4799 152.684 23.4088 153.368 24.0937C154.053 24.7786 154.982 25.1634 155.951 25.1634C156.919 25.1634 157.848 24.7786 158.533 24.0937C159.218 23.4088 159.603 22.4799 159.603 21.5114C159.603 20.5428 159.218 19.6139 158.533 18.929C157.848 18.2441 156.919 17.8594 155.951 17.8594C154.982 17.8594 154.053 18.2441 153.368 18.929C152.684 19.6139 152.299 20.5428 152.299 21.5114Z" stroke="black" stroke-width="0.772" stroke-linecap="round" stroke-linejoin="round"/>
<path d="M63.9321 148.224C63.9317 148.589 63.8233 148.945 63.6205 149.248C63.4177 149.551 63.1296 149.787 62.7927 149.926C62.4557 150.065 62.0851 150.102 61.7275 150.03C61.37 149.959 61.0416 149.783 60.7839 149.525C60.5262 149.268 60.3507 148.939 60.2795 148.582C60.2084 148.224 60.2449 147.853 60.3844 147.516C60.5239 147.18 60.7601 146.892 61.0632 146.689C61.3662 146.486 61.7226 146.378 62.0871 146.378C62.3296 146.378 62.5696 146.425 62.7936 146.518C63.0175 146.611 63.221 146.747 63.3924 146.918C63.5638 147.09 63.6996 147.293 63.7923 147.517C63.8849 147.741 63.9324 147.982 63.9321 148.224Z" stroke="black" stroke-width="0.772" stroke-linecap="round" stroke-linejoin="round"/>
<path d="M63.9321 164.241C63.9327 164.606 63.8251 164.962 63.6229 165.266C63.4207 165.57 63.133 165.807 62.7961 165.947C62.4593 166.087 62.0885 166.124 61.7306 166.053C61.3727 165.982 61.0439 165.807 60.7857 165.549C60.5274 165.292 60.3514 164.963 60.2799 164.605C60.2084 164.248 60.2446 163.877 60.3839 163.54C60.5233 163.202 60.7595 162.914 61.0626 162.711C61.3658 162.509 61.7223 162.4 62.0871 162.4C62.3292 162.4 62.569 162.447 62.7927 162.539C63.0165 162.632 63.2199 162.767 63.3912 162.938C63.5626 163.109 63.6985 163.312 63.7914 163.536C63.8842 163.759 63.932 163.999 63.9321 164.241Z" stroke="black" stroke-width="0.772" stroke-linecap="round" stroke-linejoin="round"/>
<path d="M64.127 164.241H113.547V155.03" stroke="black" stroke-width="0.772" stroke-linecap="round" stroke-linejoin="round"/>
<path d="M44.2285 39.219C44.2285 39.4609 44.2762 39.7004 44.3687 39.9239C44.4613 40.1473 44.597 40.3504 44.768 40.5214C44.9391 40.6925 45.1421 40.8282 45.3656 40.9207C45.5891 41.0133 45.8286 41.061 46.0705 41.061C46.3124 41.061 46.5519 41.0133 46.7754 40.9207C46.9989 40.8282 47.202 40.6925 47.373 40.5214C47.5441 40.3504 47.6797 40.1473 47.7723 39.9239C47.8649 39.7004 47.9125 39.4609 47.9125 39.219C47.9125 38.9771 47.8649 38.7375 47.7723 38.514C47.6797 38.2906 47.5441 38.0875 47.373 37.9165C47.202 37.7454 46.9989 37.6097 46.7754 37.5172C46.5519 37.4246 46.3124 37.377 46.0705 37.377C45.8286 37.377 45.5891 37.4246 45.3656 37.5172C45.1421 37.6097 44.9391 37.7454 44.768 37.9165C44.597 38.0875 44.4613 38.2906 44.3687 38.514C44.2762 38.7375 44.2285 38.9771 44.2285 39.219Z" stroke="black" stroke-width="0.772" stroke-linecap="round" stroke-linejoin="round"/>
<path d="M47.9102 39.2188H62.0872V97.8997H101.704" stroke="black" stroke-width="0.772" stroke-linecap="round" stroke-linejoin="round"/>
<path d="M66.9946 123.983H63.9336V104.162H94.8766H94.8806" stroke="black" stroke-width="0.772" stroke-linecap="round" stroke-linejoin="round"/>
<path d="M142.6 38.3576C142.6 38.722 142.492 39.0782 142.29 39.3812C142.088 39.6843 141.8 39.9205 141.464 40.0601C141.127 40.1997 140.757 40.2363 140.399 40.1653C140.042 40.0944 139.714 39.919 139.456 39.6614C139.198 39.4039 139.023 39.0757 138.951 38.7183C138.88 38.361 138.917 37.9906 139.056 37.6539C139.196 37.3173 139.432 37.0296 139.735 36.8271C140.037 36.6247 140.394 36.5166 140.758 36.5166C141.246 36.5169 141.715 36.7109 142.06 37.0561C142.405 37.4012 142.599 37.8693 142.6 38.3576Z" stroke="black" stroke-width="0.772" stroke-linecap="round" stroke-linejoin="round"/>
<path d="M114.889 29.5481C114.889 30.0366 115.083 30.5051 115.428 30.8505C115.774 31.196 116.242 31.3901 116.731 31.3901C117.219 31.3901 117.688 31.196 118.033 30.8505C118.379 30.5051 118.573 30.0366 118.573 29.5481C118.573 29.0595 118.379 28.591 118.033 28.2456C117.688 27.9001 117.219 27.7061 116.731 27.7061C116.242 27.7061 115.774 27.9001 115.428 28.2456C115.083 28.591 114.889 29.0595 114.889 29.5481Z" stroke="black" stroke-width="0.772" stroke-linecap="round" stroke-linejoin="round"/>
<path d="M138.918 54.3801C138.918 54.8686 139.112 55.3371 139.457 55.6826C139.803 56.028 140.271 56.2221 140.76 56.2221C141.248 56.2221 141.717 56.028 142.062 55.6826C142.408 55.3371 142.602 54.8686 142.602 54.3801C142.602 53.8916 142.408 53.423 142.062 53.0776C141.717 52.7322 141.248 52.5381 140.76 52.5381C140.271 52.5381 139.803 52.7322 139.457 53.0776C139.112 53.423 138.918 53.8916 138.918 54.3801Z" stroke="black" stroke-width="0.772" stroke-linecap="round" stroke-linejoin="round"/>
<path d="M138.918 62.3908C138.918 62.8794 139.112 63.3479 139.457 63.6933C139.803 64.0388 140.271 64.2328 140.76 64.2328C141.248 64.2328 141.717 64.0388 142.062 63.6933C142.408 63.3479 142.602 62.8794 142.602 62.3908C142.602 61.9023 142.408 61.4338 142.062 61.0883C141.717 60.7429 141.248 60.5488 140.76 60.5488C140.271 60.5488 139.803 60.7429 139.457 61.0883C139.112 61.4338 138.918 61.9023 138.918 62.3908Z" stroke="black" stroke-width="0.772" stroke-linecap="round" stroke-linejoin="round"/>
<path d="M142.6 70.3997C142.599 70.7639 142.491 71.1197 142.288 71.4222C142.085 71.7247 141.797 71.9604 141.461 72.0993C141.124 72.2383 140.754 72.2743 140.397 72.2029C140.04 72.1315 139.712 71.9558 139.454 71.6981C139.197 71.4404 139.022 71.1122 138.951 70.7549C138.88 70.3977 138.917 70.0275 139.057 69.6911C139.196 69.3547 139.432 69.0672 139.735 68.8649C140.038 68.6626 140.394 68.5547 140.758 68.5547C141 68.5547 141.24 68.6024 141.464 68.6952C141.687 68.7879 141.89 68.9239 142.062 69.0953C142.233 69.2666 142.368 69.47 142.461 69.6939C142.553 69.9177 142.6 70.1575 142.6 70.3997Z" stroke="black" stroke-width="0.772" stroke-linecap="round" stroke-linejoin="round"/>
<path d="M116.73 31.3896V54.3797H125.416H138.917" stroke="black" stroke-width="0.772" stroke-linecap="round" stroke-linejoin="round"/>
<path d="M138.918 62.3906H132.764V94.5296" stroke="black" stroke-width="0.772" stroke-linecap="round" stroke-linejoin="round"/>
<path d="M138.919 70.4014H136.502V94.5304" stroke="black" stroke-width="0.772" stroke-linecap="round" stroke-linejoin="round"/>
<path d="M138.919 38.3584H125.418V54.3804V91.3954" stroke="black" stroke-width="0.772" stroke-linecap="round" stroke-linejoin="round"/>
<path d="M12.5527 50.6469C12.5527 51.99 12.8173 53.3198 13.3312 54.5606C13.8452 55.8014 14.5985 56.9288 15.5482 57.8785C16.4978 58.8282 17.6252 59.5815 18.866 60.0954C20.1068 60.6094 21.4367 60.8739 22.7797 60.8739C24.1228 60.8739 25.4526 60.6094 26.6934 60.0954C27.9342 59.5815 29.0617 58.8282 30.0113 57.8785C30.961 56.9288 31.7143 55.8014 32.2283 54.5606C32.7422 53.3198 33.0067 51.99 33.0067 50.6469C33.0067 49.3039 32.7422 47.974 32.2283 46.7332C31.7143 45.4924 30.961 44.365 30.0113 43.4153C29.0617 42.4657 27.9342 41.7124 26.6934 41.1984C25.4526 40.6845 24.1228 40.4199 22.7797 40.4199C21.4367 40.4199 20.1068 40.6845 18.866 41.1984C17.6252 41.7124 16.4978 42.4657 15.5482 43.4153C14.5985 44.365 13.8452 45.4924 13.3312 46.7332C12.8173 47.974 12.5527 49.3039 12.5527 50.6469Z" stroke="black" stroke-width="0.772" stroke-linecap="round" stroke-linejoin="round"/>
<path d="M12.8223 66.8799H31.5353" stroke="black" stroke-width="0.772" stroke-linecap="round" stroke-linejoin="round"/>
<path d="M12.8223 72.8877H31.5353" stroke="black" stroke-width="0.772" stroke-linecap="round" stroke-linejoin="round"/>
<path d="M12.8223 78.8945H31.5353" stroke="black" stroke-width="0.772" stroke-linecap="round" stroke-linejoin="round"/>
<path d="M28.9824 131.098H47.4134V139.421H28.9824V131.098Z" stroke="black" stroke-width="0.772" stroke-linecap="round" stroke-linejoin="round"/>
<path d="M28.9824 143.111H47.4134V151.434H28.9824V143.111Z" stroke="black" stroke-width="0.772" stroke-linecap="round" stroke-linejoin="round"/>
<path d="M28.9824 155.126H47.4134V178.116H28.9824V155.126Z" stroke="black" stroke-width="0.772" stroke-linecap="round" stroke-linejoin="round"/>
<path d="M168.334 44.5997C168.335 45.6638 168.019 46.7041 167.429 47.5891C166.838 48.4741 165.998 49.1639 165.015 49.5715C164.032 49.979 162.95 50.0859 161.906 49.8786C160.863 49.6713 159.904 49.1592 159.151 48.407C158.398 47.6547 157.886 46.6962 157.678 45.6526C157.47 44.609 157.576 43.5272 157.983 42.544C158.39 41.5608 159.08 40.7204 159.964 40.129C160.849 39.5376 161.889 39.2219 162.953 39.2217C164.38 39.2214 165.748 39.7878 166.757 40.7964C167.766 41.8049 168.334 43.173 168.334 44.5997Z" stroke="black" stroke-width="0.772" stroke-linecap="round" stroke-linejoin="round"/>
<path d="M155.375 55.4219H170.536" stroke="black" stroke-width="0.772" stroke-linecap="round" stroke-linejoin="round"/>
<path d="M155.375 59.4258H170.536" stroke="black" stroke-width="0.772" stroke-linecap="round" stroke-linejoin="round"/>
<path d="M168.334 69.8302C168.334 70.8942 168.018 71.9341 167.427 72.8186C166.835 73.703 165.995 74.3923 165.012 74.7992C164.029 75.2061 162.947 75.3124 161.904 75.1047C160.86 74.897 159.902 74.3845 159.15 73.6321C158.397 72.8797 157.885 71.9212 157.678 70.8777C157.47 69.8342 157.577 68.7526 157.984 67.7696C158.391 66.7867 159.08 65.9465 159.965 65.3553C160.849 64.7641 161.889 64.4484 162.953 64.4482C163.66 64.4481 164.36 64.5872 165.013 64.8577C165.666 65.1281 166.259 65.5246 166.759 66.0244C167.259 66.5242 167.655 67.1175 167.925 67.7706C168.195 68.4236 168.334 69.1235 168.334 69.8302Z" stroke="black" stroke-width="0.772" stroke-linecap="round" stroke-linejoin="round"/>
<path d="M155.375 80.6514H170.536" stroke="black" stroke-width="0.772" stroke-linecap="round" stroke-linejoin="round"/>
<path d="M155.375 84.6592H170.536" stroke="black" stroke-width="0.772" stroke-linecap="round" stroke-linejoin="round"/>
<path d="M63.9336 148.225H102.779" stroke="black" stroke-width="0.772" stroke-linecap="round" stroke-linejoin="round"/>
</svg>
