<svg width="668" height="400" viewBox="0 0 668 400" fill="none" xmlns="http://www.w3.org/2000/svg">
<path d="M69.9688 262.196H106.831V278.842H69.9688V262.196Z" fill="#347357"/>
<path d="M69.9688 286.224H106.831V302.87H69.9688V286.224Z" fill="#347357"/>
<path d="M69.9688 310.252H106.831V356.232H69.9688V310.252Z" fill="#347357"/>
<path d="M337.904 78.4385C340.032 78.4385 342.111 79.0693 343.88 80.2512C345.649 81.4331 347.028 83.1129 347.842 85.0783C348.656 87.0437 348.869 89.2064 348.454 91.2929C348.039 93.3793 347.014 95.2959 345.51 96.8001C344.006 98.3044 342.089 99.3288 340.003 99.7438C337.916 100.159 335.754 99.9458 333.788 99.1317C331.823 98.3176 330.143 96.939 328.961 95.1702C327.779 93.4014 327.148 91.3218 327.148 89.1945C327.149 86.3421 328.283 83.6069 330.3 81.59C332.317 79.5731 335.052 78.4395 337.904 78.4385Z" fill="#347357"/>
<path d="M337.904 128.896C340.033 128.896 342.113 129.526 343.883 130.708C345.653 131.889 347.033 133.569 347.848 135.535C348.663 137.501 348.877 139.664 348.462 141.752C348.048 143.839 347.024 145.757 345.52 147.262C344.015 148.768 342.099 149.793 340.012 150.209C337.924 150.625 335.761 150.413 333.794 149.599C331.828 148.785 330.147 147.407 328.964 145.638C327.781 143.869 327.149 141.789 327.148 139.66C327.148 136.807 328.281 134.07 330.298 132.051C332.315 130.033 335.051 128.898 337.904 128.896Z" fill="#347357"/>
<path d="M37.1016 101.294C37.1016 103.98 37.6306 106.64 38.6585 109.121C39.6864 111.603 41.1931 113.858 43.0924 115.757C44.9917 117.656 47.2466 119.163 49.7282 120.191C52.2098 121.219 54.8695 121.748 57.5556 121.748C60.2416 121.748 62.9014 121.219 65.383 120.191C67.8646 119.163 70.1194 117.656 72.0187 115.757C73.9181 113.858 75.4247 111.603 76.4526 109.121C77.4805 106.64 78.0096 103.98 78.0096 101.294C78.0096 98.6078 77.4805 95.948 76.4526 93.4664C75.4247 90.9848 73.9181 88.73 72.0187 86.8307C70.1194 84.9314 67.8646 83.4247 65.383 82.3968C62.9014 81.3689 60.2416 80.8398 57.5556 80.8398C54.8695 80.8398 52.2098 81.3689 49.7282 82.3968C47.2466 83.4247 44.9917 84.9314 43.0924 86.8307C41.1931 88.73 39.6864 90.9848 38.6585 93.4664C37.6306 95.948 37.1016 98.6078 37.1016 101.294Z" fill="#347357"/>
<path d="M241.781 59.0961C241.781 60.0732 242.169 61.0102 242.86 61.7011C243.551 62.392 244.488 62.7801 245.465 62.7801C246.442 62.7801 247.379 62.392 248.07 61.7011C248.761 61.0102 249.149 60.0732 249.149 59.0961C249.149 58.1191 248.761 57.182 248.07 56.4911C247.379 55.8002 246.442 55.4121 245.465 55.4121C244.488 55.4121 243.551 55.8002 242.86 56.4911C242.169 57.182 241.781 58.1191 241.781 59.0961Z" fill="#347357"/>
<path d="M100.453 78.4379C100.453 78.9217 100.548 79.4008 100.734 79.8477C100.919 80.2947 101.19 80.7008 101.532 81.0429C101.874 81.385 102.28 81.6563 102.727 81.8415C103.174 82.0266 103.653 82.1219 104.137 82.1219C104.621 82.1219 105.1 82.0266 105.547 81.8415C105.994 81.6563 106.4 81.385 106.742 81.0429C107.084 80.7008 107.356 80.2947 107.541 79.8477C107.726 79.4008 107.821 78.9217 107.821 78.4379C107.821 77.9541 107.726 77.4751 107.541 77.0281C107.356 76.5811 107.084 76.175 106.742 75.8329C106.4 75.4908 105.994 75.2195 105.547 75.0343C105.1 74.8492 104.621 74.7539 104.137 74.7539C103.653 74.7539 103.174 74.8492 102.727 75.0343C102.28 75.2195 101.874 75.4908 101.532 75.8329C101.19 76.175 100.919 76.5811 100.734 77.0281C100.548 77.4751 100.453 77.9541 100.453 78.4379Z" fill="#347357"/>
<path d="M75.6009 219.952C77.0452 219.953 78.4569 220.381 79.6575 221.184C80.8582 221.987 81.7938 223.128 82.346 224.462C82.8982 225.797 83.0423 227.265 82.76 228.681C82.4777 230.098 81.7817 231.399 80.76 232.42C79.7384 233.44 78.4369 234.135 77.0202 234.416C75.6036 234.698 74.1354 234.552 72.8013 233.999C71.4672 233.446 70.3272 232.509 69.5254 231.308C68.7236 230.107 68.2961 228.694 68.2969 227.25C68.2966 226.291 68.4854 225.342 68.8524 224.456C69.2195 223.57 69.7576 222.765 70.4359 222.087C71.1143 221.409 71.9197 220.872 72.8059 220.505C73.6921 220.139 74.6419 219.951 75.6009 219.952Z" fill="white"/>
<path d="M316.602 43.0218C316.602 44.9589 317.371 46.8167 318.741 48.1865C320.111 49.5562 321.968 50.3258 323.906 50.3258C325.843 50.3258 327.701 49.5562 329.07 48.1865C330.44 46.8167 331.21 44.9589 331.21 43.0218C331.21 41.0846 330.44 39.2268 329.07 37.8571C327.701 36.4873 325.843 35.7178 323.906 35.7178C321.968 35.7178 320.111 36.4873 318.741 37.8571C317.371 39.2268 316.602 41.0846 316.602 43.0218Z" fill="white"/>
<path d="M184.525 11.6885C185.969 11.6873 187.382 12.1145 188.583 12.916C189.785 13.7175 190.722 14.8573 191.276 16.1914C191.83 17.5254 191.976 18.9938 191.696 20.4108C191.415 21.8278 190.721 23.1298 189.7 24.1522C188.68 25.1746 187.379 25.8715 185.963 26.1547C184.546 26.4379 183.078 26.2948 181.742 25.7434C180.407 25.1919 179.266 24.257 178.462 23.0568C177.658 21.8566 177.228 20.445 177.227 19.0005C177.225 18.0409 177.412 17.0904 177.778 16.2034C178.144 15.3163 178.681 14.5101 179.359 13.831C180.037 13.1518 180.842 12.613 181.729 12.2453C182.615 11.8777 183.565 11.6885 184.525 11.6885Z" fill="white"/>
<path d="M36.25 43.0218C36.25 44.9589 37.0195 46.8167 38.3893 48.1865C39.7591 49.5562 41.6169 50.3258 43.554 50.3258C45.4911 50.3258 47.3489 49.5562 48.7187 48.1865C50.0885 46.8167 50.858 44.9589 50.858 43.0218C50.858 41.0846 50.0885 39.2268 48.7187 37.8571C47.3489 36.4873 45.4911 35.7178 43.554 35.7178C41.6169 35.7178 39.7591 36.4873 38.3893 37.8571C37.0195 39.2268 36.25 41.0846 36.25 43.0218Z" fill="white"/>
<path d="M302.032 235.472L292.976 236.816C290.982 236.82 289.06 236.072 287.592 234.723C286.125 233.374 285.218 231.521 285.054 229.534V229.442C284.713 227.51 285.08 225.519 286.088 223.835C287.097 222.152 288.679 220.889 290.544 220.278L299.544 218.942C298.996 219.112 294.132 220.742 295.306 228.542C295.455 230.296 296.206 231.945 297.432 233.208C298.658 234.471 300.283 235.271 302.032 235.472Z" fill="#81F889"/>
<path d="M364.832 70.6324V181.032C364.831 181.712 364.561 182.364 364.08 182.844C363.599 183.325 362.948 183.595 362.268 183.596H313.554C312.875 183.595 312.223 183.325 311.743 182.844C311.263 182.363 310.993 181.712 310.992 181.032V70.6324C310.993 69.953 311.263 69.3018 311.744 68.8212C312.224 68.3407 312.875 68.0699 313.554 68.0684H362.268C362.948 68.0699 363.599 68.3406 364.079 68.8211C364.56 69.3016 364.831 69.9528 364.832 70.6324ZM348.67 89.2004C348.671 87.0721 348.041 84.9915 346.859 83.2215C345.677 81.4516 343.997 80.0718 342.031 79.2568C340.065 78.4417 337.902 78.2279 335.814 78.6425C333.727 79.057 331.809 80.0813 330.304 81.5858C328.799 83.0902 327.773 85.0073 327.357 87.0945C326.942 89.1817 327.154 91.3453 327.968 93.3117C328.782 95.2781 330.161 96.959 331.93 98.1417C333.7 99.3245 335.78 99.956 337.908 99.9564C340.762 99.9569 343.498 98.824 345.517 96.8069C347.535 94.7899 348.669 92.0537 348.67 89.2004ZM348.67 139.666C348.671 137.538 348.041 135.457 346.859 133.688C345.677 131.918 343.997 130.538 342.031 129.723C340.065 128.908 337.902 128.694 335.814 129.108C333.727 129.523 331.809 130.547 330.304 132.052C328.799 133.556 327.773 135.473 327.357 137.56C326.942 139.648 327.154 141.811 327.968 143.778C328.782 145.744 330.161 147.425 331.93 148.608C333.7 149.79 335.78 150.422 337.908 150.422C340.762 150.422 343.5 149.289 345.518 147.27C347.536 145.252 348.67 142.515 348.67 139.66V139.666Z" fill="#81F889"/>
<path d="M116.52 254.868V365.258C116.519 365.937 116.249 366.589 115.769 367.069C115.289 367.55 114.637 367.821 113.958 367.822H65.2437C64.564 367.821 63.9124 367.55 63.4318 367.07C62.9512 366.589 62.6807 365.937 62.6797 365.258V254.868C62.6797 254.188 62.9498 253.536 63.4307 253.055C63.9115 252.574 64.5637 252.304 65.2437 252.304H113.958C114.294 252.304 114.628 252.37 114.939 252.499C115.25 252.628 115.532 252.817 115.77 253.055C116.008 253.293 116.197 253.576 116.325 253.887C116.454 254.198 116.52 254.531 116.52 254.868ZM106.83 356.232V310.252H69.9697V356.232H106.83ZM106.83 302.872V286.224H69.9697V302.872H106.83ZM106.83 278.842V262.2H69.9697V278.846L106.83 278.842Z" fill="#81F889"/>
<path d="M225.457 46.6001V157C225.458 157.681 225.188 158.334 224.707 158.817C224.227 159.299 223.574 159.571 222.893 159.572H174.179C173.499 159.57 172.847 159.298 172.366 158.816C171.886 158.334 171.617 157.681 171.617 157V46.6001C171.618 45.9206 171.888 45.2691 172.368 44.7884C172.848 44.3077 173.5 44.0372 174.179 44.0361H222.893C223.573 44.0367 224.225 44.307 224.706 44.7877C225.186 45.2684 225.457 45.9203 225.457 46.6001Z" fill="#81F889"/>
<path d="M84.4846 70.6324V181.032C84.4846 181.37 84.4181 181.704 84.2888 182.016C84.1595 182.328 83.97 182.611 83.7311 182.85C83.4922 183.088 83.2086 183.277 82.8966 183.406C82.5846 183.535 82.2502 183.601 81.9126 183.6H33.2026C32.866 183.6 32.5327 183.534 32.2217 183.405C31.9108 183.276 31.6282 183.087 31.3903 182.849C31.1524 182.611 30.9637 182.328 30.8351 182.017C30.7064 181.706 30.6404 181.373 30.6406 181.036V70.6364C30.6398 70.2994 30.7055 69.9656 30.8339 69.6541C30.9623 69.3426 31.1509 69.0594 31.3889 68.8209C31.6269 68.5823 31.9096 68.3931 32.2208 68.264C32.532 68.1348 32.8657 68.0684 33.2026 68.0684H81.9126C82.5936 68.0678 83.2468 68.3375 83.7291 68.8183C84.2113 69.299 84.483 69.9515 84.4846 70.6324ZM78.0146 101.294C78.015 97.2489 76.8158 93.2941 74.5685 89.9302C72.3212 86.5663 69.1269 83.9443 65.3894 82.3959C61.652 80.8475 57.5393 80.4421 53.5715 81.2311C49.6037 82.0201 45.9589 83.968 43.0982 86.8285C40.2374 89.689 38.2892 93.3335 37.4998 97.3012C36.7104 101.269 37.1154 105.382 38.6634 109.119C40.2115 112.857 42.8331 116.051 46.1968 118.299C49.5605 120.547 53.5151 121.746 57.5606 121.746C62.985 121.746 68.1873 119.592 72.0231 115.756C75.8589 111.921 78.0141 106.719 78.0146 101.294Z" fill="#81F889"/>
<path d="M293.518 73.0342C294.248 73.033 294.962 73.2484 295.569 73.6532C296.177 74.058 296.65 74.6339 296.93 75.3081C297.21 75.9822 297.283 76.7242 297.141 77.4402C296.999 78.1562 296.648 78.8139 296.132 79.33C295.616 79.8461 294.958 80.1975 294.242 80.3396C293.526 80.4817 292.784 80.4082 292.11 80.1283C291.436 79.8484 290.86 79.3748 290.455 78.7674C290.05 78.16 289.835 77.4461 289.836 76.7162C289.836 75.7398 290.225 74.8036 290.915 74.1132C291.605 73.4228 292.542 73.0347 293.518 73.0342Z" fill="#347357"/>
<path d="M289.836 108.76C289.836 109.737 290.224 110.674 290.915 111.365C291.606 112.056 292.543 112.444 293.52 112.444C294.497 112.444 295.434 112.056 296.125 111.365C296.816 110.674 297.204 109.737 297.204 108.76C297.204 107.783 296.816 106.846 296.125 106.155C295.434 105.464 294.497 105.076 293.52 105.076C292.543 105.076 291.606 105.464 290.915 106.155C290.224 106.846 289.836 107.783 289.836 108.76Z" fill="#347357"/>
<path d="M289.836 124.782C289.836 125.759 290.224 126.696 290.915 127.387C291.606 128.078 292.543 128.466 293.52 128.466C294.497 128.466 295.434 128.078 296.125 127.387C296.816 126.696 297.204 125.759 297.204 124.782C297.204 123.805 296.816 122.868 296.125 122.177C295.434 121.486 294.497 121.098 293.52 121.098C292.543 121.098 291.606 121.486 290.915 122.177C290.224 122.868 289.836 123.805 289.836 124.782Z" fill="#347357"/>
<path d="M293.518 137.112C294.248 137.111 294.961 137.326 295.568 137.731C296.176 138.135 296.649 138.711 296.929 139.384C297.209 140.058 297.283 140.8 297.142 141.515C297 142.231 296.65 142.889 296.135 143.405C295.619 143.922 294.962 144.274 294.247 144.417C293.531 144.56 292.79 144.487 292.115 144.209C291.441 143.93 290.865 143.458 290.459 142.851C290.053 142.245 289.836 141.532 289.836 140.802C289.835 140.318 289.93 139.839 290.114 139.391C290.299 138.944 290.57 138.537 290.912 138.194C291.254 137.851 291.66 137.58 292.107 137.394C292.554 137.208 293.034 137.113 293.518 137.112Z" fill="#347357"/>
<path d="M136.176 292.756C136.906 292.755 137.619 292.971 138.226 293.375C138.833 293.78 139.306 294.355 139.586 295.029C139.866 295.702 139.94 296.444 139.798 297.159C139.657 297.875 139.306 298.532 138.791 299.049C138.276 299.565 137.619 299.917 136.904 300.06C136.188 300.203 135.447 300.131 134.773 299.853C134.098 299.574 133.522 299.102 133.116 298.496C132.71 297.89 132.493 297.177 132.492 296.448C132.492 295.47 132.879 294.532 133.57 293.839C134.261 293.147 135.198 292.757 136.176 292.756Z" fill="#347357"/>
<path d="M136.176 324.8C136.905 324.8 137.617 325.016 138.223 325.421C138.829 325.826 139.301 326.401 139.58 327.074C139.859 327.748 139.932 328.489 139.789 329.203C139.647 329.918 139.296 330.574 138.78 331.09C138.265 331.605 137.608 331.955 136.894 332.097C136.179 332.239 135.438 332.166 134.765 331.887C134.092 331.608 133.517 331.135 133.112 330.529C132.708 329.923 132.492 329.211 132.492 328.482C132.494 327.505 132.882 326.57 133.573 325.879C134.264 325.189 135.2 324.801 136.176 324.8Z" fill="#347357"/>
<path d="M219.471 227.156C222.408 227.463 225.376 227.251 228.241 226.532C234.611 224.84 238.217 218.046 238.217 218.046C240.449 221.161 243.058 223.988 245.985 226.462L217.555 230.4C218.264 229.407 218.902 228.364 219.463 227.28L219.471 227.156Z" fill="#347357"/>
<path d="M207.761 204.772C215.035 194.604 233.635 178.838 246.075 177.572C249.433 177.226 265.475 184.252 278.001 189.858C278.001 189.858 307.201 188.814 311.219 193.348C327.881 212.102 342.481 263.402 345.331 269.1C348.181 274.798 389.249 297.73 402.861 304.772V387.744L322.637 339.208C317.547 339.831 312.401 339.831 307.311 339.208C264.219 330.84 206.473 287.23 195.291 282.048C187.077 278.248 185.123 270.298 184.091 264.962C183.87 263.454 183.528 261.967 183.071 260.514C182.366 259.085 181.43 257.784 180.299 256.662C178.947 255.178 177.327 253.642 175.883 252.214C174.742 251.127 173.687 249.955 172.725 248.708C171.594 247.133 170.953 245.259 170.882 243.321C170.81 241.383 171.313 239.468 172.325 237.814C173.086 236.433 174.044 235.169 175.167 234.062C179.143 230.078 188.687 233.482 189.073 233.614C189.446 230.708 190.547 227.943 192.273 225.576C198.319 216.194 199.685 211.084 201.771 208.318C202.446 207.386 203.365 206.66 204.427 206.218C205.203 205.884 206.363 205.382 207.761 204.772ZM219.475 227.156V227.288C218.914 228.372 218.276 229.415 217.567 230.408C214.823 234.511 210.901 237.687 206.317 239.518C205.739 239.718 205.129 239.896 204.517 240.052C206.972 242.591 209.087 245.438 210.809 248.522C211.257 249.328 211.649 250.164 211.983 251.024C211.983 251.024 234.129 264.712 237.695 266.69C237.695 266.69 260.441 254.622 267.375 251.254C267.375 251.254 259.947 243.642 258.341 241.626L292.995 236.816L302.051 235.472L306.097 234.872C308.283 234.541 310.249 233.358 311.564 231.581C312.88 229.805 313.438 227.579 313.116 225.392C312.795 223.204 311.62 221.234 309.848 219.911C308.077 218.588 305.853 218.021 303.665 218.334L299.611 218.934C299.596 218.932 299.58 218.932 299.565 218.934L290.565 220.27L246.013 226.454C243.086 223.98 240.477 221.153 238.245 218.038C238.245 218.038 234.645 224.838 228.269 226.524C225.397 227.249 222.421 227.463 219.475 227.156Z" fill="white"/>
<path d="M402.858 304.778C389.246 297.736 348.176 274.796 345.328 269.106C342.48 263.416 327.878 212.106 311.216 193.354C307.2 188.82 278 189.864 278 189.864" stroke="#347357" stroke-width="0.772" stroke-linecap="round" stroke-linejoin="round"/>
<path d="M189.065 233.628C188.679 233.496 179.135 230.092 175.159 234.076C174.036 235.183 173.079 236.446 172.317 237.828C171.305 239.481 170.803 241.397 170.874 243.335C170.945 245.273 171.586 247.146 172.717 248.722C173.679 249.969 174.735 251.141 175.875 252.228C177.319 253.656 178.939 255.192 180.291 256.676C181.422 257.797 182.358 259.099 183.063 260.528C183.521 261.981 183.862 263.468 184.083 264.976C185.117 270.31 187.071 278.256 195.283 282.062C206.465 287.244 264.211 330.862 307.303 339.222C312.393 339.845 317.539 339.845 322.629 339.222L402.853 387.758" stroke="#347357" stroke-width="0.772" stroke-linecap="round" stroke-linejoin="round"/>
<path d="M204.484 240.044H204.5C206.955 242.583 209.071 245.43 210.792 248.514C211.24 249.32 211.632 250.156 211.966 251.016C211.966 251.016 234.112 264.704 237.678 266.682C237.678 266.682 260.424 254.614 267.358 251.246C267.358 251.246 259.93 243.634 258.324 241.618L258.302 241.602" stroke="#347357" stroke-width="0.772" stroke-linecap="round" stroke-linejoin="round"/>
<path d="M180.298 256.668C180.298 256.668 182.646 248.204 184.598 245.988C186.55 243.772 181.548 238.638 178.352 236.346" stroke="#347357" stroke-width="0.772" stroke-linecap="round" stroke-linejoin="round"/>
<path d="M187.83 258.2C186.63 260.046 183.63 262.818 184.086 264.964" stroke="#347357" stroke-width="0.772" stroke-linecap="round" stroke-linejoin="round"/>
<path d="M246.073 226.532C246.073 226.532 246.041 226.508 245.987 226.462C243.06 223.988 240.451 221.161 238.219 218.046C238.219 218.046 234.619 224.846 228.243 226.532C225.378 227.251 222.41 227.463 219.473 227.156C218.21 227.046 216.957 226.837 215.727 226.532" stroke="#347357" stroke-width="0.772" stroke-linecap="round" stroke-linejoin="round"/>
<path d="M219.461 227.288C218.9 228.372 218.262 229.415 217.553 230.408C214.808 234.511 210.886 237.687 206.303 239.518C205.725 239.718 205.115 239.896 204.503 240.052C204.163 240.128 203.823 240.198 203.469 240.252C195.577 241.618 188.705 239.828 189.069 233.612C189.441 230.706 190.542 227.941 192.269 225.574C198.315 216.192 199.681 211.08 201.767 208.316C202.441 207.384 203.361 206.658 204.423 206.216C205.223 205.876 206.375 205.374 207.773 204.764C213.927 202.032 224.907 196.99 232.219 193.164C241.183 188.476 244.033 189.496 249.337 191.736C254.641 193.976 281.737 209.262 281.737 209.262" stroke="#347357" stroke-width="0.772" stroke-linecap="round" stroke-linejoin="round"/>
<path d="M291.982 196.048C289.426 195.014 284.136 192.604 277.998 189.864C265.474 184.264 249.43 177.232 246.072 177.578C233.632 178.838 215.032 194.604 207.758 204.778" stroke="#347357" stroke-width="0.772" stroke-linecap="round" stroke-linejoin="round"/>
<path d="M217.555 230.408L245.985 226.462L290.537 220.278" stroke="#347357" stroke-width="0.772" stroke-linecap="round" stroke-linejoin="round"/>
<path d="M292.976 236.816L258.322 241.626L211.516 248.128" stroke="#347357" stroke-width="0.772" stroke-linecap="round" stroke-linejoin="round"/>
<path d="M165.309 242.066L156.305 247.526L163.487 249.378L165.099 249.796L175.593 252.506" stroke="#347357" stroke-width="0.772" stroke-linecap="round" stroke-linejoin="round"/>
<path d="M172.299 237.82L165.305 242.066" stroke="#347357" stroke-width="0.772" stroke-linecap="round" stroke-linejoin="round"/>
<path d="M302.032 235.472L292.976 236.816C290.982 236.82 289.06 236.072 287.592 234.723C286.125 233.374 285.218 231.521 285.054 229.534V229.442C284.713 227.51 285.08 225.519 286.088 223.835C287.097 222.152 288.679 220.889 290.544 220.278L299.544 218.942" stroke="#347357" stroke-width="0.772" stroke-linecap="round" stroke-linejoin="round"/>
<path d="M302.031 235.472L306.077 234.872C308.263 234.542 310.229 233.358 311.545 231.582C312.86 229.805 313.418 227.579 313.097 225.392C312.775 223.205 311.6 221.234 309.828 219.911C308.057 218.588 305.834 218.021 303.645 218.334L299.591 218.934C299.576 218.933 299.56 218.933 299.545 218.934C298.997 219.104 294.133 220.734 295.307 228.534C295.454 230.289 296.205 231.939 297.43 233.204C298.656 234.468 300.282 235.27 302.031 235.472Z" stroke="#347357" stroke-width="0.772" stroke-linecap="round" stroke-linejoin="round"/>
<path d="M156.304 247.526L151.742 247.966" stroke="#347357" stroke-width="0.772" stroke-linecap="round" stroke-linejoin="round"/>
<path d="M81.9494 189.6H33.1674C30.4337 189.6 27.8121 188.513 25.8791 186.58C23.9461 184.647 22.8599 182.026 22.8594 179.292V70.6781C22.8604 67.9446 23.9468 65.3233 25.8797 63.3904C27.8126 61.4575 30.4338 60.3712 33.1674 60.3701H81.9494C84.6831 60.3706 87.3046 61.4568 89.2376 63.3898C91.1707 65.3229 92.2568 67.9444 92.2574 70.6781V179.292C92.2568 182.026 91.1707 184.647 89.2376 186.58C87.3046 188.513 84.6831 189.6 81.9494 189.6Z" stroke="#347357" stroke-width="0.772" stroke-linecap="round" stroke-linejoin="round"/>
<path d="M81.9126 183.6H33.2026C32.866 183.6 32.5327 183.534 32.2217 183.405C31.9108 183.276 31.6282 183.087 31.3903 182.849C31.1524 182.611 30.9637 182.328 30.8351 182.017C30.7064 181.706 30.6404 181.373 30.6406 181.036V70.6364C30.6398 70.2994 30.7055 69.9656 30.8339 69.6541C30.9623 69.3426 31.1509 69.0594 31.3889 68.8209C31.6269 68.5823 31.9096 68.3931 32.2208 68.264C32.532 68.1348 32.8657 68.0684 33.2026 68.0684H81.9126C82.5936 68.0678 83.2468 68.3375 83.7291 68.8183C84.2113 69.299 84.483 69.9515 84.4846 70.6324V181.032C84.4846 181.37 84.4181 181.704 84.2888 182.016C84.1595 182.328 83.97 182.611 83.7311 182.85C83.4922 183.088 83.2086 183.277 82.8966 183.406C82.5846 183.535 82.2502 183.601 81.9126 183.6Z" stroke="#347357" stroke-width="0.772" stroke-linecap="round" stroke-linejoin="round"/>
<path d="M43.5 64.1465H69.218" stroke="#347357" stroke-width="0.772" stroke-linecap="round" stroke-linejoin="round"/>
<path d="M73.7616 43.8076H56.3516" stroke="#347357" stroke-width="0.772" stroke-linecap="round" stroke-linejoin="round"/>
<path d="M36.25 43.0218C36.25 44.9589 37.0195 46.8167 38.3893 48.1865C39.7591 49.5562 41.6169 50.3258 43.554 50.3258C45.4911 50.3258 47.3489 49.5562 48.7187 48.1865C50.0885 46.8167 50.858 44.9589 50.858 43.0218C50.858 41.0846 50.0885 39.2268 48.7187 37.8571C47.3489 36.4873 45.4911 35.7178 43.554 35.7178C41.6169 35.7178 39.7591 36.4873 38.3893 37.8571C37.0195 39.2268 36.25 41.0846 36.25 43.0218Z" stroke="#347357" stroke-width="0.772" stroke-linecap="round" stroke-linejoin="round"/>
<path d="M113.996 373.83H65.2064C63.8527 373.83 62.5122 373.563 61.2614 373.046C60.0107 372.528 58.8742 371.768 57.917 370.811C56.9598 369.854 56.2005 368.717 55.6826 367.467C55.1646 366.216 54.8982 364.875 54.8984 363.522V254.906C54.8982 253.552 55.1646 252.212 55.6826 250.961C56.2005 249.71 56.9598 248.574 57.9171 247.617C58.8744 246.66 60.0108 245.901 61.2616 245.383C62.5123 244.865 63.8528 244.599 65.2064 244.6H113.996C116.73 244.6 119.351 245.686 121.284 247.619C123.217 249.551 124.303 252.172 124.304 254.906V363.522C124.303 366.255 123.217 368.876 121.284 370.809C119.351 372.742 116.73 373.829 113.996 373.83Z" stroke="#347357" stroke-width="0.772" stroke-linecap="round" stroke-linejoin="round"/>
<path d="M113.958 367.822H65.2437C64.564 367.821 63.9124 367.55 63.4318 367.07C62.9512 366.589 62.6807 365.937 62.6797 365.258V254.868C62.6797 254.188 62.9498 253.536 63.4307 253.055C63.9115 252.574 64.5637 252.304 65.2437 252.304H113.958C114.294 252.304 114.628 252.37 114.939 252.499C115.25 252.628 115.532 252.817 115.77 253.055C116.008 253.293 116.197 253.576 116.325 253.887C116.454 254.198 116.52 254.531 116.52 254.868V365.258C116.519 365.937 116.249 366.589 115.769 367.069C115.289 367.55 114.637 367.821 113.958 367.822Z" stroke="#347357" stroke-width="0.772" stroke-linecap="round" stroke-linejoin="round"/>
<path d="M75.5312 248.374H101.251" stroke="#347357" stroke-width="0.772" stroke-linecap="round" stroke-linejoin="round"/>
<path d="M105.81 228.044H88.3984" stroke="#347357" stroke-width="0.772" stroke-linecap="round" stroke-linejoin="round"/>
<path d="M82.8891 227.25C82.8895 228.694 82.4616 230.106 81.6595 231.307C80.8574 232.508 79.7172 233.444 78.3831 233.996C77.049 234.549 75.581 234.694 74.1647 234.412C72.7484 234.13 71.4474 233.435 70.4265 232.413C69.4055 231.392 68.7104 230.091 68.429 228.675C68.1476 227.258 68.2926 225.79 68.8457 224.456C69.3988 223.122 70.3351 221.982 71.5361 221.181C72.7372 220.379 74.149 219.951 75.5931 219.952C77.5283 219.953 79.384 220.722 80.7522 222.09C82.1204 223.459 82.8891 225.315 82.8891 227.25Z" stroke="#347357" stroke-width="0.772" stroke-linecap="round" stroke-linejoin="round"/>
<path d="M222.926 165.564H174.144C172.79 165.564 171.45 165.297 170.2 164.779C168.95 164.261 167.814 163.502 166.857 162.545C165.901 161.587 165.142 160.451 164.625 159.2C164.108 157.949 163.842 156.609 163.844 155.256V46.6557C163.843 45.3024 164.108 43.9621 164.626 42.7116C165.143 41.461 165.901 40.3246 166.858 39.3673C167.814 38.41 168.95 37.6506 170.2 37.1325C171.45 36.6143 172.79 36.3477 174.144 36.3477H222.926C224.28 36.3466 225.621 36.6125 226.872 37.1302C228.123 37.6478 229.26 38.4071 230.217 39.3645C231.174 40.3219 231.934 41.4586 232.451 42.7097C232.969 43.9608 233.235 45.3017 233.234 46.6557V155.256C233.235 156.61 232.969 157.951 232.452 159.202C231.934 160.453 231.175 161.59 230.218 162.547C229.26 163.505 228.123 164.264 226.872 164.782C225.621 165.299 224.28 165.565 222.926 165.564Z" stroke="#347357" stroke-width="0.772" stroke-linecap="round" stroke-linejoin="round"/>
<path d="M222.893 159.566H174.179C173.5 159.564 172.849 159.293 172.368 158.812C171.888 158.331 171.618 157.68 171.617 157V46.6001C171.618 45.9206 171.888 45.2691 172.368 44.7884C172.848 44.3077 173.5 44.0372 174.179 44.0361H222.893C223.573 44.0367 224.225 44.307 224.706 44.7877C225.186 45.2684 225.457 45.9203 225.457 46.6001V157C225.456 157.68 225.186 158.332 224.705 158.813C224.225 159.294 223.573 159.565 222.893 159.566Z" stroke="#347357" stroke-width="0.772" stroke-linecap="round" stroke-linejoin="round"/>
<path d="M184.469 40.1182H210.187" stroke="#347357" stroke-width="0.772" stroke-linecap="round" stroke-linejoin="round"/>
<path d="M214.748 19.7803H197.336" stroke="#347357" stroke-width="0.772" stroke-linecap="round" stroke-linejoin="round"/>
<path d="M191.831 19.0003C191.83 20.4443 191.402 21.8558 190.599 23.0563C189.797 24.2568 188.656 25.1924 187.322 25.7448C185.988 26.2973 184.52 26.4417 183.104 26.1599C181.687 25.8781 180.386 25.1827 179.365 24.1616C178.344 23.1405 177.649 21.8396 177.367 20.4233C177.085 19.0071 177.23 17.539 177.782 16.2049C178.334 14.8707 179.27 13.7302 180.471 12.9277C181.671 12.1252 183.083 11.6967 184.527 11.6963C185.486 11.696 186.436 11.8848 187.322 12.2517C188.208 12.6187 189.014 13.1567 189.692 13.835C190.37 14.5133 190.908 15.3186 191.275 16.2049C191.642 17.0911 191.831 18.041 191.831 19.0003Z" stroke="#347357" stroke-width="0.772" stroke-linecap="round" stroke-linejoin="round"/>
<path d="M362.301 189.6H313.519C310.785 189.6 308.164 188.513 306.231 186.58C304.298 184.647 303.211 182.026 303.211 179.292V70.6781C303.212 67.9446 304.298 65.3233 306.231 63.3904C308.164 61.4575 310.785 60.3712 313.519 60.3701H362.301C363.655 60.3699 364.995 60.6363 366.246 61.1542C367.497 61.6722 368.633 62.4314 369.59 63.3887C370.548 64.3459 371.307 65.4824 371.825 66.7331C372.343 67.9838 372.609 69.3244 372.609 70.6781V179.292C372.609 180.646 372.343 181.987 371.825 183.237C371.308 184.488 370.548 185.625 369.591 186.582C368.634 187.539 367.497 188.299 366.246 188.817C364.995 189.334 363.655 189.601 362.301 189.6Z" stroke="#347357" stroke-width="0.772" stroke-linecap="round" stroke-linejoin="round"/>
<path d="M362.268 183.6H313.554C312.875 183.599 312.223 183.329 311.743 182.848C311.263 182.367 310.993 181.716 310.992 181.036V70.6363C310.993 69.9569 311.263 69.3057 311.744 68.8251C312.224 68.3446 312.875 68.0739 313.554 68.0723H362.268C362.948 68.0739 363.599 68.3445 364.079 68.825C364.56 69.3055 364.831 69.9567 364.832 70.6363V181.036C364.831 181.716 364.561 182.368 364.08 182.848C363.599 183.329 362.948 183.599 362.268 183.6Z" stroke="#347357" stroke-width="0.772" stroke-linecap="round" stroke-linejoin="round"/>
<path d="M323.852 64.1465H349.57" stroke="#347357" stroke-width="0.772" stroke-linecap="round" stroke-linejoin="round"/>
<path d="M354.115 43.8076H336.703" stroke="#347357" stroke-width="0.772" stroke-linecap="round" stroke-linejoin="round"/>
<path d="M316.602 43.0218C316.602 44.9589 317.371 46.8167 318.741 48.1865C320.111 49.5562 321.968 50.3258 323.906 50.3258C325.843 50.3258 327.701 49.5562 329.07 48.1865C330.44 46.8167 331.21 44.9589 331.21 43.0218C331.21 41.0846 330.44 39.2268 329.07 37.8571C327.701 36.4873 325.843 35.7178 323.906 35.7178C321.968 35.7178 320.111 36.4873 318.741 37.8571C317.371 39.2268 316.602 41.0846 316.602 43.0218Z" stroke="#347357" stroke-width="0.772" stroke-linecap="round" stroke-linejoin="round"/>
<path d="M139.868 296.448C139.867 297.177 139.65 297.89 139.245 298.495C138.839 299.101 138.263 299.574 137.589 299.852C136.915 300.131 136.174 300.203 135.459 300.061C134.744 299.918 134.087 299.567 133.572 299.051C133.056 298.535 132.705 297.878 132.563 297.163C132.421 296.448 132.494 295.707 132.773 295.033C133.052 294.359 133.524 293.783 134.13 293.378C134.736 292.973 135.449 292.756 136.178 292.756C136.663 292.756 137.143 292.851 137.591 293.036C138.039 293.222 138.446 293.494 138.789 293.837C139.131 294.18 139.403 294.587 139.588 295.035C139.774 295.483 139.869 295.963 139.868 296.448Z" stroke="#347357" stroke-width="0.772" stroke-linecap="round" stroke-linejoin="round"/>
<path d="M139.868 328.482C139.869 329.211 139.654 329.925 139.25 330.532C138.845 331.139 138.27 331.613 137.596 331.893C136.922 332.173 136.181 332.247 135.465 332.106C134.749 331.964 134.092 331.614 133.575 331.098C133.059 330.583 132.707 329.926 132.564 329.211C132.421 328.495 132.493 327.754 132.772 327.079C133.05 326.405 133.523 325.829 134.129 325.423C134.736 325.017 135.449 324.8 136.178 324.8C136.662 324.799 137.142 324.894 137.589 325.078C138.037 325.263 138.444 325.534 138.786 325.876C139.129 326.218 139.401 326.624 139.587 327.071C139.772 327.518 139.868 327.998 139.868 328.482Z" stroke="#347357" stroke-width="0.772" stroke-linecap="round" stroke-linejoin="round"/>
<path d="M140.25 328.482H239.09V310.06" stroke="#347357" stroke-width="0.772" stroke-linecap="round" stroke-linejoin="round"/>
<path d="M100.453 78.4379C100.453 78.9217 100.548 79.4008 100.734 79.8477C100.919 80.2947 101.19 80.7008 101.532 81.0429C101.874 81.385 102.28 81.6563 102.727 81.8415C103.174 82.0266 103.653 82.1219 104.137 82.1219C104.621 82.1219 105.1 82.0266 105.547 81.8415C105.994 81.6563 106.4 81.385 106.742 81.0429C107.084 80.7008 107.356 80.2947 107.541 79.8477C107.726 79.4008 107.821 78.9217 107.821 78.4379C107.821 77.9541 107.726 77.4751 107.541 77.0281C107.356 76.5811 107.084 76.175 106.742 75.8329C106.4 75.4908 105.994 75.2195 105.547 75.0343C105.1 74.8492 104.621 74.7539 104.137 74.7539C103.653 74.7539 103.174 74.8492 102.727 75.0343C102.28 75.2195 101.874 75.4908 101.532 75.8329C101.19 76.175 100.919 76.5811 100.734 77.0281C100.548 77.4751 100.453 77.9541 100.453 78.4379Z" stroke="#347357" stroke-width="0.772" stroke-linecap="round" stroke-linejoin="round"/>
<path d="M107.82 78.4385H136.174V195.8H215.408" stroke="#347357" stroke-width="0.772" stroke-linecap="round" stroke-linejoin="round"/>
<path d="M145.989 247.966H139.867V208.324H201.753H201.761" stroke="#347357" stroke-width="0.772" stroke-linecap="round" stroke-linejoin="round"/>
<path d="M297.196 76.7162C297.197 77.4449 296.981 78.1574 296.576 78.7635C296.172 79.3695 295.596 79.842 294.923 80.1212C294.25 80.4003 293.509 80.4736 292.795 80.3316C292.08 80.1897 291.423 79.839 290.908 79.3239C290.392 78.8087 290.041 78.1523 289.899 77.4376C289.757 76.7229 289.83 75.9821 290.108 75.3088C290.387 74.6356 290.859 74.0601 291.465 73.6552C292.071 73.2503 292.783 73.0342 293.512 73.0342C294.489 73.0347 295.425 73.4227 296.116 74.1131C296.807 74.8034 297.195 75.7396 297.196 76.7162Z" stroke="#347357" stroke-width="0.772" stroke-linecap="round" stroke-linejoin="round"/>
<path d="M241.781 59.0961C241.781 60.0732 242.169 61.0102 242.86 61.7011C243.551 62.392 244.488 62.7801 245.465 62.7801C246.442 62.7801 247.379 62.392 248.07 61.7011C248.761 61.0102 249.149 60.0732 249.149 59.0961C249.149 58.1191 248.761 57.182 248.07 56.4911C247.379 55.8002 246.442 55.4121 245.465 55.4121C244.488 55.4121 243.551 55.8002 242.86 56.4911C242.169 57.182 241.781 58.1191 241.781 59.0961Z" stroke="#347357" stroke-width="0.772" stroke-linecap="round" stroke-linejoin="round"/>
<path d="M289.836 108.76C289.836 109.737 290.224 110.674 290.915 111.365C291.606 112.056 292.543 112.444 293.52 112.444C294.497 112.444 295.434 112.056 296.125 111.365C296.816 110.674 297.204 109.737 297.204 108.76C297.204 107.783 296.816 106.846 296.125 106.155C295.434 105.464 294.497 105.076 293.52 105.076C292.543 105.076 291.606 105.464 290.915 106.155C290.224 106.846 289.836 107.783 289.836 108.76Z" stroke="#347357" stroke-width="0.772" stroke-linecap="round" stroke-linejoin="round"/>
<path d="M289.836 124.782C289.836 125.759 290.224 126.696 290.915 127.387C291.606 128.078 292.543 128.466 293.52 128.466C294.497 128.466 295.434 128.078 296.125 127.387C296.816 126.696 297.204 125.759 297.204 124.782C297.204 123.805 296.816 122.868 296.125 122.177C295.434 121.486 294.497 121.098 293.52 121.098C292.543 121.098 291.606 121.486 290.915 122.177C290.224 122.868 289.836 123.805 289.836 124.782Z" stroke="#347357" stroke-width="0.772" stroke-linecap="round" stroke-linejoin="round"/>
<path d="M297.196 140.8C297.195 141.529 296.978 142.24 296.572 142.845C296.167 143.45 295.591 143.922 294.918 144.2C294.245 144.478 293.504 144.55 292.79 144.407C292.076 144.264 291.42 143.913 290.905 143.397C290.39 142.882 290.04 142.225 289.898 141.511C289.757 140.796 289.83 140.056 290.109 139.383C290.388 138.71 290.86 138.135 291.466 137.731C292.072 137.326 292.784 137.11 293.512 137.11C293.996 137.11 294.476 137.206 294.923 137.391C295.371 137.577 295.777 137.849 296.119 138.191C296.461 138.534 296.733 138.941 296.917 139.389C297.102 139.836 297.197 140.316 297.196 140.8Z" stroke="#347357" stroke-width="0.772" stroke-linecap="round" stroke-linejoin="round"/>
<path d="M245.461 62.7803V108.76H262.833H289.835" stroke="#347357" stroke-width="0.772" stroke-linecap="round" stroke-linejoin="round"/>
<path d="M289.839 124.782H277.531V189.06" stroke="#347357" stroke-width="0.772" stroke-linecap="round" stroke-linejoin="round"/>
<path d="M289.834 140.802H285V189.06" stroke="#347357" stroke-width="0.772" stroke-linecap="round" stroke-linejoin="round"/>
<path d="M289.838 76.7158H262.836V108.76V182.79" stroke="#347357" stroke-width="0.772" stroke-linecap="round" stroke-linejoin="round"/>
<path d="M37.1016 101.294C37.1016 103.98 37.6306 106.64 38.6585 109.121C39.6864 111.603 41.1931 113.858 43.0924 115.757C44.9917 117.656 47.2466 119.163 49.7282 120.191C52.2098 121.219 54.8695 121.748 57.5556 121.748C60.2416 121.748 62.9014 121.219 65.383 120.191C67.8646 119.163 70.1194 117.656 72.0187 115.757C73.9181 113.858 75.4247 111.603 76.4526 109.121C77.4805 106.64 78.0096 103.98 78.0096 101.294C78.0096 98.6078 77.4805 95.948 76.4526 93.4664C75.4247 90.9848 73.9181 88.73 72.0187 86.8307C70.1194 84.9314 67.8646 83.4247 65.383 82.3968C62.9014 81.3689 60.2416 80.8398 57.5556 80.8398C54.8695 80.8398 52.2098 81.3689 49.7282 82.3968C47.2466 83.4247 44.9917 84.9314 43.0924 86.8307C41.1931 88.73 39.6864 90.9848 38.6585 93.4664C37.6306 95.948 37.1016 98.6078 37.1016 101.294Z" stroke="#347357" stroke-width="0.772" stroke-linecap="round" stroke-linejoin="round"/>
<path d="M37.6406 133.76H75.0666" stroke="#347357" stroke-width="0.772" stroke-linecap="round" stroke-linejoin="round"/>
<path d="M37.6406 145.776H75.0666" stroke="#347357" stroke-width="0.772" stroke-linecap="round" stroke-linejoin="round"/>
<path d="M37.6406 157.79H75.0666" stroke="#347357" stroke-width="0.772" stroke-linecap="round" stroke-linejoin="round"/>
<path d="M69.9688 262.196H106.831V278.842H69.9688V262.196Z" stroke="#347357" stroke-width="0.772" stroke-linecap="round" stroke-linejoin="round"/>
<path d="M69.9688 286.224H106.831V302.87H69.9688V286.224Z" stroke="#347357" stroke-width="0.772" stroke-linecap="round" stroke-linejoin="round"/>
<path d="M69.9688 310.252H106.831V356.232H69.9688V310.252Z" stroke="#347357" stroke-width="0.772" stroke-linecap="round" stroke-linejoin="round"/>
<path d="M348.668 89.2003C348.669 91.3285 348.039 93.4092 346.857 95.1792C345.675 96.9491 343.995 98.3289 342.029 99.1439C340.063 99.959 337.9 100.173 335.812 99.7582C333.725 99.3437 331.807 98.3194 330.302 96.8149C328.797 95.3105 327.771 93.3934 327.356 91.3062C326.94 89.219 327.153 87.0554 327.967 85.089C328.781 83.1226 330.159 81.4417 331.929 80.259C333.698 79.0762 335.778 78.4447 337.906 78.4443C340.76 78.4438 343.497 79.5767 345.515 81.5937C347.533 83.6108 348.667 86.3469 348.668 89.2003Z" stroke="#347357" stroke-width="0.772" stroke-linecap="round" stroke-linejoin="round"/>
<path d="M322.75 110.844H353.072" stroke="#347357" stroke-width="0.772" stroke-linecap="round" stroke-linejoin="round"/>
<path d="M322.75 118.852H353.072" stroke="#347357" stroke-width="0.772" stroke-linecap="round" stroke-linejoin="round"/>
<path d="M348.668 139.66C348.668 141.788 348.036 143.868 346.853 145.637C345.671 147.406 343.99 148.785 342.024 149.598C340.058 150.412 337.894 150.625 335.808 150.209C333.721 149.794 331.804 148.769 330.299 147.264C328.795 145.759 327.77 143.842 327.355 141.755C326.94 139.668 327.153 137.505 327.967 135.539C328.782 133.573 330.16 131.893 331.929 130.711C333.699 129.528 335.779 128.897 337.906 128.896C339.32 128.896 340.72 129.174 342.026 129.715C343.332 130.256 344.518 131.049 345.518 132.049C346.517 133.048 347.31 134.235 347.85 135.541C348.391 136.847 348.669 138.247 348.668 139.66Z" stroke="#347357" stroke-width="0.772" stroke-linecap="round" stroke-linejoin="round"/>
<path d="M322.75 161.302H353.072" stroke="#347357" stroke-width="0.772" stroke-linecap="round" stroke-linejoin="round"/>
<path d="M322.75 169.318H353.072" stroke="#347357" stroke-width="0.772" stroke-linecap="round" stroke-linejoin="round"/>
<path d="M139.867 296.448H217.557" stroke="#347357" stroke-width="0.772" stroke-linecap="round" stroke-linejoin="round"/>
</svg>
