<svg width="472" height="255" viewBox="0 0 472 255" fill="none" xmlns="http://www.w3.org/2000/svg">
<g clip-path="url(#clip0_2968_18184)">
<path d="M21.0151 85.3145V108.506L6.30923 85.3145H0.0473633V120.558H6.59386V97.4395L21.2642 120.558H27.5498V85.3145H21.0151Z" fill="white"/>
<path d="M49.2173 94.6639L44.604 106.765H53.7952L49.2173 94.6639ZM45.8611 85.3145H52.4906L65.7022 120.618H58.9066L56.2264 113.314H42.2083L39.4095 120.618H32.6257L45.8611 85.3145Z" fill="white"/>
<path d="M67.3743 85.3145H86.3615V91.9248H80.0996V120.558H73.4701V91.9248H67.3743V85.3145Z" fill="white"/>
<path d="M96.8573 85.3145H90.3701V120.558H96.8573V85.3145Z" fill="white"/>
<path d="M120.351 90.9991C118.859 90.966 117.376 91.2507 115.996 91.8353C114.616 92.4199 113.369 93.2916 112.334 94.3955C111.257 95.5419 110.415 96.8988 109.859 98.3858C109.303 99.8727 109.043 101.459 109.096 103.051C109.024 104.815 109.357 106.571 110.068 108.178C110.779 109.785 111.847 111.198 113.188 112.303C115.233 114.045 117.813 114.985 120.47 114.957C121.952 114.977 123.422 114.68 124.786 114.085C126.149 113.489 127.378 112.609 128.392 111.5C129.468 110.378 130.312 109.046 130.875 107.581C131.437 106.117 131.706 104.551 131.665 102.978C131.698 101.404 131.424 99.8383 130.857 98.3746C130.291 96.9109 129.445 95.5786 128.368 94.4564C127.345 93.3304 126.103 92.4384 124.721 91.8385C123.34 91.2386 121.851 90.9443 120.351 90.9747M120.422 84.4009C122.758 84.3831 125.072 84.8568 127.221 85.7928C129.371 86.7287 131.312 88.107 132.922 89.8426C134.626 91.5617 135.97 93.62 136.872 95.8913C137.773 98.1627 138.213 100.599 138.164 103.051C138.217 105.469 137.788 107.872 136.905 110.113C136.022 112.355 134.704 114.388 133.029 116.089C131.406 117.819 129.453 119.188 127.293 120.109C125.132 121.031 122.809 121.486 120.47 121.446C118.073 121.509 115.691 121.052 113.478 120.106C111.264 119.16 109.27 117.746 107.626 115.955C105.975 114.237 104.672 112.201 103.793 109.963C102.913 107.725 102.475 105.33 102.502 102.917C102.47 99.6551 103.289 96.4435 104.874 93.6164C106.438 90.8164 108.702 88.4963 111.433 86.8965C114.159 85.274 117.259 84.4331 120.41 84.4617" fill="white"/>
<path d="M144.391 85.3145H150.664L165.358 108.518V85.3145H171.893V120.558H165.607L150.937 97.4395V120.558H144.391V85.3145Z" fill="white"/>
<path d="M193.561 94.6639L188.959 106.765H198.15L193.561 94.6639ZM190.216 85.3145H196.846L210.045 120.618H203.25L200.57 113.314H186.551L183.765 120.618H176.969L190.216 85.3145Z" fill="white"/>
<path d="M215.109 85.3145H221.644V114.166H231.179V120.558H215.109V85.3145Z" fill="white"/>
<path d="M281.167 91.0712L276.566 95.7338C275.291 94.2496 273.723 93.0601 271.967 92.2438C270.211 91.4275 268.306 91.0029 266.378 90.9982C264.81 90.9542 263.249 91.2368 261.789 91.8289C260.33 92.4211 259.002 93.3104 257.887 94.4433C256.782 95.5222 255.906 96.8247 255.316 98.2684C254.726 99.7121 254.435 101.266 254.459 102.831C254.432 104.449 254.734 106.054 255.347 107.545C255.959 109.036 256.869 110.378 258.017 111.487C259.173 112.649 260.544 113.561 262.05 114.17C263.555 114.778 265.164 115.07 266.781 115.029C268.782 115.096 270.761 114.591 272.498 113.568C274.163 112.46 275.468 110.866 276.245 108.991H266.343V102.697H283.622V104.17C283.61 107.261 282.791 110.292 281.25 112.948C279.827 115.575 277.737 117.759 275.202 119.266C272.54 120.772 269.536 121.524 266.497 121.445C263.184 121.478 259.917 120.64 257.009 119.01C254.226 117.424 251.93 115.071 250.38 112.217C248.764 109.319 247.922 106.036 247.937 102.697C247.878 98.199 249.49 93.8467 252.443 90.5234C254.189 88.5156 256.346 86.9288 258.759 85.8765C261.172 84.8242 263.782 84.3325 266.402 84.4365C269.277 84.4168 272.125 84.9966 274.775 86.1408C277.237 87.3033 279.432 88.9878 281.215 91.0834" fill="white"/>
<path d="M305.812 90.9986C304.319 90.9655 302.836 91.2503 301.456 91.8348C300.077 92.4194 298.83 93.2912 297.795 94.3951C296.717 95.5414 295.875 96.8984 295.319 98.3853C294.763 99.8723 294.504 101.459 294.557 103.051C294.485 104.813 294.817 106.568 295.525 108.174C296.234 109.781 297.299 111.195 298.637 112.303C300.686 114.044 303.27 114.984 305.93 114.957C307.412 114.977 308.882 114.679 310.246 114.084C311.61 113.489 312.838 112.609 313.852 111.499C314.928 110.378 315.773 109.045 316.335 107.581C316.898 106.117 317.167 104.551 317.126 102.978C317.159 101.403 316.884 99.8378 316.318 98.3742C315.751 96.9105 314.905 95.5782 313.829 94.456C312.806 93.33 311.563 92.438 310.182 91.838C308.8 91.2381 307.311 90.9438 305.812 90.9743M305.883 84.4004C308.222 84.3745 310.542 84.842 312.698 85.7738C314.855 86.7057 316.801 88.0821 318.418 89.8178C320.122 91.5369 321.466 93.5952 322.368 95.8665C323.269 98.1379 323.709 100.574 323.66 103.026C323.711 105.45 323.279 107.86 322.39 110.106C321.501 112.352 320.173 114.388 318.489 116.089C316.866 117.819 314.914 119.187 312.753 120.109C310.592 121.03 308.27 121.485 305.93 121.445C303.534 121.509 301.151 121.053 298.938 120.107C296.724 119.161 294.73 117.746 293.086 115.955C291.435 114.237 290.133 112.2 289.253 109.962C288.374 107.724 287.935 105.33 287.963 102.917C287.93 99.6547 288.749 96.4431 290.335 93.616C291.898 90.8159 294.163 88.4959 296.893 86.8961C299.619 85.2736 302.72 84.4327 305.871 84.4613" fill="white"/>
<path d="M327.23 85.3145H333.942L342.588 110.356L351.352 85.3145H358.077L345.695 120.558H339.386L327.23 85.3145Z" fill="white"/>
<path d="M359.927 85.3145H378.902V91.9248H372.652V120.558H366.023V91.9248H359.927V85.3145Z" fill="white"/>
<path d="M383.409 85.3145H402.159V91.8761H389.908V98.2552H402.159V104.695H389.908V113.972H402.159V120.558H383.409V85.3145Z" fill="white"/>
<path d="M439.801 91.5104L435.235 95.9781C433.929 94.4272 432.32 93.1758 430.511 92.3054C428.703 91.435 426.736 90.965 424.74 90.926C423.2 90.8866 421.668 91.1721 420.241 91.7647C418.813 92.3573 417.518 93.2444 416.438 94.3712C415.341 95.4814 414.476 96.8099 413.897 98.2753C413.318 99.7406 413.036 101.312 413.07 102.893C413.023 105.077 413.538 107.236 414.564 109.15C415.539 110.965 417 112.456 418.774 113.448C420.634 114.494 422.725 115.031 424.846 115.006C426.634 115.029 428.406 114.655 430.041 113.91C431.978 112.909 433.732 111.57 435.223 109.954L439.659 114.689C437.596 116.89 435.156 118.681 432.46 119.973C430.011 120.999 427.385 121.505 424.74 121.458C422.335 121.54 419.939 121.121 417.696 120.225C415.454 119.33 413.412 117.976 411.694 116.248C409.996 114.493 408.668 112.399 407.79 110.095C406.913 107.792 406.506 105.328 406.594 102.856C406.553 99.5701 407.372 96.3326 408.966 93.4825C410.562 90.7093 412.862 88.433 415.619 86.8965C418.473 85.2699 421.689 84.431 424.953 84.4618C427.778 84.4637 430.569 85.0907 433.136 86.3C435.74 87.5199 438.051 89.3109 439.908 91.5469" fill="white"/>
<path d="M463.603 85.3145V98.6082H452.135V85.3145H445.506V120.558H452.135V105.109H463.603V120.558H470.209V85.3145H463.603Z" fill="white"/>
<path d="M6.53465 157.991H8.61008C9.76012 158.051 10.9122 157.928 12.0256 157.626C12.6382 157.396 13.1622 156.969 13.52 156.409C13.9014 155.818 14.096 155.121 14.0773 154.412C14.1152 153.817 13.9911 153.223 13.7188 152.697C13.4465 152.17 13.0368 151.731 12.5356 151.43C11.226 150.846 9.79594 150.603 8.37287 150.724H6.53465V157.991ZM0 144.211H6.93791C9.67791 144.064 12.4213 144.423 15.038 145.27C16.6718 145.964 18.047 147.175 18.9635 148.727C19.9584 150.457 20.456 152.441 20.3985 154.449C20.4692 156.638 19.8079 158.786 18.5247 160.536C17.2179 162.202 15.4272 163.396 13.4132 163.944C11.1492 164.403 8.8405 164.587 6.53465 164.492V179.417H0V144.211Z" fill="white"/>
<path d="M42.9436 149.896C41.4512 149.863 39.9683 150.148 38.5884 150.732C37.2086 151.317 35.9617 152.189 34.9265 153.293C33.8463 154.435 33.0017 155.789 32.4434 157.274C31.885 158.759 31.6243 160.345 31.6769 161.936C31.6058 163.701 31.9389 165.459 32.6495 167.067C33.3601 168.676 34.4284 170.092 35.7685 171.2C37.8131 172.942 40.3934 173.882 43.0503 173.854C44.5322 173.874 46.002 173.577 47.366 172.982C48.73 172.386 49.9582 171.506 50.9725 170.397C52.0507 169.277 52.8967 167.945 53.4592 166.48C54.0218 165.015 54.2894 163.449 54.2457 161.875C54.281 160.301 54.0085 158.736 53.4442 157.273C52.8799 155.809 52.0355 154.476 50.9607 153.353C49.934 152.232 48.6906 151.343 47.3101 150.744C45.9296 150.144 44.4423 149.847 42.9436 149.872M43.0147 143.298C45.3523 143.273 47.6699 143.741 49.8241 144.673C51.9784 145.604 53.9233 146.98 55.5384 148.715C57.2416 150.432 58.5851 152.489 59.4865 154.758C60.3879 157.027 60.8281 159.461 60.7804 161.912C60.8301 164.334 60.3984 166.742 59.5114 168.988C58.6244 171.234 57.3008 173.271 55.6215 174.974C53.9951 176.702 52.0399 178.068 49.8772 178.988C47.7145 179.907 45.3907 180.36 43.0503 180.318C40.6547 180.382 38.2729 179.927 36.0599 178.983C33.847 178.039 31.8525 176.628 30.2064 174.84C28.5576 173.121 27.257 171.084 26.3797 168.846C25.5024 166.608 25.0657 164.214 25.0949 161.802C25.062 158.54 25.881 155.328 27.4668 152.501C29.0293 149.705 31.2888 147.385 34.0132 145.781C36.7434 144.158 39.848 143.317 43.0028 143.347" fill="white"/>
<path d="M66.9592 144.198H73.4939V173.062H83.0171V179.454H66.9592V144.198Z" fill="white"/>
<path d="M94.0111 144.211H87.5239V179.454H94.0111V144.211Z" fill="white"/>
<path d="M132.922 150.407L128.356 154.875C127.054 153.318 125.446 152.062 123.637 151.189C121.828 150.316 119.859 149.847 117.861 149.811C116.32 149.776 114.79 150.065 113.362 150.66C111.935 151.254 110.64 152.142 109.559 153.268C108.463 154.379 107.601 155.708 107.024 157.173C106.446 158.639 106.167 160.21 106.203 161.79C106.158 163.972 106.669 166.129 107.685 168.047C108.667 169.861 110.132 171.351 111.907 172.344C113.767 173.391 115.858 173.928 117.979 173.903C119.767 173.926 121.539 173.552 123.174 172.807C125.114 171.805 126.868 170.462 128.356 168.838L132.792 173.586C130.729 175.787 128.289 177.578 125.593 178.87C123.143 179.892 120.517 180.393 117.873 180.343C115.467 180.429 113.07 180.012 110.827 179.116C108.584 178.22 106.543 176.865 104.827 175.132C103.125 173.38 101.793 171.287 100.913 168.983C100.034 166.679 99.626 164.214 99.7155 161.741C99.6739 158.455 100.493 155.217 102.087 152.367C103.683 149.594 105.983 147.318 108.741 145.781C111.591 144.156 114.802 143.317 118.062 143.346C120.891 143.348 123.686 143.975 126.257 145.185C128.861 146.405 131.173 148.196 133.029 150.432" fill="white"/>
<path d="M136.208 144.198H143.228L149.633 156.883L156.013 144.198H162.939L152.894 164.2V179.454H146.312V164.2L136.208 144.198Z" fill="white"/>
<path d="M188.662 157.991H190.714C192.193 158.125 193.68 157.834 195.007 157.151C195.416 156.826 195.739 156.4 195.946 155.913C196.154 155.426 196.238 154.893 196.193 154.364C196.21 153.644 196.007 152.938 195.612 152.343C195.224 151.781 194.678 151.356 194.047 151.125C192.887 150.809 191.687 150.682 190.489 150.748H188.662V157.991ZM182.128 144.211H189.054C191.793 144.052 194.538 144.407 197.154 145.258C198.774 145.958 200.137 147.169 201.044 148.715C202.046 150.447 202.552 152.435 202.502 154.449C202.574 156.512 202.005 158.546 200.878 160.256C199.645 161.924 197.938 163.158 195.992 163.786L204.08 179.454H196.964L189.243 164.529H188.662V179.454H182.128V144.211Z" fill="white"/>
<path d="M225.558 149.896C224.065 149.862 222.582 150.146 221.202 150.73C219.822 151.315 218.575 152.187 217.54 153.293C216.46 154.435 215.616 155.789 215.057 157.274C214.499 158.759 214.238 160.345 214.291 161.936C214.22 163.701 214.553 165.459 215.263 167.068C215.974 168.676 217.042 170.092 218.383 171.2C220.427 172.942 223.007 173.882 225.664 173.854C227.146 173.874 228.616 173.577 229.98 172.982C231.344 172.386 232.572 171.506 233.587 170.397C234.662 169.275 235.507 167.943 236.069 166.478C236.632 165.014 236.901 163.448 236.86 161.875C236.893 160.301 236.618 158.735 236.052 157.272C235.486 155.808 234.639 154.476 233.563 153.353C232.541 152.229 231.3 151.338 229.921 150.738C228.542 150.138 227.055 149.843 225.558 149.872M225.558 143.298C227.897 143.272 230.217 143.739 232.373 144.671C234.529 145.603 236.476 146.98 238.093 148.715C239.796 150.432 241.14 152.489 242.041 154.758C242.943 157.027 243.383 159.462 243.335 161.912C243.385 164.336 242.953 166.745 242.064 168.991C241.174 171.237 239.847 173.273 238.164 174.974C236.54 176.702 234.587 178.068 232.426 178.988C230.266 179.907 227.944 180.36 225.605 180.318C223.209 180.382 220.828 179.927 218.615 178.983C216.402 178.039 214.407 176.628 212.761 174.84C211.11 173.122 209.807 171.085 208.928 168.848C208.049 166.61 207.61 164.215 207.638 161.802C207.6 158.539 208.419 155.327 210.01 152.501C211.568 149.702 213.829 147.381 216.556 145.781C219.282 144.159 222.383 143.318 225.534 143.347" fill="white"/>
<path d="M249.324 144.211H255.894V167C255.818 168.411 255.987 169.825 256.392 171.176C256.728 171.991 257.31 172.674 258.053 173.124C258.897 173.631 259.862 173.884 260.84 173.854C261.888 173.885 262.923 173.602 263.817 173.038C264.599 172.561 265.207 171.834 265.548 170.969C265.945 169.405 266.105 167.787 266.022 166.172V144.26H272.581V165.272C272.681 167.75 272.486 170.231 272 172.661C271.544 174.137 270.784 175.495 269.77 176.642C268.726 177.865 267.429 178.834 265.975 179.478C264.386 180.121 262.69 180.436 260.982 180.404C258.693 180.455 256.437 179.843 254.471 178.638C252.761 177.6 251.388 176.067 250.522 174.232C249.727 172.466 249.336 169.472 249.336 165.272L249.324 144.211Z" fill="white"/>
<path d="M280.195 144.198H286.469L301.163 167.401V144.198H307.697V179.454H301.412L286.729 156.336V179.454H280.195V144.198Z" fill="white"/>
<path d="M322.059 150.687V172.917H325.048C327.262 173.054 329.48 172.697 331.547 171.87C332.984 171.069 334.142 169.826 334.856 168.315C335.754 166.422 336.194 164.333 336.136 162.228C336.232 160.638 336.01 159.044 335.484 157.545C334.958 156.046 334.139 154.674 333.077 153.512C331.25 151.649 328.333 150.736 324.229 150.736L322.059 150.687ZM315.56 144.211H323.304C328.301 144.211 332.009 144.844 334.429 146.11C336.985 147.516 339.075 149.674 340.43 152.307C342.055 155.378 342.872 158.831 342.802 162.326C342.829 164.884 342.383 167.425 341.485 169.812C340.694 171.956 339.451 173.893 337.844 175.485C336.426 176.904 334.71 177.97 332.828 178.602C329.75 179.305 326.597 179.591 323.447 179.454H315.56V144.211Z" fill="white"/>
<path d="M345.636 144.198H364.611V150.821H358.361V179.454H351.732V150.821H345.636V144.198Z" fill="white"/>
<path d="M382.923 153.548L378.309 165.722H387.5L382.923 153.548ZM379.602 144.211H386.232L399.443 179.515H392.648L389.967 172.211H375.949L373.15 179.515H366.367L379.602 144.211Z" fill="white"/>
<path d="M410.994 164.03V173.063H412.631C415.347 173.063 417.173 172.71 418.134 172.004C418.599 171.654 418.972 171.19 419.219 170.654C419.465 170.118 419.578 169.528 419.545 168.936C419.578 168.233 419.443 167.533 419.151 166.897C418.86 166.26 418.421 165.706 417.873 165.284C416.774 164.407 414.936 163.969 412.358 163.969L410.994 164.03ZM410.994 150.639V158.065H412.429C413.698 158.172 414.962 157.804 415.987 157.03C416.377 156.685 416.686 156.254 416.891 155.769C417.097 155.284 417.193 154.758 417.173 154.23C417.195 153.735 417.107 153.241 416.916 152.785C416.725 152.33 416.436 151.924 416.07 151.601C415.097 150.882 413.908 150.542 412.714 150.639H410.994ZM404.507 179.466V144.162H409.903C412.212 144.079 414.522 144.288 416.782 144.783C418.701 145.256 420.422 146.349 421.692 147.9C422.902 149.41 423.549 151.313 423.518 153.268C423.53 154.536 423.246 155.789 422.688 156.92C422.024 158.143 421.1 159.196 419.984 160C421.82 160.801 423.404 162.107 424.562 163.774C425.554 165.371 426.058 167.237 426.009 169.131C426.027 171.046 425.508 172.927 424.514 174.548C423.589 176.113 422.253 177.379 420.66 178.2C418.603 179.105 416.373 179.521 414.137 179.418L404.507 179.466Z" fill="white"/>
<path d="M432.199 144.198H438.734V173.062H448.269V179.454H432.199V144.198Z" fill="white"/>
<path d="M453.262 144.198V179.454H472V172.868H459.749V163.591H472V157.151H459.749V150.772H472V144.198H453.262Z" fill="white"/>
<path d="M467.719 13.8779H0V35.2308H467.719V13.8779Z" fill="#046433"/>
<path d="M46.3117 0H20.3154V58.7142H46.3117V0Z" fill="#1BB24B"/>
<path d="M103.06 0H77.0637V58.7142H103.06V0Z" fill="#1BB24B"/>
<path d="M159.82 0H133.812V58.7142H159.82V0Z" fill="#1BB24B"/>
<path d="M216.568 0H190.572V58.7142H216.568V0Z" fill="#1BB24B"/>
<path d="M273.316 0H247.32V58.7142H273.316V0Z" fill="#1BB24B"/>
<path d="M330.076 0H304.08V58.7142H330.076V0Z" fill="#1BB24B"/>
<path d="M386.836 0H360.84V58.7142H386.836V0Z" fill="#1BB24B"/>
<path d="M443.584 0H417.588V58.7142H443.584V0Z" fill="#1BB24B"/>
<path d="M9.4757 222.001H1.17398C1.39932 217.132 2.89362 213.188 5.69249 210.363C7.11495 208.945 8.80244 207.838 10.6532 207.108C12.5039 206.378 14.4796 206.04 16.461 206.115C18.9392 206.072 21.3876 206.675 23.5768 207.868C25.653 209.054 27.3688 210.806 28.5341 212.932C29.7413 214.929 30.4123 217.218 30.4791 219.567C30.3952 222.628 29.624 225.627 28.2257 228.332C26.004 232.427 23.2067 236.164 19.924 239.422L14.9193 244.84H30.7993V252.886H-0.0356445V248.784L13.7333 234.358C16.2968 231.889 18.5336 229.085 20.3865 226.019C21.3795 224.281 21.9453 222.322 22.035 220.309C22.0692 219.497 21.9369 218.686 21.6468 217.929C21.3568 217.172 20.9153 216.486 20.351 215.915C19.7695 215.336 19.0798 214.885 18.3236 214.588C17.5673 214.29 16.7602 214.154 15.9511 214.186C15.0914 214.169 14.2387 214.346 13.4536 214.706C12.6684 215.066 11.9702 215.599 11.4088 216.268C10.1125 217.877 9.42605 219.914 9.4757 222.001Z" fill="#1BB24B"/>
<path d="M50.8066 214.32C49.4152 214.307 48.0665 214.813 47.0115 215.744C45.6923 217.057 44.8051 218.759 44.4735 220.614C43.7923 223.934 43.4977 227.326 43.5959 230.718C43.5959 236.488 44.2601 240.457 45.6002 242.697C46.0939 243.681 46.8395 244.508 47.7569 245.089C48.6742 245.67 49.7286 245.984 50.8066 245.996C51.826 245.995 52.8248 245.702 53.6903 245.149C54.5558 244.596 55.2535 243.806 55.7046 242.867C57.1752 240.335 57.9144 236.107 57.9224 230.182C57.9224 224.181 57.2582 220.029 55.9418 217.753C55.4699 216.757 54.7424 215.912 53.8375 215.31C52.9326 214.707 51.8847 214.369 50.8066 214.332M50.6168 206.066C53.596 205.978 56.5303 206.827 59.0253 208.501C61.5461 210.368 63.4465 212.986 64.4689 216C65.7497 219.376 66.3901 224.063 66.3901 230.061C66.3901 236.058 65.7418 240.786 64.4451 244.243C63.4413 247.2 61.6096 249.788 59.1795 251.681C56.7276 253.362 53.8247 254.214 50.8778 254.116C47.8832 254.208 44.9328 253.359 42.4219 251.681C39.9646 249.851 38.0975 247.307 37.0613 244.377C35.7805 241.131 35.1361 236.501 35.1282 230.487C35.1282 222.103 36.3892 216.016 38.9114 212.226C40.181 210.245 41.9256 208.632 43.9776 207.543C46.0295 206.453 48.3199 205.924 50.6287 206.005" fill="#1BB24B"/>
<path d="M78.9257 222.001H70.624C70.8533 217.067 72.3634 213.188 75.1544 210.363C76.5746 208.946 78.26 207.838 80.1088 207.108C81.9576 206.378 83.9314 206.04 85.911 206.115C88.3894 206.07 90.8381 206.673 93.0268 207.868C95.104 209.056 96.823 210.808 97.9959 212.932C99.2001 214.93 99.8709 217.218 99.9409 219.567C99.8511 222.627 99.0803 225.625 97.6876 228.332C95.4618 232.424 92.665 236.161 89.3859 239.422L84.3812 244.839H100.309V252.886H69.4736V248.784L83.2307 234.333C85.7878 231.862 88.0204 229.058 89.8722 225.994C90.8705 224.259 91.4367 222.298 91.5207 220.285C91.5462 219.475 91.4075 218.668 91.1136 217.916C90.8196 217.163 90.3767 216.482 89.8129 215.915C89.2314 215.336 88.5417 214.885 87.7854 214.587C87.0292 214.29 86.2221 214.154 85.4129 214.186C84.5514 214.168 83.6966 214.345 82.9094 214.705C82.1222 215.065 81.4221 215.598 80.8588 216.268C79.5625 217.877 78.876 219.913 78.9257 222.001Z" fill="#1BB24B"/>
<path d="M119.77 233.53C119.026 233.515 118.288 233.663 117.604 233.966C116.921 234.268 116.309 234.717 115.809 235.283C114.731 236.474 114.151 238.052 114.196 239.678C114.176 240.496 114.315 241.31 114.604 242.073C114.893 242.835 115.327 243.532 115.88 244.121C116.372 244.688 116.975 245.143 117.649 245.455C118.323 245.768 119.054 245.931 119.794 245.935C120.555 245.942 121.309 245.788 122.009 245.482C122.708 245.176 123.339 244.725 123.862 244.158C124.424 243.567 124.863 242.866 125.152 242.095C125.442 241.325 125.576 240.503 125.546 239.678C125.569 238.87 125.435 238.065 125.152 237.31C124.869 236.556 124.443 235.866 123.897 235.283C123.367 234.71 122.726 234.258 122.015 233.956C121.304 233.654 120.539 233.509 119.77 233.53ZM120.826 206.054L128.048 209.706L120.256 225.288C122.056 225.26 123.842 225.617 125.5 226.335C127.158 227.054 128.652 228.12 129.886 229.464C131.187 230.827 132.208 232.444 132.889 234.219C133.569 235.994 133.895 237.892 133.848 239.799C133.882 241.684 133.539 243.555 132.839 245.298C132.139 247.04 131.098 248.616 129.78 249.928C128.499 251.265 126.967 252.321 125.277 253.033C123.587 253.744 121.774 254.096 119.948 254.067C118.075 254.115 116.214 253.757 114.485 253.016C112.757 252.276 111.199 251.17 109.915 249.77C108.643 248.479 107.633 246.941 106.945 245.246C106.257 243.552 105.904 241.733 105.906 239.897C105.908 238.457 106.116 237.026 106.523 235.648C107.299 233.373 108.255 231.166 109.381 229.05L120.826 206.054Z" fill="#1BB24B"/>
</g>
<defs>
<clipPath id="clip0_2968_18184">
<rect width="472" height="254.067" fill="white"/>
</clipPath>
</defs>
</svg>
