<svg width="676" height="353" viewBox="0 0 676 353" fill="none" xmlns="http://www.w3.org/2000/svg">
<g clip-path="url(#clip0_853_116112)">
<path d="M426.881 346.36C423.039 341.147 398.885 316.721 390.377 308.761C383.924 302.724 375.282 290.923 365.403 281.046C355.524 271.167 346.193 271.715 346.193 271.715C342.116 264.708 329.168 243.235 325.846 242.681L262.449 281.258C262.449 281.258 275.241 305.854 282.716 311.758C282.716 311.758 280.749 322.385 284.292 328.879C287.836 335.373 294.525 349.931 294.525 349.931L426.879 346.362L426.881 346.36Z" fill="white"/>
<path d="M306.338 223.952C304.083 219.472 302.895 210.735 302.106 196.341C301.407 183.558 297.834 160.4 296.817 157.763C295.801 155.122 294.381 148.02 294.176 142.944C293.973 137.871 293.363 131.577 292.755 129.141C292.147 126.705 291.131 119.803 291.131 117.365C291.131 114.928 290.301 106.603 289.303 102.749C288.348 99.0586 288.695 93.4114 288.087 88.5382C287.641 84.9611 286.974 80.0729 286.653 77.7268C286.509 76.6842 285.916 75.7517 285.028 75.1848C282.054 73.2825 276.515 72.1448 274.489 80.4198C273.473 84.5788 272.986 88.0626 272.796 91.0858C272.539 88.9056 271.914 84.6553 271.354 82.4154C268.753 72.0143 269.769 57.8328 261.694 58.9518C258.572 59.3845 257.255 61.339 256.522 63.4166C256.132 59.9309 254.717 51.1524 252.982 49.1699C252.053 48.1087 249.366 46.7379 246.363 48.0509C245.44 48.4537 242.318 49.0599 241.003 55.0129C240.518 57.2043 240.06 59.9328 239.938 62.7546C239.97 62.749 240.002 62.7415 239.938 62.7546C239.871 62.7676 239.905 62.762 239.938 62.7546C239.258 56.3725 238.389 52.29 232.133 53.7317C228.549 54.5579 227.396 57.3088 226.324 60.248C224.621 64.9105 223.967 71.3205 224.269 75.7182C224.698 81.9622 226.509 92.3204 226.509 92.3204C226.509 95.5506 225.046 101.931 225.692 110.76C226.337 119.589 228.142 121.799 227.928 126.101C226.462 155.434 228.581 143.071 226.993 158.369C223.534 151.68 219.914 141.569 220.606 139.667C221.467 137.299 221.037 128.686 217.806 121.364C214.576 114.042 209.194 109.521 203.379 111.459C197.564 113.397 201.441 121.364 202.303 127.608C203.164 133.852 204.24 139.882 203.81 145.48C203.379 151.079 205.317 156.461 207.685 162.06C210.054 167.659 210.915 173.258 212.639 180.578C214.362 187.898 219.959 201.464 221.898 207.71C223.836 213.954 228.573 224.72 228.573 224.72C234.603 240.87 250.233 252.688 258.504 258.527C266.343 264.063 272.598 276.002 275.769 280.82C294.909 275.999 311.728 266.763 323.688 252.177C323.688 252.177 312.317 235.832 306.338 223.952Z" fill="white"/>
<path d="M253.506 192.874C249.479 185.084 235.447 171.402 235.305 171.266C234.803 170.786 235.534 170.014 236.042 170.507C236.626 171.072 250.384 184.429 254.447 192.391C254.764 193.012 253.825 193.493 253.506 192.874Z" fill="black"/>
<path d="M282.558 247.936C276.288 247.585 271.31 245.349 267.769 241.295C259.95 232.346 261.152 217.132 261.603 211.406C262.243 203.288 267.586 175.665 267.64 175.389C267.774 174.697 268.811 174.908 268.679 175.589C268.625 175.865 263.294 203.429 262.657 211.488C262.213 217.094 261.041 231.981 268.565 240.595C271.913 244.428 276.64 246.554 282.618 246.876C283.267 246.912 283.321 247.934 282.558 247.934V247.936Z" fill="black"/>
<path d="M280.194 159.428C278.586 158.249 272.363 157.927 267.372 157.649C259.655 157.22 261.361 156.987 252.983 157.218C241.987 157.522 246.273 156.164 234.171 157.973C233.466 158.08 233.311 157.043 233.994 156.927C234.326 156.871 242.168 155.549 245.637 156.069C247.269 156.315 250.031 156.237 252.953 156.157C261.484 155.92 259.783 156.168 267.43 156.588C269.903 156.724 282.367 157.263 280.931 159.299C280.755 159.549 280.408 159.585 280.194 159.428Z" fill="black"/>
<path d="M267.477 164.325C266.743 164.325 256.524 161.803 251.446 162.435C247.343 162.946 240.03 162.79 239.721 162.782C239.017 162.766 239.047 161.706 239.743 161.725C239.819 161.727 247.287 161.889 251.313 161.385C255.638 160.843 263.374 162.329 267.595 163.278C268.212 163.416 268.102 164.325 267.477 164.325Z" fill="black"/>
<path d="M323.78 251.177C323.651 250.978 310.962 231.028 307.558 225.021C304.106 218.935 303.349 208.411 302.77 196.296C302.17 183.649 298.539 160.352 297.448 157.515C296.431 154.874 295.046 147.772 294.852 142.914C294.663 138.128 294.07 131.605 293.412 128.971C292.8 126.536 291.806 119.656 291.806 117.363C291.806 114.851 290.952 106.42 289.96 102.578C289.419 100.493 289.307 97.7306 289.189 94.8063C288.982 89.5358 288.912 89.1721 287.323 77.6334C287.149 76.3913 286.446 75.2872 285.389 74.6121C283.098 73.1462 280.53 72.7527 278.516 73.5583C276.269 74.4573 274.689 76.7083 273.82 80.2556C273.313 82.3313 272.934 84.2448 272.656 86.024C272.076 81.3559 271.849 83.081 270.515 73.8288C270.088 70.8783 269.646 67.8253 268.921 64.8488C267.783 60.1826 265.112 57.7842 261.601 58.2765C259.157 58.616 257.708 59.8282 256.787 61.2904C256.324 57.786 255.205 50.6729 253.489 48.7128C252.38 47.4465 249.39 45.9787 246.085 47.4204C246.005 47.4539 245.916 47.4875 245.806 47.5304C241.408 49.1809 240.326 53.5525 239.776 58.3082C239.493 56.8815 239.142 55.7401 238.659 55.0128C236.649 51.9822 233.254 52.7729 231.973 53.0676C227.866 54.015 226.654 57.3403 225.675 60.011C223.836 65.039 223.299 71.6989 223.579 75.7609C223.991 81.7252 225.671 91.5183 225.818 92.3743C225.802 96.5333 223.271 106.433 226.512 120.502C226.992 122.58 227.337 124.079 227.238 126.064C226.755 135.741 227.447 149.524 227.672 151.79C227.81 153.192 227.24 155.445 226.887 156.67C223.685 150.113 220.692 141.398 221.238 139.895C222.225 137.183 221.605 128.298 218.424 121.086C214.778 112.824 208.927 108.887 203.159 110.81C196.641 112.986 200.764 121.427 201.622 127.699C202.416 133.526 203.56 139.775 203.125 145.428C202.668 151.374 204.819 157.036 207.055 162.325C208.823 166.506 209.755 170.753 210.833 175.671C212.273 182.288 212.422 183.608 217.879 198.42C222.351 210.565 222.348 212.292 227.935 224.974C233.553 240.008 246.792 250.222 258.074 259.061C265.845 265.15 274.613 280.454 274.7 280.609C275.133 281.379 276.345 280.726 275.894 279.936C275.532 279.301 266.906 264.247 258.928 257.992C231.175 236.218 231.412 231.14 219.168 197.95C213.578 182.797 213.521 181.564 212.172 175.378C211.081 170.395 210.136 166.088 208.319 161.793C206.146 156.655 204.061 151.17 204.496 145.531C204.94 139.773 203.817 133.591 202.982 127.511C202.073 120.942 198.492 113.799 203.597 112.099C209.627 110.088 214.571 115.705 217.185 121.632C220.332 128.764 220.777 137.207 219.97 139.428C219.306 141.249 221.594 147.558 222.611 150.187C224.213 154.339 226.706 159.857 228.883 162.881C229.407 163.608 230.513 162.819 229.985 162.088C229.282 161.113 228.532 159.841 227.775 158.408C228.135 157.045 229.239 153.809 229.024 151.657C228.802 149.41 228.118 135.745 228.597 126.135C228.627 125.528 228.612 124.965 228.575 124.419C230.662 125.133 234.388 126.135 236.481 125.417C237.135 125.193 236.8 124.188 236.134 124.419C234.194 125.092 229.959 123.815 228.452 123.255C228.31 122.267 228.09 121.291 227.838 120.2C224.612 106.172 227.118 97.201 227.176 92.4788C229.112 93.2061 232.044 92.5515 234.181 91.9808C234.856 91.7999 234.586 90.7798 233.909 90.9607C228.778 92.3296 227.361 91.5724 227.003 91.2218C226.546 88.5045 225.283 80.6976 224.936 75.6695C224.668 71.7493 225.183 65.3225 226.954 60.4791C228.092 57.3739 229.138 55.1191 232.281 54.3936C237.857 53.1105 238.353 56.5533 239.006 62.3739C239.774 69.2054 239.151 74.1682 240.216 82.0124C240.781 86.1956 242.639 91.3281 242.639 91.7552C242.615 96.509 242.145 109.721 243.176 114.881C243.937 118.678 244.468 118.65 243.872 121.923C242.486 129.54 243.471 150.04 243.514 150.909C243.53 151.273 243.834 151.555 244.192 151.555L244.23 151.547C244.603 151.528 244.896 151.208 244.875 150.833C244.864 150.622 243.855 129.622 245.213 122.157C245.453 120.832 245.574 120.135 245.584 119.583C246.904 120.275 248.391 120.403 249.881 120.127C250.565 120.001 250.377 118.962 249.689 119.089C247.014 119.592 245.563 118.356 245.371 118.182C243.64 111.701 243.831 109.765 243.998 92.2512C245.584 92.9245 247.318 92.8686 248.959 92.3687C249.636 92.158 249.312 91.1509 248.65 91.356C246.151 92.1207 244.523 91.3989 243.89 91.0166C243.86 90.8301 242.076 85.5466 241.568 81.8203C241.082 78.2432 239.91 63.1013 241.667 55.1471C242.777 50.1078 245.151 49.2238 246.287 48.7967C246.423 48.7482 246.539 48.7016 246.634 48.6606C249.372 47.467 251.749 48.7818 252.471 49.6043C253.963 51.3089 255.274 59.3359 255.711 63.7279C255.341 64.9085 255.153 65.9249 254.931 66.7474C253.325 72.7769 253.661 80.7666 254.277 84.6682C255.05 89.56 256.229 93.8477 256.461 94.6646C255.81 99.8008 255.418 119.001 258.727 123.138C259.883 124.585 257.99 123.318 258.663 150.933C258.671 151.303 258.973 151.601 259.342 151.597C259.717 151.594 260.034 151.269 260.026 150.894C260.023 150.702 259.611 131.689 260.31 126.366C260.448 125.32 260.498 124.6 260.47 124.055C262.58 124.706 265.763 124.339 267.906 123.865C268.594 123.71 268.361 122.684 267.679 122.83C264.364 123.555 261.382 123.492 260.116 122.748C260.023 122.591 259.918 122.44 259.792 122.281C256.845 118.568 257.194 100.004 257.798 94.976C259.724 95.8768 262.365 95.3546 264.264 94.3867C264.883 94.0733 264.411 93.1278 263.784 93.4467C261.145 94.7914 258.432 94.5732 257.561 93.5083C257.134 91.9118 256.248 88.3832 255.625 84.4444C255.028 80.6547 254.7 72.9075 256.248 67.0868C257.153 63.6328 257.522 60.2105 261.793 59.6156C269.092 58.6048 268.111 72.2267 270.704 82.5719C271.864 87.2325 272.007 97.9078 272.865 103.296C273.723 108.652 273.385 107.923 273.024 111.5C272.41 117.584 275.196 127.595 274.428 131.23C273.611 135.105 273.419 152.267 273.412 152.996C273.408 153.369 273.71 153.681 274.083 153.684C274.445 153.677 274.767 153.386 274.771 153.013C274.775 152.836 274.971 135.258 275.761 131.511C275.903 130.838 275.939 130.01 275.913 129.079C277.561 129.62 279.863 130.118 281.569 129.769C282.254 129.635 282.052 128.594 281.362 128.731C279.395 129.126 276.603 128.21 275.853 127.944C275.5 123.279 273.921 116.237 274.38 111.638C274.454 110.948 274.663 109.508 274.745 108.518C276.332 108.689 278.889 108.846 280.431 108.404C281.101 108.214 280.818 107.195 280.141 107.388C278.635 107.817 275.907 107.58 274.739 107.451C274.449 101.608 271.55 95.2763 275.15 80.5857C275.909 77.4879 277.212 75.5502 279.029 74.8247C281.412 73.8735 283.943 75.3003 284.665 75.7609C285.387 76.2216 285.866 76.9732 285.984 77.8236C287.584 89.4276 287.638 89.7465 287.843 94.8678C287.964 97.8668 288.082 100.696 288.654 102.921C289.626 106.671 290.46 114.933 290.46 117.367C290.46 119.801 291.469 126.767 292.103 129.305C292.666 131.549 293.292 137.681 293.505 142.972C293.705 148.033 295.111 155.212 296.187 158.007C297.105 160.402 300.803 183.465 301.418 196.365C302.004 208.657 302.782 219.351 306.377 225.698C309.8 231.735 322.508 251.714 322.636 251.914C323.105 252.656 324.261 251.94 323.778 251.174L323.78 251.177Z" fill="black"/>
<path d="M427.423 345.958C423.501 340.635 399.292 316.176 390.841 308.268C384.359 302.198 375.828 290.508 365.882 280.564C356.977 271.658 348.59 271.043 346.6 271.03C342.633 263.154 329.123 243.952 326.844 241.817C324.874 239.965 320.216 240.768 317.588 241.404C316.721 241.611 317.032 242.939 317.909 242.723C322.597 241.585 325.574 241.824 326.292 243.391C327.935 246.983 319.311 257.822 308.88 265.271C294.841 275.303 266.058 284.749 263.009 281.051C260.608 278.143 265.761 272.445 268.634 270.03C269.324 269.45 268.445 268.408 267.757 268.988C264.297 271.888 259.54 277.24 261.442 281.101C266.106 291.241 273.822 301.789 282.017 312.604C281.685 314.406 280.314 323.375 284.393 330.771C288.718 338.61 293.753 350.087 293.804 350.199C294.167 351.023 295.407 350.475 295.046 349.655C294.997 349.537 289.939 338.008 285.583 330.113C281.372 322.478 283.384 312.675 283.406 312.576C283.445 312.384 283.402 312.183 283.281 312.024C275.711 302.037 268.557 292.287 263.846 282.919C272.129 284.889 298.386 274.439 309.669 266.379C318.532 260.049 327.109 250.576 327.782 245.049C332.198 250.772 342.215 265.301 345.429 271.709C344.054 274.394 333.082 294.82 312.407 304.854C294.328 313.625 287.425 311.959 287.366 311.944C286.493 311.709 286.135 313.011 286.998 313.255C287.086 313.281 287.761 313.455 289.152 313.455C292.47 313.455 299.842 312.465 313 306.081C333.905 295.935 345.058 275.403 346.605 272.388C348.392 272.425 356.475 273.076 364.92 281.522C374.726 291.319 383.443 303.214 389.909 309.255C398.333 317.135 422.438 341.482 426.325 346.76C426.556 347.075 427 347.114 427.278 346.907C427.58 346.684 427.645 346.258 427.422 345.954L427.423 345.958Z" fill="black"/>
<path d="M268.333 269.318L275.703 280.7C259.202 286.318 257.997 277.845 268.333 269.318Z" fill="black"/>
<path d="M323.511 251.865L317.551 242.218C317.551 242.218 334.138 237.341 323.511 251.865Z" fill="black"/>
<path d="M239.481 285.5C239.705 284.98 239.629 284.377 239.25 283.956C221.204 263.874 197.508 248.62 170.463 246.943C169.602 246.891 168.777 247.286 168.287 247.997C164.887 252.885 151.804 274.161 147.772 281.602C134.995 283.02 127.13 297.19 123.204 302.274C114.12 314.033 112.609 313.509 84.125 350.995L210.227 349.953L212.573 346.044C214.919 342.135 222.736 332.757 222.736 325.724C222.736 324.219 221.909 322.451 220.524 320.521C225.082 314.262 236.335 292.83 239.481 285.504V285.5Z" fill="#81F889"/>
<path d="M175.988 247.486C175.988 247.486 181.564 238.975 179.166 234.446C179.166 234.446 175.917 226.544 172.068 217.745C168.218 208.946 165.468 206.193 162.899 196.661C160.331 187.131 157.323 181.57 154.464 177.044C150.063 170.078 148.047 168.977 146.765 159.076C145.482 149.175 145.299 148.076 142.731 142.024C140.484 136.728 140.713 134.507 143.83 133.223C148.457 131.317 155.93 133.956 159.412 140.189C162.896 146.422 164.546 151.741 166.745 157.608C168.944 163.476 173.896 168.243 176.827 170.441C178.717 150.374 179.196 140.374 180.725 135.777C181.967 132.045 181.967 119.299 182.282 114.633C182.596 109.969 185.082 100.799 185.546 98.6203C186.011 96.4438 187.723 86.9621 187.413 83.8532C187.103 80.7442 186.792 75.304 187.258 73.5938C187.724 71.8836 188.97 64.7313 189.28 62.5549C189.589 60.3784 189.589 56.9599 193.012 56.0274C196.43 55.0949 203.737 59.2911 203.896 66.9115C203.896 66.9115 204.519 61.9357 204.983 58.5172C205.448 55.0986 205.916 52.7636 208.247 51.5215C210.578 50.2795 221.927 50.7438 220.683 66.7567C220.683 66.7567 222.395 64.5803 224.101 64.2707C225.81 63.9611 231.252 63.3382 233.583 71.4211C235.914 79.5059 236.537 88.5231 236.537 88.5231C236.537 88.5231 237.002 83.2377 241.977 82.1504C246.953 81.0631 252.237 88.3683 251.772 99.7169C251.308 111.065 251.463 124.434 251.927 127.233C252.391 130.032 253.949 163.608 254.413 167.495C254.878 171.381 257.986 204.647 257.522 210.088C257.058 215.528 255.036 234.65 250.681 242.112C247.091 248.26 231.25 275.068 231.25 275.068C216.483 261.854 197.989 250.763 175.988 247.486Z" fill="white"/>
<path d="M257.861 203.203C257.453 190.971 254.907 165.521 254.881 165.264C253.988 156.374 254.864 152.395 252.546 126.233C252.113 121.297 252.706 114.415 252.46 105.465C252.296 99.3381 252.466 92.6968 250.28 87.6408C247.995 82.3517 245.252 81.5628 242.872 81.4826C240.099 81.3819 237.622 83.1406 236.777 85.746C236.253 77.8831 234.825 64.5409 227.022 63.448C224.522 63.0974 222.743 63.7203 221.6 65.3205C221.499 63.1925 221.16 60.3726 220.192 57.6385C218.107 51.7489 212.715 49.5351 208.711 50.8015C203.454 52.465 204.638 57.2189 203.927 64.2351C203.049 61.1429 201.298 57.6479 198.379 56.3349C193.795 54.2741 189.005 55.7083 188.802 60.5927C188.496 68.0154 186.43 71.5608 186.6 79.1942C186.846 90.7442 186.001 94.4592 184.054 102.253C182.179 109.749 181.486 115.327 181.652 121.504C181.788 126.483 180.926 130.922 179.93 136.058C176.696 152.862 178.477 152.987 176.68 169.447C165.682 160.654 167.612 153.447 160.014 139.85C156.26 133.126 148.337 130.625 143.578 132.585C139.303 134.348 140.28 137.975 142.108 142.283C144.624 148.214 144.816 149.3 146.094 159.154C147.151 167.325 148.742 169.682 151.631 173.962C156.297 180.907 159.413 186.325 162.243 196.829C164.839 206.477 167.593 209.211 171.441 218.01C176.892 230.464 178.405 234.493 178.561 234.756C180.742 238.877 175.555 246.859 175.501 246.938C175.294 247.249 175.383 247.671 175.697 247.878C175.999 248.077 176.439 248.005 176.65 247.682C176.879 247.328 182.308 238.982 179.789 234.146C174.986 222.577 172.36 216.326 168.942 209.75C166.931 205.885 165.195 202.545 163.559 196.471C160.952 186.79 157.927 181.232 155.044 176.668C150.663 169.693 148.71 168.761 147.444 158.973C146.14 148.947 145.948 147.845 143.36 141.743C142.022 138.593 141.64 136.662 142.121 135.491C142.405 134.803 143.031 134.279 144.092 133.841C148.324 132.099 155.413 134.411 158.826 140.512C162.23 146.601 163.817 151.683 166.116 157.836C168.212 163.419 172.864 168.306 176.499 171.01C176.034 174.962 175.62 177.429 175.613 177.468C175.452 178.328 176.777 178.608 176.946 177.707C176.957 177.647 177.963 171.689 178.604 163.345C179.154 156.211 178.977 149.218 180.247 141.771C181.506 134.4 183.192 128.335 183.006 121.47C182.843 115.426 183.526 109.956 185.37 102.585C187.021 95.9885 187.773 92.9784 187.957 85.386C188.138 78.2244 187.601 77.6705 188.315 73.1964C189.037 68.6924 189.977 65.0892 190.16 60.6468C190.333 56.6669 194.276 55.9768 197.821 57.5714C201.316 59.1417 203.273 65.1526 203.409 68.5749C202.461 75.7477 202.689 74.4888 202.275 82.4505C201.542 96.4063 202.368 96.3988 199.641 107.186C198.33 112.371 198.981 119.516 199.252 123.177C199.61 128.026 198.338 132.231 197.967 137.751C197.609 143.166 196.335 152.28 196.324 152.371C196.199 153.242 197.536 153.475 197.668 152.56C200.117 132.237 198.959 139.281 200.003 131.991C200.434 129.01 200.839 126.196 200.608 123.08C200.249 118.262 199.882 113.281 200.958 107.512C201.117 106.912 203.176 99.0583 203.176 94.3436C203.176 91.216 203.416 86.5964 203.629 82.5195C204.03 75.0222 203.81 75.9118 204.675 69.3619C205.061 66.4152 205.46 63.3697 205.559 60.451C205.753 54.7012 206.217 53.0133 209.118 52.0939C213.375 50.7492 217.516 54.1603 218.905 58.0899C221.62 65.7476 219.414 70.4082 219.414 75.826C219.414 82.609 217.139 87.1447 217.937 98.303C218.183 101.736 217.708 103.909 216.438 109.711C215.14 115.655 215.746 119.543 215.746 124.051C215.746 130.515 215.391 135.323 214.662 138.76C213.407 144.661 213.638 151.34 213.649 151.623C213.687 152.543 215.028 152.427 215.009 151.567C214.752 138.71 217.669 138.449 217.038 120.761C216.924 117.46 216.82 114.344 217.771 109.995C219.071 104.053 219.558 101.832 219.297 98.2004C218.498 86.9974 220.774 82.7377 220.774 75.826C220.774 73.8846 221.076 69.5317 222.206 66.9561C222.781 65.645 223.778 64.3637 226.826 64.7908C235.563 66.0143 235.699 86.9769 235.379 95.7946C235.298 98.0382 235.228 99.9759 234.733 101.774C233.534 106.115 234.028 109.237 234.178 112.574C234.332 115.815 234.155 119.527 234.008 123.068C233.609 132.645 232.133 130.191 232.012 140.967C231.958 144.876 231.762 144.922 230.494 150.834C230.278 151.7 231.595 152.036 231.813 151.155C233.391 144.449 233.335 143.442 233.366 140.985C233.488 130.4 234.957 132.794 235.362 123.124C235.509 119.601 235.69 115.83 235.532 112.512C235.36 109.124 234.91 106.231 236.039 102.139C237.244 97.7845 236.115 92.6315 238.018 86.2663C238.64 84.1812 240.608 82.7713 242.818 82.844C246.097 82.9503 247.669 85.054 249.021 88.1817C251.02 92.7957 250.905 98.5212 251.091 105.502C251.328 114.057 250.748 121.438 251.183 126.354C253.516 152.882 252.624 156.448 253.521 165.404C253.544 165.661 256.086 191.066 256.494 203.252C256.914 215.816 254.918 233.597 249.547 242.948C244.055 252.514 230.96 275.069 230.828 275.297C230.64 275.621 230.75 276.037 231.074 276.226C231.395 276.408 231.82 276.3 232.007 275.972C232.139 275.745 245.231 253.185 250.729 243.62C256.233 234.039 258.285 215.953 257.857 203.2L257.861 203.203Z" fill="black"/>
<path d="M239.752 283.503C225.468 267.605 201.87 248.241 170.572 246.266C169.431 246.193 168.334 246.749 167.72 247.717C163.655 254.116 150.044 275.634 147.487 280.935C136.422 282.294 128.964 292.927 124.693 299.036C116.176 311.25 112.585 311.976 83.581 350.583C83.0271 351.301 84.1331 352.112 84.6608 351.404C84.8082 351.212 99.5715 331.789 105.487 324.591C111.248 317.587 119.396 308.317 123.74 302.692C128.445 296.636 137.403 279.941 152.799 282.363C168.189 284.786 187.98 293.428 192.603 297.078C202.661 305.027 222.046 318.919 222.046 325.728C222.046 332.494 214.349 341.769 211.982 345.7L209.636 349.609C209.174 350.382 210.341 351.079 210.804 350.309L213.15 346.4C215.528 342.45 223.406 333.004 223.406 325.728C223.406 324.176 222.622 322.397 221.289 320.469C225.97 314.059 237.042 292.826 240.092 285.769C240.431 284.984 240.301 284.116 239.752 283.506V283.503ZM238.846 285.23C235.866 292.126 225.194 312.613 220.438 319.32C214.819 312.093 202.117 302.863 193.446 296.011C186.333 290.398 158.968 280.42 149.063 280.825C152.465 274.327 166.103 252.803 168.869 248.45C169.218 247.902 169.837 247.585 170.49 247.626C201.328 249.571 224.627 268.706 238.745 284.413C238.935 284.624 238.971 284.939 238.846 285.23Z" fill="black"/>
<path d="M193.414 168.865C193.181 167.649 193.093 166.556 193.142 165.628C193.351 161.7 195.343 157.274 195.426 157.086C195.794 156.267 197.038 156.834 196.661 157.649C196.642 157.69 194.684 162.032 194.496 165.698C194.453 166.523 194.537 167.5 194.749 168.612C194.919 169.497 193.584 169.744 193.414 168.865Z" fill="black"/>
<path d="M211.682 170.85C210.996 168.577 210.71 166.634 210.79 165.093C210.996 161.164 212.989 156.742 213.077 156.551C213.454 155.727 214.685 156.307 214.312 157.115C214.293 157.156 212.34 161.497 212.146 165.164C212.075 166.531 212.366 168.364 212.986 170.464C213.239 171.324 211.943 171.716 211.682 170.85Z" fill="black"/>
<path d="M227.392 171.061C227.207 169.977 227.131 168.994 227.177 168.147C227.386 164.218 229.376 159.796 229.462 159.606C229.835 158.785 231.072 159.356 230.697 160.169C230.678 160.21 228.722 164.552 228.531 168.22C228.492 168.964 228.557 169.845 228.727 170.831C228.88 171.71 227.543 171.96 227.39 171.062L227.392 171.061Z" fill="black"/>
<path d="M173.389 168.321C173.287 168.276 176.265 171.75 176.041 174.554C176.468 175.932 177.039 173.916 177.136 172.815C177.235 171.717 177.683 170.18 173.389 168.321Z" fill="black"/>
<path d="M147.703 147.069C149.136 146.045 151.508 145.698 152.61 145.588C152.338 144.156 151.422 140.329 149.218 138.755C147.254 137.352 145.335 138.229 144.367 138.88C143.787 139.27 143.197 138.393 143.777 138.003C144.74 137.358 147.256 136.058 149.829 137.897C152.927 140.111 153.718 145.762 153.751 146C153.794 146.317 153.548 146.59 153.253 146.597C153.22 146.597 149.93 146.772 148.317 147.931C147.757 148.333 147.133 147.479 147.705 147.069H147.703Z" fill="black"/>
<path d="M151.069 160.49C151.18 160.369 153.832 157.505 157.345 157.861C158.043 157.932 157.933 158.982 157.239 158.911C154.259 158.605 151.873 161.173 151.849 161.199C151.366 161.701 150.605 161.007 151.071 160.488L151.069 160.49Z" fill="black"/>
<path d="M150.706 164.589C150.769 164.568 157.002 162.586 158.74 160.846C158.947 160.639 159.281 160.639 159.488 160.846C160.805 162.162 152.78 165.062 151.023 165.598C150.333 165.808 150.061 164.79 150.706 164.589Z" fill="black"/>
<path d="M190.537 70.7216C191.281 70.2274 196.195 69.7947 198.67 70.2759C199.002 70.3412 199.142 70.2367 199.23 70.1248C199.866 69.3136 199.541 65.9249 198.154 62.7432C197.874 62.1016 197.367 61.6521 196.654 61.406C195.347 60.9546 193.704 61.2978 193.004 61.6708C192.383 62.0009 191.889 61.0684 192.503 60.7383C193.54 60.1788 195.468 59.8767 196.997 60.4063C197.988 60.7495 198.719 61.4116 199.116 62.3217C200.586 65.6899 201.759 71.9563 198.46 71.3166C196.026 70.8447 191.615 71.3427 191.104 71.6112C190.531 71.9936 189.951 71.1114 190.537 70.7216Z" fill="black"/>
<path d="M194.384 110.879C191.934 109.107 185.858 110.226 185.798 110.237C185.112 110.364 184.908 109.327 185.602 109.195C191.261 108.119 195.998 109.545 195.121 110.763C194.955 110.994 194.631 111.056 194.384 110.879Z" fill="black"/>
<path d="M185.19 113.716C184.515 113.527 184.802 112.505 185.477 112.695C186.426 112.962 189.164 113.535 190.453 112.994C191.098 112.723 191.506 113.699 190.861 113.969C189.373 114.59 186.695 114.137 185.19 113.716Z" fill="black"/>
<path d="M211.505 107.515C208.778 106.004 204.598 107.095 204.557 107.107C203.879 107.289 203.606 106.271 204.278 106.086C204.466 106.034 208.931 104.852 212.017 106.596C212.612 106.931 212.126 107.858 211.503 107.513L211.505 107.515Z" fill="black"/>
<path d="M203.17 110.039C202.5 109.834 202.812 108.816 203.479 109.027C203.513 109.038 206.965 110.082 209.285 109.653C209.973 109.526 210.165 110.563 209.477 110.692C207.616 111.039 204.891 110.567 203.17 110.039Z" fill="black"/>
<path d="M207.091 68.1071C206.438 68.1071 206.373 67.1802 206.992 67.0609C207.656 66.934 213.493 65.871 215.204 66.7326C215.601 66.0332 215.312 62.2566 214.655 59.8228C214.016 57.4468 211.571 55.8839 208.648 56.9675C207.994 57.2099 207.622 56.2177 208.281 55.9734C211.794 54.6773 214.875 56.5702 215.677 59.5468C215.916 60.4308 217.181 66.5312 215.817 67.6204C215.515 67.8628 215.118 67.8852 214.734 67.68C213.307 66.9228 207.276 68.1071 207.087 68.1071H207.091Z" fill="black"/>
<path d="M223.838 77.9145C223.167 78.0954 222.879 77.079 223.562 76.8906C224.75 76.5643 226.156 76.7601 227.4 76.9242C228.064 77.0119 229.054 77.1424 229.319 77.0268C229.319 74.8373 229.258 71.8458 227.948 69.9957C226.66 68.1755 223.038 69.7869 223.001 69.8036C222.355 70.0797 221.934 69.1304 222.566 68.8413C222.747 68.7592 227.022 66.8551 228.814 69.3859C230.291 71.471 230.382 74.6508 230.382 77.0361C230.382 79.2424 226.208 77.2767 223.84 77.9164L223.838 77.9145Z" fill="black"/>
<path d="M240.145 96.2734C243.198 95.2178 246.098 96.4096 246.672 96.1634C246.735 93.8788 245.637 90.2159 244.542 88.3173C243.429 86.3871 240.307 87.8716 240.273 87.8865C239.632 88.1849 239.188 87.2375 239.813 86.9354C241.202 86.2603 244.177 85.5627 245.46 87.7896C246.915 90.3129 247.832 94.5446 247.733 96.1653C247.711 96.5196 247.582 96.7956 247.343 96.9859C246.286 97.8307 243.701 96.1821 240.491 97.2768C239.82 97.5062 239.492 96.4991 240.145 96.2734Z" fill="black"/>
<path d="M220.089 114.913C219.406 114.753 219.653 113.727 220.331 113.886C220.38 113.897 225.318 115.051 228.744 114.43C229.431 114.305 229.625 115.346 228.933 115.473C226.35 115.943 222.583 115.503 220.089 114.913Z" fill="black"/>
<path d="M226.203 111.649C224.206 110.564 220.73 111.325 220.696 111.332C220.015 111.485 219.782 110.45 220.465 110.301C220.623 110.266 224.357 109.445 226.709 110.721C227.317 111.051 226.825 111.989 226.203 111.649Z" fill="black"/>
<path d="M244.503 107.845C241.698 107.108 238.371 107.399 238.341 107.399C237.638 107.453 237.564 106.399 238.254 106.345C238.397 106.334 241.773 106.067 244.759 106.817C245.438 106.989 245.18 108.022 244.503 107.845Z" fill="black"/>
<path d="M243.814 133.683C243.329 133.683 241.359 132.428 236.509 133.389C235.828 133.56 235.572 132.534 236.247 132.365C236.413 132.324 240.395 131.328 243.995 132.656C244.552 132.861 244.394 133.683 243.814 133.683Z" fill="black"/>
<path d="M240.817 137.367C239.396 137.367 237.229 136.947 235.649 136.169C235.023 135.862 235.485 134.909 236.117 135.218C237.759 136.022 239.588 136.259 240.839 136.309C241.52 136.337 241.507 137.367 240.817 137.367Z" fill="black"/>
<path d="M214.733 77.2998C211.223 76.0111 207.683 76.7832 207.646 76.7944C206.96 76.9492 206.73 75.9234 207.404 75.7668C207.562 75.7295 211.302 74.8753 215.11 76.3151C215.744 76.5538 215.418 77.5516 214.731 77.3017L214.733 77.2998Z" fill="black"/>
<path d="M189.38 78.2129C188.742 78.2129 188.658 77.2842 189.284 77.1667C189.484 77.1294 194.173 76.2789 196.711 76.8161C197.395 76.9615 197.177 77.9929 196.491 77.8511C194.115 77.3606 189.566 78.2129 189.38 78.2129Z" fill="black"/>
<path d="M222.493 83.8494C221.794 83.8494 221.794 82.792 222.493 82.792C223.457 82.792 226.443 83.1426 228.972 82.9692C229.666 82.9225 229.752 83.9725 229.049 84.0266C226.634 84.2113 223.111 83.8494 222.493 83.8494Z" fill="black"/>
<path d="M182.693 138.093C182.065 138.093 181.962 137.168 182.594 137.043C182.786 137.005 187.307 136.153 189.681 136.696C190.358 136.851 190.129 137.884 189.443 137.727C187.195 137.212 182.882 138.093 182.691 138.093H182.693Z" fill="black"/>
<path d="M201.125 35.5437L188.935 -2.26367L171.852 7.91742L201.125 35.5437Z" fill="white"/>
<path d="M189.505 -2.43877C189.399 -2.78752 188.977 -2.98707 188.623 -2.77819C171.09 7.57062 171.303 7.39531 171.251 7.85596C171.2 8.31848 171.096 8.02381 200.708 35.9802C201.188 36.4315 201.874 35.9279 201.695 35.3628L189.505 -2.43877ZM199.832 33.4978L172.847 8.03127L188.593 -1.3552L199.832 33.4978Z" fill="black"/>
<path d="M174.819 54.3882L133.442 27.2002L127.504 45.0221L174.819 54.3882Z" fill="white"/>
<path d="M175.152 53.8825C133.57 26.2078 133.693 26.4876 133.251 26.6349C132.813 26.7878 133.087 26.5789 126.934 44.8317C126.817 45.1786 127.035 45.5479 127.388 45.6131L174.82 54.9885C175.419 54.9885 175.65 54.2145 175.152 53.8825ZM171.914 53.1962L128.286 44.5631L133.768 28.1306L171.914 53.1962Z" fill="black"/>
<path d="M173.021 87.275L128.293 84.25L132.594 103.851L173.021 87.275Z" fill="white"/>
<path d="M173.067 86.6746C127.85 83.9555 128.158 83.4967 127.841 83.8566C127.537 84.211 127.733 83.8771 132.009 103.976C132.074 104.286 132.358 104.474 132.636 104.45L173.25 87.8291C173.847 87.5922 173.694 86.7119 173.067 86.6746ZM170.4 87.7022L133.031 103.025L129.055 84.9047L170.4 87.7022Z" fill="black"/>
<path d="M256.719 38.1157L272.318 -1.7002L288.04 11.9796L256.719 38.1157Z" fill="white"/>
<path d="M288.438 11.5243C272.373 -2.5041 272.641 -2.39966 272.171 -2.28403C271.703 -2.1684 272.032 -2.33812 256.16 37.8993C256 38.3041 256.308 38.7179 256.72 38.7179C257.069 38.7179 256.699 38.6191 288.425 12.4419C288.72 12.1995 288.712 11.7631 288.438 11.5243ZM287.114 11.9719L258.137 36.1517L272.563 -0.681999L287.114 11.9719Z" fill="black"/>
<path d="M289.262 56.4259L334.292 38.9844L338.222 57.1551L289.262 56.4259Z" fill="white"/>
<path d="M334.877 38.8653C334.807 38.4979 334.404 38.2928 334.072 38.4271L289.045 55.8648C288.422 56.0979 288.59 57.0286 289.248 57.0286L338.219 57.7615C338.606 57.7615 338.883 57.4109 338.805 57.0323L334.877 38.8653ZM337.474 56.5418L292.368 55.8686L333.855 39.8016L337.474 56.5418Z" fill="black"/>
<path d="M302.07 87.6152L341.675 91.8954L337.237 107.737L302.07 87.6152Z" fill="white"/>
<path d="M302.139 87.0179C301.466 86.9545 301.229 87.8218 301.775 88.1369C337.154 108.48 336.975 108.34 337.248 108.337C337.88 108.329 337.373 108.857 342.253 92.0609C342.546 91.0538 343.451 90.9717 302.139 87.0179ZM340.905 92.419L336.865 106.83L304.873 88.523L340.905 92.419Z" fill="black"/>
</g>
<defs>
<clipPath id="clip0_853_116112">
<rect width="676" height="353" fill="white"/>
</clipPath>
</defs>
</svg>
