<svg width="69" height="69" viewBox="0 0 69 69" fill="none" xmlns="http://www.w3.org/2000/svg">
<g clip-path="url(#clip0_3882_16444)">
<path d="M52.5051 43.9102C56.0703 44.0116 57.4218 41.1527 57.521 39.1717L57.7643 30.6153C57.8519 27.0354 55.0069 25.6986 53.0259 25.5994L48.1625 25.4754L44.5741 21.6768C41.9416 18.8902 38.9509 18.6624 36.4884 19.4345L23.8248 19.0743L17.9583 24.6164L15.948 24.5449C12.3681 24.4574 11.0313 27.3024 10.9321 29.2834L10.6888 37.8398C10.645 39.38 11.1552 40.5077 11.9173 41.3144C12.901 42.3557 14.3149 42.8241 15.4272 42.8557L23.1427 43.0609L28.1167 48.3261C30.4721 50.8193 33.2182 50.612 35.173 49.6257C37.1787 50.8673 39.299 50.5851 40.8773 49.7879C43.6115 51.507 46.5711 50.3209 48.0817 48.8938L52.4816 44.7373L51.6641 43.872L52.5051 43.9102ZM45.3107 45.9606C44.6507 46.5841 43.5808 47.0674 42.4585 45.8795L41.073 44.4128L39.6064 45.7984C38.9464 46.4218 37.8765 46.9052 36.7542 45.7173L35.3687 44.2506L33.9021 45.6361C33.2421 46.2596 32.1722 46.743 31.05 45.555L24.9398 39.0872L15.5848 38.8211C14.73 38.7683 14.7299 38.2688 14.7388 37.955L14.9667 29.441C15.0195 28.5861 15.5191 28.5861 15.8328 28.595L19.5267 28.6858L25.3932 23.1437L31.0975 23.3059L28.7656 25.5089C26.991 27.1854 25.4741 30.8388 28.5223 34.0653C31.5704 37.2919 35.3041 35.9851 37.0787 34.3087L46.7773 44.5751L45.3107 45.9606ZM52.6203 39.8601L47.757 39.7361L37.2409 28.6044L34.3077 31.3754C33.6477 31.9989 32.5778 32.4823 31.4555 31.2943C30.3332 30.1063 30.8766 29.0656 31.5366 28.4422L35.9365 24.2856C36.6112 23.6483 39.1053 21.7639 41.6408 24.4478L46.3654 29.449L52.8683 29.634C53.7231 29.6868 53.7232 30.1864 53.7143 30.5001L53.4864 39.0142C53.4336 39.869 52.934 39.8691 52.6203 39.8601Z" fill="black"/>
</g>
<defs>
<clipPath id="clip0_3882_16444">
<rect width="48.4221" height="48.4221" fill="white" transform="translate(35.1991) rotate(46.629)"/>
</clipPath>
</defs>
</svg>
