<svg width="35" height="40" viewBox="0 0 35 40" fill="none" xmlns="http://www.w3.org/2000/svg">
<path d="M31.5645 7.78809V19.7246C31.5643 25.6095 27.967 29.8673 24.2236 32.7061C22.3603 34.1191 20.4917 35.155 19.0869 35.8379C18.3856 36.1788 17.8025 36.4303 17.3975 36.5957C17.2653 36.6497 17.1516 36.6929 17.0596 36.7285C16.9677 36.6929 16.8543 36.6495 16.7227 36.5957C16.3177 36.4303 15.7352 36.1786 15.0342 35.8379C13.6295 35.155 11.7607 34.119 9.89746 32.7061C6.15401 29.8673 2.55677 25.6096 2.55664 19.7246V7.78809L17.0596 2.71094L31.5645 7.78809Z" stroke="white" stroke-width="1.70635"/>
<path d="M1.70312 7.18262V19.7243C1.70312 32.2659 17.0603 37.6409 17.0603 37.6409C17.0603 37.6409 32.4174 32.2659 32.4174 19.7243V7.18262L17.0603 1.80762L1.70312 7.18262Z" stroke="white" stroke-width="3.4127" stroke-linecap="square"/>
<path d="M10.5312 18.3126L15.3551 23.1382L25.0079 13.4854" stroke="white" stroke-width="3.4127" stroke-linecap="square"/>
</svg>
