<svg width="38" height="38" viewBox="0 0 38 38" fill="none" xmlns="http://www.w3.org/2000/svg">
<path d="M32.9025 29.6534L23.7454 14.3866V5.9375H24.9329C25.2478 5.9375 25.5499 5.81239 25.7726 5.58969C25.9953 5.36699 26.1204 5.06494 26.1204 4.75C26.1204 4.43506 25.9953 4.13301 25.7726 3.91031C25.5499 3.68761 25.2478 3.5625 24.9329 3.5625H13.0579C12.743 3.5625 12.4409 3.68761 12.2182 3.91031C11.9955 4.13301 11.8704 4.43506 11.8704 4.75C11.8704 5.06494 11.9955 5.36699 12.2182 5.58969C12.4409 5.81239 12.743 5.9375 13.0579 5.9375H14.2454V14.3866L5.08829 29.6534C4.87231 30.0134 4.75566 30.4243 4.7502 30.8441C4.74474 31.264 4.85068 31.6777 5.05722 32.0433C5.26376 32.4089 5.56352 32.7131 5.92595 32.9251C6.28838 33.1371 6.70053 33.2492 7.12039 33.25H30.8704C31.2906 33.25 31.7034 33.1384 32.0664 32.9268C32.4295 32.7151 32.7299 32.4109 32.9369 32.0452C33.144 31.6795 33.2503 31.2655 33.2451 30.8453C33.2398 30.425 33.1231 30.0137 32.907 29.6534H32.9025ZM16.4512 15.3262C16.5622 15.1421 16.6208 14.9311 16.6204 14.7161V5.9375H21.3704V14.7161C21.37 14.9311 21.4286 15.1421 21.5396 15.3262L27.2129 24.7891C25.4316 25.1409 22.8978 24.9924 19.5313 23.2884C17.1696 22.0934 14.9223 21.4596 12.8189 21.3869L16.4512 15.3262ZM7.12039 30.875L11.3568 23.8123C13.472 23.5541 15.8559 24.087 18.4551 25.4036C21.2754 26.8301 23.6504 27.3155 25.5801 27.3155C26.5615 27.3198 27.5385 27.1849 28.482 26.9147L30.8704 30.875H7.12039Z" fill="black"/>
</svg>
