<svg width="379" height="316" viewBox="0 0 379 316" fill="none" xmlns="http://www.w3.org/2000/svg">
<path d="M46.3531 161.92L132.14 161.917C134.571 161.917 136.547 163.893 136.547 166.324V226.498C136.547 228.929 134.571 230.906 132.14 230.906H46.3493C43.918 230.906 41.9453 228.935 41.9453 226.504V166.33C41.9453 163.899 43.9218 161.92 46.3531 161.92Z" fill="white"/>
<path d="M46.3496 219.865L46.3572 166.318L132.142 166.326L132.134 219.865H46.3496Z" fill="white"/>
<path d="M132.134 220.22L46.0972 220.118C45.9077 219.934 45.4756 220.112 45.9948 166.319C45.9967 166.122 46.1597 165.966 46.353 165.966H132.14C132.331 165.974 132.492 166.124 132.492 166.328V219.868C132.488 220.065 132.327 220.22 132.134 220.22ZM46.7055 219.517L131.781 219.513V166.681L46.7055 166.677V219.517Z" fill="black"/>
<path d="M102.634 246.145H75.8594L78.4555 230.898H100.038L102.634 246.145Z" fill="white"/>
<path d="M132.144 161.479H46.3497C43.6796 161.479 41.5117 163.65 41.5117 166.316V226.49C41.5117 229.16 43.6834 231.328 46.3497 231.328H77.945L75.4341 246.073C75.3848 246.323 75.5838 246.575 75.8586 246.575C102.946 246.575 102.764 246.663 102.965 246.422C103.156 246.206 103.241 247.142 100.549 231.328H132.144C134.814 231.328 136.982 229.157 136.982 226.49V166.316C136.982 163.646 134.81 161.479 132.144 161.479ZM102.12 245.713H76.3646L78.8148 231.33H99.6674L102.12 245.713ZM136.118 226.494C136.118 228.687 134.335 230.47 132.144 230.47H46.3497C44.159 230.47 42.3739 228.687 42.3739 226.494V166.32C42.3739 164.128 44.1571 162.345 46.3497 162.345H132.144C134.335 162.345 136.118 164.128 136.118 166.32V226.494Z" fill="black"/>
<path d="M100.937 236.217L78.3125 231.724L78.4546 230.898H100.037L100.937 236.217Z" fill="black"/>
<path d="M72.855 227.288H61.8204C61.5411 227.288 61.3145 227.515 61.3145 227.794V236.852C61.3145 237.131 61.5411 237.358 61.8204 237.358H72.855C73.1345 237.358 73.361 237.131 73.361 236.852V227.794C73.361 227.515 73.1345 227.288 72.855 227.288Z" fill="white"/>
<path d="M72.854 237.716H61.8213C61.3456 237.716 60.9609 237.332 60.9609 236.856V227.798C60.9609 227.322 61.3456 226.938 61.8213 226.938H72.854C73.3296 226.938 73.7143 227.322 73.7143 227.798V236.856C73.7143 237.332 73.3296 237.716 72.854 237.716ZM61.8213 227.646C61.6015 227.646 61.6678 227.011 61.6678 236.856C61.6678 237.081 61.0708 237.009 72.854 237.009C73.0738 237.009 73.0075 237.646 73.0075 227.8C73.0075 227.561 73.4717 227.646 61.8213 227.646Z" fill="black"/>
<path d="M71.0013 231.181H63.4175C62.8452 231.181 62.8452 230.316 63.4175 230.316H71.0013C71.5736 230.316 71.5736 231.181 71.0013 231.181Z" fill="black"/>
<path d="M69.1044 234.334H63.4175C62.8452 234.334 62.8452 233.47 63.4175 233.47H69.1044C69.6767 233.47 69.6767 234.334 69.1044 234.334Z" fill="black"/>
<path d="M89.2434 222.886C90.5927 222.886 91.6861 223.98 91.6861 225.329C91.6861 226.678 90.5927 227.772 89.2434 227.772C87.8942 227.772 86.8008 226.678 86.8008 225.329C86.8008 223.98 87.8942 222.886 89.2434 222.886Z" fill="white"/>
<path d="M89.2423 228.13C87.6979 228.13 86.4453 226.873 86.4453 225.333C86.4453 223.792 87.7017 222.536 89.2423 222.536C90.783 222.536 92.0394 223.792 92.0394 225.333C92.0394 226.873 90.783 228.13 89.2423 228.13ZM89.2423 223.241C88.0883 223.241 87.1521 224.179 87.1521 225.331C87.1521 226.483 88.0902 227.421 89.2423 227.421C90.3945 227.421 91.3325 226.483 91.3325 225.331C91.3325 224.179 90.3945 223.241 89.2423 223.241Z" fill="black"/>
<path d="M79.3014 195.772C77.5353 199.919 72.8072 201.935 68.5909 200.345L65.1855 209.36C74.1697 212.757 84.3516 208.503 88.1662 199.551L79.3014 195.772Z" fill="#81F889"/>
<path d="M65.0316 209.763C64.808 209.68 64.6962 209.43 64.7795 209.206C68.4066 199.481 68.1716 200.059 68.4123 199.953C68.8538 199.758 69.3787 200.455 71.5617 200.455C74.7624 200.455 77.6447 198.549 78.903 195.604C78.9977 195.384 79.2517 195.283 79.4696 195.376C89.1038 199.53 88.4689 199.153 88.5656 199.39C88.6092 199.496 88.6092 199.614 88.5656 199.72C84.8116 208.727 74.4668 213.282 65.0316 209.763ZM65.7384 209.104C74.2526 212.081 83.7769 208.154 87.5915 199.778L79.5151 196.337C77.5746 200.341 72.9963 202.231 68.8405 200.889L65.7384 209.104Z" fill="black"/>
<path d="M71.5637 184.069V174.435C61.5998 174.435 53.5195 182.515 53.5195 192.479H63.1537C63.1537 187.836 66.921 184.069 71.5637 184.069Z" fill="white"/>
<path d="M63.1561 192.909H53.5219C53.2812 192.909 53.0898 192.716 53.0898 192.477C53.0898 182.287 61.3767 174 71.5661 174C71.8049 174 71.9982 174.194 71.9982 174.433V184.067C71.9982 184.306 71.8049 184.499 71.5661 184.499C67.1678 184.499 63.5881 188.077 63.5881 192.477C63.5881 192.716 63.3949 192.909 63.1561 192.909ZM53.9615 192.045H62.7354C62.9552 187.512 66.5993 183.864 71.1321 183.648V174.874C61.7652 175.101 54.187 182.678 53.9596 192.047L53.9615 192.045Z" fill="black"/>
<path d="M63.1557 192.477H53.5215C53.5215 200.195 58.3689 206.782 65.1871 209.36L68.5924 200.345C65.4145 199.144 63.1557 196.076 63.1557 192.477Z" fill="black"/>
<path d="M65.0321 209.763C57.8955 207.04 53.0879 200.118 53.0879 192.477C53.0879 192.238 53.2793 192.045 53.52 192.045H63.1541C63.3929 192.045 63.5862 192.238 63.5862 192.477C63.5862 195.776 65.6555 198.787 68.7425 199.939C68.9661 200.023 69.0779 200.273 68.9945 200.497C65.4376 210.034 65.5911 209.977 65.0321 209.763ZM53.9596 192.909C54.132 199.877 58.4849 206.174 64.9373 208.797L68.0394 200.584C64.9752 199.248 62.8983 196.248 62.7334 192.909H53.9596Z" fill="black"/>
<path d="M79.2563 195.662L88.07 199.418C93.0803 187.692 84.4865 174.454 71.5664 174.454V184.029C77.5773 184.029 81.591 190.18 79.2563 195.662Z" fill="white"/>
<path d="M88.0665 199.85C87.877 199.85 88.0324 199.79 79.088 196.06C78.8757 195.971 78.7639 195.716 78.8568 195.496C81.0929 190.131 77.1304 184.463 71.5629 184.463C71.3223 184.463 71.1309 184.272 71.1309 184.031V174.455C71.1309 174.217 71.3223 174.023 71.5629 174.023C84.7483 174.023 93.6037 187.561 88.4644 199.589C88.3943 199.754 88.237 199.852 88.0684 199.852L88.0665 199.85ZM79.8138 195.435L87.8334 198.848C92.3245 187.559 84.1419 175.181 71.9969 174.889V183.608C77.9358 183.9 81.8622 189.911 79.8138 195.435Z" fill="black"/>
<path d="M124.971 184.033H95.5132C94.5789 184.033 94.5789 182.619 95.5132 182.619H124.971C125.905 182.619 125.905 184.033 124.971 184.033Z" fill="black"/>
<path d="M119.043 190.133H95.5132C94.5789 190.133 94.5789 188.719 95.5132 188.719H119.043C119.978 188.719 119.978 190.133 119.043 190.133Z" fill="black"/>
<path d="M122.214 196.236H95.5132C94.5789 196.236 94.5789 194.823 95.5132 194.823H122.214C123.148 194.823 123.148 196.236 122.214 196.236Z" fill="black"/>
<path d="M122.214 202.337H95.5132C94.5789 202.337 94.5789 200.923 95.5132 200.923H122.214C123.148 200.923 123.148 202.337 122.214 202.337Z" fill="black"/>
<path d="M158.8 161.92L244.591 161.917C247.022 161.917 248.999 163.893 248.999 166.324V226.498C248.999 228.929 247.022 230.906 244.591 230.906H158.797C156.365 230.906 154.395 228.935 154.395 226.504V166.33C154.395 163.899 156.369 161.92 158.8 161.92Z" fill="white"/>
<path d="M158.801 219.865L158.808 166.318L244.595 166.326L244.587 219.865H158.801Z" fill="white"/>
<path d="M244.587 220.22L158.55 220.118C158.361 219.934 157.902 220.11 158.448 166.319C158.45 166.122 158.613 165.966 158.806 165.966H244.593C244.784 165.974 244.945 166.124 244.945 166.328V219.868C244.941 220.065 244.78 220.22 244.587 220.22ZM159.159 219.517L244.235 219.513V166.681L159.159 166.677V219.517Z" fill="black"/>
<path d="M215.085 246.145H188.309L190.905 230.898H212.487L215.085 246.145Z" fill="white"/>
<path d="M244.595 161.479H158.801C156.129 161.479 153.961 163.65 153.961 166.316V226.49C153.961 229.16 156.133 231.328 158.801 231.328H190.396L187.885 246.073C187.836 246.323 188.035 246.575 188.31 246.575C215.397 246.575 215.215 246.663 215.416 246.422C215.607 246.204 215.687 247.112 213 231.328H244.595C247.265 231.328 249.433 229.157 249.433 226.49V166.316C249.433 163.646 247.261 161.479 244.595 161.479ZM214.571 245.713H188.816L191.266 231.33H212.118L214.569 245.713H214.571ZM248.569 226.494C248.569 228.687 246.786 230.47 244.595 230.47H158.801C156.608 230.47 154.825 228.687 154.825 226.494V166.32C154.825 164.128 156.608 162.345 158.801 162.345H244.595C246.786 162.345 248.569 164.128 248.569 166.32V226.494Z" fill="black"/>
<path d="M213.392 236.217L190.764 231.724L190.906 230.898H212.488L213.392 236.217Z" fill="black"/>
<path d="M185.306 227.284H174.272C173.992 227.284 173.766 227.512 173.766 227.79V236.848C173.766 237.129 173.992 237.354 174.272 237.354H185.306C185.586 237.354 185.812 237.129 185.812 236.848V227.79C185.812 227.512 185.586 227.284 185.306 227.284Z" fill="white"/>
<path d="M185.303 237.712H174.27C173.795 237.712 173.41 237.328 173.41 236.852V227.794C173.41 227.318 173.795 226.934 174.27 226.934H185.303C185.779 226.934 186.163 227.318 186.163 227.794V236.852C186.163 237.328 185.779 237.712 185.303 237.712ZM174.27 227.642C174.051 227.642 174.117 227.006 174.117 236.852C174.117 237.078 173.52 237.006 185.303 237.006C185.523 237.006 185.457 237.642 185.457 227.796C185.457 227.557 185.921 227.642 174.27 227.642Z" fill="black"/>
<path d="M183.451 231.177H175.867C175.294 231.177 175.294 230.312 175.867 230.312H183.451C184.023 230.312 184.023 231.177 183.451 231.177Z" fill="black"/>
<path d="M181.554 234.33H175.867C175.294 234.33 175.294 233.466 175.867 233.466H181.554C182.126 233.466 182.126 234.33 181.554 234.33Z" fill="black"/>
<path d="M201.697 222.886C203.046 222.886 204.139 223.98 204.139 225.329C204.139 226.678 203.046 227.772 201.697 227.772C200.347 227.772 199.254 226.678 199.254 225.329C199.254 223.98 200.347 222.886 201.697 222.886Z" fill="white"/>
<path d="M201.695 228.13C200.151 228.13 198.898 226.873 198.898 225.333C198.898 223.792 200.155 222.536 201.695 222.536C203.236 222.536 204.492 223.792 204.492 225.333C204.492 226.873 203.236 228.13 201.695 228.13ZM201.695 223.241C200.541 223.241 199.605 224.179 199.605 225.331C199.605 226.483 200.543 227.421 201.695 227.421C202.848 227.421 203.786 226.483 203.786 225.331C203.786 224.179 202.848 223.241 201.695 223.241Z" fill="black"/>
<path d="M185.737 193.256H180.592V213.078H185.737V193.256Z" fill="#81F889"/>
<path d="M185.736 213.428H180.591C180.394 213.428 180.236 213.271 180.236 213.074V193.25C180.236 193.053 180.394 192.897 180.591 192.897H185.736C185.933 192.897 186.088 193.055 186.088 193.25V213.074C186.088 213.271 185.931 213.428 185.736 213.428ZM180.943 212.721H185.381V193.604H180.943V212.721Z" fill="black"/>
<path d="M190.881 203.311H185.736V213.075H190.881V203.311Z" fill="black"/>
<path d="M190.884 213.428H185.739C185.542 213.428 185.385 213.271 185.385 213.074V203.309C185.385 203.112 185.542 202.955 185.739 202.955H190.884C191.081 202.955 191.238 203.112 191.238 203.309V213.074C191.238 213.271 191.081 213.428 190.884 213.428ZM186.092 212.721H190.53V203.663H186.092V212.721Z" fill="black"/>
<path d="M201.698 181.833H196.551V213.073H201.698V181.833Z" fill="#81F889"/>
<path d="M201.701 213.428H196.556C196.359 213.428 196.203 213.271 196.203 213.074V181.833C196.203 181.636 196.36 181.479 196.556 181.479H201.701C201.898 181.479 202.055 181.636 202.055 181.833V213.074C202.055 213.271 201.898 213.428 201.701 213.428ZM196.908 212.721H201.346V182.187H196.908V212.721Z" fill="black"/>
<path d="M206.844 196.676H201.697V213.074H206.844V196.676Z" fill="black"/>
<path d="M206.845 213.428H201.7C201.503 213.428 201.348 213.271 201.348 213.074V196.676C201.348 196.479 201.505 196.324 201.7 196.324H206.845C207.042 196.324 207.199 196.481 207.199 196.676V213.074C207.199 213.271 207.042 213.428 206.845 213.428ZM202.053 212.721H206.491V197.031H202.053V212.721Z" fill="black"/>
<path d="M217.657 171.456H212.512V213.074H217.657V171.456Z" fill="#81F889"/>
<path d="M217.657 213.428H212.513C212.315 213.428 212.158 213.271 212.158 213.073V171.455C212.158 171.258 212.315 171.103 212.513 171.103H217.657C217.855 171.103 218.012 171.26 218.012 171.455V213.073C218.012 213.271 217.855 213.428 217.657 213.428ZM212.865 212.721H217.303V171.81H212.865V212.721Z" fill="black"/>
<path d="M222.803 181.463H217.658V213.074H222.803V181.463Z" fill="black"/>
<path d="M222.802 213.428H217.657C217.46 213.428 217.305 213.271 217.305 213.074V181.463C217.305 181.266 217.462 181.111 217.657 181.111H222.802C222.999 181.111 223.156 181.268 223.156 181.463V213.074C223.156 213.271 222.999 213.428 222.802 213.428ZM218.01 212.721H222.448V181.818H218.01V212.721Z" fill="black"/>
<path d="M230.754 212.658L227.73 209.634C227.191 209.086 226.339 209.907 226.896 210.466L228.961 212.532H176.625V172.981C178.706 175.062 178.759 175.219 179.108 175.219C179.619 175.219 179.904 174.594 179.525 174.213L176.5 171.188C176.28 170.968 175.888 170.968 175.668 171.188L172.644 174.213C172.094 174.755 172.92 175.602 173.476 175.045L175.543 172.977V213.073C175.543 213.373 175.786 213.615 176.085 213.615H228.963L226.898 215.681C226.526 216.047 226.792 216.687 227.315 216.687C227.656 216.687 227.515 216.704 230.756 213.49C230.987 213.261 230.987 212.89 230.756 212.658H230.754Z" fill="black"/>
<path d="M271.252 161.92L357.046 161.917C359.477 161.917 361.452 163.893 361.452 166.324V226.498C361.452 228.929 359.477 230.906 357.046 230.906H271.255C268.824 230.906 266.848 228.929 266.848 226.498V166.324C266.848 163.893 268.82 161.92 271.252 161.92Z" fill="white"/>
<path d="M271.252 219.865L271.26 166.318L357.046 166.326L357.039 219.865H271.252Z" fill="white"/>
<path d="M357.038 220.22L271.002 220.118C270.812 219.934 270.353 220.11 270.899 166.319C270.901 166.122 271.064 165.966 271.257 165.966H357.044C357.235 165.974 357.396 166.124 357.396 166.328V219.868C357.393 220.065 357.232 220.22 357.038 220.22ZM271.61 219.517L356.686 219.513V166.681L271.61 166.677V219.517Z" fill="black"/>
<path d="M327.538 246.145H300.762L303.358 230.898H324.942L327.538 246.145Z" fill="white"/>
<path d="M357.046 161.479H271.252C268.58 161.479 266.412 163.65 266.412 166.316V226.49C266.412 229.16 268.584 231.328 271.252 231.328H302.847L300.336 246.073C300.287 246.321 300.484 246.575 300.761 246.575C327.848 246.575 327.666 246.663 327.867 246.422C328.058 246.204 328.138 247.112 325.451 231.328H357.046C359.716 231.328 361.884 229.157 361.884 226.49V166.316C361.884 163.646 359.712 161.479 357.046 161.479ZM327.022 245.713H301.267L303.717 231.33H324.57L327.022 245.713ZM361.02 226.494C361.02 228.687 359.237 230.47 357.044 230.47H271.25C269.058 230.47 267.274 228.687 267.274 226.494V166.32C267.274 164.128 269.058 162.345 271.25 162.345H357.044C359.235 162.345 361.02 164.128 361.02 166.32V226.494Z" fill="black"/>
<path d="M325.845 236.217L303.217 231.724L303.357 230.898H324.941L325.845 236.217Z" fill="black"/>
<path d="M314.152 222.886C315.501 222.886 316.594 223.98 316.594 225.329C316.594 226.678 315.501 227.772 314.152 227.772C312.802 227.772 311.709 226.678 311.709 225.329C311.709 223.98 312.802 222.886 314.152 222.886Z" fill="white"/>
<path d="M314.151 228.13C312.606 228.13 311.354 226.873 311.354 225.333C311.354 223.792 312.61 222.536 314.151 222.536C315.691 222.536 316.948 223.792 316.948 225.333C316.948 226.873 315.691 228.13 314.151 228.13ZM314.151 223.241C312.997 223.241 312.06 224.179 312.06 225.331C312.06 226.483 312.998 227.421 314.151 227.421C315.303 227.421 316.241 226.483 316.241 225.331C316.241 224.179 315.303 223.241 314.151 223.241Z" fill="black"/>
<path d="M336.818 174.567H308.814C307.88 174.567 307.88 173.154 308.814 173.154H336.818C337.753 173.154 337.753 174.567 336.818 174.567Z" fill="black"/>
<path d="M330.51 179.756H308.812C307.878 179.756 307.878 178.342 308.812 178.342H330.51C331.444 178.342 331.444 179.756 330.51 179.756Z" fill="black"/>
<path d="M333.889 184.941H308.818C307.884 184.941 307.884 183.527 308.818 183.527H333.889C334.823 183.527 334.823 184.941 333.889 184.941Z" fill="black"/>
<path d="M303.357 171.448H288.365V186.284H303.357V171.448Z" fill="white"/>
<path d="M303.357 186.637H288.366C288.169 186.637 288.014 186.479 288.014 186.284V171.448C288.014 171.251 288.171 171.094 288.366 171.094H303.357C303.555 171.094 303.712 171.251 303.712 171.448V186.284C303.712 186.481 303.555 186.637 303.357 186.637ZM288.719 185.93H303.003V171.802H288.719V185.93Z" fill="black"/>
<path d="M295.862 179.862C294.145 179.862 292.75 178.467 292.75 176.75C292.75 175.033 294.145 173.639 295.862 173.639C297.578 173.639 298.973 175.033 298.973 176.75C298.973 178.467 297.578 179.862 295.862 179.862ZM295.862 174.347C294.533 174.347 293.459 175.428 293.459 176.75C293.459 178.073 294.539 179.153 295.862 179.153C297.184 179.153 298.264 178.073 298.264 176.75C298.264 175.428 297.184 174.347 295.862 174.347Z" fill="black"/>
<path d="M299.347 183.741V182.147C299.347 181.158 298.541 180.357 297.556 180.357H294.166C293.176 180.357 292.375 181.162 292.375 182.147V183.741C292.375 184.209 291.668 184.209 291.668 183.741V182.147C291.668 180.77 292.788 179.646 294.166 179.646H297.556C298.935 179.646 300.053 180.77 300.053 182.147V183.741C300.053 184.209 299.347 184.209 299.347 183.741Z" fill="black"/>
<path d="M295.063 201.353H289.418C288.641 201.353 288.012 200.72 288.012 199.947V194.304C288.012 193.53 288.645 192.897 289.418 192.897H295.063C295.84 192.897 296.469 193.53 296.469 194.304V199.947C296.469 200.72 295.836 201.353 295.063 201.353ZM289.418 193.604C289.033 193.604 288.719 193.919 288.719 194.304V199.947C288.719 200.332 289.033 200.646 289.418 200.646H295.063C295.448 200.646 295.762 200.332 295.762 199.947V194.304C295.762 193.919 295.448 193.604 295.063 193.604H289.418Z" fill="black"/>
<path d="M291.342 199.045L289.585 196.053C289.112 195.24 290.338 194.537 290.804 195.338L292.089 197.525L297.035 192.407C297.687 191.736 298.704 192.718 298.052 193.388L292.458 199.178C292.138 199.509 291.587 199.456 291.342 199.045Z" fill="black"/>
<path d="M320.263 195.153H301.413C300.661 195.153 300.051 195.763 300.051 196.515V197.389C300.051 198.141 300.661 198.751 301.413 198.751H320.263C321.015 198.751 321.625 198.141 321.625 197.389V196.515C321.625 195.763 321.015 195.153 320.263 195.153Z" fill="#81F889"/>
<path d="M320.262 199.104H301.412C300.465 199.104 299.695 198.335 299.695 197.387V196.519C299.695 195.574 300.465 194.802 301.412 194.802H320.262C321.209 194.802 321.979 195.572 321.979 196.519V197.387C321.979 198.333 321.209 199.104 320.262 199.104ZM301.412 195.505C300.855 195.505 300.402 195.956 300.402 196.515V197.383C300.402 197.94 300.853 198.393 301.412 198.393H320.262C320.819 198.393 321.272 197.942 321.272 197.383V196.515C321.272 195.958 320.821 195.505 320.262 195.505H301.412Z" fill="black"/>
<path d="M338.576 195.153H325.157C324.405 195.153 323.795 195.763 323.795 196.515V197.389C323.795 198.141 324.405 198.751 325.157 198.751H338.576C339.328 198.751 339.938 198.141 339.938 197.389V196.515C339.938 195.763 339.328 195.153 338.576 195.153Z" fill="white"/>
<path d="M338.569 199.104H325.156C324.209 199.104 323.439 198.335 323.439 197.387V196.519C323.439 195.574 324.209 194.802 325.156 194.802H338.569C339.515 194.802 340.286 195.572 340.286 196.519V197.387C340.286 198.333 339.517 199.104 338.569 199.104ZM325.156 195.505C324.599 195.505 324.146 195.956 324.146 196.515V197.383C324.146 197.94 324.597 198.393 325.156 198.393H338.569C339.126 198.393 339.579 197.942 339.579 197.383V196.515C339.579 195.958 339.128 195.505 338.569 195.505H325.156Z" fill="black"/>
<path d="M295.063 212.583H289.418C288.641 212.583 288.012 211.95 288.012 211.177V205.534C288.012 204.76 288.645 204.127 289.418 204.127H295.063C295.84 204.127 296.469 204.76 296.469 205.534V211.177C296.469 211.95 295.836 212.583 295.063 212.583ZM289.418 204.834C289.033 204.834 288.719 205.149 288.719 205.534V211.177C288.719 211.562 289.033 211.876 289.418 211.876H295.063C295.448 211.876 295.762 211.562 295.762 211.177V205.534C295.762 205.149 295.448 204.834 295.063 204.834H289.418Z" fill="black"/>
<path d="M291.343 210.278L289.587 207.286C289.115 206.473 290.339 205.77 290.805 206.572L292.09 208.759L297.036 203.64C297.688 202.969 298.706 203.951 298.054 204.622L292.46 210.411C292.134 210.746 291.584 210.682 291.343 210.278Z" fill="black"/>
<path d="M320.263 206.38H301.413C300.661 206.38 300.051 206.991 300.051 207.743V208.616C300.051 209.369 300.661 209.979 301.413 209.979H320.263C321.015 209.979 321.625 209.369 321.625 208.616V207.743C321.625 206.991 321.015 206.38 320.263 206.38Z" fill="#81F889"/>
<path d="M320.262 210.333H301.412C300.465 210.333 299.695 209.564 299.695 208.617V207.749C299.695 206.803 300.465 206.032 301.412 206.032H320.262C321.209 206.032 321.979 206.801 321.979 207.749V208.617C321.979 209.562 321.209 210.333 320.262 210.333ZM301.412 206.735C300.855 206.735 300.402 207.186 300.402 207.745V208.613C300.402 209.17 300.853 209.623 301.412 209.623H320.262C320.819 209.623 321.272 209.172 321.272 208.613V207.745C321.272 207.188 320.821 206.735 320.262 206.735H301.412Z" fill="black"/>
<path d="M338.576 206.38H325.157C324.405 206.38 323.795 206.991 323.795 207.743V208.616C323.795 209.369 324.405 209.979 325.157 209.979H338.576C339.328 209.979 339.938 209.369 339.938 208.616V207.743C339.938 206.991 339.328 206.38 338.576 206.38Z" fill="white"/>
<path d="M338.569 210.333H325.156C324.209 210.333 323.439 209.564 323.439 208.617V207.749C323.439 206.803 324.209 206.032 325.156 206.032H338.569C339.515 206.032 340.286 206.801 340.286 207.749V208.617C340.286 209.562 339.517 210.333 338.569 210.333ZM325.156 206.735C324.599 206.735 324.146 207.186 324.146 207.745V208.613C324.146 209.17 324.597 209.623 325.156 209.623H338.569C339.126 209.623 339.579 209.172 339.579 208.613V207.745C339.579 207.188 339.128 206.735 338.569 206.735H325.156Z" fill="black"/>
<path d="M297.757 227.284H286.723C286.444 227.284 286.217 227.512 286.217 227.79V236.848C286.217 237.129 286.444 237.354 286.723 237.354H297.757C298.036 237.354 298.263 237.129 298.263 236.848V227.79C298.263 227.512 298.036 227.284 297.757 227.284Z" fill="white"/>
<path d="M297.758 237.712H286.726C286.25 237.712 285.865 237.328 285.865 236.852V227.794C285.865 227.318 286.25 226.934 286.726 226.934H297.758C298.234 226.934 298.619 227.318 298.619 227.794V236.852C298.619 237.328 298.234 237.712 297.758 237.712ZM286.726 227.642C286.506 227.642 286.572 227.006 286.572 236.852C286.572 237.078 285.975 237.006 297.758 237.006C297.978 237.006 297.912 237.642 297.912 227.796C297.912 227.557 298.376 227.642 286.726 227.642Z" fill="black"/>
<path d="M295.904 231.177H288.32C287.748 231.177 287.748 230.312 288.32 230.312H295.904C296.476 230.312 296.476 231.177 295.904 231.177Z" fill="black"/>
<path d="M294.007 234.33H288.32C287.748 234.33 287.748 233.466 288.32 233.466H294.007C294.579 233.466 294.579 234.33 294.007 234.33Z" fill="black"/>
<path d="M58.643 254.076H39.2363V261.641H58.643V254.076Z" fill="white"/>
<path d="M25.4976 363.629H19.8164L43.2613 261.637H48.9426L25.4976 363.629Z" fill="white"/>
<path d="M54.6169 261.637H48.9414L72.3863 363.633H78.0619L54.6169 261.637Z" fill="white"/>
<path d="M35.7324 319.097H62.1885L61.0913 314.536H36.7804L35.7324 319.097Z" fill="white"/>
<path d="M55.1617 262.069H58.6428C58.8834 262.069 59.0748 261.875 59.0748 261.637V254.072C59.0748 253.833 58.8815 253.64 58.6428 253.64H39.2361C38.9973 253.64 38.804 253.831 38.804 254.072V261.637C38.804 261.875 38.9973 262.069 39.2361 262.069H42.721L19.3973 363.535C19.331 363.798 19.5357 364.061 19.818 364.061H25.4973C25.6982 364.061 25.8706 363.923 25.918 363.728L36.079 319.529H61.7998L71.9684 363.732C72.0158 363.923 72.1882 364.061 72.3891 364.061C78.4739 364.061 78.2068 364.133 78.4019 363.893C78.6104 363.635 78.5592 363.855 55.1636 262.071L55.1617 262.069ZM39.6681 261.204V254.504H58.2107V261.204H39.6681ZM25.1543 363.197H20.3619L43.6059 262.069H48.3984L25.1543 363.197ZM48.9309 263.605L60.551 314.111H37.3221L48.9328 263.605H48.9309ZM36.2742 318.665L37.125 314.969H60.7481L61.599 318.665H36.2742ZM72.7226 363.193L49.4804 262.069H54.2729L77.5151 363.193H72.7226Z" fill="black"/>
<path d="M38.2376 314.536L36.6704 319.097H35.7324L36.7804 314.536H38.2376Z" fill="black"/>
<path d="M59.5723 314.536L61.1394 319.097H62.0775L61.0295 314.536H59.5723Z" fill="black"/>
<path d="M336.446 254.076H317.039V261.641H336.446V254.076Z" fill="white"/>
<path d="M303.298 363.629H297.619L321.064 261.637H326.743L303.298 363.629Z" fill="white"/>
<path d="M332.418 261.637H326.742L350.187 363.633H355.863L332.418 261.637Z" fill="white"/>
<path d="M313.535 319.097H339.989L338.894 314.536H314.583L313.535 319.097Z" fill="white"/>
<path d="M332.962 262.069H336.444C336.682 262.069 336.876 261.875 336.876 261.637V254.072C336.876 253.833 336.682 253.64 336.444 253.64H317.037C316.796 253.64 316.605 253.831 316.605 254.072V261.637C316.605 261.875 316.798 262.069 317.037 262.069H320.522L297.198 363.535C297.132 363.798 297.336 364.061 297.619 364.061H303.298C303.499 364.061 303.671 363.923 303.719 363.728L313.88 319.529H339.599L349.767 363.732C349.815 363.923 349.987 364.061 350.188 364.061C356.273 364.061 356.006 364.133 356.201 363.893C356.409 363.635 356.358 363.855 332.962 262.071V262.069ZM317.469 261.204V254.504H336.012V261.204H317.469ZM302.955 363.197H298.163L321.407 262.069H326.199L302.955 363.197ZM326.732 263.605L338.352 314.111H315.123L326.732 263.605ZM314.075 318.665L314.924 314.969H338.547L339.398 318.665H314.075ZM350.523 363.193L327.281 262.069H332.074L355.316 363.193H350.523Z" fill="black"/>
<path d="M316.04 314.536L314.473 319.097H313.535L314.583 314.536H316.04Z" fill="black"/>
<path d="M337.373 314.536L338.94 319.097H339.878L338.83 314.536H337.373Z" fill="black"/>
<path d="M358.135 246.145H17.5508V254.072H358.135V246.145Z" fill="white"/>
<path d="M358.134 254.508H17.5512C17.3124 254.508 17.1191 254.314 17.1191 254.076V246.149C17.1191 245.91 17.3124 245.717 17.5512 245.717H358.134C358.375 245.717 358.566 245.91 358.566 246.149V254.076C358.566 254.314 358.375 254.508 358.134 254.508ZM17.9814 253.644H357.702V246.581H17.9833L17.9814 253.644Z" fill="black"/>
<path d="M126.5 312.658C123.705 312.771 117.419 312.758 117.338 312.756L118.229 350.133C118.265 351.562 119.43 352.703 120.861 352.703H122.977C124.408 352.703 125.574 351.564 125.61 350.133L126.5 312.658Z" fill="white"/>
<path d="M167.078 299.418C162.611 298.883 152.34 298.993 139.195 299.418C138.7 298.366 138.355 297.221 138.056 296.031C137.057 292.067 132.678 264.555 129.82 250.885C128.287 243.561 123.203 238.833 101.376 240.519C92.5304 241.203 83.8267 242.833 82.6404 249.494C81.1149 258.059 87.5087 285.865 90.0593 295.971C92.8507 307.032 99.595 312.461 117.573 312.762C136.775 313.082 148.842 309.952 156.339 308.343C160.839 307.378 165.429 306.27 168.349 304.843C172.2 302.963 170.942 299.878 167.076 299.416L167.078 299.418Z" fill="#81F889"/>
<path d="M167.136 298.991C162.245 298.406 152.56 298.603 139.516 299.078C137.563 294.727 134.199 269.7 130.242 250.803C128.639 243.155 123.109 238.412 101.342 240.093C92.5866 240.767 83.466 242.406 82.2172 249.422C80.633 258.343 87.4379 287.337 89.6437 296.08C92.6397 307.954 100.322 312.777 116.913 313.175L117.794 350.147C117.828 351.515 118.785 352.659 120.049 353.016V357.876H103.604C101.914 357.876 100.54 359.25 100.54 360.941V363.635C100.54 363.874 100.733 364.067 100.972 364.067H142.857C143.096 364.067 143.289 363.874 143.289 363.635V360.941C143.289 359.252 141.913 357.876 140.225 357.876H123.78V353.016C125.046 352.661 126.001 351.517 126.033 350.147L126.918 313.08C139.285 312.548 148.036 310.623 154.22 309.26C158.301 308.354 164.724 307.107 168.544 305.243C172.777 303.177 171.449 299.516 167.134 298.997L167.136 298.991ZM140.231 358.737C141.445 358.737 142.431 359.722 142.431 360.937V363.199H101.41V360.937C101.41 359.724 102.395 358.737 103.61 358.737H140.231ZM125.177 350.124C125.148 351.31 124.163 352.273 122.977 352.273H120.86C119.674 352.273 118.688 351.31 118.66 350.124L117.781 313.198C120.763 313.245 123.553 313.211 126.058 313.118L125.177 350.126V350.124ZM168.171 304.452C164.462 306.266 158.012 307.526 154.038 308.404C146.437 310.081 134.953 312.618 117.587 312.328C108.755 312.182 102.647 310.82 98.3626 308.04C94.4437 305.499 91.9366 301.629 90.4832 295.868C87.0741 282.361 81.6733 257.407 83.0661 249.571C84.2126 243.138 92.9789 241.607 101.41 240.955C104.504 240.72 107.383 240.574 110.03 240.574C120.824 240.574 127.724 242.954 129.403 250.974C132.003 263.395 136.714 292.438 137.644 296.135C138.347 298.932 139.78 302.031 142.02 303.846C143.132 304.746 144.574 305.279 147.051 305.279C150.134 305.279 154.824 304.447 162.476 302.474C163.028 302.334 162.815 301.494 162.26 301.638C149.444 304.945 145.283 305.036 142.889 303.395C141.773 302.629 140.441 300.793 139.948 299.922C152.749 299.457 162.251 299.27 167.034 299.844C170.486 300.265 171.614 302.77 168.169 304.454L168.171 304.452Z" fill="black"/>
<path d="M123.783 250.788C119.962 247.04 111.996 245.823 98.8218 246.841C86.4474 247.796 86.0874 250.034 85.6951 249.088C85.6212 248.908 85.7027 248.7 85.8846 248.624C89.7239 247.021 94.7854 246.445 98.7668 246.138C112.157 245.107 120.245 246.439 124.274 250.282C124.611 250.604 124.114 251.114 123.783 250.788Z" fill="black"/>
<path d="M117.395 315.294C117.395 315.294 125.212 314.253 126.468 313.982L126.499 312.658L117.227 312.781L117.395 315.294Z" fill="black"/>
<path d="M241.09 312.658C238.295 312.771 232.009 312.758 231.928 312.756L232.818 350.133C232.854 351.562 234.02 352.703 235.451 352.703H237.567C238.998 352.703 240.163 351.564 240.199 350.133L241.09 312.658Z" fill="white"/>
<path d="M281.67 299.418C277.203 298.883 266.932 298.993 253.787 299.418C253.292 298.366 252.947 297.221 252.648 296.031C251.649 292.067 247.27 264.555 244.412 250.885C242.879 243.561 237.795 238.833 215.968 240.519C207.122 241.203 198.418 242.833 197.232 249.494C195.707 258.061 202.1 285.865 204.651 295.971C207.442 307.032 214.189 312.461 232.165 312.762C251.367 313.082 263.434 309.952 270.933 308.343C275.433 307.378 280.023 306.27 282.943 304.843C286.794 302.963 285.535 299.88 281.67 299.418Z" fill="#81F889"/>
<path d="M281.728 298.991C276.837 298.406 267.152 298.603 254.109 299.078C252.155 294.727 248.791 269.7 244.834 250.803C243.231 243.155 237.702 238.412 215.934 240.093C207.179 240.767 198.058 242.406 196.809 249.422C195.223 258.343 202.03 287.337 204.236 296.08C207.232 307.954 214.914 312.777 231.505 313.175L232.386 350.147C232.42 351.515 233.375 352.659 234.641 353.016V357.876H218.196C216.506 357.876 215.132 359.25 215.132 360.941V363.635C215.132 363.874 215.325 364.067 215.564 364.067H257.449C257.688 364.067 257.882 363.874 257.882 363.635V360.941C257.882 359.252 256.506 357.876 254.817 357.876H238.372V353.016C239.638 352.661 240.593 351.517 240.626 350.147L241.511 313.08C253.877 312.548 262.628 310.623 268.812 309.26C272.894 308.354 279.316 307.107 283.136 305.243C287.37 303.177 286.041 299.516 281.726 298.997L281.728 298.991ZM254.823 358.737C256.038 358.737 257.023 359.722 257.023 360.937V363.199H216.002V360.937C216.002 359.724 216.987 358.737 218.202 358.737H254.825H254.823ZM239.769 350.124C239.741 351.31 238.755 352.273 237.569 352.273H235.452C234.266 352.273 233.281 351.31 233.252 350.124L232.373 313.198C235.356 313.245 238.145 313.211 240.65 313.118L239.769 350.126V350.124ZM282.763 304.452C279.054 306.266 272.604 307.526 268.63 308.404C261.029 310.081 249.545 312.618 232.18 312.328C223.347 312.182 217.239 310.82 212.953 308.04C209.034 305.499 206.527 301.629 205.074 295.868C201.664 282.361 196.264 257.407 197.657 249.571C198.803 243.138 207.569 241.607 216 240.955C219.095 240.72 221.973 240.574 224.62 240.574C235.414 240.574 242.314 242.954 243.993 250.974C246.593 263.395 251.304 292.438 252.234 296.135C252.937 298.932 254.37 302.031 256.61 303.846C257.722 304.746 259.164 305.279 261.641 305.279C264.724 305.279 269.414 304.447 277.066 302.474C277.618 302.334 277.406 301.494 276.85 301.638C264.035 304.945 259.873 305.036 257.48 303.395C256.364 302.629 255.031 300.793 254.539 299.922C267.339 299.457 276.841 299.27 281.624 299.844C285.077 300.265 286.204 302.77 282.759 304.454L282.763 304.452Z" fill="black"/>
<path d="M238.375 250.788C234.554 247.04 226.588 245.823 213.414 246.841C201.039 247.796 200.679 250.034 200.287 249.088C200.213 248.908 200.295 248.7 200.475 248.624C204.314 247.021 209.375 246.445 213.357 246.138C226.747 245.107 234.835 246.439 238.863 250.282C239.201 250.604 238.706 251.114 238.375 250.788Z" fill="black"/>
<path d="M231.987 315.294C231.987 315.294 239.804 314.253 241.06 313.982L241.091 312.658L231.818 312.781L231.987 315.294Z" fill="black"/>
<path d="M96.1707 83.325V71.8868C96.1707 68.3014 93.4306 65.385 89.9381 65.0325L89.9514 15.645C89.9514 14.7108 88.5377 14.7108 88.5377 15.645L88.551 65.0325C85.0585 65.385 82.3183 68.3033 82.3183 71.8868V83.325C64.9904 87.3784 54.8389 105.476 60.4405 122.368H118.049C123.65 105.474 113.499 87.3784 96.167 83.325H96.1707Z" fill="black"/>
<path d="M208.626 83.325V71.8868C208.626 68.3014 205.885 65.385 202.395 65.0325L202.408 15.645C202.408 14.7108 200.994 14.7108 200.994 15.645L201.01 65.0325C197.517 65.385 194.777 68.3033 194.777 71.8868V83.3231C177.447 87.3746 167.294 105.474 172.895 122.366H230.503C236.105 105.472 225.955 87.3803 208.626 83.325Z" fill="black"/>
<path d="M321.077 83.325V71.8868C321.077 68.3071 318.344 65.3926 314.859 65.0325V15.645C314.859 14.7108 313.446 14.7108 313.446 15.645V65.0325C309.961 65.3926 307.228 68.3052 307.228 71.8868V83.3231C289.898 87.3746 279.745 105.474 285.347 122.366H342.955C348.556 105.474 338.407 87.3803 321.077 83.325Z" fill="black"/>
</svg>
