<svg width="660" height="494" viewBox="0 0 660 494" fill="none" xmlns="http://www.w3.org/2000/svg">
<path d="M143.421 211.051L255.238 211.046C258.407 211.046 260.983 213.622 260.983 216.791V295.224C260.983 298.393 258.407 300.969 255.238 300.969H143.416C140.247 300.969 137.676 298.4 137.676 295.231V216.799C137.676 213.63 140.252 211.051 143.421 211.051Z" fill="white"/>
<path d="M143.414 286.579L143.424 216.784L255.238 216.794L255.228 286.579H143.414Z" fill="white"/>
<path d="M255.231 287.041L143.088 286.908C142.841 286.668 142.278 286.9 142.954 216.785C142.957 216.528 143.169 216.325 143.421 216.325H255.238C255.488 216.335 255.698 216.53 255.698 216.797V286.582C255.693 286.839 255.483 287.041 255.231 287.041ZM143.881 286.125L254.771 286.12V217.256L143.881 217.251V286.125Z" fill="black"/>
<path d="M216.778 320.833H181.879L185.263 300.959H213.394L216.778 320.833Z" fill="white"/>
<path d="M255.242 210.476H143.415C139.935 210.476 137.109 213.306 137.109 216.781V295.214C137.109 298.694 139.94 301.52 143.415 301.52H184.598L181.325 320.739C181.261 321.065 181.52 321.393 181.878 321.393C217.184 321.393 216.947 321.507 217.209 321.193C217.458 320.912 217.57 322.132 214.06 301.52H255.242C258.722 301.52 261.548 298.689 261.548 295.214V216.781C261.548 213.301 258.717 210.476 255.242 210.476ZM216.107 320.27H182.538L185.731 301.522H212.911L216.107 320.27ZM260.422 295.219C260.422 298.077 258.097 300.401 255.242 300.401H143.415C140.56 300.401 138.233 298.077 138.233 295.219V216.786C138.233 213.929 140.557 211.604 143.415 211.604H255.242C258.097 211.604 260.422 213.929 260.422 216.786V295.219Z" fill="black"/>
<path d="M214.567 307.892L185.078 302.036L185.263 300.959H213.394L214.567 307.892Z" fill="black"/>
<path d="M177.96 296.254H163.577C163.213 296.254 162.918 296.55 162.918 296.913V308.72C162.918 309.083 163.213 309.379 163.577 309.379H177.96C178.325 309.379 178.62 309.083 178.62 308.72V296.913C178.62 296.55 178.325 296.254 177.96 296.254Z" fill="white"/>
<path d="M177.959 309.846H163.578C162.958 309.846 162.457 309.345 162.457 308.725V296.918C162.457 296.298 162.958 295.797 163.578 295.797H177.959C178.579 295.797 179.08 296.298 179.08 296.918V308.725C179.08 309.345 178.579 309.846 177.959 309.846ZM163.578 296.721C163.292 296.721 163.378 295.893 163.378 308.725C163.378 309.019 162.6 308.925 177.959 308.925C178.245 308.925 178.159 309.755 178.159 296.921C178.159 296.61 178.764 296.721 163.578 296.721Z" fill="black"/>
<path d="M175.542 301.327H165.657C164.911 301.327 164.911 300.201 165.657 300.201H175.542C176.288 300.201 176.288 301.327 175.542 301.327Z" fill="black"/>
<path d="M173.07 305.437H165.657C164.911 305.437 164.911 304.311 165.657 304.311H173.07C173.816 304.311 173.816 305.437 173.07 305.437Z" fill="black"/>
<path d="M199.324 290.516C201.083 290.516 202.508 291.941 202.508 293.699C202.508 295.458 201.083 296.883 199.324 296.883C197.566 296.883 196.141 295.458 196.141 293.699C196.141 291.941 197.566 290.516 199.324 290.516Z" fill="white"/>
<path d="M199.325 297.35C197.312 297.35 195.68 295.712 195.68 293.704C195.68 291.696 197.317 290.059 199.325 290.059C201.334 290.059 202.971 291.696 202.971 293.704C202.971 295.712 201.334 297.35 199.325 297.35ZM199.325 290.977C197.821 290.977 196.601 292.2 196.601 293.702C196.601 295.204 197.824 296.426 199.325 296.426C200.827 296.426 202.05 295.204 202.05 293.702C202.05 292.2 200.827 290.977 199.325 290.977Z" fill="black"/>
<path d="M186.368 255.175C184.066 260.579 177.903 263.207 172.407 261.135L167.969 272.885C179.679 277.313 192.95 271.768 197.922 260.1L186.368 255.175Z" fill="#81F889"/>
<path d="M167.767 273.412C167.475 273.303 167.33 272.977 167.438 272.685C172.166 260.009 171.86 260.763 172.173 260.624C172.749 260.37 173.433 261.279 176.278 261.279C180.45 261.279 184.207 258.794 185.847 254.956C185.971 254.669 186.302 254.538 186.586 254.659C199.143 260.074 198.316 259.582 198.442 259.891C198.499 260.029 198.499 260.182 198.442 260.321C193.549 272.06 180.065 277.998 167.767 273.412ZM168.688 272.552C179.786 276.432 192.2 271.315 197.172 260.397L186.645 255.912C184.116 261.131 178.148 263.593 172.732 261.845L168.688 272.552Z" fill="black"/>
<path d="M176.281 239.921V227.363C163.294 227.363 152.762 237.895 152.762 250.883H165.319C165.319 244.831 170.23 239.921 176.281 239.921Z" fill="white"/>
<path d="M165.32 251.443H152.762C152.449 251.443 152.199 251.191 152.199 250.879C152.199 237.598 163.001 226.797 176.282 226.797C176.593 226.797 176.845 227.049 176.845 227.36V239.918C176.845 240.229 176.593 240.481 176.282 240.481C170.549 240.481 165.883 245.144 165.883 250.879C165.883 251.191 165.631 251.443 165.32 251.443ZM153.335 250.316H164.772C165.058 244.408 169.808 239.653 175.716 239.372V227.936C163.507 228.232 153.629 238.107 153.333 250.319L153.335 250.316Z" fill="black"/>
<path d="M165.323 250.88H152.766C152.766 260.94 159.084 269.526 167.971 272.885L172.41 261.135C168.267 259.569 165.323 255.57 165.323 250.88Z" fill="black"/>
<path d="M167.768 273.411C158.466 269.862 152.199 260.839 152.199 250.88C152.199 250.568 152.449 250.316 152.762 250.316H165.32C165.631 250.316 165.883 250.568 165.883 250.88C165.883 255.18 168.58 259.105 172.604 260.606C172.895 260.715 173.041 261.041 172.932 261.333C168.296 273.764 168.496 273.69 167.768 273.411ZM153.335 251.443C153.56 260.525 159.234 268.733 167.644 272.151L171.688 261.446C167.694 259.705 164.986 255.795 164.772 251.443H153.335Z" fill="black"/>
<path d="M186.308 255.032L197.796 259.927C204.327 244.643 193.126 227.388 176.285 227.388V239.869C184.12 239.869 189.351 247.886 186.308 255.032Z" fill="white"/>
<path d="M197.789 260.491C197.542 260.491 197.745 260.412 186.086 255.551C185.81 255.435 185.664 255.101 185.785 254.815C188.7 247.822 183.535 240.434 176.278 240.434C175.964 240.434 175.715 240.185 175.715 239.871V227.39C175.715 227.079 175.964 226.827 176.278 226.827C193.464 226.827 205.007 244.473 198.308 260.15C198.217 260.365 198.012 260.493 197.792 260.493L197.789 260.491ZM187.032 254.736L197.485 259.184C203.339 244.47 192.674 228.336 176.844 227.956V239.32C184.585 239.701 189.702 247.536 187.032 254.736Z" fill="black"/>
<path d="M245.891 239.874H207.495C206.278 239.874 206.278 238.031 207.495 238.031H245.891C247.109 238.031 247.109 239.874 245.891 239.874Z" fill="black"/>
<path d="M238.165 247.824H207.495C206.278 247.824 206.278 245.981 207.495 245.981H238.165C239.383 245.981 239.383 247.824 238.165 247.824Z" fill="black"/>
<path d="M242.298 255.78H207.495C206.278 255.78 206.278 253.938 207.495 253.938H242.298C243.515 253.938 243.515 255.78 242.298 255.78Z" fill="black"/>
<path d="M242.298 263.731H207.495C206.278 263.731 206.278 261.889 207.495 261.889H242.298C243.515 261.889 243.515 263.731 242.298 263.731Z" fill="black"/>
<path d="M289.989 211.051L401.811 211.046C404.98 211.046 407.556 213.622 407.556 216.791V295.224C407.556 298.393 404.98 300.969 401.811 300.969H289.984C286.815 300.969 284.246 298.4 284.246 295.231V216.799C284.246 213.63 286.82 211.051 289.989 211.051Z" fill="white"/>
<path d="M289.988 286.579L289.998 216.784L401.815 216.794L401.805 286.579H289.988Z" fill="white"/>
<path d="M401.805 287.041L289.662 286.908C289.415 286.668 288.817 286.898 289.528 216.785C289.531 216.528 289.743 216.325 289.995 216.325H401.812C402.062 216.335 402.272 216.53 402.272 216.797V286.582C402.267 286.839 402.057 287.041 401.805 287.041ZM290.455 286.125L401.345 286.12V217.256L290.455 217.251V286.125Z" fill="black"/>
<path d="M363.351 320.833H328.449L331.833 300.959H359.964L363.351 320.833Z" fill="white"/>
<path d="M401.815 210.476H289.988C286.505 210.476 283.68 213.306 283.68 216.781V295.214C283.68 298.694 286.51 301.52 289.988 301.52H331.17L327.898 320.739C327.833 321.065 328.093 321.393 328.451 321.393C363.757 321.393 363.52 321.507 363.782 321.193C364.031 320.909 364.135 322.092 360.633 301.52H401.815C405.295 301.52 408.121 298.689 408.121 295.214V216.781C408.121 213.301 405.29 210.476 401.815 210.476ZM362.68 320.27H329.11L332.304 301.522H359.484L362.678 320.27H362.68ZM406.994 295.219C406.994 298.077 404.67 300.401 401.815 300.401H289.988C287.13 300.401 284.806 298.077 284.806 295.219V216.786C284.806 213.929 287.13 211.604 289.988 211.604H401.815C404.67 211.604 406.994 213.929 406.994 216.786V295.219Z" fill="black"/>
<path d="M361.143 307.892L331.648 302.036L331.834 300.959H359.965L361.143 307.892Z" fill="black"/>
<path d="M324.534 296.249H310.152C309.787 296.249 309.492 296.545 309.492 296.909V308.715C309.492 309.081 309.787 309.375 310.152 309.375H324.534C324.899 309.375 325.194 309.081 325.194 308.715V296.909C325.194 296.545 324.899 296.249 324.534 296.249Z" fill="white"/>
<path d="M324.533 309.841H310.153C309.533 309.841 309.031 309.34 309.031 308.72V296.913C309.031 296.293 309.533 295.792 310.153 295.792H324.533C325.153 295.792 325.654 296.293 325.654 296.913V308.72C325.654 309.34 325.153 309.841 324.533 309.841ZM310.153 296.716C309.866 296.716 309.953 295.886 309.953 308.72C309.953 309.014 309.174 308.92 324.533 308.92C324.819 308.92 324.733 309.75 324.733 296.916C324.733 296.605 325.338 296.716 310.153 296.716Z" fill="black"/>
<path d="M322.116 301.323H312.231C311.485 301.323 311.485 300.196 312.231 300.196H322.116C322.862 300.196 322.862 301.323 322.116 301.323Z" fill="black"/>
<path d="M319.644 305.432H312.231C311.485 305.432 311.485 304.306 312.231 304.306H319.644C320.39 304.306 320.39 305.432 319.644 305.432Z" fill="black"/>
<path d="M345.899 290.516C347.657 290.516 349.082 291.941 349.082 293.699C349.082 295.458 347.657 296.883 345.899 296.883C344.14 296.883 342.715 295.458 342.715 293.699C342.715 291.941 344.14 290.516 345.899 290.516Z" fill="white"/>
<path d="M345.9 297.35C343.887 297.35 342.254 295.712 342.254 293.704C342.254 291.696 343.892 290.059 345.9 290.059C347.908 290.059 349.545 291.696 349.545 293.704C349.545 295.712 347.908 297.35 345.9 297.35ZM345.9 290.977C344.395 290.977 343.175 292.2 343.175 293.702C343.175 295.204 344.398 296.426 345.9 296.426C347.401 296.426 348.624 295.204 348.624 293.702C348.624 292.2 347.401 290.977 345.9 290.977Z" fill="black"/>
<path d="M325.096 251.896H318.391V277.732H325.096V251.896Z" fill="#81F889"/>
<path d="M325.098 278.188H318.392C318.135 278.188 317.93 277.983 317.93 277.726V251.887C317.93 251.63 318.135 251.428 318.392 251.428H325.098C325.355 251.428 325.557 251.633 325.557 251.887V277.726C325.557 277.983 325.352 278.188 325.098 278.188ZM318.851 277.266H324.636V252.349H318.851V277.266Z" fill="black"/>
<path d="M331.804 265.001H325.098V277.729H331.804V265.001Z" fill="black"/>
<path d="M331.805 278.188H325.099C324.842 278.188 324.637 277.983 324.637 277.726V264.998C324.637 264.741 324.842 264.536 325.099 264.536H331.805C332.062 264.536 332.267 264.741 332.267 264.998V277.726C332.267 277.983 332.062 278.188 331.805 278.188ZM325.558 277.267H331.343V265.46H325.558V277.267Z" fill="black"/>
<path d="M345.9 237.006H339.191V277.726H345.9V237.006Z" fill="#81F889"/>
<path d="M345.904 278.188H339.198C338.941 278.188 338.738 277.983 338.738 277.726V237.006C338.738 236.749 338.943 236.544 339.198 236.544H345.904C346.161 236.544 346.366 236.749 346.366 237.006V277.726C346.366 277.983 346.161 278.188 345.904 278.188ZM339.657 277.267H345.442V237.468H339.657V277.267Z" fill="black"/>
<path d="M352.611 256.354H345.902V277.726H352.611V256.354Z" fill="black"/>
<path d="M352.611 278.188H345.905C345.648 278.188 345.445 277.983 345.445 277.726V256.353C345.445 256.096 345.65 255.894 345.905 255.894H352.611C352.868 255.894 353.073 256.099 353.073 256.353V277.726C353.073 277.983 352.868 278.188 352.611 278.188ZM346.364 277.266H352.149V256.815H346.364V277.266Z" fill="black"/>
<path d="M366.702 223.48H359.996V277.727H366.702V223.48Z" fill="#81F889"/>
<path d="M366.703 278.188H359.997C359.74 278.188 359.535 277.983 359.535 277.726V223.48C359.535 223.223 359.74 223.021 359.997 223.021H366.703C366.96 223.021 367.165 223.226 367.165 223.48V277.726C367.165 277.983 366.96 278.188 366.703 278.188ZM360.456 277.267H366.241V223.942H360.456V277.267Z" fill="black"/>
<path d="M373.409 236.524H366.703V277.726H373.409V236.524Z" fill="black"/>
<path d="M373.412 278.188H366.706C366.449 278.188 366.246 277.983 366.246 277.726V236.524C366.246 236.267 366.451 236.064 366.706 236.064H373.412C373.668 236.064 373.873 236.269 373.873 236.524V277.726C373.873 277.983 373.668 278.188 373.412 278.188ZM367.165 277.267H372.95V236.986H367.165V277.267Z" fill="black"/>
<path d="M383.775 277.185L379.833 273.243C379.132 272.529 378.02 273.599 378.746 274.328L381.439 277.02H313.222V225.469C315.934 228.181 316.003 228.386 316.458 228.386C317.125 228.386 317.495 227.57 317.001 227.074L313.059 223.132C312.773 222.845 312.261 222.845 311.975 223.132L308.033 227.074C307.316 227.78 308.393 228.885 309.117 228.158L311.812 225.464V277.726C311.812 278.117 312.128 278.433 312.518 278.433H381.441L378.749 281.125C378.265 281.602 378.61 282.437 379.292 282.437C379.737 282.437 379.554 282.459 383.778 278.27C384.079 277.971 384.079 277.487 383.778 277.185H383.775Z" fill="black"/>
<path d="M436.557 211.051L548.383 211.046C551.552 211.046 554.126 213.622 554.126 216.791V295.224C554.126 298.393 551.552 300.969 548.383 300.969H436.562C433.393 300.969 430.816 298.393 430.816 295.224V216.791C430.816 213.622 433.388 211.051 436.557 211.051Z" fill="white"/>
<path d="M436.559 286.579L436.568 216.784L548.385 216.794L548.375 286.579H436.559Z" fill="white"/>
<path d="M548.375 287.041L436.232 286.908C435.985 286.668 435.387 286.898 436.099 216.785C436.101 216.528 436.314 216.325 436.566 216.325H548.382C548.632 216.335 548.842 216.53 548.842 216.797V286.582C548.837 286.839 548.627 287.041 548.375 287.041ZM437.025 286.125L547.916 286.12V217.256L437.025 217.251V286.125Z" fill="black"/>
<path d="M509.921 320.833H475.02L478.403 300.959H506.537L509.921 320.833Z" fill="white"/>
<path d="M548.385 210.476H436.558C433.076 210.476 430.25 213.306 430.25 216.781V295.214C430.25 298.694 433.081 301.52 436.558 301.52H477.741L474.468 320.739C474.404 321.062 474.661 321.393 475.021 321.393C510.327 321.393 510.09 321.507 510.352 321.193C510.602 320.909 510.705 322.092 507.203 301.52H548.385C551.865 301.52 554.691 298.689 554.691 295.214V216.781C554.691 213.301 551.86 210.476 548.385 210.476ZM509.25 320.27H475.681L478.874 301.522H506.054L509.25 320.27ZM553.565 295.219C553.565 298.077 551.24 300.401 548.383 300.401H436.556C433.698 300.401 431.374 298.077 431.374 295.219V216.786C431.374 213.929 433.698 211.604 436.556 211.604H548.383C551.238 211.604 553.565 213.929 553.565 216.786V295.219Z" fill="black"/>
<path d="M507.717 307.892L478.223 302.036L478.405 300.959H506.539L507.717 307.892Z" fill="black"/>
<path d="M492.473 290.516C494.232 290.516 495.657 291.941 495.657 293.699C495.657 295.458 494.232 296.883 492.473 296.883C490.714 296.883 489.289 295.458 489.289 293.699C489.289 291.941 490.714 290.516 492.473 290.516Z" fill="white"/>
<path d="M492.474 297.35C490.461 297.35 488.828 295.712 488.828 293.704C488.828 291.696 490.466 290.059 492.474 290.059C494.482 290.059 496.12 291.696 496.12 293.704C496.12 295.712 494.482 297.35 492.474 297.35ZM492.474 290.977C490.97 290.977 489.749 292.2 489.749 293.702C489.749 295.204 490.972 296.426 492.474 296.426C493.976 296.426 495.198 295.204 495.198 293.702C495.198 292.2 493.976 290.977 492.474 290.977Z" fill="black"/>
<path d="M522.02 227.536H485.519C484.301 227.536 484.301 225.693 485.519 225.693H522.02C523.238 225.693 523.238 227.536 522.02 227.536Z" fill="black"/>
<path d="M513.796 234.299H485.515C484.297 234.299 484.297 232.456 485.515 232.456H513.796C515.014 232.456 515.014 234.299 513.796 234.299Z" fill="black"/>
<path d="M518.201 241.056H485.523C484.305 241.056 484.305 239.214 485.523 239.214H518.201C519.418 239.214 519.418 241.056 518.201 241.056Z" fill="black"/>
<path d="M478.403 223.471H458.863V242.808H478.403V223.471Z" fill="white"/>
<path d="M478.406 243.268H458.866C458.609 243.268 458.406 243.063 458.406 242.808V223.471C458.406 223.214 458.611 223.009 458.866 223.009H478.406C478.663 223.009 478.868 223.214 478.868 223.471V242.808C478.868 243.065 478.663 243.268 478.406 243.268ZM459.325 242.346H477.944V223.933H459.325V242.346Z" fill="black"/>
<path d="M468.638 234.437C466.4 234.437 464.582 232.619 464.582 230.381C464.582 228.143 466.4 226.325 468.638 226.325C470.876 226.325 472.694 228.143 472.694 230.381C472.694 232.619 470.876 234.437 468.638 234.437ZM468.638 227.249C466.906 227.249 465.506 228.657 465.506 230.381C465.506 232.105 466.914 233.513 468.638 233.513C470.362 233.513 471.77 232.105 471.77 230.381C471.77 228.657 470.362 227.249 468.638 227.249Z" fill="black"/>
<path d="M473.18 239.493V237.416C473.18 236.126 472.131 235.082 470.846 235.082H466.427C465.138 235.082 464.093 236.131 464.093 237.416V239.493C464.093 240.103 463.172 240.103 463.172 239.493V237.416C463.172 235.62 464.632 234.155 466.427 234.155H470.846C472.644 234.155 474.102 235.62 474.102 237.416V239.493C474.102 240.103 473.18 240.103 473.18 239.493Z" fill="black"/>
<path d="M467.593 262.449H460.235C459.222 262.449 458.402 261.624 458.402 260.616V253.26C458.402 252.253 459.227 251.428 460.235 251.428H467.593C468.606 251.428 469.426 252.253 469.426 253.26V260.616C469.426 261.624 468.601 262.449 467.593 262.449ZM460.235 252.349C459.734 252.349 459.324 252.759 459.324 253.26V260.616C459.324 261.118 459.734 261.528 460.235 261.528H467.593C468.095 261.528 468.505 261.118 468.505 260.616V253.26C468.505 252.759 468.095 252.349 467.593 252.349H460.235Z" fill="black"/>
<path d="M462.746 259.441L460.456 255.541C459.838 254.482 461.436 253.565 462.044 254.61L463.719 257.46L470.165 250.789C471.015 249.915 472.341 251.194 471.492 252.068L464.2 259.614C463.783 260.046 463.064 259.977 462.746 259.441Z" fill="black"/>
<path d="M500.439 254.367H475.87C474.889 254.367 474.094 255.163 474.094 256.143V257.282C474.094 258.262 474.889 259.058 475.87 259.058H500.439C501.419 259.058 502.215 258.262 502.215 257.282V256.143C502.215 255.163 501.419 254.367 500.439 254.367Z" fill="#81F889"/>
<path d="M500.44 259.517H475.871C474.636 259.517 473.633 258.514 473.633 257.279V256.148C473.633 254.915 474.636 253.91 475.871 253.91H500.44C501.675 253.91 502.678 254.913 502.678 256.148V257.279C502.678 258.512 501.675 259.517 500.44 259.517ZM475.871 254.827C475.144 254.827 474.554 255.414 474.554 256.143V257.274C474.554 258 475.142 258.591 475.871 258.591H500.44C501.166 258.591 501.756 258.003 501.756 257.274V256.143C501.756 255.417 501.168 254.827 500.44 254.827H475.871Z" fill="black"/>
<path d="M524.309 254.367H506.819C505.838 254.367 505.043 255.163 505.043 256.143V257.282C505.043 258.262 505.838 259.058 506.819 259.058H524.309C525.29 259.058 526.085 258.262 526.085 257.282V256.143C526.085 255.163 525.29 254.367 524.309 254.367Z" fill="white"/>
<path d="M524.302 259.517H506.82C505.585 259.517 504.582 258.514 504.582 257.279V256.148C504.582 254.915 505.585 253.91 506.82 253.91H524.302C525.535 253.91 526.54 254.913 526.54 256.148V257.279C526.54 258.512 525.537 259.517 524.302 259.517ZM506.82 254.827C506.094 254.827 505.503 255.414 505.503 256.143V257.274C505.503 258 506.091 258.591 506.82 258.591H524.302C525.029 258.591 525.619 258.003 525.619 257.274V256.143C525.619 255.417 525.031 254.827 524.302 254.827H506.82Z" fill="black"/>
<path d="M467.593 277.087H460.235C459.222 277.087 458.402 276.262 458.402 275.254V267.898C458.402 266.89 459.227 266.065 460.235 266.065H467.593C468.606 266.065 469.426 266.89 469.426 267.898V275.254C469.426 276.262 468.601 277.087 467.593 277.087ZM460.235 266.987C459.734 266.987 459.324 267.397 459.324 267.898V275.254C459.324 275.755 459.734 276.165 460.235 276.165H467.593C468.095 276.165 468.505 275.755 468.505 275.254V267.898C468.505 267.397 468.095 266.987 467.593 266.987H460.235Z" fill="black"/>
<path d="M462.745 274.083L460.455 270.183C459.84 269.123 461.436 268.207 462.043 269.252L463.718 272.102L470.165 265.431C471.014 264.556 472.341 265.836 471.491 266.71L464.2 274.256C463.775 274.693 463.058 274.609 462.745 274.083Z" fill="black"/>
<path d="M500.439 269.002H475.87C474.889 269.002 474.094 269.797 474.094 270.778V271.917C474.094 272.897 474.889 273.692 475.87 273.692H500.439C501.419 273.692 502.215 272.897 502.215 271.917V270.778C502.215 269.797 501.419 269.002 500.439 269.002Z" fill="#81F889"/>
<path d="M500.44 274.155H475.871C474.636 274.155 473.633 273.152 473.633 271.917V270.786C473.633 269.553 474.636 268.548 475.871 268.548H500.44C501.675 268.548 502.678 269.551 502.678 270.786V271.917C502.678 273.149 501.675 274.155 500.44 274.155ZM475.871 269.464C475.144 269.464 474.554 270.052 474.554 270.781V271.912C474.554 272.638 475.142 273.229 475.871 273.229H500.44C501.166 273.229 501.756 272.641 501.756 271.912V270.781C501.756 270.055 501.168 269.464 500.44 269.464H475.871Z" fill="black"/>
<path d="M524.309 269.002H506.819C505.838 269.002 505.043 269.797 505.043 270.778V271.917C505.043 272.897 505.838 273.692 506.819 273.692H524.309C525.29 273.692 526.085 272.897 526.085 271.917V270.778C526.085 269.797 525.29 269.002 524.309 269.002Z" fill="white"/>
<path d="M524.302 274.155H506.82C505.585 274.155 504.582 273.152 504.582 271.917V270.786C504.582 269.553 505.585 268.548 506.82 268.548H524.302C525.535 268.548 526.54 269.551 526.54 270.786V271.917C526.54 273.149 525.537 274.155 524.302 274.155ZM506.82 269.464C506.094 269.464 505.503 270.052 505.503 270.781V271.912C505.503 272.638 506.091 273.229 506.82 273.229H524.302C525.029 273.229 525.619 272.641 525.619 271.912V270.781C525.619 270.055 525.031 269.464 524.302 269.464H506.82Z" fill="black"/>
<path d="M471.109 296.249H456.726C456.363 296.249 456.066 296.545 456.066 296.909V308.715C456.066 309.081 456.363 309.375 456.726 309.375H471.109C471.472 309.375 471.768 309.081 471.768 308.715V296.909C471.768 296.545 471.472 296.249 471.109 296.249Z" fill="white"/>
<path d="M471.107 309.841H456.727C456.107 309.841 455.605 309.34 455.605 308.72V296.913C455.605 296.293 456.107 295.792 456.727 295.792H471.107C471.727 295.792 472.229 296.293 472.229 296.913V308.72C472.229 309.34 471.727 309.841 471.107 309.841ZM456.727 296.716C456.44 296.716 456.527 295.886 456.527 308.72C456.527 309.014 455.749 308.92 471.107 308.92C471.394 308.92 471.307 309.75 471.307 296.916C471.307 296.605 471.912 296.716 456.727 296.716Z" fill="black"/>
<path d="M468.69 301.323H458.806C458.06 301.323 458.06 300.196 458.806 300.196H468.69C469.436 300.196 469.436 301.323 468.69 301.323Z" fill="black"/>
<path d="M466.218 305.432H458.806C458.06 305.432 458.06 304.306 458.806 304.306H466.218C466.964 304.306 466.964 305.432 466.218 305.432Z" fill="black"/>
<path d="M564.089 474.529H95.9149C95.169 474.529 95.169 473.402 95.9149 473.402H564.089C564.835 473.402 564.835 474.529 564.089 474.529Z" fill="black"/>
<path d="M159.44 331.17H134.145V341.03H159.44V331.17Z" fill="white"/>
<path d="M116.237 473.966H108.832L139.391 341.025H146.796L116.237 473.966Z" fill="white"/>
<path d="M154.195 341.025H146.797L177.356 473.971H184.753L154.195 341.025Z" fill="white"/>
<path d="M129.578 415.92H164.062L162.632 409.975H130.944L129.578 415.92Z" fill="white"/>
<path d="M154.902 341.588H159.44C159.753 341.588 160.003 341.336 160.003 341.025V331.165C160.003 330.853 159.751 330.602 159.44 330.602H134.144C133.833 330.602 133.581 330.851 133.581 331.165V341.025C133.581 341.336 133.833 341.588 134.144 341.588H138.687L108.286 473.842C108.199 474.185 108.466 474.528 108.834 474.528H116.237C116.499 474.528 116.723 474.348 116.785 474.094L130.029 416.483H163.555L176.809 474.099C176.87 474.348 177.095 474.528 177.357 474.528C185.288 474.528 184.94 474.622 185.194 474.309C185.466 473.973 185.399 474.259 154.905 341.591L154.902 341.588ZM134.707 340.462V331.728H158.876V340.462H134.707ZM115.79 473.402H109.543L139.84 341.588H146.087L115.79 473.402ZM146.781 343.591L161.927 409.422H131.65L146.783 343.591H146.781ZM130.284 415.357L131.393 410.541H162.184L163.293 415.357H130.284ZM177.792 473.397L147.497 341.588H153.744L184.038 473.397H177.792Z" fill="black"/>
<path d="M132.843 409.975L130.801 415.92H129.578L130.944 409.975H132.843Z" fill="black"/>
<path d="M160.648 409.975L162.691 415.92H163.914L162.548 409.975H160.648Z" fill="black"/>
<path d="M521.537 331.17H496.242V341.03H521.537V331.17Z" fill="white"/>
<path d="M478.332 473.966H470.93L501.489 341.025H508.891L478.332 473.966Z" fill="white"/>
<path d="M516.288 341.025H508.891L539.449 473.971H546.847L516.288 341.025Z" fill="white"/>
<path d="M491.672 415.92H526.153L524.725 409.975H493.038L491.672 415.92Z" fill="white"/>
<path d="M516.996 341.588H521.533C521.845 341.588 522.097 341.336 522.097 341.025V331.165C522.097 330.853 521.845 330.602 521.533 330.602H496.238C495.924 330.602 495.675 330.851 495.675 331.165V341.025C495.675 341.336 495.927 341.588 496.238 341.588H500.78L470.38 473.842C470.293 474.185 470.56 474.528 470.928 474.528H478.331C478.592 474.528 478.817 474.348 478.879 474.094L492.123 416.483H525.646L538.9 474.099C538.962 474.348 539.186 474.528 539.448 474.528C547.379 474.528 547.031 474.622 547.286 474.309C547.557 473.973 547.491 474.259 516.996 341.591V341.588ZM496.801 340.462V331.728H520.97V340.462H496.801ZM477.884 473.402H471.637L501.934 341.588H508.181L477.884 473.402ZM508.875 343.591L524.021 409.422H493.743L508.875 343.591ZM492.377 415.357L493.484 410.541H524.275L525.384 415.357H492.377ZM539.885 473.397L509.591 341.588H515.838L546.132 473.397H539.885Z" fill="black"/>
<path d="M494.937 409.975L492.895 415.92H491.672L493.038 409.975H494.937Z" fill="black"/>
<path d="M522.746 409.975L524.789 415.92H526.011L524.646 409.975H522.746Z" fill="black"/>
<path d="M549.807 320.833H105.879V331.165H549.807V320.833Z" fill="white"/>
<path d="M549.805 331.733H105.88C105.568 331.733 105.316 331.481 105.316 331.17V320.838C105.316 320.526 105.568 320.274 105.88 320.274H549.805C550.119 320.274 550.368 320.526 550.368 320.838V331.17C550.368 331.481 550.119 331.733 549.805 331.733ZM106.44 330.606H549.242V321.401H106.443L106.44 330.606Z" fill="black"/>
<path d="M247.884 407.527C244.241 407.676 236.048 407.658 235.941 407.656L237.102 456.374C237.149 458.236 238.668 459.723 240.533 459.723H243.292C245.157 459.723 246.676 458.239 246.723 456.374L247.884 407.527Z" fill="white"/>
<path d="M265.775 467.027H218.04C216.146 467.027 214.609 468.564 214.609 470.458V473.971H269.204V470.458C269.204 468.564 267.67 467.027 265.775 467.027Z" fill="white"/>
<path d="M300.775 390.269C294.953 389.573 281.566 389.716 264.431 390.269C263.787 388.898 263.337 387.407 262.947 385.855C261.645 380.688 255.937 344.829 252.212 327.01C250.214 317.464 243.587 311.301 215.138 313.499C203.608 314.391 192.263 316.515 190.717 325.197C188.728 336.362 197.062 372.604 200.387 385.776C204.025 400.194 212.816 407.27 236.249 407.663C261.277 408.08 277.006 404 286.778 401.903C292.644 400.646 298.626 399.201 302.432 397.341C307.451 394.891 305.811 390.87 300.773 390.267L300.775 390.269Z" fill="#81F889"/>
<path d="M300.85 389.714C294.475 388.951 281.85 389.207 264.849 389.827C262.303 384.156 257.919 351.535 252.761 326.904C250.672 316.935 243.464 310.753 215.091 312.944C203.68 313.823 191.792 315.96 190.164 325.104C188.099 336.732 196.969 374.523 199.844 385.92C203.749 401.397 213.762 407.683 235.387 408.202L236.536 456.391C236.58 458.175 237.828 459.667 239.475 460.131V466.467H218.04C215.837 466.467 214.046 468.257 214.046 470.461V473.973C214.046 474.284 214.298 474.536 214.61 474.536H269.204C269.515 474.536 269.767 474.284 269.767 473.973V470.461C269.767 468.26 267.974 466.467 265.773 466.467H244.339V460.131C245.988 459.669 247.233 458.177 247.275 456.391L248.429 408.078C264.548 407.384 275.955 404.875 284.014 403.099C289.335 401.918 297.705 400.293 302.685 397.862C308.203 395.17 306.471 390.398 300.847 389.721L300.85 389.714ZM265.781 467.588C267.364 467.588 268.648 468.872 268.648 470.456V473.405H215.18V470.456C215.18 468.875 216.465 467.588 218.048 467.588H265.781ZM246.159 456.362C246.122 457.908 244.837 459.163 243.291 459.163H240.532C238.986 459.163 237.702 457.908 237.665 456.362L236.519 408.231C240.406 408.293 244.042 408.249 247.307 408.128L246.159 456.364V456.362ZM302.198 396.832C297.364 399.196 288.957 400.839 283.777 401.982C273.87 404.168 258.902 407.476 236.267 407.098C224.754 406.907 216.793 405.132 211.208 401.508C206.1 398.196 202.833 393.152 200.938 385.643C196.495 368.037 189.455 335.512 191.271 325.299C192.765 316.913 204.191 314.917 215.18 314.068C219.214 313.761 222.966 313.571 226.416 313.571C240.485 313.571 249.479 316.673 251.667 327.126C255.056 343.317 261.196 381.173 262.409 385.992C263.325 389.637 265.193 393.676 268.112 396.042C269.562 397.215 271.442 397.909 274.67 397.909C278.689 397.909 284.802 396.825 294.776 394.254C295.495 394.071 295.218 392.977 294.494 393.164C277.79 397.475 272.366 397.593 269.246 395.454C267.791 394.456 266.055 392.063 265.413 390.927C282.097 390.321 294.482 390.077 300.716 390.825C305.217 391.374 306.686 394.639 302.196 396.835L302.198 396.832Z" fill="black"/>
<path d="M244.34 326.885C239.361 321.999 228.977 320.413 211.805 321.74C195.676 322.985 195.207 325.902 194.696 324.669C194.599 324.435 194.705 324.163 194.943 324.064C199.947 321.974 206.544 321.224 211.734 320.823C229.187 319.48 239.729 321.216 244.98 326.225C245.419 326.645 244.772 327.31 244.34 326.885Z" fill="black"/>
<path d="M236.017 410.963C236.017 410.963 246.205 409.607 247.843 409.254L247.883 407.527L235.797 407.688L236.017 410.963Z" fill="black"/>
<path d="M397.243 407.527C393.6 407.676 385.407 407.658 385.301 407.656L386.462 456.374C386.509 458.236 388.028 459.723 389.893 459.723H392.651C394.516 459.723 396.035 458.239 396.082 456.374L397.243 407.527Z" fill="white"/>
<path d="M415.139 467.027H367.403C365.509 467.027 363.973 468.564 363.973 470.458V473.971H418.567V470.458C418.567 468.564 417.033 467.027 415.139 467.027Z" fill="white"/>
<path d="M450.138 390.269C444.316 389.573 430.929 389.716 413.795 390.269C413.15 388.898 412.7 387.407 412.31 385.855C411.009 380.688 405.3 344.829 401.576 327.01C399.577 317.464 392.95 311.301 364.501 313.499C352.971 314.391 341.626 316.515 340.08 325.197C338.092 336.364 346.425 372.604 349.75 385.776C353.388 400.194 362.182 407.27 385.612 407.663C410.641 408.08 426.369 404 436.143 401.903C442.01 400.646 447.992 399.201 451.798 397.341C456.817 394.891 455.177 390.872 450.138 390.269Z" fill="#81F889"/>
<path d="M450.214 389.714C443.838 388.951 431.214 389.207 414.213 389.827C411.667 384.156 407.282 351.535 402.125 326.904C400.035 316.935 392.828 310.753 364.455 312.944C353.044 313.823 341.156 315.96 339.528 325.104C337.461 336.732 346.333 374.523 349.208 385.92C353.113 401.397 363.126 407.683 384.751 408.202L385.9 456.391C385.944 458.175 387.189 459.667 388.839 460.131V466.467H367.404C365.201 466.467 363.41 468.257 363.41 470.461V473.973C363.41 474.284 363.662 474.536 363.973 474.536H418.568C418.879 474.536 419.131 474.284 419.131 473.973V470.461C419.131 468.26 417.338 466.467 415.137 466.467H393.702V460.131C395.352 459.669 396.597 458.177 396.639 456.391L397.793 408.078C413.912 407.384 425.318 404.875 433.378 403.099C438.698 401.918 447.069 400.293 452.049 397.862C457.567 395.17 455.835 390.398 450.211 389.721L450.214 389.714ZM415.144 467.588C416.728 467.588 418.012 468.872 418.012 470.456V473.405H364.544V470.456C364.544 468.875 365.828 467.588 367.412 467.588H415.147H415.144ZM395.523 456.362C395.486 457.908 394.201 459.163 392.655 459.163H389.896C388.35 459.163 387.066 457.908 387.028 456.362L385.882 408.231C389.77 408.293 393.406 408.249 396.671 408.128L395.523 456.364V456.362ZM451.562 396.832C446.728 399.196 438.321 400.839 433.141 401.982C423.234 404.168 408.266 407.476 385.63 407.098C374.118 406.907 366.157 405.132 360.57 401.508C355.462 398.196 352.194 393.152 350.3 385.643C345.856 368.037 338.817 335.512 340.632 325.299C342.126 316.913 353.553 314.917 364.542 314.068C368.575 313.761 372.327 313.571 375.778 313.571C389.847 313.571 398.84 316.673 401.028 327.126C404.417 343.317 410.558 381.173 411.77 385.992C412.687 389.637 414.554 393.676 417.474 396.042C418.924 397.215 420.803 397.909 424.032 397.909C428.05 397.909 434.163 396.825 444.137 394.254C444.856 394.071 444.579 392.977 443.856 393.164C427.151 397.475 421.727 397.593 418.607 395.454C417.153 394.456 415.416 392.063 414.774 390.927C431.459 390.321 443.843 390.077 450.078 390.825C454.578 391.374 456.048 394.639 451.557 396.835L451.562 396.832Z" fill="black"/>
<path d="M393.703 326.885C388.724 321.999 378.34 320.413 361.169 321.74C345.039 322.985 344.57 325.902 344.059 324.669C343.963 324.435 344.069 324.163 344.303 324.064C349.308 321.974 355.905 321.224 361.094 320.823C378.547 319.48 389.089 321.216 394.341 326.225C394.78 326.645 394.136 327.31 393.703 326.885Z" fill="black"/>
<path d="M385.38 410.963C385.38 410.963 395.569 409.607 397.206 409.254L397.246 407.527L385.16 407.688L385.38 410.963Z" fill="black"/>
<path d="M208.353 108.608V93.699C208.353 89.0257 204.781 85.2244 200.229 84.765L200.246 20.3918C200.246 19.1741 198.403 19.1741 198.403 20.3918L198.421 84.765C193.868 85.2244 190.297 89.0282 190.297 93.699V108.608C167.711 113.891 154.479 137.48 161.781 159.497H236.869C244.17 137.477 230.938 113.891 208.348 108.608H208.353Z" fill="black"/>
<path d="M354.93 108.608V93.699C354.93 89.0257 351.359 85.2244 346.809 84.765L346.826 20.3918C346.826 19.1741 344.984 19.1741 344.984 20.3918L345.004 84.765C340.451 85.2244 336.88 89.0282 336.88 93.699V108.605C314.292 113.886 301.057 137.477 308.359 159.495H383.447C390.748 137.475 377.519 113.894 354.93 108.608Z" fill="black"/>
<path d="M501.501 108.608V93.699C501.501 89.0331 497.939 85.2343 493.397 84.765V20.3918C493.397 19.1741 491.554 19.1741 491.554 20.3918V84.765C487.012 85.2343 483.45 89.0307 483.45 93.699V108.605C460.862 113.886 447.628 137.477 454.929 159.495H530.017C537.318 137.477 524.089 113.894 501.501 108.608Z" fill="black"/>
</svg>
