<svg width="664" height="447" viewBox="0 0 664 447" fill="none" xmlns="http://www.w3.org/2000/svg">
<path d="M343.272 369.59H91.3555V209.913C91.3555 204.985 95.3501 200.99 100.278 200.99H334.349C339.277 200.99 343.272 204.985 343.272 209.913V369.59Z" fill="white"/>
<path d="M333.656 215.418H100.973V359.972H333.656V215.418Z" fill="white"/>
<path d="M365.917 411.016L343.275 369.59H91.3587L68.7164 411.016C68.08 412.183 68.9234 413.606 70.2513 413.606H364.38C365.71 413.606 366.554 412.183 365.915 411.016H365.917Z" fill="white"/>
<path d="M343.458 393.521H91.1632C89.069 393.521 87.7411 391.279 88.743 389.44L95.8119 376.503C96.2941 375.618 97.2234 375.069 98.232 375.069H336.387C337.396 375.069 338.323 375.618 338.808 376.503L345.879 389.44C346.883 391.279 345.555 393.521 343.458 393.521ZM90.0951 390.18C89.6525 390.988 90.2383 391.979 91.161 391.979H343.456C344.381 391.979 344.967 390.991 344.524 390.18L337.453 377.243C337.24 376.851 336.832 376.609 336.387 376.609H98.2342C97.7894 376.609 97.3798 376.851 97.1662 377.243L90.0951 390.18Z" fill="black"/>
<path d="M366.59 410.646L344.043 369.391V209.911C344.043 204.567 339.693 200.22 334.349 200.22H100.278C94.9338 200.22 90.5846 204.569 90.5846 209.911V369.391L68.0371 410.646C67.165 412.245 68.3101 413.359 68.5766 413.929L72.1066 421.524C72.9742 423.39 74.8482 424.592 76.8852 424.592H357.749C359.786 424.592 361.66 423.39 362.527 421.524L366.057 413.929C366.251 413.518 367.489 412.282 366.597 410.646H366.59ZM92.1261 209.911C92.1261 205.417 95.7838 201.759 100.278 201.759H334.349C338.843 201.759 342.501 205.417 342.501 209.911V368.819H92.1261V209.911ZM364.377 412.835H70.2502C69.5059 412.835 69.0324 412.038 69.3892 411.386L91.8112 370.358H342.814L365.238 411.386C365.593 412.04 365.121 412.835 364.377 412.835Z" fill="black"/>
<path d="M272.981 407.304H161.644C160.171 407.304 159.114 405.904 159.503 404.494L161.054 398.899C161.318 397.941 162.199 397.273 163.194 397.273H271.431C272.424 397.273 273.305 397.943 273.571 398.899L275.124 404.49C275.516 405.904 274.454 407.304 272.981 407.304ZM163.192 398.813C162.888 398.813 162.619 399.018 162.538 399.31L160.988 404.906C160.869 405.335 161.195 405.767 161.642 405.767C273.518 405.767 273.19 405.928 273.518 405.498C273.802 405.126 273.73 405.272 272.08 399.313C271.999 399.02 271.73 398.813 271.426 398.813H163.192Z" fill="black"/>
<path d="M169.305 239.6H117.447C113.856 239.6 110.934 236.678 110.934 233.086C110.934 229.494 113.856 226.572 117.447 226.572H169.305C172.897 226.572 175.819 229.494 175.819 233.086C175.819 236.678 172.897 239.6 169.305 239.6ZM117.447 228.112C114.706 228.112 112.475 230.345 112.475 233.086C112.475 235.828 114.706 238.061 117.447 238.061H169.305C172.047 238.061 174.278 235.828 174.278 233.086C174.278 230.345 172.047 228.112 169.305 228.112H117.447Z" fill="black"/>
<path d="M184.167 261.443H117.447C113.856 261.443 110.934 258.521 110.934 254.929C110.934 251.337 113.856 248.415 117.447 248.415H184.167C187.759 248.415 190.681 251.337 190.681 254.929C190.681 258.521 187.759 261.443 184.167 261.443ZM117.447 249.954C114.706 249.954 112.475 252.187 112.475 254.929C112.475 257.671 114.706 259.904 117.447 259.904H184.167C186.909 259.904 189.14 257.671 189.14 254.929C189.14 252.187 186.909 249.954 184.167 249.954H117.447Z" fill="black"/>
<path d="M316.919 326.973H236.764C233.172 326.973 230.25 324.051 230.25 320.459C230.25 316.868 233.172 313.943 236.764 313.943H316.919C320.511 313.943 323.435 316.866 323.435 320.459C323.435 324.053 320.511 326.973 316.919 326.973ZM236.764 315.483C234.022 315.483 231.791 317.716 231.791 320.459C231.791 323.203 234.022 325.434 236.764 325.434H316.919C319.663 325.434 321.894 323.201 321.894 320.459C321.894 317.718 319.663 315.483 316.919 315.483H236.764Z" fill="black"/>
<path d="M316.925 348.819H117.447C113.856 348.819 110.934 345.897 110.934 342.305C110.934 338.713 113.856 335.791 117.447 335.791H316.925C320.516 335.791 323.441 338.713 323.441 342.305C323.441 345.897 320.516 348.819 316.925 348.819ZM117.447 337.33C114.706 337.33 112.475 339.563 112.475 342.305C112.475 345.047 114.706 347.28 117.447 347.28H316.925C319.669 347.28 321.899 345.047 321.899 342.305C321.899 339.563 319.669 337.33 316.925 337.33H117.447Z" fill="black"/>
<path d="M317.779 239.6H260.455C256.864 239.6 253.941 236.678 253.941 233.086C253.941 229.494 256.864 226.572 260.455 226.572H317.779C320.899 226.572 323.436 229.109 323.436 232.227V233.943C323.436 237.061 320.897 239.6 317.779 239.6ZM260.455 228.112C257.714 228.112 255.483 230.345 255.483 233.086C255.483 235.828 257.714 238.061 260.455 238.061H317.779C320.049 238.061 321.895 236.213 321.895 233.945V232.23C321.895 229.961 320.049 228.114 317.779 228.114L260.455 228.112Z" fill="black"/>
<path d="M316.062 305.129H248.838C244.771 305.129 241.461 301.821 241.461 297.752V255.788C241.461 251.719 244.771 248.411 248.838 248.411H316.062C320.13 248.411 323.439 251.719 323.439 255.788V297.752C323.439 301.821 320.13 305.129 316.062 305.129ZM248.838 249.953C245.621 249.953 243.002 252.571 243.002 255.788V297.752C243.002 300.969 245.619 303.588 248.838 303.588H316.062C319.28 303.588 321.898 300.969 321.898 297.752V255.788C321.898 252.571 319.282 249.953 316.062 249.953H248.838Z" fill="black"/>
<path d="M274.775 289.795L268.056 270.916L258.367 289.374C258.078 289.923 257.286 289.92 256.999 289.37L250.798 277.441L242.877 289.61C242.316 290.469 241.032 289.617 241.584 288.767C250.994 274.307 250.248 275.164 250.91 275.142C251.549 275.173 251.034 274.55 257.689 287.348L267.51 268.639C267.834 268.029 268.701 268.126 268.919 268.74L275.609 287.538L287.061 263.772C287.309 263.257 288.175 263.149 288.459 263.797L296.633 282.215L303.702 266.199C303.953 265.635 304.755 265.565 305.074 266.124L312.636 279.192L322.006 263.469C322.526 262.592 323.851 263.378 323.332 264.255L313.29 281.105C312.927 281.718 312.202 281.517 311.96 281.099L304.501 268.208L297.342 284.431C297.071 285.041 296.202 285.041 295.933 284.431L287.728 265.942L276.197 289.87C275.902 290.48 275.008 290.44 274.777 289.793L274.775 289.795Z" fill="black"/>
<path d="M183.306 327.335H118.311C114.243 327.335 110.934 324.027 110.934 319.958V277.633C110.934 273.563 114.243 270.256 118.311 270.256H183.306C187.374 270.256 190.684 273.563 190.684 277.633V319.958C190.684 324.027 187.374 327.335 183.306 327.335ZM118.311 271.797C115.093 271.797 112.475 274.416 112.475 277.633V319.958C112.475 323.175 115.091 325.793 118.311 325.793H183.306C186.524 325.793 189.142 323.175 189.142 319.958V277.633C189.142 274.416 186.526 271.797 183.306 271.797H118.311Z" fill="black"/>
<path d="M136.987 327.337H123.325C122.9 327.337 122.555 326.993 122.555 326.566V304.36C122.555 303.935 122.9 303.589 123.325 303.589H136.987C137.412 303.589 137.758 303.932 137.758 304.36V326.566C137.758 326.991 137.412 327.337 136.987 327.337ZM124.096 325.797H136.214V305.13H124.096V325.797Z" fill="black"/>
<path d="M157.64 327.336H143.978C143.553 327.336 143.207 326.992 143.207 326.565V293.205C143.207 292.78 143.553 292.435 143.978 292.435H157.64C158.065 292.435 158.41 292.778 158.41 293.205V326.565C158.41 326.99 158.065 327.336 157.64 327.336ZM144.749 325.797H156.867V293.976H144.749V325.797Z" fill="black"/>
<path d="M178.284 327.337H164.622C164.197 327.337 163.852 326.993 163.852 326.566V279.581C163.852 279.156 164.197 278.811 164.622 278.811H178.284C178.709 278.811 179.055 279.154 179.055 279.581V326.566C179.055 326.991 178.709 327.337 178.284 327.337ZM165.393 325.797H177.511V280.352H165.393V325.797Z" fill="black"/>
<path d="M333.661 214.647H100.978C100.553 214.647 100.207 214.991 100.207 215.418V359.974C100.207 360.399 100.553 360.745 100.978 360.745H333.661C334.086 360.745 334.432 360.402 334.432 359.974V215.418C334.432 214.993 334.086 214.647 333.661 214.647ZM332.89 359.204H101.749V216.189H332.89V359.204Z" fill="black"/>
<path d="M149.039 185.143L197.407 251.173C199.6 254.164 200.917 257.703 201.225 261.396L206.722 328.085C206.722 331.262 224.061 331.262 224.061 328.085L229.558 261.396C229.866 257.703 231.183 254.164 233.376 251.173L281.743 185.143C248.3 197.653 182.366 197.607 149.039 185.143Z" fill="#81F889"/>
<path d="M149.582 185.343L153.026 189.998C186.307 200.37 244.472 200.37 277.752 189.998L281.196 185.343C247.53 197.664 182.693 197.461 149.582 185.343Z" fill="black"/>
<path d="M215.397 194.505C263.452 194.505 302.407 181.141 302.407 164.655C302.407 148.17 263.452 134.806 215.397 134.806C167.343 134.806 128.387 148.17 128.387 164.655C128.387 181.141 167.343 194.505 215.397 194.505Z" fill="white"/>
<path d="M303.175 164.654C303.175 138.665 241.545 134.036 215.394 134.036C189.244 134.036 127.613 138.667 127.613 164.654C127.613 173.441 134.649 180.527 148.558 185.779L196.791 251.627C198.898 254.508 200.169 257.906 200.462 261.458L205.954 328.085C205.954 331.014 213.181 331.243 215.397 331.243C217.612 331.243 224.839 331.014 224.835 328.149L230.331 261.462C230.626 257.908 231.895 254.508 234.002 251.63L282.235 185.782C296.142 180.53 303.178 173.443 303.178 164.657L303.175 164.654ZM232.756 250.716C230.481 253.823 229.111 257.494 228.794 261.332L223.296 328.083C223.296 328.631 220.508 329.697 215.397 329.697C210.285 329.697 207.495 328.631 207.493 328.019L201.997 261.33C201.682 257.494 200.31 253.823 198.035 250.714L151.152 186.707C184.904 198.228 246.449 198.036 279.644 186.707L232.758 250.714L232.756 250.716ZM273.418 187.015C241.186 195.98 189.605 195.982 157.373 187.015C138.65 181.809 129.157 174.287 129.157 164.654C129.157 155.022 138.65 147.5 157.373 142.294C189.616 133.331 241.175 133.331 273.418 142.294C292.141 147.5 301.634 155.022 301.634 164.654C301.634 174.287 292.141 181.809 273.418 187.015Z" fill="black"/>
<path d="M215.392 184.59C173.651 184.59 140.146 176.125 137.45 164.903C137.331 164.266 137.27 164.028 137.27 163.407C137.27 151.525 171.585 142.221 215.39 142.221C259.195 142.221 293.51 151.527 293.51 163.407C293.51 163.949 293.427 164.541 293.325 164.922C290.592 176.136 257.105 184.59 215.392 184.59ZM138.961 164.588C141.502 174.772 175.752 183.05 215.392 183.05C255.033 183.05 289.28 174.772 291.821 164.588C291.867 164.341 291.971 164.009 291.971 163.407C291.971 152.758 256.902 143.76 215.392 143.76C173.882 143.76 138.813 152.758 138.813 163.407C138.813 163.925 138.879 164.165 138.961 164.588Z" fill="black"/>
<path d="M269.854 178.259C264.686 172.371 251.718 167.57 235.166 165.416C234.173 165.291 234.332 163.782 235.365 163.89C252.279 166.09 265.606 171.082 271.015 177.244C271.691 178.01 270.515 179.014 269.854 178.259Z" fill="black"/>
<path d="M159.77 177.244C165.353 170.884 179.2 165.826 196.817 163.712C197.814 163.582 198.023 165.117 196.999 165.242C179.75 167.31 166.267 172.177 160.929 178.257C160.268 179.01 159.092 178.013 159.77 177.244Z" fill="black"/>
<path d="M132.604 5.41992H6.46875V121.47H132.604V5.41992Z" fill="white"/>
<path d="M121.387 21.0912L103.761 66.3713L86.5714 31.657C86.2808 31.0647 85.3823 31.0779 85.1511 31.7495L67.0188 84.5829L47.1336 45.9774C46.8121 45.352 45.9268 45.4577 45.7154 46.0898L28.5609 98.1171C28.2416 99.0839 29.706 99.5661 30.0253 98.5994L46.6029 48.3183L66.4748 86.8973C66.8184 87.5668 67.6882 87.3796 67.8886 86.7938L86.0099 33.9979C103.418 69.1152 103.14 68.8443 103.616 69.0139C103.937 69.1064 104.252 69.0007 104.433 68.7738C104.609 68.5558 104.433 68.7584 122.823 21.6506C123.191 20.7059 121.759 20.1355 121.387 21.0912Z" fill="black"/>
<path d="M132.607 4.65039H6.47387C6.04886 4.65039 5.70312 4.99392 5.70312 5.42113V121.471C5.70312 121.896 6.04886 122.242 6.47387 122.242H132.609C133.034 122.242 133.38 121.898 133.38 121.471V5.42113C133.38 4.99612 133.032 4.65039 132.607 4.65039ZM131.836 120.7H14.8221V6.18968H131.836V120.7Z" fill="black"/>
<path d="M46.3784 55.2977C50.3347 55.2977 53.5419 52.0903 53.5419 48.1342C53.5419 44.1779 50.3347 40.9707 46.3784 40.9707C42.422 40.9707 39.2148 44.1779 39.2148 48.1342C39.2148 52.0903 42.422 55.2977 46.3784 55.2977Z" fill="white"/>
<path d="M46.3779 56.0668C42.0022 56.0668 38.4414 52.5081 38.4414 48.1325C38.4414 43.7569 42.0022 40.1982 46.3779 40.1982C50.7535 40.1982 54.3143 43.7569 54.3143 48.1325C54.3143 52.5081 50.7535 56.0668 46.3779 56.0668ZM46.3779 41.7397C42.8523 41.7397 39.9851 44.6091 39.9851 48.1325C39.9851 51.6559 42.8523 54.5253 46.3779 54.5253C49.9035 54.5253 52.7706 51.6559 52.7706 48.1325C52.7706 44.6091 49.9035 41.7397 46.3779 41.7397Z" fill="black"/>
<path d="M85.8823 39.162C89.8386 39.162 93.0458 35.9548 93.0458 31.9985C93.0458 28.0424 89.8386 24.835 85.8823 24.835C81.9259 24.835 78.7188 28.0424 78.7188 31.9985C78.7188 35.9548 81.9259 39.162 85.8823 39.162Z" fill="white"/>
<path d="M85.8757 39.9342C81.5 39.9342 77.9414 36.3756 77.9414 31.9999C77.9414 27.6243 81.5 24.0635 85.8757 24.0635C90.2513 24.0635 93.8121 27.6221 93.8121 31.9999C93.8121 36.3778 90.2513 39.9342 85.8757 39.9342ZM85.8757 25.605C82.3501 25.605 79.4829 28.4743 79.4829 31.9999C79.4829 35.5255 82.3501 38.3927 85.8757 38.3927C89.4013 38.3927 92.2684 35.5233 92.2684 31.9999C92.2684 28.4765 89.4013 25.605 85.8757 25.605Z" fill="black"/>
<path d="M67.1635 93.703C71.1198 93.703 74.327 90.4958 74.327 86.5395C74.327 82.5832 71.1198 79.376 67.1635 79.376C63.2072 79.376 60 82.5832 60 86.5395C60 90.4958 63.2072 93.703 67.1635 93.703Z" fill="white"/>
<path d="M67.1608 94.4752C62.7852 94.4752 59.2266 90.9166 59.2266 86.5409C59.2266 82.1653 62.7852 78.6045 67.1608 78.6045C71.5364 78.6045 75.0973 82.1631 75.0973 86.5409C75.0973 90.9188 71.5364 94.4752 67.1608 94.4752ZM67.1608 80.146C63.6352 80.146 60.768 83.0153 60.768 86.5409C60.768 90.0666 63.6352 92.9337 67.1608 92.9337C70.6864 92.9337 73.5536 90.0643 73.5536 86.5409C73.5536 83.0175 70.6864 80.146 67.1608 80.146Z" fill="black"/>
<path d="M29.2963 105.52C33.2524 105.52 36.4598 102.313 36.4598 98.3569C36.4598 94.4005 33.2524 91.1934 29.2963 91.1934C25.34 91.1934 22.1328 94.4005 22.1328 98.3569C22.1328 102.313 25.34 105.52 29.2963 105.52Z" fill="white"/>
<path d="M29.2958 106.293C24.9202 106.293 21.3594 102.734 21.3594 98.3583C21.3594 93.9827 24.9202 90.4219 29.2958 90.4219C33.6715 90.4219 37.2323 93.9805 37.2323 98.3583C37.2323 102.736 33.6715 106.293 29.2958 106.293ZM29.2958 91.9634C25.7702 91.9634 22.9028 94.8327 22.9028 98.3583C22.9028 101.884 25.7702 104.751 29.2958 104.751C32.8214 104.751 35.6886 101.882 35.6886 98.3583C35.6886 94.8349 32.8214 91.9634 29.2958 91.9634Z" fill="black"/>
<path d="M103.843 75.4413C107.8 75.4413 111.007 72.2341 111.007 68.2778C111.007 64.3214 107.8 61.1143 103.843 61.1143C99.8869 61.1143 96.6797 64.3214 96.6797 68.2778C96.6797 72.2341 99.8869 75.4413 103.843 75.4413Z" fill="white"/>
<path d="M103.848 76.2103C99.4727 76.2103 95.9141 72.6517 95.9141 68.276C95.9141 63.9004 99.4727 60.3418 103.848 60.3418C108.224 60.3418 111.785 63.9004 111.785 68.276C111.785 72.6517 108.224 76.2103 103.848 76.2103ZM103.848 61.8833C100.323 61.8833 97.4556 64.7526 97.4556 68.276C97.4556 71.7994 100.323 74.6688 103.848 74.6688C107.374 74.6688 110.241 71.7994 110.241 68.276C110.241 64.7526 107.374 61.8833 103.848 61.8833Z" fill="black"/>
<path d="M404.071 44.0215C415.934 57.9367 421.004 77.2449 415.976 96.2625C407.828 127.081 376.239 145.46 345.42 137.312C327.924 132.686 314.441 120.506 307.539 105.201C316.114 128.548 338.098 143.668 362.599 143.668C387.784 143.668 411.953 126.938 419.048 100.103C424.527 79.3876 418.128 58.2758 404.071 44.0215Z" fill="black"/>
<path d="M415.974 96.264C407.824 127.083 376.236 145.462 345.418 137.314C312.135 128.514 293.912 92.7142 306.361 60.6182L360.172 81.5098L358.514 23.8031C396.983 22.7174 425.835 58.9688 415.974 96.264Z" fill="white"/>
<path d="M360.16 140.007C319.132 140.007 290.804 98.6225 305.646 60.3364C305.719 60.147 305.867 59.9928 306.054 59.9113C306.523 59.711 306.138 59.7021 359.372 80.3691C357.736 23.2944 357.614 23.6357 357.958 23.2702C358.099 23.1227 358.293 23.0346 358.497 23.0302C397.561 21.9467 426.684 58.7861 416.719 96.46C409.794 122.65 386.055 140.007 360.158 140.007H360.16ZM306.809 61.6158C295.054 93.2075 313.204 127.994 345.617 136.567C375.974 144.596 407.204 126.422 415.233 96.0614C424.786 59.9356 397.297 24.0431 359.312 24.5518L360.944 81.4856C360.962 82.0273 360.418 82.4303 359.894 82.2255L306.809 61.6158Z" fill="black"/>
<path d="M351.378 14.4546C351.37 14.1596 351.455 14.3754 348.93 10.4204C348.791 10.2023 348.544 10.057 348.258 10.0658L349.876 66.4821L297.263 46.0552C297.177 46.2776 297.195 46.5353 297.332 46.7489C299.901 50.7678 299.705 50.5696 300.029 50.6929L352.204 70.8952C352.642 70.8952 352.986 70.5362 352.975 70.1046L351.378 14.4546Z" fill="black"/>
<path d="M348.283 10.835L349.88 66.4827L297.984 46.3332C307.749 26.3446 326.856 13.2617 348.283 10.835Z" fill="#81F889"/>
<path d="M349.876 67.255L297.703 47.0527C297.285 46.892 297.091 46.4031 297.289 45.9979C307.351 25.3926 326.943 12.4794 348.193 10.0725C349.405 9.88975 349.081 8.11484 350.649 66.4644C350.66 66.8983 350.314 67.255 349.876 67.255ZM299.046 45.9208L349.072 65.3436L347.533 11.7021C326.643 14.3513 308.538 27.1235 299.046 45.9208Z" fill="black"/>
<path d="M224.66 158.785V153.013C224.66 151.993 226.202 151.993 226.202 153.013V158.785C226.202 159.804 224.66 159.804 224.66 158.785ZM224.66 147.243V141.474C224.66 140.454 226.202 140.454 226.202 141.474V147.243C226.202 148.263 224.66 148.263 224.66 147.243ZM224.66 135.704V129.935C224.66 128.915 226.202 128.915 226.202 129.935V135.704C226.202 136.724 224.66 136.724 224.66 135.704ZM224.66 124.163V118.393C224.66 117.374 226.202 117.374 226.202 118.393V124.163C226.202 125.183 224.66 125.183 224.66 124.163ZM224.66 112.624V106.854C224.66 105.835 226.202 105.835 226.202 106.854V112.624C226.202 113.643 224.66 113.643 224.66 112.624ZM224.66 101.085V95.3151C224.66 94.2955 226.202 94.2955 226.202 95.3151V101.085C226.202 102.104 224.66 102.104 224.66 101.085ZM224.66 89.5433V83.7738C224.66 82.7542 226.202 82.7542 226.202 83.7738V89.5433C226.202 90.5629 224.66 90.5629 224.66 89.5433ZM225.431 78.7089C224.268 78.7089 224.572 77.1035 225.431 77.1035H231.073C232.092 77.1035 232.092 78.6428 231.073 78.6428H225.719C225.631 78.6868 225.534 78.7067 225.433 78.7067L225.431 78.7089ZM288.775 78.645H283.005C281.986 78.645 281.986 77.1057 283.005 77.1057H288.775C289.795 77.1057 289.795 78.645 288.775 78.645ZM277.234 78.645H271.464C270.445 78.645 270.445 77.1057 271.464 77.1057H277.234C278.253 77.1057 278.253 78.645 277.234 78.645ZM265.695 78.645H259.923C258.903 78.645 258.903 77.1057 259.923 77.1057H265.695C266.714 77.1057 266.714 78.645 265.695 78.645ZM254.153 78.645H248.381C247.362 78.645 247.362 77.1057 248.381 77.1057H254.153C255.173 77.1057 255.173 78.645 254.153 78.645ZM242.612 78.645H236.842C235.823 78.645 235.823 77.1057 236.842 77.1057H242.612C243.631 77.1057 243.631 78.645 242.612 78.645Z" fill="black"/>
<path d="M209.224 157.368L209.169 151.598C209.158 150.581 210.702 150.567 210.711 151.585L210.766 157.354C210.777 158.372 209.233 158.385 209.224 157.368ZM209.112 145.826L209.057 140.057C209.046 139.039 210.59 139.026 210.598 140.044L210.653 145.813C210.664 146.83 209.121 146.844 209.112 145.826ZM209 134.287L208.945 128.518C208.934 127.474 210.477 127.533 210.486 128.504L210.541 134.274C210.552 135.291 209.008 135.305 209 134.287ZM208.887 122.748L208.832 116.978C208.821 115.961 210.365 115.948 210.374 116.965L210.429 122.735C210.44 123.752 208.896 123.765 208.887 122.748ZM208.775 111.209L208.72 105.439C208.709 104.422 210.253 104.409 210.261 105.426L210.316 111.196C210.327 112.213 208.784 112.226 208.775 111.209ZM208.663 99.6698L208.608 93.9002C208.597 92.8828 210.14 92.8696 210.149 93.887L210.204 99.6566C210.215 100.674 208.671 100.687 208.663 99.6698ZM208.55 88.1306L208.495 82.3611C208.484 81.3437 210.028 81.3305 210.037 82.3479L210.092 88.1174C210.103 89.1348 208.559 89.148 208.55 88.1306ZM208.438 76.5915L208.383 70.822C208.379 70.3991 208.72 70.049 209.147 70.0446C209.515 70.0182 209.922 70.3815 209.927 70.8087L209.982 76.5783C209.993 77.5957 208.447 77.6089 208.438 76.5915ZM208.326 65.0524L208.271 59.2828C208.26 58.2434 209.803 58.2897 209.812 59.2696L209.867 65.0392C209.878 66.0566 208.335 66.0698 208.326 65.0524ZM203.532 59.7805H197.762C196.743 59.7805 196.743 58.2412 197.762 58.2412H203.532C204.551 58.2412 204.551 59.7805 203.532 59.7805ZM191.99 59.7805H186.221C185.201 59.7805 185.201 58.2412 186.221 58.2412H191.99C193.01 58.2412 193.01 59.7805 191.99 59.7805ZM180.451 59.7805H174.679C173.66 59.7805 173.66 58.2412 174.679 58.2412H180.451C181.471 58.2412 181.471 59.7805 180.451 59.7805ZM168.91 59.7805H163.138C162.119 59.7805 162.119 58.2412 163.138 58.2412H168.91C169.929 58.2412 169.929 59.7805 168.91 59.7805ZM157.369 59.7805H151.599C150.579 59.7805 150.579 58.2412 151.599 58.2412H157.369C158.388 58.2412 158.388 59.7805 157.369 59.7805ZM145.827 59.7805H140.058C139.038 59.7805 139.038 58.2412 140.058 58.2412H145.827C146.847 58.2412 146.847 59.7805 145.827 59.7805Z" fill="black"/>
<path d="M256.987 37.3701C246.087 37.3701 237.219 46.2359 237.219 57.1386C237.219 66.3104 251.101 90.9258 255.355 98.2523C256.082 99.5031 257.892 99.5031 258.619 98.2523C262.874 90.9258 276.753 66.3104 276.753 57.1386C276.753 46.2381 267.888 37.3701 256.987 37.3701ZM266.666 57.1386C266.666 62.4765 262.323 66.8191 256.987 66.8191C251.651 66.8191 247.309 62.4765 247.309 57.1386C247.309 51.8006 251.651 47.458 256.987 47.458C262.323 47.458 266.666 51.8006 266.666 57.1386Z" fill="black"/>
<path d="M86.3292 133.662L17.5156 156.107L33.6667 205.624L102.48 183.179L86.3292 133.662Z" fill="white"/>
<path d="M103.217 182.938C86.8153 132.756 87.2029 132.881 86.322 132.89L17.281 155.371C16.9133 155.495 16.6777 155.876 16.7701 156.281C33.0989 206.355 32.828 206.053 33.3213 206.311C33.5173 206.408 33.7353 206.414 33.9093 206.357L102.723 183.911C103.129 183.777 103.349 183.341 103.217 182.938ZM84.7189 134.997L62.1031 176.104L19.6131 156.235L84.7189 134.997ZM33.8146 203.574L18.8049 157.558L50.859 172.559L33.8146 203.574ZM35.1601 204.325L52.2574 173.213L61.4072 177.494C62.189 177.857 63.0962 177.54 63.4992 176.809L68.3637 167.957L100.515 183.004L35.1623 204.322L35.1601 204.325ZM69.108 166.604L86.1525 135.59L101.162 181.605L69.108 166.604Z" fill="black"/>
<path d="M175.771 87.2256L179.462 94.704L187.717 95.9042L181.743 101.727L183.154 109.947L175.771 106.065L168.387 109.947L169.799 101.727L163.824 95.9042L172.08 94.704L175.771 87.2256Z" fill="white"/>
<path d="M183.153 110.717C182.879 110.717 183.441 110.968 175.769 106.936L168.746 110.629C168.187 110.924 167.517 110.451 167.628 109.816L168.969 101.995L163.285 96.4562C162.823 96.0048 163.087 95.2318 163.712 95.1393L171.565 93.9964L175.077 86.8814C175.337 86.3573 176.2 86.3573 176.46 86.8814L179.973 93.9964L187.825 95.1393C188.453 95.2318 188.713 96.0048 188.253 96.4562L182.571 101.995L183.912 109.816C183.994 110.288 183.633 110.717 183.153 110.717ZM165.48 96.443C170.845 101.671 170.649 101.314 170.556 101.858L169.411 108.539L175.412 105.384C175.905 105.122 175.727 105.172 182.131 108.539C180.865 101.151 180.814 101.561 181.208 101.173L186.062 96.443L179.354 95.4696C178.797 95.3882 178.955 95.419 175.773 88.969C172.466 95.67 172.739 95.3904 172.193 95.4696L165.48 96.443Z" fill="black"/>
<path d="M389.329 182.889L391.943 190.209L399.454 192.208L393.299 196.956L393.722 204.716L387.303 200.33L380.051 203.131L382.24 195.672L377.336 189.64L385.107 189.416L389.329 182.889Z" fill="#81F889"/>
<path d="M393.717 205.488C393.376 205.488 393.794 205.706 387.199 201.196L380.326 203.85C379.742 204.083 379.128 203.535 379.308 202.914L381.383 195.843L376.736 190.124C376.333 189.626 376.675 188.886 377.313 188.869L384.677 188.657L388.678 182.467C389.064 181.881 389.854 182.075 390.053 182.628L392.528 189.567L399.647 191.458C400.262 191.621 400.425 192.421 399.92 192.813L394.087 197.314L394.488 204.673C394.51 205.116 394.16 205.484 393.717 205.484V205.488ZM387.3 199.562C387.641 199.562 387.331 199.419 392.862 203.2C392.493 196.407 392.387 196.682 392.823 196.345L397.74 192.55C391.189 190.809 391.394 190.989 391.209 190.469L389.123 184.621C385.428 190.335 385.675 190.174 385.124 190.188L378.916 190.366C383.195 195.627 383.131 195.358 382.977 195.889L381.226 201.85C387.465 199.443 387.077 199.562 387.3 199.562Z" fill="black"/>
</svg>
