<svg width="610" height="460" viewBox="0 0 610 460" fill="none" xmlns="http://www.w3.org/2000/svg">
<path d="M209.573 267.609C203.705 255.05 153.471 236.686 152.287 236.65C108.818 235.348 112.111 235.308 111.711 235.497C110.144 236.234 73.2244 253.66 63.6691 260.329C54.1952 266.938 47.8466 292.828 47.1382 295.827C36.3178 311.938 31.3441 331.27 33.0458 350.603C33.1606 352.435 33.6816 354.219 34.571 355.826C35.4605 357.432 36.6961 358.82 38.1884 359.89C45.7623 365.442 60.7855 364.475 69.7545 362.501C70.0157 362.441 70.2486 362.294 70.4148 362.083C70.581 361.873 70.6705 361.613 70.6686 361.345L214.998 362.833C214.998 285.508 214.864 289.368 215.103 289.342C215.419 289.314 215.71 289.162 215.914 288.919C216.118 288.676 216.217 288.363 216.19 288.047C215.087 280.925 212.853 274.025 209.573 267.609Z" fill="#25523E"/>
<path d="M62.1553 249.196C61.7556 249.062 60.4443 248.801 58.1111 248.023C57.9564 247.979 57.8122 247.904 57.687 247.803C57.5619 247.702 57.4585 247.577 57.383 247.435C57.3075 247.293 57.2614 247.137 57.2474 246.976C57.2335 246.816 57.2521 246.655 57.302 246.502C57.3519 246.349 57.4321 246.207 57.5379 246.086C57.6437 245.965 57.7729 245.866 57.9177 245.796C58.0624 245.726 58.2199 245.686 58.3806 245.678C58.5413 245.67 58.7019 245.694 58.8529 245.75C61.2675 246.516 62.7057 246.875 62.7057 246.875C62.9922 246.967 63.2334 247.164 63.3812 247.426C63.529 247.688 63.5725 247.997 63.503 248.29C63.4336 248.583 63.2563 248.839 63.0065 249.007C62.7567 249.175 62.4527 249.242 62.1553 249.196ZM52.7747 246.109C51.504 245.583 50.2118 245.056 48.9698 244.506C48.8253 244.441 48.6948 244.349 48.5859 244.234C48.477 244.119 48.3918 243.984 48.3351 243.836C48.2785 243.689 48.2515 243.531 48.2557 243.373C48.2599 243.215 48.2952 243.059 48.3596 242.914C48.424 242.77 48.5163 242.639 48.6311 242.53C48.746 242.422 48.8811 242.336 49.0289 242.28C49.1767 242.223 49.3342 242.196 49.4924 242.2C49.6506 242.204 49.8064 242.24 49.951 242.304C51.1235 242.831 52.344 243.357 53.6601 243.884C53.9552 244.001 54.1916 244.231 54.3173 244.522C54.4429 244.814 54.4476 245.144 54.3302 245.439C54.2127 245.734 53.9829 245.97 53.6912 246.096C53.3995 246.222 53.0698 246.226 52.7747 246.109ZM44.4207 242.161C44.2307 242.17 44.0417 242.128 43.8727 242.041C42.6523 241.419 41.4295 240.749 40.233 240.055C40.0967 239.977 39.9774 239.873 39.8819 239.749C39.7863 239.625 39.7166 239.483 39.6767 239.331C39.6368 239.18 39.6276 239.022 39.6495 238.866C39.6715 238.711 39.7242 238.562 39.8046 238.427C39.9664 238.159 40.2248 237.962 40.5268 237.878C40.8288 237.793 41.1517 237.827 41.4295 237.973C42.5805 238.643 43.777 239.289 44.9735 239.911C45.2068 240.037 45.3916 240.237 45.4991 240.479C45.6066 240.721 45.6306 240.992 45.5673 241.25C45.5041 241.507 45.3572 241.736 45.1496 241.901C44.9421 242.066 44.6857 242.157 44.4207 242.161ZM36.0715 237.279C35.8428 237.275 35.6194 237.209 35.4254 237.087C34.205 236.274 33.0803 235.484 32.0274 234.694C31.8996 234.602 31.7914 234.485 31.7089 234.351C31.6263 234.217 31.5712 234.068 31.5465 233.912C31.5218 233.756 31.5281 233.597 31.565 233.444C31.602 233.291 31.6688 233.147 31.7617 233.019C31.9587 232.775 32.2412 232.614 32.5521 232.569C32.863 232.525 33.1793 232.6 33.4368 232.78C34.5376 233.57 35.6384 234.359 36.7368 235.077C36.9549 235.218 37.1214 235.426 37.2109 235.67C37.3004 235.914 37.3082 236.18 37.2331 236.429C37.158 236.677 37.004 236.895 36.7945 237.048C36.5849 237.201 36.3312 237.282 36.0715 237.279ZM28.3637 231.464C27.7774 231.464 27.5165 231.263 24.5133 228.401C24.398 228.293 24.3052 228.163 24.2403 228.019C24.1754 227.875 24.1397 227.719 24.1353 227.561C24.1308 227.403 24.1577 227.246 24.2144 227.098C24.2711 226.951 24.3564 226.816 24.4655 226.702C24.6909 226.479 24.9936 226.353 25.3102 226.348C25.6268 226.344 25.9329 226.462 26.1645 226.678C27.1456 227.611 28.1268 228.497 29.1318 229.358C29.3171 229.516 29.4496 229.728 29.5115 229.964C29.5734 230.199 29.5618 230.448 29.4783 230.677C29.3947 230.906 29.2432 231.104 29.044 231.245C28.8448 231.386 28.6075 231.462 28.3637 231.464ZM20.5649 224.309C19.5598 223.184 18.6959 222.155 17.8847 221.126C17.6915 220.875 17.6054 220.558 17.6453 220.245C17.6852 219.931 17.8479 219.645 18.0977 219.451C18.3492 219.265 18.662 219.181 18.973 219.216C19.284 219.252 19.5698 219.404 19.7728 219.642C22.2902 222.923 22.6444 222.722 22.6444 223.543C22.6363 223.781 22.5575 224.011 22.4182 224.203C22.2788 224.396 22.0852 224.543 21.862 224.625C21.6389 224.707 21.3963 224.721 21.1653 224.665C20.9342 224.608 20.7252 224.484 20.5649 224.309ZM14.5824 216.508C13.8142 215.311 13.0748 214.115 12.4287 212.942C12.3532 212.804 12.3058 212.652 12.2891 212.495C12.2724 212.338 12.2867 212.18 12.3313 212.028C12.3758 211.877 12.4497 211.736 12.5488 211.614C12.6478 211.491 12.77 211.389 12.9085 211.314C13.0469 211.238 13.1988 211.191 13.3556 211.174C13.5123 211.157 13.6708 211.172 13.822 211.216C13.9733 211.261 14.1142 211.335 14.2369 211.434C14.3595 211.533 14.4615 211.655 14.5369 211.793C15.183 212.966 15.877 214.115 16.5949 215.191C16.7694 215.458 16.8308 215.784 16.7655 216.096C16.7002 216.408 16.5136 216.681 16.2467 216.856C15.9798 217.03 15.6545 217.092 15.3424 217.026C15.0303 216.961 14.7569 216.774 14.5824 216.508ZM9.89207 207.869C9.31775 206.577 8.81522 205.284 8.33423 204.016C8.22646 203.718 8.24155 203.389 8.37617 203.102C8.51078 202.815 8.75391 202.593 9.05213 202.485C9.35103 202.381 9.67824 202.395 9.96719 202.524C10.2561 202.653 10.4851 202.887 10.6076 203.179C11.627 206.05 12.187 206.881 12.187 207.366C12.1937 207.644 12.1035 207.915 11.9319 208.134C11.7604 208.352 11.5181 208.505 11.2467 208.564C10.9754 208.623 10.6918 208.587 10.4446 208.46C10.1974 208.333 10.0021 208.124 9.89207 207.869ZM6.66151 198.584C6.30256 197.22 5.99147 195.856 5.72824 194.54C5.66795 194.226 5.73493 193.9 5.91444 193.636C6.09395 193.371 6.37129 193.188 6.68545 193.128C6.9996 193.068 7.32485 193.135 7.58962 193.314C7.8544 193.494 8.03702 193.771 8.09732 194.085C8.33662 195.353 8.62139 196.67 8.98273 197.986C9.06206 198.294 9.01587 198.62 8.85431 198.894C8.69275 199.168 8.42906 199.366 8.12125 199.445C7.81344 199.525 7.48672 199.479 7.21296 199.317C6.93921 199.155 6.74085 198.892 6.66151 198.584ZM4.89069 188.916C4.79737 188.036 4.65139 186.736 4.55567 184.8C4.53981 184.483 4.65065 184.172 4.86382 183.937C5.07699 183.701 5.37502 183.56 5.69235 183.544C6.00968 183.528 6.32032 183.639 6.55593 183.852C6.79153 184.065 6.93281 184.363 6.94868 184.681C6.96543 185.037 7.17123 188.404 7.2837 188.749C7.2947 188.906 7.27464 189.064 7.22467 189.213C7.1747 189.362 7.0958 189.5 6.99247 189.619C6.88914 189.738 6.76341 189.836 6.62246 189.906C6.4815 189.976 6.32808 190.018 6.17095 190.029C5.85362 190.051 5.54046 189.946 5.30036 189.738C5.06027 189.529 4.91291 189.234 4.89069 188.916ZM5.70431 180.349C5.39109 180.349 5.09032 180.227 4.86661 180.007C4.6429 179.788 4.51408 179.49 4.50781 179.177C4.50781 178.811 4.66814 176.126 4.79497 174.965C4.80818 174.809 4.8522 174.657 4.92449 174.519C4.99678 174.38 5.09591 174.257 5.21611 174.157C5.33631 174.056 5.47521 173.981 5.62474 173.935C5.77427 173.889 5.93146 173.873 6.08719 173.888C6.24462 173.903 6.39752 173.949 6.53706 174.024C6.67659 174.098 6.8 174.199 6.90013 174.322C7.00027 174.444 7.07515 174.585 7.12045 174.737C7.16575 174.888 7.18057 175.047 7.16405 175.204C7.042 176.616 6.97261 177.908 6.90082 179.201C6.88008 179.507 6.74598 179.794 6.52471 180.006C6.30345 180.219 6.01093 180.341 5.70431 180.349ZM5.56073 169.581C5.78548 168.137 6.08905 166.707 6.47007 165.297C6.55594 165 6.75354 164.748 7.02143 164.593C7.28932 164.439 7.60667 164.394 7.90693 164.468C8.20718 164.542 8.467 164.73 8.63188 164.992C8.79676 165.253 8.85389 165.569 8.79129 165.872C8.4802 167.116 8.19304 168.384 7.92741 169.796C7.86679 170.083 7.70308 170.337 7.46733 170.511C7.23158 170.685 6.94017 170.767 6.64837 170.74C6.35656 170.714 6.08465 170.581 5.88417 170.367C5.6837 170.154 5.56862 169.874 5.56073 169.581ZM8.02313 160.248C8.45004 158.788 8.97039 157.358 9.58098 155.965C9.71322 155.677 9.94991 155.45 10.2432 155.33C10.5364 155.21 10.8643 155.206 11.1604 155.318C11.45 155.448 11.6774 155.686 11.7937 155.981C11.91 156.276 11.906 156.606 11.7825 156.898C11.28 158.118 10.7966 159.36 10.3467 160.631C10.2527 160.895 10.0688 161.118 9.82725 161.26C9.58565 161.403 9.30169 161.456 9.02496 161.41C8.74823 161.365 8.49631 161.223 8.3132 161.011C8.13009 160.799 8.02742 160.528 8.02313 160.248ZM13.0484 152.59C12.8405 152.591 12.6359 152.537 12.455 152.435C12.2741 152.332 12.123 152.184 12.0167 152.005C11.9104 151.827 11.8526 151.623 11.8489 151.415C11.8451 151.207 11.8957 151.002 11.9955 150.82C12.6416 149.599 13.3093 148.379 14.0296 147.206C14.0972 147.05 14.1975 146.91 14.3238 146.795C14.45 146.68 14.5992 146.594 14.7615 146.542C14.9238 146.49 15.0953 146.473 15.2647 146.492C15.434 146.512 15.5972 146.567 15.7434 146.655C15.8896 146.743 16.0153 146.861 16.1122 147.001C16.2091 147.141 16.2749 147.301 16.3052 147.468C16.3355 147.636 16.3297 147.808 16.288 147.974C16.2463 148.139 16.1698 148.293 16.0636 148.427C13.9817 151.944 14.0774 152.59 13.0484 152.59ZM16.8988 143.114C16.8988 142.621 17.0783 142.375 19.5813 139.118C19.7291 138.931 19.9293 138.792 20.1565 138.719C20.3836 138.647 20.6272 138.644 20.8561 138.711C21.0849 138.777 21.2886 138.911 21.441 139.095C21.5933 139.278 21.6874 139.503 21.7111 139.74C21.8236 140.479 21.5173 140.326 19.0788 143.832C18.9315 144.043 18.72 144.202 18.4757 144.283C18.2313 144.364 17.9672 144.365 17.7226 144.284C17.478 144.204 17.2659 144.046 17.1179 143.835C16.9699 143.625 16.8939 143.372 16.9012 143.114H16.8988ZM24.1304 136.797C23.8131 136.797 23.5088 136.671 23.2844 136.446C23.06 136.222 22.9339 135.917 22.9339 135.6C22.9339 135.095 22.9794 134.932 26.1166 131.795C26.3419 131.57 26.6475 131.443 26.9662 131.443C27.2848 131.443 27.5904 131.57 27.8157 131.795C28.041 132.021 28.1675 132.326 28.1675 132.645C28.1675 132.963 28.041 133.269 27.8157 133.494C24.913 136.318 25.0422 136.797 24.1304 136.797ZM31.0462 130.024C30.806 130.021 30.5722 129.946 30.3754 129.808C30.1785 129.671 30.0277 129.477 29.9425 129.252C29.8573 129.028 29.8417 128.783 29.8977 128.549C29.9537 128.315 30.0787 128.104 30.2565 127.943C31.2592 127.033 32.3384 126.148 33.4392 125.286C33.5597 125.173 33.7025 125.085 33.8586 125.029C34.0146 124.974 34.1805 124.951 34.3458 124.963C34.5111 124.975 34.6721 125.021 34.8186 125.098C34.9652 125.175 35.0941 125.282 35.1972 125.412C35.3003 125.542 35.3753 125.691 35.4175 125.851C35.4598 126.012 35.4682 126.179 35.4425 126.343C35.4167 126.506 35.3572 126.663 35.2677 126.802C35.1783 126.942 35.0609 127.061 34.9229 127.153C31.6804 129.718 31.7928 130.024 31.0462 130.024ZM38.6799 124.09C38.5222 124.092 38.3656 124.063 38.2194 124.003C38.0732 123.944 37.9404 123.856 37.8288 123.744C37.7173 123.633 37.6292 123.5 37.5699 123.354C37.5106 123.208 37.4811 123.051 37.4834 122.893C37.4836 122.696 37.5316 122.501 37.6233 122.326C37.715 122.151 37.8476 122.001 38.0099 121.888C38.2492 121.773 40.0008 120.495 41.0011 119.998C41.2074 119.879 41.4443 119.825 41.6816 119.842C41.9189 119.859 42.1458 119.946 42.3333 120.092C42.5207 120.239 42.6603 120.438 42.7342 120.664C42.8081 120.89 42.8129 121.133 42.748 121.362C42.6573 121.654 42.4611 121.901 42.1976 122.056L42.1498 122.104C39.1824 123.805 39.3212 124.09 38.6799 124.09Z" fill="#25523E"/>
<path d="M380.278 268.029C380.068 268.028 379.862 267.972 379.681 267.867C379.5 267.762 379.349 267.611 379.245 267.429C379.141 267.247 379.086 267.041 379.086 266.831C379.086 266.622 379.141 266.416 379.246 266.234C379.682 265.555 379.751 265.89 383.819 264.464C384.117 264.365 384.442 264.388 384.724 264.526C385.005 264.665 385.221 264.909 385.324 265.205C385.377 265.351 385.401 265.507 385.393 265.662C385.386 265.817 385.348 265.969 385.281 266.109C385.214 266.25 385.12 266.375 385.004 266.479C384.889 266.582 384.753 266.662 384.607 266.713C383.194 267.246 381.748 267.686 380.278 268.029ZM388.22 263.554C388.22 262.415 389.074 262.516 392.626 260.778C392.84 260.682 393.078 260.65 393.31 260.686C393.543 260.722 393.76 260.825 393.935 260.982C394.109 261.139 394.235 261.344 394.296 261.571C394.356 261.799 394.35 262.038 394.277 262.262C394.224 262.41 394.142 262.546 394.035 262.662C393.928 262.777 393.799 262.869 393.655 262.932C390.472 264.523 390.125 264.416 389.898 264.655C389.715 264.732 389.516 264.763 389.319 264.745C389.121 264.727 388.931 264.66 388.765 264.552C388.6 264.443 388.463 264.295 388.368 264.121C388.273 263.947 388.222 263.752 388.22 263.554ZM398.106 260.491C397.844 260.489 397.591 260.401 397.385 260.241C397.178 260.081 397.03 259.858 396.962 259.605C396.894 259.353 396.911 259.086 397.009 258.844C397.108 258.602 397.283 258.399 397.507 258.266C397.593 258.177 398.106 258.007 401.025 256.232C401.299 256.073 401.624 256.027 401.931 256.103C402.239 256.179 402.505 256.371 402.674 256.638C402.755 256.772 402.81 256.92 402.833 257.074C402.857 257.228 402.85 257.386 402.812 257.537C402.774 257.689 402.706 257.831 402.613 257.956C402.519 258.081 402.402 258.187 402.267 258.266C401.192 258.936 400.02 259.63 398.677 260.348C398.503 260.446 398.306 260.495 398.106 260.491ZM406.314 255.394C406 255.394 405.7 255.271 405.476 255.052C405.252 254.833 405.123 254.535 405.117 254.222C405.117 253.279 405.596 253.408 408.874 250.823C408.999 250.72 409.144 250.643 409.299 250.597C409.455 250.551 409.618 250.536 409.779 250.554C409.94 250.572 410.096 250.623 410.237 250.702C410.379 250.781 410.503 250.888 410.602 251.017C410.701 251.145 410.774 251.292 410.815 251.449C410.856 251.605 410.866 251.769 410.843 251.93C410.82 252.09 410.765 252.244 410.681 252.383C410.597 252.522 410.487 252.643 410.355 252.738C407.046 255.251 406.806 255.394 406.314 255.394ZM412.727 248.191C412.727 247.421 412.995 247.55 416.053 244.578C416.282 244.359 416.586 244.236 416.903 244.236C417.219 244.236 417.524 244.359 417.752 244.578C417.863 244.691 417.949 244.824 418.008 244.971C418.066 245.118 418.095 245.275 418.093 245.433C418.09 245.591 418.057 245.747 417.994 245.891C417.931 246.036 417.84 246.167 417.726 246.277C416.769 247.234 415.766 248.191 414.713 249.1C414.539 249.253 414.326 249.352 414.097 249.385C413.868 249.419 413.635 249.386 413.425 249.29C413.215 249.193 413.037 249.039 412.914 248.844C412.79 248.649 412.725 248.422 412.727 248.191ZM419.52 241.371C419.463 240.653 419.968 240.593 422.347 237.47C422.547 237.241 422.828 237.097 423.131 237.068C423.434 237.038 423.737 237.126 423.978 237.312C424.219 237.498 424.38 237.769 424.428 238.07C424.476 238.37 424.408 238.678 424.237 238.93C423.4 240.007 422.538 241.06 421.605 242.137C421.445 242.314 421.235 242.44 421.004 242.497C420.772 242.554 420.528 242.541 420.304 242.458C420.08 242.376 419.885 242.228 419.746 242.035C419.606 241.841 419.528 241.61 419.52 241.371ZM425.312 233.666C425.312 233.024 425.821 232.728 427.563 229.574C427.716 229.294 427.973 229.087 428.278 228.997C428.583 228.908 428.911 228.943 429.191 229.095C429.47 229.247 429.677 229.504 429.767 229.809C429.857 230.115 429.822 230.443 429.669 230.722C428.975 231.943 428.257 233.139 427.516 234.288C427.377 234.504 427.173 234.67 426.933 234.761C426.693 234.852 426.43 234.864 426.183 234.794C425.936 234.724 425.718 234.577 425.561 234.374C425.404 234.171 425.316 233.922 425.312 233.666ZM429.932 225.194C430.385 223.758 430.929 222.351 431.56 220.983C431.671 220.684 431.896 220.442 432.185 220.31C432.475 220.178 432.805 220.166 433.103 220.277C433.401 220.388 433.643 220.613 433.776 220.902C433.908 221.192 433.92 221.522 433.809 221.82C433.307 223.136 432.778 224.429 432.206 225.673C432.09 225.914 431.896 226.109 431.656 226.227C431.416 226.345 431.143 226.379 430.882 226.324C430.62 226.269 430.384 226.128 430.212 225.923C430.04 225.718 429.942 225.462 429.932 225.194ZM434.431 217.321C434.245 217.322 434.062 217.279 433.895 217.196C433.729 217.113 433.584 216.992 433.472 216.844C433.361 216.695 433.285 216.522 433.252 216.34C433.218 216.157 433.228 215.968 433.28 215.79C433.642 214.498 433.974 213.205 434.237 211.913C434.304 211.603 434.491 211.331 434.758 211.159C435.025 210.986 435.349 210.926 435.66 210.993C435.971 211.06 436.242 211.247 436.415 211.514C436.587 211.781 436.647 212.105 436.58 212.416C436.295 213.78 435.936 215.12 435.575 216.436C435.507 216.688 435.359 216.911 435.152 217.071C434.946 217.231 434.692 217.319 434.431 217.321ZM435.171 206.696C435.171 206.416 435.41 205.454 435.628 202.533C435.653 202.215 435.804 201.921 436.046 201.715C436.288 201.508 436.603 201.406 436.92 201.432C437.237 201.457 437.532 201.608 437.738 201.85C437.944 202.092 438.046 202.407 438.021 202.724C437.698 206.476 437.564 206.553 437.564 206.864C437.542 207.181 437.394 207.477 437.154 207.686C436.914 207.894 436.601 207.999 436.283 207.977C435.966 207.955 435.671 207.807 435.462 207.567C435.253 207.327 435.149 207.014 435.171 206.696ZM437.04 198.249C436.727 198.243 436.428 198.114 436.209 197.89C435.99 197.667 435.867 197.366 435.867 197.053C435.867 192.59 435.611 192.721 436.106 192.171C436.267 191.994 436.476 191.87 436.707 191.813C436.939 191.756 437.182 191.77 437.405 191.852C437.629 191.934 437.823 192.082 437.963 192.275C438.102 192.468 438.181 192.699 438.188 192.937C438.258 194.648 438.282 195.789 438.26 197.053C438.256 197.373 438.125 197.678 437.896 197.902C437.668 198.126 437.36 198.251 437.04 198.249ZM435.386 187.529C435.269 186.26 435.101 184.92 434.884 183.532C434.839 183.218 434.921 182.898 435.112 182.645C435.303 182.391 435.587 182.223 435.902 182.179C436.216 182.135 436.536 182.217 436.789 182.408C437.043 182.599 437.211 182.883 437.255 183.197C437.401 184.109 437.779 186.89 437.779 187.409C437.795 187.726 437.684 188.037 437.471 188.272C437.258 188.508 436.96 188.649 436.642 188.665C436.325 188.681 436.014 188.57 435.779 188.357C435.543 188.144 435.402 187.846 435.386 187.529ZM433.95 178.1C433.663 176.664 433.374 175.372 433.086 174.152C433.036 173.852 433.101 173.544 433.269 173.291C433.437 173.038 433.695 172.858 433.99 172.788C434.286 172.718 434.597 172.763 434.861 172.914C435.125 173.065 435.321 173.311 435.41 173.601C435.544 174.142 436.319 177.483 436.319 177.861C436.317 178.156 436.206 178.439 436.007 178.657C435.809 178.875 435.537 179.011 435.243 179.041C434.95 179.071 434.656 178.991 434.418 178.817C434.18 178.644 434.014 178.388 433.953 178.1H433.95ZM431.677 168.815C431.318 167.571 430.935 166.279 430.504 164.939C430.456 164.788 430.438 164.629 430.452 164.472C430.466 164.314 430.51 164.161 430.584 164.021C430.657 163.88 430.757 163.756 430.879 163.655C431 163.554 431.141 163.478 431.292 163.431C431.59 163.344 431.91 163.376 432.186 163.518C432.462 163.661 432.673 163.903 432.775 164.197C433.208 165.561 433.615 166.877 433.972 168.145C434.027 168.299 434.051 168.462 434.041 168.625C434.031 168.788 433.987 168.948 433.913 169.093C433.839 169.239 433.736 169.368 433.61 169.472C433.485 169.577 433.339 169.654 433.182 169.7C433.025 169.746 432.861 169.759 432.699 169.739C432.536 169.718 432.38 169.665 432.239 169.582C432.099 169.5 431.976 169.389 431.88 169.257C431.784 169.125 431.715 168.975 431.679 168.815H431.677ZM428.71 159.698C428.279 158.477 427.798 157.185 427.295 155.917C427.237 155.771 427.208 155.614 427.211 155.457C427.213 155.3 427.246 155.144 427.309 155C427.371 154.855 427.462 154.724 427.575 154.615C427.688 154.505 427.821 154.419 427.968 154.361C428.263 154.25 428.591 154.258 428.881 154.383C429.171 154.508 429.401 154.74 429.523 155.032C430.143 156.407 430.647 157.832 431.031 159.291C431.029 159.571 430.929 159.842 430.748 160.056C430.567 160.27 430.317 160.413 430.041 160.462C429.765 160.51 429.481 160.46 429.238 160.321C428.995 160.181 428.807 159.961 428.71 159.698Z" fill="#25523E"/>
<path fill-rule="evenodd" clip-rule="evenodd" d="M24.5469 85.0562C24.5469 65.0866 48.3788 48.874 77.7338 48.874C107.089 48.874 130.921 65.0866 130.921 85.0562C130.921 96.8585 122.461 107.919 108.254 114.691C107.853 123.406 110.196 132.027 114.955 139.339C105.175 135.736 96.9078 128.922 91.5031 120.011C86.9559 120.837 82.3434 121.251 77.7218 121.248C48.3788 121.243 24.5469 105.026 24.5469 85.0562Z" fill="white"/>
<path fill-rule="evenodd" clip-rule="evenodd" d="M460.341 106.645C460.341 83.0927 432.236 63.9727 397.616 63.9727C362.996 63.9727 334.891 83.0927 334.891 106.645C334.891 120.562 344.869 133.607 361.623 141.583C362.286 150.372 360.046 159.949 353.709 170.643C365.242 166.4 374.994 158.37 381.372 147.867C386.735 148.839 392.173 149.327 397.623 149.324C432.236 149.324 460.341 130.204 460.341 106.645Z" fill="white"/>
<path d="M114.536 140.44C104.794 136.815 96.5044 130.102 90.9343 121.325C86.5807 122.067 82.1723 122.439 77.756 122.438C47.7693 122.438 23.375 105.667 23.375 85.0588C23.375 64.4503 47.7693 47.6777 77.756 47.6777C107.743 47.6777 132.139 64.4479 132.139 85.0588C132.139 97.1411 123.663 108.467 109.427 115.464C109.225 123.7 111.52 131.805 116.011 138.712C116.141 138.927 116.2 139.178 116.179 139.429C116.159 139.679 116.06 139.917 115.897 140.108C115.734 140.299 115.515 140.434 115.27 140.494C115.026 140.554 114.769 140.535 114.536 140.44ZM92.5711 119.401C97.1892 127.069 104.043 133.14 112.213 136.798C108.429 130.033 106.65 122.33 107.082 114.591C107.098 114.381 107.169 114.178 107.289 114.004C107.408 113.83 107.571 113.691 107.762 113.6C121.526 107.039 129.746 96.3706 129.746 85.0493C129.746 65.7569 106.424 50.0612 77.756 50.0612C49.0878 50.0612 25.768 65.7664 25.768 85.0588C25.768 104.351 49.0902 120.047 77.756 120.047C90.135 120.047 91.6378 117.807 92.5711 119.401Z" fill="#25523E"/>
<path d="M352.681 170.059C358.437 160.346 360.99 151.284 360.478 142.384C343.691 134.174 333.695 120.862 333.695 106.662C333.695 82.473 362.373 62.793 397.617 62.793C432.861 62.793 461.539 82.4754 461.539 106.645C461.539 130.814 432.864 150.513 397.617 150.513C392.373 150.516 387.138 150.07 381.969 149.18C375.426 159.553 365.654 167.487 354.158 171.761C353.928 171.85 353.676 171.866 353.437 171.807C353.198 171.748 352.982 171.616 352.821 171.43C352.659 171.244 352.559 171.012 352.534 170.767C352.509 170.521 352.561 170.274 352.681 170.059ZM397.617 65.186C363.689 65.186 336.088 83.7916 336.088 106.662C336.088 120.093 345.828 132.745 362.139 140.53C362.329 140.62 362.492 140.759 362.611 140.933C362.73 141.106 362.802 141.308 362.818 141.518C363.322 150.819 361.123 160.067 356.486 168.145C366.408 163.828 374.739 156.528 380.323 147.259C381.304 145.584 383.384 148.125 397.61 148.125C431.538 148.125 459.139 129.519 459.139 106.65C459.139 83.7796 431.545 65.1764 397.617 65.1764V65.186Z" fill="#25523E"/>
<path d="M46.6641 65.7002H110.055V106.927H46.6641V65.7002Z" fill="white"/>
<path d="M110.054 108.123H46.6653C46.3479 108.123 46.0436 107.997 45.8192 107.772C45.5948 107.548 45.4688 107.243 45.4688 106.926V65.6994C45.4688 65.3821 45.5948 65.0778 45.8192 64.8534C46.0436 64.629 46.3479 64.5029 46.6653 64.5029H110.054C110.371 64.5029 110.675 64.629 110.9 64.8534C111.124 65.0778 111.25 65.3821 111.25 65.6994V106.926C111.25 107.243 111.124 107.548 110.9 107.772C110.675 107.997 110.371 108.123 110.054 108.123ZM47.8618 105.73H108.857V66.8959H47.8618V105.73Z" fill="#25523E"/>
<path d="M359.516 83.8252H434.275V132.446H359.516V83.8252Z" fill="#81F889"/>
<path fill-rule="evenodd" clip-rule="evenodd" d="M392.071 83.8252L392.243 100.299L368.406 83.8252H359.502V89.3746L384.009 103.958L359.492 103.527V112.28H384.248L359.514 124.877V132.446H368.437L392.463 115.985V132.446H401.078V115.762L424.927 132.446H434.262V124.726L409.458 111.984L434.262 112.285V103.579H409.482L434.262 89.0659V83.8252H422.275L402.037 99.9301V83.8252H392.071Z" fill="white"/>
<path fill-rule="evenodd" clip-rule="evenodd" d="M359.516 85.6319V83.8252H362.643L395.217 105.223L394.712 83.8252H398.38V105.223L431.837 83.8252H434.275V85.5338L400.838 106.573H434.275V108.861H400.828L434.275 130.671V132.446H432.438L398.38 110.51V132.446H394.264L394.573 110.924L361.365 132.446H359.516V130.412L392.757 109.067H359.516V106.982H393.171L359.516 85.6319Z" fill="white"/>
<path d="M434.277 133.643H359.517C359.199 133.643 358.895 133.517 358.671 133.293C358.446 133.068 358.32 132.764 358.32 132.446V83.8254C358.32 83.5081 358.446 83.2037 358.671 82.9794C358.895 82.755 359.199 82.6289 359.517 82.6289H434.277C434.594 82.6289 434.898 82.755 435.123 82.9794C435.347 83.2037 435.473 83.5081 435.473 83.8254V132.446C435.473 132.764 435.347 133.068 435.123 133.293C434.898 133.517 434.594 133.643 434.277 133.643ZM360.713 131.25H433.08V85.0219H360.713V131.25Z" fill="#25523E"/>
<path d="M63.9661 75.5839H61.2046L60.3527 72.9516C60.2551 72.7312 60.0957 72.5439 59.8937 72.4124C59.6917 72.2809 59.4558 72.2109 59.2148 72.2109C58.9738 72.2109 58.738 72.2809 58.536 72.4124C58.334 72.5439 58.1745 72.7312 58.0769 72.9516L57.2226 75.5839H54.4635C54.2136 75.5869 53.9709 75.6681 53.7695 75.816C53.568 75.9639 53.418 76.1713 53.3404 76.4088C53.2628 76.6464 53.2615 76.9023 53.3368 77.1406C53.412 77.3789 53.56 77.5877 53.76 77.7376L55.9926 79.3625L55.1383 81.9948C55.0599 82.2353 55.0597 82.4945 55.1378 82.7351C55.2159 82.9757 55.3682 83.1854 55.5729 83.3341C55.7777 83.4827 56.0242 83.5626 56.2772 83.5623C56.5302 83.562 56.7766 83.4816 56.9809 83.3325L59.2136 81.71L61.4487 83.3325C61.6531 83.4806 61.8992 83.5602 62.1516 83.56C62.4041 83.5598 62.65 83.4798 62.8542 83.3313C63.0584 83.1829 63.2104 82.9737 63.2885 82.7336C63.3665 82.4936 63.3667 82.235 63.2889 81.9948L62.437 79.3625L64.6697 77.7376C64.8696 77.5877 65.0176 77.3789 65.0929 77.1406C65.1681 76.9023 65.1668 76.6464 65.0892 76.4088C65.0116 76.1713 64.8616 75.9639 64.6602 75.816C64.4587 75.6681 64.216 75.5869 63.9661 75.5839Z" fill="white"/>
<path d="M68.7881 71.4687C68.6302 70.9782 68.1923 71.0547 67.5653 71.0547C67.3571 70.423 67.3093 70.0186 66.7924 70.0186C66.2755 70.0186 66.2157 70.4589 66.0218 71.0547C65.2896 71.0547 64.9546 70.9853 64.799 71.4687C64.6435 71.9521 65.0551 72.1675 65.5456 72.5216C65.3207 73.2204 65.1508 73.5171 65.56 73.8139C65.9692 74.1106 66.3688 73.7373 66.7924 73.4286C67.2494 73.7588 67.4074 73.9287 67.6754 73.9287C67.7698 73.9288 67.8628 73.9065 67.947 73.8637C68.0311 73.8209 68.1039 73.7588 68.1595 73.6825C68.215 73.6062 68.2517 73.5178 68.2666 73.4246C68.2814 73.3314 68.274 73.236 68.2449 73.1462L68.0439 72.5216C68.635 72.0861 68.9485 71.9473 68.7881 71.4687Z" fill="#25523E"/>
<path d="M73.0458 74.7705C72.8879 74.2919 72.4524 74.3565 71.8254 74.3565C71.6148 73.7247 71.5669 73.3203 71.0501 73.3203C70.5332 73.3203 70.4733 73.7606 70.2795 74.3565C69.5473 74.3565 69.2122 74.2871 69.0567 74.7705C68.9011 75.2539 69.3151 75.4692 69.8033 75.8234C69.5784 76.5222 69.4085 76.8189 69.8201 77.1156C70.2317 77.4123 70.6289 77.039 71.0501 76.7303C71.5071 77.0606 71.6651 77.2305 71.9355 77.2305C72.0299 77.2303 72.123 77.2077 72.2071 77.1646C72.2911 77.1216 72.3638 77.0592 72.4191 76.9826C72.4745 76.906 72.5109 76.8175 72.5254 76.7241C72.5399 76.6308 72.5321 76.5353 72.5026 76.4456L72.3016 75.8234C72.8927 75.3927 73.2062 75.2515 73.0458 74.7705Z" fill="#25523E"/>
<path d="M73.0469 80.5029C72.889 80.0243 72.4534 80.0889 71.8265 80.0889C71.6159 79.4571 71.568 79.0527 71.0511 79.0527C70.5342 79.0527 70.4744 79.493 70.2806 80.0889C69.5483 80.0889 69.2133 80.0219 69.0578 80.5029C68.9022 80.9839 69.2971 81.1825 69.8044 81.5582C69.5794 82.2546 69.4095 82.5537 69.8211 82.8504C70.2327 83.1472 70.63 82.7739 71.0511 82.4652C71.5082 82.7954 71.6661 82.9653 71.9365 82.9653C72.031 82.9651 72.1241 82.9425 72.2081 82.8995C72.2922 82.8564 72.3649 82.794 72.4202 82.7174C72.4755 82.6409 72.5119 82.5523 72.5264 82.4589C72.541 82.3656 72.5332 82.2701 72.5037 82.1804L72.3027 81.5582L72.8315 81.1729C72.9339 81.0986 73.01 80.9936 73.0487 80.8731C73.0874 80.7526 73.0868 80.623 73.0469 80.5029Z" fill="#25523E"/>
<path d="M68.7881 84.2451C68.6302 83.7665 68.1923 83.8311 67.5653 83.8311C67.3571 83.1993 67.3093 82.7949 66.7924 82.7949C66.2755 82.7949 66.2157 83.2352 66.0218 83.8311C65.2896 83.8311 64.9546 83.7617 64.799 84.2451C64.6435 84.7285 65.0551 84.9438 65.5456 85.298C65.3207 85.9968 65.1508 86.2935 65.56 86.5902C65.9692 86.887 66.3688 86.5136 66.7924 86.205C67.2494 86.5352 67.4074 86.7051 67.6754 86.7051C67.7701 86.7053 67.8634 86.683 67.9478 86.6401C68.0322 86.5971 68.1052 86.5348 68.1608 86.4582C68.2163 86.3816 68.253 86.2928 68.2676 86.1993C68.2822 86.1058 68.2745 86.0101 68.2449 85.9202L68.0439 85.298C68.635 84.8697 68.9485 84.7261 68.7881 84.2451Z" fill="#25523E"/>
<path d="M232.078 132.076C246.175 133.747 260.357 129.751 271.507 120.965C282.656 112.18 289.859 99.3252 291.531 85.2291C293.202 71.133 289.206 56.9501 280.42 45.8007C271.635 34.6512 258.78 27.4483 244.684 25.7767C237.704 24.949 230.63 25.5042 223.865 27.4105C217.1 29.3168 210.776 32.5369 205.256 36.887C194.106 45.6725 186.903 58.5272 185.232 72.6233C184.404 79.603 184.959 86.6774 186.866 93.4425C188.772 100.208 191.992 106.531 196.342 112.052C200.692 117.572 206.087 122.182 212.219 125.618C218.35 129.054 225.099 131.248 232.078 132.076Z" fill="white"/>
<path fill-rule="evenodd" clip-rule="evenodd" d="M237.894 25.2832C237.894 25.2832 229.117 26.4079 231.146 28.6525C233.175 30.8972 231.962 34.2474 228.954 36.0039C225.946 37.7603 227.016 38.6122 230.151 39.1315C233.285 39.6508 223.773 47.0835 231.943 47.0763C240.113 47.0691 247.21 45.5615 244.42 40.5841C241.63 35.6066 238.095 34.6901 243.628 31.7563C249.161 28.8225 248.105 26.5706 243.59 25.8791C241.713 25.5107 239.807 25.3113 237.894 25.2832Z" fill="#81F889"/>
<path fill-rule="evenodd" clip-rule="evenodd" d="M185.086 73.9904C189.01 41.4456 217.236 29.751 217.236 29.751C217.236 29.751 225.611 30.8685 223.628 33.9914C221.644 37.1143 217.645 37.1023 219.375 40.6607C221.105 44.2191 222.221 44.3292 217.298 45.7913C212.376 47.2534 205.405 48.1077 203.861 50.7998C202.318 53.492 202.385 53.468 205.039 54.454C207.693 55.4399 208.904 54.9326 205.647 57.8042C202.39 60.6758 203.077 63.2913 199.226 64.3203C195.376 65.3493 192.44 67.7782 193.751 71.3581C195.062 74.9381 201.05 73.9545 201.488 80.375C201.488 80.375 207.13 75.589 210.689 78.9392C214.247 82.2894 217.15 82.0501 221.036 83.84C224.922 85.63 225.999 87.6688 224.372 90.9449C222.745 94.2209 220.567 100.696 222.359 103.654C224.152 106.612 217.334 109.651 215.149 115.449C212.964 121.247 218.681 125.524 219.43 129.003C219.43 129.003 213.484 126.73 211.703 123.329C209.923 119.929 204.17 122.025 201.985 115.849C199.801 109.673 199.994 108.107 198.054 104.123C196.113 100.139 197.711 98.892 196.259 96.5684C194.806 94.2448 192.365 93.1464 194.888 89.0137C197.41 84.881 199.219 83.4763 197.092 81.0091C194.964 78.5419 185.244 83.5313 185.086 73.9904Z" fill="#81F889"/>
<path fill-rule="evenodd" clip-rule="evenodd" d="M259.873 119.645C261.115 120.473 262.506 119.353 265.531 117.226C268.293 115.635 270.854 113.716 273.157 111.511C276.787 107.979 278.86 107.9 279.077 104.492C279.295 101.085 276.95 99.3952 279.824 95.9852C282.698 92.5752 284.098 90.7086 283.287 86.2912C282.475 81.8737 281.647 81.8641 282.284 78.3536C282.92 74.843 283.241 72.5936 280.109 70.2173C276.976 67.8411 276.759 70.7558 272.47 69.0783C268.773 67.4899 264.605 67.3904 260.835 68.8007C257.445 70.1336 254.47 65.9674 251.503 68.9251C248.535 71.8829 250.208 73.2828 246.717 74.374C243.225 75.4652 236.881 78.6958 238.581 82.4073C240.28 86.1189 239.026 87.8275 241.646 92.0344C244.266 96.2413 246.255 98.9573 249.806 98.0695C253.357 97.1817 254.516 98.1246 257.703 97.9211C260.89 97.7177 262.063 97.1626 262.951 101.245C263.839 105.327 267.603 104.217 266.437 106.675C265.272 109.132 262.609 110.853 262.221 113.464C261.833 116.074 258.632 118.817 259.873 119.645Z" fill="#81F889"/>
<path fill-rule="evenodd" clip-rule="evenodd" d="M291.894 78.9249C291.801 52.5277 270.63 36.2266 270.63 36.2266C270.126 37.1328 269.865 38.1539 269.872 39.1909C269.879 40.2278 270.154 41.2453 270.671 42.1445C272.43 45.4037 273.026 48.6295 271.181 47.6962C269.336 46.763 268.496 46.3896 267.378 49.1823C266.261 51.9749 264.952 47.0118 263.513 49.6609C262.075 52.3099 263.406 56.2823 260.103 54.9877C256.801 53.6931 257.512 57.2036 255.112 57.1845C252.711 57.1653 247.339 61.5039 249.904 62.8368C252.47 64.1697 252.958 61.2789 256.344 63.0306C259.73 64.7823 261.977 64.3563 264.071 61.6259C266.165 58.8955 266.66 56.9021 269.498 58.0986C272.336 59.2951 275.014 55.0619 277.259 56.4235C279.503 57.7851 279.891 62.3582 284.299 61.5421C288.707 60.7261 283.174 66.723 286.692 69.9775C290.21 73.232 285.986 76.6994 291.894 78.9249Z" fill="#81F889"/>
<path d="M238.385 133.643C227.563 133.643 216.983 130.435 207.984 124.422C198.986 118.41 191.972 109.864 187.83 99.866C183.688 89.8675 182.604 78.8654 184.715 68.2509C186.826 57.6364 192.037 47.8863 199.69 40.2336C207.342 32.5808 217.092 27.3692 227.707 25.2577C238.321 23.1461 249.323 24.2296 259.322 28.371C269.32 32.5125 277.866 39.5259 283.879 48.5243C289.892 57.5228 293.101 68.1021 293.101 78.9245C293.085 93.4314 287.315 107.34 277.058 117.598C266.8 127.856 252.892 133.626 238.385 133.643ZM238.385 26.6015C228.036 26.601 217.919 29.6695 209.314 35.4189C200.708 41.1683 194.001 49.3404 190.041 58.9017C186.08 68.463 185.043 78.9841 187.062 89.1345C189.081 99.2849 194.065 108.609 201.383 115.927C208.701 123.245 218.025 128.228 228.175 130.247C238.325 132.266 248.846 131.229 258.408 127.269C267.969 123.308 276.141 116.601 281.891 107.996C287.64 99.3906 290.708 89.2737 290.708 78.9245C290.692 65.0524 285.174 51.7531 275.365 41.944C265.556 32.135 252.257 26.6173 238.385 26.6015Z" fill="#25523E"/>
<path fill-rule="evenodd" clip-rule="evenodd" d="M211.013 40.4572C202.637 20.9207 203.171 22.6772 203.171 20.9686C203.207 18.9128 204.049 16.9534 205.515 15.5123C206.982 14.0712 208.955 13.2637 211.012 13.2637C213.068 13.2637 215.041 14.0712 216.508 15.5123C217.974 16.9534 218.816 18.9128 218.852 20.9686C218.852 23.3496 218.584 22.1722 211.013 40.4572Z" fill="white"/>
<path d="M209.922 40.9282C202.432 23.1146 201.984 23.8469 201.984 20.9753C202.023 18.604 202.992 16.3428 204.683 14.6795C206.373 13.0162 208.65 12.084 211.022 12.084C213.393 12.084 215.67 13.0162 217.36 14.6795C219.051 16.3428 220.02 18.604 220.059 20.9753C220.059 23.0022 220.411 21.6549 212.124 40.9353C212.031 41.1509 211.877 41.3344 211.681 41.4631C211.485 41.5919 211.255 41.6601 211.02 41.6593C210.786 41.6586 210.557 41.5888 210.361 41.4588C210.166 41.3288 210.013 41.1443 209.922 40.9282ZM204.492 22.1957L211.023 37.42C217.537 21.6932 217.666 22.8897 217.666 20.9753C217.664 20.0518 217.47 19.1388 217.096 18.2945C216.722 17.4503 216.176 16.6932 215.493 16.0718C214.81 15.4504 214.005 14.9782 213.129 14.6855C212.253 14.3927 211.326 14.2857 210.406 14.3714C209.487 14.4571 208.595 14.7335 207.789 15.1831C206.982 15.6327 206.278 16.2455 205.722 16.9824C205.165 17.7193 204.768 18.5642 204.557 19.4631C204.345 20.362 204.323 21.2951 204.492 22.2029V22.1957Z" fill="#25523E"/>
<path d="M207.445 20.9694C207.445 21.9214 207.823 22.8344 208.497 23.5076C209.17 24.1807 210.083 24.5589 211.035 24.5589C211.987 24.5589 212.9 24.1807 213.573 23.5076C214.246 22.8344 214.624 21.9214 214.624 20.9694C214.624 20.0174 214.246 19.1044 213.573 18.4312C212.9 17.7581 211.987 17.3799 211.035 17.3799C210.083 17.3799 209.17 17.7581 208.497 18.4312C207.823 19.1044 207.445 20.0174 207.445 20.9694Z" fill="#25523E"/>
<path fill-rule="evenodd" clip-rule="evenodd" d="M215.624 92.5747L207.942 110.474L200.263 92.5747C200.028 91.4346 200.05 90.2564 200.327 89.1257C200.604 87.9949 201.129 86.9401 201.864 86.0376C202.6 85.1351 203.527 84.4077 204.578 83.9082C205.63 83.4086 206.779 83.1494 207.943 83.1494C209.108 83.1494 210.257 83.4086 211.309 83.9082C212.36 84.4077 213.287 85.1351 214.023 86.0376C214.758 86.9401 215.283 87.9949 215.56 89.1257C215.837 90.2564 215.859 91.4346 215.624 92.5747Z" fill="white"/>
<path d="M207.944 81.9531C205.548 81.9563 203.251 82.9096 201.557 84.604C199.863 86.2984 198.91 88.5956 198.908 90.9915C198.908 93.016 198.307 91.0968 206.843 110.949C206.935 111.165 207.088 111.349 207.284 111.478C207.48 111.608 207.709 111.677 207.944 111.677C208.178 111.677 208.408 111.608 208.603 111.478C208.799 111.349 208.952 111.165 209.044 110.949C217.396 91.5251 216.982 93.0303 216.982 90.9915C216.979 88.5951 216.026 86.2977 214.332 84.6032C212.637 82.9087 210.34 81.9557 207.944 81.9531ZM207.944 107.443C200.908 91.0417 201.301 92.3675 201.301 90.9915C201.284 90.1084 201.443 89.2307 201.77 88.41C202.096 87.5892 202.583 86.8417 203.201 86.2112C203.82 85.5807 204.558 85.0799 205.373 84.738C206.187 84.3961 207.061 84.22 207.945 84.22C208.828 84.22 209.702 84.3961 210.517 84.738C211.331 85.0799 212.069 85.5807 212.688 86.2112C213.307 86.8417 213.793 87.5892 214.12 88.41C214.446 89.2307 214.606 90.1084 214.589 90.9915C214.587 92.9011 214.472 91.6902 207.944 107.443Z" fill="#25523E"/>
<path d="M204.383 90.9928C204.383 91.9448 204.761 92.8578 205.434 93.531C206.107 94.2042 207.02 94.5823 207.972 94.5823C208.924 94.5823 209.837 94.2042 210.51 93.531C211.184 92.8578 211.562 91.9448 211.562 90.9928C211.562 90.0408 211.184 89.1278 210.51 88.4547C209.837 87.7815 208.924 87.4033 207.972 87.4033C207.02 87.4033 206.107 87.7815 205.434 88.4547C204.761 89.1278 204.383 90.0408 204.383 90.9928Z" fill="#25523E"/>
<path fill-rule="evenodd" clip-rule="evenodd" d="M134.932 145.411C134.932 145.411 104.007 138.445 94.6984 163.722C85.3896 188.999 96.5817 198.404 87.5721 206.796C81.9324 212.235 77.4605 218.766 74.4297 225.99C74.4297 225.99 128.899 250.229 184.269 226.847C184.269 226.847 167.57 199.129 168.475 176.62C169.379 154.112 155.407 143.42 134.932 145.411Z" fill="white"/>
<path fill-rule="evenodd" clip-rule="evenodd" d="M117.094 247.143C116.984 247.423 111.98 254.719 113.21 258.39C113.435 258.816 113.745 259.191 114.121 259.492C114.498 259.793 114.932 260.014 115.397 260.14C115.862 260.266 116.348 260.296 116.824 260.227C117.301 260.157 117.759 259.991 118.168 259.737C121.61 257.854 123.287 251.39 123.404 251.151C121.022 250.315 118.863 248.944 117.094 247.143Z" fill="white"/>
<path fill-rule="evenodd" clip-rule="evenodd" d="M106.445 248.909C110.783 250.092 114.904 245.76 115.72 245.559C114.027 243.278 112.88 240.637 112.37 237.842C111.578 238.215 109.558 239.175 106.751 240.524C103.98 241.85 103.66 248.153 106.445 248.909Z" fill="white"/>
<path fill-rule="evenodd" clip-rule="evenodd" d="M152.419 239.167C152.16 242.157 150.803 244.945 148.609 246.995C151.287 248.545 156.159 250.507 158.406 249.421C158.812 249.191 159.15 248.859 159.389 248.459C159.628 248.059 159.76 247.604 159.77 247.138C160.412 242.386 154.187 239.801 152.419 239.167Z" fill="white"/>
<path fill-rule="evenodd" clip-rule="evenodd" d="M136.919 252.04C133.187 252.66 129.372 252.575 125.672 251.789C125.672 252.607 125.782 258.164 128.491 260.923C129.437 261.889 130.728 262.44 132.08 262.456C133.432 262.472 134.735 261.951 135.703 261.007C137.692 258.602 137.115 254.204 136.919 252.04Z" fill="white"/>
<path fill-rule="evenodd" clip-rule="evenodd" d="M146.788 248.481C144.521 250.02 141.968 251.09 139.281 251.628C140.112 253.095 144.689 260.755 149.779 260.032C151.524 259.793 151.416 258.293 150.808 256.309C149.808 253.539 148.457 250.908 146.788 248.481Z" fill="white"/>
<path d="M132.538 238.145C112.487 238.159 92.6103 234.407 73.9434 227.084C73.6636 226.959 73.4423 226.732 73.3252 226.449C73.2081 226.166 73.2041 225.848 73.314 225.562C76.3952 218.16 80.9712 211.473 86.7555 205.921C95.009 198.232 84.3386 188.401 93.5756 163.311C102.736 138.423 132.285 143.657 134.994 144.195C156.823 142.149 170.58 154.208 169.678 176.668C168.797 198.567 185.134 225.964 185.299 226.232C185.388 226.379 185.443 226.543 185.463 226.714C185.482 226.884 185.464 227.056 185.411 227.219C185.358 227.382 185.271 227.532 185.155 227.658C185.039 227.784 184.897 227.884 184.739 227.951C168.197 234.809 150.446 238.276 132.538 238.145ZM76.0014 225.349C83.8528 228.503 132.976 246.547 182.55 226.268C179.331 220.637 166.474 196.791 167.285 176.573C168.122 155.711 155.739 144.593 135.044 146.596C134.467 146.639 104.911 139.44 95.8202 164.136C86.5856 189.239 98.017 198.701 88.3852 207.672C83.1693 212.722 78.966 218.722 76.0014 225.349Z" fill="#25523E"/>
<path fill-rule="evenodd" clip-rule="evenodd" d="M112.036 217.869L112.234 237.013C112.234 237.013 113.474 252.965 132.477 252.419C152.291 251.855 152.427 239.186 152.427 239.186L150.963 220.623C155.529 212.741 158.247 193.003 155.509 180.021C152.623 166.343 147.282 155.852 133.872 155.498C121.976 151.999 112.813 175.893 106.565 183.465C105.261 190.912 105.621 198.555 107.618 205.847C108.766 209.966 110.243 213.987 112.036 217.869Z" fill="white"/>
<path d="M132.217 206.583C130.151 206.583 130.015 205.676 128.737 205.212C127.763 204.862 126.837 206.183 124.695 205.169C122.657 204.211 123.02 201.902 124.533 200.208C124.747 199.987 125.038 199.856 125.345 199.844C125.653 199.832 125.954 199.939 126.184 200.143C126.415 200.346 126.559 200.631 126.585 200.938C126.611 201.245 126.518 201.55 126.325 201.79C126 202.137 125.775 202.565 125.672 203.029C127.086 203.58 128.151 201.593 131.176 203.86C131.315 203.997 131.485 204.099 131.672 204.157C131.859 204.214 132.058 204.226 132.25 204.19C133.253 204.19 133.262 202.95 135.823 202.89C137.656 202.847 138.079 202.596 138.17 202.508C138.085 202.172 137.936 201.856 137.73 201.577C137.64 201.444 137.577 201.295 137.545 201.138C137.514 200.981 137.514 200.819 137.547 200.662C137.579 200.505 137.642 200.356 137.733 200.224C137.824 200.092 137.941 199.98 138.076 199.893C138.211 199.807 138.362 199.749 138.52 199.723C138.678 199.696 138.84 199.701 138.996 199.739C139.152 199.776 139.299 199.844 139.428 199.939C139.557 200.034 139.666 200.154 139.747 200.292C140.132 200.749 140.384 201.303 140.477 201.894C140.569 202.484 140.499 203.088 140.274 203.642C139.556 205.001 137.732 205.228 135.878 205.274C135.633 205.25 135.386 205.279 135.153 205.359C134.919 205.438 134.706 205.565 134.526 205.733C133.898 206.309 133.068 206.614 132.217 206.583Z" fill="#25523E"/>
<path fill-rule="evenodd" clip-rule="evenodd" d="M141.899 209.809C139.101 211.587 135.845 212.507 132.53 212.455C129.364 212.218 126.227 211.677 123.164 210.84C123.795 212.867 125.055 214.639 126.761 215.901C128.468 217.163 130.532 217.848 132.655 217.856C140.506 218.28 141.899 209.809 141.899 209.809Z" fill="white"/>
<path d="M146.109 206.057C145.952 205.829 145.72 205.663 145.454 205.587C145.188 205.511 144.903 205.53 144.649 205.64C144.395 205.75 144.187 205.945 144.061 206.191C143.934 206.437 143.897 206.72 143.956 206.99C139.802 206.941 135.73 208.147 132.273 210.451C129.755 209.287 127.04 208.613 124.271 208.462C124.343 208.238 124.347 207.997 124.283 207.77C124.219 207.544 124.089 207.341 123.91 207.188C123.731 207.034 123.511 206.937 123.277 206.908C123.043 206.88 122.806 206.921 122.596 207.026C121.92 207.389 121.194 207.65 120.442 207.799C120.201 207.792 119.964 207.854 119.757 207.979C119.551 208.103 119.385 208.284 119.279 208.5C118.831 209.496 119.772 210.128 120.715 210.779C121.179 211.108 121.667 211.402 122.174 211.659C125.046 221.415 139.612 221.963 142.91 210.609C145.54 209.149 147.705 208.599 146.109 206.057ZM125.333 212.908C130.359 214.301 134.743 214.851 139.392 212.573C138.683 213.793 137.673 214.81 136.459 215.528C135.244 216.245 133.867 216.64 132.456 216.673C131.046 216.707 129.651 216.379 128.404 215.719C127.157 215.06 126.1 214.092 125.333 212.908Z" fill="#25523E"/>
<path d="M111.723 181.224C111.486 181.223 111.255 181.152 111.059 181.02C110.863 180.888 110.71 180.7 110.62 180.481C110.531 180.262 110.508 180.022 110.555 179.79C110.602 179.558 110.717 179.345 110.885 179.178C112.911 177.344 115.37 176.055 118.032 175.434C120.693 174.814 123.469 174.881 126.098 175.63C126.249 175.673 126.389 175.746 126.512 175.844C126.635 175.942 126.737 176.063 126.813 176.201C126.889 176.338 126.938 176.489 126.955 176.646C126.973 176.802 126.959 176.96 126.916 177.111C126.872 177.262 126.8 177.403 126.702 177.526C126.604 177.648 126.482 177.751 126.345 177.827C126.207 177.903 126.056 177.951 125.9 177.969C125.744 177.986 125.586 177.973 125.435 177.929C123.214 177.291 120.867 177.228 118.616 177.746C116.364 178.263 114.28 179.344 112.56 180.887C112.336 181.105 112.035 181.226 111.723 181.224Z" fill="#25523E"/>
<path d="M152.168 181.229C151.886 181.231 151.612 181.13 151.398 180.947C144.681 175.273 139.89 177.266 139.84 177.285C139.696 177.348 139.541 177.382 139.383 177.385C139.226 177.388 139.07 177.36 138.924 177.302C138.777 177.245 138.644 177.159 138.531 177.05C138.417 176.941 138.327 176.811 138.264 176.667C138.201 176.523 138.167 176.368 138.164 176.21C138.161 176.053 138.189 175.897 138.247 175.751C138.304 175.604 138.39 175.471 138.499 175.358C138.608 175.244 138.738 175.154 138.882 175.091C139.122 174.981 145.104 172.504 152.937 179.118C153.124 179.276 153.258 179.488 153.321 179.725C153.384 179.961 153.373 180.212 153.289 180.442C153.205 180.672 153.053 180.871 152.852 181.011C152.652 181.152 152.413 181.228 152.168 181.229Z" fill="#25523E"/>
<path fill-rule="evenodd" clip-rule="evenodd" d="M149.743 184.382C147.221 189.834 140.984 186.347 140.984 186.347C141.419 185.63 141.993 185.008 142.674 184.518C143.354 184.029 144.127 183.682 144.945 183.499C145.763 183.315 146.61 183.299 147.434 183.451C148.259 183.603 149.044 183.92 149.743 184.382Z" fill="white"/>
<path fill-rule="evenodd" clip-rule="evenodd" d="M115.445 183.86C117.965 189.312 124.39 186.088 124.39 186.088C124.39 186.088 120.822 180.493 115.445 183.86Z" fill="white"/>
<path d="M150.335 183.351C149.503 182.809 148.572 182.441 147.595 182.266C146.618 182.092 145.616 182.115 144.648 182.334C143.681 182.554 142.767 182.965 141.961 183.544C141.155 184.123 140.474 184.858 139.957 185.705C139.798 185.973 139.75 186.291 139.822 186.594C139.894 186.896 140.081 187.158 140.343 187.325C140.605 187.492 140.922 187.551 141.226 187.488C141.531 187.426 141.799 187.247 141.974 186.99C142.368 186.41 142.858 185.902 143.422 185.485C143.501 186.047 143.779 186.561 144.205 186.935C144.632 187.309 145.178 187.517 145.745 187.522C146.38 187.522 146.989 187.269 147.438 186.821C147.886 186.372 148.138 185.763 148.138 185.129C148.138 185.057 148.103 184.997 148.098 184.928C148.447 185.06 148.784 185.22 149.108 185.406C149.243 185.486 149.393 185.539 149.548 185.561C149.704 185.584 149.862 185.575 150.015 185.536C150.167 185.497 150.31 185.428 150.436 185.334C150.562 185.24 150.668 185.122 150.748 184.986C150.828 184.851 150.881 184.701 150.903 184.546C150.925 184.39 150.917 184.231 150.878 184.079C150.839 183.927 150.77 183.784 150.676 183.658C150.582 183.532 150.463 183.426 150.328 183.346L150.335 183.351Z" fill="#25523E"/>
<path d="M125.216 185.187C124.7 184.338 124.02 183.601 123.214 183.021C122.408 182.44 121.494 182.028 120.526 181.808C119.557 181.589 118.555 181.566 117.577 181.742C116.6 181.918 115.668 182.288 114.837 182.832C114.702 182.912 114.584 183.018 114.489 183.144C114.395 183.27 114.326 183.413 114.287 183.565C114.248 183.717 114.24 183.876 114.262 184.032C114.284 184.187 114.337 184.337 114.417 184.472C114.497 184.608 114.603 184.726 114.729 184.82C114.855 184.914 114.998 184.983 115.15 185.022C115.303 185.061 115.461 185.07 115.617 185.047C115.773 185.025 115.922 184.972 116.058 184.892C116.381 184.706 116.718 184.546 117.067 184.414C117.067 184.483 117.027 184.543 117.027 184.615C117.027 185.249 117.279 185.858 117.728 186.307C118.176 186.756 118.785 187.008 119.42 187.008C119.987 187.002 120.534 186.793 120.96 186.419C121.387 186.045 121.666 185.531 121.746 184.969C122.305 185.388 122.79 185.897 123.182 186.476C123.266 186.61 123.376 186.726 123.506 186.817C123.635 186.908 123.781 186.972 123.935 187.007C124.09 187.041 124.249 187.045 124.405 187.018C124.561 186.991 124.71 186.933 124.843 186.849C124.977 186.764 125.093 186.654 125.184 186.524C125.275 186.395 125.339 186.249 125.374 186.095C125.408 185.94 125.412 185.781 125.385 185.625C125.358 185.469 125.3 185.32 125.216 185.187Z" fill="#25523E"/>
<path d="M152.1 220.952C156.539 213.569 159.421 193.647 156.685 179.792C156.66 179.709 156.626 179.629 156.585 179.553C151.234 154.041 136.902 154.067 134.091 154.349C132.714 153.738 131.162 153.643 129.721 154.084C126.091 155.005 122.085 158.327 117.806 163.95C107.861 177.028 108.34 179.335 105.707 182.565C105.657 182.64 105.616 182.72 105.585 182.805L105.557 182.857C105.545 182.886 105.403 183.192 105.391 183.255C104.049 190.898 104.421 198.745 106.483 206.227C107.657 210.429 109.178 214.525 111.029 218.475V236.53C111.054 240.951 112.803 245.188 115.904 248.339C119.493 251.872 124.729 253.654 131.494 253.654C138.3 253.654 146.187 252.175 150.504 246.954C152.654 244.39 153.71 241.084 153.445 237.748L152.1 220.952ZM108.754 205.476C106.848 198.435 106.492 191.064 107.71 183.872C110.644 180.168 109.847 178.349 119.697 165.398C128.599 153.706 133.098 156.544 133.098 156.544C133.233 156.645 133.388 156.716 133.553 156.754C133.718 156.792 133.889 156.795 134.055 156.764C134.663 156.659 148.927 154.266 154.285 180.273C157.087 194.54 153.783 213.373 150.131 219.628C149.904 219.806 149.751 220.062 149.703 220.346C144.969 227.099 131.731 228.612 122.559 225.228C113.24 221.784 112.027 215.51 108.754 205.476ZM148.631 245.458C145.759 248.902 140.669 250.835 133.5 251.201C126.421 251.582 121.056 250.036 117.605 246.655C114.984 243.948 113.49 240.347 113.425 236.58V221.988C121.389 231.198 141.387 231.799 149.918 223.663C149.94 223.902 151.091 237.741 151.071 237.987C151.25 240.701 150.375 243.379 148.631 245.465V245.458Z" fill="#25523E"/>
<path fill-rule="evenodd" clip-rule="evenodd" d="M70.3605 371.103L179.52 372.383L189.001 286.714C189.001 286.714 97.1501 285.355 63.1719 289.253L70.3605 371.103Z" fill="white"/>
<path d="M179.514 373.579L70.3376 372.299C70.041 372.295 69.7563 372.181 69.5388 371.98C69.3212 371.778 69.1863 371.503 69.1603 371.207L61.9812 289.367C61.9537 289.055 62.0489 288.746 62.2465 288.504C62.4441 288.262 62.7285 288.107 63.0389 288.072C96.6965 284.207 188.095 285.511 189.021 285.526C189.188 285.528 189.352 285.566 189.503 285.635C189.654 285.705 189.789 285.805 189.899 285.93C190.442 286.548 190.885 281.039 180.713 372.519C180.679 372.812 180.538 373.083 180.316 373.279C180.095 373.474 179.809 373.581 179.514 373.579ZM71.448 369.917L178.444 371.174L187.662 287.897C176.415 287.754 96.5673 286.878 64.4604 290.319L71.448 369.917Z" fill="#25523E"/>
<path d="M167.999 186.758C167.888 185.426 167.313 184.175 166.375 183.223C165.436 182.271 164.194 181.677 162.863 181.547C163.342 176.983 164.321 160.423 154.847 149.82C149.264 143.57 141.066 140.578 130.52 140.968C119.581 141.361 111.285 144.981 105.872 151.737C97.3286 162.369 98.5753 177.304 99.1449 181.558C97.8192 181.693 96.5825 182.288 95.6493 183.239C94.7161 184.19 94.1452 185.438 94.0358 186.766C93.775 192.562 92.5115 208.626 97.8431 210.27C102.442 211.691 107.494 211.033 107.252 206.417C107.082 203.112 106.759 193.09 106.719 191.846C107.078 189.853 107.887 183.913 105.19 182.207C104.869 182.009 104.527 181.849 104.17 181.728C103.648 178.57 101.947 165.032 109.179 155.709C113.704 149.88 120.916 146.716 130.625 146.307C139.852 145.924 146.919 148.403 151.537 153.694C159.674 163.027 158.092 178.433 157.627 181.81C157.359 181.914 157.1 182.043 156.855 182.195C154.158 183.901 154.969 189.841 155.325 191.834C155.287 193.083 154.962 203.1 154.792 206.405C154.552 211.031 159.614 211.67 164.201 210.258C169.497 208.626 168.279 192.837 167.999 186.758Z" fill="#25523E"/>
<path fill-rule="evenodd" clip-rule="evenodd" d="M255.929 192.978L262.897 203.687L270.973 165.001C287.072 169.32 304.062 169.008 319.992 164.102C319.9 167.322 320.386 170.532 321.427 173.58C323.069 177.529 328.425 195.596 329.626 198.384C334.051 188.195 334.653 176.751 331.32 166.155C328.554 159.694 323.007 135.271 279.871 146.293C253.224 154.984 255.929 192.978 255.929 192.978Z" fill="#81F889"/>
<path fill-rule="evenodd" clip-rule="evenodd" d="M229.493 418.273C229.493 418.273 170.231 426.618 164.049 406.548C157.868 386.477 179.291 310.093 210.151 290.944C241.011 271.795 264.072 255.41 264.072 255.41L267.339 240.246L270.284 255.41H321.236L324.072 239.482L330.442 255.41C330.442 255.41 381.758 265.724 402.852 292.119C423.946 318.514 462.407 385.961 442.605 401.391C422.803 416.821 380.351 415.411 380.351 415.411L229.493 418.273Z" fill="white"/>
<path fill-rule="evenodd" clip-rule="evenodd" d="M268.202 240.664C268.202 240.664 265.869 275.262 296.77 284.696C296.77 284.696 323.959 274.884 322.768 241.566C329.102 232.205 330.645 212.305 329.26 200.388C327.719 187.154 319.965 171.822 319.989 164.103C288.21 171.423 270.971 165.002 270.971 165.002C270.971 165.002 267.2 179.478 264.675 194.333C262.15 209.189 260.846 208.677 262.371 218.864C263.572 226.919 263.321 234.476 268.202 240.664Z" fill="white"/>
<path d="M330.463 200.278C329.233 186.561 320.242 170.581 321.182 164.277C321.214 164.09 321.2 163.898 321.14 163.718C321.08 163.538 320.976 163.375 320.838 163.245C320.7 163.114 320.532 163.02 320.348 162.97C320.165 162.92 319.972 162.916 319.787 162.959C316.064 163.54 287.692 169.702 271.662 163.974C270.63 163.605 270.006 164.012 269.826 164.691C269.786 164.837 266.012 179.387 263.504 194.125C260.996 208.864 259.649 208.632 261.199 219.034C262.798 229.788 262.025 239.157 272.621 246.259C281.772 252.4 286.099 256.59 295.288 256.59C307.755 256.59 321.8 249.042 326.332 237.353C330.795 225.854 331.391 210.661 330.463 200.278ZM324.102 236.491C319.981 247.116 307.636 253.4 297.568 254.118C287.642 254.819 284.39 251.28 273.952 244.276C265.909 238.884 265.114 231.849 264.193 223.696C262.98 212.882 262.133 213.344 264.064 203.98C266.356 192.912 267.103 185.314 271.836 166.486C285.022 170.736 305.501 168.31 318.739 165.582C318.967 173.316 326.957 187.975 328.072 200.481C328.979 210.604 328.414 225.373 324.102 236.491Z" fill="#25523E"/>
<path fill-rule="evenodd" clip-rule="evenodd" d="M309.671 290.057C301.774 283.079 293.659 282.948 285.312 290.057C287.327 296.565 289.786 302.927 292.671 309.099L288.988 316.517L307.809 316.057L304.358 308.668L309.671 290.057Z" fill="#81F889"/>
<path d="M257.947 266.864C257.77 266.6 257.496 266.418 257.185 266.357C256.874 266.295 256.552 266.36 256.288 266.536C247.257 272.58 223.025 292.06 217.667 296.384C216.275 294.23 215.289 292.818 215.164 292.641C214.977 292.394 214.7 292.23 214.394 292.183C214.087 292.136 213.775 292.21 213.521 292.389C213.268 292.568 213.094 292.838 213.037 293.143C212.979 293.447 213.042 293.763 213.212 294.022C227.187 314.054 224.894 319.794 227.342 319.794C227.527 319.794 227.71 319.752 227.875 319.669C228.041 319.587 228.185 319.467 228.296 319.32C228.408 319.172 228.484 319.001 228.518 318.819C228.552 318.638 228.544 318.45 228.493 318.272C226.166 311.275 222.961 304.601 218.953 298.411C223.851 294.457 248.549 274.586 257.619 268.515C257.88 268.338 258.061 268.066 258.122 267.757C258.183 267.447 258.12 267.127 257.947 266.864Z" fill="#25523E"/>
<path d="M396.918 292.428C396.799 292.324 396.661 292.246 396.512 292.196C396.363 292.146 396.205 292.126 396.048 292.137C395.891 292.148 395.738 292.19 395.597 292.26C395.457 292.331 395.331 292.428 395.228 292.547C395.161 292.624 394.857 292.98 394.407 293.524C382.28 282.714 339.847 264.281 338.028 263.491C337.737 263.364 337.407 263.358 337.111 263.475C336.816 263.591 336.578 263.82 336.451 264.111C336.324 264.402 336.318 264.732 336.435 265.028C336.551 265.324 336.78 265.561 337.071 265.688C337.516 265.88 381.215 284.861 392.9 295.39C389.385 299.863 382.866 308.896 380.238 317.437C380.184 317.589 380.161 317.751 380.171 317.912C380.18 318.074 380.223 318.232 380.295 318.376C380.368 318.521 380.469 318.649 380.592 318.754C380.716 318.858 380.859 318.937 381.014 318.984C381.169 319.031 381.331 319.047 381.492 319.03C381.653 319.013 381.809 318.963 381.95 318.884C382.091 318.805 382.215 318.698 382.313 318.57C382.412 318.442 382.484 318.295 382.524 318.138C385.972 306.934 396.918 294.244 397.03 294.115C397.239 293.876 397.344 293.564 397.323 293.248C397.302 292.932 397.156 292.636 396.918 292.428Z" fill="#25523E"/>
<path d="M403.784 291.365C383.35 265.794 336.012 255.341 331.036 254.302C329.934 248.727 328.039 243.339 325.411 238.3C325.338 238.161 325.238 238.038 325.117 237.937C324.997 237.836 324.857 237.76 324.707 237.713C324.557 237.666 324.4 237.649 324.243 237.664C324.087 237.678 323.934 237.722 323.795 237.795C322.938 238.995 322.194 240.272 321.572 241.61C322.639 269.663 299.956 281.812 296.685 283.413C267.529 274.191 269.309 242.11 269.405 240.744C268.873 239.604 268.153 238.563 267.275 237.664C266.972 237.568 266.645 237.597 266.363 237.743C266.082 237.89 265.87 238.142 265.774 238.444C264.322 243.765 263.388 249.215 262.984 254.716C259.873 256.913 237.877 272.334 209.527 289.927C177.939 309.523 156.486 386.016 162.914 406.897C168.336 424.512 211.681 422.002 229.666 419.465C229.975 419.414 230.251 419.245 230.436 418.993C230.621 418.741 230.7 418.427 230.656 418.118C230.613 417.809 230.45 417.529 230.203 417.338C229.956 417.147 229.644 417.06 229.334 417.096C228.752 417.177 171.016 425.081 165.201 406.193C159.092 386.348 180.662 310.65 210.79 291.959C236.235 276.165 256.542 262.144 262.762 257.798C261.802 273.775 264.222 289.773 269.862 304.752C269.94 304.956 270.073 305.134 270.246 305.268C270.42 305.402 270.626 305.486 270.843 305.51C271.061 305.535 271.281 305.5 271.479 305.408C271.678 305.316 271.848 305.172 271.97 304.991C275.557 299.995 279.794 295.5 284.569 291.624C286.441 297.593 288.703 303.433 291.339 309.107L287.934 315.944C287.792 316.229 287.77 316.559 287.873 316.861C287.975 317.163 288.192 317.412 288.478 317.553C288.764 317.694 289.094 317.716 289.395 317.614C289.697 317.512 289.946 317.294 290.087 317.009L293.438 310.263L303.605 309.889L306.503 316.439C306.644 316.708 306.881 316.914 307.167 317.015C307.453 317.115 307.766 317.104 308.044 316.982C308.322 316.861 308.543 316.638 308.663 316.36C308.783 316.081 308.793 315.767 308.691 315.482L305.639 308.585L310.356 292.05C314.807 296.444 318.646 301.418 321.771 306.836C321.877 307.027 322.032 307.185 322.222 307.293C322.411 307.402 322.626 307.457 322.844 307.452C323.062 307.447 323.275 307.382 323.459 307.265C323.643 307.148 323.792 306.983 323.889 306.788C324.035 306.494 335.674 282.595 331.52 256.863C339.579 258.679 383.187 269.417 401.927 292.863C419.542 314.903 449.576 366.407 446.729 390.579C446.628 392.466 446.147 394.312 445.313 396.008C444.48 397.703 443.311 399.212 441.878 400.443C422.648 415.428 380.828 414.222 380.402 414.21C380.084 414.2 379.776 414.316 379.544 414.533C379.312 414.749 379.176 415.05 379.166 415.367C379.155 415.684 379.271 415.993 379.488 416.225C379.705 416.456 380.005 416.593 380.323 416.603C398.452 417.256 428.355 414.019 443.352 402.334C465.26 385.238 421.554 313.596 403.784 291.365ZM271.326 301.808C264.679 283.098 263.185 262.945 267 243.46C267.239 251.656 269.981 275.174 292.504 284.418C282.892 287.618 274.502 297.628 271.326 301.808ZM303.448 307.506L293.378 307.874C290.748 302.112 288.482 296.191 286.594 290.145C295.464 284.081 301.43 284.722 308.351 290.31L303.448 307.506ZM322.659 303.658C319.548 298.649 310.851 286.031 300.911 283.796C325.822 268.481 323.405 244.23 324.037 240.921C336.603 266.71 326.002 295.773 322.659 303.658Z" fill="#25523E"/>
<path d="M270.287 191.922C271.521 190.213 273.115 188.797 274.958 187.774C276.8 186.751 278.845 186.146 280.948 186.002C282.657 186.083 284.333 186.508 285.875 187.251C287.416 187.994 288.793 189.04 289.922 190.326C290.098 190.538 290.196 190.805 290.198 191.081C290.201 191.357 290.108 191.626 289.935 191.841C289.762 192.056 289.52 192.205 289.249 192.262C288.979 192.319 288.698 192.281 288.452 192.154C285.926 190.615 282.975 189.919 280.027 190.167C277.079 190.416 274.287 191.595 272.053 193.535C271.836 193.757 271.541 193.887 271.231 193.896C270.921 193.905 270.619 193.793 270.39 193.583C270.16 193.374 270.021 193.083 270.002 192.773C269.983 192.464 270.085 192.158 270.287 191.922Z" fill="#25523E"/>
<path d="M319.048 192.869C312.096 187.152 302.663 191.933 302.565 191.981C302.299 192.121 301.989 192.155 301.699 192.077C301.408 191.999 301.158 191.815 300.997 191.56C300.837 191.306 300.778 191 300.832 190.704C300.887 190.409 301.051 190.144 301.292 189.964C306.111 186.327 310.476 184.972 314.272 185.941C315.699 186.345 317.026 187.044 318.167 187.992C319.308 188.94 320.239 190.116 320.898 191.445C321.012 191.692 321.039 191.969 320.974 192.233C320.91 192.497 320.757 192.731 320.542 192.897C320.327 193.062 320.062 193.15 319.79 193.145C319.519 193.14 319.257 193.042 319.048 192.869Z" fill="#25523E"/>
<path fill-rule="evenodd" clip-rule="evenodd" d="M287.226 196.195C286.475 197.008 285.561 197.654 284.544 198.09C283.527 198.526 282.429 198.743 281.323 198.726C280.216 198.709 279.125 198.459 278.122 197.992C277.119 197.525 276.225 196.851 275.5 196.015C275.5 196.015 280.152 190.509 287.226 196.195Z" fill="white"/>
<path fill-rule="evenodd" clip-rule="evenodd" d="M314.609 196.017C314.609 196.017 309.961 190.513 302.883 196.196C306.798 199.676 310.703 199.865 314.609 196.017Z" fill="white"/>
<path d="M287.981 195.262C280.099 188.923 274.65 195.181 274.6 195.243C274.404 195.486 274.312 195.795 274.341 196.106C274.371 196.416 274.52 196.702 274.758 196.904C274.996 197.106 275.303 197.207 275.613 197.186C275.924 197.165 276.215 197.023 276.423 196.791C276.997 196.168 277.692 195.67 278.467 195.327C278.319 195.782 278.282 196.266 278.359 196.739C278.436 197.211 278.624 197.659 278.908 198.044C279.192 198.43 279.563 198.742 279.991 198.956C280.42 199.17 280.893 199.278 281.372 199.273C282.188 199.271 282.97 198.947 283.546 198.37C284.123 197.793 284.448 197.011 284.449 196.195C284.431 196.033 284.399 195.873 284.353 195.717C286.268 196.71 286.428 197.392 287.225 197.392C287.473 197.393 287.716 197.318 287.92 197.175C288.123 197.032 288.277 196.83 288.36 196.596C288.443 196.362 288.451 196.107 288.383 195.868C288.316 195.629 288.175 195.417 287.981 195.262Z" fill="#25523E"/>
<path d="M315.537 195.243C315.485 195.181 310.034 188.918 302.158 195.262C302.036 195.361 301.934 195.482 301.858 195.62C301.783 195.758 301.735 195.91 301.718 196.066C301.701 196.222 301.715 196.381 301.759 196.531C301.803 196.682 301.877 196.823 301.975 196.946C302.074 197.068 302.195 197.17 302.333 197.246C302.471 197.321 302.623 197.369 302.779 197.386C302.935 197.403 303.093 197.389 303.244 197.345C303.395 197.301 303.536 197.227 303.659 197.129C304.317 196.589 305.029 196.118 305.784 195.722C305.738 195.878 305.706 196.038 305.688 196.2C305.689 197.016 306.014 197.798 306.591 198.375C307.167 198.952 307.949 199.276 308.765 199.278C309.244 199.284 309.718 199.175 310.146 198.962C310.575 198.748 310.947 198.436 311.231 198.05C311.515 197.665 311.703 197.217 311.779 196.744C311.855 196.271 311.818 195.787 311.67 195.332C312.445 195.676 313.141 196.174 313.716 196.796C313.926 197.021 314.215 197.156 314.522 197.173C314.829 197.191 315.131 197.089 315.365 196.89C315.599 196.691 315.748 196.409 315.78 196.104C315.812 195.798 315.725 195.491 315.537 195.248V195.243Z" fill="#25523E"/>
<path d="M296.126 223.185C293.255 223.185 291.725 221.575 288.756 220.974C285.31 220.271 286.068 216.36 287.985 213.348C288.16 213.091 288.428 212.912 288.733 212.85C289.037 212.787 289.354 212.846 289.616 213.013C289.879 213.18 290.066 213.442 290.138 213.744C290.21 214.047 290.161 214.365 290.002 214.633C289.199 215.714 288.778 217.031 288.806 218.378C288.827 218.43 288.88 218.552 289.244 218.617C292.666 219.309 293.848 220.771 296.138 220.771C296.444 220.806 296.753 220.774 297.045 220.677C297.337 220.581 297.605 220.423 297.83 220.213C300.283 218.335 301.745 219.017 302.051 218.059C302.044 217.474 301.919 216.897 301.681 216.362C301.444 215.827 301.1 215.346 300.67 214.948C300.558 214.832 300.47 214.693 300.412 214.542C300.355 214.39 300.329 214.228 300.336 214.066C300.342 213.904 300.382 213.744 300.453 213.598C300.523 213.452 300.623 213.322 300.745 213.215C300.867 213.108 301.01 213.028 301.165 212.978C301.319 212.928 301.482 212.911 301.644 212.926C301.805 212.941 301.962 212.989 302.105 213.067C302.247 213.145 302.372 213.251 302.472 213.379C305.15 216.451 305.406 220.146 301.568 221.063C298.694 221.749 299.208 223.185 296.126 223.185Z" fill="#25523E"/>
<path fill-rule="evenodd" clip-rule="evenodd" d="M281.367 226.308C281.367 226.308 291.837 224.786 295.407 227.143C299.981 225.341 305.012 225.048 309.765 226.308C308.151 228.593 305.994 230.44 303.487 231.682C300.98 232.924 298.203 233.521 295.407 233.42C290.025 232.81 285.042 230.286 281.367 226.308Z" fill="white"/>
<path d="M296.209 234.636C293.217 234.489 290.284 233.748 287.582 232.454C284.88 231.161 282.463 229.341 280.473 227.103C280.33 226.941 280.233 226.745 280.193 226.533C280.153 226.322 280.17 226.103 280.244 225.901C280.317 225.698 280.444 225.519 280.611 225.383C280.777 225.247 280.978 225.158 281.191 225.126C282.253 224.97 291.308 223.733 295.479 225.813C300.112 224.121 305.153 223.889 309.921 225.15C310.103 225.197 310.271 225.286 310.412 225.41C310.553 225.533 310.663 225.689 310.733 225.863C310.803 226.037 310.831 226.226 310.815 226.413C310.798 226.6 310.738 226.78 310.639 226.94C309.039 229.298 306.89 231.231 304.376 232.572C301.861 233.913 299.058 234.621 296.209 234.636ZM284.057 227.217C292.589 234.451 301.945 233.401 307.528 227.093C303.63 226.382 299.612 226.777 295.927 228.232C295.741 228.321 295.534 228.36 295.329 228.346C295.123 228.332 294.924 228.264 294.752 228.151C292.72 226.803 287.573 226.906 284.057 227.21V227.217Z" fill="#25523E"/>
<path d="M297.832 241.065C293.978 240.981 290.212 239.899 286.901 237.925C286.767 237.841 286.651 237.73 286.56 237.6C286.469 237.47 286.405 237.323 286.371 237.168C286.337 237.013 286.335 236.853 286.364 236.697C286.392 236.541 286.452 236.392 286.539 236.26C286.625 236.127 286.738 236.013 286.869 235.924C287 235.835 287.148 235.773 287.304 235.741C287.459 235.71 287.619 235.71 287.775 235.741C287.93 235.772 288.078 235.834 288.21 235.923C288.59 236.176 297.741 241.986 305.887 236.069C306.143 235.882 306.464 235.805 306.777 235.855C307.091 235.904 307.372 236.076 307.558 236.333C307.745 236.59 307.822 236.91 307.772 237.223C307.723 237.537 307.551 237.818 307.294 238.004C304.553 240.018 301.233 241.092 297.832 241.065Z" fill="#25523E"/>
<path d="M344.765 198.325C344.626 195.336 342.518 192.582 337.942 191.737C338.55 186.341 340.17 163.952 327.48 149.745C320.181 141.573 309.446 137.694 295.629 138.175C281.29 138.689 270.421 143.439 263.324 152.255C251.837 166.536 253.85 186.745 254.56 191.74C249.99 192.596 247.898 195.348 247.762 198.323C247.41 206.007 245.814 226.933 252.524 229.003C258.267 230.779 264.759 230.119 264.46 224.299C264.238 219.924 263.802 206.454 263.742 204.992C264.097 203.027 265.348 194.786 261.905 192.606C261.44 192.335 260.943 192.124 260.426 191.979C259.792 188.349 257.181 169.812 267.066 157.055C273.116 149.247 282.752 145.011 295.708 144.466C308.056 143.942 317.468 147.278 323.658 154.363C335.92 168.403 331.34 192.139 330.598 192.606C327.155 194.786 328.406 203.027 328.76 204.992C328.712 206.454 328.282 219.924 328.042 224.299C327.748 230.028 334.068 230.827 339.981 229.003C346.751 226.926 345.133 206.093 344.765 198.325Z" fill="#25523E"/>
<path fill-rule="evenodd" clip-rule="evenodd" d="M279.251 71.3023L271.569 89.2091L263.88 71.3023C263.645 70.1621 263.667 68.9839 263.944 67.8532C264.221 66.7225 264.746 65.6676 265.481 64.7651C266.217 63.8627 267.144 63.1353 268.195 62.6357C269.247 62.1361 270.396 61.877 271.561 61.877C272.725 61.877 273.874 62.1361 274.926 62.6357C275.977 63.1353 276.904 63.8627 277.64 64.7651C278.375 65.6676 278.9 66.7225 279.177 67.8532C279.454 68.9839 279.476 70.1621 279.241 71.3023H279.251Z" fill="white"/>
<path d="M271.575 60.6846C269.179 60.6871 266.882 61.6399 265.188 63.3339C263.494 65.028 262.542 67.3248 262.539 69.7205C262.539 72.6376 262.943 71.7402 270.474 89.6806C270.566 89.8964 270.72 90.0805 270.915 90.2098C271.111 90.3392 271.34 90.4082 271.575 90.4082C271.81 90.4082 272.039 90.3392 272.235 90.2098C272.431 90.0805 272.584 89.8964 272.676 89.6806C281.027 70.2566 280.613 71.7594 280.613 69.7205C280.61 67.3246 279.657 65.0278 277.962 63.3338C276.268 61.6398 273.971 60.6871 271.575 60.6846ZM278.108 70.9505L271.575 86.1724C265.047 70.4169 264.932 71.6302 264.932 69.7205C264.932 68.7958 265.125 67.8812 265.499 67.0352C265.872 66.1893 266.418 65.4307 267.102 64.8079C267.786 64.1851 268.592 63.7118 269.469 63.4184C270.346 63.1249 271.274 63.0178 272.195 63.1037C273.116 63.1897 274.009 63.4669 274.816 63.9176C275.624 64.3683 276.328 64.9826 276.885 65.7211C277.441 66.4597 277.838 67.3063 278.048 68.2068C278.259 69.1072 278.279 70.0418 278.108 70.9505Z" fill="#25523E"/>
<path d="M268 69.7213C268 70.6733 268.378 71.5863 269.051 72.2595C269.725 72.9327 270.638 73.3108 271.59 73.3108C272.542 73.3108 273.455 72.9327 274.128 72.2595C274.801 71.5863 275.179 70.6733 275.179 69.7213C275.179 68.7693 274.801 67.8563 274.128 67.1832C273.455 66.51 272.542 66.1318 271.59 66.1318C270.638 66.1318 269.725 66.51 269.051 67.1832C268.378 67.8563 268 68.7693 268 69.7213Z" fill="#25523E"/>
<path fill-rule="evenodd" clip-rule="evenodd" d="M228.958 431.804L210.156 319.419C210.156 319.419 354.868 311.668 396.129 319.709L378.715 429.715L228.958 431.804Z" fill="white"/>
<path d="M228.959 433C228.676 433.001 228.401 432.901 228.185 432.718C227.968 432.535 227.824 432.282 227.777 432.002L208.977 319.622C208.95 319.456 208.957 319.286 209 319.123C209.042 318.959 209.119 318.807 209.224 318.676C209.33 318.544 209.462 318.436 209.612 318.359C209.762 318.283 209.927 318.238 210.095 318.23C211.531 318.151 355.429 310.572 396.359 318.538C396.664 318.597 396.935 318.771 397.113 319.025C397.292 319.279 397.365 319.593 397.316 319.9L379.902 429.909C379.858 430.187 379.717 430.44 379.503 430.625C379.29 430.809 379.019 430.912 378.737 430.916L228.959 433ZM211.559 320.544L229.969 430.593L377.691 428.533L394.765 320.67C354.864 313.499 226.145 319.802 211.559 320.544Z" fill="#25523E"/>
</svg>
