<svg width="677" height="557" viewBox="0 0 677 557" fill="none" xmlns="http://www.w3.org/2000/svg">
<path d="M352.151 261.322L343.796 253.649C343.796 253.649 328.999 269.939 329.008 273.144C329.016 276.35 333.681 282.847 333.681 282.847C333.681 282.847 348.904 298.928 350.012 306.539L352.157 293.87L340.582 274.442L341.618 270.042L352.151 261.322Z" fill="#378B65"/>
<path d="M308.462 231.178C312.125 231.872 315.823 232.367 319.54 232.659C321.621 232.698 313.346 235.135 311.589 235.099C309.832 235.063 308.172 235.099 308.172 235.099L308.462 231.178Z" fill="#378B65"/>
<path d="M362.141 221.903C364.344 219.704 366.011 217.027 367.014 214.08L382.783 226.562C382.783 226.562 382.318 234.082 377.698 237.686L362.141 221.903Z" fill="#378B65"/>
<path d="M306.656 184.904C306.656 184.904 317.028 197.011 321.651 199.197C326.274 201.383 342.65 201.383 342.65 201.383L306.656 184.904Z" fill="#378B65"/>
<path d="M59.3672 424.59L61.4949 416.023L64.9762 425.32L59.3672 424.59Z" fill="#378B65"/>
<path d="M75.7109 424.59L82.0997 416.023L83.6343 424.59H75.7109Z" fill="#378B65"/>
<path d="M89.2088 422.056L94.5867 419.521L93.378 425.32L88.6797 424.59L89.2088 422.056Z" fill="#378B65"/>
<path d="M101.391 415.218L117.416 402.204V396.205L109.698 401.806L101.391 404.206V415.218Z" fill="#378B65"/>
<path d="M343.274 417.287C343.274 417.287 333.719 412.06 332.371 412.233C331.023 412.405 324.133 411.055 332.371 422.005C332.371 422.005 316.616 433.616 316.477 435.964C316.337 438.311 318.064 439.495 320.785 438.256C323.506 437.016 331.925 429.692 335.03 429.124C337.592 428.785 340.181 428.704 342.759 428.884C342.759 428.884 324.996 439.673 322.871 445.594C320.746 451.515 324.651 451.028 326.659 450.487C328.667 449.947 333.404 449.19 333.404 449.19C334.39 450.041 335.665 450.481 336.966 450.421C339.138 450.312 351.726 443.18 354.974 442.386C358.221 441.592 365.676 452.245 370.817 452.922C375.959 453.598 410.462 440.461 410.462 440.461L401.492 418.663C401.492 418.663 383.038 431.26 378.9 430.616C374.761 429.973 343.274 417.287 343.274 417.287Z" fill="white"/>
<path d="M266.589 389.663L282.505 410.887L245.077 415.664C242.977 417.803 240.559 419.605 237.909 421.005C234.771 421.808 231.522 422.091 228.292 421.841C226.361 423.85 223.972 425.361 221.33 426.244C218.403 426.603 215.286 425.898 218.6 420.278C221.914 414.658 225.897 414.577 225.897 414.577L216.094 403.128C216.094 403.128 207.146 409.687 205.433 411.233C203.72 412.778 201.94 414.575 201.94 414.575C201.94 414.575 202.147 418.27 199.22 419.031C196.292 419.791 194.939 416.452 195.089 413.603C195.089 413.603 193.714 401.761 195.908 397.575L197.15 394.149L194.663 393.111C192.196 393.907 189.804 394.919 187.514 396.135C185.008 397.653 181.011 395.197 185.222 392.651C189.021 390.588 192.97 388.814 197.036 387.346L201.414 389.524L203.823 390.125L212.404 390.88L231.342 389.437L238.666 398.859L266.589 389.663Z" fill="white"/>
<path d="M304.753 184.904L303.987 199.283L308.165 209.045L299.214 224.053C299.214 224.053 298.687 226.175 299.771 226.991C300.854 227.807 306.63 228.481 307.544 229.829C308.17 230.977 308.561 232.238 308.694 233.539C311.4 234.008 314.167 234.008 316.873 233.539C319.533 232.659 319.887 230.896 319.887 230.896C319.031 234.63 317.032 238.005 314.166 240.549L314.016 242.111L316.113 243.342C315.87 244.684 315.93 246.063 316.291 247.378C316.651 248.693 317.303 249.91 318.196 250.939C319.158 251.757 320.308 252.324 321.542 252.589C322.777 252.854 324.058 252.809 325.27 252.457L339.167 248.305L352.728 261.322L377.935 237.928L362.141 222.243C359.215 224.608 355.507 225.786 351.753 225.546C345.517 225.109 339.61 220.63 338.83 210.351C338.83 210.351 341.473 202.831 343.389 201.375C345.306 199.918 304.753 184.904 304.753 184.904Z" fill="white"/>
<path d="M312.203 207.705L314.938 213.217L322.808 207.705H312.203Z" fill="white"/>
<path d="M331.703 238.449C331.703 238.449 321.203 240.635 320.329 242.56C319.454 244.484 320.24 247.899 324.267 245.799C327.237 243.902 329.771 241.397 331.703 238.449Z" fill="white"/>
<path d="M266.594 389.663L282.51 410.887L347.025 393.111L352.595 377.364L357.786 381.598C357.786 381.598 358.786 394.846 359.694 399.316C360.601 403.786 362.459 419.883 360.849 423.122L378.899 430.622C378.899 430.622 397.152 422.189 401.491 418.669L410.461 440.467L425.762 434.774L496.236 435.117C496.236 435.117 493.869 408.191 491.948 403.997C491.948 403.997 504.333 397.336 506.513 391.465C508.694 385.594 505.502 371.003 503.667 365.467C501.832 359.93 481.523 310.235 476.095 302.634C470.667 295.034 457.436 260.96 446.081 255.657C440.518 252.953 434.795 250.592 428.943 248.589C428.943 248.589 409.612 244.464 405.944 242.495C399.162 239.346 393.74 233.862 390.668 227.044L341.633 270.855L333.278 282.855L313.644 351.536C313.506 354.801 314.051 358.058 315.242 361.1C317.061 364.442 311.75 362.439 311.75 362.439C311.75 362.439 307.096 361.028 306.737 363.682C306.532 365.42 306.608 367.181 306.962 368.895C306.036 370.648 304.842 372.245 303.423 373.63C301.32 375.521 266.594 389.663 266.594 389.663Z" fill="#81F889"/>
<path d="M92.4463 406.499L81.5625 409.301" stroke="#378B65" stroke-width="0.639" stroke-linecap="round" stroke-linejoin="round"/>
<path d="M71.6973 380.785L16.3203 210.282L41.3853 201.345L109.192 402.205L97.5783 405.184" stroke="#378B65" stroke-width="0.639" stroke-linecap="round" stroke-linejoin="round"/>
<path d="M41.3828 201.345H93.1671L149.691 370.266L109.192 402.204" stroke="#378B65" stroke-width="0.639" stroke-linecap="round" stroke-linejoin="round"/>
<path d="M51.4453 210.2H87.8536L141.448 367.026L111.966 387.031L51.4453 210.2Z" stroke="#378B65" stroke-width="0.639" stroke-linecap="round" stroke-linejoin="round"/>
<path d="M101.391 425.319V404.206" stroke="#378B65" stroke-width="0.639" stroke-linecap="round" stroke-linejoin="round"/>
<path d="M117.414 396.205V443.801L125.516 446.641C125.942 446.79 126.311 447.068 126.573 447.436C126.834 447.805 126.975 448.245 126.975 448.697C126.974 449.275 126.744 449.829 126.335 450.238C125.927 450.647 125.372 450.877 124.794 450.877H106.266" stroke="#378B65" stroke-width="0.639" stroke-linecap="round" stroke-linejoin="round"/>
<path d="M241.767 404.156C241.767 404.156 232.855 390.537 231.342 389.437C229.83 388.337 215.028 390.899 211.792 390.763C208.556 390.627 202.264 388.749 199.1 392.206C196.86 394.432 195.521 397.407 195.341 400.561C194.929 403.864 193.213 411.422 195.469 413.614" stroke="#378B65" stroke-width="0.639" stroke-linecap="round" stroke-linejoin="round"/>
<path d="M213.892 393.367C213.892 393.367 206.236 392.206 203.685 394.83C200.646 398.945 198.387 403.582 197.021 408.512C195.96 411.941 194.136 416.759 197.021 418.719C198.934 420.02 201.772 417.939 202.621 413.898" stroke="#378B65" stroke-width="0.639" stroke-linecap="round" stroke-linejoin="round"/>
<path d="M218.714 394.15C215.172 394.85 211.868 396.448 209.12 398.79C205.456 402.378 202.007 406.179 198.79 410.173C197.66 412.256 199.74 416.921 205.115 411.543C209.246 406.877 214.458 403.294 220.293 401.107C224.933 399.843 224.51 399.843 224.51 399.843L228.297 406.109" stroke="#378B65" stroke-width="0.639" stroke-linecap="round" stroke-linejoin="round"/>
<path d="M202.491 390.373C201.042 388.802 199.125 387.741 197.024 387.346C194.445 387.346 184.882 391.857 183.768 394.149C182.654 396.442 184.255 398.048 188.224 395.748C190.316 394.454 192.631 393.56 195.05 393.111L197.139 394.149" stroke="#378B65" stroke-width="0.639" stroke-linecap="round" stroke-linejoin="round"/>
<path d="M215.578 403.132C217.48 404.473 219.212 406.038 220.739 407.794C222.169 410.26 223.898 412.54 225.888 414.581" stroke="#378B65" stroke-width="0.639" stroke-linecap="round" stroke-linejoin="round"/>
<path d="M229.991 419.458C228.366 421.216 226.59 422.83 224.686 424.281C222.553 425.863 217.027 428.417 217.687 422.755C218.523 415.609 233.693 411.818 233.693 411.818" stroke="#378B65" stroke-width="0.639" stroke-linecap="round" stroke-linejoin="round"/>
<path d="M227.828 421.649C230.986 422.018 234.182 421.883 237.297 421.251C240.213 419.883 242.856 417.996 245.095 415.681C245.095 415.681 274.435 413.001 282.523 410.904" stroke="#378B65" stroke-width="0.639" stroke-linecap="round" stroke-linejoin="round"/>
<path d="M238.359 399.038L266.184 389.126" stroke="#378B65" stroke-width="0.639" stroke-linecap="round" stroke-linejoin="round"/>
<path d="M282.508 410.887C282.508 410.887 345.059 395.896 347.457 392.763C349.855 389.629 352.595 377.364 352.595 377.364" stroke="#378B65" stroke-width="0.639" stroke-linecap="round" stroke-linejoin="round"/>
<path d="M314.652 375.299C307.194 374.16 307.297 365.977 306.261 368.982C306.033 369.624 305.748 370.244 305.409 370.834C304.129 373.03 302.186 374.763 299.858 375.783L266.188 389.126" stroke="#378B65" stroke-width="0.639" stroke-linecap="round" stroke-linejoin="round"/>
<path d="M306.874 368.628C306.874 368.628 305.069 362.05 309.005 362.05C312.94 362.05 314.444 364.278 315.377 362.958C316.31 361.638 312.592 358.003 313.513 353.344C314.435 348.685 333.27 282.855 333.27 282.855" stroke="#378B65" stroke-width="0.639" stroke-linecap="round" stroke-linejoin="round"/>
<path d="M316.031 369.754C316.031 369.754 325.937 378.281 328.55 378.833C331.162 379.384 318.371 358.06 318.371 358.06" stroke="#378B65" stroke-width="0.639" stroke-linecap="round" stroke-linejoin="round"/>
<path d="M282.508 410.888L266.188 389.126" stroke="#378B65" stroke-width="0.639" stroke-linecap="round" stroke-linejoin="round"/>
<path d="M401.49 418.307L410.461 440.47C410.461 440.47 378.269 453.949 371.749 453.114C365.229 452.278 359.799 442.709 356.955 442.338C351.157 441.586 338.984 450.459 336.466 450.521C335.848 450.569 335.229 450.434 334.687 450.134C334.145 449.833 333.703 449.38 333.416 448.83C333.416 448.83 329.715 450.869 328.091 449.688C328.091 449.688 324.702 452.22 322.728 450.245C320.753 448.27 322.482 445.789 325.902 441.433C331.712 434.02 343.395 428.586 343.395 428.586C339.074 428.042 334.689 428.819 330.818 430.814C327.754 432.538 324.215 436.301 320.792 438.258C318.497 439.576 313.345 437.921 319.146 432.131C323.443 427.854 336.073 419.635 340.824 418.78C348.453 417.407 375.035 430.037 378.394 430.669C381.753 431.301 401.49 418.307 401.49 418.307Z" stroke="#378B65" stroke-width="0.639" stroke-linecap="round" stroke-linejoin="round"/>
<path d="M348.243 419.629C348.243 419.629 337.165 414.533 334.636 412.745C332.107 410.957 327.339 411.224 328.381 415.633C329.034 418.286 330.706 420.576 333.035 422.005" stroke="#378B65" stroke-width="0.639" stroke-linecap="round" stroke-linejoin="round"/>
<path d="M415.094 314.173C415.094 314.173 422.432 313.384 426.888 323.085C431.344 332.785 438.351 359.599 444.409 363.879C450.466 368.16 470.905 374.281 470.905 374.281" stroke="#378B65" stroke-width="0.639" stroke-linecap="round" stroke-linejoin="round"/>
<path d="M447.144 365.479C446.979 368.786 447.55 372.09 448.815 375.151C449.213 376.717 449.944 378.179 450.96 379.435C451.976 380.692 453.252 381.714 454.7 382.431C454.7 382.431 447.266 377.32 445.871 380.417C444.994 382.541 444.502 384.805 444.417 387.101L401.492 418.307" stroke="#378B65" stroke-width="0.639" stroke-linecap="round" stroke-linejoin="round"/>
<path d="M410.465 440.467C410.465 440.467 493.878 410.946 505.876 392.682C517.874 374.418 462.285 276.313 455.582 265.129C445.247 247.892 417.11 247.411 405.939 242.487C399.033 239.206 393.538 233.551 390.457 226.554C390.457 226.554 345.95 266.97 341.633 270.855C337.317 274.74 353.481 288.587 352.152 295.7C352.152 295.7 344.104 338.388 343.029 348.317C341.954 358.245 337.929 365.224 357.789 381.597C357.872 387.915 358.592 394.209 359.936 400.382C361.649 407.84 361.96 415.551 360.853 423.122" stroke="#378B65" stroke-width="0.639" stroke-linecap="round" stroke-linejoin="round"/>
<path d="M328.08 449.685C327.294 448.571 326.551 447.093 330.029 442.637C334.465 436.749 340.951 432.742 348.201 431.41" stroke="#378B65" stroke-width="0.639" stroke-linecap="round" stroke-linejoin="round"/>
<path d="M333.414 448.828C333.414 446.879 334.751 444.464 340.574 441.334C344.68 438.803 349.271 437.162 354.051 436.519" stroke="#378B65" stroke-width="0.639" stroke-linecap="round" stroke-linejoin="round"/>
<path d="M450.945 387.583C457.3 390.22 464.043 391.802 470.908 392.267C479.723 392.267 462.656 379.888 462.656 379.888" stroke="#378B65" stroke-width="0.639" stroke-linecap="round" stroke-linejoin="round"/>
<path d="M352.156 261.322L339.175 248.305C339.175 248.305 326.339 253.355 321.429 252.669C316.519 251.984 316.201 246.016 316.316 244.075C316.36 243.32 315.759 242.855 315.007 242.571C314.772 242.479 314.564 242.331 314.402 242.139C314.239 241.947 314.126 241.718 314.073 241.472C314.021 241.226 314.03 240.971 314.1 240.729C314.17 240.487 314.299 240.267 314.475 240.087C320.045 234.444 319.894 230.896 319.894 230.896C317.04 235.692 310.818 235.104 309.829 235.074C306.977 234.946 308.779 233.019 308.462 231.192C308.144 229.365 305.696 229.242 305.696 229.242C299.391 228.064 297.865 226.568 300.355 222.391C302.106 219.447 303.958 216.286 306.613 212.393C309.267 208.499 305.727 206.374 304.312 201.063C302.897 195.752 305.02 183.187 305.02 183.187C305.02 183.187 314.489 197.217 323.203 199.771C329.811 201.339 336.621 201.885 343.394 201.389" stroke="#378B65" stroke-width="0.639" stroke-linecap="round" stroke-linejoin="round"/>
<path d="M306.656 225.585C307.683 225.844 308.691 226.174 309.672 226.574" stroke="#378B65" stroke-width="0.639" stroke-linecap="round" stroke-linejoin="round"/>
<path d="M340.898 244.974C340.898 244.974 353.272 232.238 354.406 229.336" stroke="#378B65" stroke-width="0.639" stroke-linecap="round" stroke-linejoin="round"/>
<path d="M311.586 207.507C311.586 207.507 320.317 207.243 322.169 207.507" stroke="#378B65" stroke-width="0.639" stroke-linecap="round" stroke-linejoin="round"/>
<path d="M312.775 210.948C312.915 211.33 313.095 211.693 313.306 212.017C313.516 212.34 313.752 212.617 314.001 212.833C314.25 213.048 314.506 213.197 314.755 213.272C315.004 213.347 315.241 213.345 315.453 213.267C315.664 213.19 315.846 213.038 315.988 212.82C316.129 212.602 316.228 212.322 316.279 211.997C316.329 211.672 316.33 211.308 316.282 210.925C316.233 210.542 316.136 210.149 315.996 209.767C315.856 209.384 315.675 209.021 315.465 208.698C315.255 208.374 315.018 208.097 314.77 207.882C314.521 207.666 314.265 207.517 314.016 207.443C313.767 207.368 313.53 207.369 313.318 207.447C313.107 207.525 312.925 207.677 312.783 207.895C312.641 208.113 312.542 208.392 312.492 208.717C312.441 209.042 312.44 209.406 312.489 209.789C312.537 210.172 312.634 210.566 312.775 210.948Z" fill="#378B65"/>
<path d="M308.172 201.857C311.619 200.984 315.194 200.733 318.73 201.116" stroke="#378B65" stroke-width="0.639" stroke-linecap="round" stroke-linejoin="round"/>
<path d="M338.828 211.674C338.828 215.361 340.293 218.896 342.899 221.503C345.506 224.11 349.042 225.574 352.728 225.574C356.415 225.574 359.95 224.11 362.557 221.503C365.164 218.896 366.628 215.361 366.628 211.674C366.628 207.988 365.164 204.452 362.557 201.846C359.95 199.239 356.415 197.774 352.728 197.774C349.042 197.774 345.506 199.239 342.899 201.846C340.293 204.452 338.828 207.988 338.828 211.674Z" stroke="#378B65" stroke-width="0.639" stroke-linecap="round" stroke-linejoin="round"/>
<path d="M346.203 211.674C346.203 213.404 346.891 215.064 348.114 216.288C349.338 217.511 350.998 218.199 352.728 218.199C354.459 218.199 356.119 217.511 357.342 216.288C358.566 215.064 359.254 213.404 359.254 211.674C359.254 209.943 358.566 208.283 357.342 207.06C356.119 205.836 354.459 205.148 352.728 205.148C350.998 205.148 349.338 205.836 348.114 207.06C346.891 208.283 346.203 209.943 346.203 211.674Z" stroke="#378B65" stroke-width="0.639" stroke-linecap="round" stroke-linejoin="round"/>
<path d="M350.383 197.774C350.383 197.774 350.205 179.513 348.618 168.053C347.03 156.593 346.203 149.541 346.203 149.541H350.381C352.489 160.649 353.831 171.889 354.397 183.181C354.619 192.564 354.397 197.774 354.397 197.774" stroke="#378B65" stroke-width="0.639" stroke-linecap="round" stroke-linejoin="round"/>
<path d="M343.391 201.384L305.008 183.181C305.008 183.181 305.896 172.765 311.578 167.991C317.259 163.218 336.364 149.427 346.198 149.541" stroke="#378B65" stroke-width="0.639" stroke-linecap="round" stroke-linejoin="round"/>
<path d="M350.391 149.555C350.391 149.555 357.659 150.36 366.636 150.36C375.612 150.36 416.047 149.463 415.869 169.59C415.69 189.717 401.849 190.436 383.88 187.74L374.893 187.2L379.926 193.132" stroke="#378B65" stroke-width="0.639" stroke-linecap="round" stroke-linejoin="round"/>
<path d="M395.735 188.848C397.122 191.259 397.977 193.94 398.241 196.71C398.06 199.773 390.872 200.907 390.872 200.907C390.872 200.907 395.546 208.309 393.379 211.674C391.212 215.038 387.987 212.166 385.829 218.995C385.165 221.599 384.252 224.133 383.102 226.562L366.609 213.782" stroke="#378B65" stroke-width="0.639" stroke-linecap="round" stroke-linejoin="round"/>
<path d="M372.594 197.774C372.594 197.774 384.096 207.889 386.285 207.39C388.474 206.892 384.369 193.117 384.369 193.117" stroke="#378B65" stroke-width="0.639" stroke-linecap="round" stroke-linejoin="round"/>
<path d="M305.008 183.181C305.008 183.181 326.731 185.89 333.195 188.848" stroke="#378B65" stroke-width="0.639" stroke-linecap="round" stroke-linejoin="round"/>
<path d="M383.123 226.563C382.216 230.673 380.449 234.545 377.937 237.923L362.141 222.243" stroke="#378B65" stroke-width="0.639" stroke-linecap="round" stroke-linejoin="round"/>
<path d="M352.73 211.674C346.833 220.863 340.308 229.633 333.202 237.922M333.202 237.922C326.618 244.974 322.087 247.765 320.327 245.595C318.377 243.203 322.318 241.493 323.905 240.691C326.869 239.362 329.995 238.431 333.202 237.922Z" stroke="#378B65" stroke-width="0.639" stroke-linecap="round" stroke-linejoin="round"/>
<path d="M210.281 153.052C210.281 155.069 211.083 157.004 212.509 158.43C213.935 159.857 215.87 160.658 217.887 160.658C219.904 160.658 221.839 159.857 223.265 158.43C224.692 157.004 225.493 155.069 225.493 153.052C225.493 151.035 224.692 149.1 223.265 147.674C221.839 146.248 219.904 145.446 217.887 145.446C215.87 145.446 213.935 146.248 212.509 147.674C211.083 149.1 210.281 151.035 210.281 153.052Z" stroke="#378B65" stroke-width="0.639" stroke-linecap="round" stroke-linejoin="round"/>
<path d="M217.585 145.344C216.455 140.625 215.656 135.833 215.195 131.004C214.761 124.687 214.416 115.884 214.416 115.884L212.188 116.352C212.261 123.588 212.803 130.811 213.808 137.977C214.741 143.026 215.443 145.795 215.443 145.795L217.585 145.344Z" fill="#378B65"/>
<path d="M217.883 153.053C222.073 157.313 226.551 161.279 231.287 164.922C235.604 167.961 238.344 168.947 239.043 167.588C239.812 166.089 237.517 165.613 236.576 165.36C234.839 164.98 233.06 164.832 231.284 164.92" stroke="#378B65" stroke-width="0.639" stroke-linecap="round" stroke-linejoin="round"/>
<path d="M344.108 253.254C344.108 253.254 331.996 268.293 330.5 270.39C326.838 275.551 328.888 277.648 336.265 285.708C343.643 293.767 349.592 301.2 350.051 306.99" stroke="#378B65" stroke-width="0.639" stroke-linecap="round" stroke-linejoin="round"/>
<path d="M492.414 403.998C492.414 403.998 497.148 427.62 496.235 435.118H425.117" stroke="#378B65" stroke-width="0.639" stroke-linecap="round" stroke-linejoin="round"/>
<path d="M447.992 256.977C452.217 252.904 457.271 249.79 462.81 247.849C468.348 245.907 474.24 245.184 480.084 245.729C495.003 246.843 513.621 262.439 521.823 314.156C530.024 365.873 528.339 435.117 528.339 435.117" stroke="#378B65" stroke-width="0.639" stroke-linecap="round" stroke-linejoin="round"/>
<path d="M496.234 435.117H545.465" stroke="#378B65" stroke-width="0.639" stroke-linecap="round" stroke-linejoin="round"/>
<path d="M473.438 254.9C473.438 254.9 486.335 257.521 496.358 275.679C516.081 311.405 512.79 395.284 513.163 429.495" stroke="#378B65" stroke-width="0.639" stroke-linecap="round" stroke-linejoin="round"/>
<path d="M331.491 435.964C331.491 435.964 315.369 444.597 312.695 460.628H371.626C371.17 457.543 370.073 454.587 368.404 451.953" stroke="#378B65" stroke-width="0.639" stroke-linecap="round" stroke-linejoin="round"/>
<path d="M324.448 450.989C322.708 453.971 321.502 457.232 320.883 460.628" stroke="#378B65" stroke-width="0.639" stroke-linecap="round" stroke-linejoin="round"/>
<path d="M75.1706 476.421H101.781C104.967 467.448 108.025 435.379 108.763 427.219C108.785 426.977 108.756 426.734 108.678 426.504C108.601 426.275 108.476 426.064 108.312 425.885C108.148 425.706 107.949 425.563 107.727 425.466C107.505 425.369 107.265 425.319 107.023 425.319H50.4064C50.1638 425.319 49.9238 425.369 49.7017 425.466C49.4795 425.563 49.28 425.706 49.116 425.885C48.952 426.063 48.827 426.274 48.749 426.504C48.671 426.734 48.6417 426.977 48.663 427.219C49.4038 435.379 52.4617 467.448 55.6478 476.421H82.2584" stroke="#378B65" stroke-width="0.639" stroke-linecap="round" stroke-linejoin="round"/>
<path d="M59.7584 450.892C59.7584 450.892 56.241 438.724 62.7718 437.722C69.3026 436.719 58.547 462.085 66.3115 461.834C74.0761 461.584 66.5399 438.415 72.3188 437.691C78.0977 436.967 73.5748 460.578 79.3509 460.829C85.127 461.08 77.8442 438.635 84.6257 437.674C91.4072 436.714 86.383 457.816 91.4072 458.562C96.4313 459.308 92.964 446.506 99.0938 443.994" stroke="#378B65" stroke-width="0.639" stroke-linecap="round" stroke-linejoin="round"/>
<path d="M88.5312 425.319L95.5467 391.654L100.195 392.623L93.3799 425.319" stroke="#378B65" stroke-width="0.639" stroke-linecap="round" stroke-linejoin="round"/>
<path d="M76.4113 424.528L71.0391 381.676L77.776 380.846L83.151 424.59" stroke="#378B65" stroke-width="0.639" stroke-linecap="round" stroke-linejoin="round"/>
<path d="M59.6061 425.35L47.6306 386.302C47.4505 385.698 47.517 385.048 47.8157 384.494C48.1143 383.939 48.6206 383.526 49.2237 383.344C49.5223 383.255 49.8356 383.225 50.1458 383.256C50.4559 383.288 50.7568 383.38 51.0312 383.528C51.3056 383.676 51.5482 383.877 51.7451 384.119C51.9419 384.36 52.0892 384.638 52.1785 384.937L64.154 424.877" stroke="#378B65" stroke-width="0.639" stroke-linecap="round" stroke-linejoin="round"/>
<path d="M96.4141 391.836L98.0823 383.829L100.993 384.436L99.3216 392.443" stroke="#378B65" stroke-width="0.639" stroke-linecap="round" stroke-linejoin="round"/>
<path d="M71.6953 386.978L78.4322 386.148" stroke="#378B65" stroke-width="0.639" stroke-linecap="round" stroke-linejoin="round"/>
<path d="M72.0156 389.624L78.7553 388.797" stroke="#378B65" stroke-width="0.639" stroke-linecap="round" stroke-linejoin="round"/>
<path d="M72.3438 392.272L79.0835 391.445" stroke="#378B65" stroke-width="0.639" stroke-linecap="round" stroke-linejoin="round"/>
<path d="M33.5625 476.422H51.4478" stroke="#378B65" stroke-width="0.639" stroke-linecap="round" stroke-linejoin="round"/>
<path d="M101.781 476.422H110.259" stroke="#378B65" stroke-width="0.639" stroke-linecap="round" stroke-linejoin="round"/>
<path d="M312.698 460.639C298.639 459.924 284.597 462.344 271.589 467.724C234.412 483.499 213.903 466.053 191.225 464.104C168.547 462.154 147.464 480.864 129.559 473.099C111.655 465.335 115.356 441.35 107.227 442.671" stroke="#378B65" stroke-width="0.639" stroke-linecap="round" stroke-linejoin="round"/>
<path d="M149.691 433.212C148.993 438.158 148.848 443.167 149.259 448.145C149.343 448.926 149.712 449.647 150.295 450.172C150.879 450.697 151.636 450.988 152.42 450.989H218.046C218.462 449.891 218.566 448.699 218.349 447.546C218.131 446.392 217.599 445.321 216.812 444.45C214.066 441.993 153.37 431.803 149.691 433.212Z" stroke="#378B65" stroke-width="0.639" stroke-linecap="round" stroke-linejoin="round"/>
<path d="M189.133 395.643C191.386 395.921 192.934 396.266 195.471 396.631" stroke="#378B65" stroke-width="0.639" stroke-linecap="round" stroke-linejoin="round"/>
<path d="M149.688 433.212L173.917 395.876C174.268 395.335 174.762 394.902 175.345 394.626C175.928 394.349 176.576 394.24 177.217 394.311C178.688 394.475 180.838 394.72 183.472 395.041" stroke="#378B65" stroke-width="0.639" stroke-linecap="round" stroke-linejoin="round"/>
<path d="M218.047 450.989L232.067 421.844" stroke="#378B65" stroke-width="0.639" stroke-linecap="round" stroke-linejoin="round"/>
<path d="M216.812 444.449L227.827 421.635" stroke="#378B65" stroke-width="0.639" stroke-linecap="round" stroke-linejoin="round"/>
<path d="M161.227 428.272L178.925 400.007" stroke="#378B65" stroke-width="0.639" stroke-linecap="round" stroke-linejoin="round"/>
<path d="M203.023 436.273L214.654 410.184" stroke="#378B65" stroke-width="0.639" stroke-linecap="round" stroke-linejoin="round"/>
<path d="M171.898 429.16L185.211 407.899" stroke="#378B65" stroke-width="0.639" stroke-linecap="round" stroke-linejoin="round"/>
<path d="M182.57 431.828L191.399 417.73" stroke="#378B65" stroke-width="0.639" stroke-linecap="round" stroke-linejoin="round"/>
<path d="M193.242 434.496L199.21 423.54" stroke="#378B65" stroke-width="0.639" stroke-linecap="round" stroke-linejoin="round"/>
<path d="M211.664 438.691L217.635 427.734" stroke="#378B65" stroke-width="0.639" stroke-linecap="round" stroke-linejoin="round"/>
<path d="M126.977 402.204H161.229" stroke="#378B65" stroke-width="0.639" stroke-linecap="round" stroke-linejoin="round"/>
<path d="M332.367 402.204H354.171" stroke="#378B65" stroke-width="0.639" stroke-linecap="round" stroke-linejoin="round"/>
<path d="M178.93 344.218H274.349" stroke="#378B65" stroke-width="0.639" stroke-linecap="round" stroke-linejoin="round"/>
<path d="M142.393 110.11C142.393 129.998 126.273 147.9 106.385 147.9C86.4976 147.9 70.3752 129.998 70.3752 110.11C70.3424 100.467 74.0979 91.197 80.8331 84.2957C87.5682 77.3944 96.7442 73.4141 106.385 73.2119C116.026 73.4141 125.202 77.3945 131.936 84.2959C138.671 91.1973 142.426 100.468 142.393 110.11Z" stroke="#378B65" stroke-width="0.639" stroke-linecap="round" stroke-linejoin="round"/>
<path d="M110.401 110.506C110.425 111.049 110.34 111.591 110.149 112.1C109.959 112.608 109.667 113.073 109.292 113.466C108.916 113.859 108.466 114.171 107.966 114.385C107.467 114.598 106.929 114.708 106.386 114.708C105.843 114.708 105.305 114.598 104.806 114.385C104.306 114.171 103.855 113.859 103.48 113.466C103.105 113.073 102.813 112.608 102.623 112.1C102.432 111.591 102.347 111.049 102.371 110.506C102.357 109.97 102.451 109.437 102.646 108.937C102.841 108.438 103.135 107.983 103.509 107.599C103.883 107.214 104.331 106.909 104.825 106.701C105.319 106.492 105.85 106.385 106.386 106.385C106.922 106.385 107.453 106.492 107.947 106.701C108.441 106.909 108.889 107.214 109.263 107.599C109.637 107.983 109.93 108.438 110.126 108.937C110.321 109.437 110.415 109.97 110.401 110.506Z" fill="#378B65"/>
<path d="M111.874 90.8467L106.391 110.556L116.311 117.079" stroke="#378B65" stroke-width="0.639" stroke-linecap="round" stroke-linejoin="round"/>
<path d="M425.367 146.132L473.197 149.541" stroke="#378B65" stroke-width="0.639" stroke-linecap="round" stroke-linejoin="round"/>
<path d="M461.174 143.893L436.148 233.458" stroke="#378B65" stroke-width="0.639" stroke-linecap="round" stroke-linejoin="round"/>
<path d="M478.957 143.893L451.266 239.683" stroke="#378B65" stroke-width="0.639" stroke-linecap="round" stroke-linejoin="round"/>
<path d="M234.281 263.909H322.173" stroke="#378B65" stroke-width="0.639" stroke-linecap="round" stroke-linejoin="round"/>
<path d="M114.242 263.909H134.556" stroke="#378B65" stroke-width="0.639" stroke-linecap="round" stroke-linejoin="round"/>
<path d="M197.692 263.91H145.367C145.367 263.91 153.978 231.548 159.571 216.704" stroke="#378B65" stroke-width="0.639" stroke-linecap="round" stroke-linejoin="round"/>
<path d="M195.814 232.127L177.305 288.295C177.305 288.295 226.808 290.657 233.64 290.815C239.962 290.963 246.988 283.897 254.733 277.305C255.303 276.818 255.989 276.485 256.724 276.339C257.459 276.193 258.22 276.238 258.933 276.47C263.111 277.82 271.507 280.926 275.365 285.254" stroke="#378B65" stroke-width="0.639" stroke-linecap="round" stroke-linejoin="round"/>
<path d="M144.1 271.323C144.1 271.323 140.817 293.882 142.836 303.019C145.9 316.878 192.298 313.761 230.137 306.977C233.826 307.851 237.667 307.851 241.355 306.977C246.508 305.431 246.327 300.22 251.66 300.22C253.368 300.349 255.026 300.86 256.51 301.717C257.994 302.573 259.266 303.752 260.232 305.167" stroke="#378B65" stroke-width="0.639" stroke-linecap="round" stroke-linejoin="round"/>
<path d="M254.938 293.631C254.938 293.631 260.619 294.001 267.278 300.66" stroke="#378B65" stroke-width="0.639" stroke-linecap="round" stroke-linejoin="round"/>
<path d="M259.055 287.134C259.055 287.134 271.587 289.902 278.447 298.605" stroke="#378B65" stroke-width="0.639" stroke-linecap="round" stroke-linejoin="round"/>
<path d="M262.57 282.855C262.57 282.855 276.281 287.843 281.767 292.881" stroke="#378B65" stroke-width="0.639" stroke-linecap="round" stroke-linejoin="round"/>
<path d="M224.367 284.872C230.541 248.149 224.088 198.954 220.96 195.49C217.833 192.025 189.089 173.658 189.089 173.658C189.089 173.658 169.956 182.161 161.651 196.103C153.346 210.044 145.367 257.373 145.367 263.909" stroke="#378B65" stroke-width="0.639" stroke-linecap="round" stroke-linejoin="round"/>
<path d="M243.456 173.996C242.39 177.257 226.039 176.327 226.039 176.327L218.859 186.963" stroke="#378B65" stroke-width="0.639" stroke-linecap="round" stroke-linejoin="round"/>
<path d="M245.684 169.117C246.577 166.193 247.242 163.204 247.672 160.177C248.168 155.999 251.85 155.707 251.85 152.936C251.85 150.165 245.589 147.274 245.291 143.896C244.993 140.518 248.845 134.984 244.316 128.648C244.316 128.648 249.931 122.309 242.687 123.033C242.687 123.033 245.405 107.457 231.096 118.143C231.096 118.143 213.528 111.985 203.747 119.413C201.165 121.36 198.997 123.802 197.368 126.596C195.74 129.389 194.684 132.48 194.262 135.686C193.841 138.892 194.062 142.15 194.913 145.27C195.764 148.39 197.228 151.309 199.219 153.858" stroke="#378B65" stroke-width="0.639" stroke-linecap="round" stroke-linejoin="round"/>
<path d="M202.216 160.079L194 172.926" stroke="#378B65" stroke-width="0.639" stroke-linecap="round" stroke-linejoin="round"/>
<path d="M252.5 308.664H298.043C298.043 308.664 297.656 289.033 286.508 287.145" stroke="#378B65" stroke-width="0.639" stroke-linecap="round" stroke-linejoin="round"/>
</svg>
