<svg width="503" height="380" viewBox="0 0 503 380" fill="none" xmlns="http://www.w3.org/2000/svg">
<path fill-rule="evenodd" clip-rule="evenodd" d="M89.6693 187.619C88.8394 179.782 90.3635 161.161 92.1089 151.113C93.8694 141.026 104.244 130.42 104.244 130.42C104.244 130.42 123.992 134.112 124.407 146.835C124.407 146.835 125.103 148.133 122.996 152.021C120.888 155.909 122.744 155.706 121.957 159.994C121.17 164.282 112.832 172.353 109.945 175.587C107.87 177.906 105.818 179.845 103.25 179.789C102.089 182.692 100.709 185.503 99.1232 188.197C96.4221 189.118 89.6693 187.619 89.6693 187.619Z" fill="white"/>
<path fill-rule="evenodd" clip-rule="evenodd" d="M73.4381 183.766C73.4381 183.766 58.411 175.617 47.5336 179.646C36.6563 183.675 27.635 196.929 28.1002 216.969C28.5655 237.008 29.8783 250.745 30.6152 272.55L67.7467 281.818C67.7467 281.818 80.1607 289.698 127.264 279.052L129.9 252.548L114.216 255.954L110.577 255.373L116.193 225.366L109.554 218.991C107.348 207.62 104.375 196.411 100.655 185.441V188.323C97.0744 188.757 93.4449 188.555 89.934 187.727C85.3215 186.339 73.4381 183.766 73.4381 183.766Z" fill="white"/>
<path fill-rule="evenodd" clip-rule="evenodd" d="M113.985 171.256C117.096 180.052 119.276 189.151 120.489 198.403C120.667 199.552 117.526 212.615 117.526 212.615C117.526 212.615 111.238 217.705 109.553 218.991C107.534 207.577 104.558 196.354 100.655 185.44L103.115 179.835C103.115 179.835 105.127 180.612 108.017 177.571C110.906 174.53 113.985 171.256 113.985 171.256Z" fill="#81F889"/>
<path fill-rule="evenodd" clip-rule="evenodd" d="M53.6572 178.411C57.3975 171.015 60.7052 163.408 63.5638 155.628C66.6573 146.322 71.3603 118.252 89.0181 110.204C93.3398 108.67 97.9714 108.217 102.509 108.884C110.886 109.832 126.975 123.28 127.943 134.987C128.901 146.584 125.217 152.285 121.972 155.771C122.016 154.521 122.336 153.295 122.908 152.182C123.894 150.135 125.926 146.169 123.396 142.419C121.17 139.237 118.328 136.535 115.038 134.473C111.748 132.411 108.078 131.031 104.244 130.415C104.244 130.415 94.4782 140.603 92.6749 148.951C90.8717 157.298 88.3315 183.102 90.1876 190.891C92.0437 198.68 99.2416 225.555 99.2416 225.555C94.3203 223.539 89.9038 220.463 86.3067 216.546C82.7095 212.629 80.0202 207.967 78.43 202.892C73.4377 185.873 73.4377 183.766 73.4377 183.766C67.2687 180.676 60.5425 178.855 53.6572 178.411Z" fill="#81F889"/>
<path d="M110.499 149.853C110.187 149.854 109.885 149.738 109.654 149.529C108.069 148.098 102.466 147.826 99.3222 147.985C99.1566 147.998 98.9901 147.977 98.8329 147.924C98.6756 147.87 98.5308 147.786 98.4073 147.675C98.2838 147.564 98.1841 147.429 98.1144 147.278C98.0447 147.127 98.0064 146.964 98.0018 146.798C97.984 146.465 98.099 146.139 98.3216 145.891C98.5442 145.643 98.8561 145.493 99.1889 145.475C100.135 145.425 108.467 145.072 111.339 147.66C111.528 147.83 111.661 148.054 111.721 148.301C111.781 148.548 111.764 148.808 111.673 149.046C111.582 149.283 111.421 149.488 111.211 149.632C111.002 149.776 110.753 149.853 110.499 149.853Z" fill="black"/>
<path d="M122.731 151.491C122.425 151.491 122.129 151.379 121.899 151.176C120.928 150.321 118.972 150.781 118.295 151.028C117.986 151.133 117.649 151.113 117.354 150.974C117.059 150.835 116.83 150.586 116.715 150.281C116.6 149.976 116.607 149.638 116.737 149.339C116.866 149.039 117.106 148.802 117.407 148.676C118.407 148.273 119.489 148.119 120.561 148.226C121.633 148.333 122.664 148.698 123.564 149.29C123.756 149.459 123.891 149.682 123.953 149.93C124.014 150.178 123.999 150.439 123.908 150.678C123.818 150.917 123.657 151.123 123.447 151.268C123.236 151.413 122.987 151.491 122.731 151.491Z" fill="black"/>
<path d="M108.71 164.785C108.547 164.762 108.389 164.707 108.247 164.623C108.105 164.539 107.98 164.427 107.881 164.295C107.782 164.163 107.709 164.012 107.668 163.852C107.627 163.692 107.618 163.525 107.642 163.362C107.661 163.197 107.714 163.038 107.796 162.894C107.878 162.751 107.989 162.625 108.121 162.524C108.252 162.424 108.403 162.351 108.564 162.31C108.724 162.269 108.891 162.26 109.055 162.285C110.541 162.479 111.613 162.333 112.053 161.848C112.493 161.362 112.367 160.251 112.226 159.657C111.872 157.04 112.079 154.377 112.833 151.845C112.927 151.526 113.145 151.256 113.438 151.097C113.731 150.938 114.076 150.902 114.396 150.997C114.715 151.091 114.985 151.309 115.144 151.602C115.303 151.895 115.339 152.24 115.244 152.56C114.618 154.675 114.427 156.895 114.684 159.086C115.569 162.942 113.512 165.452 108.71 164.785Z" fill="black"/>
<path fill-rule="evenodd" clip-rule="evenodd" d="M106.915 151.735C102.694 157.333 98.7861 151.649 98.7861 151.649C98.7861 151.649 103.869 150.065 106.915 151.735Z" fill="white"/>
<path fill-rule="evenodd" clip-rule="evenodd" d="M120.845 155.062C116.57 160.079 114.636 155.127 114.636 155.127C116.623 154.321 118.842 154.298 120.845 155.062Z" fill="white"/>
<path d="M108.198 168.935C104.881 168.846 101.72 167.512 99.3426 165.197C99.1131 164.961 98.9859 164.643 98.9883 164.313C98.9907 163.984 99.1225 163.668 99.3553 163.435C99.5882 163.201 99.9034 163.068 100.233 163.065C100.563 163.062 100.881 163.188 101.118 163.417C101.355 163.648 107.031 169.136 113.271 164.712C113.543 164.522 113.879 164.448 114.206 164.505C114.533 164.562 114.824 164.746 115.016 165.017C115.207 165.288 115.284 165.623 115.23 165.951C115.175 166.278 114.994 166.57 114.724 166.764C112.832 168.158 110.548 168.918 108.198 168.935Z" fill="black"/>
<path d="M103.63 171.616C103.343 171.445 103.135 171.168 103.053 170.844C102.97 170.521 103.02 170.178 103.19 169.89C103.36 169.603 103.638 169.396 103.961 169.313C104.285 169.23 104.628 169.28 104.915 169.45C105.725 169.956 106.684 170.168 107.631 170.051C107.788 169.997 107.953 169.974 108.118 169.984C108.283 169.994 108.444 170.036 108.593 170.108C108.741 170.18 108.874 170.28 108.984 170.404C109.094 170.527 109.178 170.671 109.232 170.827C109.286 170.983 109.309 171.148 109.3 171.313C109.29 171.478 109.248 171.64 109.176 171.788C109.104 171.937 109.003 172.07 108.88 172.18C108.756 172.289 108.612 172.374 108.456 172.428C107.639 172.627 106.789 172.658 105.96 172.518C105.13 172.379 104.337 172.072 103.63 171.616Z" fill="black"/>
<path d="M107.079 149.994C104.455 149.27 101.699 149.172 99.0305 149.707C98.7149 149.778 98.4385 149.967 98.2588 150.236C98.0792 150.505 98.01 150.833 98.0657 151.151C98.1213 151.47 98.2976 151.755 98.5579 151.947C98.8181 152.139 99.1423 152.223 99.4631 152.182C99.8881 152.109 100.406 152.039 100.972 151.984C100.949 152.227 100.981 152.472 101.065 152.701C101.149 152.93 101.283 153.137 101.457 153.308C101.632 153.479 101.843 153.608 102.074 153.686C102.305 153.765 102.551 153.791 102.793 153.762C103.333 153.781 103.864 153.623 104.305 153.312C104.747 153.001 105.074 152.554 105.238 152.039C105.516 152.093 105.787 152.177 106.047 152.29C106.199 152.368 106.364 152.413 106.534 152.425C106.704 152.436 106.874 152.413 107.034 152.357C107.195 152.301 107.342 152.212 107.468 152.098C107.593 151.983 107.694 151.844 107.764 151.689C107.834 151.534 107.872 151.366 107.876 151.196C107.879 151.026 107.848 150.857 107.785 150.7C107.721 150.542 107.626 150.399 107.506 150.279C107.385 150.159 107.242 150.065 107.084 150.002L107.079 149.994Z" fill="black"/>
<path d="M121.162 153.349C119.95 152.187 116.874 152.555 114.503 153.06C114.176 153.13 113.891 153.326 113.71 153.606C113.529 153.886 113.466 154.227 113.536 154.553C113.605 154.879 113.802 155.164 114.082 155.345C114.362 155.527 114.702 155.589 115.028 155.52L115.403 155.444C115.8 157.278 118.866 156.991 119.563 155.281C119.822 155.464 120.14 155.543 120.454 155.501C120.769 155.46 121.056 155.301 121.258 155.057C121.46 154.812 121.563 154.501 121.545 154.184C121.527 153.868 121.391 153.569 121.162 153.349Z" fill="black"/>
<path fill-rule="evenodd" clip-rule="evenodd" d="M120.139 211.484L125.42 184.93L167.436 183.263L163.133 211.016C158.195 209.723 157.974 211.148 162.471 215.291C156.143 212.482 155.032 213.845 161.538 221.312C155.339 215.075 154.413 216.901 160.323 229.169L157.675 246.256L113.778 255.976L117.375 237.365L120.139 211.484Z" fill="white"/>
<path fill-rule="evenodd" clip-rule="evenodd" d="M44.9054 258.428C41.5825 259.65 38.5764 261.603 36.1091 264.142C33.6419 266.681 31.7764 269.742 30.6504 273.098C31.3823 294.911 37.6396 299.224 60.6946 286.063C83.7496 272.902 94.2774 260.496 102.864 254.47C111.45 248.444 112.73 241.052 116.543 237.795C120.355 234.538 120.26 244.893 122.491 245.056C124.721 245.22 125.141 236.799 123.816 233.487C123.816 233.487 126.852 241.734 129.525 241.912C130.657 241.99 131.567 241.007 131.572 238.308C132.795 239.792 134.99 238.487 134.59 236.337C134.59 236.337 134.641 227.755 131.034 224.239C127.941 221.82 124.422 220 120.66 218.875C123.44 215.605 127.278 213.414 131.507 212.683C137.229 211.803 134.412 209.071 129.422 209.134C124.076 209.497 118.963 211.464 114.752 214.778C109.928 217.696 106.2 222.121 104.144 227.371C100.467 235.383 98.412 240.569 92.957 242.312C87.502 244.055 53.5042 254.799 44.9054 258.428Z" fill="white"/>
<path fill-rule="evenodd" clip-rule="evenodd" d="M163.06 210.993L164.026 205.261C164.026 205.261 176.533 213.925 176.89 218.103C177.247 222.28 173.98 241.517 170.188 246.882C166.395 252.246 128.398 270.82 128.398 270.82L129.907 252.548L157.718 246.195L160.331 229.171C158.01 224.431 155.837 219.111 156.307 218.053C156.529 217.55 157.17 217.736 157.93 218.203L158.206 217.617C157.223 216.279 156.549 214.926 157.13 214.215C157.754 213.46 158.89 213.551 159.964 213.893L160.304 213.166C159.313 212.14 158.543 211.005 159.451 210.583C160.667 210.557 161.881 210.695 163.06 210.993Z" fill="white"/>
<path d="M168.334 182.121L166.339 180.375C166.222 180.267 166.084 180.183 165.934 180.129C165.783 180.076 165.624 180.053 165.464 180.063L123.675 181.64C123.393 181.651 123.124 181.756 122.909 181.938C122.694 182.121 122.547 182.37 122.49 182.646L116.226 212.696C116.188 212.878 116.192 213.067 116.237 213.248C116.281 213.429 116.366 213.598 116.484 213.742C116.602 213.887 116.75 214.003 116.919 214.083C117.087 214.163 117.271 214.205 117.458 214.205C118.407 213.823 119.308 213.33 120.141 212.736C120.431 212.735 120.711 212.635 120.935 212.452C121.159 212.268 121.313 212.013 121.371 211.73L126.454 186.152L165.955 184.583L161.89 210.824C161.85 211.149 161.937 211.477 162.134 211.739C162.332 212 162.623 212.175 162.947 212.224C163.271 212.274 163.601 212.196 163.868 212.006C164.135 211.816 164.317 211.529 164.375 211.207L168.651 183.572C168.759 183.328 168.786 183.055 168.729 182.794C168.673 182.534 168.534 182.298 168.334 182.121Z" fill="black"/>
<path d="M160.512 227.927C160.184 227.883 159.851 227.968 159.584 228.164C159.317 228.36 159.136 228.652 159.078 228.978L156.563 245.215L115.373 254.334L118.607 237.609C118.638 237.447 118.637 237.28 118.604 237.119C118.571 236.957 118.506 236.803 118.413 236.666C118.321 236.53 118.202 236.413 118.064 236.322C117.926 236.231 117.772 236.168 117.61 236.137C117.448 236.106 117.281 236.107 117.119 236.14C116.957 236.173 116.804 236.238 116.667 236.33C116.53 236.423 116.413 236.542 116.322 236.679C116.231 236.817 116.168 236.972 116.137 237.134C115.419 238.379 114.584 239.553 113.642 240.64C113.315 240.579 112.976 240.651 112.701 240.839C112.426 241.028 112.237 241.318 112.176 241.646L109.684 254.975C109.625 255.286 109.686 255.608 109.855 255.876C110.023 256.144 110.286 256.339 110.592 256.421C111.632 256.767 112.695 257.039 113.773 257.234C114.025 257.234 112.116 257.674 157.947 247.483C158.193 247.428 158.418 247.299 158.591 247.115C158.763 246.93 158.876 246.697 158.915 246.447L161.561 229.36C161.611 229.031 161.529 228.695 161.333 228.426C161.136 228.158 160.841 227.978 160.512 227.927Z" fill="black"/>
<path d="M140.87 190.624C139.11 188.056 130.433 188.582 129.301 191.489C129.186 191.784 129.146 192.103 129.184 192.418C129.223 192.732 129.339 193.032 129.522 193.29C130.528 194.771 133.36 194.942 134.527 194.942C136.602 194.942 140.312 194.414 141.081 192.427C141.197 192.133 141.239 191.814 141.202 191.499C141.165 191.185 141.051 190.884 140.87 190.624Z" fill="black"/>
<path d="M128.401 272.077C128.117 272.077 127.841 271.981 127.619 271.804C127.396 271.628 127.24 271.381 127.176 271.104C127.112 270.827 127.143 270.537 127.265 270.28C127.387 270.023 127.593 269.816 127.848 269.691C143.003 262.284 166.513 249.903 169.162 246.158C172.776 241.042 175.98 222.177 175.638 218.209C175.424 215.739 168.302 209.753 163.314 206.295C163.04 206.105 162.853 205.814 162.793 205.485C162.734 205.157 162.807 204.819 162.997 204.545C163.188 204.27 163.479 204.083 163.807 204.024C164.135 203.964 164.474 204.038 164.748 204.228C166.916 205.737 177.76 213.46 178.148 217.992C178.528 222.416 175.273 241.87 171.219 247.609C167.351 253.079 132.875 270.035 128.967 271.949C128.791 272.036 128.597 272.08 128.401 272.077Z" fill="black"/>
<path d="M173.535 214.821C169.903 212.205 161.586 208.189 158.908 209.444C158.642 209.565 158.407 209.743 158.219 209.966C158.031 210.188 157.895 210.45 157.821 210.732C157.746 211.014 157.736 211.309 157.789 211.595C157.843 211.882 157.959 212.153 158.131 212.389C157.747 212.416 157.374 212.521 157.033 212.698C156.692 212.875 156.391 213.12 156.149 213.418C155.835 213.89 155.664 214.443 155.658 215.011C155.652 215.578 155.81 216.135 156.114 216.614C155.683 216.783 155.336 217.115 155.148 217.537C154.537 218.895 155.902 222.997 159.189 229.722C159.262 229.871 159.363 230.004 159.487 230.113C159.611 230.223 159.755 230.307 159.911 230.361C160.068 230.415 160.233 230.437 160.398 230.427C160.563 230.417 160.725 230.375 160.873 230.302C161.022 230.23 161.155 230.128 161.264 230.005C161.374 229.881 161.458 229.737 161.512 229.58C161.566 229.424 161.588 229.258 161.578 229.093C161.568 228.928 161.525 228.767 161.453 228.618C159.979 225.67 158.703 222.628 157.633 219.511C160.067 221.247 165.163 226.838 165.567 229.388C165.62 229.717 165.802 230.012 166.073 230.208C166.343 230.403 166.68 230.483 167.01 230.43C167.339 230.377 167.634 230.196 167.83 229.925C168.025 229.655 168.105 229.317 168.052 228.988C167.635 226.372 164.416 222.602 162.622 220.673C162.144 220.112 161.63 219.582 161.083 219.086C159.828 217.938 158.813 216.553 158.098 215.01C158.422 214.612 160.286 215.188 161.755 216.124C164.925 218.616 167.714 221.56 170.032 224.861C170.189 225.137 170.445 225.344 170.748 225.439C171.052 225.534 171.38 225.511 171.667 225.374C171.954 225.237 172.178 224.996 172.294 224.7C172.411 224.404 172.411 224.075 172.295 223.779C170.585 220.183 163.598 214.378 163.296 214.139C162.344 213.415 161.465 212.599 160.671 211.705C164.765 212.675 168.634 214.426 172.064 216.863C172.198 216.96 172.35 217.029 172.51 217.067C172.671 217.105 172.838 217.111 173.001 217.084C173.164 217.058 173.321 216.999 173.461 216.912C173.602 216.826 173.724 216.712 173.82 216.578C173.917 216.444 173.986 216.292 174.024 216.131C174.062 215.97 174.068 215.803 174.042 215.64C174.015 215.477 173.957 215.321 173.87 215.18C173.783 215.04 173.669 214.918 173.535 214.821Z" fill="black"/>
<path d="M131.901 223.327C129.242 221.107 126.193 219.401 122.91 218.297C125.339 216 128.393 214.471 131.687 213.903C135.349 213.34 136.013 211.954 135.925 210.885C135.752 208.745 132.467 207.847 129.399 207.847C123.788 208.22 118.419 210.275 113.992 213.742C112.526 214.831 111.442 215.613 110.521 216.358C108.254 205.738 105.431 195.244 102.066 184.92L103.861 180.992C106.698 180.399 109.206 178.757 110.883 176.394C111.52 175.683 112.272 174.885 113.501 173.593C116.117 181.742 118.039 190.098 119.246 198.572C119.267 198.738 119.321 198.899 119.405 199.045C119.489 199.19 119.602 199.317 119.736 199.418C119.87 199.519 120.023 199.593 120.186 199.634C120.349 199.675 120.518 199.683 120.685 199.657C120.851 199.632 121.01 199.573 121.153 199.485C121.296 199.397 121.42 199.281 121.517 199.144C121.615 199.007 121.684 198.852 121.721 198.688C121.757 198.524 121.761 198.355 121.73 198.189C120.49 189.116 118.384 180.182 115.443 171.51C118.881 167.763 122.633 163.276 123.197 160.193C123.466 158.867 123.498 157.505 123.292 156.169C126.418 152.673 130.178 146.685 129.2 134.859C128.174 122.478 111.66 108.628 102.654 107.609C97.8913 106.909 93.0292 107.4 88.5023 109.038C73.1231 116.044 67.4165 137.009 64.0037 149.529C63.39 151.793 62.8619 153.729 62.374 155.2C59.6186 162.749 56.4267 170.131 52.8144 177.31C50.8684 177.415 48.9483 177.804 47.1155 178.467C34.3669 183.187 26.4069 198.32 26.8496 216.999C27.3149 237.119 28.6277 250.718 29.3646 272.598C29.9984 291.528 35.0384 299.33 52.6535 291.586C48.9984 310.788 47.1994 330.297 47.2814 349.844C47.2814 350.177 47.4139 350.497 47.6498 350.733C47.8856 350.969 48.2054 351.101 48.5389 351.101C48.8725 351.101 49.1923 350.969 49.4281 350.733C49.664 350.497 49.7964 350.177 49.7964 349.844V349.801L128.413 346.929L133.176 297.844H133.206C133.368 297.807 133.521 297.739 133.656 297.643C133.791 297.548 133.906 297.426 133.994 297.286C134.082 297.146 134.142 296.99 134.169 296.826C134.197 296.663 134.192 296.496 134.155 296.335C132.703 290.268 130.926 284.284 128.833 278.408C129.494 273.74 130.47 258.089 130.762 253.358C130.782 253.026 130.669 252.699 130.448 252.45C130.228 252.2 129.917 252.049 129.585 252.028C129.419 252.01 129.25 252.028 129.091 252.079C128.932 252.13 128.785 252.213 128.66 252.324C128.534 252.434 128.434 252.57 128.363 252.721C128.293 252.873 128.255 253.038 128.252 253.205C128.252 253.3 127.988 257.581 127.643 262.644C116.741 266.318 95.5921 268.896 86.3972 269.889C93.238 264.291 99.0754 258.673 103.587 255.501C112.39 249.317 113.826 241.774 117.362 238.754C117.51 238.615 117.68 238.501 117.865 238.417C118.368 238.668 119.009 240.798 119.321 241.822C120.003 244.065 120.647 246.183 122.407 246.314C124.922 246.51 125.601 242.775 125.777 240.263C126.151 240.978 126.672 241.606 127.305 242.105C127.939 242.605 128.671 242.964 129.454 243.16C130.84 243.273 132.205 242.406 132.661 240.19C133.139 240.192 133.613 240.088 134.046 239.885C134.48 239.682 134.864 239.386 135.169 239.017C135.475 238.648 135.694 238.216 135.813 237.753C135.932 237.289 135.946 236.804 135.855 236.334C135.845 235.96 135.847 227.175 131.901 223.327ZM100.348 224.848C99.8122 222.917 97.3174 213.883 95.0388 205.231C100.044 205.168 103.949 205.048 105.35 205C106.671 209.406 107.638 213.91 108.243 218.47C106.674 220.179 105.35 222.097 104.309 224.169C103.114 224.388 101.781 224.614 100.348 224.848ZM102.931 226.963L102.322 228.296C99.0955 235.369 97.1489 239.639 92.564 241.105C89.6944 242.021 73.7015 247.199 60.5129 251.631C61.0536 246.792 61.8232 239.408 62.5249 232.532C67.5825 231.92 90.5218 229.101 102.933 226.963H102.931ZM104.656 202.505C102.876 202.56 99.0653 202.663 94.3799 202.716C93.648 199.902 91.5857 191.957 91.133 189.085C93.8809 189.83 96.7657 189.916 99.5532 189.336C99.7561 189.283 99.9425 189.18 100.095 189.037C100.248 188.893 100.363 188.713 100.428 188.514C100.453 188.47 100.475 188.425 100.494 188.378C101.507 191.645 103.145 197.063 104.656 202.505ZM90.8236 186.409C90.5732 182.225 90.6338 178.029 91.0047 173.854C93.6679 175.97 96.438 177.948 99.3042 179.779C99.9107 180.156 100.559 180.461 101.236 180.687L98.3359 187.025C95.8162 187.351 93.2562 187.142 90.8236 186.409ZM121.889 151.425C121.025 152.77 120.618 154.358 120.73 155.952C120.972 157.21 120.972 158.502 120.73 159.76C120.03 163.575 111.585 171.87 109.02 174.734C105.881 178.24 103.824 179.571 100.637 177.622C97.3916 175.527 94.2601 173.26 91.2562 170.831C91.4675 168.316 92.4609 158.098 92.6923 155.52C93.7964 143.133 102.554 133.84 104.649 131.781C115.493 134.13 127.067 141.878 121.889 151.425ZM64.7557 156.028C65.2587 154.519 65.7969 152.537 66.4256 150.226C69.7228 138.124 75.2281 117.87 89.5259 111.361C93.6456 109.926 98.051 109.507 102.367 110.139C110.222 111.024 125.787 124.198 126.69 135.093C127.111 139.038 126.781 143.026 125.717 146.848C125.7 146.763 125.679 146.679 125.654 146.597C125.073 134.429 108.803 130.143 105.162 129.339C102.581 124.074 99.0983 119.302 94.8703 115.24C94.6268 115.023 94.3087 114.909 93.9829 114.922C93.6571 114.935 93.3491 115.074 93.124 115.31C92.8989 115.546 92.7742 115.86 92.7763 116.186C92.7783 116.512 92.9069 116.825 93.1349 117.058C97.0437 120.843 100.296 125.253 102.757 130.106C95.855 136.858 91.4257 145.736 90.1823 155.311C89.0707 167.813 87.5893 178.902 88.3816 187.252C88.3667 187.412 88.3829 187.575 88.4294 187.729C88.545 188.821 88.7043 189.864 88.9072 190.858C90.3382 197.827 95.5292 216.815 97.3878 223.553C92.1742 221.164 78.4976 212.434 74.6975 183.65C74.6924 183.607 74.6848 183.564 74.6748 183.522C71.9385 170.979 74.7452 150.598 74.7754 150.394C74.7985 150.231 74.7891 150.064 74.7477 149.904C74.7063 149.744 74.6338 149.594 74.5343 149.462C74.4348 149.33 74.3103 149.219 74.1678 149.135C74.0253 149.051 73.8677 148.996 73.704 148.973C73.3746 148.933 73.0425 149.023 72.7775 149.222C72.5125 149.422 72.3353 149.717 72.2831 150.045C72.1699 150.844 69.7178 168.643 71.7549 181.563C66.6818 179.179 61.2174 177.739 55.6287 177.312C59.083 170.4 62.1305 163.295 64.7557 156.028ZM47.9756 180.828C57.0598 177.456 69.5493 183.228 72.2931 184.601C73.1801 190.736 74.7318 196.758 76.9207 202.558C71.7486 202.567 66.5922 201.986 61.5516 200.828C53.7701 198.207 37.5912 197.166 32.7271 196.904C34.0392 193.327 36.0687 190.055 38.6908 187.29C41.313 184.525 44.4726 182.328 47.9756 180.828ZM31.7991 199.371C35.1843 199.542 52.8673 200.551 60.7442 203.204C66.396 204.5 72.1786 205.139 77.977 205.108C83.6911 218.141 91.4272 223.493 95.7405 225.573C83.6685 227.398 67.7787 229.363 62.794 229.969C63.6164 221.901 64.303 215.13 64.303 214.994C64.336 214.663 64.2361 214.332 64.0254 214.074C63.8146 213.816 63.5101 213.652 63.1788 213.619C62.8481 213.59 62.5193 213.691 62.2623 213.901C62.0053 214.111 61.8405 214.413 61.8031 214.743C61.8031 214.881 61.1215 221.549 60.3066 229.529C50.3422 224.265 33.4992 222.517 29.5029 222.165C29.2665 214.497 29.0049 207.628 31.7991 199.371ZM29.5935 224.702C34.0727 225.122 51.0238 227.016 60.025 232.247C59.3132 239.186 58.5336 246.643 57.9928 251.475C50.5359 249.767 35.4936 252.732 31.0371 253.698C30.3681 241.274 29.9103 233.56 29.5935 224.702ZM31.1754 256.246C34.4977 255.526 47.2261 252.931 54.8818 253.542C50.4026 255.071 46.6477 256.394 44.4521 257.247C39.0686 259.005 34.5254 262.692 31.696 267.598C31.5375 263.582 31.359 259.834 31.1854 256.243L31.1754 256.246ZM127.442 265.35C127.105 270.096 126.718 274.995 126.403 277.505C120.491 278.863 84.7851 286.69 70.4924 281.554C75.1401 278.536 79.1892 275.576 82.7555 272.794C87.1266 272.374 113.635 269.706 127.442 265.35ZM132.724 237.66C131.589 231.624 130.636 229.662 127.824 227.363C125.772 225.686 120.986 221.456 120.938 221.413C120.688 221.192 120.361 221.08 120.028 221.1C119.695 221.121 119.383 221.273 119.163 221.523C118.942 221.774 118.829 222.101 118.85 222.434C118.871 222.767 119.023 223.078 119.273 223.299C119.469 223.473 124.142 227.602 126.232 229.307C128.473 231.141 129.198 232.418 130.304 238.417C130.281 240.054 129.879 240.512 129.605 240.65C128.649 240.582 126.423 237.129 125.078 233.276C124.431 231.95 123.504 230.779 122.361 229.846C121.218 228.913 119.885 228.239 118.456 227.871C118.142 227.779 117.804 227.813 117.514 227.966C117.224 228.119 117.006 228.379 116.905 228.69C116.804 229.002 116.828 229.341 116.974 229.634C117.119 229.928 117.373 230.154 117.681 230.263C118.747 230.536 119.746 231.025 120.615 231.7C121.485 232.374 122.207 233.22 122.736 234.184C123.556 237.256 123.502 240.495 122.581 243.537C121.527 241.465 121.124 236.747 118.557 235.992C115.777 235.167 113.142 239.835 111.655 242.355C109.371 246.73 106.112 250.52 102.129 253.434C96.7842 257.186 90.9494 263.147 81.7571 270.367C81.5869 270.41 81.4275 270.488 81.2894 270.597C81.1512 270.705 81.0372 270.841 80.9548 270.996C74.3383 276.14 67.3623 280.803 60.0803 284.952C48.7628 291.418 41.6152 293.4 37.6238 291.164C34.216 289.26 32.4455 284.021 31.955 274.268C33.8287 268.275 35.305 263.481 45.3675 259.578C54.2631 256.13 88.9801 244.885 93.3386 243.494C99.5054 241.523 101.764 235.575 105.282 227.876C108.386 221.086 110.272 219.662 115.503 215.767C119.503 212.614 124.357 210.736 129.436 210.374C130.665 210.33 131.89 210.544 133.03 211.003C132.475 211.206 131.899 211.347 131.313 211.423C127.073 212.143 123.19 214.24 120.264 217.391L118.386 216.76C118.074 216.671 117.741 216.705 117.455 216.856C117.168 217.007 116.951 217.262 116.848 217.569C116.745 217.876 116.764 218.21 116.901 218.503C117.039 218.796 117.284 219.025 117.586 219.142C121.451 220.442 127.226 222.265 130.161 225.122C132.799 227.695 133.352 234.071 133.362 236.548C133.493 237.338 132.998 237.768 132.729 237.657L132.724 237.66Z" fill="black"/>
<path fill-rule="evenodd" clip-rule="evenodd" d="M416.106 289.645L265.943 286.903L284.698 27.119L443.769 21.5156L416.106 289.645Z" fill="white"/>
<path d="M398.994 276.622L277.568 274.157C277.397 274.154 277.23 274.116 277.075 274.046C276.919 273.976 276.78 273.875 276.665 273.749C276.55 273.624 276.462 273.476 276.406 273.315C276.349 273.155 276.326 272.984 276.338 272.814L292.542 37.3071C292.564 36.9955 292.701 36.7031 292.926 36.4869C293.152 36.2707 293.45 36.1462 293.762 36.1376L432.841 32.1362C433.021 32.1312 433.2 32.1647 433.365 32.2346C433.531 32.3046 433.68 32.4092 433.802 32.5415C433.924 32.6738 434.016 32.8307 434.072 33.0015C434.128 33.1724 434.146 33.3533 434.126 33.5321L427.751 91.2689C427.708 91.5977 427.54 91.8972 427.281 92.1044C427.022 92.3117 426.693 92.4106 426.363 92.3806C426.199 92.3624 426.04 92.3121 425.895 92.2325C425.75 92.1529 425.623 92.0456 425.519 91.9167C425.416 91.7877 425.339 91.6398 425.293 91.4812C425.247 91.3225 425.233 91.1564 425.251 90.9923L431.461 34.6915L294.974 38.6174L278.938 271.67L399.02 274.107C399.353 274.11 399.672 274.246 399.905 274.484C400.139 274.722 400.268 275.043 400.265 275.377C400.261 275.71 400.125 276.029 399.887 276.262C399.649 276.496 399.328 276.625 398.994 276.622Z" fill="black"/>
<path d="M451.279 28.6053L444.687 20.6654C444.563 20.5389 444.415 20.4386 444.251 20.3703C444.087 20.3021 443.912 20.2673 443.734 20.2681L284.645 25.8614C284.335 25.8718 284.039 25.9968 283.815 26.2123C283.591 26.4278 283.455 26.7185 283.433 27.0284L264.689 286.813C264.677 286.983 264.699 287.154 264.755 287.315C264.811 287.477 264.899 287.625 265.014 287.751C265.129 287.877 265.269 287.979 265.424 288.049C265.58 288.12 265.748 288.158 265.919 288.161L402.868 290.902C403.201 290.905 403.523 290.776 403.76 290.542C403.998 290.308 404.134 289.99 404.137 289.656C404.14 289.323 404.01 289.001 403.776 288.764C403.543 288.526 403.224 288.39 402.891 288.387L267.292 285.671L285.863 28.3362L442.371 22.8334L434.685 97.3503C434.651 97.6814 434.75 98.0123 434.96 98.2707C435.17 98.529 435.473 98.6937 435.804 98.7285L434.612 110.295C434.612 110.295 436.959 111.517 438.458 112.103C438.436 112.251 438.436 112.401 438.458 112.548C438.523 112.889 438.715 113.191 438.995 113.394C439.276 113.598 439.623 113.686 439.967 113.642C440.124 113.623 440.275 113.572 440.411 113.491C440.547 113.41 440.665 113.302 440.757 113.173C440.849 113.045 440.914 112.899 440.947 112.744C440.979 112.589 440.98 112.429 440.948 112.274C441.023 110.247 448.638 51.8917 451.568 29.5811C451.59 29.4073 451.575 29.231 451.525 29.0631C451.476 28.8952 451.392 28.7394 451.279 28.6053Z" fill="black"/>
<path d="M424.894 69.6071C424.891 69.4403 424.854 69.2758 424.785 69.124C424.715 68.9723 424.615 68.8366 424.49 68.7255C424.366 68.6144 424.22 68.5304 424.061 68.4787C423.902 68.427 423.735 68.4087 423.569 68.4251L414.814 68.9281L416.174 52.9302C416.202 52.598 416.097 52.2684 415.882 52.0138C415.667 51.7591 415.36 51.6002 415.028 51.5721C414.699 51.5598 414.377 51.6705 414.126 51.8825C413.874 52.0946 413.71 52.3928 413.667 52.7189L412.279 69.0664L393.595 70.1428L395.104 52.8774C395.118 52.7122 395.1 52.5458 395.05 52.3877C395.001 52.2296 394.92 52.0828 394.814 51.9558C394.707 51.8287 394.577 51.7239 394.43 51.6473C394.283 51.5707 394.122 51.5237 393.957 51.5092C393.792 51.4947 393.625 51.5128 393.467 51.5626C393.309 51.6124 393.162 51.6928 393.035 51.7993C392.908 51.9058 392.803 52.0362 392.727 52.1832C392.65 52.3302 392.603 52.4909 392.589 52.656L391.057 70.3063L374.207 71.2771L375.595 52.8296C375.62 52.4961 375.511 52.1664 375.292 51.9131C375.074 51.6599 374.764 51.5037 374.43 51.479C374.097 51.4543 373.767 51.5632 373.514 51.7815C373.261 51.9999 373.105 52.31 373.08 52.6435L371.666 71.423L352.804 72.5095L353.518 57.3566C353.534 57.0231 353.416 56.697 353.192 56.4501C352.967 56.2032 352.653 56.0557 352.32 56.04C351.986 56.0243 351.66 56.1418 351.413 56.3665C351.166 56.5912 351.019 56.9049 351.003 57.2384L350.276 72.6553L330.184 73.8122L330.888 57.2987C330.895 57.1336 330.87 56.9687 330.813 56.8134C330.757 56.6581 330.67 56.5155 330.558 56.3937C330.446 56.2719 330.312 56.1733 330.162 56.1036C330.012 56.0338 329.85 55.9943 329.685 55.9872C329.52 55.9801 329.355 56.0056 329.199 56.0622C329.044 56.1188 328.902 56.2055 328.78 56.3172C328.658 56.429 328.559 56.5636 328.49 56.7135C328.42 56.8633 328.38 57.0255 328.373 57.1906L327.656 73.9556L309.991 74.9742L311.249 57.2836C311.26 57.1188 311.239 56.9533 311.187 56.7966C311.135 56.6399 311.052 56.495 310.943 56.3703C310.835 56.2456 310.703 56.1434 310.555 56.0697C310.407 55.996 310.246 55.9521 310.082 55.9406C309.751 55.9268 309.428 56.04 309.178 56.257C308.928 56.474 308.771 56.7784 308.739 57.1076L307.466 75.12L298.427 75.6406C298.262 75.6453 298.099 75.6824 297.949 75.7498C297.798 75.8173 297.662 75.9138 297.548 76.0338C297.435 76.1539 297.346 76.2951 297.287 76.4494C297.228 76.6038 297.2 76.7682 297.205 76.9333C297.209 77.0985 297.247 77.2611 297.314 77.4119C297.381 77.5627 297.478 77.6987 297.598 77.8122C297.718 77.9257 297.859 78.0145 298.014 78.0734C298.168 78.1323 298.332 78.1603 298.498 78.1556L307.3 77.6526L306.168 93.7159L298.394 94.1611C298.061 94.1704 297.745 94.3119 297.516 94.5543C297.286 94.7967 297.163 95.1203 297.172 95.4538C297.181 95.7873 297.323 96.1034 297.565 96.3327C297.808 96.5619 298.131 96.6854 298.465 96.6761L305.99 96.246L304.81 112.941L295.814 113.501C295.481 113.522 295.169 113.675 294.948 113.926C294.727 114.176 294.615 114.505 294.636 114.838C294.657 115.172 294.809 115.483 295.06 115.704C295.311 115.925 295.639 116.037 295.972 116.016L304.632 115.476L303.424 132.578L295.761 133.081C295.428 133.103 295.117 133.256 294.896 133.508C294.676 133.759 294.565 134.088 294.587 134.421C294.609 134.755 294.762 135.066 295.014 135.286C295.265 135.506 295.594 135.618 295.927 135.596L303.246 135.113L302.147 150.706C302.135 150.871 302.156 151.037 302.209 151.194C302.261 151.351 302.344 151.496 302.453 151.621C302.672 151.873 302.983 152.028 303.316 152.051C303.65 152.075 303.979 151.965 304.231 151.745C304.484 151.526 304.638 151.215 304.662 150.882L305.786 134.952L325.129 133.677L324.397 150.794C324.383 151.127 324.501 151.453 324.727 151.699C324.953 151.945 325.267 152.091 325.6 152.105C325.934 152.12 326.259 152.001 326.505 151.775C326.751 151.55 326.898 151.236 326.912 150.902L327.654 133.511L347.495 132.203L346.459 154.161C346.444 154.494 346.561 154.819 346.786 155.065C347.01 155.312 347.323 155.459 347.656 155.474H347.714C348.037 155.475 348.349 155.35 348.583 155.127C348.817 154.903 348.956 154.598 348.971 154.275L350.02 132.034L367.222 130.903L365.462 154.171C365.437 154.505 365.546 154.835 365.764 155.088C365.983 155.341 366.293 155.497 366.626 155.522C366.96 155.547 367.29 155.438 367.543 155.22C367.796 155.001 367.952 154.691 367.977 154.358L369.753 130.734L373.746 130.483C373.911 130.472 374.072 130.428 374.22 130.355C374.368 130.281 374.5 130.179 374.609 130.055C374.717 129.93 374.8 129.786 374.853 129.629C374.906 129.472 374.927 129.307 374.916 129.142C374.908 128.977 374.866 128.814 374.794 128.665C374.722 128.516 374.62 128.383 374.495 128.273C374.37 128.164 374.225 128.081 374.067 128.03C373.909 127.978 373.743 127.959 373.578 127.973L369.944 128.212L371.201 111.334L374.285 111.14C374.617 111.119 374.928 110.967 375.149 110.717C375.37 110.467 375.482 110.14 375.462 109.807C375.456 109.641 375.416 109.477 375.345 109.327C375.274 109.176 375.173 109.042 375.048 108.932C374.923 108.822 374.778 108.738 374.619 108.686C374.461 108.634 374.294 108.615 374.129 108.63L371.392 108.801L372.622 92.4534L389.221 91.5027L388.902 95.1545C388.887 95.3196 388.905 95.486 388.955 95.6442C389.005 95.8023 389.085 95.9491 389.192 96.0761C389.298 96.2032 389.429 96.308 389.576 96.3846C389.723 96.4612 389.883 96.5081 390.049 96.5227C390.214 96.5372 390.38 96.5191 390.538 96.4693C390.696 96.4195 390.843 96.3391 390.97 96.2326C391.097 96.1261 391.202 95.9956 391.279 95.8486C391.355 95.7016 391.402 95.541 391.417 95.3758L391.766 91.3518L400.569 90.8488C400.901 90.8294 401.212 90.6789 401.434 90.4305C401.655 90.182 401.769 89.8558 401.751 89.5234C401.75 89.3558 401.715 89.1901 401.646 89.0371C401.577 88.8841 401.477 88.7473 401.352 88.6356C401.227 88.5239 401.08 88.4397 400.92 88.3886C400.761 88.3374 400.592 88.3205 400.425 88.3389L391.978 88.8218L393.383 72.7132L412.075 71.6368L410.817 86.4073C410.789 86.7409 410.895 87.0718 411.111 87.3275C411.327 87.5831 411.636 87.7425 411.969 87.7705C412.303 87.7985 412.634 87.6929 412.889 87.4769C413.145 87.2608 413.304 86.9521 413.332 86.6186L414.618 71.4909L423.729 70.9678C423.896 70.956 424.058 70.9114 424.207 70.8364C424.356 70.7614 424.488 70.6576 424.596 70.531C424.705 70.4044 424.787 70.2576 424.838 70.099C424.889 69.9404 424.908 69.7732 424.894 69.6071ZM371.488 73.9405L370.278 90.0365L351.934 91.0852L352.688 75.0295L371.488 73.9405ZM350.168 75.1678L349.414 91.2261L329.402 92.3704L330.088 76.3247L350.168 75.1678ZM349.293 93.7511L348.516 110.197L328.582 111.439L329.291 94.8955L349.293 93.7511ZM309.823 77.4917L327.558 76.4706L326.872 92.5163L308.691 93.555L309.823 77.4917ZM308.512 96.0851L326.764 95.0388L326.057 111.598L307.335 112.765L308.512 96.0851ZM305.949 132.397L307.157 115.295L325.949 114.123L325.219 131.127L305.949 132.397ZM327.747 130.961L328.474 113.967L348.398 112.724L347.598 129.66L327.747 130.961ZM367.396 128.347L350.123 129.487L350.92 112.566L368.666 111.462L367.396 128.347ZM368.857 108.929L351.038 110.038L351.813 93.6053L370.087 92.559L368.857 108.929ZM389.432 88.9349L372.813 89.8856L374.023 73.7896L390.831 72.8213L389.432 88.9349Z" fill="black"/>
<path d="M326.482 91.4753L319.775 85.633L324.349 81.4178C324.591 81.1908 324.733 80.8776 324.745 80.5464C324.757 80.2152 324.637 79.8927 324.412 79.6491C324.188 79.4055 323.876 79.2604 323.545 79.2455C323.214 79.2305 322.89 79.3469 322.644 79.5693L317.866 83.9731L312.748 79.5165C312.623 79.408 312.479 79.3251 312.322 79.2725C312.165 79.2199 312 79.1987 311.835 79.21C311.671 79.2213 311.51 79.265 311.362 79.3385C311.214 79.412 311.082 79.5139 310.973 79.6385C310.865 79.763 310.782 79.9076 310.729 80.0642C310.677 80.2207 310.656 80.3861 310.667 80.5509C310.678 80.7156 310.722 80.8766 310.795 81.0245C310.869 81.1723 310.971 81.3043 311.095 81.4128L316.007 85.6883L311.043 90.2631C310.801 90.4901 310.659 90.8033 310.647 91.1345C310.636 91.4657 310.755 91.7882 310.98 92.0318C311.204 92.2754 311.516 92.4205 311.847 92.4354C312.178 92.4504 312.502 92.334 312.748 92.1116L317.914 87.3482L324.832 93.3842C324.956 93.4992 325.101 93.5882 325.26 93.6458C325.418 93.7035 325.587 93.7286 325.755 93.7198C325.924 93.7109 326.089 93.6683 326.24 93.5943C326.392 93.5204 326.527 93.4167 326.638 93.2894C326.749 93.1621 326.833 93.0138 326.885 92.8534C326.937 92.693 326.957 92.5237 326.942 92.3556C326.928 92.1875 326.879 92.024 326.8 91.875C326.721 91.7259 326.613 91.5942 326.482 91.4879V91.4753Z" fill="black"/>
<path d="M368.488 107.01L363.166 102.788L368.611 97.383C368.731 97.2674 368.827 97.1289 368.894 96.9756C368.96 96.8224 368.995 96.6575 368.997 96.4906C368.999 96.3237 368.967 96.158 368.905 96.0033C368.842 95.8486 368.749 95.708 368.631 95.5896C368.513 95.4712 368.373 95.3774 368.219 95.3138C368.065 95.2501 367.899 95.2178 367.732 95.2188C367.565 95.2197 367.4 95.2539 367.247 95.3194C367.093 95.3848 366.954 95.4802 366.838 95.5999L361.184 101.211L355.125 96.3971C354.996 96.2943 354.848 96.2179 354.689 96.1723C354.53 96.1267 354.364 96.1129 354.2 96.1316C354.035 96.1503 353.877 96.2011 353.732 96.2812C353.587 96.3613 353.46 96.469 353.357 96.5983C353.254 96.7276 353.178 96.8759 353.132 97.0348C353.087 97.1936 353.073 97.3599 353.092 97.524C353.11 97.6882 353.161 97.8471 353.241 97.9916C353.321 98.1362 353.429 98.2635 353.558 98.3664L359.393 103.002L353.43 108.919C353.31 109.035 353.214 109.173 353.147 109.327C353.081 109.48 353.046 109.645 353.044 109.812C353.042 109.979 353.073 110.144 353.136 110.299C353.199 110.454 353.292 110.594 353.41 110.713C353.527 110.831 353.668 110.925 353.822 110.989C353.976 111.052 354.142 111.085 354.309 111.084C354.476 111.083 354.641 111.048 354.794 110.983C354.948 110.918 355.087 110.822 355.203 110.702L361.375 104.578L366.923 108.987C367.185 109.195 367.518 109.29 367.85 109.252C368.182 109.214 368.485 109.046 368.692 108.785C368.9 108.523 368.996 108.19 368.958 107.858C368.92 107.526 368.751 107.223 368.49 107.015L368.488 107.01Z" fill="black"/>
<path d="M347.395 189.334C347.784 188.519 347.879 187.594 347.663 186.717C347.448 185.84 346.935 185.065 346.213 184.523C343.481 182.7 339.342 185.687 335.101 186.495C331.751 187.136 330.776 186.998 329.727 184.908C329.496 184.426 329.232 183.96 328.937 183.514C328.374 182.674 327.808 182.702 325.132 183.723C324.014 184.179 322.866 184.558 321.696 184.855C318.806 185.474 315.843 185.683 312.894 185.476C312.562 185.447 312.255 185.288 312.041 185.034C311.826 184.779 311.722 184.45 311.75 184.118C311.784 183.788 311.944 183.485 312.198 183.27C312.451 183.056 312.777 182.948 313.108 182.969C315.789 183.149 318.482 182.961 321.113 182.41C324.958 181.492 328.64 178.577 331.022 182.109C331.381 182.645 331.701 183.207 331.98 183.789C332.069 183.986 332.173 184.176 332.292 184.357C333.079 184.305 333.861 184.193 334.631 184.022C338.846 183.223 343.527 179.709 347.608 182.43C348.455 182.978 349.145 183.736 349.611 184.63C350.078 185.524 350.304 186.523 350.269 187.531C354.099 185.429 358.287 184.059 362.618 183.489C367.759 183.489 370.251 186.708 373.548 185.378C377.953 184.005 382.461 182.989 387.029 182.34C387.192 182.315 387.358 182.323 387.519 182.363C387.679 182.403 387.83 182.474 387.962 182.573C388.095 182.671 388.207 182.794 388.292 182.936C388.377 183.077 388.434 183.234 388.458 183.397C388.483 183.561 388.475 183.727 388.435 183.888C388.395 184.048 388.324 184.199 388.226 184.331C388.127 184.464 388.004 184.576 387.862 184.661C387.721 184.746 387.564 184.803 387.401 184.827C383.03 185.454 378.714 186.418 374.491 187.709C373.36 188.09 372.163 188.238 370.974 188.144C369.784 188.051 368.625 187.717 367.567 187.164C366.002 186.472 364.321 186.078 362.61 186.004C358.921 186.004 351.658 189.558 349.153 190.936C348.923 191.062 348.66 191.113 348.399 191.082C348.139 191.051 347.896 190.939 347.702 190.763C347.508 190.586 347.375 190.354 347.32 190.098C347.264 189.841 347.291 189.575 347.395 189.334Z" fill="black"/>
<path d="M311.608 213.257C311.327 213.256 311.054 213.162 310.833 212.988C310.612 212.814 310.456 212.571 310.389 212.298C310.322 212.025 310.348 211.738 310.464 211.482C310.58 211.225 310.778 211.015 311.027 210.885C314.022 209.316 321.268 205.825 323.773 207.113C324.647 207.624 325.338 208.396 325.75 209.321C326.366 210.455 326.7 211.081 329.422 210.493C334.733 209.333 338.559 204.044 342.668 206.434C346.441 208.632 344.243 210.563 349.755 209.228C356.43 207.595 364.063 208.85 369.385 208.85C374.556 208.85 375.559 206.587 377.222 206.016C377.536 205.91 377.88 205.932 378.178 206.078C378.476 206.224 378.705 206.482 378.813 206.796C378.922 207.11 378.902 207.454 378.758 207.753C378.614 208.052 378.357 208.282 378.044 208.393C375.55 210.443 372.387 211.501 369.161 211.365C363.349 211.3 356.435 210.186 350.351 211.67C343.347 213.388 344.197 210.236 341.401 208.604C339.087 207.253 335.377 211.765 329.955 212.947C323.763 214.3 324.002 210.07 322.614 209.346C321.628 208.964 316.774 210.727 312.191 213.118C312.011 213.211 311.811 213.258 311.608 213.257Z" fill="black"/>
<path d="M301.725 215.872C300.933 215.821 300.172 215.545 299.53 215.078C298.889 214.611 298.394 213.971 298.102 213.233C297.81 212.495 297.734 211.69 297.883 210.91C298.031 210.131 298.398 209.409 298.941 208.83C299.283 208.448 299.7 208.14 300.166 207.926C300.633 207.712 301.138 207.596 301.651 207.585C302.164 207.575 302.674 207.67 303.148 207.864C303.623 208.059 304.053 208.349 304.411 208.717C304.984 209.286 305.38 210.008 305.552 210.797C305.725 211.586 305.665 212.407 305.381 213.163C305.098 213.919 304.602 214.577 303.953 215.058C303.304 215.538 302.53 215.821 301.725 215.872Z" fill="black"/>
<path d="M302.363 188.627C301.556 188.574 300.782 188.289 300.134 187.806C299.486 187.322 298.991 186.662 298.71 185.904C298.429 185.146 298.373 184.323 298.549 183.534C298.725 182.745 299.125 182.023 299.702 181.457C300.266 180.916 300.98 180.558 301.75 180.428C302.521 180.299 303.312 180.405 304.021 180.733C304.731 181.06 305.325 181.594 305.726 182.264C306.128 182.935 306.318 183.71 306.271 184.49C306.297 185.556 305.901 186.588 305.169 187.363C304.437 188.138 303.428 188.592 302.363 188.627Z" fill="black"/>
<path fill-rule="evenodd" clip-rule="evenodd" d="M182.42 379.707L129.54 435.437L27.7051 423.714L110.471 376.601L182.42 379.707Z" fill="white"/>
<path d="M129.399 436.742C129.148 436.742 131.479 437.15 27.4158 425.012C27.152 424.982 26.9046 424.869 26.709 424.69C26.5134 424.51 26.3796 424.273 26.3268 424.013C26.2741 423.753 26.305 423.483 26.4152 423.241C26.5255 422.999 26.7093 422.799 26.9404 422.668C94.9838 383.91 107.332 376.82 109.709 375.6C110.406 375.243 110.247 375.389 110.383 375.389L182.337 378.487C182.578 378.498 182.81 378.578 183.007 378.717C183.204 378.856 183.356 379.049 183.447 379.272C183.537 379.495 183.561 379.74 183.517 379.977C183.472 380.213 183.36 380.432 183.195 380.607L130.309 436.34C130.193 436.465 130.052 436.566 129.896 436.635C129.739 436.704 129.57 436.741 129.399 436.742ZM31.5253 422.95L128.921 434.164L179.473 380.892L110.635 377.909L31.5253 422.95Z" fill="black"/>
<path fill-rule="evenodd" clip-rule="evenodd" d="M281.576 373.684L350.087 406.059L465.526 389.244L490.424 302.363L377.549 309.866L360.175 367.711L281.576 373.684Z" fill="white"/>
<path d="M490.342 301.1L377.466 308.605C377.211 308.622 376.967 308.717 376.767 308.877C376.567 309.036 376.42 309.253 376.347 309.498L359.22 366.518L281.481 372.431C281.204 372.451 280.941 372.563 280.734 372.749C280.528 372.934 280.388 373.183 280.337 373.456C280.287 373.729 280.328 374.011 280.455 374.259C280.582 374.506 280.787 374.704 281.038 374.822C333.966 399.799 345.465 405.392 348.39 406.708C348.951 407.012 349.56 407.215 350.191 407.309L465.7 390.483C465.939 390.448 466.163 390.345 466.345 390.186C466.527 390.026 466.659 389.818 466.726 389.586L491.624 302.702C491.68 302.509 491.688 302.305 491.648 302.108C491.609 301.911 491.523 301.727 491.397 301.57C491.271 301.413 491.11 301.288 490.926 301.207C490.743 301.125 490.542 301.089 490.342 301.1ZM358.51 369.088L356.762 375.725L317.277 378.96C316.996 378.983 316.731 379.1 316.524 379.291C316.318 379.483 316.181 379.739 316.138 380.018C316.094 380.296 316.145 380.581 316.283 380.827C316.42 381.073 316.637 381.266 316.897 381.374L351.486 395.805L349.26 404.266L286.418 374.571L358.51 369.088ZM464.533 388.104L351.783 404.55C363.895 358.525 357.965 379.448 378.502 311.067L488.722 303.741L464.533 388.104Z" fill="black"/>
<path d="M12.5748 353.156C12.2413 353.166 11.9176 353.042 11.6749 352.813C11.4322 352.584 11.2905 352.268 11.2808 351.935C11.2711 351.601 11.3943 351.278 11.6233 351.035C11.8523 350.792 12.1683 350.651 12.5018 350.641L370.97 329.943C371.303 329.923 371.631 330.037 371.88 330.259C372.13 330.481 372.281 330.794 372.3 331.127C372.32 331.461 372.206 331.788 371.984 332.038C371.761 332.287 371.449 332.438 371.116 332.458L12.5748 353.156Z" fill="black"/>
<path d="M219.559 194.296C202.027 192.116 187.526 204.791 187.526 204.791C183.074 205.453 185.129 213.216 186.965 217.366C187.462 218.546 188.26 219.575 189.28 220.35C190.299 221.125 191.504 221.619 192.774 221.783C192.683 223.068 192.759 224.36 193.001 225.626C193.057 226.14 193.189 226.644 193.393 227.119L193.345 227.165C193.345 227.165 189.07 239.798 207.155 260.013C207.155 260.013 209.585 262.805 211.899 265.956C214.396 261.429 222.821 248.049 223.299 243.635C224.561 241.37 225.965 239.186 227.502 237.096C230.63 233.284 234.335 228.591 235.047 223.4C235.758 218.209 236.513 219.353 238.615 215.802C240.718 212.251 241.095 202.943 241.095 202.943C241.095 202.943 237.099 196.474 219.559 194.296Z" fill="white"/>
<path fill-rule="evenodd" clip-rule="evenodd" d="M192.229 223.166C192.267 223.704 192.77 226.908 192.77 226.908C192.77 226.908 188.6 239.453 206.579 259.754C209.44 262.959 211.998 266.42 214.222 270.095C212.958 267.711 212.558 264.962 213.091 262.317C213.443 260.77 222.172 248.484 222.723 243.376C224.167 240.653 225.881 238.083 227.841 235.705C228.664 236.067 238.306 240.275 250.514 244.206C263.28 248.318 269.902 261.487 273.652 266.763L291.257 291.662L266.861 316.412L255.23 303.14L247.979 340.92L179.269 343.938L160.96 325.124L157.187 315.202L149.62 327.561C149.62 327.561 142.148 311.309 136.315 304.621C134.575 302.664 132.407 301.133 129.98 300.147C127.553 299.162 124.932 298.748 122.319 298.937C122.571 294.856 133.989 274.29 136.353 266.896C138.717 259.502 148.073 248.59 162.195 244.764C170.566 242.534 178.409 238.657 185.265 233.361C186.872 229.526 189.241 226.057 192.229 223.166Z" fill="#81F889"/>
<path fill-rule="evenodd" clip-rule="evenodd" d="M187.652 197.772C187.274 200.01 187.04 202.27 186.95 204.537C188.062 205.169 189.027 206.029 189.78 207.062C190.534 208.095 191.059 209.277 191.321 210.528C192.692 213.985 194.947 217.02 197.86 219.331C197.86 219.331 198.396 205.498 201.535 202.827L198.484 199.925C194.758 200.024 191.057 199.289 187.652 197.772Z" fill="#81F889"/>
<path d="M217.326 231.92C215.413 231.164 213.808 229.789 212.768 228.014C212.694 227.864 212.65 227.7 212.64 227.532C212.63 227.364 212.654 227.196 212.71 227.037C212.766 226.879 212.853 226.733 212.966 226.609C213.08 226.484 213.217 226.384 213.369 226.314C213.522 226.244 213.687 226.205 213.855 226.199C214.024 226.194 214.191 226.222 214.348 226.283C214.505 226.344 214.648 226.435 214.769 226.552C214.89 226.669 214.986 226.808 215.052 226.963C215.879 228.176 217.051 229.113 218.417 229.652C221.435 231.085 221.749 230.894 222.944 229.632C223.555 228.978 223.998 226.231 223.221 220.638C223.187 220.313 223.28 219.989 223.482 219.732C223.683 219.475 223.976 219.307 224.299 219.262C224.622 219.217 224.95 219.3 225.213 219.492C225.477 219.685 225.655 219.972 225.711 220.293C226.928 229.056 225.311 230.783 224.78 231.359C222.348 233.925 220.547 233.454 217.326 231.92Z" fill="black"/>
<path d="M209.045 209.497C210.874 207.941 213.175 207.048 215.576 206.962C217.976 206.877 220.335 207.603 222.271 209.024C222.499 209.201 222.66 209.451 222.726 209.733C222.791 210.014 222.758 210.31 222.631 210.569C222.505 210.829 222.292 211.037 222.03 211.159C221.768 211.281 221.472 211.308 221.192 211.237C217.598 210.327 213.818 210.468 210.302 211.642C210.023 211.754 209.712 211.761 209.428 211.664C209.143 211.566 208.903 211.37 208.751 211.11C208.599 210.851 208.545 210.545 208.598 210.249C208.652 209.953 208.811 209.686 209.045 209.497Z" fill="black"/>
<path d="M237.247 215.794C237.004 215.795 236.766 215.724 236.563 215.591C234.732 214.662 232.63 214.418 230.635 214.901C230.359 214.956 230.072 214.917 229.821 214.79C229.57 214.663 229.369 214.455 229.25 214.2C229.131 213.945 229.101 213.658 229.164 213.384C229.228 213.109 229.382 212.865 229.601 212.688C230.889 211.812 232.447 211.42 233.996 211.584C235.546 211.747 236.987 212.455 238.064 213.581C238.26 213.748 238.399 213.971 238.464 214.22C238.529 214.469 238.516 214.731 238.427 214.972C238.338 215.214 238.177 215.422 237.966 215.569C237.755 215.716 237.504 215.794 237.247 215.794Z" fill="black"/>
<path fill-rule="evenodd" clip-rule="evenodd" d="M208.385 216.587C208.385 216.587 215.12 212.427 217.829 218.264C210.236 222.922 208.385 216.587 208.385 216.587Z" fill="white"/>
<path fill-rule="evenodd" clip-rule="evenodd" d="M226.252 219.856C226.252 219.856 228.795 216.989 233.136 221.352C227.145 225.821 226.252 219.856 226.252 219.856Z" fill="white"/>
<path fill-rule="evenodd" clip-rule="evenodd" d="M170.195 351.033L208.521 373.892L322.702 363.981L261.505 345.853L170.195 351.033Z" fill="white"/>
<path d="M208.521 375.152C208.368 375.152 208.453 375.261 207.684 374.838C205.775 373.789 198.612 369.471 169.551 352.115C169.321 351.977 169.141 351.768 169.037 351.52C168.934 351.272 168.913 350.997 168.977 350.736C169.041 350.475 169.187 350.242 169.394 350.07C169.6 349.898 169.856 349.797 170.125 349.781C244.607 345.506 258.326 344.751 260.934 344.653C261.364 344.618 261.798 344.659 262.214 344.774L323.059 362.776C323.34 362.86 323.582 363.039 323.744 363.282C323.906 363.525 323.979 363.818 323.949 364.109C323.919 364.399 323.789 364.671 323.581 364.876C323.372 365.081 323.099 365.208 322.808 365.233C322.808 365.233 208.559 375.152 208.521 375.152ZM174.365 352.057L208.821 372.607L315.99 363.302L261.364 347.118L174.365 352.057Z" fill="black"/>
<path fill-rule="evenodd" clip-rule="evenodd" d="M192.578 342.877C200.769 343.526 198.478 337.148 194.864 335.943C191.859 334.937 183.569 327.797 183.569 327.797L192.578 342.877Z" fill="white"/>
<path fill-rule="evenodd" clip-rule="evenodd" d="M174.171 328.26L171.493 323.567C168.904 323.059 166.224 323.301 163.769 324.266C156.581 327.199 154.577 330.669 154.577 330.669C151.039 331.566 147.374 331.851 143.74 331.512L148.428 324.399C148.428 324.399 138.486 301.035 127.327 299.539C125.577 299.269 123.796 299.269 122.045 299.539C122.045 299.539 114.025 312.996 109.782 316.839C105.539 320.682 93.4976 336.833 97.8511 349.896C102.205 362.959 131.856 354.106 137.143 353.304C141.462 352.787 145.811 352.56 150.161 352.625C150.161 352.625 153.083 356.752 163.183 354.167C166.209 353.621 169.105 352.512 171.722 350.897C171.722 350.897 177.323 350.374 179.045 347.859C179.045 347.859 185.662 352.411 189.158 351.088C192.654 349.766 188.638 344.6 186.993 342.907C185.348 341.215 174.171 328.26 174.171 328.26Z" fill="white"/>
<path d="M218.805 217.54C218.525 216.812 218.097 216.15 217.547 215.597C216.998 215.043 216.339 214.61 215.613 214.325C213.131 213.648 210.489 213.863 208.149 214.932C207.998 215 207.863 215.097 207.75 215.218C207.637 215.338 207.549 215.48 207.491 215.634C207.433 215.789 207.405 215.953 207.411 216.119C207.416 216.284 207.454 216.446 207.522 216.596C207.591 216.747 207.688 216.882 207.808 216.995C207.929 217.108 208.071 217.196 208.225 217.254C208.38 217.313 208.544 217.34 208.709 217.334C208.874 217.329 209.037 217.291 209.187 217.223C209.734 216.988 210.299 216.801 210.877 216.664C210.869 217.13 211.022 217.583 211.312 217.947C211.575 218.306 211.935 218.581 212.35 218.74C212.764 218.898 213.216 218.934 213.651 218.842C214.086 218.749 214.484 218.533 214.799 218.22C215.113 217.906 215.331 217.509 215.425 217.074C215.9 217.448 216.266 217.942 216.486 218.505C216.543 218.666 216.633 218.813 216.749 218.937C216.865 219.062 217.006 219.162 217.162 219.231C217.317 219.299 217.486 219.336 217.656 219.338C217.826 219.339 217.995 219.306 218.153 219.241C218.31 219.175 218.452 219.079 218.571 218.956C218.69 218.834 218.782 218.689 218.843 218.53C218.904 218.371 218.932 218.201 218.926 218.031C218.919 217.861 218.878 217.693 218.805 217.54Z" fill="black"/>
<path d="M234.446 219.557C233.297 218.608 231.89 218.026 230.406 217.887C228.923 217.747 227.432 218.057 226.126 218.775C225.98 218.852 225.85 218.957 225.745 219.084C225.639 219.211 225.56 219.358 225.511 219.516C225.462 219.674 225.445 219.84 225.46 220.004C225.476 220.169 225.523 220.329 225.601 220.475C225.678 220.621 225.783 220.75 225.91 220.856C226.037 220.961 226.184 221.041 226.342 221.09C226.5 221.138 226.666 221.156 226.83 221.14C226.995 221.125 227.155 221.077 227.301 221L227.457 220.925C227.555 221.252 227.736 221.548 227.983 221.784C228.23 222.02 228.533 222.188 228.864 222.272C229.195 222.356 229.543 222.353 229.872 222.262C230.201 222.172 230.502 221.998 230.744 221.757C231.076 221.428 231.277 220.989 231.31 220.523C231.827 220.69 232.299 220.975 232.688 221.355C232.926 221.588 233.248 221.718 233.581 221.714C233.915 221.711 234.234 221.575 234.467 221.336C234.701 221.098 234.83 220.776 234.826 220.443C234.823 220.109 234.684 219.79 234.446 219.557Z" fill="black"/>
<path d="M240.605 219.864L227.778 216.194C227.62 216.146 227.453 216.131 227.289 216.148C227.124 216.165 226.965 216.216 226.82 216.295C226.675 216.375 226.548 216.484 226.446 216.613C226.343 216.743 226.268 216.892 226.224 217.052L225.5 219.532C224.08 218.954 222.528 218.78 221.015 219.029L221.891 216.061C221.985 215.742 221.949 215.398 221.791 215.105C221.632 214.813 221.364 214.595 221.046 214.499L207.465 210.46C207.289 210.407 207.103 210.393 206.921 210.419C206.74 210.446 206.566 210.511 206.412 210.612C206.258 210.713 206.129 210.846 206.032 211.002C205.935 211.158 205.874 211.334 205.852 211.516L190.906 206.202C190.596 206.105 190.26 206.132 189.97 206.277C189.679 206.422 189.456 206.674 189.347 206.98C189.237 207.285 189.251 207.622 189.384 207.918C189.517 208.214 189.76 208.447 190.061 208.569L205.309 213.994L203.463 222.449C203.393 222.768 203.45 223.102 203.622 223.38C203.794 223.658 204.067 223.858 204.384 223.938L217.351 227.225C217.665 227.303 217.997 227.257 218.279 227.096C218.56 226.936 218.768 226.673 218.86 226.362L220.228 221.732C221.73 221.252 223.356 221.341 224.795 221.984L223.726 225.648C223.633 225.969 223.672 226.313 223.832 226.605C223.993 226.898 224.264 227.114 224.584 227.207C224.905 227.301 225.249 227.262 225.541 227.102C225.834 226.941 226.05 226.67 226.143 226.35L228.301 218.948L238.701 221.928L236.271 230.394L225.394 227.401C225.072 227.312 224.728 227.355 224.438 227.52C224.148 227.685 223.935 227.958 223.846 228.28C223.757 228.602 223.8 228.946 223.965 229.236C224.13 229.526 224.403 229.739 224.725 229.828L236.797 233.15C237.117 233.239 237.459 233.197 237.748 233.035C238.037 232.872 238.25 232.602 238.341 232.283L241.462 221.413C241.553 221.094 241.513 220.752 241.352 220.462C241.192 220.172 240.923 219.957 240.605 219.864ZM216.793 224.491L206.179 221.8L208.053 213.249L219.139 216.541L216.793 224.491Z" fill="black"/>
<path d="M194.98 344.502C194.646 344.509 194.324 344.384 194.083 344.153C193.842 343.923 193.702 343.606 193.695 343.272C193.687 342.939 193.813 342.616 194.043 342.375C194.274 342.134 194.591 341.994 194.924 341.987L246.417 339.724L254.029 302.63C254.096 302.303 254.29 302.016 254.568 301.832C254.847 301.648 255.187 301.582 255.513 301.649C255.84 301.716 256.127 301.909 256.311 302.188C256.495 302.466 256.561 302.806 256.494 303.133L248.685 341.187C248.629 341.462 248.483 341.711 248.27 341.893C248.057 342.075 247.788 342.181 247.508 342.193L194.98 344.502Z" fill="black"/>
<path fill-rule="evenodd" clip-rule="evenodd" d="M287.097 337.5C295.721 338.189 316.646 339.658 319.684 335.609C324.362 329.367 314.428 318.22 314.428 318.22C311.208 312.257 291.239 291.667 291.239 291.667L270.719 312.564L280.254 321.115C280.254 321.115 274.09 326.922 268.768 325.202C263.446 323.482 254.996 319.196 250.22 322.415C245.444 325.635 230.241 343.753 233.387 345.272C236.533 346.791 243.047 339.361 243.047 339.361C243.238 339.813 243.526 340.217 243.889 340.547C244.252 340.876 244.682 341.123 245.149 341.271C245.617 341.418 246.111 341.462 246.597 341.4C247.084 341.338 247.551 341.171 247.966 340.911C248.88 341.5 249.911 341.883 250.988 342.032C252.065 342.182 253.161 342.094 254.201 341.776C255.655 342.443 257.245 342.758 258.844 342.695C260.442 342.633 262.003 342.195 263.401 341.416C267.371 341.877 271.389 341.729 275.314 340.976C279.293 339.691 287.097 337.5 287.097 337.5Z" fill="white"/>
<path fill-rule="evenodd" clip-rule="evenodd" d="M189.732 351.157C192.008 349.824 188.135 344.082 184.558 340.264C180.919 336.423 177.495 332.384 174.302 328.164L160.618 307.697L165.774 303.739L195.026 347.055L196.91 351.833L193.711 353.845L189.732 351.157Z" fill="white"/>
<path d="M313.758 315.016C313.308 314.513 309.02 308.105 292.177 290.822C282.58 279.149 272.163 259.927 261.328 248.977C254.495 242.066 241.744 240.081 238.125 238.746C235.333 237.717 231.56 236.007 229.825 235.207C232.788 231.817 234.812 227.711 235.698 223.296C236.351 218.46 236.875 219.934 239.105 216.174C239.419 215.626 239.681 215.05 239.888 214.454C241.696 212.877 251.615 203.767 249.912 194.769C248.31 186.311 240.889 180.33 239.053 178.962C238.346 176.502 237.042 174.256 235.256 172.423C233.471 170.59 231.259 169.227 228.819 168.457C220.17 165.534 204.258 172.853 199.394 172.848C194.53 172.843 192.145 169.91 188.154 174.133C187.355 174.964 186.787 175.989 186.504 177.106C186.221 178.223 186.234 179.395 186.542 180.506C186.747 181.184 186.802 181.899 186.702 182.6C186.603 183.302 186.351 183.973 185.966 184.568C183.172 188.579 182.601 194.776 186.295 198.259C185.956 200.39 185.792 202.427 185.737 203.566C181.243 205.379 183.29 213.196 185.234 217.612C185.729 218.782 186.478 219.827 187.427 220.672C188.375 221.517 189.5 222.14 190.719 222.496C187.94 225.431 185.729 228.854 184.198 232.594C177.522 237.64 169.94 241.357 161.862 243.542C146.304 247.757 137.364 259.588 135.15 266.509C132.827 273.782 121.481 294.151 121.066 298.746C120.699 299.204 113.018 312.204 108.934 315.906C104.264 320.141 92.169 336.831 96.6558 350.291C98.6929 356.408 105.458 358.213 112.955 358.213C122.927 358.213 134.268 355.014 137.326 354.544C141.402 354.056 145.505 353.832 149.609 353.875C150.867 355.055 154.767 357.617 163.409 355.402C166.51 354.835 169.486 353.72 172.196 352.11C174.739 351.878 177.174 350.975 179.253 349.494C181.288 350.751 186.019 353.334 189.278 352.374L193.088 354.952C197.545 357.378 197.414 357.373 197.867 357.373C198.055 357.373 198.241 357.331 198.41 357.25C198.58 357.168 198.729 357.05 198.847 356.903C198.965 356.756 199.048 356.585 199.091 356.402C199.134 356.219 199.135 356.028 199.094 355.844C198.841 354.316 198.494 352.804 198.056 351.317C196.295 346.851 196.237 346.599 196.066 346.345L194.557 344.112C201.224 343.584 200.784 337.573 195.44 334.821C192.867 333.493 184.625 327.598 182.259 325.901C165.66 301.322 166.766 302.828 166.339 302.612C168.602 298.92 170.921 295.185 172.626 292.499C172.805 292.218 172.865 291.876 172.793 291.551C172.721 291.225 172.522 290.942 172.24 290.762C171.959 290.583 171.618 290.523 171.292 290.596C170.966 290.668 170.683 290.867 170.504 291.148C168.175 294.808 164.734 300.399 161.799 305.197L159.848 306.706C159.594 306.9 159.423 307.184 159.371 307.499C159.319 307.815 159.388 308.138 159.566 308.404L159.714 308.623L156.983 313.112C153.932 308.024 141.468 287.982 134.253 287.328C132.088 287.146 129.912 287.501 127.917 288.362C131.438 280.975 136.101 271.808 137.547 267.289C140.014 259.573 149.604 249.482 162.521 245.982C169.89 243.978 176.875 240.765 183.192 236.475C183.089 237.201 183.043 237.934 183.056 238.668C183.22 246.867 189.814 266.788 190.905 274.617C190.94 274.873 191.053 275.112 191.228 275.301C191.403 275.491 191.632 275.622 191.884 275.677C192.136 275.732 192.399 275.708 192.637 275.608C192.875 275.509 193.076 275.338 193.214 275.12C193.259 275.052 197.59 268.285 203.797 267.427C205.483 267.268 207.184 267.482 208.778 268.054C210.372 268.625 211.821 269.54 213.022 270.734C213.437 274.255 216.015 296.209 216.883 302.964C216.92 303.27 217.069 303.552 217.301 303.756C217.533 303.959 217.832 304.07 218.14 304.068H224.287C224.621 304.068 224.94 303.936 225.176 303.7C225.412 303.464 225.545 303.144 225.545 302.811C225.545 302.477 225.412 302.157 225.176 301.921C224.94 301.686 224.621 301.553 224.287 301.553H219.244C218.216 293.362 215.648 271.471 215.472 270.035C215.408 268.644 215.79 267.269 216.563 266.112C216.643 266.048 216.738 266.006 216.838 265.991C216.939 265.975 217.042 265.987 217.137 266.024C221.415 267.904 225.49 270.217 229.297 272.927C229.494 273.06 229.725 273.135 229.963 273.142C230.2 273.15 230.435 273.089 230.64 272.969C230.845 272.848 231.011 272.671 231.12 272.46C231.229 272.248 231.275 272.01 231.254 271.773C230.789 266.771 230.763 261.737 231.176 256.731C231.93 251.474 228.844 240.184 228.06 237.433L228.21 237.249C229.556 237.878 233.972 239.918 237.247 241.123C241.042 242.521 253.255 244.415 259.532 250.763C267.995 259.314 277.278 274.582 283.591 283.553C274.217 289.187 264.165 303.6 261.237 307.991L256.434 302.338C255.659 297.735 254.623 286.546 254.613 286.43C254.582 286.097 254.42 285.789 254.163 285.575C253.905 285.361 253.573 285.258 253.24 285.289C252.906 285.319 252.599 285.481 252.384 285.739C252.17 285.996 252.067 286.328 252.098 286.662C252.198 287.761 253.622 302.529 254.133 303.48C254.271 303.731 253.828 303.198 265.873 317.342C265.986 317.475 266.125 317.583 266.283 317.659C266.44 317.736 266.612 317.778 266.786 317.784C266.961 317.79 267.135 317.76 267.297 317.695C267.459 317.63 267.606 317.532 267.729 317.408L270.747 314.314L278.292 321.092C276.436 322.526 272.469 325.091 269.117 324.017C263.468 322.191 254.849 317.772 249.477 321.384C245.297 324.203 231.337 340.017 231.671 344.673C231.684 345.038 231.796 345.393 231.994 345.7C232.192 346.008 232.47 346.256 232.798 346.418C235.889 347.912 240.524 343.805 242.898 341.345C243.51 342.034 244.33 342.505 245.233 342.687C246.137 342.868 247.075 342.751 247.905 342.351C249.804 343.396 252.028 343.678 254.127 343.141C255.65 343.769 257.291 344.057 258.936 343.984C260.582 343.911 262.191 343.479 263.652 342.719C267.658 343.186 271.713 343.005 275.661 342.183C278.649 341.22 284.212 339.62 287.16 338.79C293.208 339.462 320.131 341.992 321.96 334.291C323.788 326.59 314.171 315.494 313.758 315.016ZM148.681 351.358C143.538 351.157 138.39 351.642 133.375 352.799C124.914 354.675 102.44 359.655 99.0526 349.494C94.9582 337.211 106.273 321.721 110.634 317.767C114.995 313.814 122.802 300.738 123.134 300.18L123.156 300.14C125.455 300.084 127.738 300.53 129.847 301.445C131.956 302.361 133.84 303.724 135.369 305.441C139.772 311.315 143.554 317.629 146.654 324.284L143.231 330.239C139.143 329.71 135.192 328.409 131.589 326.406C127.98 324.417 124.009 323.171 119.911 322.742C115.812 322.314 111.669 322.71 107.727 323.909C107.428 324.033 107.188 324.267 107.058 324.564C106.927 324.86 106.916 325.195 107.026 325.5C107.137 325.804 107.361 326.054 107.651 326.198C107.941 326.341 108.275 326.367 108.584 326.27C115.879 324.153 123.715 324.996 130.392 328.617C136.834 332.339 144.364 333.718 151.707 332.52C148.702 338.313 147.641 344.92 148.681 351.363V351.358ZM188.72 349.911C186.771 350.651 182.757 348.75 180.307 347.183L167.813 337.015C167.685 336.91 167.537 336.832 167.379 336.785C167.221 336.738 167.055 336.722 166.89 336.739C166.726 336.756 166.567 336.805 166.421 336.884C166.276 336.962 166.148 337.069 166.043 337.197C165.939 337.325 165.861 337.472 165.814 337.631C165.767 337.789 165.751 337.955 165.768 338.119C165.785 338.284 165.834 338.443 165.913 338.588C165.991 338.734 166.098 338.862 166.226 338.966L177.219 347.91C175.556 348.861 173.709 349.445 171.801 349.625C167.51 348.09 163.412 346.06 159.591 343.576C159.31 343.397 158.969 343.337 158.643 343.41C158.317 343.482 158.034 343.681 157.855 343.962C157.675 344.244 157.616 344.585 157.688 344.91C157.76 345.236 157.959 345.52 158.241 345.699C161.555 347.805 165.026 349.655 168.623 351.232C166.773 351.995 164.852 352.571 162.888 352.952C161.281 353.354 157.519 351.204 155.368 349.557C155.238 349.453 155.088 349.376 154.927 349.331C154.767 349.286 154.598 349.273 154.433 349.293C154.267 349.314 154.107 349.367 153.962 349.45C153.818 349.532 153.691 349.643 153.589 349.775C153.487 349.908 153.413 350.059 153.37 350.22C153.328 350.382 153.318 350.55 153.341 350.715C153.364 350.881 153.42 351.04 153.505 351.183C153.59 351.327 153.703 351.452 153.837 351.551C154.903 352.365 156.025 353.102 157.194 353.759C155.097 353.952 153.005 353.343 151.339 352.054C150.97 349.964 149.214 337.905 156.229 330.735C162.795 324.022 168.804 324.399 170.441 324.658L173.283 328.911C176.506 333.172 179.965 337.25 183.642 341.127C186.165 343.46 188.066 346.385 189.175 349.637C189.051 349.769 188.894 349.865 188.72 349.916V349.911ZM194.286 337.055C196.164 338.023 197.185 339.585 196.962 340.437C196.803 341.046 195.686 341.748 192.973 341.624H192.88L186.258 331.816C189.127 333.826 192.681 336.232 194.286 337.06V337.055ZM193.906 347.638L195.357 351.325L193.732 352.348L191.507 350.839C191.565 350.668 191.608 350.491 191.632 350.311V350.281C192.495 347.676 189.776 343.961 187.895 342.032C186.356 340.445 176.102 328.345 175.305 327.405L162.317 307.974L165.479 305.547L193.906 347.638ZM161.259 310.919L168.688 322.03C166.286 322.091 163.923 322.651 161.749 323.672L158.583 315.323L161.259 310.919ZM159.498 324.867C157.549 326.078 155.765 327.537 154.191 329.208C151.562 330.119 148.787 330.538 146.005 330.443L147.969 327.022C148.279 327.676 148.457 328.059 148.472 328.084C148.568 328.291 148.718 328.468 148.906 328.596C149.094 328.725 149.314 328.8 149.542 328.813C149.769 328.826 149.996 328.777 150.198 328.671C150.4 328.565 150.569 328.407 150.688 328.212L156.935 318.034L159.498 324.867ZM134.031 289.826C138.933 290.271 149.72 305.67 155.368 315.295C155.413 315.37 155.467 315.44 155.527 315.504L149.765 324.92C147.519 320.255 141.941 309.156 137.265 303.794C135.593 301.889 133.539 300.355 131.237 299.293C128.935 298.23 126.436 297.662 123.901 297.625C124.573 295.721 125.343 293.853 126.207 292.029C126.44 292.005 126.662 291.918 126.848 291.777C128.957 290.342 131.486 289.654 134.031 289.826ZM188.624 199.804C191.553 200.952 194.698 201.44 197.837 201.232C198.366 201.955 198.994 202.599 199.703 203.146C197.804 206.325 197.052 212.779 196.763 216.621C194.863 214.853 193.417 212.652 192.55 210.206C191.941 207.631 190.414 205.367 188.255 203.838C188.287 202.98 188.393 201.466 188.624 199.804ZM192.9 271.396C191.061 262.54 185.727 245.448 185.591 238.613C185.493 233.565 189.024 228.455 191.225 225.774C191.281 226.15 191.371 226.52 191.494 226.88C188.011 241.004 204.549 259.827 207.766 262.734C208.885 263.754 209.88 264.903 210.729 266.157C204.127 262.94 197.698 265.792 192.885 271.396H192.9ZM212.575 260.279C211.936 261.018 211.532 261.93 211.415 262.9C210.806 262.18 210.15 261.501 209.451 260.868C205.467 257.274 193.073 242.131 193.544 230.333C195.792 233.165 198.948 236.083 203.003 241.434C209.267 249.714 214.179 249.885 217.114 249.998C217.709 250.079 218.315 250.008 218.875 249.792C217.219 253.539 215.097 257.063 212.56 260.279H212.575ZM228.708 256.364C228.282 260.701 228.24 265.068 228.58 269.414C225.202 267.045 221.558 265.08 217.723 263.559C216.981 263.378 216.2 263.465 215.516 263.804C214.832 264.143 214.29 264.713 213.986 265.412C213.811 264.837 213.763 264.231 213.842 263.635C213.922 263.038 214.129 262.466 214.448 261.957C218.463 256.921 221.453 251.147 223.251 244.963C223.711 244.226 225.693 240.896 226.211 240.074C227.287 244.239 229.249 252.45 228.693 256.364H228.708ZM225.474 236.663C222.438 238.552 216.981 239.136 211.378 234.651C211.248 234.548 211.1 234.472 210.941 234.426C210.783 234.38 210.616 234.365 210.452 234.384C210.288 234.402 210.129 234.453 209.984 234.532C209.839 234.612 209.711 234.72 209.608 234.849C209.505 234.978 209.428 235.126 209.382 235.285C209.336 235.444 209.322 235.61 209.34 235.774C209.359 235.939 209.409 236.098 209.489 236.243C209.569 236.387 209.676 236.515 209.806 236.618C211.607 238.195 213.742 239.343 216.051 239.977C218.359 240.61 220.781 240.712 223.135 240.275C222.293 241.678 219.026 247.508 217.806 247.508L217.217 247.483C214.569 247.387 210.565 247.232 205.02 239.915C198.888 231.822 194.021 228.346 193.702 225.24C193.551 224.09 193.467 222.932 193.451 221.772C193.487 221.597 193.485 221.416 193.446 221.242C193.407 221.067 193.331 220.903 193.224 220.76C193.116 220.618 192.979 220.499 192.822 220.414C192.665 220.328 192.492 220.277 192.314 220.263C191.27 220.12 190.282 219.705 189.448 219.062C188.615 218.418 187.964 217.567 187.56 216.594C185.984 213.033 184.93 208.445 185.966 206.564C186.132 206.238 186.416 205.987 186.761 205.865C188.463 207.045 189.657 208.825 190.106 210.847C191.538 214.57 193.943 217.84 197.07 220.316C197.252 220.462 197.47 220.554 197.701 220.582C197.933 220.611 198.167 220.574 198.379 220.477C198.591 220.38 198.771 220.226 198.901 220.033C199.03 219.839 199.103 219.613 199.112 219.38C199.306 214.391 200.261 206.966 201.831 204.421C205.984 205.964 210.576 205.817 214.622 204.011C216.25 205.042 218.071 205.73 219.973 206.032C221.876 206.335 223.821 206.246 225.688 205.772C227.34 206.219 234.023 207.769 239.07 205.183C238.871 207.947 238.384 210.682 237.617 213.344C237.136 214.728 236.378 215.999 235.388 217.079C233.998 218.725 233.227 220.805 233.21 222.959C232.431 228.771 227.368 234.101 225.459 236.663H225.474ZM266.929 314.649L262.943 309.986C265.118 306.691 275.729 291.098 285.075 285.608C287.182 288.535 288.729 290.535 289.569 291.594L266.929 314.649ZM272.552 312.503L291.246 293.467C294.305 296.636 304.465 307.255 309.767 313.924C306.001 312.463 301.943 311.914 297.924 312.32C291.579 313.285 285.555 315.745 280.349 319.498L272.552 312.503ZM319.583 333.695C318.693 337.422 302.119 337.925 287.263 336.25C286.905 336.217 286.893 336.25 285.17 336.753C285.367 336.6 285.514 336.392 285.593 336.155C285.671 335.918 285.677 335.663 285.61 335.423C285.521 335.101 285.307 334.829 285.016 334.665C284.726 334.502 284.382 334.46 284.061 334.55C281.503 335.73 279.13 337.277 277.019 339.142C276.265 339.371 275.568 339.59 274.957 339.786C271.2 340.485 267.359 340.614 263.564 340.171C263.283 340.139 262.999 340.206 262.761 340.359C261.058 341.377 259.036 341.724 257.09 341.333L261.617 338.202C261.891 338.012 262.079 337.72 262.138 337.392C262.198 337.064 262.124 336.725 261.934 336.451C261.744 336.177 261.453 335.99 261.124 335.93C260.796 335.871 260.458 335.944 260.184 336.134L253.645 340.661C252.641 340.998 251.555 340.998 250.551 340.661L257.156 335.749C257.302 335.657 257.428 335.535 257.526 335.392C257.623 335.249 257.69 335.087 257.721 334.916C257.753 334.746 257.75 334.571 257.71 334.402C257.671 334.233 257.598 334.074 257.494 333.935C257.391 333.796 257.26 333.68 257.109 333.594C256.959 333.508 256.792 333.454 256.62 333.435C256.448 333.417 256.273 333.434 256.108 333.486C255.943 333.538 255.79 333.624 255.659 333.737C245.75 341.152 248.029 339.431 247.36 339.834C247.17 339.988 246.952 340.102 246.719 340.171C246.485 340.24 246.239 340.262 245.997 340.235C245.754 340.209 245.52 340.134 245.306 340.016C245.093 339.898 244.905 339.738 244.754 339.547L254.15 331.024C254.272 330.913 254.372 330.779 254.442 330.629C254.513 330.48 254.553 330.318 254.561 330.153C254.57 329.988 254.545 329.823 254.489 329.668C254.434 329.512 254.348 329.369 254.237 329.247C254.126 329.125 253.992 329.025 253.843 328.955C253.693 328.884 253.531 328.844 253.366 328.836C253.201 328.827 253.036 328.852 252.881 328.908C252.725 328.963 252.582 329.049 252.46 329.16C245.536 335.448 242.37 338.27 242.149 338.531C239.483 341.569 235.841 344.456 234.269 344.223C234.639 341.076 246.09 326.746 250.971 323.459C255.139 320.639 263.375 324.764 268.43 326.396C274.2 328.275 280.467 322.671 281.116 322.073C286.157 318.327 292.021 315.84 298.218 314.82C303.409 314.324 308.617 315.576 313.016 318.376C313.154 318.478 313.31 318.552 313.476 318.595C316.354 322.443 320.606 329.266 319.555 333.695H319.583Z" fill="black"/>
<path d="M194.98 344.502C194.646 344.509 194.324 344.384 194.083 344.153C193.842 343.922 193.702 343.605 193.695 343.272C193.687 342.938 193.813 342.616 194.043 342.375C194.274 342.134 194.591 341.994 194.924 341.987L233.952 340.264C234.119 340.25 234.287 340.271 234.445 340.325C234.603 340.379 234.748 340.465 234.872 340.578C234.995 340.691 235.093 340.828 235.161 340.981C235.229 341.134 235.264 341.299 235.265 341.466C235.273 341.631 235.247 341.796 235.191 341.951C235.135 342.106 235.049 342.249 234.937 342.371C234.826 342.493 234.691 342.592 234.542 342.662C234.392 342.732 234.23 342.772 234.065 342.779L194.98 344.502Z" fill="black"/>
<path fill-rule="evenodd" clip-rule="evenodd" d="M403.846 296.304L406.215 307.909L377.647 309.767L371.046 331.2L321.417 333.896C321.417 333.896 314.813 312.597 317.287 304.838C318.545 300.929 327.262 296.697 337.682 296.164C359.934 295.027 403.846 296.304 403.846 296.304Z" fill="white"/>
<path d="M321.484 335.149C321.217 335.149 320.956 335.063 320.74 334.905C320.525 334.747 320.365 334.524 320.285 334.268C320.008 333.383 313.527 312.498 316.095 304.455C317.604 299.722 327.259 295.437 337.621 294.898C359.667 293.772 403.441 295.024 403.883 295.037C404.167 295.045 404.439 295.149 404.656 295.332C404.873 295.514 405.021 295.765 405.078 296.043L407.45 307.647C407.486 307.823 407.484 308.005 407.444 308.181C407.404 308.356 407.327 308.521 407.218 308.664C407.108 308.807 406.97 308.925 406.811 309.01C406.652 309.095 406.477 309.145 406.298 309.156L378.59 310.962L372.247 331.565C372.171 331.81 372.022 332.027 371.82 332.185C371.618 332.343 371.372 332.436 371.115 332.45L321.484 335.149ZM337.749 297.424C327.689 297.927 319.535 301.951 318.491 305.22C316.447 311.623 321.175 328.433 322.402 332.583L370.102 329.99L376.445 309.397C376.519 309.154 376.667 308.939 376.866 308.781C377.066 308.623 377.309 308.529 377.564 308.512L404.696 306.752L402.814 297.542C385.916 297.074 354.725 296.553 337.749 297.411V297.424Z" fill="black"/>
<path fill-rule="evenodd" clip-rule="evenodd" d="M378.899 133.745C380.489 135.741 381.406 138.19 381.518 140.739C381.138 143.87 385.328 151.191 388.338 153.598C390.12 155.071 391.662 156.811 392.91 158.757C393.778 160.753 395.617 167.34 404.386 161.775L409.034 169.513C414.977 163.324 421.966 158.233 429.68 154.474C427.124 152.059 425.192 149.06 424.051 145.734C422.91 142.408 422.593 138.855 423.128 135.38C431.742 128.159 429.549 119.424 425.895 118.952C422.24 118.479 418.805 125.327 418.805 125.327C402.125 126.617 398.723 110.091 398.723 110.091C396.14 115.803 401.253 126.637 401.253 126.637C398.655 129.059 385.069 132.95 378.899 133.745Z" fill="white"/>
<path d="M401.273 147.047C397.433 151 390.982 152.328 387.44 152.786C389.653 154.551 391.546 156.683 393.036 159.089C400.742 158.219 401.273 147.047 401.273 147.047Z" fill="white"/>
<path fill-rule="evenodd" clip-rule="evenodd" d="M393.009 134.942C393.887 134.217 394.906 133.683 396.003 133.375C397.099 133.067 398.247 132.992 399.374 133.154C399.374 133.154 399.216 135.92 395.35 136.423C393.864 136.725 393.009 134.942 393.009 134.942Z" fill="white"/>
<path d="M398.394 131.547C392.727 131.323 391.875 133.84 391.759 134.625C391.711 134.86 391.728 135.103 391.81 135.328C391.892 135.553 392.034 135.751 392.221 135.9C392.409 136.049 392.634 136.143 392.871 136.172C393.109 136.201 393.35 136.163 393.567 136.064C393.897 136.353 394.31 136.531 394.747 136.572C395.184 136.613 395.622 136.515 396 136.292C396.378 136.069 396.676 135.732 396.851 135.33C397.026 134.928 397.069 134.48 396.975 134.052C397.36 134.034 397.795 134.032 398.285 134.052C398.617 134.058 398.938 133.937 399.182 133.713C399.427 133.489 399.576 133.18 399.598 132.85C399.611 132.517 399.491 132.194 399.265 131.949C399.039 131.705 398.726 131.56 398.394 131.547Z" fill="black"/>
<path d="M392.151 145.347C392.038 145.227 391.901 145.131 391.751 145.064C391.6 144.996 391.437 144.96 391.272 144.956C391.107 144.951 390.942 144.98 390.788 145.039C390.634 145.098 390.493 145.187 390.373 145.301C389.62 146.078 388.64 146.596 387.574 146.78C387.483 146.773 387.394 146.744 387.316 146.696C387.238 146.647 387.173 146.58 387.127 146.501C386.299 145.394 386.571 140.842 387.295 137.266C387.361 136.94 387.296 136.602 387.114 136.325C386.931 136.047 386.647 135.853 386.322 135.785C382.934 134.872 381.863 136.964 381.621 137.633C381.544 137.846 381.526 138.076 381.568 138.299C381.611 138.522 381.713 138.728 381.864 138.898C382.015 139.067 382.209 139.193 382.425 139.261C382.641 139.329 382.872 139.338 383.092 139.285C383.411 139.641 383.852 139.866 384.327 139.914C383.998 142.658 383.857 146.327 385.107 148.005C385.396 148.408 385.777 148.736 386.219 148.961C386.661 149.186 387.151 149.302 387.647 149.298C389.332 149.083 390.899 148.319 392.106 147.125C392.226 147.011 392.322 146.875 392.389 146.724C392.456 146.573 392.493 146.41 392.497 146.245C392.501 146.08 392.473 145.916 392.414 145.761C392.354 145.607 392.265 145.466 392.151 145.347Z" fill="black"/>
<path fill-rule="evenodd" clip-rule="evenodd" d="M375.945 133.685C377.544 134.997 398.006 129.661 401.243 126.643C401.243 126.643 396.128 115.808 398.713 110.096C398.713 110.096 402.118 126.622 418.795 125.332C418.795 125.332 422.223 118.481 425.885 118.957C429.547 119.432 431.745 128.164 423.119 135.385C423.119 135.385 420.08 145.696 431.214 156.008C442.348 166.319 449.295 167.325 448.243 176.181C447.192 185.036 448.301 191.198 454.129 192.956C459.956 194.714 464.068 204.525 453.973 206.456C453.973 206.456 463.482 210.666 473.464 201.207C483.446 191.748 482.302 185.282 479.583 179.674C476.864 174.065 470.529 173.313 473.421 167.992C474.294 166.721 474.8 165.234 474.882 163.695C474.964 162.155 474.62 160.623 473.886 159.267C473.886 159.267 468.278 167.909 465.677 161.216C463.077 154.524 464.168 147.532 457.126 140.709C450.084 133.886 450.426 128.808 450.426 128.808L453.51 127.586C451.307 127.187 449.245 126.224 447.525 124.79C445.806 123.356 444.488 121.5 443.701 119.404C443.074 117.436 442.062 115.613 440.724 114.04C439.385 112.467 437.747 111.176 435.905 110.242C435.905 110.242 443.898 106.027 443.9 102.627C443.9 102.627 440.759 103.248 435.827 97.8483C430.895 92.4486 411.223 79.1895 396.925 92.7378C396.925 92.7378 371.538 99.0253 372.715 118.927C373.369 129.661 373.548 131.72 375.945 133.685Z" fill="#81F889"/>
<path fill-rule="evenodd" clip-rule="evenodd" d="M319.599 352.439C316.975 354.432 313.776 355.52 310.482 355.54C306.979 357.7 301.901 355.339 301.901 355.339C299.412 355.118 297.023 354.251 294.972 352.824C294.972 352.824 286.937 364.644 283.971 362.542C281.006 360.439 291.816 343.4 295.022 338.207C298.229 333.013 311.641 325.179 318.827 320.971C326.012 316.764 332.292 306.548 337.008 295.097C341.723 283.646 362.442 260.725 367.575 255.561C372.708 250.398 380.08 237.285 380.08 237.285C380.08 237.285 393.661 234.619 408.248 250.343L400.157 261.859C387.285 280.09 376.611 285.849 362.017 299.908C347.422 313.967 337.211 328.75 333.268 331.678C329.324 334.605 323.218 349.265 319.599 352.439Z" fill="white"/>
<path d="M381.749 130.52C381.54 130.52 381.335 130.468 381.151 130.369C380.968 130.27 380.812 130.127 380.698 129.952C377.879 125.465 376.695 120.143 377.345 114.885C377.37 114.721 377.427 114.565 377.513 114.423C377.599 114.282 377.712 114.16 377.846 114.063C377.98 113.967 378.132 113.897 378.293 113.86C378.454 113.823 378.621 113.818 378.784 113.846C379.113 113.899 379.407 114.08 379.603 114.349C379.799 114.619 379.879 114.955 379.827 115.285C379.302 119.922 380.349 124.602 382.8 128.574C382.924 128.764 382.995 128.983 383.005 129.21C383.014 129.436 382.962 129.661 382.855 129.861C382.747 130.06 382.587 130.227 382.393 130.343C382.198 130.459 381.975 130.52 381.749 130.52Z" fill="black"/>
<path d="M391.389 127.983C385.574 126.394 383.19 119.829 383.089 119.553C382.977 119.238 382.995 118.892 383.139 118.591C383.282 118.289 383.539 118.057 383.854 117.946C384.168 117.834 384.514 117.852 384.816 117.995C385.117 118.138 385.349 118.396 385.461 118.71C385.481 118.766 387.516 124.319 392.05 125.556C392.372 125.644 392.646 125.856 392.811 126.146C392.976 126.436 393.02 126.78 392.932 127.102C392.844 127.423 392.631 127.697 392.341 127.862C392.052 128.028 391.711 128.071 391.389 127.983Z" fill="black"/>
<path d="M463.109 268.557C469.988 244.292 477.445 202.203 478.199 197.923C484.472 190.013 483.093 184.02 480.714 179.108C479.639 177.088 478.173 175.302 476.401 173.854C474.039 171.714 473.285 170.856 474.527 168.573C475.521 167.098 476.083 165.374 476.15 163.597C476.218 161.82 475.788 160.059 474.91 158.513C474.791 158.346 474.633 158.211 474.45 158.119C474.267 158.027 474.064 157.981 473.86 157.985C473.655 157.989 473.454 158.044 473.275 158.143C473.096 158.242 472.944 158.384 472.832 158.556C471.781 160.168 469.676 162.476 468.378 162.476C467.639 162.476 467.121 161.428 466.849 160.736C464.284 154.144 465.38 146.934 458.011 139.784C454.887 137.154 452.693 133.587 451.754 129.613L453.982 128.73C454.243 128.627 454.462 128.44 454.605 128.198C454.747 127.956 454.805 127.674 454.768 127.396C454.731 127.117 454.602 126.859 454.402 126.663C454.202 126.466 453.942 126.342 453.663 126.311C451.686 125.938 449.839 125.06 448.3 123.764C446.762 122.468 445.584 120.797 444.88 118.912C443.613 115.455 441.376 112.437 438.437 110.22C441.075 108.588 445.167 105.582 445.167 102.602C445.162 102.421 445.118 102.244 445.04 102.082C444.962 101.919 444.851 101.775 444.713 101.658C444.576 101.541 444.415 101.454 444.242 101.403C444.069 101.352 443.887 101.338 443.708 101.362C443.708 101.362 441.038 101.649 436.765 96.9783C430.276 90.4117 421.664 86.3671 412.467 85.5677C409.505 85.4142 406.543 85.8687 403.763 86.9033C400.983 87.9379 398.444 89.5307 396.303 91.5836C393.285 92.4362 370.514 99.5385 371.47 118.997L371.538 120.003C372.232 130.035 372.393 132.417 375.134 134.668C376.111 135.104 377.199 135.226 378.248 135.018C379.476 136.625 380.178 138.572 380.26 140.593C379.815 144.268 384.033 151.282 386.719 153.845C388.79 155.477 390.555 157.463 391.932 159.712C392.262 160.872 392.848 161.943 393.645 162.847C394.442 163.751 395.431 164.466 396.54 164.939C397.807 165.221 399.118 165.238 400.392 164.99C401.666 164.742 402.875 164.234 403.944 163.498L407.613 169.609L407.52 169.725C407.356 169.934 407.263 170.19 407.253 170.455C407.244 170.721 407.319 170.983 407.467 171.203L411.977 177.906C403.547 182.795 396.757 190.074 392.465 198.823C386.934 211.098 382.4 223.798 378.904 236.8C378.112 238.198 371.359 249.966 366.682 254.669C361.267 260.116 340.619 283.023 335.845 294.612C330.622 307.298 324.352 316.271 318.062 319.956C308.019 325.838 297.044 332.531 293.95 337.541L293.344 338.521C283.111 355.03 280.467 361.581 283.241 363.561C283.549 363.774 283.896 363.923 284.263 363.997C284.63 364.071 285.008 364.07 285.374 363.993C288.676 363.4 293.387 357.233 295.321 354.517C297.215 355.763 299.405 356.485 301.669 356.609C303.102 357.264 304.654 357.618 306.229 357.65C307.805 357.682 309.37 357.391 310.828 356.795C314.312 356.721 317.679 355.525 320.428 353.385C324.216 350.055 330.428 335.347 334.009 332.682C338.229 329.553 348.093 315.046 362.879 300.809C374.118 289.994 387.36 279.743 399.233 265.204C400.239 274.696 403.335 303.077 405.018 308.291C405.112 308.583 405.309 308.83 405.572 308.987C405.835 309.143 406.147 309.198 406.448 309.141C406.749 309.085 407.019 308.92 407.207 308.678C407.395 308.436 407.489 308.134 407.47 307.828L476.497 303.284C476.605 303.487 476.7 303.663 476.783 303.807C476.862 303.955 476.97 304.086 477.101 304.192C477.231 304.298 477.381 304.377 477.543 304.424C477.704 304.471 477.874 304.485 478.041 304.465C478.208 304.446 478.369 304.393 478.515 304.31C478.661 304.227 478.789 304.115 478.892 303.982C478.994 303.848 479.068 303.696 479.111 303.533C479.153 303.37 479.162 303.201 479.138 303.034C479.113 302.868 479.056 302.708 478.969 302.564C476.791 298.739 464.772 272.229 463.109 268.557ZM371.852 289.154C360.392 299.06 349.874 310.005 340.432 321.849C338.03 324.987 335.385 327.93 332.52 330.652C328.22 333.836 322.209 348.461 318.771 351.484C316.373 353.257 313.479 354.234 310.496 354.275C310.258 354.275 310.024 354.339 309.82 354.461C306.953 356.222 302.476 354.21 302.428 354.187C302.233 354.091 302.014 354.052 301.797 354.077C299.59 353.849 297.479 353.054 295.671 351.768C295.395 351.583 295.057 351.514 294.731 351.576C294.405 351.639 294.117 351.828 293.93 352.102C291.415 355.787 286.976 361.139 284.771 361.574C284.283 360.621 285.11 356.589 296.088 338.853C299.106 333.959 312.765 325.959 319.457 322.041C327.961 317.061 334.326 304.891 338.167 295.56C342.731 284.477 363.337 261.588 368.462 256.432C373.188 250.844 377.348 244.802 380.884 238.394C383.11 238.065 393.009 237.529 406.663 250.509C396.884 266.356 385.142 277.201 371.852 289.154ZM393.766 157.68C392.767 156.177 391.578 154.808 390.23 153.609C393.524 153.017 396.679 151.818 399.535 150.072C398.879 152.894 397.319 156.765 393.766 157.68ZM403.657 160.746C402.784 161.468 401.769 162 400.678 162.308C399.587 162.616 398.444 162.693 397.322 162.534C396.753 162.305 396.237 161.962 395.805 161.527C395.372 161.092 395.033 160.574 394.807 160.004C401.924 157.841 402.5 147.575 402.523 147.107C402.535 146.852 402.469 146.6 402.334 146.383C402.199 146.166 402.001 145.996 401.767 145.894C401.533 145.793 401.273 145.765 401.023 145.815C400.772 145.864 400.543 145.989 400.365 146.172C396.853 149.165 392.507 151.009 387.913 151.453C385.272 148.513 382.498 143.046 382.76 140.89C382.835 138.679 382.22 136.499 380.999 134.653C388.306 133.416 399.844 129.656 402.09 127.548C402.284 127.366 402.415 127.127 402.465 126.866C402.515 126.605 402.48 126.335 402.367 126.094C400.773 122.664 399.732 119.003 399.284 115.247C400.919 118.974 403.702 122.082 407.227 124.118C410.752 126.153 414.834 127.011 418.88 126.565C419.097 126.548 419.306 126.476 419.486 126.354C419.666 126.233 419.812 126.067 419.909 125.873C420.895 123.899 423.551 119.885 425.711 120.184C428.143 120.494 430.047 127.92 422.306 134.399C422.235 134.459 422.171 134.527 422.115 134.6C422.132 132.867 422.095 131.582 422.082 131.19C422.076 131.025 422.038 130.862 421.969 130.712C421.901 130.562 421.803 130.426 421.682 130.314C421.561 130.201 421.419 130.113 421.264 130.056C421.109 129.998 420.944 129.972 420.779 129.978C420.614 129.983 420.452 130.022 420.301 130.09C420.151 130.159 420.016 130.257 419.903 130.378C419.79 130.499 419.703 130.641 419.645 130.796C419.588 130.95 419.561 131.115 419.567 131.28C419.688 134.754 419.567 144.454 417.658 147.537C415.357 151.29 404.492 160.067 403.657 160.746ZM409.364 167.602L406.034 162.069C408.836 159.778 417.573 152.494 419.813 148.885C420.901 146.685 421.546 144.292 421.712 141.843C422.484 146.418 424.544 150.678 427.653 154.122C420.976 157.772 414.823 162.307 409.359 167.602H409.364ZM458.351 206.117C464.342 202.161 460.534 193.569 454.503 191.748C449.941 190.368 448.396 185.612 449.501 176.327C450.655 166.619 443.213 165.391 432.079 155.08C422.676 146.383 423.863 137.89 424.25 136.081C433.369 128.169 430.857 118.338 426.048 117.722C422.276 117.264 419.077 122.229 418.015 124.135C403.308 124.865 400.076 110.476 399.942 109.855C399.886 109.597 399.75 109.363 399.553 109.186C399.356 109.01 399.109 108.9 398.846 108.872C398.583 108.844 398.318 108.9 398.089 109.031C397.86 109.163 397.677 109.363 397.568 109.604C395.214 114.8 398.471 123.406 399.688 126.265C393.125 129.266 386.189 131.374 379.065 132.533C378.855 132.506 378.641 132.533 378.444 132.613C377.847 132.707 377.239 132.721 376.638 132.654C374.79 131.067 374.611 129.057 374.003 118.884C372.889 100.273 397.02 94.0357 397.261 93.9854C397.472 93.9332 397.665 93.8275 397.822 93.6786C399.742 91.8009 402.028 90.3391 404.538 89.3845C407.047 88.4299 409.727 88.003 412.409 88.1305C420.923 88.9383 428.889 92.6846 434.941 98.7262C436.834 101.094 439.389 102.845 442.28 103.756C440.362 106.003 438.009 107.838 435.361 109.148C435.146 109.261 434.969 109.434 434.85 109.646C434.731 109.857 434.676 110.099 434.692 110.341C434.707 110.583 434.792 110.816 434.937 111.011C435.082 111.206 435.28 111.355 435.507 111.44C437.184 112.315 438.671 113.513 439.885 114.963C441.098 116.414 442.014 118.09 442.579 119.895C443.894 123.349 446.494 126.161 449.835 127.742C449.656 127.845 449.506 127.991 449.397 128.167C449.289 128.342 449.225 128.542 449.211 128.748C449.196 128.979 448.93 134.487 456.291 141.63C463.029 148.169 461.854 154.808 464.538 161.694C466.374 166.41 470.144 165.806 473.534 161.878C473.766 163.803 473.349 165.75 472.349 167.411C470.103 171.545 472.571 173.784 474.744 175.758C476.273 176.992 477.543 178.516 478.481 180.242C481.235 185.921 481.69 191.726 472.631 200.312C470.805 202.246 468.586 203.765 466.122 204.766C463.658 205.768 461.008 206.228 458.351 206.117Z" fill="black"/>
<path d="M410.657 248.22C410.427 248.22 410.201 248.157 410.005 248.037C409.808 247.918 409.648 247.747 409.542 247.543C409.436 247.338 409.388 247.109 409.403 246.88C409.418 246.65 409.496 246.429 409.628 246.241C415.237 238.263 428.818 218.324 433.812 205.39C433.933 205.078 434.172 204.827 434.477 204.692C434.783 204.557 435.129 204.549 435.441 204.669C435.752 204.79 436.003 205.029 436.138 205.334C436.274 205.64 436.282 205.986 436.161 206.298C431.064 219.481 417.347 239.634 411.685 247.684C411.57 247.85 411.416 247.985 411.237 248.078C411.058 248.171 410.859 248.22 410.657 248.22Z" fill="white"/>
<path d="M294.969 354.079C294.737 354.077 294.511 354.012 294.314 353.89C294.118 353.767 293.959 353.593 293.855 353.387C293.751 353.18 293.706 352.948 293.725 352.718C293.744 352.487 293.826 352.266 293.963 352.079L298.709 345.588C298.803 345.446 298.924 345.325 299.066 345.231C299.209 345.138 299.368 345.074 299.536 345.044C299.703 345.014 299.875 345.018 300.041 345.057C300.207 345.095 300.363 345.167 300.5 345.267C300.638 345.368 300.753 345.495 300.84 345.642C300.927 345.788 300.983 345.951 301.005 346.119C301.027 346.288 301.014 346.459 300.968 346.623C300.922 346.787 300.843 346.94 300.736 347.072L295.993 353.563C295.875 353.724 295.721 353.855 295.543 353.945C295.365 354.034 295.168 354.08 294.969 354.079Z" fill="black"/>
<path d="M301.9 356.596C301.648 356.597 301.402 356.522 301.193 356.381C300.985 356.24 300.823 356.04 300.729 355.806C300.636 355.572 300.615 355.315 300.669 355.069C300.723 354.823 300.85 354.599 301.032 354.426L307.068 348.689C307.31 348.459 307.633 348.335 307.967 348.344C308.3 348.352 308.617 348.493 308.846 348.735C309.076 348.976 309.201 349.3 309.192 349.633C309.184 349.966 309.043 350.283 308.801 350.513L302.778 356.249C302.541 356.475 302.227 356.599 301.9 356.596Z" fill="black"/>
<path d="M310.524 356.748C310.252 356.748 309.987 356.66 309.769 356.497C309.55 356.334 309.391 356.104 309.315 355.842C309.239 355.581 309.249 355.302 309.345 355.047C309.442 354.792 309.618 354.575 309.848 354.429L314.556 351.433C314.695 351.345 314.851 351.284 315.013 351.256C315.176 351.227 315.343 351.231 315.504 351.267C315.665 351.303 315.818 351.37 315.953 351.465C316.088 351.56 316.204 351.68 316.292 351.819C316.381 351.959 316.441 352.114 316.47 352.277C316.499 352.44 316.495 352.606 316.459 352.768C316.423 352.929 316.356 353.082 316.261 353.217C316.166 353.352 316.046 353.467 315.906 353.556L311.198 356.551C310.997 356.68 310.763 356.748 310.524 356.748Z" fill="black"/>
<path d="M199.849 198.24C199.548 198.24 199.257 198.132 199.028 197.936C198.8 197.739 198.65 197.467 198.605 197.169C198.56 196.871 198.624 196.567 198.784 196.312C198.945 196.057 199.191 195.868 199.479 195.78L206.358 193.668C206.671 193.587 207.003 193.63 207.286 193.788C207.568 193.947 207.778 194.207 207.873 194.517C207.968 194.826 207.94 195.16 207.795 195.449C207.65 195.738 207.399 195.96 207.095 196.069C204.725 196.936 202.305 197.661 199.849 198.24Z" fill="white"/>
<path d="M217.045 201.439C216.768 201.438 216.5 201.347 216.281 201.179C216.062 201.011 215.904 200.775 215.832 200.508C215.76 200.242 215.778 199.959 215.884 199.703C215.989 199.448 216.175 199.234 216.413 199.095L220.958 196.457C221.101 196.366 221.261 196.304 221.429 196.277C221.596 196.249 221.767 196.256 221.932 196.296C222.097 196.337 222.251 196.41 222.387 196.512C222.523 196.613 222.636 196.742 222.721 196.888C222.806 197.035 222.861 197.198 222.881 197.366C222.901 197.534 222.888 197.705 222.84 197.868C222.793 198.031 222.713 198.183 222.606 198.314C222.499 198.445 222.366 198.553 222.216 198.632C217.369 201.449 217.523 201.439 217.045 201.439Z" fill="white"/>
<path d="M229.498 203.43C229.221 203.43 228.952 203.338 228.733 203.168C228.514 202.999 228.357 202.762 228.286 202.494C228.215 202.227 228.235 201.943 228.342 201.687C228.449 201.432 228.637 201.219 228.877 201.081L234.41 197.94C234.554 197.853 234.714 197.795 234.88 197.771C235.046 197.747 235.216 197.756 235.379 197.798C235.541 197.841 235.694 197.915 235.828 198.017C235.961 198.12 236.073 198.248 236.156 198.394C236.239 198.54 236.292 198.701 236.311 198.868C236.331 199.035 236.317 199.205 236.27 199.366C236.223 199.528 236.144 199.678 236.038 199.808C235.932 199.939 235.801 200.047 235.653 200.126C229.695 203.508 229.959 203.43 229.498 203.43Z" fill="white"/>
</svg>
