<svg width="394" height="222" viewBox="0 0 394 222" fill="none" xmlns="http://www.w3.org/2000/svg">
<g clip-path="url(#clip0_441_61697)">
<path d="M215.861 216.122C215.658 216.12 215.463 216.046 215.318 215.914C215.172 215.781 215.088 215.602 215.083 215.413C215.081 215.321 215.099 215.23 215.136 215.144C215.173 215.058 215.227 214.98 215.297 214.915C215.366 214.849 215.449 214.796 215.54 214.76C215.632 214.724 215.73 214.705 215.829 214.705C217.356 214.677 218.883 214.634 220.35 214.577C220.45 214.573 220.55 214.586 220.645 214.618C220.739 214.649 220.826 214.697 220.901 214.76C220.975 214.822 221.036 214.898 221.079 214.982C221.122 215.066 221.146 215.157 221.151 215.25C221.156 215.343 221.142 215.436 221.108 215.524C221.074 215.612 221.022 215.693 220.955 215.762C220.887 215.831 220.806 215.887 220.715 215.927C220.625 215.967 220.526 215.99 220.426 215.994C218.96 216.051 217.434 216.108 215.861 216.122ZM208.915 216.065C208.762 215.997 207.999 216.084 204.304 215.853C204.204 215.847 204.107 215.822 204.017 215.781C203.928 215.74 203.848 215.683 203.783 215.613C203.718 215.543 203.668 215.461 203.637 215.373C203.606 215.285 203.594 215.193 203.602 215.1C203.608 215.007 203.633 214.916 203.677 214.833C203.721 214.749 203.782 214.674 203.858 214.612C203.933 214.55 204.02 214.503 204.115 214.473C204.21 214.442 204.311 214.43 204.411 214.436C205.922 214.535 207.449 214.606 208.93 214.634C209.134 214.636 209.33 214.713 209.473 214.849C209.616 214.984 209.695 215.167 209.693 215.357C209.691 215.546 209.608 215.728 209.462 215.861C209.316 215.993 209.119 216.067 208.915 216.065ZM227.312 215.555C227.126 215.542 226.952 215.467 226.822 215.343C226.692 215.22 226.615 215.057 226.606 214.884C226.596 214.712 226.655 214.542 226.771 214.407C226.887 214.272 227.052 214.181 227.235 214.151C228.762 214.025 230.274 213.867 231.739 213.713C231.842 213.694 231.949 213.695 232.051 213.716C232.154 213.737 232.251 213.777 232.336 213.835C232.421 213.892 232.492 213.965 232.546 214.049C232.599 214.133 232.633 214.227 232.645 214.323C232.658 214.42 232.649 214.518 232.618 214.612C232.588 214.705 232.537 214.792 232.469 214.866C232.401 214.941 232.318 215.001 232.223 215.044C232.129 215.087 232.026 215.111 231.921 215.116C231.422 215.17 227.819 215.555 227.312 215.555ZM197.449 215.286C197.237 215.286 194.176 214.899 192.823 214.719C192.642 214.696 192.476 214.613 192.355 214.485C192.234 214.358 192.167 214.194 192.165 214.025C192.166 213.922 192.191 213.821 192.238 213.728C192.284 213.635 192.352 213.552 192.436 213.485C192.519 213.418 192.617 213.369 192.723 213.339C192.829 213.31 192.941 213.302 193.05 213.316C194.548 213.529 196.059 213.713 197.54 213.869C197.743 213.88 197.932 213.966 198.067 214.106C198.201 214.247 198.27 214.432 198.258 214.62C198.246 214.808 198.154 214.983 198.002 215.108C197.85 215.233 197.651 215.297 197.449 215.286ZM238.701 214.166C238.512 214.167 238.329 214.101 238.189 213.984C238.048 213.866 237.96 213.704 237.941 213.529C237.922 213.354 237.973 213.179 238.086 213.038C238.198 212.896 238.363 212.799 238.548 212.764C238.597 212.764 240.075 212.494 240.119 212.494C240.256 212.495 240.391 212.529 240.508 212.594C240.626 212.659 240.723 212.752 240.788 212.864C240.854 212.975 240.886 213.101 240.881 213.228C240.876 213.355 240.835 213.478 240.761 213.585C240.513 213.95 240.067 213.938 238.823 214.152C238.784 214.165 238.742 214.169 238.701 214.166ZM186.105 213.585C185.812 213.585 182.136 212.755 181.494 212.608C181.393 212.589 181.297 212.551 181.212 212.497C181.127 212.443 181.055 212.374 181 212.293C180.944 212.212 180.907 212.122 180.891 212.027C180.874 211.933 180.878 211.836 180.903 211.743C180.927 211.651 180.972 211.563 181.034 211.487C181.096 211.41 181.174 211.346 181.264 211.299C181.353 211.251 181.452 211.221 181.554 211.209C181.657 211.198 181.76 211.206 181.859 211.233C183.296 211.573 184.731 211.885 186.273 212.183C186.46 212.218 186.626 212.316 186.739 212.459C186.851 212.602 186.902 212.779 186.881 212.955C186.86 213.131 186.768 213.294 186.625 213.41C186.481 213.527 186.296 213.589 186.105 213.585ZM175.021 210.849C174.639 210.849 170.772 209.527 170.456 209.42C170.266 209.354 170.112 209.221 170.027 209.049C169.943 208.878 169.935 208.682 170.006 208.506C170.077 208.329 170.22 208.186 170.405 208.107C170.59 208.029 170.8 208.022 170.991 208.088C172.349 208.569 173.784 209.021 175.25 209.462C175.427 209.511 175.578 209.618 175.677 209.762C175.775 209.907 175.814 210.079 175.786 210.248C175.758 210.417 175.665 210.571 175.525 210.682C175.384 210.792 175.205 210.852 175.021 210.849ZM163.998 206.926C162.577 206.316 161.204 205.679 159.891 205.041C159.711 204.955 159.575 204.805 159.514 204.626C159.452 204.447 159.47 204.252 159.563 204.085C159.656 203.917 159.817 203.791 160.01 203.734C160.204 203.677 160.413 203.694 160.594 203.78C161.922 204.432 163.279 205.055 164.639 205.636C164.731 205.675 164.813 205.731 164.881 205.799C164.949 205.868 165.002 205.948 165.037 206.036C165.071 206.123 165.087 206.216 165.083 206.309C165.079 206.402 165.056 206.494 165.013 206.579C164.971 206.663 164.912 206.739 164.838 206.803C164.764 206.866 164.678 206.915 164.583 206.947C164.489 206.98 164.389 206.994 164.288 206.991C164.188 206.987 164.089 206.965 163.998 206.926ZM153.83 201.796C152.517 201.017 151.235 200.222 150.029 199.416C149.947 199.363 149.878 199.296 149.825 199.218C149.771 199.14 149.735 199.053 149.718 198.962C149.701 198.871 149.703 198.778 149.725 198.688C149.747 198.598 149.788 198.513 149.845 198.438C149.967 198.289 150.145 198.188 150.343 198.157C150.542 198.125 150.746 198.164 150.914 198.267C152.088 199.047 153.311 199.811 154.655 200.606C154.813 200.712 154.922 200.871 154.958 201.049C154.995 201.227 154.956 201.411 154.85 201.564C154.745 201.717 154.58 201.826 154.39 201.869C154.2 201.912 154 201.886 153.83 201.796ZM145.006 195.59C144.825 195.592 144.65 195.531 144.516 195.42C143.387 194.527 142.225 193.592 141.112 192.572C141.04 192.507 140.982 192.429 140.942 192.344C140.902 192.258 140.88 192.165 140.879 192.072C140.878 191.978 140.896 191.885 140.934 191.799C140.971 191.712 141.027 191.633 141.097 191.566C141.235 191.436 141.421 191.361 141.617 191.355C141.814 191.35 142.005 191.414 142.151 191.536C142.761 192.094 144.241 193.343 145.509 194.343C145.629 194.438 145.713 194.564 145.753 194.705C145.792 194.846 145.783 194.994 145.728 195.13C145.673 195.267 145.574 195.384 145.445 195.466C145.316 195.548 145.162 195.591 145.006 195.59ZM136.288 187.882C135.294 186.835 134.319 185.744 133.357 184.596C133.288 184.523 133.236 184.438 133.204 184.346C133.172 184.254 133.161 184.157 133.171 184.06C133.181 183.964 133.213 183.871 133.263 183.786C133.313 183.702 133.382 183.627 133.464 183.568C133.547 183.509 133.642 183.466 133.743 183.443C133.844 183.419 133.949 183.414 134.052 183.43C134.155 183.445 134.253 183.479 134.341 183.531C134.429 183.583 134.504 183.651 134.563 183.731C135.525 184.879 136.5 185.956 137.433 186.948C137.553 187.09 137.61 187.27 137.592 187.45C137.574 187.631 137.482 187.797 137.336 187.917C137.189 188.036 136.999 188.099 136.804 188.093C136.61 188.086 136.425 188.011 136.288 187.882ZM129.937 179.636C129.81 179.639 129.685 179.611 129.573 179.556C129.461 179.502 129.365 179.421 129.296 179.323C128.471 178.134 127.66 176.93 126.883 175.697C126.784 175.536 126.757 175.345 126.809 175.165C126.86 174.986 126.985 174.832 127.157 174.737C127.329 174.642 127.535 174.614 127.729 174.659C127.923 174.703 128.091 174.817 128.196 174.975C128.263 175.037 129.009 176.346 130.576 178.545C130.65 178.652 130.691 178.775 130.696 178.902C130.701 179.029 130.669 179.154 130.603 179.266C130.538 179.377 130.442 179.47 130.324 179.535C130.207 179.6 130.073 179.636 129.937 179.636ZM123.616 169.973C122.891 168.625 122.238 167.244 121.662 165.835C121.66 165.671 121.72 165.512 121.831 165.385C121.942 165.257 122.097 165.169 122.27 165.136C122.442 165.102 122.622 165.126 122.779 165.201C122.935 165.277 123.058 165.401 123.128 165.552C123.706 166.799 124.334 168.074 124.989 169.363C125.043 169.448 125.077 169.542 125.089 169.64C125.102 169.737 125.092 169.836 125.062 169.93C125.031 170.024 124.979 170.111 124.91 170.186C124.841 170.26 124.756 170.321 124.66 170.363C124.565 170.405 124.46 170.429 124.355 170.432C124.249 170.435 124.143 170.417 124.045 170.381C123.947 170.344 123.858 170.288 123.784 170.218C123.71 170.147 123.653 170.065 123.616 169.973ZM119.204 160.068C118.731 158.821 118.257 157.461 117.784 156.044C117.723 155.864 117.742 155.668 117.837 155.501C117.931 155.333 118.093 155.208 118.288 155.151C118.482 155.095 118.693 155.113 118.873 155.2C119.053 155.288 119.189 155.439 119.25 155.619C119.708 156.993 120.166 158.325 120.653 159.599C120.686 159.687 120.7 159.781 120.694 159.874C120.688 159.968 120.663 160.059 120.619 160.143C120.575 160.227 120.514 160.303 120.438 160.365C120.363 160.427 120.275 160.475 120.18 160.505C120.085 160.536 119.984 160.549 119.884 160.544C119.783 160.538 119.685 160.514 119.594 160.474C119.504 160.433 119.422 160.376 119.355 160.306C119.288 160.236 119.237 160.155 119.204 160.067V160.068ZM115.967 149.795C115.746 149.061 114.928 145.676 114.928 145.516C114.927 145.354 114.986 145.198 115.094 145.071C115.203 144.945 115.355 144.857 115.524 144.822C115.723 144.787 115.929 144.824 116.099 144.926C116.269 145.027 116.391 145.185 116.44 145.367C116.44 145.493 117.41 149.347 117.448 149.476C117.473 149.651 117.427 149.828 117.319 149.973C117.211 150.118 117.048 150.221 116.863 150.26C116.678 150.3 116.484 150.274 116.318 150.188C116.152 150.102 116.027 149.961 115.967 149.794V149.795ZM114.379 139.905C114.199 139.904 114.025 139.843 113.888 139.734C113.751 139.625 113.66 139.475 113.631 139.31C113.372 137.907 113.127 136.504 112.929 135.13C112.901 134.944 112.953 134.756 113.073 134.605C113.192 134.454 113.371 134.352 113.57 134.322C113.772 134.301 113.974 134.353 114.136 134.466C114.298 134.579 114.407 134.746 114.44 134.931C114.639 136.219 114.853 137.58 115.126 139.069C115.148 139.171 115.145 139.276 115.118 139.377C115.09 139.478 115.039 139.572 114.968 139.652C114.896 139.732 114.806 139.796 114.704 139.839C114.602 139.883 114.491 139.906 114.379 139.905ZM112.868 129.348C112.677 129.348 112.494 129.281 112.355 129.16C112.216 129.039 112.132 128.873 112.12 128.697C111.982 127.351 111.86 125.962 111.769 124.473C111.757 124.285 111.826 124.1 111.96 123.959C112.095 123.819 112.285 123.733 112.487 123.722C112.689 123.711 112.888 123.775 113.04 123.9C113.192 124.025 113.283 124.201 113.295 124.389C113.372 125.764 113.494 127.166 113.631 128.569C113.642 128.668 113.63 128.767 113.596 128.862C113.563 128.956 113.508 129.042 113.436 129.116C113.364 129.189 113.276 129.247 113.178 129.287C113.081 129.327 112.975 129.348 112.868 129.347V129.348ZM112.303 118.707C112.101 118.705 111.909 118.629 111.766 118.497C111.624 118.364 111.542 118.186 111.54 117.999C111.492 117.148 111.561 114.598 111.585 113.748C111.593 113.565 111.677 113.392 111.82 113.265C111.962 113.138 112.152 113.067 112.349 113.068C112.553 113.07 112.748 113.147 112.891 113.282C113.034 113.417 113.113 113.599 113.112 113.789C113.08 116.026 113.051 116.575 113.051 117.999C113.051 118.184 112.972 118.362 112.832 118.494C112.693 118.626 112.503 118.703 112.303 118.707ZM112.685 108.064C112.486 108.044 112.304 107.953 112.176 107.811C112.048 107.668 111.984 107.486 111.998 107.301C112.134 105.841 112.303 104.424 112.486 103.078C112.513 102.89 112.618 102.72 112.78 102.604C112.86 102.547 112.952 102.505 113.049 102.48C113.147 102.456 113.249 102.45 113.349 102.462C113.449 102.474 113.546 102.504 113.633 102.551C113.721 102.598 113.798 102.66 113.86 102.734C113.921 102.809 113.967 102.893 113.993 102.984C114.019 103.075 114.026 103.169 114.013 103.262C113.815 104.579 113.66 105.939 113.524 107.428C113.498 107.613 113.396 107.782 113.24 107.9C113.084 108.018 112.886 108.078 112.685 108.064ZM113.616 96.6875C114.186 93.9825 114.593 92.6775 114.593 92.5344C114.646 92.3529 114.773 92.1975 114.946 92.1001C115.12 92.0028 115.327 91.9711 115.524 92.0115C115.721 92.0587 115.891 92.1756 115.996 92.337C116.102 92.4985 116.135 92.6919 116.089 92.8759C115.708 94.2928 115.402 95.6248 115.112 96.9553C115.064 97.1303 114.945 97.2816 114.781 97.3782C114.617 97.4748 114.419 97.5094 114.227 97.4751C114.036 97.4407 113.867 97.3398 113.753 97.1932C113.639 97.0465 113.59 96.8665 113.616 96.6875ZM117.218 87.2208C117.098 87.2211 116.979 87.1953 116.872 87.1453C116.765 87.0953 116.672 87.0226 116.601 86.933C116.53 86.8434 116.482 86.7395 116.462 86.6298C116.442 86.52 116.451 86.4074 116.486 86.3011C116.96 84.9409 117.448 83.5806 117.981 82.277C118.049 82.1283 118.17 82.0057 118.323 81.9294C118.476 81.8531 118.653 81.8277 118.824 81.8575C118.995 81.8873 119.15 81.9704 119.263 82.0931C119.377 82.2157 119.441 82.3706 119.447 82.532C119.447 82.8395 119.163 83.1569 117.937 86.7262C117.89 86.8691 117.794 86.9941 117.665 87.0829C117.535 87.1717 117.379 87.2209 117.218 87.2208ZM120.639 76.2818C121.28 74.991 121.925 73.6888 122.639 72.456C122.738 72.2925 122.901 72.1704 123.094 72.1151C123.287 72.0597 123.496 72.0752 123.677 72.1585C123.852 72.2447 123.984 72.39 124.047 72.5644C124.11 72.7388 124.097 72.9288 124.013 73.0951C123.86 73.2368 122.422 76.0707 122.028 76.8784C121.943 77.0493 121.788 77.1819 121.598 77.2469C121.407 77.3118 121.197 77.3039 121.012 77.2248C120.828 77.1457 120.685 77.0019 120.615 76.8251C120.545 76.6482 120.554 76.4528 120.639 76.2818ZM126.074 66.8023C126.883 65.6107 127.722 64.4077 128.578 63.2443C128.671 63.1212 128.803 63.0286 128.956 62.9798C129.109 62.931 129.275 62.9286 129.429 62.9729C129.584 63.0172 129.719 63.1059 129.816 63.2262C129.913 63.3466 129.966 63.4924 129.967 63.6425C129.967 64.0988 129.766 63.9557 127.387 67.5519C127.28 67.7135 127.108 67.829 126.909 67.873C126.71 67.917 126.501 67.8858 126.327 67.7864C126.153 67.687 126.028 67.5275 125.981 67.3429C125.934 67.1584 125.967 66.9639 126.074 66.8023ZM133.341 59.1777C133.198 59.1771 133.059 59.1393 132.938 59.0686C132.817 58.9978 132.719 58.897 132.657 58.7775C132.595 58.658 132.57 58.5247 132.586 58.3928C132.601 58.2609 132.656 58.1357 132.744 58.0313C133.677 56.9544 134.67 55.862 135.708 54.7865C135.811 54.6819 135.946 54.6081 136.094 54.5744C136.243 54.5407 136.399 54.5486 136.543 54.5971C136.686 54.6456 136.811 54.7326 136.902 54.847C136.992 54.9614 137.044 55.0981 137.051 55.2399C137.051 55.6834 137.051 55.3986 133.937 58.9099C133.866 58.9936 133.776 59.0613 133.673 59.1077C133.569 59.1542 133.456 59.1781 133.341 59.1777ZM140.563 50.0963C141.693 49.1045 142.838 48.1409 143.967 47.2341C144.078 47.1493 144.211 47.095 144.353 47.0773C144.494 47.0595 144.639 47.0791 144.769 47.1337C144.899 47.1884 145.011 47.2759 145.09 47.3863C145.169 47.4968 145.214 47.6257 145.218 47.7584C145.259 48.2897 145.044 48.0843 141.632 51.1166C141.486 51.2481 141.29 51.3205 141.086 51.3178C140.883 51.3152 140.689 51.2377 140.548 51.1024C140.406 50.9671 140.328 50.7851 140.331 50.5964C140.334 50.4078 140.417 50.2279 140.563 50.0963ZM149.477 43.2099C150.729 42.3546 152.035 41.5692 153.387 40.8578C153.478 40.8026 153.58 40.7659 153.687 40.7501C153.793 40.7342 153.903 40.7397 154.007 40.766C154.111 40.7924 154.209 40.839 154.292 40.9028C154.376 40.9667 154.444 41.0462 154.491 41.1363C154.539 41.2263 154.566 41.3248 154.57 41.4251C154.573 41.5255 154.554 41.6254 154.513 41.7183C154.472 41.8112 154.41 41.895 154.332 41.9641C154.253 42.0331 154.16 42.0859 154.058 42.1189C153.006 42.6856 151.693 43.4791 150.363 44.3562C150.199 44.4448 150.005 44.4733 149.819 44.4364C149.634 44.3995 149.47 44.2997 149.359 44.1565C149.248 44.0133 149.199 43.837 149.221 43.662C149.243 43.4869 149.334 43.3258 149.477 43.2099Z" fill="#000001"/>
<path d="M249.095 151.679C248.69 151.679 245.64 150.847 245.173 150.715C245.076 150.69 244.985 150.647 244.906 150.589C244.827 150.532 244.762 150.459 244.713 150.378C244.665 150.296 244.635 150.206 244.624 150.113C244.614 150.02 244.624 149.926 244.654 149.836C244.717 149.658 244.853 149.509 245.032 149.421C245.212 149.334 245.421 149.315 245.615 149.369C246.927 149.736 248.196 150.063 249.203 150.274C249.388 150.306 249.553 150.4 249.667 150.538C249.782 150.676 249.838 150.848 249.824 151.021C249.811 151.195 249.729 151.358 249.595 151.479C249.46 151.6 249.282 151.671 249.095 151.679ZM238.837 148.575C237.313 148.064 235.82 147.478 234.363 146.818C234.27 146.78 234.187 146.725 234.117 146.656C234.047 146.588 233.993 146.507 233.957 146.418C233.922 146.33 233.906 146.236 233.91 146.141C233.914 146.047 233.939 145.954 233.982 145.869C234.026 145.785 234.087 145.71 234.162 145.648C234.238 145.587 234.325 145.539 234.42 145.509C234.515 145.479 234.616 145.466 234.716 145.472C234.816 145.478 234.915 145.502 235.005 145.543C236.348 146.124 237.738 146.691 239.127 147.215C239.288 147.279 239.421 147.392 239.503 147.536C239.585 147.679 239.611 147.845 239.577 148.004C239.543 148.164 239.451 148.308 239.316 148.412C239.181 148.516 239.012 148.573 238.837 148.575ZM228.134 143.8C226.776 143.063 225.458 142.328 224.249 141.547C224.165 141.497 224.092 141.431 224.035 141.354C223.978 141.277 223.938 141.191 223.917 141.1C223.896 141.009 223.894 140.914 223.913 140.823C223.931 140.731 223.968 140.644 224.023 140.565C224.078 140.487 224.148 140.42 224.231 140.367C224.314 140.314 224.407 140.277 224.505 140.257C224.603 140.238 224.705 140.236 224.804 140.253C224.902 140.27 224.997 140.305 225.081 140.356C226.333 141.136 227.615 141.873 228.913 142.582C229.083 142.679 229.206 142.835 229.254 143.015C229.301 143.196 229.271 143.386 229.169 143.546C229.067 143.706 228.901 143.822 228.708 143.87C228.514 143.917 228.308 143.892 228.134 143.8ZM219.081 137.835C218.906 137.834 218.737 137.774 218.608 137.665C217.402 136.744 216.26 135.789 215.172 134.845C215.09 134.784 215.022 134.708 214.973 134.622C214.924 134.536 214.894 134.441 214.886 134.343C214.878 134.246 214.892 134.148 214.927 134.056C214.962 133.964 215.017 133.879 215.088 133.808C215.16 133.736 215.247 133.679 215.343 133.64C215.44 133.601 215.544 133.582 215.649 133.582C215.755 133.582 215.859 133.603 215.955 133.642C216.051 133.681 216.138 133.739 216.209 133.811C217.264 134.744 218.394 135.681 219.568 136.572C219.693 136.664 219.783 136.79 219.826 136.933C219.87 137.075 219.865 137.226 219.811 137.365C219.757 137.504 219.658 137.624 219.527 137.709C219.396 137.793 219.24 137.837 219.081 137.835ZM210.363 130.07C209.386 128.979 208.455 127.831 207.569 126.669C207.498 126.546 207.451 126.411 207.43 126.272C207.434 126.123 207.487 125.979 207.582 125.859C207.678 125.74 207.811 125.65 207.963 125.604C208.115 125.557 208.28 125.555 208.433 125.599C208.587 125.643 208.722 125.729 208.82 125.847C208.972 125.978 209.568 126.965 211.539 129.177C211.643 129.324 211.685 129.501 211.657 129.674C211.629 129.848 211.532 130.005 211.386 130.116C211.239 130.228 211.054 130.284 210.865 130.276C210.676 130.267 210.497 130.194 210.363 130.07ZM204.621 121.469C204.482 121.472 204.344 121.437 204.226 121.369C204.107 121.301 204.011 121.203 203.951 121.086C203.232 119.811 202.591 118.506 202.012 117.204C201.973 117.118 201.952 117.026 201.952 116.934C201.951 116.841 201.971 116.749 202.009 116.663C202.048 116.577 202.104 116.499 202.175 116.434C202.247 116.369 202.331 116.317 202.424 116.283C202.612 116.217 202.821 116.221 203.006 116.294C203.191 116.368 203.338 116.506 203.415 116.678C203.995 117.969 204.621 119.244 205.295 120.435C205.355 120.542 205.384 120.662 205.38 120.784C205.375 120.905 205.338 121.023 205.27 121.127C205.203 121.231 205.107 121.317 204.994 121.376C204.88 121.436 204.752 121.468 204.621 121.469ZM200.516 111.564C200.346 111.567 200.18 111.516 200.045 111.421C199.909 111.326 199.812 111.192 199.768 111.04C199.412 109.765 198.76 107.002 198.76 106.759C198.752 106.581 198.816 106.406 198.941 106.27C199.065 106.134 199.241 106.046 199.432 106.025C199.623 106.004 199.815 106.05 199.971 106.155C200.127 106.26 200.234 106.416 200.272 106.591C200.509 107.968 200.835 109.331 201.249 110.672C201.279 110.776 201.283 110.886 201.261 110.992C201.238 111.099 201.19 111.199 201.119 111.285C201.048 111.371 200.957 111.441 200.852 111.49C200.748 111.538 200.633 111.564 200.516 111.564ZM197.936 100.413C197.783 97.5874 197.844 96.6961 197.844 96.1322C197.848 95.9443 197.933 95.7657 198.079 95.6356C198.225 95.5055 198.421 95.4346 198.623 95.4386C198.826 95.4425 199.018 95.521 199.159 95.6566C199.299 95.7923 199.375 95.974 199.371 96.1619C199.371 96.8704 199.302 97.5477 199.462 100.314C199.469 100.407 199.457 100.5 199.425 100.589C199.393 100.677 199.343 100.759 199.277 100.829C199.143 100.971 198.955 101.059 198.753 101.072C198.55 101.085 198.35 101.023 198.197 100.899C198.044 100.776 197.95 100.601 197.936 100.413ZM199.094 90.4516C198.894 90.4182 198.715 90.314 198.595 90.1607C198.476 90.0074 198.425 89.8171 198.453 89.6297C198.713 88.2128 199.033 86.7958 199.401 85.4483C199.458 85.2665 199.588 85.1119 199.764 85.0171C199.941 84.9223 200.15 84.8945 200.348 84.9396C200.541 84.9894 200.706 85.1078 200.806 85.2693C200.906 85.4308 200.933 85.6224 200.882 85.8025C200.516 87.1217 200.211 88.482 199.966 89.8565C199.951 89.9488 199.917 90.0374 199.865 90.1173C199.813 90.1973 199.745 90.2669 199.664 90.3222C199.583 90.3775 199.491 90.4174 199.393 90.4396C199.295 90.4618 199.194 90.4659 199.094 90.4516ZM202.409 80.2636C202.282 80.2643 202.157 80.2355 202.045 80.1798C201.933 80.1241 201.837 80.0434 201.767 79.9448C201.697 79.8463 201.655 79.7331 201.644 79.6156C201.633 79.4981 201.654 79.3799 201.705 79.2718C202.316 77.9682 203.004 76.6787 203.753 75.4318C203.858 75.279 204.022 75.1694 204.211 75.1254C204.4 75.0815 204.601 75.1065 204.771 75.1955C204.941 75.2844 205.068 75.4304 205.125 75.6035C205.183 75.7766 205.167 75.9636 205.081 76.1261C202.986 79.5962 203.267 80.2636 202.409 80.2636ZM208.226 71.1242C208.085 71.1216 207.948 71.0831 207.83 71.0129C207.712 70.9427 207.616 70.8435 207.555 70.7263C207.493 70.6091 207.468 70.4784 207.481 70.3486C207.494 70.2188 207.546 70.095 207.63 69.9907C208.562 68.8713 209.559 67.7844 210.592 66.7316C210.734 66.595 210.925 66.5132 211.129 66.5027C211.333 66.4922 211.533 66.5537 211.69 66.675C211.836 66.8016 211.923 66.9764 211.932 67.1619C211.941 67.3474 211.871 67.5287 211.737 67.6668C208.641 70.8026 208.919 71.1242 208.226 71.1242ZM216.18 63.4585C216.025 63.4573 215.873 63.4121 215.746 63.3289C215.619 63.2457 215.522 63.1284 215.469 62.9928C215.416 62.8572 215.408 62.7097 215.448 62.5701C215.487 62.4304 215.572 62.3053 215.69 62.2115C216.347 61.6915 219.185 59.5618 219.34 59.5618C219.502 59.4528 219.704 59.408 219.902 59.4373C220.1 59.4665 220.276 59.5674 220.394 59.7177C220.511 59.868 220.56 60.0555 220.528 60.2388C220.497 60.4222 220.388 60.5864 220.226 60.6954C220.217 60.7025 220.211 60.7126 220.209 60.7237C220.18 60.7379 220.165 60.7521 220.134 60.7648C216.516 63.219 216.727 63.4585 216.18 63.4585ZM225.57 57.3372C225.403 57.3356 225.241 57.2835 225.11 57.1888C224.978 57.0941 224.883 56.962 224.84 56.8127C224.797 56.6633 224.807 56.505 224.87 56.3618C224.933 56.2185 225.045 56.0983 225.188 56.0194C226.501 55.3109 227.858 54.6138 229.234 53.9776C229.349 53.9277 229.476 53.9051 229.604 53.9119C229.731 53.9187 229.855 53.9547 229.963 54.0165C230.072 54.0784 230.162 54.1643 230.227 54.2665C230.291 54.3688 230.327 54.4842 230.331 54.6024C230.336 54.736 230.3 54.868 230.227 54.9834C230.155 55.0987 230.048 55.1926 229.921 55.2542C226.389 56.8724 226.053 57.3372 225.57 57.3372ZM235.646 51.3293C236.51 51.0232 239.866 49.9265 240.073 49.9265C240.267 49.8891 240.469 49.9206 240.638 50.0149C240.808 50.1091 240.933 50.2591 240.99 50.4352C241.041 50.6157 241.014 50.808 240.914 50.9701C240.814 51.1323 240.649 51.2512 240.455 51.3009C240.275 51.3803 238.962 51.6594 236.211 52.6612C236.021 52.7307 235.808 52.7272 235.621 52.6515C235.433 52.5758 235.286 52.434 235.211 52.2574C235.136 52.0807 235.14 51.8837 235.221 51.7097C235.303 51.5356 235.456 51.3988 235.646 51.3293Z" fill="#000001"/>
<path d="M348.411 161.852C348.637 161.347 348.564 161.681 352.732 159.428C352.848 159.362 352.981 159.327 353.117 159.325C353.253 159.323 353.387 159.355 353.505 159.417C353.623 159.479 353.722 159.57 353.79 159.679C353.858 159.788 353.893 159.913 353.892 160.039C353.893 160.161 353.859 160.281 353.795 160.388C353.731 160.495 353.638 160.584 353.525 160.648C352.151 161.399 350.793 162.093 349.495 162.717C349.358 162.778 349.205 162.802 349.055 162.784C348.904 162.765 348.762 162.707 348.647 162.615C348.532 162.523 348.448 162.402 348.406 162.267C348.364 162.131 348.366 161.987 348.411 161.852ZM358.196 156.383C358.284 155.863 358.551 156.042 362.09 153.407C362.203 153.321 362.339 153.266 362.484 153.25C362.628 153.233 362.775 153.255 362.906 153.314C363.038 153.372 363.149 153.464 363.226 153.579C363.303 153.693 363.343 153.826 363.341 153.961C363.341 154.066 363.315 154.169 363.265 154.262C363.215 154.356 363.142 154.437 363.052 154.5C361.846 155.405 360.625 156.269 359.388 157.093C359.264 157.175 359.116 157.22 358.964 157.224C358.812 157.227 358.662 157.188 358.533 157.112C358.405 157.036 358.304 156.925 358.244 156.795C358.184 156.666 358.167 156.522 358.196 156.383ZM367.251 149.185C368.335 148.221 369.388 147.215 370.396 146.194C370.538 146.062 370.728 145.985 370.929 145.977C371.13 145.969 371.326 146.032 371.48 146.153C371.627 146.282 371.714 146.459 371.723 146.647C371.731 146.835 371.66 147.018 371.526 147.159C370.518 148.179 369.434 149.212 368.319 150.205C368.174 150.337 367.978 150.409 367.774 150.406C367.571 150.404 367.377 150.326 367.235 150.191C367.094 150.056 367.016 149.874 367.019 149.685C367.021 149.496 367.105 149.316 367.251 149.185ZM375.388 142.425C375.247 142.427 375.109 142.392 374.988 142.324C374.868 142.257 374.77 142.159 374.706 142.043C374.643 141.926 374.616 141.795 374.628 141.665C374.641 141.535 374.692 141.411 374.778 141.307C375.663 140.215 376.516 139.052 377.341 137.876C377.457 137.722 377.632 137.614 377.83 137.575C378.029 137.536 378.236 137.568 378.41 137.665C378.574 137.77 378.689 137.931 378.728 138.113C378.768 138.295 378.731 138.484 378.623 138.641C377.814 139.817 376.929 140.995 375.996 142.143C375.927 142.232 375.836 142.305 375.73 142.354C375.624 142.403 375.507 142.427 375.388 142.425ZM380.701 132.89C380.481 132.4 380.877 132.4 382.594 128.568C382.662 128.419 382.783 128.297 382.936 128.22C383.09 128.144 383.267 128.119 383.438 128.149C383.609 128.178 383.764 128.261 383.877 128.384C383.99 128.507 384.055 128.662 384.06 128.823C383.507 130.25 382.854 131.642 382.104 132.989C382.036 133.113 381.929 133.215 381.798 133.284C381.667 133.352 381.517 133.382 381.367 133.372C381.217 133.361 381.074 133.31 380.956 133.224C380.837 133.138 380.749 133.022 380.701 132.89ZM384.884 123.099C384.579 122.659 384.962 122.569 385.86 118.522C385.896 118.349 385.999 118.195 386.151 118.089C386.302 117.984 386.49 117.934 386.679 117.95C386.867 117.966 387.043 118.046 387.171 118.175C387.299 118.305 387.371 118.474 387.373 118.649C387.373 119.074 386.524 122.151 386.289 122.941C386.249 123.077 386.167 123.199 386.052 123.292C385.937 123.384 385.795 123.442 385.644 123.459C385.493 123.476 385.34 123.451 385.205 123.386C385.07 123.322 384.958 123.222 384.884 123.099ZM387.526 113.01C387.327 112.989 387.145 112.898 387.017 112.755C386.889 112.613 386.825 112.43 386.839 112.245C386.976 110.87 387.052 109.467 387.083 108.079C387.087 107.891 387.171 107.712 387.317 107.582C387.463 107.452 387.659 107.381 387.862 107.384C388.064 107.388 388.257 107.466 388.397 107.602C388.537 107.738 388.614 107.919 388.61 108.107C388.579 109.552 388.488 110.984 388.349 112.358C388.341 112.451 388.313 112.542 388.268 112.625C388.222 112.708 388.16 112.782 388.083 112.843C388.007 112.903 387.918 112.949 387.822 112.978C387.727 113.006 387.626 113.017 387.526 113.01ZM386.93 101.702C386.839 100.314 386.701 98.9096 386.533 97.5493C386.511 97.3614 386.571 97.1731 386.698 97.0257C386.826 96.8784 387.011 96.7841 387.214 96.7636C387.416 96.7431 387.619 96.7981 387.778 96.9165C387.936 97.0349 388.038 97.207 388.06 97.3949C388.228 98.741 388.365 100.172 388.457 101.617C388.469 101.805 388.4 101.99 388.266 102.131C388.131 102.272 387.942 102.357 387.739 102.368C387.537 102.38 387.338 102.316 387.186 102.191C387.035 102.066 386.942 101.89 386.93 101.702ZM386.197 91.8248C386.024 91.8256 385.855 91.7714 385.719 91.6712C385.583 91.571 385.488 91.4308 385.449 91.2736C385.158 89.9275 384.793 88.5672 384.394 87.2197C384.338 87.0395 384.361 86.846 384.459 86.6815C384.556 86.5171 384.719 86.3952 384.913 86.3426C385.11 86.2962 385.318 86.3219 385.494 86.4143C385.67 86.5067 385.801 86.6586 385.86 86.8385C386.259 88.1705 386.623 89.5733 386.944 90.9761C386.969 91.079 386.968 91.1858 386.942 91.2885C386.916 91.3911 386.865 91.4869 386.793 91.5686C386.721 91.6504 386.63 91.7159 386.527 91.7603C386.424 91.8046 386.311 91.8267 386.197 91.8248ZM382.197 81.1976C381.648 79.9096 381.022 78.6343 380.381 77.4016C380.334 77.3191 380.305 77.2288 380.297 77.136C380.288 77.0432 380.3 76.9498 380.331 76.8612C380.363 76.7727 380.413 76.6908 380.478 76.6206C380.544 76.5503 380.625 76.4931 380.715 76.4522C380.899 76.3764 381.106 76.3679 381.296 76.4284C381.486 76.4888 381.645 76.6138 381.739 76.7781C382.411 78.025 383.037 79.3428 383.617 80.6747C383.654 80.7613 383.673 80.8537 383.671 80.9468C383.67 81.0399 383.648 81.1318 383.609 81.2172C383.569 81.3027 383.511 81.38 383.439 81.4449C383.367 81.5097 383.282 81.5607 383.189 81.5951C383.096 81.6294 382.996 81.6463 382.896 81.6449C382.796 81.6435 382.697 81.6238 382.605 81.5869C382.512 81.55 382.429 81.4966 382.359 81.4298C382.289 81.363 382.234 81.2841 382.197 81.1976ZM377.617 72.2155C376.854 72.2155 377.092 71.7266 374.365 68.5314C374.302 68.4593 374.255 68.3761 374.227 68.2869C374.198 68.1976 374.19 68.104 374.201 68.0115C374.212 67.9191 374.244 67.8297 374.293 67.7486C374.342 67.6676 374.408 67.5965 374.487 67.5395C374.646 67.4237 374.847 67.3706 375.047 67.3918C375.247 67.413 375.43 67.5069 375.556 67.6529C376.518 68.7723 377.42 69.9483 378.26 71.1244C378.334 71.2315 378.376 71.355 378.38 71.4822C378.385 71.6093 378.353 71.7353 378.287 71.8469C378.222 71.9585 378.125 72.0516 378.007 72.1165C377.889 72.1813 377.754 72.2155 377.617 72.2155ZM370.35 64.0098C369.712 64.0098 369.927 63.6684 366.487 61.0215C366.406 60.961 366.339 60.8858 366.291 60.8004C366.242 60.7151 366.213 60.6214 366.204 60.5251C366.196 60.4289 366.209 60.332 366.243 60.2406C366.276 60.1492 366.33 60.0651 366.399 59.9935C366.469 59.922 366.554 59.8644 366.649 59.8243C366.744 59.7843 366.846 59.7627 366.95 59.7607C367.054 59.7588 367.157 59.7766 367.254 59.8131C367.35 59.8496 367.437 59.904 367.51 59.9729C368.655 60.8514 369.785 61.8008 370.884 62.7927C370.989 62.8928 371.059 63.019 371.088 63.1557C371.116 63.2924 371.101 63.4339 371.044 63.5628C370.988 63.6918 370.892 63.8027 370.769 63.882C370.645 63.9614 370.5 64.0058 370.35 64.0098ZM361.371 57.3799C360.817 57.3799 360.973 57.0965 357.083 55.1694L357.067 55.1538C356.951 55.093 356.855 55.0047 356.788 54.8979C356.721 54.791 356.686 54.6696 356.686 54.546C356.687 54.4247 356.721 54.3056 356.785 54.2002C356.85 54.0947 356.943 54.0064 357.054 53.9437C357.166 53.881 357.294 53.846 357.424 53.842C357.555 53.8381 357.684 53.8653 357.8 53.9211C359.142 54.5729 360.486 55.3111 361.785 56.0763C361.923 56.1592 362.029 56.2815 362.087 56.4249C362.144 56.5682 362.15 56.7249 362.103 56.8716C362.057 57.0183 361.96 57.147 361.828 57.2386C361.696 57.3302 361.536 57.3798 361.371 57.3799ZM351.113 52.6047C350.867 52.6047 349.626 52.0379 346.625 51.3153C346.52 51.3029 346.421 51.2683 346.333 51.2143C346.246 51.1602 346.173 51.0881 346.121 51.0035C346.04 50.8864 345.998 50.7497 346 50.6105C346.002 50.4714 346.049 50.3359 346.133 50.221C346.218 50.1061 346.337 50.017 346.476 49.9646C346.615 49.9123 346.768 49.8991 346.915 49.9267C348.436 50.2657 349.93 50.7012 351.386 51.2303C351.556 51.2874 351.699 51.3986 351.789 51.5441C351.879 51.6896 351.91 51.86 351.877 52.0249C351.844 52.1898 351.75 52.3386 351.61 52.4448C351.47 52.5509 351.294 52.6076 351.113 52.6047Z" fill="#000001"/>
<path d="M158.617 29.3879C158.617 32.3417 159.244 35.2666 160.462 37.9955C161.68 40.7245 163.465 43.2041 165.716 45.2927C167.966 47.3814 170.638 49.0382 173.578 50.1686C176.518 51.2989 179.67 51.8807 182.853 51.8807C186.035 51.8807 189.187 51.2989 192.127 50.1686C195.067 49.0382 197.739 47.3814 199.989 45.2927C202.24 43.2041 204.025 40.7245 205.243 37.9955C206.461 35.2666 207.088 32.3417 207.088 29.3879C207.088 26.4341 206.461 23.5092 205.243 20.7802C204.025 18.0513 202.24 15.5717 199.989 13.483C197.739 11.3944 195.067 9.73756 192.127 8.60719C189.187 7.47681 186.035 6.89502 182.853 6.89502C179.67 6.89502 176.518 7.47681 173.578 8.60719C170.638 9.73756 167.966 11.3944 165.716 13.483C163.465 15.5717 161.68 18.0513 160.462 20.7802C159.244 23.5092 158.617 26.4341 158.617 29.3879Z" fill="#81F889"/>
<path d="M207.011 29.6556H189.962C189.996 25.8948 189.712 22.1374 189.113 18.4177C193.066 17.6833 196.708 15.9131 199.61 13.3166C199.745 13.1764 199.814 12.9923 199.802 12.8047C199.791 12.6171 199.7 12.4414 199.549 12.3162C199.398 12.1911 199.199 12.1268 198.997 12.1374C198.795 12.148 198.606 12.2327 198.471 12.3729C195.79 14.7082 192.466 16.3112 188.866 17.005C187.654 10.7873 185.463 6.14111 182.385 6.14111C179.352 6.14111 177.181 10.6655 175.959 16.7527C172.786 15.8264 169.843 14.322 167.304 12.3276C167.232 12.259 167.146 12.2047 167.051 12.1679C166.955 12.1311 166.853 12.1126 166.75 12.1136C166.647 12.1145 166.545 12.1348 166.45 12.1734C166.356 12.2119 166.271 12.2677 166.2 12.3376C166.13 12.4075 166.075 12.4899 166.04 12.5799C166.005 12.6699 165.989 12.7656 165.995 12.8612C166.001 12.9568 166.027 13.0503 166.073 13.1362C166.119 13.222 166.183 13.2983 166.261 13.3605C169.007 15.5657 172.223 17.2075 175.7 18.1782C175.072 21.9757 174.774 25.8138 174.81 29.6556H158.806C158.604 29.6556 158.41 29.7302 158.267 29.8631C158.123 29.996 158.043 30.1762 158.043 30.3641C158.043 30.552 158.123 30.7322 158.267 30.8651C158.41 30.9979 158.604 31.0726 158.806 31.0726H174.837C174.91 34.2887 175.222 37.4963 175.771 40.6725C172.27 41.6418 169.031 43.2902 166.267 45.5086C166.191 45.5714 166.13 45.6478 166.086 45.7331C166.042 45.8184 166.017 45.911 166.012 46.0054C166.008 46.0998 166.024 46.1942 166.059 46.2828C166.094 46.3715 166.148 46.4528 166.218 46.5218C166.287 46.5908 166.371 46.6462 166.464 46.6847C166.557 46.7232 166.657 46.7441 166.759 46.7461C166.861 46.748 166.962 46.7311 167.057 46.6962C167.151 46.6613 167.238 46.6092 167.31 46.543C169.871 44.5314 172.842 43.0183 176.046 42.0937C177.28 47.9911 179.42 52.3355 182.391 52.3355C185.404 52.3355 187.564 47.8735 188.79 41.85C192.417 42.5444 195.769 44.1518 198.478 46.4962C198.614 46.6342 198.803 46.7169 199.004 46.7263C199.205 46.7358 199.402 46.6712 199.552 46.5466C199.702 46.422 199.792 46.2475 199.804 46.0611C199.816 45.8747 199.749 45.6914 199.616 45.5511C196.696 42.9418 193.029 41.1671 189.052 40.4387C189.576 37.3377 189.875 34.2078 189.947 31.0697H207.011C207.214 31.0697 207.408 30.9951 207.551 30.8622C207.694 30.7294 207.775 30.5491 207.775 30.3612C207.775 30.1733 207.694 29.9931 207.551 29.8603C207.408 29.7274 207.214 29.6528 207.011 29.6528V29.6556ZM182.385 7.56091C184.228 7.56091 186.202 11.262 187.379 17.2954C184.086 17.9012 180.691 17.8466 177.422 17.1353C178.602 11.194 180.558 7.56091 182.385 7.56091ZM177.159 18.5452C180.602 19.2716 184.17 19.3233 187.636 18.6968C188.209 22.3249 188.476 25.9889 188.434 29.6556H176.338C176.295 25.9378 176.569 22.2227 177.159 18.5452ZM182.385 50.9185C180.596 50.9185 178.68 47.4441 177.5 41.7225C180.722 41.0279 184.067 40.9757 187.313 41.5694C186.123 47.3804 184.196 50.9185 182.385 50.9185ZM187.576 40.1666C184.155 39.5545 180.635 39.6027 177.235 40.3083C176.717 37.2505 176.427 34.1632 176.365 31.0683H188.419C188.356 34.1153 188.073 37.155 187.57 40.1666H187.576Z" fill="white"/>
<path d="M182.852 52.5887C177.908 52.5887 173.075 51.228 168.964 48.6786C164.853 46.1292 161.649 42.5056 159.756 38.2662C157.864 34.0267 157.369 29.3616 158.334 24.861C159.298 20.3604 161.679 16.2263 165.175 12.9816C168.672 9.73679 173.126 7.52708 177.975 6.63185C182.824 5.73662 187.851 6.19609 192.419 7.95214C196.987 9.7082 200.891 12.682 203.638 16.4974C206.385 20.3129 207.851 24.7986 207.851 29.3874C207.843 35.5386 205.207 41.4358 200.52 45.7853C195.834 50.1349 189.48 52.5816 182.852 52.5887ZM182.852 7.60301C178.21 7.60301 173.672 8.88064 169.812 11.2743C165.952 13.668 162.943 17.0703 161.167 21.0509C159.39 25.0314 158.926 29.4116 159.831 33.6373C160.737 37.8631 162.972 41.7447 166.255 44.7913C169.538 47.8379 173.72 49.9126 178.273 50.7532C182.826 51.5937 187.546 51.1623 191.835 49.5135C196.123 47.8647 199.789 45.0726 202.368 41.4901C204.948 37.9077 206.324 33.6959 206.324 29.3874C206.318 23.6117 203.843 18.0742 199.442 13.9901C195.042 9.90607 189.075 7.60901 182.852 7.60301Z" fill="#000001"/>
<path fill-rule="evenodd" clip-rule="evenodd" d="M254.634 186.201C254.893 181.314 257.382 179.226 257.394 167.515C257.394 155.711 272.389 150.384 275.409 149.624C278.058 148.958 283.379 145.298 284.666 144.394C285.134 143.515 285.786 142.731 286.585 142.089L305.878 140.13C306.711 140.795 307.316 141.671 307.622 142.65C310.684 145.368 314.106 147.713 317.807 149.628C322.498 151.713 331.988 152.488 335.456 161.841C338.923 171.194 338.828 174.762 340.969 179.793C342.848 184.213 351.26 199.306 345.836 203.184C340.411 207.062 332.802 205.287 332.802 205.287L325.932 203.184L317.813 186.322C249.766 186.323 254.624 186.383 254.634 186.201Z" fill="#81F889"/>
<path fill-rule="evenodd" clip-rule="evenodd" d="M287.376 143.038C283.923 139.843 284.379 136.964 283.195 133.261C282.073 129.754 284.176 125.144 284.176 125.144C282.216 116.432 285.436 112.311 285.436 112.311C285.436 112.311 290.435 105.135 301.688 107.57C303.915 107.992 305.97 108.988 307.615 110.443C309.261 111.899 310.431 113.755 310.992 115.8C311.99 118.815 310.661 125.601 309.99 128.694C310.29 128.564 310.615 128.493 310.945 128.485C311.275 128.476 311.604 128.532 311.91 128.647C312.217 128.762 312.494 128.935 312.725 129.154C312.956 129.373 313.136 129.635 313.253 129.921C314.235 132.087 310.722 136.499 306.966 136.709C306.775 137.309 306.54 137.897 306.262 138.467C305.316 146.792 306.948 149.619 302.887 153.398C300.471 155.648 295.048 160.314 295.048 160.314C287.98 155.151 287.376 146.011 287.376 143.038Z" fill="white"/>
<path d="M284.875 123.22C284.717 123.22 284.562 123.175 284.433 123.09C284.304 123.005 284.207 122.885 284.154 122.746C284.102 122.607 284.097 122.457 284.141 122.316C284.185 122.174 284.275 122.049 284.399 121.958C284.539 121.854 287.883 119.428 291.051 121.391C291.134 121.443 291.206 121.509 291.262 121.586C291.317 121.664 291.356 121.75 291.376 121.842C291.396 121.933 291.396 122.027 291.376 122.118C291.357 122.209 291.318 122.296 291.262 122.374C291.207 122.451 291.135 122.517 291.052 122.569C290.969 122.621 290.875 122.657 290.777 122.675C290.678 122.693 290.577 122.694 290.479 122.675C290.38 122.657 290.287 122.621 290.204 122.57C287.949 121.171 285.376 123.052 285.35 123.07C285.215 123.169 285.047 123.222 284.875 123.22Z" fill="#000001"/>
<path d="M303.488 123.936C300.245 121.193 297.505 122.873 297.39 122.944C297.224 123.047 297.021 123.085 296.825 123.051C296.629 123.017 296.455 122.912 296.34 122.76C296.226 122.608 296.181 122.42 296.214 122.238C296.247 122.055 296.356 121.891 296.517 121.782C297.785 121.087 299.271 120.817 300.727 121.018C302.183 121.218 303.521 121.877 304.517 122.883C304.668 123.01 304.758 123.187 304.768 123.375C304.777 123.563 304.706 123.747 304.57 123.887C304.433 124.027 304.243 124.11 304.04 124.119C303.837 124.128 303.639 124.063 303.488 123.936Z" fill="#000001"/>
<path d="M290.49 134.304C290.31 134.271 290.139 134.203 289.99 134.104C289.84 134.005 289.716 133.876 289.624 133.728C288.592 132.129 290.521 126.219 291.137 124.437C291.205 124.265 291.342 124.124 291.519 124.043C291.697 123.963 291.901 123.949 292.089 124.005C292.277 124.062 292.435 124.184 292.528 124.345C292.621 124.507 292.643 124.696 292.589 124.872C291.319 128.541 290.566 132.143 290.896 132.931C292.026 133.065 293.17 133.057 294.298 132.907C294.498 132.877 294.702 132.922 294.866 133.032C295.03 133.143 295.141 133.309 295.173 133.495C295.205 133.68 295.156 133.87 295.037 134.022C294.918 134.175 294.739 134.277 294.539 134.307C293.197 134.498 291.832 134.497 290.49 134.304Z" fill="#000001"/>
<path fill-rule="evenodd" clip-rule="evenodd" d="M290.016 125.689C289.764 125.991 289.436 126.231 289.06 126.387C288.684 126.543 288.272 126.61 287.861 126.583C287.45 126.555 287.053 126.434 286.705 126.23C286.357 126.026 286.068 125.745 285.865 125.412C285.865 125.412 288.517 122.843 290.016 125.689Z" fill="white"/>
<path fill-rule="evenodd" clip-rule="evenodd" d="M302.544 126.138C301.699 126.672 300.68 126.919 299.661 126.835C298.642 126.751 297.686 126.343 296.955 125.679C296.955 125.679 298.937 122.985 302.544 126.138Z" fill="white"/>
<path d="M290.664 125.316C290.428 124.888 290.084 124.518 289.661 124.24C289.238 123.961 288.749 123.781 288.235 123.715C287.682 123.723 287.136 123.836 286.631 124.046C286.126 124.256 285.672 124.56 285.298 124.938C285.173 125.078 285.111 125.258 285.125 125.44C285.139 125.622 285.229 125.792 285.374 125.914C285.52 126.037 285.711 126.102 285.908 126.097C286.104 126.092 286.291 126.017 286.429 125.887C286.538 125.784 286.653 125.686 286.774 125.595C286.774 125.628 286.753 125.655 286.753 125.689C286.763 125.948 286.881 126.193 287.083 126.373C287.284 126.552 287.552 126.653 287.831 126.653C288.111 126.653 288.379 126.552 288.58 126.373C288.781 126.193 288.899 125.948 288.91 125.689C288.903 125.622 288.888 125.556 288.866 125.492C289.06 125.659 289.228 125.849 289.366 126.058C289.419 126.138 289.488 126.206 289.57 126.261C289.651 126.315 289.743 126.354 289.841 126.375C289.939 126.396 290.04 126.399 290.139 126.384C290.238 126.369 290.332 126.336 290.418 126.287C290.503 126.238 290.577 126.174 290.635 126.099C290.694 126.023 290.736 125.938 290.759 125.847C290.782 125.756 290.785 125.662 290.769 125.571C290.753 125.479 290.717 125.391 290.664 125.312V125.316Z" fill="#000001"/>
<path d="M303.067 125.621C302.54 125.068 301.89 124.63 301.161 124.336C300.431 124.042 299.642 123.9 298.847 123.92C298.349 123.978 297.869 124.128 297.435 124.362C297.001 124.596 296.623 124.91 296.324 125.283C296.21 125.438 296.167 125.628 296.204 125.812C296.241 125.996 296.355 126.159 296.521 126.265C296.687 126.371 296.891 126.412 297.09 126.379C297.288 126.346 297.464 126.242 297.58 126.088C297.834 125.801 298.165 125.581 298.539 125.449C298.445 125.594 298.393 125.758 298.387 125.926C298.381 126.094 298.421 126.261 298.503 126.411C298.586 126.561 298.708 126.689 298.858 126.783C299.009 126.877 299.183 126.934 299.363 126.948C299.544 126.963 299.726 126.934 299.891 126.865C300.057 126.797 300.201 126.69 300.31 126.555C300.419 126.421 300.489 126.263 300.514 126.096C300.538 125.929 300.517 125.759 300.452 125.602C301.028 125.879 301.557 126.235 302.02 126.656C302.167 126.785 302.364 126.855 302.566 126.849C302.769 126.844 302.96 126.764 303.099 126.627C303.238 126.49 303.313 126.308 303.307 126.12C303.301 125.932 303.215 125.754 303.067 125.625V125.621Z" fill="#000001"/>
<path fill-rule="evenodd" clip-rule="evenodd" d="M287.402 135.233C288.893 135.747 290.432 136.131 291.999 136.38C294.35 136.722 297.544 135.415 299.738 135.233C299.738 135.233 295.318 139.741 291.999 139.126C289.402 138.644 287.523 135.099 287.402 135.233Z" fill="white"/>
<path d="M292.629 139.889C290.249 139.889 288.485 137.906 287.146 136.076C287.064 135.963 286.994 135.868 286.945 135.803C286.812 135.712 286.715 135.583 286.668 135.436C286.621 135.289 286.627 135.132 286.684 134.988C286.742 134.844 286.848 134.722 286.987 134.639C287.126 134.556 287.29 134.517 287.455 134.528C288.973 135.026 290.531 135.413 292.114 135.687C294.267 135.993 297.418 134.718 299.668 134.533C299.822 134.521 299.975 134.551 300.11 134.621C300.244 134.691 300.352 134.796 300.42 134.924C300.489 135.052 300.514 135.196 300.493 135.338C300.471 135.479 300.404 135.611 300.301 135.717C300.122 135.894 296.16 139.889 292.629 139.889ZM289.439 136.588C291.467 138.871 293.281 139.389 297.226 136.432C293.728 137.243 292.826 137.438 289.439 136.588Z" fill="#000001"/>
<path d="M290.276 141.641C290.12 141.521 290.022 141.348 290.003 141.161C289.985 140.974 290.047 140.788 290.176 140.643C290.305 140.498 290.491 140.407 290.693 140.39C290.895 140.372 291.096 140.43 291.252 140.55C291.657 140.829 292.138 141 292.64 141.044C293.143 141.087 293.649 141.002 294.104 140.797C294.283 140.731 294.483 140.731 294.662 140.797C294.842 140.863 294.988 140.989 295.071 141.151C295.155 141.312 295.169 141.497 295.111 141.668C295.053 141.839 294.928 141.983 294.76 142.072C294.044 142.398 293.244 142.53 292.451 142.454C291.658 142.378 290.905 142.096 290.276 141.641Z" fill="#000001"/>
<path d="M269.052 186.283C266.387 180.899 266.069 166.076 266.057 165.454C266.053 165.266 266.13 165.085 266.271 164.95C266.412 164.814 266.605 164.737 266.807 164.734C267.01 164.73 267.205 164.802 267.351 164.932C267.496 165.063 267.58 165.242 267.583 165.43C267.583 165.58 267.906 180.576 270.438 185.692C270.513 185.862 270.515 186.051 270.443 186.221C270.37 186.392 270.23 186.529 270.051 186.606C269.872 186.682 269.668 186.691 269.482 186.631C269.296 186.571 269.142 186.446 269.052 186.283Z" fill="#000001"/>
<path fill-rule="evenodd" clip-rule="evenodd" d="M319.024 272.887H257.11V216.103L236.967 191.953V186.134H317.508L332.732 214.167L332.274 218.911H319.018L319.024 272.887Z" fill="white"/>
<path d="M333.416 213.849L318.19 185.815C318.126 185.698 318.029 185.599 317.909 185.531C317.788 185.462 317.65 185.425 317.509 185.425H244.696C244.563 182.166 244.252 167.703 248.847 162.205C253.058 157.586 257.781 153.39 262.939 149.689C266.983 151.999 274.266 148.149 272.71 144.231C271.768 141.854 268.27 141.495 265.601 142.409C262.586 143.439 260.079 146.275 261.82 148.702C256.623 152.434 251.87 156.669 247.641 161.337C242.696 167.253 243.013 181.911 243.165 185.425H236.968C236.765 185.425 236.571 185.5 236.428 185.633C236.285 185.766 236.204 185.946 236.204 186.134V191.953C236.204 192.33 234.983 190.74 256.348 216.345V272.882C256.348 273.069 256.428 273.25 256.572 273.382C256.715 273.515 256.909 273.59 257.111 273.59H319.025C319.227 273.59 319.421 273.515 319.565 273.382C319.708 273.25 319.788 273.069 319.788 272.882V219.622H332.289C332.48 219.623 332.665 219.557 332.806 219.437C332.948 219.317 333.036 219.153 333.052 218.976C333.535 213.769 333.553 214.096 333.416 213.849ZM237.731 186.842H316.745V191.245H237.731V186.842ZM257.875 272.179V201.017H305.765V272.179H257.875ZM318.261 272.179H307.296V202.773L318.261 219.116V272.179ZM319.446 218.202L306.993 199.924C306.924 199.823 306.828 199.74 306.715 199.682C306.602 199.625 306.476 199.595 306.347 199.595H257.111C256.909 199.595 256.715 199.669 256.572 199.802C256.428 199.935 256.348 200.115 256.348 200.303V214.025L238.525 192.662H317.04L331.037 218.205L319.446 218.202ZM331.755 216.389L318.272 191.785V189.112L331.955 214.306L331.755 216.389Z" fill="#000001"/>
<path fill-rule="evenodd" clip-rule="evenodd" d="M325.627 210.239C325.779 211.048 327.995 210.974 328.978 210.38C329.961 209.787 332.457 206.674 332.5 205.138C332.5 205.138 334.593 205.594 334.586 203.967C334.578 202.34 332.465 195.584 329.268 194.048C326.071 192.512 322.245 188.463 319.039 188.664C319.039 188.664 321.895 194.367 322.286 194.608C322.677 194.849 323.102 196.218 321.265 197.351C319.428 198.485 317.918 201.092 319.834 201.636C321.75 202.18 326.033 199.283 326.19 198.104C326.297 198.96 326.111 199.827 325.658 200.58C325.205 201.333 324.508 201.934 323.666 202.299C320.766 203.364 319.225 205.037 322.292 205.884C322.363 206.388 322.621 206.853 323.021 207.2C323.421 207.547 323.938 207.754 324.485 207.786C326.457 207.916 329.396 206.883 328.987 206.564C328.987 206.564 328.758 208.487 327.46 208.915C326.163 209.343 325.471 209.43 325.627 210.239Z" fill="white"/>
<path d="M342.854 182.085C339.19 174.391 340.082 172.155 336.172 161.606C332.575 151.898 322.723 151.025 318.131 148.984C314.533 147.123 311.205 144.846 308.227 142.208C307.92 141.473 307.498 140.784 306.973 140.164L307.082 138.76C307.293 138.303 307.458 137.829 307.575 137.343C311.73 136.727 315.074 132.117 313.958 129.653C313.745 129.084 313.338 128.595 312.799 128.26C312.26 127.924 311.618 127.76 310.97 127.793C311.511 125.224 312.729 118.638 311.723 115.594C311.12 113.432 309.877 111.469 308.134 109.929C306.391 108.389 304.218 107.333 301.862 106.881C290.535 104.427 285.144 111.457 284.813 111.906C284.596 112.189 281.501 116.425 283.382 125.084C282.973 126.061 281.397 130.158 282.466 133.471C283.411 136.418 283.301 139.253 285.429 142.022C285.004 142.56 284.639 143.138 284.341 143.746C283.396 144.412 277.831 148.291 275.216 148.948C275.031 148.993 256.64 153.99 256.631 167.523C256.623 179.122 254.135 181.068 253.893 186.097C253.884 186.285 253.956 186.468 254.093 186.607C254.229 186.746 254.42 186.829 254.622 186.837C254.825 186.845 255.023 186.779 255.172 186.652C255.322 186.525 255.411 186.348 255.42 186.16C255.643 181.412 258.15 179.285 258.158 167.523C258.158 155.045 275.44 150.359 275.616 150.315C278.42 149.255 281.055 147.843 283.446 146.118C283.14 147.264 282.974 148.438 282.952 149.618C282.842 154.639 281.507 160.056 280.434 161.366C280.327 161.498 280.273 161.661 280.282 161.826C280.29 161.99 280.361 162.147 280.48 162.269C280.6 162.391 280.762 162.47 280.938 162.493C281.114 162.516 281.293 162.482 281.445 162.395C287.878 158.677 286.556 155.997 294.355 160.912C294.156 163.408 293.204 176.613 294.39 186.057C294.401 186.15 294.433 186.24 294.482 186.322C294.531 186.404 294.596 186.476 294.676 186.534C294.755 186.592 294.845 186.635 294.942 186.661C295.039 186.687 295.141 186.695 295.241 186.684C295.341 186.673 295.438 186.644 295.526 186.599C295.615 186.553 295.692 186.492 295.755 186.419C295.818 186.345 295.864 186.261 295.892 186.171C295.92 186.081 295.928 185.987 295.917 185.894C294.724 176.413 295.721 163.047 295.892 160.913C297.294 159.932 298.793 159.7 299.886 160.991C301.639 162.915 303.663 164.61 305.904 166.032C306.015 166.102 306.144 166.143 306.278 166.152C306.411 166.16 306.545 166.136 306.665 166.082C306.785 166.027 306.888 165.944 306.963 165.842C307.038 165.739 307.083 165.619 307.092 165.495C307.326 162.504 307.923 159.547 308.872 156.68C309.946 152.805 310.024 148.75 309.1 144.842C315.349 149.844 318.173 150.623 321.102 151.55C326.013 153.108 332.128 155.038 334.737 162.078C338.694 172.754 337.638 174.587 341.465 182.665C344.08 188.18 349.525 199.658 345.375 202.625C342.382 204.523 338.741 205.334 335.146 204.903C335.294 204.613 335.367 204.296 335.36 203.976C335.352 202.397 333.476 195.956 330.222 193.774C330.766 193.054 332.575 191.507 337.923 192.062C338.124 192.081 338.325 192.026 338.483 191.909C338.641 191.792 338.743 191.623 338.769 191.437C338.78 191.345 338.772 191.251 338.744 191.162C338.716 191.072 338.67 190.989 338.607 190.916C338.545 190.843 338.467 190.782 338.379 190.737C338.292 190.692 338.195 190.664 338.096 190.654C335.703 190.267 333.241 190.528 331.004 191.406C332.456 188.63 335.05 184.483 338.418 182.498C338.506 182.45 338.584 182.386 338.645 182.309C338.707 182.233 338.751 182.146 338.775 182.053C338.8 181.961 338.804 181.864 338.787 181.77C338.77 181.676 338.733 181.586 338.679 181.506C338.624 181.425 338.552 181.356 338.467 181.302C338.383 181.248 338.287 181.21 338.187 181.191C338.086 181.172 337.982 181.172 337.882 181.191C337.781 181.21 337.685 181.248 337.601 181.302C333.152 183.923 330.074 189.713 328.853 192.338C327.902 190.754 327.086 189.104 326.41 187.403C326.596 180.926 331.164 167.838 331.212 167.707C331.274 167.528 331.258 167.334 331.166 167.166C331.074 166.998 330.914 166.871 330.721 166.813C330.529 166.755 330.319 166.77 330.138 166.855C329.958 166.941 329.821 167.089 329.758 167.268C327.825 172.784 326.306 178.418 325.215 184.13C323.292 177.943 321.983 171.607 321.305 165.199C321.283 165.014 321.186 164.843 321.032 164.723C320.879 164.602 320.681 164.541 320.48 164.553C320.279 164.569 320.092 164.658 319.961 164.802C319.831 164.945 319.767 165.131 319.784 165.318C319.85 166.038 321.337 181.601 326.697 191.59C324.447 190.006 321.599 187.8 318.992 187.967C318.868 187.975 318.748 188.011 318.643 188.071C318.537 188.131 318.449 188.215 318.386 188.314C318.323 188.413 318.287 188.525 318.281 188.639C318.275 188.754 318.3 188.869 318.352 188.973C321.196 194.654 321.088 193.813 321.683 195.993C321.476 196.311 321.19 196.579 320.848 196.773C318.433 198.261 316.946 201.566 319.611 202.322C320.366 202.518 321.165 202.51 321.914 202.298C319.036 203.816 319.369 205.649 321.639 206.439C321.812 207.01 322.174 207.517 322.675 207.887C323.175 208.257 323.788 208.472 324.427 208.502C325.439 208.526 326.45 208.407 327.424 208.147C326.831 208.554 324.535 208.582 324.883 210.368C325.173 211.88 328.082 211.775 329.402 210.973C331.035 209.661 332.291 207.993 333.056 206.118C333.109 205.977 334.137 206.409 336.957 206.409C340.303 206.497 343.587 205.56 346.302 203.743C351.395 200.095 346.047 188.821 342.854 182.085ZM308.259 134.604C308.814 132.18 309.428 128.47 311.674 129.303C311.879 129.39 312.063 129.514 312.213 129.669C312.364 129.824 312.479 130.006 312.55 130.205C313.161 131.545 311.06 134.919 307.97 135.813C308.072 135.402 308.167 134.997 308.259 134.604ZM283.929 133.064C282.898 129.847 284.86 125.468 284.881 125.422C284.942 125.288 284.957 125.14 284.924 124.997C284.324 122.522 284.169 119.971 284.466 117.449C285.292 115.892 286.322 114.435 287.532 113.112C289.408 113.132 300.555 113.299 305.343 114.309C308.186 120.645 308.687 127.676 306.766 134.304C306.529 135.334 306.283 136.401 305.984 137.397C304.975 140.738 302.014 143.525 297.652 145.244C293.637 146.824 290.862 145.302 287.691 142.328C284.704 139.525 285.068 136.628 283.929 133.058V133.064ZM282.833 159.76C283.846 156.467 284.398 153.067 284.477 149.644C284.46 147.353 285.14 145.104 286.44 143.157C286.796 143.504 286.33 150.559 291.599 157.688C287.223 155.636 286.071 157.498 282.833 159.754V159.76ZM295.115 159.507C291.181 155.375 288.756 150.194 288.188 144.704C289.911 146.269 292.193 147.192 294.601 147.296C298.198 147.296 302.961 144.554 305.323 141.693L304.738 149.29C304.178 150.892 303.095 152.294 301.639 153.3C299.331 155.243 297.153 157.314 295.115 159.502V159.507ZM307.434 156.177C306.529 158.761 305.941 161.432 305.683 164.138C303.981 162.973 302.435 161.623 301.078 160.117C300.756 159.626 300.288 159.233 299.729 158.985C299.171 158.737 298.547 158.645 297.933 158.719C299.415 157.194 300.984 155.745 302.634 154.376C304.398 153.161 305.672 151.433 306.253 149.467L306.782 142.636C308.41 146.993 308.637 151.697 307.434 156.172V156.177ZM326.335 210.079L326.361 210.06C326.37 210.077 326.376 210.095 326.378 210.114L326.335 210.079ZM333.691 204.366C333.532 204.454 333.348 204.497 333.163 204.489C333.015 203.517 332.699 202.574 332.225 201.697C332.132 201.53 331.971 201.405 331.778 201.348C331.585 201.291 331.375 201.308 331.196 201.395C331.016 201.481 330.88 201.631 330.819 201.81C330.758 201.989 330.776 202.184 330.87 202.351C331.471 203.375 331.727 204.544 331.604 205.706C330.925 207.256 329.886 208.649 328.561 209.784C327.896 210.115 327.123 210.208 326.389 210.043C326.819 209.869 327.261 209.718 327.711 209.591C328.24 209.349 328.697 208.988 329.038 208.541C329.38 208.095 329.597 207.576 329.67 207.032C329.754 206.866 329.781 206.68 329.744 206.499C329.708 206.319 329.61 206.154 329.467 206.028C329.371 205.952 329.256 205.9 329.133 205.875C329.01 205.851 328.883 205.855 328.762 205.887C328.641 205.919 328.531 205.979 328.44 206.06C328.35 206.141 328.283 206.242 328.245 206.354C327.082 206.86 325.808 207.111 324.523 207.085C324.278 207.08 324.038 207.02 323.823 206.909C323.609 206.798 323.427 206.641 323.294 206.45C325.173 206.096 329.265 204.958 329.729 201.7C329.756 201.514 329.701 201.325 329.578 201.176C329.455 201.027 329.273 200.929 329.072 200.905C328.871 200.88 328.668 200.93 328.507 201.045C328.346 201.159 328.241 201.328 328.215 201.515C327.821 204.28 323.256 205.041 322.358 205.165C321.575 204.925 321.367 204.68 321.366 204.63C321.357 204.441 321.949 203.695 323.937 202.966C324.943 202.553 325.778 201.85 326.319 200.961C326.861 200.072 327.078 199.045 326.94 198.032C326.919 197.858 326.83 197.698 326.69 197.582C326.55 197.465 326.369 197.401 326.181 197.401C325.993 197.401 325.812 197.465 325.672 197.582C325.532 197.698 325.443 197.858 325.422 198.032C324.905 198.954 324.109 199.717 323.132 200.225C322.703 200.543 322.206 200.774 321.675 200.902C321.143 201.031 320.589 201.055 320.047 200.972C319.741 200.884 319.718 200.755 319.705 200.67C319.801 200.112 320.027 199.58 320.368 199.111C320.709 198.642 321.155 198.248 321.677 197.957C322.119 197.725 322.499 197.403 322.79 197.017C323.081 196.631 323.274 196.189 323.357 195.723L324.141 192.748C324.175 192.622 324.17 192.491 324.129 192.367C324.087 192.244 324.01 192.134 323.906 192.048C323.466 191.691 323.143 191.906 321.793 192.392C321.352 191.577 320.825 190.57 320.298 189.537C322.94 190.258 326.155 193.363 328.906 194.693C331.957 196.141 334.373 203.875 333.691 204.366Z" fill="#000001"/>
<path d="M325.758 218.914H319.025V272.181C318.823 272.181 318.628 272.256 318.485 272.389C318.342 272.522 318.262 272.702 318.262 272.89C318.262 273.078 318.342 273.258 318.485 273.391C318.628 273.524 318.823 273.598 319.025 273.598C329.254 273.598 328.691 273.69 329.01 273.369C329.405 272.969 329.254 276.771 325.758 218.914Z" fill="#000001"/>
<path fill-rule="evenodd" clip-rule="evenodd" d="M257.111 267.477C257.111 267.477 252.531 245.768 239.815 234.261C227.099 222.753 227.511 221.773 227.511 221.773C227.511 221.773 222.083 261.985 257.111 272.887V267.477Z" fill="#81F889"/>
<path d="M256.869 273.558C222.151 262.752 226.565 223.224 226.749 221.725C226.746 221.632 226.763 221.539 226.799 221.452C226.834 221.365 226.888 221.286 226.957 221.218C227.025 221.15 227.108 221.096 227.199 221.058C227.291 221.019 227.39 220.998 227.49 220.995C227.59 220.993 227.69 221.008 227.784 221.041C227.877 221.074 227.963 221.124 228.036 221.188C228.109 221.252 228.168 221.328 228.209 221.413C228.25 221.498 228.273 221.59 228.276 221.683C228.429 222.009 229.728 224.135 240.356 233.752C253.098 245.282 257.681 266.446 257.869 267.341C257.878 267.386 257.882 267.431 257.882 267.476C257.882 273.444 257.994 273.174 257.565 273.463C257.465 273.529 257.35 273.573 257.229 273.589C257.108 273.606 256.984 273.595 256.869 273.558ZM228.096 223.893C227.609 232.041 227.812 262.317 256.34 271.891V267.547C256.049 266.226 251.328 245.678 239.276 234.768C235.33 231.343 231.598 227.712 228.096 223.893Z" fill="#000001"/>
<path d="M333.838 19.765L253.532 24.3843C251.849 24.4829 250.269 25.1726 249.114 26.3133C247.959 27.4539 247.315 28.9599 247.312 30.5254V73.013C247.314 74.645 248.013 76.2098 249.256 77.3637C250.5 78.5176 252.186 79.1661 253.945 79.1669C258.751 79.1669 231.775 79.6614 334.403 77.3985C336.131 77.3512 337.771 76.6836 338.979 75.5362C340.187 74.3889 340.867 72.8514 340.878 71.2475V25.9047C340.877 25.0649 340.691 24.2341 340.332 23.4635C339.972 22.6928 339.447 21.9986 338.787 21.4235C338.128 20.8484 337.349 20.4046 336.498 20.1194C335.647 19.8342 334.742 19.7136 333.838 19.765Z" fill="#000001"/>
<path fill-rule="evenodd" clip-rule="evenodd" d="M332.086 70.3609V26.9692L253.93 30.4436V72.0074L332.086 70.3609Z" fill="white"/>
<path d="M334.711 49.479C334.711 50.1231 334.912 50.7408 335.271 51.1963C335.63 51.6518 336.117 51.9076 336.624 51.9076C337.131 51.9076 337.618 51.6518 337.977 51.1963C338.335 50.7408 338.537 50.1231 338.537 49.479C338.537 48.8348 338.335 48.2171 337.977 47.7616C337.618 47.3062 337.131 47.0503 336.624 47.0503C336.117 47.0503 335.63 47.3062 335.271 47.7616C334.912 48.2171 334.711 48.8348 334.711 49.479Z" fill="white"/>
<path fill-rule="evenodd" clip-rule="evenodd" d="M298.773 61.947V57.271C300.261 55.2935 301.06 52.94 301.063 50.5277C301.122 46.2768 303.505 36.8526 294.325 37.0878C281.579 38.0499 284.86 52.3457 284.86 52.3457C285.291 53.7931 285.926 55.1815 286.748 56.4747L287.595 62.7433L280.098 65.6665C281.922 67.4266 284.145 68.7892 286.606 69.6561C289.066 70.5229 291.703 70.8726 294.327 70.6797C299.625 70.1794 304.703 68.4559 309.099 65.6665L298.773 61.947Z" fill="white"/>
<path d="M290.41 46.0143C289.854 45.5547 289.138 45.296 288.393 45.2853C287.648 45.2747 286.924 45.5128 286.352 45.9562C286.279 46.0199 286.193 46.0695 286.099 46.1023C286.005 46.1351 285.905 46.1504 285.805 46.1474C285.705 46.1444 285.606 46.1231 285.515 46.0847C285.424 46.0463 285.341 45.9916 285.273 45.9236C285.204 45.8557 285.151 45.7759 285.115 45.6888C285.08 45.6017 285.064 45.509 285.067 45.416C285.07 45.323 285.093 45.2314 285.134 45.1467C285.176 45.0619 285.235 44.9855 285.308 44.9218C286.142 44.2631 287.198 43.8966 288.294 43.886C289.389 43.8754 290.453 44.2213 291.302 44.8637C291.466 44.9735 291.577 45.1393 291.61 45.3248C291.642 45.5103 291.594 45.7002 291.476 45.8528C291.358 46.0054 291.179 46.1081 290.979 46.1384C290.779 46.1687 290.575 46.1241 290.41 46.0143Z" fill="#000001"/>
<path d="M298.864 45.7166C297.669 44.3832 295.493 45.7818 295.402 45.8427C295.32 45.8967 295.228 45.9352 295.13 45.956C295.032 45.9769 294.931 45.9796 294.832 45.9642C294.733 45.9487 294.639 45.9153 294.554 45.8659C294.469 45.8165 294.395 45.7521 294.337 45.6762C294.279 45.6004 294.237 45.5147 294.215 45.424C294.192 45.3333 294.189 45.2394 294.206 45.1476C294.223 45.0558 294.259 44.968 294.312 44.8891C294.365 44.8102 294.434 44.7419 294.516 44.6879C297.985 42.3896 301.171 44.8608 299.939 45.8101C299.783 45.93 299.582 45.9875 299.381 45.97C299.179 45.9524 298.993 45.8613 298.864 45.7166Z" fill="#000001"/>
<path d="M292.394 53.2186C290.287 53.2186 289.33 51.2561 290.526 50.9062C290.716 50.8507 290.921 50.8664 291.099 50.9498C291.277 51.0331 291.412 51.1777 291.477 51.3525C291.805 52.0737 293.052 51.7776 293.852 51.4531C293.945 51.4082 294.047 51.3815 294.151 51.3747C294.256 51.3678 294.36 51.3809 294.459 51.4132C294.558 51.4455 294.648 51.4962 294.725 51.5623C294.801 51.6284 294.863 51.7084 294.905 51.7973C294.946 51.8863 294.968 51.9823 294.969 52.0794C294.969 52.1764 294.948 52.2726 294.906 52.3617C294.865 52.4509 294.804 52.5312 294.728 52.5977C294.652 52.6642 294.562 52.7154 294.463 52.7482C293.816 53.036 293.112 53.1962 292.394 53.2186Z" fill="#000001"/>
<path d="M292.723 56.3214C291.101 56.3 289.525 55.8206 288.204 54.9469C288.062 54.8291 287.973 54.6664 287.953 54.4906C287.934 54.3149 287.986 54.1387 288.099 53.9968C288.213 53.8548 288.379 53.7573 288.566 53.7234C288.753 53.6894 288.947 53.7215 289.109 53.8133C289.262 53.921 292.983 56.3823 296.183 53.5937C296.331 53.471 296.526 53.4069 296.724 53.4153C296.923 53.4236 297.11 53.5036 297.247 53.6383C297.383 53.7729 297.457 53.9516 297.453 54.1362C297.449 54.3208 297.368 54.4968 297.227 54.6267C296.022 55.7166 294.405 56.325 292.723 56.3214Z" fill="#000001"/>
<path d="M318.502 70.7149C316.594 68.5962 314.184 66.9146 311.461 65.8009C309.994 65.1888 307.072 64.1983 300.327 61.7455C300.963 61.6358 301.572 61.4192 302.125 61.1065C303.346 60.3484 305.163 61.5528 306.74 62.0984C308.317 62.6439 306.994 60.0353 309.099 58.8053C311.204 57.5754 313.069 57.3685 311.847 55.3451C310.626 53.3217 311.824 53.5031 311.847 51.3875C311.87 49.272 312.74 50.3461 313.044 48.8469C313.348 47.3478 312.968 46.9709 311.847 46.1221C310.727 45.2734 312.832 44.827 312.678 43.4072C312.524 41.9874 311.505 42.132 310.595 41.5439C309.685 40.9559 310.339 39.6055 309.832 38.6817C309.325 37.7578 307.891 37.993 306.742 37.5112C305.592 37.0295 306.244 36.0404 304.676 35.5034C303.108 34.9664 303.194 36.4584 301.065 35.5034C298.937 34.5484 299.691 33.6387 297.697 33.8867C296.657 33.9764 295.649 34.269 294.739 34.7453C293.416 33.4281 291.62 32.6051 289.688 32.4314C286.983 32.4725 287.742 29.3467 284.638 30.1558C281.534 30.9649 278.094 29.0052 276.213 31.1477C274.332 33.2901 274.29 31.8958 272.531 33.8824C270.772 35.869 271.978 37.3525 269.567 38.6774C267.157 40.0023 267.975 39.6948 267.383 42.5712C266.79 45.4476 265.325 45.058 266.398 47.0516C267.471 49.0453 266.456 48.8129 267.383 51.3833C268.309 53.9537 266.531 56.0593 269.567 56.4645C272.604 56.8698 269.627 59.7405 272.531 60.1486C275.435 60.5567 275.029 62.5461 277.771 62.0884C280.513 61.6308 279.49 62.5943 282.809 62.0884C285.636 61.6634 285.537 62.2925 286.74 62.2046L286.755 62.2996C276.665 66.0659 277.378 65.842 277.215 65.9114C274.276 67.1339 271.835 69.195 270.245 71.7946C270.146 71.9583 270.12 72.152 270.175 72.3331C270.229 72.5142 270.358 72.6678 270.535 72.7603C270.711 72.8527 270.92 72.8764 271.115 72.826C271.31 72.7757 271.476 72.6554 271.575 72.4918C273.409 69.5706 276.381 67.4151 279.879 66.4711C283.289 69.6079 287.877 71.3958 292.678 71.4588C298.56 71.2271 304.261 69.5073 309.166 66.4853C312.33 67.4787 315.145 69.2465 317.316 71.6019C317.445 71.7426 317.628 71.8309 317.827 71.8479C318.025 71.865 318.223 71.8094 318.377 71.6931C318.532 71.5768 318.632 71.409 318.655 71.2255C318.679 71.0419 318.624 70.8572 318.502 70.7107V70.7149ZM285.154 52.1017C287.394 50.1066 284.065 45.5383 286.986 44.2517C290.039 42.9113 289.07 41.4178 291.583 40.2361C292.943 39.6943 294.057 38.7285 294.731 37.5056C294.731 37.5056 295.647 37.1783 295.476 38.676C295.305 40.1737 298.444 38.8404 297.69 40.9814C296.936 43.1224 300.531 43.0983 300.174 45.442C299.82 47.7601 300.771 47.2713 301.047 50.424C300.884 54.9186 297.497 59.5733 292.395 59.4416C288.126 59.3636 285.687 53.5272 285.154 52.1017ZM294.253 69.9738C291.933 70.1493 289.599 69.8784 287.397 69.1781C285.194 68.4779 283.171 67.3634 281.455 65.9043L287.891 63.3963C288.048 63.335 288.178 63.2268 288.261 63.0889C288.344 62.9511 288.375 62.7915 288.349 62.6354L287.723 58.8592C288.342 59.4774 289.088 59.9733 289.918 60.3171C290.748 60.6609 291.644 60.8456 292.552 60.8599C294.534 60.8556 296.457 60.2322 298.01 59.0902V61.9467C298.011 62.0897 298.057 62.2293 298.145 62.3471C298.232 62.465 298.355 62.5556 298.499 62.6071L307.446 65.8306C303.43 68.0957 298.926 69.5104 294.253 69.9738Z" fill="#000001"/>
<path d="M151.535 100.806C151.491 99.2617 150.85 97.7842 149.728 96.6432C148.607 95.5022 147.08 94.7742 145.428 94.5922L103.234 92.155C102.38 92.1386 101.532 92.2885 100.744 92.5952C99.9565 92.9019 99.2471 93.3585 98.6615 93.9355C98.0759 94.5125 97.6272 95.1971 97.3445 95.945C97.0617 96.693 96.9511 97.4876 97.0198 98.2777L98.8076 174.784C98.7834 176.373 99.3968 177.914 100.529 179.107C101.66 180.3 103.23 181.06 104.931 181.239C104.931 181.239 150.184 183.849 150.3 183.849C151.146 183.815 151.975 183.618 152.735 183.273C153.496 182.928 154.172 182.441 154.721 181.843C155.27 181.245 155.681 180.548 155.927 179.796C156.173 179.045 156.25 178.254 156.153 177.473L151.535 100.806Z" fill="#000001"/>
<path fill-rule="evenodd" clip-rule="evenodd" d="M146.732 179.115C149.491 179.275 151.534 176.831 151.372 173.976L147.402 104.022C147.41 102.803 146.945 101.623 146.092 100.697C145.239 99.7701 144.056 99.1593 142.758 98.976L106.455 96.8789C103.805 96.7258 101.745 99.0043 101.808 101.824L103.349 171.636C103.295 172.888 103.74 174.114 104.598 175.081C105.456 176.048 106.667 176.688 108 176.879L146.732 179.115Z" fill="white"/>
<path fill-rule="evenodd" clip-rule="evenodd" d="M102.908 151.803C104.388 150.979 112.905 146.347 120.111 144.877C124.616 143.871 129.341 144.139 133.679 145.648C133.679 145.648 146.576 149.008 150.168 152.76L151.374 173.976C151.539 176.86 149.467 179.274 146.735 179.115L108.003 176.878C106.669 176.687 105.458 176.046 104.6 175.08C103.742 174.113 103.298 172.887 103.351 171.635L102.908 151.803Z" fill="#81F889"/>
<path fill-rule="evenodd" clip-rule="evenodd" d="M116.189 129.72C116.166 129.222 116.172 128.933 116.172 128.933C116.172 128.933 113.761 115.7 125.279 116.731C137.749 117.846 135.3 127.818 134.945 131.481C137.729 128.841 139.364 133.027 134.676 136.593C134.598 137.74 134.393 138.875 134.065 139.983V145.488L136.858 146.543C136.858 146.543 136.563 151.228 128.905 152.01C121.247 152.792 115.996 146.004 115.996 146.004L119.537 144.815L118.79 138.95C118.114 137.757 117.552 136.511 117.111 135.228C113.415 133.224 113.294 130.029 114.057 129.044C114.717 128.188 115.892 129.391 116.189 129.72Z" fill="white"/>
<path d="M127.208 136.84C126.289 136.825 125.397 136.553 124.648 136.06C124.567 136.003 124.5 135.933 124.449 135.852C124.398 135.772 124.365 135.683 124.351 135.59C124.337 135.498 124.343 135.404 124.368 135.314C124.394 135.223 124.438 135.139 124.499 135.064C124.559 134.99 124.635 134.927 124.722 134.88C124.809 134.833 124.905 134.802 125.004 134.789C125.104 134.776 125.205 134.782 125.302 134.805C125.4 134.829 125.491 134.87 125.571 134.926C125.923 135.158 126.328 135.31 126.754 135.371C127.18 135.431 127.616 135.399 128.026 135.276C128.296 134.951 127.672 133.083 126.499 131.25C126.444 131.17 126.407 131.081 126.39 130.987C126.373 130.894 126.377 130.798 126.4 130.706C126.424 130.613 126.467 130.526 126.528 130.45C126.588 130.373 126.665 130.309 126.753 130.26C126.841 130.212 126.938 130.18 127.039 130.167C127.141 130.154 127.244 130.16 127.343 130.185C127.441 130.21 127.534 130.253 127.614 130.312C127.695 130.37 127.761 130.443 127.811 130.526C129.692 133.471 130.893 136.839 127.208 136.84Z" fill="#000001"/>
<path d="M118.921 128.246C118.783 128.246 118.648 128.212 118.53 128.146C118.411 128.08 118.315 127.986 118.249 127.874C118.184 127.761 118.153 127.634 118.159 127.507C118.165 127.379 118.208 127.255 118.284 127.148C118.612 126.689 119.042 126.301 119.546 126.01C120.049 125.719 120.614 125.531 121.203 125.461C121.791 125.39 122.389 125.437 122.956 125.6C123.523 125.762 124.046 126.035 124.489 126.402C124.57 126.456 124.638 126.526 124.69 126.605C124.743 126.685 124.777 126.773 124.793 126.865C124.808 126.957 124.804 127.051 124.78 127.141C124.757 127.232 124.714 127.317 124.655 127.392C124.596 127.467 124.521 127.531 124.436 127.579C124.35 127.628 124.255 127.66 124.156 127.674C124.057 127.689 123.956 127.685 123.858 127.663C123.761 127.641 123.669 127.601 123.588 127.547C123.272 127.296 122.904 127.108 122.507 126.994C122.109 126.88 121.691 126.842 121.278 126.883C120.586 127.031 119.974 127.405 119.554 127.936C119.484 128.032 119.389 128.11 119.279 128.164C119.168 128.218 119.045 128.246 118.921 128.246Z" fill="#000001"/>
<path d="M132.473 129.125C132.328 128.787 132.105 128.483 131.82 128.234C131.535 127.984 131.195 127.796 130.823 127.681C130.271 127.626 129.718 127.768 129.273 128.076C129.117 128.194 128.917 128.25 128.717 128.232C128.516 128.214 128.331 128.123 128.203 127.979C128.074 127.835 128.012 127.65 128.03 127.464C128.048 127.277 128.145 127.105 128.299 126.985C128.691 126.697 129.142 126.487 129.624 126.367C130.106 126.248 130.61 126.221 131.104 126.289C131.704 126.435 132.261 126.706 132.732 127.082C133.202 127.457 133.574 127.928 133.818 128.457C133.903 128.622 133.916 128.81 133.855 128.984C133.794 129.157 133.663 129.302 133.49 129.388C133.316 129.474 133.114 129.494 132.925 129.445C132.735 129.396 132.574 129.281 132.473 129.125Z" fill="#000001"/>
<path d="M127.421 139.755C125.587 139.672 123.844 138.992 122.496 137.835C122.418 137.773 122.354 137.698 122.309 137.613C122.263 137.528 122.236 137.435 122.23 137.34C122.224 137.245 122.238 137.15 122.272 137.061C122.306 136.971 122.359 136.889 122.428 136.819C122.497 136.748 122.581 136.692 122.674 136.652C122.767 136.613 122.868 136.591 122.97 136.588C123.072 136.585 123.174 136.602 123.269 136.636C123.365 136.671 123.452 136.723 123.525 136.789C123.678 136.918 127.275 139.892 130.07 137.237C130.14 137.17 130.224 137.117 130.316 137.081C130.408 137.044 130.507 137.025 130.608 137.024C130.708 137.023 130.808 137.04 130.901 137.075C130.994 137.11 131.078 137.161 131.15 137.226C131.222 137.291 131.279 137.369 131.318 137.455C131.358 137.54 131.379 137.632 131.38 137.725C131.381 137.818 131.362 137.911 131.325 137.997C131.287 138.084 131.232 138.162 131.162 138.229C130.685 138.709 130.107 139.093 129.463 139.355C128.82 139.618 128.124 139.754 127.421 139.755Z" fill="#000001"/>
<path d="M151.393 152.346C147.576 149.382 138.799 146.169 134.584 145.016L134.684 140.506C135.043 139.437 135.276 138.336 135.379 137.221C136.979 135.77 138.633 133.471 138.489 131.845C138.461 131.562 138.37 131.287 138.221 131.038C138.072 130.789 137.869 130.572 137.625 130.399C137.381 130.227 137.101 130.103 136.803 130.037C136.505 129.97 136.195 129.961 135.894 130.012C136.246 127.178 136.636 122.814 133.891 119.654C132.807 118.545 131.492 117.651 130.026 117.028C128.559 116.404 126.972 116.063 125.359 116.025C117.474 115.326 114.486 121.017 115.321 128.293C114.235 127.777 113.336 128.27 113.006 129.4C112.014 132.721 115.622 135.126 116.535 135.672C116.85 136.657 117.255 137.616 117.744 138.538C117.753 138.754 117.689 138.312 118.721 144.451C115.541 145.387 98.9742 151.102 101.48 153.141C101.555 153.202 101.643 153.249 101.738 153.279C101.833 153.309 101.933 153.322 102.033 153.316C102.133 153.309 102.231 153.285 102.321 153.244C102.411 153.203 102.491 153.146 102.557 153.076C104.287 151.245 110.954 148.588 115.77 146.917C117.232 148.698 119.117 150.142 121.278 151.138C123.439 152.133 125.818 152.652 128.231 152.655C133.704 152.655 136.553 150.328 137.426 147.443C141.362 148.777 147.35 151.047 150.422 153.434C150.577 153.555 150.778 153.613 150.98 153.596C151.182 153.579 151.368 153.488 151.498 153.344C151.627 153.2 151.69 153.014 151.672 152.826C151.654 152.639 151.556 152.466 151.401 152.346H151.393ZM135.684 131.8C136.023 131.308 136.315 131.274 136.753 131.558C137.526 132.058 136.155 134.121 135.532 134.887C135.608 133.244 135.62 132.603 135.684 131.807V131.8ZM114.469 129.786C114.512 129.645 114.553 129.561 114.558 129.526C114.917 129.722 115.229 129.985 115.474 130.298C115.559 131.342 115.712 132.381 115.932 133.408C115.36 132.982 114.923 132.42 114.666 131.783C114.408 131.146 114.34 130.456 114.469 129.786ZM117.122 131.487C117.553 129.897 118.171 128.357 118.967 126.893C119.096 126.75 119.159 126.565 119.142 126.379C118.938 124.111 119.08 120.44 120.028 119.737C121.587 118.59 131.234 118.098 132.7 122.617C133.513 126.294 133.969 130.031 134.062 133.784C133.843 140.1 133.026 144.496 126.254 143.277C119.443 142.064 117.614 135.263 117.122 131.487ZM128.726 151.231C126.548 151.283 124.386 150.876 122.402 150.04C120.419 149.204 118.666 147.961 117.275 146.405C118.272 146.076 119.142 145.805 119.78 145.624C119.956 145.574 120.107 145.467 120.205 145.323C120.303 145.178 120.341 145.006 120.313 144.837L119.726 141.347C123.628 145.479 129.802 145.648 132.457 143.674C132.684 143.492 132.896 143.294 133.089 143.082L133.036 145.535C133.032 145.692 133.086 145.845 133.187 145.971C133.288 146.097 133.431 146.188 133.594 146.23C133.625 146.239 134.565 146.514 135.987 146.973C135.687 148.207 134.37 151.059 128.732 151.229L128.726 151.231Z" fill="#000001"/>
<path d="M124.532 97.2467C124.687 97.2553 124.844 97.2366 124.991 97.1915C125.138 97.1464 125.274 97.0759 125.391 96.9841C125.507 96.8922 125.602 96.7807 125.67 96.656C125.738 96.5312 125.778 96.3957 125.787 96.2572C125.795 96.1186 125.774 95.9797 125.722 95.8484C125.671 95.717 125.591 95.5959 125.487 95.4918C125.383 95.3877 125.257 95.3028 125.116 95.2418C124.976 95.1808 124.823 95.1449 124.667 95.1363C124.511 95.1277 124.355 95.1465 124.208 95.1915C124.06 95.2366 123.924 95.3071 123.808 95.3989C123.691 95.4908 123.596 95.6023 123.528 95.727C123.461 95.8518 123.421 95.9873 123.412 96.1259C123.403 96.2644 123.425 96.4033 123.477 96.5346C123.528 96.666 123.608 96.7871 123.712 96.8912C123.816 96.9953 123.942 97.0803 124.082 97.1412C124.223 97.2022 124.376 97.2381 124.532 97.2467Z" fill="white"/>
<path d="M290.438 47.3195C289.845 46.8436 289.082 46.5887 288.298 46.6042C287.514 46.6196 286.764 46.9042 286.193 47.4031C286.051 47.5374 285.973 47.7185 285.975 47.9065C285.977 48.0945 286.059 48.274 286.204 48.4056C286.349 48.5371 286.544 48.6099 286.747 48.6079C286.949 48.6059 287.143 48.5293 287.284 48.3949C287.397 48.295 287.527 48.214 287.669 48.1555V48.3907C287.669 48.5786 287.749 48.7588 287.893 48.8916C288.036 49.0245 288.23 49.0992 288.432 49.0992C288.635 49.0992 288.829 49.0245 288.972 48.8916C289.115 48.7588 289.196 48.5786 289.196 48.3907V48.2688C289.311 48.3233 289.422 48.3854 289.529 48.4544C289.691 48.5672 289.894 48.6156 290.095 48.589C290.295 48.5624 290.476 48.4631 290.597 48.3127C290.719 48.1624 290.771 47.9735 290.742 47.7875C290.714 47.6014 290.607 47.4336 290.445 47.3209L290.438 47.3195Z" fill="#000001"/>
<path d="M299.092 47.5165C298.425 46.9402 297.55 46.6178 296.639 46.6133C295.729 46.6089 294.85 46.9227 294.177 47.4924C294.041 47.6234 293.964 47.7981 293.963 47.9802C293.962 48.1623 294.036 48.3378 294.171 48.4703C294.305 48.6028 294.49 48.6822 294.685 48.6919C294.881 48.7017 295.074 48.641 295.223 48.5226C295.367 48.4097 295.526 48.3145 295.696 48.2392V48.497C295.696 48.6849 295.777 48.8652 295.92 48.998C296.063 49.1309 296.257 49.2055 296.459 49.2055C296.662 49.2055 296.856 49.1309 296.999 48.998C297.142 48.8652 297.223 48.6849 297.223 48.497V48.1471C297.55 48.2441 297.853 48.4002 298.114 48.6062C298.251 48.7134 298.424 48.7722 298.603 48.7719C298.761 48.7726 298.914 48.728 299.044 48.6442C299.173 48.5605 299.271 48.4417 299.324 48.3041C299.378 48.1666 299.384 48.0171 299.343 47.8761C299.301 47.735 299.213 47.6095 299.092 47.5165Z" fill="#000001"/>
<path d="M124.547 129.462C124.23 129.106 123.834 128.816 123.387 128.613C122.939 128.409 122.45 128.296 121.952 128.282C121.192 128.3 120.471 128.595 119.944 129.104C119.808 129.242 119.736 129.426 119.745 129.613C119.754 129.801 119.843 129.978 119.992 130.105C120.142 130.231 120.339 130.298 120.542 130.29C120.744 130.281 120.934 130.199 121.071 130.06C121.191 129.963 121.325 129.881 121.469 129.818V130.219C121.479 130.312 121.509 130.402 121.557 130.484C121.604 130.567 121.669 130.64 121.747 130.699C121.825 130.758 121.915 130.803 122.011 130.83C122.108 130.857 122.209 130.866 122.309 130.856C122.409 130.847 122.507 130.82 122.595 130.775C122.684 130.731 122.763 130.671 122.827 130.599C122.89 130.526 122.938 130.443 122.967 130.354C122.996 130.264 123.006 130.17 122.996 130.077C123.151 130.186 123.296 130.307 123.431 130.437C123.499 130.508 123.582 130.565 123.675 130.606C123.767 130.647 123.868 130.67 123.97 130.674C124.072 130.678 124.174 130.662 124.27 130.629C124.366 130.596 124.454 130.545 124.528 130.479C124.602 130.414 124.661 130.335 124.702 130.248C124.743 130.161 124.764 130.067 124.765 129.972C124.766 129.877 124.746 129.782 124.707 129.695C124.667 129.607 124.61 129.527 124.537 129.461L124.547 129.462Z" fill="#000001"/>
<path d="M132.612 129.883C132.297 129.524 131.902 129.232 131.454 129.029C131.006 128.825 130.515 128.714 130.016 128.704C128.773 128.734 127.152 129.736 128.059 130.515C128.206 130.641 128.401 130.707 128.6 130.701C128.8 130.695 128.99 130.617 129.128 130.482C129.235 130.396 129.353 130.321 129.479 130.26V130.695C129.481 130.883 129.564 131.062 129.709 131.193C129.854 131.325 130.049 131.397 130.251 131.395C130.454 131.393 130.647 131.316 130.788 131.181C130.93 131.047 131.008 130.866 131.006 130.678V130.468C131.511 130.81 131.587 131.08 132.042 131.08C132.193 131.083 132.342 131.045 132.469 130.97C132.596 130.895 132.697 130.786 132.758 130.658C132.819 130.53 132.837 130.388 132.811 130.25C132.785 130.112 132.716 129.984 132.612 129.883Z" fill="#000001"/>
</g>
<defs>
<clipPath id="clip0_441_61697">
<rect width="394" height="239" fill="white"/>
</clipPath>
</defs>
</svg>
