<svg width="657" height="479" viewBox="0 0 657 479" fill="none" xmlns="http://www.w3.org/2000/svg">
<path d="M248.383 352.659C248.076 352.656 247.783 352.535 247.564 352.321C247.345 352.106 247.218 351.815 247.21 351.509C247.207 351.359 247.235 351.21 247.29 351.072C247.345 350.933 247.428 350.806 247.532 350.699C247.637 350.592 247.761 350.507 247.899 350.448C248.037 350.39 248.185 350.359 248.334 350.359C250.634 350.313 252.934 350.244 255.145 350.152C255.296 350.144 255.447 350.166 255.589 350.217C255.732 350.268 255.863 350.346 255.975 350.448C256.087 350.549 256.178 350.672 256.243 350.808C256.307 350.945 256.345 351.093 256.352 351.244C256.36 351.395 256.337 351.546 256.287 351.689C256.236 351.831 256.157 351.962 256.056 352.074C255.955 352.186 255.832 352.277 255.695 352.342C255.559 352.407 255.411 352.444 255.26 352.452C253.052 352.544 250.752 352.636 248.383 352.659ZM237.918 352.567C237.688 352.456 236.538 352.596 230.972 352.222C230.822 352.212 230.675 352.173 230.54 352.106C230.406 352.039 230.285 351.946 230.187 351.832C230.089 351.719 230.014 351.587 229.967 351.444C229.92 351.301 229.902 351.15 229.914 351C229.923 350.849 229.962 350.702 230.028 350.566C230.094 350.43 230.186 350.308 230.3 350.208C230.413 350.108 230.545 350.031 230.688 349.982C230.831 349.933 230.982 349.912 231.133 349.922C233.41 350.083 235.71 350.198 237.941 350.244C238.249 350.247 238.543 350.372 238.759 350.592C238.974 350.812 239.094 351.109 239.091 351.417C239.088 351.725 238.962 352.019 238.742 352.235C238.522 352.45 238.226 352.57 237.918 352.567ZM265.633 351.739C265.353 351.718 265.091 351.596 264.895 351.395C264.699 351.195 264.583 350.93 264.569 350.65C264.555 350.37 264.644 350.094 264.818 349.875C264.993 349.656 265.242 349.508 265.518 349.459C267.818 349.255 270.095 348.999 272.303 348.749C272.458 348.718 272.618 348.72 272.773 348.753C272.927 348.787 273.073 348.853 273.202 348.946C273.33 349.039 273.437 349.158 273.518 349.294C273.598 349.431 273.649 349.582 273.668 349.739C273.687 349.897 273.673 350.056 273.627 350.208C273.582 350.359 273.505 350.5 273.403 350.621C273.3 350.742 273.174 350.84 273.032 350.909C272.89 350.979 272.735 351.019 272.576 351.026C271.824 351.113 266.396 351.739 265.633 351.739ZM220.645 351.302C220.325 351.302 215.714 350.674 213.676 350.382C213.403 350.344 213.153 350.209 212.971 350.002C212.789 349.795 212.687 349.53 212.684 349.255C212.686 349.088 212.724 348.924 212.794 348.773C212.864 348.622 212.966 348.488 213.092 348.379C213.218 348.27 213.366 348.19 213.526 348.142C213.686 348.095 213.853 348.082 214.018 348.105C216.275 348.45 218.552 348.749 220.783 349.002C221.088 349.02 221.373 349.159 221.576 349.387C221.778 349.616 221.882 349.916 221.864 350.221C221.845 350.526 221.707 350.811 221.478 351.014C221.249 351.216 220.95 351.32 220.645 351.302ZM282.791 349.485C282.506 349.485 282.23 349.379 282.019 349.188C281.807 348.997 281.674 348.734 281.645 348.45C281.617 348.166 281.695 347.882 281.864 347.653C282.033 347.423 282.281 347.264 282.561 347.208C282.634 347.208 284.861 346.771 284.927 346.771C285.134 346.771 285.336 346.827 285.513 346.932C285.691 347.038 285.836 347.189 285.935 347.37C286.034 347.551 286.082 347.755 286.075 347.961C286.067 348.168 286.005 348.368 285.893 348.542C285.521 349.133 284.849 349.114 282.975 349.462C282.916 349.482 282.853 349.49 282.791 349.485ZM203.556 348.542C203.114 348.542 197.576 347.194 196.61 346.955C196.457 346.924 196.313 346.863 196.185 346.775C196.057 346.688 195.948 346.575 195.864 346.444C195.781 346.313 195.725 346.166 195.7 346.013C195.675 345.859 195.681 345.703 195.718 345.552C195.755 345.401 195.823 345.259 195.916 345.135C196.01 345.011 196.127 344.907 196.262 344.83C196.397 344.752 196.546 344.703 196.7 344.685C196.854 344.667 197.01 344.68 197.159 344.724C199.324 345.276 201.486 345.782 203.809 346.265C204.09 346.321 204.341 346.482 204.51 346.714C204.68 346.946 204.756 347.233 204.724 347.519C204.692 347.805 204.555 348.068 204.339 348.257C204.122 348.447 203.843 348.548 203.556 348.542ZM186.858 344.1C186.283 344.1 180.457 341.954 179.981 341.78C179.694 341.673 179.461 341.457 179.334 341.178C179.207 340.9 179.195 340.583 179.302 340.296C179.409 340.009 179.625 339.777 179.903 339.65C180.182 339.522 180.499 339.511 180.786 339.618C182.833 340.4 184.995 341.133 187.203 341.849C187.469 341.928 187.697 342.101 187.845 342.336C187.993 342.57 188.052 342.85 188.01 343.125C187.968 343.399 187.828 343.649 187.616 343.828C187.405 344.007 187.135 344.104 186.858 344.1ZM170.252 337.732C168.11 336.743 166.043 335.708 164.065 334.673C163.793 334.532 163.589 334.29 163.496 333.999C163.403 333.708 163.43 333.392 163.57 333.12C163.711 332.849 163.953 332.644 164.244 332.551C164.535 332.459 164.851 332.485 165.123 332.626C167.124 333.684 169.168 334.696 171.218 335.639C171.355 335.702 171.479 335.792 171.581 335.903C171.684 336.014 171.764 336.145 171.816 336.287C171.869 336.429 171.892 336.58 171.886 336.731C171.88 336.882 171.845 337.031 171.781 337.168C171.718 337.306 171.628 337.429 171.517 337.532C171.406 337.634 171.275 337.714 171.133 337.767C170.991 337.819 170.84 337.843 170.689 337.837C170.538 337.831 170.389 337.795 170.252 337.732ZM154.934 329.406C152.956 328.141 151.024 326.85 149.207 325.542C149.084 325.456 148.98 325.347 148.899 325.22C148.819 325.094 148.765 324.953 148.739 324.805C148.713 324.658 148.717 324.507 148.75 324.361C148.783 324.215 148.844 324.077 148.931 323.955C149.114 323.713 149.382 323.549 149.681 323.498C149.98 323.446 150.287 323.51 150.541 323.676C152.309 324.944 154.152 326.183 156.176 327.474C156.415 327.646 156.578 327.903 156.633 328.192C156.688 328.482 156.63 328.781 156.471 329.029C156.312 329.276 156.063 329.453 155.777 329.524C155.491 329.594 155.189 329.552 154.934 329.406ZM141.64 319.332C141.368 319.334 141.105 319.236 140.901 319.056C139.202 317.607 137.451 316.089 135.775 314.433C135.665 314.327 135.578 314.201 135.518 314.062C135.457 313.923 135.425 313.773 135.423 313.621C135.421 313.469 135.449 313.318 135.505 313.177C135.562 313.036 135.645 312.908 135.752 312.8C135.959 312.589 136.24 312.467 136.536 312.458C136.831 312.449 137.119 312.554 137.339 312.751C138.259 313.658 140.487 315.684 142.399 317.308C142.578 317.461 142.706 317.666 142.765 317.895C142.824 318.123 142.811 318.364 142.728 318.585C142.645 318.807 142.496 318.997 142.302 319.13C142.107 319.264 141.876 319.334 141.64 319.332ZM128.507 306.82C127.009 305.12 125.54 303.349 124.091 301.486C123.987 301.368 123.909 301.23 123.861 301.08C123.813 300.931 123.796 300.773 123.811 300.617C123.826 300.461 123.874 300.309 123.95 300.172C124.025 300.034 124.129 299.914 124.253 299.818C124.377 299.722 124.52 299.653 124.672 299.614C124.824 299.575 124.983 299.568 125.138 299.593C125.293 299.618 125.441 299.674 125.573 299.758C125.706 299.842 125.82 299.953 125.908 300.083C127.357 301.946 128.826 303.694 130.232 305.304C130.413 305.535 130.498 305.827 130.471 306.119C130.444 306.412 130.306 306.683 130.085 306.877C129.865 307.07 129.578 307.173 129.285 307.162C128.991 307.151 128.713 307.029 128.507 306.82ZM118.939 293.436C118.748 293.44 118.559 293.395 118.39 293.306C118.221 293.217 118.078 293.087 117.973 292.928C116.731 290.998 115.509 289.043 114.339 287.042C114.189 286.78 114.149 286.47 114.226 286.178C114.303 285.887 114.492 285.637 114.751 285.483C115.011 285.33 115.32 285.284 115.613 285.356C115.906 285.428 116.158 285.612 116.317 285.869C116.418 285.97 117.54 288.095 119.902 291.665C120.013 291.838 120.075 292.038 120.082 292.244C120.089 292.449 120.041 292.653 119.943 292.834C119.844 293.014 119.699 293.165 119.523 293.271C119.346 293.376 119.144 293.435 118.939 293.436ZM109.417 277.75C108.324 275.562 107.341 273.32 106.473 271.034C106.471 270.768 106.561 270.51 106.727 270.303C106.894 270.096 107.128 269.953 107.388 269.899C107.648 269.844 107.919 269.882 108.155 270.005C108.391 270.128 108.577 270.329 108.681 270.574C109.552 272.598 110.498 274.668 111.484 276.761C111.566 276.898 111.617 277.051 111.636 277.209C111.655 277.368 111.641 277.529 111.594 277.681C111.548 277.834 111.47 277.975 111.366 278.096C111.262 278.217 111.133 278.315 110.989 278.384C110.845 278.452 110.689 278.49 110.529 278.495C110.37 278.5 110.211 278.472 110.063 278.412C109.915 278.352 109.781 278.262 109.67 278.148C109.559 278.033 109.472 277.899 109.417 277.75ZM102.77 261.673C102.057 259.649 101.344 257.441 100.631 255.141C100.539 254.848 100.568 254.531 100.71 254.259C100.852 253.987 101.097 253.783 101.39 253.692C101.682 253.6 102 253.629 102.271 253.771C102.543 253.914 102.747 254.158 102.839 254.451C103.529 256.682 104.219 258.844 104.952 260.912C105.002 261.055 105.023 261.207 105.015 261.358C105.006 261.51 104.967 261.658 104.901 261.794C104.835 261.931 104.743 262.053 104.629 262.154C104.516 262.255 104.384 262.333 104.241 262.382C104.097 262.432 103.946 262.453 103.794 262.445C103.643 262.436 103.494 262.397 103.358 262.331C103.221 262.265 103.099 262.173 102.998 262.059C102.897 261.946 102.82 261.814 102.77 261.671V261.673ZM97.8937 244.998C97.5602 243.807 96.3274 238.312 96.3274 238.052C96.3263 237.79 96.4149 237.535 96.5785 237.33C96.7421 237.125 96.9708 236.982 97.2267 236.925C97.5262 236.869 97.8359 236.929 98.0923 237.094C98.3488 237.259 98.5328 237.515 98.6067 237.81C98.6067 238.015 100.067 244.271 100.125 244.48C100.162 244.764 100.093 245.052 99.9301 245.287C99.7672 245.522 99.5224 245.688 99.2435 245.753C98.9647 245.817 98.6718 245.775 98.4222 245.635C98.1726 245.495 97.9841 245.267 97.8937 244.996V244.998ZM95.5017 228.944C95.23 228.942 94.9678 228.844 94.7615 228.667C94.5552 228.49 94.4182 228.246 94.3747 227.978C93.9837 225.701 93.6157 223.424 93.3167 221.193C93.2749 220.892 93.3525 220.586 93.5329 220.341C93.7134 220.096 93.9825 219.931 94.2827 219.882C94.5862 219.848 94.891 219.932 95.1348 220.116C95.3785 220.3 95.5427 220.57 95.5937 220.871C95.8927 222.962 96.2147 225.17 96.6264 227.587C96.6597 227.752 96.6555 227.923 96.6142 228.087C96.5729 228.251 96.4955 228.403 96.3877 228.533C96.2798 228.663 96.1443 228.767 95.991 228.838C95.8377 228.908 95.6705 228.946 95.5017 228.944ZM93.2247 211.809C92.9377 211.808 92.6616 211.699 92.4524 211.502C92.2432 211.306 92.1164 211.037 92.0977 210.751C91.8907 208.566 91.7067 206.312 91.5687 203.895C91.5507 203.59 91.6546 203.29 91.8575 203.062C92.0605 202.833 92.3458 202.695 92.6508 202.677C92.9558 202.659 93.2555 202.763 93.4839 202.966C93.7123 203.169 93.8507 203.454 93.8687 203.759C93.9837 205.99 94.1677 208.267 94.3747 210.544C94.3905 210.704 94.3724 210.866 94.3218 211.019C94.2711 211.171 94.1889 211.312 94.0805 211.431C93.9721 211.55 93.8399 211.645 93.6925 211.71C93.545 211.774 93.3857 211.807 93.2247 211.807V211.809ZM92.3737 194.536C92.07 194.532 91.7799 194.409 91.5651 194.194C91.3504 193.98 91.2279 193.69 91.2237 193.386C91.1524 192.006 91.2559 187.866 91.2927 186.486C91.3046 186.189 91.431 185.908 91.6454 185.702C91.8598 185.496 92.1455 185.382 92.4427 185.382C92.7502 185.386 93.0437 185.511 93.2592 185.73C93.4746 185.949 93.5945 186.245 93.5927 186.553C93.5444 190.184 93.5007 191.074 93.5007 193.386C93.5002 193.687 93.3819 193.975 93.1712 194.19C92.9606 194.404 92.6743 194.53 92.3737 194.536ZM92.9487 177.261C92.6495 177.227 92.3748 177.08 92.1819 176.849C91.989 176.618 91.8929 176.321 91.9137 176.021C92.1184 173.652 92.3737 171.352 92.6497 169.167C92.6893 168.862 92.8485 168.585 93.0922 168.398C93.2129 168.305 93.3507 168.236 93.4977 168.197C93.6448 168.157 93.7982 168.147 93.9492 168.166C94.1002 168.186 94.2459 168.235 94.3779 168.311C94.5099 168.387 94.6257 168.488 94.7186 168.609C94.8115 168.73 94.8797 168.867 94.9194 169.014C94.959 169.161 94.9693 169.315 94.9497 169.466C94.6507 171.603 94.4184 173.811 94.2137 176.228C94.174 176.529 94.0209 176.803 93.7858 176.994C93.5506 177.186 93.2512 177.283 92.9487 177.261ZM94.3517 158.794C95.2096 154.403 95.8237 152.285 95.8237 152.053C95.9039 151.758 96.0944 151.506 96.3555 151.348C96.6167 151.19 96.9286 151.138 97.2267 151.204C97.5235 151.281 97.7786 151.47 97.9376 151.732C98.0966 151.994 98.1468 152.308 98.0777 152.607C97.5027 154.907 97.0427 157.069 96.6057 159.229C96.533 159.513 96.3545 159.758 96.1067 159.915C95.8589 160.072 95.5606 160.128 95.2728 160.072C94.9849 160.016 94.7292 159.853 94.558 159.615C94.3868 159.377 94.313 159.085 94.3517 158.794ZM99.7774 143.428C99.5967 143.428 99.4184 143.386 99.257 143.305C99.0955 143.224 98.9555 143.106 98.8482 142.961C98.7409 142.815 98.6693 142.646 98.6394 142.468C98.6094 142.29 98.6219 142.107 98.6757 141.935C99.3887 139.727 100.125 137.519 100.927 135.403C101.03 135.162 101.212 134.963 101.443 134.839C101.674 134.715 101.94 134.674 102.198 134.722C102.456 134.77 102.689 134.905 102.859 135.104C103.03 135.303 103.127 135.555 103.135 135.817C103.135 136.316 102.708 136.831 100.861 142.625C100.79 142.857 100.646 143.06 100.451 143.204C100.256 143.348 100.02 143.428 99.7774 143.428ZM104.932 125.672C105.898 123.576 106.868 121.463 107.945 119.462C108.094 119.196 108.339 118.998 108.63 118.908C108.921 118.818 109.236 118.844 109.509 118.979C109.772 119.119 109.972 119.354 110.066 119.638C110.16 119.921 110.142 120.229 110.015 120.499C109.785 120.729 107.618 125.329 107.025 126.64C106.896 126.917 106.663 127.133 106.376 127.238C106.089 127.344 105.772 127.331 105.494 127.202C105.217 127.074 105.001 126.84 104.896 126.553C104.79 126.266 104.803 125.949 104.932 125.672ZM113.12 110.285C114.339 108.35 115.601 106.398 116.892 104.509C117.031 104.309 117.231 104.159 117.461 104.08C117.692 104.001 117.941 103.997 118.174 104.069C118.407 104.141 118.611 104.285 118.757 104.48C118.902 104.675 118.982 104.912 118.985 105.156C118.985 105.896 118.681 105.664 115.098 111.501C114.936 111.764 114.677 111.951 114.378 112.022C114.078 112.094 113.763 112.043 113.5 111.882C113.238 111.721 113.051 111.462 112.979 111.162C112.908 110.863 112.958 110.547 113.12 110.285ZM124.068 97.9083C123.852 97.9074 123.642 97.846 123.459 97.7312C123.277 97.6164 123.131 97.4527 123.037 97.2587C122.943 97.0648 122.906 96.8485 122.929 96.6343C122.952 96.4202 123.035 96.2169 123.168 96.0476C124.574 94.2996 126.069 92.5263 127.633 90.7806C127.789 90.6109 127.991 90.4911 128.215 90.4364C128.439 90.3817 128.674 90.3945 128.89 90.4732C129.107 90.552 129.295 90.6931 129.432 90.8788C129.568 91.0645 129.646 91.2864 129.657 91.5166C129.657 92.2365 129.657 91.7742 124.965 97.4736C124.858 97.6096 124.722 97.7195 124.567 97.7948C124.411 97.8701 124.24 97.909 124.068 97.9083ZM134.947 83.1676C136.649 81.5576 138.374 79.9936 140.076 78.5216C140.242 78.384 140.443 78.2958 140.656 78.267C140.87 78.2382 141.087 78.27 141.283 78.3587C141.48 78.4474 141.647 78.5895 141.767 78.7687C141.886 78.948 141.953 79.1572 141.959 79.3726C142.022 80.2351 141.697 79.9016 136.557 84.8236C136.337 85.0371 136.042 85.1546 135.735 85.1503C135.429 85.146 135.137 85.0202 134.924 84.8006C134.71 84.581 134.593 84.2856 134.597 83.9793C134.601 83.6731 134.727 83.3811 134.947 83.1676ZM148.376 71.9896C150.262 70.6013 152.229 69.3263 154.267 68.1716C154.403 68.082 154.557 68.0225 154.717 67.9968C154.878 67.9711 155.043 67.9799 155.2 68.0227C155.358 68.0654 155.504 68.1411 155.63 68.2447C155.756 68.3484 155.858 68.4775 155.93 68.6237C156.002 68.7699 156.042 68.9297 156.048 69.0926C156.054 69.2555 156.025 69.4177 155.963 69.5685C155.901 69.7193 155.808 69.8552 155.689 69.9673C155.571 70.0794 155.43 70.1651 155.276 70.2186C153.692 71.1386 151.714 72.4266 149.71 73.8503C149.463 73.994 149.171 74.0404 148.892 73.9804C148.612 73.9204 148.365 73.7585 148.198 73.526C148.031 73.2936 147.957 73.0074 147.99 72.7233C148.023 72.4393 148.161 72.1777 148.376 71.9896Z" fill="#000001"/>
<path d="M298.45 248.055C297.84 248.055 293.245 246.705 292.541 246.491C292.395 246.451 292.258 246.381 292.139 246.287C292.02 246.193 291.921 246.076 291.849 245.943C291.776 245.81 291.73 245.664 291.715 245.513C291.699 245.362 291.714 245.21 291.759 245.065C291.854 244.775 292.059 244.533 292.329 244.391C292.6 244.25 292.915 244.219 293.208 244.306C295.184 244.902 297.095 245.433 298.613 245.776C298.89 245.828 299.139 245.98 299.312 246.204C299.484 246.427 299.568 246.707 299.548 246.988C299.528 247.27 299.405 247.534 299.202 247.731C299 247.928 298.732 248.043 298.45 248.055ZM282.996 243.018C280.7 242.188 278.451 241.236 276.257 240.166C276.117 240.104 275.99 240.015 275.885 239.903C275.78 239.792 275.699 239.66 275.645 239.517C275.591 239.373 275.567 239.22 275.573 239.067C275.58 238.914 275.617 238.764 275.682 238.625C275.748 238.489 275.841 238.367 275.954 238.267C276.067 238.167 276.199 238.09 276.342 238.041C276.486 237.991 276.637 237.971 276.788 237.981C276.939 237.99 277.087 238.029 277.223 238.096C279.247 239.039 281.34 239.959 283.433 240.81C283.676 240.913 283.876 241.097 283.999 241.331C284.122 241.564 284.162 241.833 284.11 242.091C284.059 242.35 283.92 242.584 283.717 242.752C283.515 242.921 283.26 243.015 282.996 243.018ZM266.873 235.267C264.826 234.071 262.841 232.877 261.019 231.61C260.892 231.528 260.783 231.421 260.697 231.297C260.611 231.172 260.551 231.032 260.519 230.884C260.487 230.736 260.485 230.583 260.513 230.434C260.54 230.285 260.597 230.143 260.679 230.016C260.761 229.889 260.868 229.78 260.992 229.694C261.117 229.608 261.257 229.547 261.405 229.516C261.553 229.484 261.706 229.482 261.855 229.51C262.004 229.537 262.146 229.593 262.273 229.676C264.159 230.943 266.091 232.139 268.046 233.289C268.302 233.447 268.487 233.7 268.559 233.993C268.631 234.286 268.585 234.595 268.431 234.855C268.278 235.114 268.028 235.302 267.736 235.38C267.445 235.457 267.135 235.416 266.873 235.267ZM253.234 225.584C252.97 225.584 252.716 225.485 252.521 225.308C250.704 223.813 248.983 222.263 247.346 220.731C247.222 220.632 247.119 220.509 247.045 220.369C246.971 220.229 246.926 220.075 246.914 219.917C246.902 219.759 246.923 219.6 246.976 219.45C247.028 219.301 247.111 219.163 247.219 219.047C247.327 218.931 247.458 218.839 247.603 218.776C247.749 218.713 247.906 218.68 248.064 218.681C248.223 218.681 248.38 218.714 248.525 218.778C248.67 218.842 248.8 218.935 248.908 219.052C250.497 220.568 252.199 222.088 253.968 223.535C254.155 223.684 254.291 223.889 254.357 224.12C254.423 224.35 254.414 224.596 254.334 224.822C254.253 225.048 254.103 225.243 253.906 225.379C253.709 225.516 253.474 225.588 253.234 225.584ZM240.101 212.98C238.629 211.209 237.226 209.346 235.892 207.46C235.784 207.26 235.714 207.041 235.683 206.816C235.687 206.574 235.767 206.34 235.911 206.146C236.055 205.951 236.255 205.806 236.485 205.73C236.714 205.655 236.962 205.652 237.193 205.723C237.424 205.794 237.628 205.935 237.776 206.126C238.006 206.338 238.903 207.941 241.872 211.531C242.029 211.769 242.092 212.056 242.05 212.338C242.007 212.62 241.862 212.875 241.641 213.056C241.421 213.236 241.141 213.328 240.856 213.314C240.572 213.3 240.303 213.181 240.101 212.98ZM231.451 199.019C231.24 199.023 231.033 198.967 230.854 198.857C230.675 198.747 230.532 198.588 230.441 198.398C229.358 196.328 228.392 194.21 227.52 192.096C227.461 191.957 227.43 191.808 227.429 191.657C227.428 191.507 227.458 191.357 227.516 191.218C227.573 191.079 227.659 190.952 227.766 190.846C227.873 190.74 228.001 190.657 228.141 190.601C228.424 190.493 228.738 190.5 229.017 190.62C229.296 190.74 229.517 190.963 229.634 191.243C230.508 193.338 231.451 195.408 232.465 197.34C232.555 197.515 232.6 197.71 232.593 197.907C232.587 198.103 232.53 198.295 232.428 198.464C232.326 198.632 232.183 198.772 232.012 198.869C231.841 198.966 231.647 199.018 231.451 199.019ZM225.266 182.942C225.01 182.946 224.76 182.864 224.556 182.71C224.352 182.556 224.205 182.338 224.139 182.091C223.603 180.021 222.621 175.536 222.621 175.143C222.608 174.853 222.705 174.569 222.893 174.348C223.08 174.127 223.345 173.985 223.632 173.951C223.92 173.916 224.211 173.991 224.445 174.162C224.68 174.332 224.842 174.585 224.898 174.869C225.256 177.104 225.747 179.316 226.37 181.493C226.416 181.663 226.422 181.841 226.388 182.014C226.354 182.187 226.281 182.349 226.174 182.489C226.067 182.629 225.93 182.743 225.773 182.821C225.615 182.9 225.442 182.941 225.266 182.942ZM221.379 164.841C221.149 160.255 221.241 158.808 221.241 157.893C221.247 157.588 221.375 157.298 221.595 157.087C221.815 156.876 222.11 156.761 222.415 156.767C222.72 156.773 223.01 156.901 223.221 157.121C223.432 157.341 223.547 157.636 223.541 157.941C223.541 159.091 223.437 160.19 223.679 164.68C223.689 164.831 223.67 164.983 223.622 165.126C223.574 165.27 223.498 165.403 223.399 165.517C223.198 165.748 222.914 165.889 222.609 165.911C222.304 165.932 222.003 165.831 221.773 165.631C221.542 165.43 221.4 165.146 221.379 164.841ZM223.125 148.672C222.822 148.618 222.553 148.449 222.372 148.2C222.192 147.951 222.116 147.642 222.159 147.338C222.55 145.038 223.033 142.738 223.587 140.551C223.672 140.256 223.868 140.005 224.134 139.851C224.399 139.697 224.715 139.652 225.013 139.725C225.304 139.806 225.552 139.998 225.703 140.26C225.853 140.522 225.895 140.833 225.818 141.126C225.266 143.267 224.806 145.475 224.438 147.706C224.415 147.856 224.364 148 224.285 148.13C224.207 148.259 224.104 148.372 223.982 148.462C223.86 148.552 223.721 148.617 223.574 148.653C223.427 148.689 223.274 148.695 223.125 148.672ZM228.118 132.135C227.926 132.136 227.738 132.089 227.569 131.999C227.4 131.909 227.256 131.778 227.151 131.618C227.046 131.458 226.982 131.274 226.966 131.083C226.949 130.892 226.981 130.701 227.058 130.525C227.978 128.409 229.015 126.316 230.142 124.292C230.3 124.044 230.547 123.866 230.832 123.795C231.118 123.723 231.42 123.764 231.676 123.908C231.932 124.053 232.123 124.29 232.21 124.571C232.297 124.852 232.273 125.155 232.143 125.419C228.987 131.052 229.41 132.135 228.118 132.135ZM236.881 117.3C236.669 117.296 236.463 117.233 236.285 117.119C236.106 117.005 235.963 116.844 235.87 116.654C235.777 116.464 235.739 116.252 235.759 116.041C235.779 115.83 235.857 115.629 235.984 115.46C237.387 113.643 238.889 111.879 240.446 110.17C240.659 109.948 240.948 109.816 241.255 109.798C241.561 109.781 241.863 109.881 242.1 110.078C242.32 110.284 242.451 110.567 242.464 110.869C242.478 111.17 242.372 111.464 242.171 111.688C237.506 116.778 237.925 117.3 236.881 117.3ZM248.864 104.857C248.63 104.855 248.401 104.782 248.21 104.647C248.018 104.512 247.873 104.321 247.793 104.101C247.712 103.881 247.701 103.642 247.761 103.415C247.82 103.188 247.947 102.985 248.126 102.833C249.115 101.989 253.39 98.5321 253.625 98.5321C253.869 98.3552 254.173 98.2825 254.471 98.3299C254.768 98.3774 255.035 98.5411 255.212 98.7851C255.389 99.0291 255.461 99.3334 255.414 99.631C255.367 99.9286 255.203 100.195 254.959 100.372C254.945 100.384 254.936 100.4 254.934 100.418C254.89 100.441 254.867 100.464 254.821 100.485C249.37 104.468 249.687 104.857 248.864 104.857ZM263.009 94.9211C262.758 94.9185 262.515 94.8339 262.316 94.6802C262.118 94.5265 261.975 94.3121 261.91 94.0697C261.845 93.8273 261.861 93.5703 261.955 93.3378C262.05 93.1053 262.218 92.9101 262.434 92.7821C264.412 91.6321 266.457 90.5005 268.529 89.4678C268.703 89.3868 268.895 89.3502 269.086 89.3612C269.278 89.3723 269.464 89.4306 269.628 89.5311C269.792 89.6315 269.928 89.7709 270.025 89.9368C270.122 90.1028 270.176 90.2901 270.183 90.4821C270.19 90.6988 270.135 90.9132 270.026 91.1004C269.916 91.2876 269.756 91.44 269.564 91.5401C264.244 94.1667 263.738 94.9211 263.009 94.9211ZM278.189 85.1691C279.491 84.6723 284.546 82.8921 284.859 82.8921C285.15 82.8314 285.454 82.8826 285.71 83.0356C285.966 83.1885 286.154 83.4321 286.239 83.7178C286.317 84.0108 286.276 84.323 286.126 84.5862C285.975 84.8494 285.726 85.0424 285.434 85.1231C285.162 85.2519 283.184 85.705 279.04 87.3311C278.753 87.4439 278.433 87.4383 278.151 87.3153C277.868 87.1924 277.646 86.9623 277.533 86.6756C277.42 86.3889 277.426 86.0691 277.549 85.7866C277.672 85.5041 277.902 85.2819 278.189 85.1691Z" fill="#000001"/>
<path d="M448.069 264.569C448.41 263.748 448.299 264.291 454.578 260.634C454.754 260.527 454.954 260.469 455.159 260.466C455.364 260.463 455.566 260.515 455.744 260.616C455.922 260.717 456.07 260.864 456.172 261.041C456.275 261.218 456.328 261.42 456.326 261.625C456.328 261.823 456.277 262.019 456.181 262.192C456.084 262.365 455.944 262.511 455.774 262.614C453.704 263.833 451.657 264.96 449.702 265.972C449.497 266.072 449.266 266.11 449.039 266.08C448.812 266.051 448.599 265.956 448.425 265.807C448.252 265.658 448.126 265.461 448.062 265.241C447.999 265.021 448.002 264.787 448.069 264.569ZM462.81 255.691C462.944 254.847 463.346 255.137 468.677 250.861C468.846 250.721 469.052 250.632 469.27 250.605C469.488 250.578 469.709 250.614 469.907 250.709C470.105 250.803 470.272 250.952 470.388 251.139C470.504 251.325 470.564 251.541 470.561 251.76C470.562 251.93 470.523 252.097 470.447 252.249C470.372 252.4 470.262 252.532 470.126 252.634C468.309 254.103 466.469 255.506 464.606 256.843C464.419 256.976 464.197 257.05 463.967 257.056C463.738 257.061 463.512 256.998 463.319 256.874C463.126 256.75 462.974 256.571 462.883 256.36C462.793 256.15 462.767 255.916 462.81 255.691ZM476.451 244.007C478.084 242.443 479.671 240.81 481.189 239.152C481.404 238.938 481.691 238.812 481.993 238.8C482.295 238.788 482.591 238.889 482.822 239.085C483.044 239.295 483.175 239.583 483.188 239.887C483.201 240.192 483.095 240.49 482.891 240.718C481.373 242.374 479.74 244.051 478.061 245.663C477.842 245.876 477.546 245.994 477.24 245.99C476.934 245.985 476.642 245.86 476.428 245.64C476.215 245.42 476.097 245.125 476.102 244.819C476.106 244.512 476.232 244.22 476.451 244.007ZM488.71 233.034C488.498 233.037 488.29 232.981 488.108 232.871C487.926 232.762 487.779 232.603 487.683 232.414C487.587 232.225 487.547 232.012 487.565 231.801C487.584 231.59 487.662 231.388 487.79 231.219C489.124 229.448 490.41 227.56 491.652 225.651C491.827 225.4 492.091 225.225 492.39 225.162C492.688 225.098 493 225.15 493.262 225.308C493.51 225.479 493.682 225.74 493.742 226.035C493.803 226.331 493.746 226.638 493.584 226.893C492.365 228.802 491.031 230.713 489.626 232.576C489.522 232.721 489.385 232.839 489.225 232.919C489.066 232.998 488.889 233.038 488.71 233.034ZM496.714 217.557C496.383 216.761 496.979 216.761 499.566 210.542C499.669 210.301 499.851 210.102 500.082 209.978C500.313 209.854 500.579 209.813 500.837 209.861C501.095 209.909 501.328 210.044 501.499 210.243C501.669 210.443 501.766 210.694 501.774 210.956C500.941 213.272 499.957 215.531 498.828 217.718C498.725 217.919 498.564 218.086 498.367 218.196C498.169 218.307 497.944 218.356 497.718 218.339C497.492 218.322 497.277 218.239 497.098 218.1C496.92 217.96 496.786 217.772 496.714 217.557ZM503.016 201.664C502.556 200.951 503.134 200.804 504.486 194.235C504.54 193.955 504.696 193.705 504.924 193.533C505.152 193.362 505.435 193.281 505.72 193.307C506.004 193.332 506.268 193.463 506.461 193.673C506.655 193.883 506.763 194.157 506.765 194.442C506.765 195.132 505.487 200.125 505.132 201.409C505.072 201.63 504.948 201.827 504.775 201.977C504.602 202.127 504.388 202.221 504.16 202.249C503.933 202.276 503.703 202.235 503.499 202.131C503.295 202.027 503.127 201.864 503.016 201.664ZM506.995 185.288C506.696 185.254 506.421 185.106 506.228 184.875C506.036 184.643 505.94 184.346 505.96 184.046C506.167 181.815 506.282 179.538 506.328 177.284C506.335 176.979 506.462 176.689 506.682 176.478C506.902 176.266 507.196 176.151 507.501 176.157C507.806 176.163 508.097 176.29 508.308 176.51C508.519 176.73 508.635 177.025 508.628 177.33C508.582 179.676 508.444 181.999 508.235 184.23C508.224 184.381 508.182 184.528 508.114 184.663C508.045 184.798 507.95 184.918 507.835 185.016C507.72 185.115 507.586 185.189 507.442 185.236C507.298 185.283 507.146 185.3 506.995 185.288ZM506.098 166.934C505.96 164.68 505.753 162.401 505.5 160.193C505.467 159.888 505.557 159.582 505.749 159.343C505.941 159.104 506.22 158.951 506.525 158.917C506.83 158.884 507.136 158.973 507.375 159.165C507.614 159.358 507.767 159.637 507.8 159.942C508.053 162.127 508.26 164.45 508.398 166.796C508.417 167.101 508.313 167.401 508.11 167.629C507.908 167.858 507.622 167.997 507.317 168.015C507.012 168.033 506.713 167.93 506.484 167.727C506.256 167.524 506.117 167.239 506.098 166.934ZM504.994 150.901C504.733 150.902 504.479 150.814 504.274 150.651C504.069 150.489 503.926 150.261 503.867 150.006C503.428 147.821 502.878 145.613 502.278 143.426C502.193 143.133 502.228 142.819 502.375 142.552C502.521 142.285 502.768 142.087 503.06 142.002C503.356 141.927 503.669 141.968 503.935 142.118C504.2 142.268 504.398 142.515 504.486 142.807C505.086 144.969 505.636 147.246 506.119 149.523C506.156 149.69 506.155 149.863 506.116 150.03C506.076 150.197 506 150.352 505.891 150.485C505.783 150.618 505.646 150.724 505.491 150.796C505.335 150.868 505.166 150.904 504.994 150.901ZM498.968 133.651C498.14 131.56 497.197 129.49 496.231 127.489C496.161 127.355 496.118 127.209 496.105 127.058C496.093 126.907 496.11 126.756 496.157 126.612C496.204 126.468 496.28 126.335 496.379 126.221C496.478 126.107 496.599 126.014 496.735 125.948C497.012 125.825 497.324 125.811 497.611 125.909C497.897 126.007 498.136 126.21 498.278 126.477C499.29 128.501 500.233 130.64 501.107 132.802C501.163 132.942 501.191 133.092 501.188 133.244C501.186 133.395 501.154 133.544 501.094 133.683C501.034 133.821 500.948 133.947 500.839 134.052C500.731 134.157 500.603 134.24 500.462 134.296C500.322 134.352 500.172 134.379 500.021 134.377C499.87 134.375 499.721 134.343 499.582 134.283C499.443 134.223 499.318 134.136 499.212 134.028C499.107 133.919 499.024 133.791 498.968 133.651ZM492.068 119.071C490.918 119.071 491.277 118.277 487.169 113.091C487.074 112.974 487.003 112.839 486.96 112.694C486.918 112.549 486.905 112.397 486.922 112.247C486.939 112.097 486.986 111.952 487.06 111.82C487.134 111.689 487.234 111.573 487.353 111.481C487.592 111.293 487.895 111.207 488.196 111.241C488.498 111.276 488.774 111.428 488.963 111.665C490.412 113.482 491.772 115.391 493.037 117.3C493.148 117.474 493.211 117.674 493.218 117.881C493.225 118.087 493.177 118.291 493.078 118.473C492.979 118.654 492.833 118.805 492.655 118.91C492.478 119.016 492.275 119.071 492.068 119.071ZM481.12 105.752C480.159 105.752 480.483 105.197 475.301 100.901C475.179 100.803 475.078 100.681 475.005 100.542C474.932 100.404 474.888 100.252 474.875 100.095C474.863 99.939 474.882 99.7819 474.933 99.6335C474.984 99.4851 475.064 99.3486 475.169 99.2324C475.274 99.1162 475.402 99.0228 475.545 98.9578C475.687 98.8928 475.842 98.8577 475.999 98.8545C476.155 98.8514 476.311 98.8803 476.456 98.9396C476.601 98.9988 476.733 99.0871 476.842 99.199C478.567 100.625 480.269 102.166 481.925 103.776C482.083 103.939 482.189 104.143 482.232 104.365C482.275 104.587 482.252 104.817 482.167 105.026C482.081 105.235 481.937 105.415 481.751 105.544C481.566 105.673 481.346 105.745 481.12 105.752ZM467.594 94.99C466.759 94.99 466.994 94.53 461.133 91.402L461.11 91.3767C460.936 91.278 460.79 91.1346 460.689 90.9612C460.588 90.7878 460.535 90.5906 460.535 90.39C460.537 90.1931 460.588 89.9999 460.686 89.8287C460.783 89.6576 460.922 89.5142 461.091 89.4124C461.259 89.3106 461.451 89.2538 461.648 89.2474C461.845 89.2409 462.04 89.2851 462.214 89.3757C464.236 90.4337 466.26 91.632 468.217 92.874C468.426 93.0086 468.585 93.2071 468.672 93.4398C468.758 93.6725 468.767 93.9268 468.697 94.1649C468.627 94.403 468.481 94.612 468.283 94.7607C468.084 94.9094 467.842 94.9898 467.594 94.99ZM452.14 87.239C451.77 87.239 449.9 86.319 445.378 85.146C445.222 85.1259 445.071 85.0698 444.94 84.982C444.808 84.8942 444.698 84.7771 444.619 84.64C444.498 84.4498 444.434 84.2279 444.438 84.002C444.441 83.7761 444.511 83.5562 444.638 83.3698C444.766 83.1833 444.946 83.0385 445.155 82.9536C445.364 82.8686 445.594 82.8472 445.815 82.892C448.107 83.4423 450.358 84.1493 452.552 85.008C452.808 85.1007 453.023 85.2812 453.158 85.5174C453.293 85.7536 453.341 86.0301 453.291 86.2978C453.242 86.5655 453.099 86.807 452.888 86.9793C452.678 87.1516 452.413 87.2437 452.14 87.239Z" fill="#000001"/>
<path d="M162.145 49.5532C162.145 54.3478 163.089 59.0954 164.924 63.525C166.759 67.9546 169.448 71.9795 172.838 75.3698C176.228 78.7601 180.253 81.4494 184.683 83.2842C189.113 85.119 193.86 86.0634 198.655 86.0634C203.449 86.0634 208.197 85.119 212.627 83.2842C217.056 81.4494 221.081 78.7601 224.471 75.3698C227.862 71.9795 230.551 67.9546 232.386 63.525C234.221 59.0954 235.165 54.3478 235.165 49.5532C235.165 44.7586 234.221 40.0109 232.386 35.5813C230.551 31.1517 227.862 27.1268 224.471 23.7366C221.081 20.3463 217.056 17.657 212.627 15.8221C208.197 13.9873 203.449 13.043 198.655 13.043C193.86 13.043 189.113 13.9873 184.683 15.8221C180.253 17.657 176.228 20.3463 172.838 23.7366C169.448 27.1268 166.759 31.1517 164.924 35.5813C163.089 40.0109 162.145 44.7586 162.145 49.5532Z" fill="#81F889"/>
<path d="M235.051 49.9878H209.367C209.417 43.8834 208.99 37.7843 208.089 31.7465C214.042 30.5546 219.53 27.6811 223.901 23.4665C224.104 23.239 224.209 22.9401 224.191 22.6356C224.174 22.3311 224.037 22.0459 223.809 21.8427C223.582 21.6396 223.283 21.5352 222.978 21.5524C222.674 21.5697 222.388 21.7072 222.185 21.9347C218.146 25.7254 213.139 28.3273 207.716 29.4534C205.89 19.361 202.589 11.8193 197.952 11.8193C193.382 11.8193 190.112 19.1632 188.272 29.044C183.491 27.5403 179.059 25.0984 175.233 21.8611C175.125 21.7498 174.995 21.6616 174.851 21.6019C174.708 21.5422 174.554 21.5122 174.398 21.5138C174.243 21.5153 174.089 21.5483 173.947 21.6108C173.805 21.6733 173.676 21.764 173.57 21.8774C173.464 21.9909 173.382 22.1247 173.329 22.2707C173.276 22.4168 173.253 22.5721 173.261 22.7273C173.27 22.8825 173.31 23.0343 173.379 23.1736C173.448 23.3129 173.544 23.4368 173.662 23.5378C177.798 27.1172 182.643 29.7821 187.881 31.3578C186.935 37.5218 186.487 43.7519 186.54 49.9878H162.431C162.126 49.9878 161.834 50.109 161.618 50.3247C161.402 50.5403 161.281 50.8328 161.281 51.1378C161.281 51.4428 161.402 51.7353 161.618 51.951C161.834 52.1667 162.126 52.2878 162.431 52.2878H186.581C186.691 57.5082 187.161 62.7148 187.989 67.8703C182.714 69.4438 177.834 72.1194 173.671 75.7202C173.557 75.8223 173.464 75.9462 173.398 76.0847C173.332 76.2232 173.294 76.3735 173.287 76.5267C173.28 76.68 173.304 76.8331 173.357 76.977C173.41 77.121 173.491 77.2528 173.596 77.3649C173.701 77.4769 173.827 77.5668 173.967 77.6293C174.107 77.6918 174.259 77.7257 174.412 77.7289C174.565 77.7321 174.718 77.7046 174.86 77.648C175.003 77.5914 175.133 77.5068 175.242 77.3992C179.101 74.134 183.576 71.678 188.403 70.1772C190.261 79.7498 193.486 86.8016 197.962 86.8016C202.5 86.8016 205.754 79.5589 207.601 69.7816C213.066 70.9088 218.116 73.518 222.197 77.3233C222.401 77.5473 222.686 77.6816 222.988 77.6969C223.291 77.7122 223.588 77.6073 223.813 77.4051C224.039 77.2029 224.176 76.9197 224.194 76.6171C224.212 76.3145 224.11 76.017 223.91 75.7892C219.511 71.5539 213.987 68.6732 207.997 67.4908C208.785 62.4574 209.235 57.3769 209.344 52.2832H235.051C235.356 52.2832 235.649 52.1621 235.865 51.9464C236.08 51.7307 236.201 51.4382 236.201 51.1332C236.201 50.8282 236.08 50.5357 235.865 50.3201C235.649 50.1044 235.356 49.9832 235.051 49.9832V49.9878ZM197.952 14.1239C200.729 14.1239 203.702 20.1315 205.476 29.9249C200.514 30.9081 195.4 30.8195 190.475 29.665C192.253 20.0211 195.199 14.1239 197.952 14.1239ZM190.08 31.9535C195.266 33.1327 200.641 33.2165 205.862 32.1996C206.726 38.0887 207.128 44.0362 207.065 49.9878H188.842C188.777 43.9531 189.191 37.9228 190.08 31.9535ZM197.952 84.5016C195.257 84.5016 192.37 78.862 190.592 69.5746C195.448 68.4472 200.487 68.3625 205.377 69.3262C203.583 78.7585 200.68 84.5016 197.952 84.5016ZM205.772 67.0492C200.619 66.0556 195.316 66.1339 190.195 67.2792C189.414 62.3158 188.976 57.3045 188.884 52.2809H207.042C206.948 57.2268 206.521 62.1608 205.763 67.0492H205.772Z" fill="white"/>
<path d="M198.652 87.213C191.204 87.213 183.923 85.0043 177.73 80.8661C171.536 76.728 166.709 70.8462 163.859 63.9647C161.009 57.0832 160.263 49.511 161.716 42.2057C163.169 34.9003 166.756 28.1899 172.023 22.923C177.289 17.6561 184 14.0694 191.305 12.6162C198.611 11.1631 206.183 11.9089 213.064 14.7593C219.946 17.6097 225.828 22.4367 229.966 28.6299C234.104 34.8231 236.313 42.1043 236.313 49.5528C236.301 59.5374 232.33 69.1096 225.269 76.1698C218.209 83.2299 208.637 87.2014 198.652 87.213ZM198.652 14.1926C191.659 14.1926 184.822 16.2664 179.007 20.1519C173.192 24.0373 168.66 29.5598 165.984 36.021C163.308 42.4823 162.607 49.592 163.972 56.4512C165.336 63.3104 168.704 69.611 173.649 74.5562C178.594 79.5014 184.895 82.8692 191.754 84.2336C198.613 85.5979 205.723 84.8977 212.184 82.2214C218.645 79.545 224.168 75.0128 228.053 69.1979C231.939 63.3829 234.013 56.5464 234.013 49.5528C234.003 40.1777 230.274 31.1893 223.645 24.5601C217.016 17.9309 208.028 14.2023 198.652 14.1926Z" fill="#000001"/>
<path fill-rule="evenodd" clip-rule="evenodd" d="M306.791 304.092C307.182 296.159 310.931 292.769 310.949 273.759C310.949 254.6 333.54 245.952 338.089 244.72C342.08 243.639 350.095 237.698 352.034 236.23C352.739 234.803 353.722 233.531 354.925 232.488L383.99 229.31C385.244 230.389 386.157 231.81 386.617 233.399C391.23 237.811 396.386 241.617 401.96 244.726C409.028 248.11 423.325 249.368 428.548 264.55C433.771 279.732 433.629 285.524 436.853 293.689C439.685 300.865 452.358 325.362 444.186 331.657C436.014 337.952 424.551 335.07 424.551 335.07L414.201 331.657L401.969 304.287C299.458 304.29 306.777 304.386 306.791 304.092Z" fill="#81F889"/>
<path fill-rule="evenodd" clip-rule="evenodd" d="M356.12 234.029C350.918 228.842 351.605 224.169 349.821 218.159C348.13 212.466 351.3 204.982 351.3 204.982C348.346 190.842 353.197 184.153 353.197 184.153C353.197 184.153 360.727 172.504 377.681 176.457C381.036 177.142 384.131 178.758 386.61 181.121C389.089 183.484 390.852 186.497 391.697 189.816C393.201 194.71 391.198 205.725 390.188 210.746C390.639 210.535 391.128 210.419 391.626 210.405C392.124 210.392 392.619 210.482 393.08 210.669C393.542 210.856 393.96 211.136 394.308 211.492C394.656 211.848 394.926 212.272 395.103 212.738C396.582 216.252 391.29 223.414 385.632 223.755C385.345 224.729 384.99 225.683 384.571 226.609C383.145 240.121 385.604 244.71 379.486 250.844C375.847 254.496 367.678 262.07 367.678 262.07C357.029 253.689 356.12 238.854 356.12 234.029Z" fill="white"/>
<path d="M352.35 201.862C352.111 201.862 351.879 201.788 351.684 201.65C351.49 201.512 351.343 201.317 351.264 201.092C351.185 200.867 351.178 200.623 351.244 200.393C351.31 200.164 351.446 199.961 351.632 199.812C351.844 199.645 356.881 195.707 361.654 198.892C361.779 198.976 361.887 199.084 361.971 199.209C362.055 199.335 362.114 199.476 362.143 199.624C362.173 199.772 362.173 199.925 362.144 200.073C362.114 200.221 362.056 200.362 361.972 200.487C361.888 200.613 361.781 200.721 361.655 200.805C361.53 200.889 361.389 200.947 361.241 200.977C361.092 201.007 360.94 201.007 360.792 200.977C360.644 200.948 360.503 200.89 360.377 200.806C356.98 198.536 353.104 201.588 353.065 201.618C352.862 201.779 352.609 201.865 352.35 201.862Z" fill="#000001"/>
<path d="M380.389 203.023C375.504 198.57 371.375 201.298 371.203 201.413C370.952 201.58 370.647 201.643 370.351 201.587C370.055 201.531 369.793 201.362 369.621 201.115C369.449 200.868 369.38 200.563 369.43 200.267C369.48 199.97 369.644 199.704 369.887 199.527C371.797 198.399 374.036 197.961 376.23 198.286C378.423 198.612 380.439 199.681 381.939 201.314C382.166 201.52 382.301 201.807 382.316 202.113C382.331 202.418 382.224 202.717 382.018 202.944C381.813 203.17 381.526 203.306 381.22 203.321C380.914 203.336 380.615 203.229 380.389 203.023Z" fill="#000001"/>
<path d="M360.812 219.852C360.54 219.799 360.283 219.688 360.058 219.527C359.833 219.366 359.645 219.158 359.508 218.918C357.953 216.321 360.858 206.728 361.787 203.837C361.889 203.557 362.095 203.328 362.363 203.197C362.63 203.066 362.938 203.044 363.221 203.136C363.505 203.227 363.741 203.425 363.882 203.687C364.022 203.95 364.056 204.256 363.975 204.543C362.061 210.498 360.927 216.344 361.424 217.623C363.126 217.841 364.85 217.827 366.548 217.584C366.85 217.536 367.158 217.609 367.405 217.788C367.652 217.967 367.818 218.237 367.866 218.538C367.914 218.84 367.841 219.148 367.662 219.395C367.483 219.642 367.213 219.808 366.912 219.856C364.89 220.166 362.833 220.165 360.812 219.852Z" fill="#000001"/>
<path fill-rule="evenodd" clip-rule="evenodd" d="M360.094 205.868C359.714 206.359 359.219 206.748 358.652 207.001C358.086 207.254 357.465 207.364 356.847 207.319C356.228 207.275 355.629 207.078 355.105 206.747C354.58 206.415 354.146 205.959 353.84 205.42C353.84 205.42 357.835 201.25 360.094 205.868Z" fill="white"/>
<path fill-rule="evenodd" clip-rule="evenodd" d="M378.971 206.597C377.698 207.465 376.163 207.865 374.628 207.729C373.093 207.593 371.652 206.93 370.551 205.852C370.551 205.852 373.536 201.48 378.971 206.597Z" fill="white"/>
<path d="M361.074 205.263C360.718 204.568 360.199 203.968 359.562 203.516C358.925 203.064 358.189 202.771 357.415 202.664C356.581 202.677 355.759 202.86 354.998 203.201C354.237 203.543 353.554 204.035 352.99 204.649C352.801 204.877 352.708 205.169 352.73 205.465C352.751 205.76 352.886 206.036 353.105 206.234C353.325 206.433 353.613 206.539 353.909 206.531C354.204 206.522 354.486 206.4 354.694 206.19C354.858 206.022 355.032 205.864 355.214 205.716C355.214 205.769 355.182 205.813 355.182 205.868C355.197 206.288 355.376 206.686 355.679 206.978C355.982 207.27 356.386 207.433 356.807 207.433C357.227 207.433 357.632 207.27 357.935 206.978C358.238 206.686 358.416 206.288 358.432 205.868C358.421 205.759 358.399 205.652 358.365 205.548C358.657 205.819 358.911 206.129 359.119 206.468C359.199 206.597 359.303 206.708 359.426 206.796C359.548 206.884 359.687 206.947 359.834 206.982C359.981 207.016 360.134 207.022 360.283 206.997C360.432 206.973 360.574 206.919 360.703 206.84C360.831 206.76 360.943 206.656 361.031 206.533C361.119 206.411 361.182 206.272 361.216 206.125C361.251 205.978 361.256 205.825 361.232 205.676C361.207 205.527 361.154 205.385 361.074 205.256V205.263Z" fill="#000001"/>
<path d="M379.757 205.757C378.963 204.86 377.983 204.148 376.884 203.672C375.786 203.195 374.596 202.965 373.399 202.997C372.649 203.09 371.925 203.334 371.272 203.714C370.619 204.095 370.049 204.603 369.598 205.21C369.427 205.461 369.362 205.769 369.418 206.068C369.474 206.366 369.645 206.63 369.895 206.803C370.145 206.975 370.453 207.042 370.752 206.988C371.051 206.935 371.316 206.765 371.49 206.516C371.873 206.05 372.371 205.692 372.935 205.479C372.794 205.713 372.715 205.979 372.706 206.252C372.697 206.525 372.757 206.796 372.881 207.04C373.005 207.283 373.189 207.491 373.416 207.643C373.643 207.796 373.905 207.888 374.177 207.912C374.449 207.935 374.723 207.889 374.972 207.778C375.222 207.666 375.439 207.493 375.603 207.274C375.767 207.056 375.872 206.799 375.91 206.529C375.947 206.258 375.915 205.982 375.817 205.727C376.685 206.177 377.481 206.754 378.179 207.438C378.401 207.648 378.697 207.76 379.002 207.751C379.307 207.742 379.596 207.612 379.805 207.39C380.014 207.168 380.127 206.872 380.118 206.567C380.108 206.262 379.979 205.973 379.757 205.764V205.757Z" fill="#000001"/>
<path fill-rule="evenodd" clip-rule="evenodd" d="M356.16 221.361C358.406 222.195 360.724 222.818 363.085 223.221C366.627 223.778 371.439 221.655 374.744 221.361C374.744 221.361 368.086 228.677 363.085 227.679C359.173 226.897 356.342 221.142 356.16 221.361Z" fill="white"/>
<path d="M364.031 228.919C360.445 228.919 357.789 225.699 355.771 222.73C355.647 222.546 355.541 222.392 355.468 222.286C355.268 222.137 355.122 221.928 355.051 221.69C354.981 221.451 354.989 221.196 355.076 220.963C355.162 220.73 355.322 220.531 355.531 220.396C355.741 220.261 355.988 220.198 356.236 220.216C358.524 221.024 360.871 221.653 363.256 222.097C366.499 222.594 371.246 220.524 374.636 220.225C374.867 220.204 375.099 220.254 375.301 220.367C375.503 220.48 375.666 220.652 375.769 220.86C375.872 221.067 375.91 221.301 375.878 221.531C375.845 221.76 375.744 221.974 375.588 222.146C375.319 222.433 369.351 228.919 364.031 228.919ZM359.226 223.56C362.28 227.265 365.013 228.107 370.956 223.307C365.687 224.623 364.327 224.94 359.226 223.56Z" fill="#000001"/>
<path d="M360.49 231.762C360.255 231.567 360.107 231.287 360.079 230.983C360.051 230.679 360.145 230.376 360.339 230.141C360.534 229.907 360.814 229.759 361.118 229.731C361.422 229.702 361.725 229.796 361.96 229.991C362.571 230.444 363.294 230.721 364.052 230.792C364.81 230.862 365.572 230.724 366.256 230.391C366.527 230.285 366.828 230.285 367.098 230.391C367.369 230.498 367.589 230.703 367.714 230.966C367.84 231.228 367.861 231.528 367.774 231.806C367.687 232.083 367.498 232.317 367.245 232.461C366.167 232.99 364.962 233.205 363.767 233.081C362.573 232.957 361.437 232.5 360.49 231.762Z" fill="#000001"/>
<path d="M328.513 304.225C324.497 295.485 324.019 271.425 324 270.415C323.995 270.11 324.111 269.815 324.323 269.596C324.535 269.377 324.826 269.25 325.131 269.245C325.436 269.24 325.73 269.356 325.95 269.568C326.169 269.78 326.295 270.071 326.3 270.376C326.3 270.62 326.785 294.96 330.601 303.266C330.714 303.54 330.716 303.848 330.607 304.124C330.499 304.401 330.287 304.624 330.017 304.748C329.748 304.872 329.44 304.887 329.16 304.789C328.879 304.692 328.648 304.489 328.513 304.225Z" fill="#000001"/>
<path fill-rule="evenodd" clip-rule="evenodd" d="M403.798 444.799H310.526V352.626L280.18 313.428V303.981H401.514L424.449 349.485L423.759 357.185H403.789L403.798 444.799Z" fill="white"/>
<path d="M425.479 348.97L402.541 303.464C402.445 303.274 402.299 303.114 402.118 303.003C401.937 302.891 401.728 302.832 401.515 302.832H291.824C291.624 297.542 291.154 274.065 298.077 265.141C304.42 257.643 311.536 250.833 319.306 244.826C325.399 248.575 336.37 242.325 334.026 235.966C332.607 232.107 327.338 231.525 323.318 233.008C318.775 234.68 314.998 239.283 317.62 243.222C309.791 249.28 302.631 256.155 296.26 263.732C288.811 273.334 289.289 297.128 289.517 302.832H280.181C279.876 302.832 279.584 302.953 279.368 303.168C279.152 303.384 279.031 303.677 279.031 303.982V313.428C279.031 314.039 277.191 311.459 309.377 353.02V444.79C309.377 445.095 309.498 445.387 309.714 445.603C309.93 445.819 310.222 445.94 310.527 445.94H403.799C404.104 445.94 404.397 445.819 404.612 445.603C404.828 445.387 404.949 445.095 404.949 444.79V358.34H423.782C424.07 358.341 424.348 358.234 424.561 358.04C424.774 357.845 424.906 357.578 424.932 357.291C425.658 348.838 425.686 349.37 425.479 348.97ZM281.331 305.132H400.365V312.278H281.331V305.132ZM311.677 443.649V328.141H383.824V443.649H311.677ZM402.649 443.649H386.131V330.99L402.649 357.519V443.649ZM404.434 356.035L385.673 326.365C385.569 326.201 385.425 326.067 385.255 325.973C385.085 325.88 384.894 325.831 384.7 325.832H310.527C310.222 325.832 309.93 325.953 309.714 326.168C309.498 326.384 309.377 326.677 309.377 326.982V349.255L282.527 314.578H400.809L421.896 356.04L404.434 356.035ZM422.977 353.091L402.665 313.154V308.816L423.278 349.71L422.977 353.091Z" fill="#000001"/>
<path fill-rule="evenodd" clip-rule="evenodd" d="M413.745 343.109C413.975 344.422 417.312 344.302 418.794 343.339C420.275 342.375 424.035 337.322 424.1 334.829C424.1 334.829 427.253 335.569 427.242 332.929C427.23 330.288 424.047 319.322 419.231 316.829C414.414 314.336 408.651 307.762 403.821 308.089C403.821 308.089 408.124 317.346 408.713 317.737C409.302 318.128 409.941 320.35 407.174 322.19C404.407 324.03 402.132 328.262 405.019 329.145C407.905 330.029 414.357 325.325 414.594 323.411C414.755 324.802 414.474 326.208 413.792 327.43C413.11 328.653 412.06 329.629 410.792 330.222C406.422 331.949 404.101 334.665 408.722 336.041C408.829 336.859 409.217 337.614 409.819 338.177C410.422 338.74 411.202 339.076 412.025 339.127C414.996 339.339 419.424 337.662 418.807 337.145C418.807 337.145 418.462 340.266 416.507 340.961C414.552 341.655 413.511 341.795 413.745 343.109Z" fill="white"/>
<path d="M439.696 297.41C434.176 284.921 435.519 281.292 429.629 264.168C424.21 248.411 409.368 246.994 402.449 243.68C397.03 240.66 392.017 236.964 387.529 232.681C387.068 231.488 386.432 230.37 385.641 229.364L385.804 227.085C386.123 226.343 386.371 225.573 386.547 224.785C392.808 223.785 397.845 216.303 396.164 212.303C395.842 211.38 395.229 210.586 394.418 210.041C393.606 209.496 392.639 209.23 391.662 209.283C392.477 205.113 394.312 194.423 392.796 189.482C391.889 185.972 390.016 182.787 387.39 180.287C384.765 177.788 381.491 176.074 377.941 175.34C360.877 171.356 352.756 182.766 352.257 183.496C351.93 183.956 347.268 190.83 350.101 204.886C349.485 206.473 347.111 213.122 348.721 218.499C350.145 223.283 349.98 227.886 353.186 232.38C352.544 233.254 351.995 234.192 351.546 235.179C350.122 236.26 341.739 242.555 337.799 243.622C337.52 243.696 309.815 251.806 309.801 273.773C309.789 292.601 306.04 295.759 305.677 303.921C305.663 304.226 305.771 304.524 305.977 304.75C306.183 304.975 306.47 305.109 306.775 305.123C307.08 305.137 307.378 305.029 307.604 304.823C307.829 304.617 307.963 304.33 307.977 304.025C308.313 296.317 312.089 292.865 312.101 273.773C312.101 253.519 338.137 245.913 338.401 245.842C342.626 244.12 346.595 241.828 350.198 239.029C349.737 240.889 349.487 242.794 349.453 244.71C349.287 252.859 347.277 261.652 345.66 263.779C345.499 263.993 345.418 264.257 345.431 264.525C345.444 264.792 345.549 265.047 345.73 265.245C345.91 265.443 346.154 265.571 346.42 265.609C346.685 265.646 346.955 265.59 347.183 265.449C356.875 259.414 354.883 255.065 366.632 263.041C366.333 267.094 364.897 288.527 366.684 303.857C366.702 304.008 366.749 304.154 366.823 304.287C366.896 304.42 366.996 304.537 367.115 304.631C367.234 304.726 367.37 304.796 367.517 304.838C367.663 304.879 367.816 304.892 367.967 304.875C368.118 304.857 368.264 304.81 368.397 304.736C368.53 304.663 368.647 304.563 368.741 304.444C368.836 304.325 368.906 304.189 368.948 304.042C368.989 303.896 369.002 303.743 368.984 303.592C367.188 288.203 368.69 266.507 368.948 263.043C371.059 261.452 373.318 261.075 374.964 263.17C377.605 266.293 380.655 269.045 384.031 271.353C384.198 271.466 384.392 271.533 384.593 271.547C384.794 271.561 384.996 271.522 385.177 271.433C385.358 271.345 385.513 271.21 385.626 271.043C385.739 270.876 385.806 270.683 385.82 270.482C386.172 265.626 387.072 260.826 388.502 256.173C390.119 249.883 390.236 243.301 388.845 236.957C398.259 245.076 402.514 246.341 406.925 247.845C414.324 250.375 423.536 253.508 427.467 264.934C433.428 282.264 431.837 285.238 437.603 298.351C441.543 307.302 449.744 325.935 443.493 330.751C438.984 333.832 433.499 335.147 428.083 334.447C428.305 333.977 428.416 333.462 428.405 332.943C428.393 330.38 425.567 319.925 420.665 316.383C421.484 315.214 424.21 312.703 432.267 313.604C432.569 313.634 432.872 313.545 433.11 313.356C433.348 313.166 433.502 312.892 433.541 312.59C433.558 312.44 433.545 312.288 433.503 312.143C433.461 311.997 433.391 311.862 433.297 311.744C433.203 311.626 433.086 311.527 432.954 311.454C432.822 311.381 432.677 311.335 432.527 311.318C428.922 310.69 425.213 311.114 421.843 312.539C424.03 308.034 427.938 301.302 433.012 298.079C433.146 298.001 433.262 297.897 433.355 297.774C433.447 297.65 433.514 297.508 433.551 297.358C433.587 297.208 433.593 297.052 433.568 296.899C433.543 296.746 433.488 296.6 433.405 296.47C433.322 296.339 433.214 296.226 433.086 296.139C432.959 296.051 432.815 295.99 432.664 295.959C432.512 295.928 432.356 295.928 432.204 295.958C432.053 295.989 431.909 296.05 431.781 296.138C425.079 300.393 420.442 309.791 418.602 314.053C417.17 311.482 415.94 308.803 414.922 306.042C415.203 295.529 422.085 274.283 422.156 274.072C422.25 273.781 422.226 273.465 422.087 273.193C421.949 272.921 421.708 272.715 421.418 272.621C421.127 272.526 420.811 272.551 420.539 272.689C420.267 272.828 420.061 273.068 419.966 273.359C417.053 282.313 414.766 291.458 413.121 300.729C410.226 290.687 408.254 280.402 407.231 270.001C407.199 269.7 407.052 269.422 406.821 269.227C406.589 269.032 406.291 268.933 405.989 268.952C405.685 268.978 405.404 269.123 405.208 269.356C405.011 269.589 404.915 269.89 404.94 270.194C405.039 271.362 407.279 296.623 415.355 312.838C411.965 310.267 407.675 306.686 403.747 306.957C403.56 306.97 403.38 307.028 403.221 307.126C403.062 307.224 402.93 307.359 402.835 307.52C402.74 307.681 402.686 307.862 402.677 308.049C402.668 308.235 402.704 308.421 402.783 308.59C407.068 317.811 406.905 316.447 407.802 319.984C407.489 320.501 407.058 320.936 406.543 321.252C402.905 323.667 400.665 329.03 404.68 330.259C405.817 330.576 407.02 330.563 408.149 330.219C403.813 332.683 404.315 335.659 407.735 336.94C407.996 337.868 408.542 338.69 409.295 339.291C410.049 339.892 410.972 340.241 411.935 340.289C413.46 340.329 414.983 340.135 416.45 339.714C415.557 340.374 412.098 340.42 412.622 343.318C413.059 345.772 417.441 345.602 419.43 344.3C421.891 342.171 423.782 339.463 424.934 336.42C425.015 336.19 426.563 336.892 430.811 336.892C435.851 337.035 440.799 335.515 444.889 332.565C452.562 326.643 444.505 308.344 439.696 297.41ZM387.578 220.339C388.415 216.404 389.339 210.383 392.723 211.735C393.032 211.875 393.308 212.077 393.535 212.329C393.762 212.58 393.935 212.876 394.043 213.198C394.963 215.374 391.798 220.85 387.143 222.301C387.297 221.634 387.44 220.976 387.578 220.339ZM350.925 217.839C349.372 212.618 352.328 205.509 352.36 205.435C352.452 205.217 352.474 204.976 352.424 204.745C351.52 200.727 351.287 196.587 351.734 192.493C352.979 189.966 354.53 187.601 356.353 185.453C359.18 185.485 375.972 185.756 383.185 187.396C387.469 197.68 388.222 209.094 385.328 219.852C384.972 221.524 384.601 223.256 384.151 224.873C382.63 230.296 378.171 234.82 371.6 237.61C365.551 240.174 361.369 237.704 356.592 232.877C352.093 228.327 352.641 223.624 350.925 217.83V217.839ZM349.273 261.171C350.8 255.827 351.633 250.308 351.751 244.751C351.725 241.033 352.75 237.383 354.708 234.222C355.244 234.786 354.543 246.237 362.48 257.809C355.888 254.478 354.152 257.5 349.273 261.162V261.171ZM367.777 260.762C361.85 254.055 358.197 245.644 357.342 236.734C359.937 239.274 363.375 240.771 367.002 240.94C372.421 240.94 379.597 236.49 383.155 231.846L382.274 244.176C381.43 246.778 379.799 249.053 377.605 250.685C374.129 253.84 370.847 257.202 367.777 260.753V260.762ZM386.336 255.357C384.972 259.551 384.087 263.885 383.698 268.278C381.133 266.387 378.804 264.196 376.761 261.751C376.275 260.955 375.569 260.317 374.728 259.914C373.887 259.511 372.947 259.362 372.023 259.483C374.255 257.007 376.619 254.654 379.104 252.433C381.761 250.461 383.681 247.655 384.555 244.464L385.354 233.376C387.806 240.449 388.147 248.083 386.336 255.348V255.357ZM414.81 342.849L414.849 342.819C414.862 342.846 414.871 342.876 414.874 342.906L414.81 342.849ZM425.891 333.575C425.651 333.719 425.374 333.789 425.095 333.775C424.873 332.198 424.396 330.668 423.683 329.244C423.542 328.973 423.3 328.769 423.009 328.677C422.718 328.585 422.403 328.613 422.132 328.753C421.861 328.894 421.657 329.136 421.565 329.427C421.473 329.718 421.5 330.034 421.641 330.305C422.547 331.968 422.933 333.866 422.747 335.751C421.724 338.268 420.159 340.528 418.163 342.37C417.161 342.908 415.996 343.058 414.89 342.791C415.539 342.508 416.204 342.263 416.882 342.058C417.68 341.664 418.367 341.078 418.882 340.353C419.397 339.628 419.724 338.786 419.833 337.904C419.961 337.634 420 337.332 419.945 337.039C419.89 336.746 419.744 336.478 419.527 336.273C419.382 336.15 419.21 336.066 419.025 336.026C418.84 335.986 418.647 335.992 418.465 336.045C418.283 336.097 418.117 336.194 417.981 336.326C417.845 336.458 417.744 336.621 417.687 336.802C415.934 337.625 414.015 338.031 412.08 337.989C411.71 337.981 411.348 337.884 411.026 337.704C410.703 337.524 410.429 337.268 410.228 336.958C413.059 336.383 419.223 334.537 419.923 329.249C419.963 328.946 419.881 328.64 419.695 328.398C419.509 328.156 419.235 327.997 418.932 327.957C418.63 327.917 418.324 327.999 418.082 328.185C417.839 328.371 417.681 328.645 417.641 328.948C417.048 333.437 410.171 334.672 408.818 334.872C407.638 334.484 407.325 334.086 407.323 334.005C407.309 333.697 408.202 332.487 411.196 331.303C412.712 330.633 413.971 329.491 414.786 328.048C415.601 326.606 415.929 324.938 415.72 323.294C415.689 323.013 415.556 322.752 415.345 322.563C415.134 322.374 414.861 322.27 414.577 322.27C414.294 322.27 414.021 322.374 413.81 322.563C413.599 322.752 413.465 323.013 413.434 323.294C412.656 324.792 411.456 326.029 409.984 326.855C409.337 327.37 408.589 327.745 407.789 327.954C406.988 328.162 406.152 328.201 405.336 328.067C404.876 327.924 404.841 327.715 404.821 327.577C404.966 326.671 405.307 325.807 405.82 325.046C406.333 324.285 407.006 323.646 407.792 323.172C408.458 322.796 409.031 322.274 409.469 321.647C409.907 321.02 410.198 320.302 410.322 319.547L411.505 314.717C411.555 314.514 411.548 314.3 411.486 314.1C411.423 313.9 411.307 313.72 411.15 313.581C410.488 313.002 410 313.351 407.967 314.14C407.302 312.818 406.509 311.182 405.715 309.506C409.694 310.676 414.538 315.716 418.683 317.875C423.278 320.226 426.919 332.779 425.891 333.575Z" fill="#000001"/>
<path d="M413.941 357.189H403.798V443.653C403.493 443.653 403.201 443.775 402.985 443.99C402.77 444.206 402.648 444.498 402.648 444.803C402.648 445.108 402.77 445.401 402.985 445.617C403.201 445.832 403.493 445.953 403.798 445.953C419.208 445.953 418.36 446.103 418.84 445.581C419.436 444.932 419.208 451.103 413.941 357.189Z" fill="#000001"/>
<path fill-rule="evenodd" clip-rule="evenodd" d="M310.527 436.018C310.527 436.018 303.627 400.779 284.47 382.101C265.313 363.423 265.934 361.831 265.934 361.831C265.934 361.831 257.758 427.103 310.527 444.799V436.018Z" fill="#81F889"/>
<path d="M310.159 445.886C257.857 428.347 264.507 364.186 264.785 361.752C264.78 361.601 264.806 361.451 264.859 361.31C264.913 361.168 264.994 361.039 265.097 360.929C265.201 360.819 265.325 360.731 265.463 360.669C265.601 360.607 265.749 360.572 265.9 360.568C266.051 360.563 266.202 360.589 266.343 360.642C266.484 360.696 266.614 360.777 266.724 360.88C266.834 360.984 266.922 361.108 266.984 361.246C267.046 361.384 267.08 361.532 267.085 361.683C267.315 362.212 269.272 365.665 285.283 381.275C304.478 399.99 311.383 434.343 311.666 435.796C311.68 435.868 311.687 435.941 311.686 436.015C311.686 445.702 311.854 445.263 311.208 445.732C311.058 445.84 310.885 445.911 310.703 445.937C310.52 445.964 310.334 445.947 310.159 445.886ZM266.813 365.271C266.08 378.496 266.386 427.641 309.363 443.182V436.13C308.924 433.986 301.813 400.632 283.656 382.924C277.712 377.364 272.089 371.47 266.813 365.271Z" fill="#000001"/>
<path fill-rule="evenodd" clip-rule="evenodd" d="M310.527 439.548C298.395 426.618 282.729 417.541 265.477 413.445C236.366 406.396 203.582 420.782 203.582 420.782C212.674 422.623 221.413 425.903 229.471 430.5C240.246 437.331 284.418 452.766 310.527 444.799V439.548Z" fill="#81F889"/>
<path d="M311.408 438.809C299.082 425.734 283.216 416.531 265.746 412.325C236.605 405.273 203.453 419.586 203.117 419.729C202.892 419.827 202.705 419.995 202.583 420.208C202.46 420.421 202.409 420.668 202.437 420.911C202.465 421.155 202.57 421.384 202.737 421.564C202.904 421.744 203.124 421.866 203.365 421.911C203.513 421.941 218.382 424.835 228.852 431.47C236.732 436.468 267.262 448.221 293.217 448.221C299.18 448.315 305.125 447.532 310.861 445.898C311.096 445.826 311.302 445.68 311.449 445.483C311.595 445.285 311.675 445.045 311.675 444.799C311.675 439.276 311.781 439.26 311.408 438.809ZM230.082 429.529C223.041 425.403 215.422 422.354 207.478 420.483C216.59 417.114 242.235 408.995 265.208 414.563C282.057 418.644 297.384 427.468 309.375 439.989V442.374C282.801 421.106 238.735 419.736 238.282 419.729C237.977 419.721 237.681 419.835 237.46 420.045C237.239 420.255 237.111 420.545 237.103 420.85C237.095 421.155 237.209 421.45 237.419 421.671C237.63 421.893 237.919 422.021 238.224 422.029C238.67 422.029 282.131 423.397 308.066 444.274C282.246 450.668 240.366 436.047 230.082 429.529Z" fill="#000001"/>
<path d="M304.251 434.808C296.512 417.958 276.683 388.652 276.483 388.348C276.312 388.096 276.248 387.785 276.306 387.486C276.363 387.186 276.538 386.922 276.79 386.751C277.043 386.58 277.353 386.516 277.652 386.573C277.952 386.631 278.216 386.805 278.388 387.058C278.588 387.352 298.524 416.817 306.339 433.837C306.468 434.114 306.482 434.431 306.377 434.718C306.272 435.005 306.057 435.238 305.781 435.367C305.504 435.496 305.187 435.509 304.9 435.404C304.613 435.299 304.38 435.085 304.251 434.808Z" fill="#000001"/>
<path d="M426.116 33.9338L305.136 41.4318C302.6 41.5919 300.22 42.7114 298.479 44.5629C296.739 46.4144 295.769 48.8589 295.766 51.4V120.365C295.767 123.015 296.821 125.555 298.694 127.427C300.568 129.3 303.108 130.353 305.757 130.354C312.997 130.354 272.359 131.157 426.967 127.484C429.569 127.407 432.04 126.324 433.86 124.461C435.679 122.599 436.705 120.103 436.721 117.5V43.8997C436.72 42.5365 436.44 41.188 435.898 39.9372C435.356 38.6863 434.565 37.5594 433.571 36.6259C432.578 35.6925 431.404 34.9721 430.122 34.5091C428.84 34.0461 427.476 33.8503 426.116 33.9338Z" fill="#000001"/>
<path fill-rule="evenodd" clip-rule="evenodd" d="M423.476 116.06V45.627L305.734 51.2666V118.732L423.476 116.06Z" fill="white"/>
<path d="M427.43 82.1649C427.43 83.2104 427.733 84.2131 428.274 84.9524C428.814 85.6917 429.547 86.1071 430.312 86.1071C431.076 86.1071 431.809 85.6917 432.349 84.9524C432.89 84.2131 433.193 83.2104 433.193 82.1649C433.193 81.1193 432.89 80.1166 432.349 79.3773C431.809 78.638 431.076 78.2227 430.312 78.2227C429.547 78.2227 428.814 78.638 428.274 79.3773C427.733 80.1166 427.43 81.1193 427.43 82.1649Z" fill="white"/>
<path fill-rule="evenodd" clip-rule="evenodd" d="M373.29 102.402V94.8122C375.532 91.6023 376.736 87.782 376.74 83.8665C376.83 76.9665 380.42 61.6692 366.59 62.051C347.387 63.6127 352.33 86.8174 352.33 86.8174C352.979 89.1669 353.936 91.4204 355.175 93.5196L356.452 103.695L345.156 108.44C347.905 111.297 351.254 113.508 354.96 114.915C358.667 116.323 362.64 116.89 366.592 116.577C374.573 115.765 382.224 112.967 388.847 108.44L373.29 102.402Z" fill="white"/>
<path d="M360.691 76.541C359.853 75.795 358.774 75.375 357.652 75.3577C356.53 75.3404 355.439 75.7269 354.578 76.4467C354.467 76.55 354.338 76.6306 354.197 76.6838C354.055 76.7371 353.905 76.762 353.754 76.7571C353.603 76.7521 353.454 76.7175 353.316 76.6552C353.179 76.5929 353.055 76.5041 352.952 76.3938C352.848 76.2836 352.768 76.1541 352.714 76.0127C352.661 75.8713 352.636 75.7208 352.641 75.5698C352.646 75.4188 352.681 75.2703 352.743 75.1326C352.805 74.995 352.894 74.871 353.004 74.7677C354.261 73.6985 355.853 73.1036 357.502 73.0863C359.152 73.0691 360.756 73.6307 362.034 74.6734C362.282 74.8515 362.449 75.1208 362.498 75.4218C362.547 75.7229 362.475 76.0312 362.296 76.2788C362.118 76.5265 361.849 76.6932 361.548 76.7424C361.247 76.7916 360.939 76.7191 360.691 76.541Z" fill="#000001"/>
<path d="M373.424 76.0585C371.623 73.8942 368.346 76.1643 368.208 76.2632C368.085 76.3508 367.946 76.4133 367.799 76.4471C367.651 76.4809 367.499 76.4854 367.35 76.4603C367.201 76.4352 367.058 76.381 366.93 76.3008C366.802 76.2206 366.691 76.116 366.604 75.9929C366.516 75.8699 366.454 75.7307 366.42 75.5835C366.386 75.4363 366.382 75.2838 366.407 75.1348C366.432 74.9859 366.486 74.8433 366.566 74.7153C366.646 74.5873 366.751 74.4763 366.874 74.3887C372.1 70.6581 376.9 74.6693 375.044 76.2103C374.809 76.4049 374.506 76.4982 374.203 76.4697C373.899 76.4413 373.619 76.2933 373.424 76.0585Z" fill="#000001"/>
<path d="M363.679 88.2343C360.505 88.2343 359.063 85.0488 360.864 84.4807C361.15 84.3907 361.46 84.4161 361.728 84.5515C361.996 84.6868 362.2 84.9214 362.297 85.2052C362.792 86.3759 364.671 85.8952 365.876 85.3685C366.016 85.2956 366.169 85.2523 366.326 85.2412C366.483 85.23 366.641 85.2513 366.79 85.3037C366.938 85.3561 367.075 85.4385 367.19 85.5458C367.305 85.653 367.398 85.7829 367.461 85.9272C367.524 86.0716 367.557 86.2274 367.557 86.385C367.558 86.5426 367.526 86.6986 367.463 86.8433C367.401 86.9881 367.31 87.1184 367.195 87.2264C367.08 87.3343 366.944 87.4174 366.796 87.4707C365.821 87.9379 364.76 88.1979 363.679 88.2343Z" fill="#000001"/>
<path d="M364.172 93.272C361.729 93.2374 359.354 92.4591 357.364 91.041C357.15 90.8499 357.016 90.5857 356.986 90.3004C356.957 90.0151 357.036 89.7292 357.207 89.4988C357.377 89.2684 357.628 89.1101 357.91 89.055C358.191 88.9999 358.483 89.052 358.728 89.201C358.958 89.3758 364.563 93.3709 369.384 88.8445C369.608 88.6453 369.901 88.5414 370.2 88.5549C370.499 88.5684 370.782 88.6983 370.987 88.9168C371.192 89.1354 371.304 89.4254 371.298 89.7251C371.292 90.0247 371.17 90.3104 370.957 90.5212C369.142 92.2904 366.707 93.2779 364.172 93.272Z" fill="#000001"/>
<path d="M403.012 116.635C400.136 113.196 396.506 110.467 392.404 108.659C390.194 107.665 385.792 106.058 375.63 102.076C376.589 101.898 377.507 101.547 378.34 101.039C380.18 99.8086 382.917 101.764 385.293 102.649C387.669 103.535 385.674 99.3003 388.846 97.3039C392.018 95.3075 394.826 94.9717 392.986 91.6873C391.146 88.4029 392.952 88.6973 392.986 85.2634C393.021 81.8295 394.332 83.5729 394.789 81.1395C395.247 78.7061 394.674 78.0943 392.986 76.7166C391.298 75.3389 394.47 74.6144 394.237 72.3098C394.005 70.0052 392.471 70.2398 391.1 69.2853C389.729 68.3308 390.714 66.1389 389.95 64.6393C389.187 63.1397 387.027 63.5215 385.295 62.7395C383.563 61.9575 384.545 60.3521 382.183 59.4804C379.821 58.6087 379.95 61.0306 376.744 59.4804C373.537 57.9302 374.674 56.4536 371.67 56.8561C370.102 57.0018 368.583 57.4768 367.212 58.2499C365.219 56.1117 362.513 54.7759 359.604 54.494C355.528 54.5607 356.671 49.4869 351.996 50.8002C347.32 52.1135 342.138 48.9326 339.304 52.4102C336.471 55.8878 336.406 53.6246 333.757 56.8492C331.107 60.0738 332.924 62.4819 329.292 64.6324C325.661 66.7829 326.893 66.2838 326.001 70.9528C325.109 75.6218 322.901 74.9893 324.517 78.2254C326.134 81.4615 324.605 81.0843 326.001 85.2565C327.397 89.4287 324.718 92.8465 329.292 93.5043C333.867 94.1621 329.382 98.8219 333.757 99.4843C338.131 100.147 337.519 103.376 341.65 102.633C345.781 101.89 344.24 103.454 349.24 102.633C353.5 101.943 353.35 102.964 355.163 102.822L355.186 102.976C339.985 109.089 341.059 108.726 340.813 108.838C336.386 110.823 332.707 114.168 330.313 118.388C330.163 118.654 330.125 118.968 330.207 119.262C330.288 119.556 330.484 119.805 330.749 119.955C331.015 120.106 331.329 120.144 331.623 120.062C331.917 119.98 332.167 119.785 332.317 119.52C335.079 114.778 339.557 111.279 344.826 109.747C349.964 114.839 356.875 117.741 364.107 117.843C372.968 117.467 381.558 114.675 388.947 109.77C393.713 111.382 397.955 114.252 401.225 118.075C401.419 118.304 401.695 118.447 401.994 118.475C402.293 118.502 402.591 118.412 402.824 118.223C403.057 118.035 403.207 117.762 403.242 117.464C403.277 117.166 403.195 116.866 403.012 116.629V116.635ZM352.773 86.4226C356.147 83.1842 351.133 75.769 355.533 73.6806C360.133 71.5048 358.672 69.0806 362.458 67.1624C364.507 66.283 366.185 64.7153 367.201 62.7303C367.201 62.7303 368.581 62.199 368.323 64.6301C368.066 67.0612 372.794 64.8969 371.658 68.3722C370.522 71.8475 375.939 71.8084 375.4 75.6126C374.867 79.3754 376.3 78.5819 376.716 83.6994C376.47 90.995 371.368 98.5505 363.682 98.3366C357.251 98.2101 353.576 88.7364 352.773 86.4226ZM366.481 115.433C362.986 115.717 359.469 115.278 356.151 114.141C352.834 113.004 349.786 111.195 347.2 108.827L356.897 104.756C357.133 104.656 357.329 104.481 357.454 104.257C357.579 104.033 357.626 103.774 357.587 103.521L356.644 97.3913C357.575 98.3948 358.7 99.1997 359.95 99.7578C361.2 100.316 362.55 100.616 363.919 100.639C366.904 100.632 369.801 99.62 372.141 97.7662V102.403C372.141 102.635 372.212 102.862 372.343 103.053C372.475 103.244 372.661 103.391 372.877 103.475L386.355 108.707C380.306 112.384 373.52 114.68 366.481 115.433Z" fill="#000001"/>
<path d="M151.476 165.478C151.41 162.972 150.444 160.574 148.755 158.722C147.065 156.87 144.766 155.688 142.276 155.393L78.7111 151.437C77.4248 151.41 76.1472 151.653 74.9607 152.151C73.7743 152.649 72.7055 153.39 71.8233 154.327C70.9412 155.263 70.2652 156.374 69.8392 157.588C69.4132 158.802 69.2466 160.092 69.3501 161.375L72.0434 285.559C72.007 288.139 72.9311 290.64 74.636 292.577C76.341 294.513 78.705 295.747 81.2687 296.038C81.2687 296.038 149.441 300.274 149.616 300.274C150.89 300.218 152.139 299.899 153.285 299.339C154.431 298.779 155.449 297.988 156.276 297.017C157.103 296.047 157.722 294.916 158.093 293.695C158.464 292.475 158.58 291.191 158.434 289.924L151.476 165.478Z" fill="#000001"/>
<path fill-rule="evenodd" clip-rule="evenodd" d="M144.242 292.59C148.398 292.85 151.476 288.882 151.232 284.248L145.252 170.699C145.263 168.721 144.563 166.805 143.278 165.301C141.993 163.798 140.21 162.806 138.255 162.509L83.5658 159.105C79.573 158.856 76.4703 162.555 76.5646 167.132L78.8853 280.45C78.8049 282.482 79.4748 284.472 80.7672 286.041C82.0596 287.611 83.8842 288.65 85.8934 288.96L144.242 292.59Z" fill="white"/>
<path fill-rule="evenodd" clip-rule="evenodd" d="M78.2227 248.257C80.4514 246.918 93.2831 239.4 104.139 237.015C110.924 235.381 118.044 235.817 124.579 238.266C124.579 238.266 144.007 243.719 149.419 249.81L151.236 284.247C151.485 288.928 148.363 292.847 144.246 292.59L85.8978 288.958C83.8886 288.647 82.064 287.608 80.7716 286.039C79.4791 284.469 78.8093 282.479 78.8897 280.448L78.2227 248.257Z" fill="#81F889"/>
<path fill-rule="evenodd" clip-rule="evenodd" d="M98.226 212.411C98.1915 211.604 98.2007 211.135 98.2007 211.135C98.2007 211.135 94.569 189.655 111.92 191.327C130.707 193.137 127.017 209.325 126.482 215.27C130.677 210.985 133.14 217.779 126.077 223.569C125.959 225.429 125.65 227.273 125.157 229.07V238.006L129.363 239.719C129.363 239.719 128.92 247.323 117.383 248.593C105.846 249.862 97.9362 238.843 97.9362 238.843L103.27 236.913L102.145 227.393C101.127 225.457 100.281 223.435 99.6152 221.351C94.0469 218.099 93.8652 212.913 95.0152 211.314C96.0088 209.925 97.7798 211.878 98.226 212.411Z" fill="white"/>
<path d="M114.827 223.969C113.443 223.945 112.098 223.503 110.969 222.702C110.849 222.611 110.747 222.496 110.67 222.366C110.594 222.235 110.543 222.091 110.523 221.941C110.502 221.791 110.511 221.638 110.549 221.491C110.587 221.345 110.654 221.207 110.745 221.086C110.837 220.965 110.951 220.864 111.081 220.787C111.212 220.711 111.357 220.66 111.507 220.64C111.657 220.619 111.809 220.628 111.956 220.666C112.102 220.704 112.24 220.771 112.361 220.862C112.891 221.238 113.501 221.485 114.143 221.584C114.785 221.683 115.441 221.63 116.059 221.43C116.466 220.903 115.526 217.87 113.759 214.896C113.676 214.766 113.62 214.621 113.595 214.469C113.569 214.317 113.574 214.161 113.61 214.011C113.645 213.862 113.711 213.72 113.802 213.596C113.893 213.472 114.008 213.367 114.141 213.289C114.273 213.21 114.42 213.158 114.573 213.138C114.725 213.117 114.881 213.127 115.029 213.167C115.178 213.207 115.317 213.277 115.438 213.372C115.56 213.467 115.66 213.586 115.735 213.721C118.569 218.5 120.379 223.967 114.827 223.969Z" fill="#000001"/>
<path d="M102.34 210.019C102.133 210.019 101.929 209.962 101.751 209.856C101.573 209.749 101.427 209.597 101.329 209.414C101.23 209.231 101.183 209.025 101.193 208.818C101.202 208.611 101.267 208.41 101.381 208.237C101.875 207.492 102.523 206.861 103.282 206.389C104.04 205.916 104.892 205.612 105.778 205.497C106.664 205.382 107.565 205.459 108.419 205.723C109.273 205.986 110.061 206.43 110.728 207.025C110.85 207.114 110.953 207.226 111.032 207.355C111.111 207.484 111.163 207.627 111.186 207.776C111.21 207.926 111.203 208.078 111.168 208.225C111.132 208.372 111.068 208.51 110.979 208.632C110.89 208.754 110.778 208.858 110.648 208.936C110.519 209.015 110.376 209.067 110.227 209.091C110.078 209.114 109.925 209.107 109.778 209.072C109.632 209.036 109.493 208.972 109.371 208.883C108.895 208.476 108.341 208.171 107.742 207.986C107.144 207.8 106.514 207.74 105.891 207.806C104.849 208.046 103.927 208.653 103.295 209.515C103.188 209.67 103.046 209.797 102.879 209.885C102.713 209.973 102.528 210.019 102.34 210.019Z" fill="#000001"/>
<path d="M122.76 211.445C122.541 210.897 122.205 210.404 121.776 209.999C121.347 209.594 120.834 209.288 120.274 209.102C119.443 209.013 118.609 209.243 117.94 209.743C117.704 209.935 117.403 210.026 117.101 209.997C116.799 209.967 116.521 209.82 116.327 209.586C116.133 209.352 116.04 209.052 116.067 208.749C116.094 208.447 116.24 208.168 116.472 207.972C117.062 207.505 117.741 207.164 118.468 206.97C119.194 206.776 119.953 206.732 120.697 206.843C121.602 207.079 122.441 207.519 123.149 208.129C123.858 208.739 124.418 209.503 124.787 210.362C124.914 210.629 124.934 210.935 124.842 211.217C124.75 211.498 124.553 211.733 124.291 211.872C124.03 212.012 123.725 212.046 123.44 211.966C123.155 211.886 122.912 211.7 122.76 211.445Z" fill="#000001"/>
<path d="M115.147 228.7C112.384 228.565 109.757 227.462 107.727 225.584C107.61 225.484 107.514 225.361 107.445 225.223C107.376 225.085 107.336 224.934 107.326 224.781C107.317 224.627 107.338 224.472 107.39 224.327C107.441 224.182 107.521 224.048 107.625 223.934C107.729 223.82 107.855 223.728 107.995 223.664C108.135 223.6 108.287 223.564 108.441 223.56C108.595 223.556 108.749 223.582 108.892 223.638C109.036 223.694 109.167 223.779 109.277 223.886C109.507 224.096 114.926 228.923 119.137 224.613C119.243 224.505 119.369 224.419 119.508 224.36C119.647 224.3 119.796 224.269 119.947 224.268C120.098 224.266 120.248 224.294 120.389 224.35C120.529 224.407 120.657 224.49 120.765 224.596C120.873 224.702 120.959 224.828 121.018 224.967C121.077 225.106 121.109 225.255 121.11 225.406C121.112 225.557 121.084 225.707 121.027 225.847C120.971 225.987 120.888 226.115 120.782 226.223C120.064 227.003 119.193 227.625 118.224 228.052C117.254 228.478 116.206 228.699 115.147 228.7Z" fill="#000001"/>
<path d="M151.261 249.138C145.511 244.326 132.288 239.112 125.938 237.24L126.089 229.919C126.63 228.185 126.981 226.398 127.136 224.588C129.546 222.233 132.037 218.5 131.821 215.862C131.779 215.402 131.641 214.955 131.417 214.551C131.193 214.147 130.888 213.794 130.52 213.514C130.152 213.235 129.731 213.034 129.282 212.926C128.832 212.818 128.366 212.804 127.911 212.885C128.442 208.285 129.029 201.201 124.893 196.072C123.261 194.272 121.28 192.822 119.071 191.81C116.862 190.797 114.47 190.244 112.041 190.182C100.162 189.048 95.6604 198.285 96.9185 210.096C95.2832 209.258 93.9285 210.059 93.4317 211.892C91.9367 217.283 97.3716 221.186 98.747 222.074C99.2225 223.673 99.8319 225.228 100.569 226.725C100.582 227.076 100.486 226.359 102.041 236.322C97.2497 237.843 72.2924 247.119 76.0667 250.428C76.1802 250.528 76.3123 250.605 76.4554 250.653C76.5985 250.702 76.7497 250.722 76.9005 250.712C77.0513 250.702 77.1987 250.663 77.3343 250.596C77.4698 250.529 77.5909 250.436 77.6905 250.323C80.2964 247.351 90.3405 243.038 97.5947 240.327C99.7975 243.218 102.637 245.562 105.893 247.177C109.149 248.792 112.733 249.635 116.367 249.639C124.613 249.639 128.905 245.863 130.22 241.18C136.15 243.344 145.17 247.029 149.798 250.904C150.032 251.1 150.334 251.194 150.638 251.167C150.942 251.14 151.223 250.993 151.418 250.758C151.614 250.524 151.708 250.222 151.681 249.918C151.653 249.614 151.506 249.334 151.272 249.138H151.261ZM127.596 215.788C128.107 214.99 128.546 214.935 129.206 215.395C130.37 216.207 128.304 219.555 127.366 220.8C127.481 218.132 127.499 217.092 127.596 215.8V215.788ZM95.6351 212.52C95.6995 212.29 95.7616 212.154 95.7685 212.097C96.3098 212.415 96.7796 212.842 97.1485 213.35C97.2776 215.045 97.508 216.731 97.8385 218.399C96.9779 217.706 96.3192 216.795 95.9316 215.761C95.5439 214.727 95.4415 213.607 95.6351 212.52ZM99.6325 215.28C100.281 212.699 101.213 210.199 102.411 207.823C102.606 207.591 102.701 207.291 102.675 206.988C102.367 203.308 102.581 197.349 104.009 196.208C106.358 194.345 120.891 193.547 123.099 200.882C124.325 206.85 125.012 212.917 125.151 219.008C124.822 229.261 123.592 236.396 113.389 234.418C103.129 232.449 100.373 221.409 99.6325 215.28ZM117.113 247.328C113.832 247.413 110.575 246.752 107.587 245.395C104.599 244.038 101.958 242.02 99.8625 239.494C101.364 238.961 102.675 238.521 103.637 238.227C103.902 238.146 104.129 237.973 104.277 237.739C104.424 237.504 104.482 237.224 104.44 236.95L103.554 231.285C109.433 237.992 118.734 238.266 122.734 235.062C123.076 234.767 123.394 234.446 123.686 234.101L123.605 238.082C123.601 238.337 123.681 238.586 123.833 238.791C123.986 238.995 124.202 239.143 124.447 239.211C124.493 239.225 125.91 239.671 128.051 240.416C127.601 242.42 125.616 247.05 117.122 247.326L117.113 247.328Z" fill="#000001"/>
<path d="M110.795 159.701C111.03 159.715 111.265 159.685 111.487 159.612C111.709 159.539 111.914 159.424 112.089 159.275C112.265 159.126 112.408 158.945 112.51 158.742C112.613 158.54 112.672 158.32 112.685 158.095C112.699 157.87 112.666 157.645 112.588 157.432C112.511 157.218 112.39 157.022 112.234 156.853C112.077 156.684 111.888 156.546 111.676 156.447C111.464 156.348 111.234 156.29 110.999 156.276C110.764 156.262 110.529 156.292 110.307 156.365C110.085 156.439 109.88 156.553 109.704 156.702C109.529 156.851 109.386 157.032 109.284 157.235C109.181 157.437 109.122 157.657 109.108 157.882C109.095 158.107 109.128 158.332 109.205 158.546C109.283 158.759 109.403 158.955 109.56 159.124C109.717 159.293 109.906 159.431 110.118 159.53C110.33 159.629 110.56 159.687 110.795 159.701Z" fill="white"/>
<path d="M360.733 78.6592C359.838 77.8867 358.69 77.4731 357.508 77.4981C356.327 77.5232 355.197 77.9852 354.336 78.7949C354.123 79.0129 354.005 79.3069 354.008 79.6121C354.011 79.9172 354.135 80.2086 354.354 80.4221C354.572 80.6356 354.866 80.7538 355.171 80.7505C355.476 80.7473 355.767 80.6229 355.981 80.4049C356.15 80.2427 356.346 80.1112 356.56 80.0162V80.398C356.56 80.703 356.682 80.9955 356.897 81.2111C357.113 81.4268 357.405 81.548 357.71 81.548C358.015 81.548 358.308 81.4268 358.524 81.2111C358.739 80.9955 358.86 80.703 358.86 80.398V80.2002C359.034 80.2887 359.202 80.3893 359.362 80.5015C359.606 80.6845 359.912 80.763 360.214 80.7199C360.516 80.6768 360.789 80.5155 360.972 80.2715C361.155 80.0275 361.233 79.7208 361.19 79.4188C361.147 79.1169 360.986 78.8445 360.742 78.6615L360.733 78.6592Z" fill="#000001"/>
<path d="M373.769 78.9798C372.766 78.0444 371.447 77.521 370.075 77.5137C368.703 77.5065 367.379 78.0159 366.366 78.9407C366.16 79.1533 366.045 79.4369 366.043 79.7324C366.041 80.028 366.153 80.3129 366.356 80.528C366.559 80.7431 366.836 80.8719 367.132 80.8877C367.427 80.9035 367.717 80.8051 367.941 80.6128C368.158 80.4297 368.398 80.2751 368.654 80.1528V80.5714C368.654 80.8764 368.775 81.1689 368.991 81.3846C369.207 81.6002 369.499 81.7214 369.804 81.7214C370.109 81.7214 370.402 81.6002 370.617 81.3846C370.833 81.1689 370.954 80.8764 370.954 80.5714V80.0033C371.446 80.1609 371.903 80.4141 372.297 80.7485C372.503 80.9226 372.764 81.018 373.033 81.0176C373.271 81.0186 373.502 80.9462 373.697 80.8103C373.892 80.6743 374.039 80.4815 374.12 80.2582C374.201 80.035 374.21 79.7923 374.147 79.5634C374.085 79.3345 373.953 79.1307 373.769 78.9798Z" fill="#000001"/>
<path d="M110.822 211.993C110.343 211.415 109.747 210.945 109.073 210.614C108.399 210.284 107.662 210.101 106.912 210.077C105.768 210.107 104.681 210.586 103.887 211.411C103.682 211.636 103.573 211.934 103.587 212.239C103.601 212.543 103.735 212.83 103.96 213.036C104.185 213.242 104.483 213.35 104.787 213.336C105.092 213.323 105.379 213.189 105.585 212.964C105.766 212.806 105.968 212.674 106.185 212.57V213.221C106.2 213.372 106.245 213.519 106.317 213.653C106.388 213.786 106.486 213.905 106.603 214.001C106.721 214.097 106.856 214.169 107.001 214.213C107.147 214.257 107.299 214.271 107.45 214.256C107.601 214.241 107.748 214.196 107.881 214.125C108.015 214.053 108.133 213.956 108.23 213.838C108.326 213.721 108.398 213.585 108.442 213.44C108.485 213.295 108.5 213.142 108.485 212.991C108.718 213.169 108.937 213.364 109.141 213.575C109.243 213.691 109.368 213.784 109.507 213.85C109.647 213.916 109.798 213.953 109.952 213.96C110.106 213.966 110.26 213.941 110.404 213.887C110.549 213.833 110.681 213.75 110.792 213.644C110.904 213.537 110.993 213.41 111.055 213.268C111.116 213.127 111.148 212.974 111.149 212.82C111.151 212.666 111.121 212.513 111.062 212.371C111.003 212.228 110.916 212.099 110.806 211.991L110.822 211.993Z" fill="#000001"/>
<path d="M122.971 212.676C122.497 212.093 121.902 211.62 121.227 211.289C120.552 210.959 119.813 210.779 119.061 210.763C117.189 210.811 114.746 212.437 116.113 213.702C116.334 213.906 116.627 214.015 116.928 214.005C117.229 213.995 117.515 213.867 117.723 213.649C117.884 213.508 118.062 213.387 118.252 213.288V213.994C118.255 214.299 118.38 214.59 118.598 214.803C118.816 215.016 119.11 215.134 119.415 215.13C119.72 215.127 120.011 215.002 120.225 214.784C120.438 214.566 120.555 214.272 120.552 213.967V213.626C121.313 214.18 121.428 214.62 122.113 214.62C122.341 214.625 122.564 214.563 122.756 214.441C122.948 214.319 123.099 214.142 123.191 213.934C123.283 213.727 123.311 213.496 123.272 213.272C123.233 213.048 123.128 212.841 122.971 212.676Z" fill="#000001"/>
</svg>
