<svg width="651" height="454" viewBox="0 0 651 454" fill="none" xmlns="http://www.w3.org/2000/svg">
<path d="M392.344 242.68C391.243 257.591 402.738 278.936 402.738 278.936H405.508C405.149 258.197 396.714 253.076 392.344 242.68Z" fill="white"/>
<path d="M392.998 242.405C392.703 241.733 391.7 241.892 391.643 242.634C390.579 256.958 400.923 277.011 402.115 279.27C402.544 280.098 403.813 279.44 403.368 278.6C403.266 278.41 393.441 259.975 393.003 245.719C397.516 254.411 404.482 260.263 404.805 278.943C404.805 279.899 406.226 279.862 406.221 278.927C405.862 257.964 397.359 252.756 392.998 242.405Z" fill="black"/>
<path d="M438.465 242.68C434.095 253.074 421.113 263.162 421.113 278.936H428.069C428.069 278.936 439.564 257.591 438.465 242.68Z" fill="white"/>
<path d="M439.177 242.627C439.122 241.894 438.103 241.719 437.815 242.405C433.518 252.631 420.406 262.907 420.406 278.931C420.406 279.869 421.823 279.869 421.823 278.931C421.823 264.782 432.655 255.11 437.819 245.628C437.42 259.891 427.552 278.407 427.448 278.6C427.005 279.438 428.263 280.091 428.701 279.267C428.817 279.054 440.291 257.673 439.177 242.627Z" fill="black"/>
<path d="M409.516 278.937H417.499C422.772 253.828 422.171 230.334 422.772 214.064C413.434 233.947 409.516 278.937 409.516 278.937Z" fill="white"/>
<path d="M422.123 213.765C412.927 233.343 408.968 277.025 408.805 278.873C408.714 279.796 410.122 279.946 410.217 278.997C410.251 278.593 413.749 238.798 421.941 217.801C421.388 238.46 421.428 256.751 416.802 278.789C416.605 279.71 417.985 279.989 418.18 279.081C423.428 254.114 422.849 231.248 423.467 214.092C423.499 213.315 422.445 213.077 422.123 213.765Z" fill="black"/>
<path d="M403.339 221.896C398.672 235.152 405.448 278.936 405.448 278.936H411.625C411.266 258.197 404.842 241.07 403.339 221.896Z" fill="white"/>
<path d="M404.046 221.839C403.982 221.112 402.942 220.917 402.675 221.664C398.632 233.143 402.951 267.23 404.749 279.045C404.906 280.026 406.284 279.69 406.148 278.825C406.089 278.443 400.586 242.382 403.051 226.225C405.113 244.064 410.595 259.782 410.917 278.947C410.937 279.878 412.333 279.873 412.333 278.925C411.968 257.988 405.555 241.086 404.048 221.839H404.046Z" fill="black"/>
<path d="M431.807 223.403C430.302 242.578 417.345 258.2 416.988 278.934H423.165C423.165 278.934 437.078 241.068 431.807 223.403Z" fill="white"/>
<path d="M432.478 223.21C432.263 222.488 431.171 222.547 431.098 223.353C429.593 242.507 416.643 257.934 416.277 278.934C416.277 279.528 416.988 279.903 417.469 279.451C417.61 279.315 417.694 279.131 417.694 278.95C418.03 259.325 428.944 246.001 431.977 227.775C434.319 246.275 422.622 278.353 422.497 278.691C422.198 279.535 423.487 280.091 423.83 279.177C424.397 277.608 437.663 240.58 432.478 223.21Z" fill="black"/>
<path d="M426.602 317.865H404.637L400.547 278.937H430.695L426.602 317.865Z" fill="white"/>
<path d="M431.208 278.455C430.883 278.103 431.201 278.228 400.54 278.228C400.127 278.228 399.802 278.575 399.839 279.008L403.929 317.941C403.975 318.3 404.274 318.57 404.635 318.57H426.609C426.967 318.561 427.265 318.293 427.303 317.937C431.46 278.48 431.546 278.838 431.21 278.452L431.208 278.455ZM429.907 279.644L425.964 317.154H405.278L401.337 279.644H429.909H429.907Z" fill="black"/>
<path d="M464.192 317.065H33.809C32.7512 317.065 32.7512 318.666 33.809 318.666H464.192C465.25 318.666 465.25 317.065 464.192 317.065Z" fill="black"/>
<path d="M391.559 51.9385H143.762V211.96H391.559V51.9385Z" fill="white"/>
<path d="M393.852 214.252H141.469V49.6455H393.852V214.252ZM146.054 209.667H389.266V54.2309H146.054V209.667Z" fill="black"/>
<path d="M128.965 23.5908H398.071C399.694 23.5908 401.015 24.912 401.015 26.535V46.7199C401.015 48.3429 399.694 49.664 398.071 49.664H135.779C132.02 49.664 128.965 46.6109 128.965 42.8495V23.5908Z" fill="white"/>
<path d="M398.068 22.7686H128.962C128.51 22.7686 128.145 23.1386 128.145 23.5903V42.8467C128.145 47.0576 131.568 50.4807 135.776 50.4807H398.068C400.145 50.4807 401.832 48.7918 401.832 46.7171V26.5345C401.832 24.4574 400.145 22.7686 398.068 22.7686ZM398.068 48.8463L396.436 48.8418C395.265 48.8418 394.311 47.8906 394.311 46.7193V26.5345C394.311 25.3632 395.265 24.412 396.436 24.412H398.068C399.242 24.412 400.195 25.3632 400.195 26.5345V46.7239C400.195 47.8952 399.242 48.8463 398.068 48.8463ZM129.788 30.8679H392.674C392.674 48.0541 392.436 47.5479 393.346 48.8463H135.781C132.476 48.8463 129.786 46.1586 129.786 42.8535V30.8679H129.788ZM129.788 29.2244V24.4098H393.344C392.477 25.6492 392.674 26.6661 392.674 29.2244H129.788Z" fill="black"/>
<path d="M269.837 91.9765H230.78C229.688 91.9765 229.688 90.3262 230.78 90.3262H269.837C270.929 90.3262 270.929 91.9765 269.837 91.9765Z" fill="black"/>
<path d="M261.043 99.2108H230.78C229.688 99.2108 229.688 97.5605 230.78 97.5605H261.043C262.135 97.5605 262.135 99.2108 261.043 99.2108Z" fill="black"/>
<path d="M265.751 106.447H230.78C229.688 106.447 229.688 104.797 230.78 104.797H265.751C266.843 104.797 266.843 106.447 265.751 106.447Z" fill="black"/>
<path d="M202.84 103.229C199.774 110.42 191.552 114.025 184.097 111.219L178.141 126.993C193.933 132.959 211.691 125.429 218.347 109.836L202.84 103.229Z" fill="#81F889"/>
<path d="M218.574 109.287L203.063 102.679C202.756 102.554 202.409 102.695 202.286 102.993C199.469 109.594 191.946 113.403 184.303 110.661C183.995 110.549 183.668 110.697 183.538 111.01L177.582 126.782C177.471 127.084 177.634 127.427 177.938 127.545C193.862 133.556 212.04 126.126 218.889 110.066C219.018 109.766 218.866 109.403 218.574 109.287ZM178.905 126.635L184.444 111.973C191.801 114.429 199.839 110.963 203.133 103.994L217.557 110.141C210.912 124.934 194.014 132.026 178.905 126.635Z" fill="black"/>
<path d="M189.295 82.7463V65.8916C171.861 65.8916 157.73 80.0223 157.73 97.4559H174.583C174.583 89.3293 181.17 82.7463 189.295 82.7463Z" fill="white"/>
<path d="M189.297 65.2969C171.566 65.2969 157.141 79.7227 157.141 97.456C157.141 97.7828 157.406 98.0507 157.733 98.0507L174.583 98.0552C174.91 98.0552 175.18 97.7851 175.18 97.4582C175.18 89.6721 181.514 83.3411 189.3 83.3411C189.627 83.3411 189.892 83.0732 189.892 82.7464V65.8916C189.892 65.5647 189.624 65.2969 189.297 65.2969ZM158.335 96.8612C158.648 80.3606 172.202 66.8042 188.71 66.4886V82.1584C180.71 82.4649 174.311 88.8617 174.007 96.8612H158.335Z" fill="black"/>
<path d="M174.583 97.4541H157.73C157.73 110.961 166.216 122.485 178.142 126.994L184.099 111.219C178.542 109.12 174.583 103.749 174.583 97.4541Z" fill="black"/>
<path d="M184.303 110.66C178.844 108.599 175.18 103.294 175.18 97.4554C175.18 97.1285 174.917 96.8584 174.59 96.8584H157.733C157.408 96.8584 157.141 97.1263 157.141 97.4531C157.141 110.749 165.399 123.088 177.936 127.544C178.744 127.83 178.46 128.06 184.66 111.423C184.773 111.121 184.608 110.778 184.301 110.658L184.303 110.66ZM183.341 111.554L177.802 126.219C166.368 121.638 158.58 110.369 158.339 98.0524H174.009C174.238 103.982 177.875 109.241 183.341 111.554Z" fill="black"/>
<path d="M202.756 103.027L218.172 109.599C226.927 89.0463 211.898 65.915 189.293 65.915V82.6699C199.817 82.6699 206.845 93.4524 202.756 103.027Z" fill="white"/>
<path d="M189.29 65.3197C188.961 65.3197 188.695 65.5852 188.695 65.9121V82.667C188.695 82.9939 188.961 83.2617 189.29 83.2617C197.028 83.2617 203.325 89.5564 203.325 97.2949C203.325 101.108 201.975 102.682 202.202 103.245C202.34 103.603 201.373 102.99 217.94 110.143C218.226 110.266 218.58 110.12 218.709 109.821C227.662 88.8777 212.24 65.3174 189.292 65.3174L189.29 65.3197ZM189.887 82.0859V66.5159C211.234 66.9223 225.948 88.7869 217.853 108.817L203.521 102.711C207.275 92.8684 200.032 82.4831 189.885 82.0881L189.887 82.0859Z" fill="black"/>
<path d="M303.776 97.0527H297.137V139.113H303.776V97.0527Z" fill="#81F889"/>
<path d="M303.772 139.526H297.132C296.903 139.526 296.719 139.342 296.719 139.113V97.0518C296.719 96.8225 296.903 96.6387 297.132 96.6387H303.772C304.001 96.6387 304.185 96.8225 304.185 97.0518V139.113C304.185 139.342 304.001 139.526 303.772 139.526ZM297.545 138.7H303.358V97.465H297.545V138.7Z" fill="black"/>
<path d="M310.412 109.61H303.773C303.546 109.61 303.359 109.795 303.359 110.023V139.111C303.359 139.34 303.546 139.524 303.773 139.524H310.412C310.642 139.524 310.825 139.34 310.825 139.111V110.023C310.825 109.795 310.642 109.61 310.412 109.61Z" fill="black"/>
<path d="M324.366 82.3193H317.727V139.112H324.366V82.3193Z" fill="#81F889"/>
<path d="M324.365 139.526H317.726C317.496 139.526 317.312 139.342 317.312 139.113V82.3194C317.312 82.0901 317.496 81.9062 317.726 81.9062H324.365C324.595 81.9062 324.779 82.0901 324.779 82.3194V139.113C324.779 139.342 324.595 139.526 324.365 139.526ZM318.139 138.699H323.952V82.7325H318.139V138.699Z" fill="black"/>
<path d="M331.006 101.055H324.366C324.139 101.055 323.953 101.24 323.953 101.468V139.111C323.953 139.339 324.139 139.524 324.366 139.524H331.006C331.235 139.524 331.419 139.339 331.419 139.111V101.468C331.419 101.24 331.235 101.055 331.006 101.055Z" fill="black"/>
<path d="M344.956 68.9355H338.316V139.117H344.956V68.9355Z" fill="#81F889"/>
<path d="M344.959 139.526H338.319C338.09 139.526 337.906 139.342 337.906 139.113V68.9356C337.906 68.7063 338.09 68.5225 338.319 68.5225H344.959C345.188 68.5225 345.372 68.7063 345.372 68.9356V139.113C345.372 139.342 345.188 139.526 344.959 139.526ZM338.733 138.7H344.546V69.3465H338.733V138.7Z" fill="black"/>
<path d="M351.596 81.4258H344.956C344.727 81.4258 344.543 81.6108 344.543 81.8389V139.113C344.543 139.341 344.727 139.526 344.956 139.526H351.596C351.823 139.526 352.009 139.341 352.009 139.113V81.8389C352.009 81.6108 351.823 81.4258 351.596 81.4258Z" fill="black"/>
<path d="M298.866 164.203H291.089C290.063 164.203 289.223 163.368 289.223 162.337V154.56C289.223 153.534 290.058 152.694 291.089 152.694H298.866C299.894 152.694 300.727 153.53 300.727 154.56V162.337C300.727 163.363 299.892 164.203 298.866 164.203ZM291.089 153.525C290.514 153.525 290.047 153.993 290.047 154.56V162.337C290.047 162.909 290.514 163.379 291.089 163.379H298.866C299.44 163.379 299.908 162.912 299.908 162.337V154.56C299.908 153.988 299.44 153.525 298.866 153.525H291.089Z" fill="black"/>
<path d="M294.578 161.434C293.929 161.434 293.972 161.223 291.445 156.899C290.892 155.95 292.324 155.128 292.866 156.064L294.737 159.251L301.688 152.057C302.448 151.274 303.635 152.42 302.875 153.203C294.521 161.827 295.075 161.434 294.578 161.434Z" fill="black"/>
<path d="M333.593 155.729H307.622C306.584 155.729 305.742 156.571 305.742 157.609V158.808C305.742 159.846 306.584 160.687 307.622 160.687H333.593C334.63 160.687 335.472 159.846 335.472 158.808V157.609C335.472 156.571 334.63 155.729 333.593 155.729Z" fill="#81F889"/>
<path d="M333.592 161.098H307.621C306.354 161.098 305.328 160.072 305.328 158.805V157.609C305.328 156.345 306.354 155.316 307.621 155.316H333.592C334.856 155.316 335.885 156.342 335.885 157.609V158.805C335.885 160.07 334.859 161.098 333.592 161.098ZM307.621 156.143C306.815 156.143 306.154 156.799 306.154 157.609V158.805C306.154 159.611 306.81 160.272 307.621 160.272H333.592C334.398 160.272 335.058 159.616 335.058 158.805V157.609C335.058 156.803 334.402 156.143 333.592 156.143H307.621Z" fill="black"/>
<path d="M358.813 155.729H340.329C339.291 155.729 338.449 156.571 338.449 157.609V158.808C338.449 159.846 339.291 160.687 340.329 160.687H358.813C359.851 160.687 360.693 159.846 360.693 158.808V157.609C360.693 156.571 359.851 155.729 358.813 155.729Z" fill="white"/>
<path d="M358.814 161.098H340.332C339.065 161.098 338.039 160.072 338.039 158.805V157.609C338.039 156.345 339.065 155.316 340.332 155.316H358.814C360.081 155.316 361.107 156.342 361.107 157.609V158.805C361.107 160.07 360.081 161.098 358.814 161.098ZM340.332 156.143C339.526 156.143 338.865 156.799 338.865 157.609V158.805C338.865 159.611 339.521 160.272 340.332 160.272H358.814C359.622 160.272 360.281 159.616 360.281 158.805V157.609C360.281 156.803 359.625 156.143 358.814 156.143H340.332Z" fill="black"/>
<path d="M298.866 179.674H291.089C290.063 179.674 289.223 178.839 289.223 177.808V170.031C289.223 169.005 290.058 168.165 291.089 168.165H298.866C299.894 168.165 300.727 169 300.727 170.031V177.808C300.727 178.834 299.892 179.674 298.866 179.674ZM291.089 168.996C290.514 168.996 290.047 169.463 290.047 170.031V177.808C290.047 178.38 290.514 178.85 291.089 178.85H298.866C299.44 178.85 299.908 178.382 299.908 177.808V170.031C299.908 169.459 299.44 168.996 298.866 168.996H291.089Z" fill="black"/>
<path d="M294.578 176.913C293.945 176.913 293.983 176.713 291.445 172.373C290.892 171.424 292.324 170.603 292.866 171.538L294.737 174.725L301.688 167.531C302.446 166.75 303.638 167.89 302.875 168.682C294.551 177.333 295.075 176.913 294.578 176.913Z" fill="black"/>
<path d="M333.593 171.204H307.622C306.584 171.204 305.742 172.046 305.742 173.084V174.282C305.742 175.32 306.584 176.162 307.622 176.162H333.593C334.63 176.162 335.472 175.32 335.472 174.282V173.084C335.472 172.046 334.63 171.204 333.593 171.204Z" fill="#81F889"/>
<path d="M333.592 176.575H307.621C306.354 176.575 305.328 175.549 305.328 174.282V173.086C305.328 171.821 306.354 170.793 307.621 170.793H333.592C334.856 170.793 335.885 171.819 335.885 173.086V174.282C335.885 175.546 334.859 176.575 333.592 176.575ZM307.621 171.617C306.815 171.617 306.154 172.273 306.154 173.083V174.28C306.154 175.086 306.81 175.746 307.621 175.746H333.592C334.398 175.746 335.058 175.09 335.058 174.28V173.083C335.058 172.278 334.402 171.617 333.592 171.617H307.621Z" fill="black"/>
<path d="M358.813 171.204H340.329C339.291 171.204 338.449 172.046 338.449 173.084V174.282C338.449 175.32 339.291 176.162 340.329 176.162H358.813C359.851 176.162 360.693 175.32 360.693 174.282V173.084C360.693 172.046 359.851 171.204 358.813 171.204Z" fill="white"/>
<path d="M358.814 176.575H340.332C339.065 176.575 338.039 175.549 338.039 174.282V173.086C338.039 171.821 339.065 170.793 340.332 170.793H358.814C360.081 170.793 361.107 171.819 361.107 173.086V174.282C361.107 175.546 360.081 176.575 358.814 176.575ZM340.332 171.617C339.526 171.617 338.865 172.273 338.865 173.083V174.28C338.865 175.086 339.521 175.746 340.332 175.746H358.814C359.622 175.746 360.281 175.09 360.281 174.28V173.083C360.281 172.278 359.625 171.617 358.814 171.617H340.332Z" fill="black"/>
<path d="M298.866 195.15H291.089C290.063 195.15 289.223 194.314 289.223 193.284V185.507C289.223 184.481 290.058 183.641 291.089 183.641H298.866C299.894 183.641 300.727 184.476 300.727 185.507V193.284C300.727 194.31 299.892 195.15 298.866 195.15ZM291.089 184.471C290.514 184.471 290.047 184.939 290.047 185.507V193.284C290.047 193.856 290.514 194.319 291.089 194.319H298.866C299.44 194.319 299.908 193.851 299.908 193.284V185.507C299.908 184.935 299.44 184.471 298.866 184.471H291.089Z" fill="black"/>
<path d="M294.578 192.379C293.929 192.379 293.972 192.168 291.445 187.843C290.892 186.895 292.324 186.075 292.866 187.008L294.737 190.195L301.688 183.001C302.448 182.218 303.635 183.365 302.875 184.148C294.521 192.772 295.075 192.379 294.578 192.379Z" fill="black"/>
<path d="M333.593 186.681H307.622C306.584 186.681 305.742 187.522 305.742 188.56V189.759C305.742 190.797 306.584 191.638 307.622 191.638H333.593C334.63 191.638 335.472 190.797 335.472 189.759V188.56C335.472 187.522 334.63 186.681 333.593 186.681Z" fill="#81F889"/>
<path d="M333.592 192.044H307.621C306.354 192.044 305.328 191.018 305.328 189.752V188.555C305.328 187.291 306.354 186.263 307.621 186.263H333.592C334.856 186.263 335.885 187.289 335.885 188.555V189.752C335.885 191.016 334.859 192.044 333.592 192.044ZM307.621 187.087C306.815 187.087 306.154 187.743 306.154 188.553V189.749C306.154 190.555 306.81 191.216 307.621 191.216H333.592C334.398 191.216 335.058 190.56 335.058 189.749V188.553C335.058 187.747 334.402 187.087 333.592 187.087H307.621Z" fill="black"/>
<path d="M358.813 186.681H340.329C339.291 186.681 338.449 187.522 338.449 188.56V189.759C338.449 190.797 339.291 191.638 340.329 191.638H358.813C359.851 191.638 360.693 190.797 360.693 189.759V188.56C360.693 187.522 359.851 186.681 358.813 186.681Z" fill="white"/>
<path d="M358.814 192.044H340.332C339.065 192.044 338.039 191.018 338.039 189.752V188.555C338.039 187.291 339.065 186.263 340.332 186.263H358.814C360.081 186.263 361.107 187.289 361.107 188.555V189.752C361.107 191.016 360.081 192.044 358.814 192.044ZM340.332 187.087C339.526 187.087 338.865 187.743 338.865 188.553V189.749C338.865 190.555 339.521 191.216 340.332 191.216H358.814C359.622 191.216 360.281 190.56 360.281 189.749V188.553C360.281 187.747 359.625 187.087 358.814 187.087H340.332Z" fill="black"/>
<path d="M370.968 138.632L367.071 134.734C366.442 134.094 365.448 135.055 366.099 135.706L368.866 138.473H291.963V66.1487C294.735 68.9204 294.799 69.1224 295.221 69.1224C295.816 69.1224 296.154 68.3937 295.707 67.9488L291.809 64.0512C291.543 63.7811 291.108 63.7811 290.835 64.0512L286.938 67.9488C286.297 68.5776 287.258 69.5719 287.909 68.9204L290.681 66.1487V139.113C290.681 139.465 290.967 139.751 291.319 139.751H368.873L366.097 142.527C365.659 142.959 365.979 143.701 366.583 143.701C366.973 143.701 366.744 143.787 370.966 139.601C371.236 139.334 371.236 138.9 370.966 138.63L370.968 138.632Z" fill="black"/>
<path d="M201.424 181.558H109.957V188.774H201.424V181.558Z" fill="white"/>
<path d="M232.621 181.558H201.422V188.774H232.621V181.558Z" fill="white"/>
<path d="M201.422 317.864H130.773L117.008 188.771L201.422 188.774V317.864Z" fill="white"/>
<path d="M201.422 317.864H218.726L227.892 188.771L201.422 188.774V317.864Z" fill="white"/>
<path d="M232.622 180.845H109.956C109.566 180.845 109.25 181.165 109.25 181.553V188.772C109.25 189.162 109.568 189.48 109.956 189.48H116.369L130.068 317.95C130.111 318.305 130.413 318.572 130.772 318.572H218.725C219.073 318.572 219.409 318.295 219.434 317.912L228.552 189.48H232.62C233.01 189.48 233.328 189.162 233.328 188.772V181.553C233.328 181.163 233.01 180.845 232.62 180.845H232.622ZM202.136 317.158V189.48H227.138L218.072 317.158H202.136ZM231.912 182.261V188.063H202.132V182.261H231.912ZM200.713 189.48V317.158H131.407L117.794 189.48H200.713ZM200.713 182.261V188.063H110.664V182.261H200.713Z" fill="black"/>
<path d="M227.851 190.063L201.539 191.28V188.674L227.964 188.762L227.851 190.063Z" fill="black"/>
<path d="M117.225 190.158L201.538 191.28V188.674L117.094 188.762L117.225 190.158Z" fill="black"/>
<path d="M194.975 177.306H117.777V181.56H194.975V177.306Z" fill="#81F889"/>
<path d="M194.977 176.593H117.779C117.388 176.593 117.07 176.911 117.07 177.299V181.553C117.07 181.943 117.388 182.259 117.779 182.259H194.979C195.369 182.259 195.687 181.941 195.687 181.553V177.299C195.687 176.908 195.369 176.593 194.979 176.593H194.977ZM194.268 178.009V180.844H118.487V178.009H194.268Z" fill="black"/>
<path d="M171.796 181.553L117.774 181.557L105.089 139.038C104.81 138.094 105.507 137.136 106.506 137.136H156.353C157.656 137.136 158.802 137.989 159.172 139.235L171.796 181.553Z" fill="#81F889"/>
<path d="M172.476 181.355L159.855 139.038C159.396 137.501 157.957 136.43 156.357 136.43H106.51C105.05 136.43 103.995 137.844 104.412 139.242L117.095 181.757C117.183 182.052 117.465 182.261 117.778 182.261L171.804 182.266C172.272 182.266 172.615 181.814 172.476 181.355ZM170.851 180.844H118.307L105.774 138.834C105.622 138.339 106.004 137.844 106.512 137.844H156.359C157.342 137.844 158.221 138.498 158.497 139.437L170.849 180.842L170.851 180.844Z" fill="black"/>
<path d="M134.362 153.361C137.061 152.676 140.001 155.073 140.929 158.716C141.855 162.359 140.418 165.871 137.719 166.559C135.02 167.244 132.081 164.847 131.152 161.204C130.226 157.561 131.663 154.049 134.362 153.361Z" fill="white"/>
<path d="M141.525 158.562C140.624 155.025 137.564 151.913 134.209 152.762C131.185 153.536 129.546 157.389 130.556 161.352C131.444 164.825 134.47 167.992 137.872 167.147C141.259 166.289 142.415 162.062 141.525 158.562ZM134.515 153.961C137.148 153.291 139.586 155.938 140.331 158.869C141.05 161.711 140.231 165.284 137.564 165.96C134.953 166.623 132.49 163.976 131.748 161.052C130.908 157.743 132.15 154.562 134.515 153.961Z" fill="black"/>
<path d="M165.635 176.688H121.307C120.492 176.688 120.492 177.923 121.307 177.923H165.635C166.45 177.923 166.45 176.688 165.635 176.688Z" fill="black"/>
<path d="M216.186 156.865H214.697L213.991 153.939C213.889 153.532 214.767 153.659 200.039 153.659C199.644 153.659 199.717 153.789 198.975 156.865H197.481C197.279 156.865 197.113 157.03 197.113 157.232V159.602C197.113 159.804 197.279 159.97 197.481 159.97H216.188C216.39 159.97 216.556 159.804 216.556 159.602V157.232C216.556 157.03 216.388 156.865 216.186 156.865Z" fill="black"/>
<path d="M213.49 181.396H200.179L199.262 159.795H214.407L213.49 181.396Z" fill="white"/>
<path d="M214.921 159.307C214.614 158.98 215.731 159.082 199.262 159.082C198.899 159.082 198.552 159.366 198.559 159.825L199.474 181.426C199.494 181.803 199.805 182.1 200.179 182.1H213.491C213.87 182.1 214.181 181.801 214.194 181.422C215.171 158.018 215.23 159.634 214.921 159.307ZM200.195 165.289H213.459L213.08 174.251H200.577L200.195 165.289ZM213.661 160.506L213.511 164.054H200.143L199.993 160.506H213.661ZM200.849 180.686L200.629 175.488H213.028L212.807 180.686H200.849Z" fill="black"/>
<path d="M209.889 149.035C209.861 148.987 207.203 144.03 209.623 140.872C210.181 140.139 209.08 139.27 208.499 140.014C205.483 143.953 208.624 149.666 208.661 149.732C209.128 150.522 210.32 149.857 209.889 149.035Z" fill="black"/>
<path d="M205.87 139.202C206.444 138.477 205.327 137.592 204.748 138.339C203.016 140.595 202.463 143.526 203.15 146.811C203.663 149.269 204.655 151.012 204.699 151.083C205.162 151.898 206.39 151.18 205.922 150.377C205.559 149.703 202.463 143.653 205.87 139.202Z" fill="black"/>
<path d="M59.1364 428.132C63.1997 416.829 84.3129 363.745 122.785 363.745C154.056 363.745 155.45 416.825 155.391 428.132H162.274C162.467 397.198 153.879 356.867 122.785 356.867C75.2624 356.867 52.794 425.219 51.8633 428.132H59.1364Z" fill="white"/>
<path d="M163.029 427.395C162.72 427.395 165.077 356.186 122.78 356.186C76.3493 356.186 53.6833 420.483 51.377 427.414C50.6211 427.459 50.0195 428.072 50.0195 428.837V429.561C50.0195 430.358 50.6642 431.002 51.461 431.002H59.5081C60.3049 431.002 60.9496 430.358 60.9496 429.561V428.837C60.9496 428.249 60.5955 427.747 60.0915 427.523C64.6338 415.192 85.5972 364.435 122.789 364.435C148.481 364.435 154.716 402.053 154.71 427.452C154.051 427.584 153.545 428.14 153.545 428.837V429.561C153.545 430.358 154.19 431.002 154.987 431.002H163.034C163.831 431.002 164.475 430.358 164.475 429.561V428.837C164.475 428.04 163.831 427.395 163.034 427.395H163.029ZM122.789 363.064C84.208 363.064 62.7747 416.173 58.6796 427.395H52.8366C60.0053 406.355 74.1088 381.405 92.1916 368.146C101.771 361.114 112.065 357.55 122.784 357.55C153.193 357.55 161.572 396.987 161.588 427.395H156.083C156.042 400.884 149.459 363.064 122.789 363.064Z" fill="black"/>
<path d="M83.9169 352.322H181.111C184.476 352.322 187.206 355.053 187.206 358.417V362.869C187.206 366.233 184.476 368.961 181.114 368.961H83.9169C80.5528 368.961 77.8242 366.231 77.8242 362.869V358.417C77.8242 355.053 80.5528 352.322 83.9169 352.322Z" fill="#81F889"/>
<path d="M181.109 351.642H83.9188C80.1802 351.642 77.1406 354.683 77.1406 358.42V362.869C77.1406 366.605 80.1824 369.645 83.9188 369.645H181.107C184.843 369.645 187.885 366.605 187.885 362.869V358.42C187.885 354.683 184.845 351.642 181.109 351.642ZM186.514 358.415V362.864C186.514 365.845 184.087 368.274 181.104 368.274H83.9143C80.9315 368.274 78.5026 365.847 78.5026 362.864V358.415C78.5026 355.435 80.9293 353.006 83.9143 353.006H181.104C184.087 353.006 186.514 355.432 186.514 358.415Z" fill="black"/>
<path d="M136.873 334.135L125.791 286.696C125.098 283.725 122.447 281.625 119.399 281.625H58.1902C55.1348 281.625 50.7015 284.776 48.8242 288.079C49.966 287.075 51.4529 286.442 53.1281 286.442H114.336C117.385 286.442 120.036 288.542 120.729 291.513L131.811 338.952C132.342 341.217 131.604 343.405 130.154 344.938C133.879 343.085 137.667 337.526 136.873 334.135Z" fill="white"/>
<path d="M131.809 338.952C132.771 343.07 129.645 347.013 125.416 347.013H64.2082C61.1596 347.013 58.5082 344.913 57.8159 341.942L46.7338 294.503C45.7713 290.385 48.8971 286.442 53.1261 286.442H114.334C117.383 286.442 120.034 288.542 120.727 291.514L131.809 338.952Z" fill="#81F889"/>
<path d="M137.545 333.983L126.461 286.544C125.687 283.246 122.783 280.944 119.399 280.944H58.1903C53.16 280.944 44.6724 288.708 46.0617 294.66L57.1439 342.098C57.9202 345.396 60.8235 347.698 64.2058 347.698H125.416C128.485 347.698 132.914 344.252 134.823 341.848C136.526 339.701 138.135 336.507 137.545 333.983ZM64.2013 346.327C61.4569 346.327 59.1029 344.459 58.4764 341.785L47.3919 294.346C46.5225 290.628 49.3623 287.126 53.1214 287.126H114.337C117.079 287.126 119.433 288.994 120.061 291.668L131.146 339.106C132.015 342.825 129.175 346.327 125.416 346.327H64.2013ZM132.326 342.518C132.687 341.322 132.771 340.051 132.478 338.795L121.394 291.357C120.62 288.059 117.717 285.757 114.332 285.757C51.2736 285.757 52.8127 285.614 51.2736 286.016C53.3847 283.873 56.2177 282.313 58.1881 282.313L119.396 282.309C122.141 282.309 124.495 284.177 125.121 286.851L136.203 334.292C136.807 336.861 134.433 340.541 132.324 342.52L132.326 342.518Z" fill="black"/>
<path d="M105.779 371.792C106.417 371.792 106.903 371.2 106.746 370.569L93.9935 315.991C93.7415 314.913 92.7836 314.152 91.6781 314.152H74.9504C74.1582 314.152 73.5907 314.899 73.7723 315.637L86.2618 369.098C86.6341 370.68 88.0415 371.794 89.6646 371.794H105.777L105.779 371.792Z" fill="white"/>
<path d="M96.4297 314.064C96.1006 312.672 94.8748 311.698 93.4447 311.698H76.7171C76.0633 311.698 75.3778 312.2 75.1122 312.413C73.9817 313.358 72.79 314.393 73.1009 315.784L85.5928 369.245C86.0377 371.147 87.7129 372.475 89.6606 372.475H105.775C107.385 372.475 109.696 370.85 109.353 369.363L96.4297 314.064ZM105.773 371.106H89.6583C88.3463 371.106 87.2249 370.214 86.9275 368.939L74.4357 315.473C74.3563 315.14 74.6241 314.833 74.9487 314.833L91.6695 314.829C92.4595 314.829 93.1382 315.369 93.3198 316.141C106.879 373.923 106.386 371.106 105.773 371.106Z" fill="black"/>
<path d="M101.304 428.132C105.368 416.829 126.483 363.745 164.953 363.745C196.224 363.745 197.618 416.825 197.559 428.132H204.442C204.637 397.198 196.047 356.867 164.953 356.867C117.43 356.867 94.962 425.219 94.0312 428.132H101.304Z" fill="white"/>
<path d="M147.688 368.723C147.552 368.487 147.658 368.53 144.726 368.642C144.499 368.651 144.076 368.971 140.254 370.993C140.056 371.098 140.015 371.361 140.163 371.522C141.125 372.569 141.314 372.92 141.638 372.75C145.795 370.66 147.593 370.233 147.981 370.262C148.287 370.226 148.412 369.965 148.287 369.749L147.686 368.721L147.688 368.723Z" fill="black"/>
<path d="M97.2947 371.52C87.62 371.265 89.5041 371.535 87.4997 370.764C87.1705 370.637 87.0911 370.895 86.1082 372.089C86.0037 372.216 86.006 372.4 86.1127 372.525C86.1604 372.577 87.2432 373.815 89.3792 373.815C95.7193 373.815 95.8215 373.933 96.0349 373.706C97.6852 371.937 97.7169 371.994 97.6012 371.726C97.5512 371.601 97.4309 371.524 97.2947 371.52Z" fill="black"/>
<path d="M205.122 427.395C205.115 396.203 196.344 356.186 164.948 356.186C118.547 356.186 95.8807 420.395 93.5495 427.395C92.7527 427.395 92.0898 428.04 92.0898 428.837V429.561C92.0898 430.358 92.7345 431.002 93.5313 431.002H101.578C102.375 431.002 103.02 430.358 103.02 429.561V428.837C103.02 428.283 102.695 427.815 102.237 427.575C106.736 415.339 127.708 364.435 164.952 364.435C190.637 364.435 196.887 402.053 196.873 427.475C196.271 427.647 195.824 428.181 195.824 428.837V429.561C195.824 430.358 196.469 431.002 197.266 431.002H205.313C206.11 431.002 206.754 430.358 206.754 429.561V428.837C206.754 428.574 206.625 427.395 205.122 427.395ZM164.957 363.064C126.376 363.064 104.943 416.173 100.848 427.395H95.0045C102.189 406.307 116.313 381.378 134.36 368.146C143.939 361.114 154.233 357.55 164.952 357.55C195.384 357.55 203.74 397.034 203.756 427.395H198.251C198.21 400.914 191.62 363.064 164.957 363.064Z" fill="black"/>
<path d="M180.898 428.7C184.961 417.398 206.077 364.314 244.547 364.314C275.818 364.314 277.212 417.393 277.153 428.7H284.036C284.231 397.767 275.641 357.436 244.547 357.436C197.024 357.436 174.556 425.788 173.625 428.7H180.898Z" fill="white"/>
<path d="M284.791 427.964C284.482 427.964 286.838 356.754 244.542 356.754C198.111 356.754 175.447 421.049 173.139 427.98C172.383 428.025 171.781 428.638 171.781 429.403V430.127C171.781 430.924 172.426 431.569 173.223 431.569H181.27C182.067 431.569 182.711 430.924 182.711 430.127V429.403C182.711 428.815 182.357 428.313 181.853 428.089C186.396 415.758 207.359 365.001 244.551 365.001C270.243 365.001 276.478 402.619 276.471 428.018C275.813 428.15 275.307 428.706 275.307 429.403V430.127C275.307 430.924 275.952 431.569 276.748 431.569H284.795C285.592 431.569 286.237 430.924 286.237 430.127V429.403C286.237 428.606 285.592 427.962 284.795 427.962L284.791 427.964ZM244.551 363.632C205.97 363.632 184.536 416.741 180.441 427.964H174.598C181.767 406.923 195.87 381.974 213.953 368.715C223.533 361.682 233.827 358.118 244.546 358.118C274.955 358.118 283.334 397.555 283.349 427.964H277.845C277.804 401.452 271.221 363.632 244.551 363.632Z" fill="black"/>
<path d="M205.676 352.891H302.871C306.235 352.891 308.966 355.621 308.966 358.986V363.437C308.966 366.801 306.235 369.53 302.873 369.53H205.679C202.314 369.53 199.586 366.799 199.586 363.437V358.986C199.586 355.621 202.317 352.893 205.679 352.893L205.676 352.891Z" fill="#81F889"/>
<path d="M302.868 352.21H205.681C201.944 352.21 198.902 355.252 198.902 358.988V363.437C198.902 367.174 201.944 370.213 205.681 370.213H302.868C306.607 370.213 309.647 367.174 309.647 363.437V358.988C309.647 355.252 306.605 352.21 302.868 352.21ZM308.273 358.984V363.433C308.273 366.413 305.847 368.842 302.864 368.842H205.676C202.693 368.842 200.264 366.416 200.264 363.433V358.984C200.264 356.003 202.691 353.574 205.676 353.574H302.864C305.844 353.574 308.273 356.001 308.273 358.984Z" fill="black"/>
<path d="M258.635 334.703L247.553 287.265C246.86 284.293 244.209 282.193 241.16 282.193H179.952C176.897 282.193 172.463 285.344 170.586 288.647C171.728 287.644 173.215 287.01 174.888 287.01H236.096C239.144 287.01 241.796 289.11 242.488 292.081L253.57 339.52C254.102 341.785 253.364 343.974 251.913 345.506C255.638 343.654 259.427 338.097 258.635 334.703Z" fill="white"/>
<path d="M253.567 339.52C254.529 343.638 251.404 347.581 247.174 347.581H185.966C182.917 347.581 180.266 345.481 179.574 342.51L168.492 295.072C167.529 290.954 170.655 287.011 174.884 287.011H236.092C239.141 287.011 241.792 289.11 242.484 292.082L253.567 339.52Z" fill="#81F889"/>
<path d="M259.307 334.551L248.222 287.113C247.448 283.814 244.545 281.513 241.16 281.513H179.952C174.922 281.513 166.434 289.276 167.823 295.228L178.906 342.666C179.682 345.965 182.585 348.267 185.968 348.267H247.178C250.247 348.267 254.678 344.821 256.585 342.417C258.287 340.269 259.897 337.075 259.307 334.551ZM185.963 346.896C183.219 346.896 180.865 345.027 180.24 342.353L169.156 294.915C168.287 291.197 171.126 287.694 174.885 287.694H236.101C238.843 287.694 241.197 289.562 241.823 292.236L252.908 339.675C253.777 343.393 250.937 346.896 247.178 346.896H185.963ZM254.088 343.086C254.449 341.89 254.533 340.619 254.24 339.364L243.156 291.925C242.382 288.627 239.478 286.325 236.094 286.325C173.035 286.325 174.574 286.182 173.035 286.584C175.146 284.441 177.979 282.881 179.95 282.881L241.158 282.877C243.902 282.877 246.256 284.745 246.883 287.419L257.965 334.858C258.569 337.427 256.197 341.107 254.088 343.086Z" fill="black"/>
<path d="M227.537 372.361C228.175 372.361 228.661 371.768 228.504 371.137L215.751 316.559C215.499 315.481 214.541 314.721 213.436 314.721H196.708C195.916 314.721 195.349 315.465 195.53 316.205L208.02 369.666C208.392 371.248 209.799 372.363 211.422 372.363H227.535L227.537 372.361Z" fill="white"/>
<path d="M218.191 314.634C217.86 313.242 216.636 312.269 215.206 312.269H198.479C197.825 312.269 197.139 312.77 196.874 312.984C195.743 313.928 194.552 314.963 194.863 316.355L207.354 369.815C207.799 371.718 209.475 373.046 211.422 373.046H227.537C229.146 373.046 231.457 371.42 231.115 369.933L218.191 314.634ZM227.535 371.677H211.42C210.108 371.677 208.987 370.785 208.689 369.509L196.197 316.044C196.118 315.71 196.386 315.403 196.713 315.403L213.434 315.399C214.223 315.399 214.902 315.939 215.084 316.711C228.643 374.494 228.15 371.677 227.535 371.677Z" fill="black"/>
<path d="M223.062 428.7C227.125 417.398 248.239 364.314 286.711 364.314C317.982 364.314 319.376 417.393 319.317 428.7H326.2C326.393 397.767 317.805 357.436 286.711 357.436C239.188 357.436 216.72 425.788 215.789 428.7H223.062Z" fill="white"/>
<path d="M269.45 369.292C269.313 369.056 269.42 369.099 266.487 369.21C266.26 369.219 265.838 369.539 262.015 371.562C261.818 371.666 261.777 371.929 261.925 372.091C262.887 373.137 263.076 373.489 263.4 373.319C267.556 371.228 269.354 370.801 269.742 370.831C270.049 370.794 270.174 370.533 270.049 370.32L269.45 369.292Z" fill="black"/>
<path d="M219.053 372.088C209.376 371.834 211.262 372.104 209.257 371.332C208.928 371.205 208.847 371.464 207.866 372.658C207.762 372.785 207.764 372.969 207.871 373.094C207.916 373.146 209.001 374.383 211.139 374.383C217.479 374.383 217.582 374.501 217.795 374.274C219.445 372.506 219.477 372.562 219.364 372.295C219.311 372.17 219.193 372.09 219.057 372.086L219.053 372.088Z" fill="black"/>
<path d="M326.884 427.964C326.877 396.772 318.106 356.754 286.709 356.754C240.308 356.754 217.642 420.963 215.311 427.964C214.514 427.964 213.852 428.608 213.852 429.405V430.129C213.852 430.926 214.496 431.571 215.293 431.571H223.34C224.137 431.571 224.782 430.926 224.782 430.129V429.405C224.782 428.851 224.457 428.384 223.998 428.143C228.5 415.908 249.47 365.003 286.714 365.003C312.399 365.003 318.646 402.622 318.635 428.043C318.033 428.216 317.586 428.749 317.586 429.405V430.129C317.586 430.926 318.231 431.571 319.027 431.571H327.075C327.871 431.571 328.516 430.926 328.516 430.129V429.405C328.516 429.142 328.389 427.964 326.886 427.964H326.884ZM286.719 363.632C248.138 363.632 226.704 416.741 222.609 427.964H216.766C223.951 406.875 238.075 381.946 256.121 368.715C265.701 361.682 275.995 358.118 286.714 358.118C317.146 358.118 325.501 397.603 325.517 427.964H320.013C319.972 401.482 313.382 363.632 286.719 363.632Z" fill="black"/>
<path d="M302.679 428.7C306.743 417.398 327.856 364.314 366.328 364.314C397.599 364.314 398.993 417.393 398.934 428.7H405.817C406.01 397.767 397.422 357.436 366.328 357.436C318.805 357.436 296.337 425.788 295.406 428.7H302.679Z" fill="white"/>
<path d="M406.572 427.964C406.263 427.964 408.62 356.754 366.323 356.754C319.892 356.754 297.229 421.049 294.92 427.98C294.166 428.025 293.562 428.638 293.562 429.403V430.127C293.562 430.924 294.207 431.569 295.004 431.569H303.051C303.848 431.569 304.493 430.924 304.493 430.127V429.403C304.493 428.815 304.138 428.313 303.634 428.089C308.177 415.758 329.14 365.001 366.332 365.001C392.024 365.001 398.259 402.619 398.253 428.018C397.594 428.15 397.088 428.706 397.088 429.403V430.127C397.088 430.924 397.733 431.569 398.53 431.569H406.577C407.374 431.569 408.018 430.924 408.018 430.127V429.403C408.018 428.606 407.374 427.962 406.577 427.962L406.572 427.964ZM366.332 363.632C327.751 363.632 306.318 416.741 302.223 427.964H296.38C303.548 406.923 317.652 381.974 335.735 368.715C345.314 361.682 355.608 358.118 366.327 358.118C396.736 358.118 405.115 397.555 405.131 427.964H399.626C399.585 401.452 393.002 363.632 366.332 363.632Z" fill="black"/>
<path d="M327.458 352.891H424.652C428.016 352.891 430.747 355.621 430.747 358.986V363.437C430.747 366.801 428.016 369.53 424.654 369.53H327.46C324.096 369.53 321.367 366.799 321.367 363.437V358.986C321.367 355.621 324.098 352.893 327.46 352.893L327.458 352.891Z" fill="#81F889"/>
<path d="M424.654 352.21H327.466C323.729 352.21 320.688 355.252 320.688 358.988V363.437C320.688 367.174 323.729 370.213 327.466 370.213H424.654C428.392 370.213 431.432 367.174 431.432 363.437V358.988C431.432 355.252 428.39 352.21 424.654 352.21ZM430.058 358.984V363.433C430.058 366.413 427.632 368.842 424.649 368.842H327.459C324.476 368.842 322.047 366.416 322.047 363.433V358.984C322.047 356.003 324.474 353.574 327.459 353.574H424.649C427.629 353.574 430.058 356.001 430.058 358.984Z" fill="black"/>
<path d="M380.416 334.703L369.334 287.265C368.641 284.293 365.99 282.193 362.941 282.193H301.733C298.678 282.193 294.244 285.344 292.367 288.647C293.509 287.644 294.996 287.01 296.671 287.01H357.879C360.928 287.01 363.579 289.11 364.272 292.081L375.354 339.52C375.885 341.785 375.147 343.974 373.697 345.506C377.422 343.654 381.21 338.094 380.418 334.701L380.416 334.703Z" fill="white"/>
<path d="M375.352 339.52C376.314 343.638 373.188 347.581 368.959 347.581H307.751C304.703 347.581 302.051 345.481 301.359 342.51L290.277 295.072C289.314 290.954 292.44 287.011 296.669 287.011H357.877C360.926 287.011 363.577 289.11 364.27 292.082L375.352 339.52Z" fill="#81F889"/>
<path d="M381.088 334.551L370.004 287.113C369.229 283.814 366.326 281.513 362.942 281.513H301.733C296.703 281.513 288.215 289.276 289.605 295.228L300.687 342.666C301.463 345.965 304.366 348.267 307.749 348.267H368.959C372.028 348.267 376.459 344.821 378.366 342.417C380.069 340.269 381.678 337.075 381.088 334.551ZM307.744 346.896C305 346.896 302.646 345.027 302.022 342.353L290.937 294.915C290.068 291.197 292.908 287.694 296.667 287.694H357.882C360.624 287.694 362.978 289.562 363.604 292.236L374.689 339.675C375.558 343.393 372.718 346.896 368.959 346.896H307.744ZM375.869 343.086C376.23 341.89 376.314 340.619 376.021 339.364L364.937 291.925C364.163 288.627 361.26 286.325 357.875 286.325C294.817 286.325 296.356 286.182 294.817 286.584C296.928 284.441 299.761 282.881 301.731 282.881L362.939 282.877C365.684 282.877 368.038 284.745 368.664 287.419L379.746 334.858C380.35 337.427 377.976 341.107 375.867 343.086H375.869Z" fill="black"/>
<path d="M349.322 372.361C349.96 372.361 350.446 371.768 350.289 371.137L337.536 316.559C337.284 315.481 336.327 314.721 335.221 314.721H318.493C317.701 314.721 317.134 315.465 317.315 316.205L329.805 369.666C330.177 371.248 331.585 372.363 333.208 372.363H349.32L349.322 372.361Z" fill="white"/>
<path d="M339.973 314.634C339.644 313.242 338.418 312.269 336.988 312.269H320.26C319.606 312.269 318.921 312.77 318.655 312.984C317.525 313.928 316.333 314.963 316.644 316.355L329.136 369.815C329.581 371.718 331.256 373.046 333.204 373.046H349.318C350.928 373.046 353.239 371.42 352.896 369.933L339.973 314.634ZM349.316 371.677H333.201C331.889 371.677 330.768 370.785 330.47 369.509L317.979 316.044C317.901 315.71 318.169 315.403 318.494 315.403L335.215 315.399C336.005 315.399 336.683 315.939 336.865 316.711C350.424 374.494 349.931 371.677 349.316 371.677Z" fill="black"/>
<path d="M344.843 428.7C348.907 417.398 370.022 364.314 408.492 364.314C439.763 364.314 441.157 417.393 441.098 428.7H447.981C448.174 397.767 439.586 357.436 408.492 357.436C360.969 357.436 338.501 425.788 337.57 428.7H344.843Z" fill="white"/>
<path d="M391.231 369.292C391.095 369.056 391.201 369.099 388.269 369.21C388.042 369.219 387.619 369.539 383.797 371.562C383.599 371.666 383.558 371.929 383.706 372.091C384.668 373.137 384.857 373.489 385.181 373.319C389.338 371.228 391.136 370.801 391.524 370.831C391.83 370.794 391.955 370.533 391.83 370.32L391.231 369.292Z" fill="black"/>
<path d="M340.838 372.088C331.163 371.834 333.047 372.104 331.043 371.332C330.714 371.205 330.634 371.464 329.651 372.658C329.547 372.785 329.549 372.969 329.656 373.094C329.703 373.146 330.786 374.383 332.924 374.383C339.265 374.383 339.367 374.501 339.58 374.274C341.23 372.506 341.262 372.562 341.146 372.295C341.096 372.17 340.976 372.09 340.84 372.086L340.838 372.088Z" fill="black"/>
<path d="M448.665 427.964C448.658 396.772 439.887 356.754 408.491 356.754C362.09 356.754 339.424 420.963 337.092 427.964C336.296 427.964 335.633 428.608 335.633 429.405V430.129C335.633 430.926 336.277 431.571 337.074 431.571H345.121C345.918 431.571 346.563 430.926 346.563 430.129V429.405C346.563 428.851 346.238 428.384 345.78 428.143C350.281 415.908 371.251 365.003 408.495 365.003C434.18 365.003 440.43 402.622 440.416 428.043C439.814 428.216 439.367 428.749 439.367 429.405V430.129C439.367 430.926 440.012 431.571 440.809 431.571H448.856C449.653 431.571 450.297 430.926 450.297 430.129V429.405C450.297 429.142 450.17 427.964 448.667 427.964H448.665ZM408.5 363.632C369.919 363.632 348.486 416.741 344.39 427.964H338.547C345.732 406.875 359.856 381.946 377.902 368.715C387.482 361.682 397.776 358.118 408.495 358.118C438.927 358.118 447.283 397.603 447.299 427.964H441.794C441.753 401.482 435.163 363.632 408.5 363.632Z" fill="black"/>
</svg>
