<svg width="56" height="56" viewBox="0 0 56 56" fill="none" xmlns="http://www.w3.org/2000/svg">
<path fill-rule="evenodd" clip-rule="evenodd" d="M38.3215 30.8824L43.9258 36.4873C44.2637 36.826 44.4535 37.285 44.4535 37.7634C44.4535 38.2419 44.2637 38.7009 43.9258 39.0396L43.0002 39.9668L35.3965 32.3635L36.8777 30.8824C37.0693 30.6913 37.3289 30.584 37.5996 30.584C37.8702 30.584 38.1298 30.6913 38.3215 30.8824Z" fill="#00FFB0"/>
<path fill-rule="evenodd" clip-rule="evenodd" d="M16.0352 13.0002L16.9622 12.0732C17.3013 11.7361 17.7601 11.5469 18.2383 11.5469C18.7165 11.5469 19.1753 11.7361 19.5145 12.0732L25.1188 17.6786C25.3099 17.8702 25.4172 18.1297 25.4172 18.4002C25.4172 18.6708 25.3099 18.9303 25.1188 19.1219L23.6375 20.603L16.0352 13.0002Z" fill="#00FFB0"/>
<path fill-rule="evenodd" clip-rule="evenodd" d="M30.9963 17.423C30.7725 17.423 30.5579 17.3341 30.3997 17.1759C30.2414 17.0177 30.1525 16.8031 30.1525 16.5793C30.1525 16.3555 30.2414 16.1409 30.3997 15.9827C30.5579 15.8244 30.7725 15.7355 30.9963 15.7355C33.4536 15.7381 35.8096 16.7155 37.5471 18.4531C39.2847 20.1908 40.2619 22.5468 40.2643 25.0041C40.2643 25.2279 40.1754 25.4425 40.0172 25.6007C39.859 25.759 39.6443 25.8479 39.4206 25.8479C39.1968 25.8479 38.9822 25.759 38.8239 25.6007C38.6657 25.4425 38.5768 25.2279 38.5768 25.0041C38.5745 22.9943 37.7752 21.0675 36.3541 19.6463C34.933 18.2251 33.0063 17.4255 30.9965 17.423H30.9963ZM46.001 25.0041C46.0007 16.7304 39.269 10 30.9963 10C30.7725 10 30.5579 10.0889 30.3997 10.2471C30.2414 10.4054 30.1525 10.62 30.1525 10.8438C30.1525 11.0675 30.2414 11.2821 30.3997 11.4404C30.5579 11.5986 30.7725 11.6875 30.9963 11.6875C38.3382 11.6875 44.3129 17.6613 44.3129 25.004C44.3129 25.2278 44.4018 25.4424 44.56 25.6006C44.7183 25.7588 44.9329 25.8477 45.1567 25.8477C45.3804 25.8477 45.5951 25.7588 45.7533 25.6006C45.9115 25.4424 46.0004 25.2278 46.0004 25.004L46.001 25.0041ZM43.8268 38.9394L43.0007 39.7669L35.5957 32.363L36.9774 30.9812C37.1427 30.8165 37.3665 30.7239 37.5999 30.7239C37.8332 30.7239 38.0571 30.8165 38.2223 30.9812L43.8262 36.5859C44.1377 36.8982 44.3126 37.3214 44.3126 37.7625C44.3126 38.2037 44.1377 38.6268 43.8262 38.9392L43.8268 38.9394ZM39.4078 43.3578L41.8074 40.9601L34.4026 33.5562L32.9999 34.9596C32.5996 35.3676 32.0733 35.6284 31.5063 35.6999C30.9393 35.7713 30.3647 35.6492 29.8757 35.3534C27.9842 34.233 26.2336 32.8904 24.6611 31.354C24.6554 31.3503 24.6505 31.3456 24.6466 31.3399C23.1101 29.7674 21.7673 28.0165 20.647 26.1248C20.3509 25.6359 20.2286 25.0613 20.3001 24.4943C20.3716 23.9272 20.6326 23.4009 21.0407 23.0009L22.4434 21.5973L15.04 14.1935L12.6423 16.5919C11.8126 17.421 11.5096 18.5044 11.7872 19.6435C13.3481 26.0349 16.236 31.4138 20.3689 35.6312C24.5867 39.7641 29.9656 42.6519 36.3574 44.2128C37.496 44.4905 38.5798 44.1875 39.4076 43.3578H39.4078ZM18.237 11.6875C18.4556 11.6865 18.6721 11.7289 18.8741 11.8122C19.0762 11.8955 19.2597 12.018 19.4141 12.1727L25.0186 17.7782C25.1834 17.9433 25.2759 18.1671 25.2759 18.4004C25.2759 18.6338 25.1834 18.8575 25.0186 19.0227L23.6368 20.4045L16.2331 13.0003L17.0608 12.1727C17.215 12.018 17.3984 11.8955 17.6003 11.8122C17.8022 11.729 18.0186 11.6866 18.237 11.6875ZM39.4156 29.7881C38.9337 29.3072 38.2807 29.0372 37.5999 29.0372C36.919 29.0372 36.266 29.3072 35.7841 29.7881L31.8064 33.7665C31.6701 33.9079 31.4896 33.9985 31.2947 34.0231C31.0999 34.0476 30.9025 34.0047 30.7354 33.9015C28.9621 32.8516 27.3207 31.5934 25.8461 30.1538C24.4066 28.6793 23.1485 27.0381 22.0985 25.2651C21.9953 25.098 21.9525 24.9005 21.9772 24.7057C22.0019 24.5108 22.0926 24.3303 22.2342 24.1941L26.2119 20.2158C26.693 19.7341 26.9632 19.0811 26.9632 18.4003C26.9632 17.7195 26.693 17.0666 26.2119 16.5848L20.6075 10.9795C19.9783 10.3523 19.1261 10.0001 18.2377 10.0001C17.3493 10.0001 16.4971 10.3523 15.8679 10.9795L11.4483 15.3987C10.2052 16.6426 9.73063 18.3357 10.1482 20.0436C11.783 26.7373 14.8184 32.3806 19.1693 36.8187L19.1812 36.8307C23.6188 41.1816 29.2633 44.217 35.9563 45.8518C36.3526 45.9495 36.7593 45.9993 37.1675 46C38.4446 46 39.6539 45.4994 40.6009 44.5516L45.0199 40.1324C45.6479 39.5036 46.0006 38.6512 46.0006 37.7625C46.0006 36.8738 45.6479 36.0214 45.0199 35.3926L39.4156 29.7881Z" fill="#B0B0B0"/>
</svg>
