<svg width="20" height="21" viewBox="0 0 20 21" fill="none" xmlns="http://www.w3.org/2000/svg">
<path d="M18.125 5.05958C17.5273 5.31739 16.877 5.50294 16.207 5.5752C16.9026 5.16199 17.4234 4.50919 17.6719 3.73927C17.0192 4.12753 16.3042 4.39978 15.5586 4.54395C15.247 4.2108 14.8701 3.9454 14.4514 3.76428C14.0327 3.58316 13.5812 3.49021 13.125 3.49122C11.2793 3.49122 9.79492 4.98731 9.79492 6.82325C9.79492 7.08106 9.82617 7.33888 9.87695 7.58692C7.11328 7.44239 4.64844 6.12208 3.00977 4.10059C2.71118 4.61059 2.55471 5.19127 2.55664 5.78223C2.55664 6.93848 3.14453 7.95802 4.04102 8.55763C3.5127 8.53682 2.99676 8.39161 2.53516 8.1338V8.17481C2.53516 9.79395 3.67969 11.1358 5.20508 11.4443C4.91867 11.5187 4.62404 11.5568 4.32812 11.5576C4.11133 11.5576 3.90625 11.5361 3.69922 11.5068C4.12109 12.8272 5.34961 13.7861 6.8125 13.8174C5.66797 14.7139 4.23438 15.2412 2.67773 15.2412C2.39844 15.2412 2.14062 15.2315 1.87305 15.2002C3.34961 16.1475 5.10156 16.6943 6.98828 16.6943C13.1133 16.6943 16.4648 11.6201 16.4648 7.21583C16.4648 7.0713 16.4648 6.92677 16.4551 6.78223C17.1035 6.30763 17.6719 5.71973 18.125 5.05958Z" fill="white"/>
</svg>
