<svg width="428" height="344" viewBox="0 0 428 344" fill="none" xmlns="http://www.w3.org/2000/svg">
<g clip-path="url(#clip0_469_62260)">
<path fill-rule="evenodd" clip-rule="evenodd" d="M248.049 164L311.66 126.045L318.555 129.313L253.662 167.243L248.049 164Z" fill="black"/>
<path fill-rule="evenodd" clip-rule="evenodd" d="M258.325 258.839L327.713 294.77L321.205 298.534L252.475 262.053L258.323 258.837L258.325 258.839Z" fill="black"/>
<path fill-rule="evenodd" clip-rule="evenodd" d="M173.732 259.605L107.646 298.399L113.707 302.371L179.58 262.824L173.732 259.605Z" fill="black"/>
<path fill-rule="evenodd" clip-rule="evenodd" d="M174.454 167.634L109.049 130.017L115.109 126.045L180.302 164.416L174.454 167.634Z" fill="black"/>
<path fill-rule="evenodd" clip-rule="evenodd" d="M153.037 185.959L209.097 216.974V279.152L153.037 248.137V185.959Z" fill="#81F889"/>
<path fill-rule="evenodd" clip-rule="evenodd" d="M276.079 185.959L220.021 216.974V279.152L276.079 248.137V185.959Z" fill="black"/>
<path fill-rule="evenodd" clip-rule="evenodd" d="M271.059 177.299L213.45 210.559L156.945 177.902L214.556 144.64L271.059 177.299Z" fill="white"/>
<path d="M209.094 280.222C208.656 280.222 209.03 280.307 152.517 249.072C152.177 248.883 151.965 248.526 151.965 248.134V185.957C151.965 185.148 152.836 184.624 153.553 185.02L209.61 216.034C209.95 216.223 210.162 216.58 210.162 216.972V279.149C210.162 279.74 209.683 280.219 209.092 280.219L209.094 280.222ZM154.107 247.505L208.024 277.337V217.605L154.107 187.774V247.505Z" fill="black"/>
<path d="M220.021 280.222C219.431 280.222 218.951 279.743 218.951 279.152V216.974C218.951 216.585 219.163 216.225 219.503 216.037L275.561 185.022C276.29 184.626 277.148 185.157 277.148 185.96V248.137C277.148 248.527 276.937 248.886 276.596 249.074C220.092 280.306 220.458 280.224 220.019 280.224L220.021 280.222ZM221.091 217.606V277.337L275.008 247.506V187.775L221.091 217.606Z" fill="black"/>
<path d="M213.448 211.629C212.992 211.629 213.378 211.682 156.409 178.827C155.698 178.416 155.696 177.387 156.409 176.974L214.02 143.714C214.349 143.523 214.76 143.523 215.09 143.714L271.594 176.372C272.307 176.781 272.307 177.812 271.594 178.225C213.574 211.774 213.904 211.629 213.448 211.629ZM159.084 177.9L213.448 209.322L268.919 177.297L214.555 145.875L159.084 177.9Z" fill="black"/>
<path fill-rule="evenodd" clip-rule="evenodd" d="M10.7012 47.3601L70.6469 12.6792L129.677 47.8842L130.126 118.104L71.6569 150.647L10.8938 117.696L10.7012 47.3601Z" fill="white"/>
<path d="M130.746 47.8778C130.746 47.5033 130.545 47.1587 130.224 46.9661L71.1944 11.7611C70.8627 11.5599 70.4433 11.5599 70.1116 11.7546L10.1659 46.4354C9.83418 46.6259 9.62874 46.9811 9.63088 47.3642L9.82348 117.697C9.82348 118.089 10.0396 118.449 10.3842 118.635L71.1495 151.584C71.4747 151.762 71.8664 151.753 72.1788 151.58L130.648 119.037C130.988 118.847 131.2 118.485 131.198 118.095L130.746 47.8778ZM70.638 13.9225L127.551 47.8649L70.4176 80.4314L12.8452 47.3577L70.638 13.9225ZM11.7773 49.2131L69.3561 82.289L70.5567 148.83L11.9613 117.058L11.7773 49.2131ZM72.6967 148.845L71.4961 82.2804L128.619 49.7225L129.054 117.479L72.6967 148.845Z" fill="black"/>
<path fill-rule="evenodd" clip-rule="evenodd" d="M43.4266 51.0044L36.9082 47.36L72.7725 24.3828L98.1721 39.656L94.6347 42.0571L100.821 45.7785L67.5616 69.1409L39.5575 53.4825L43.4266 51.0044Z" fill="white"/>
<path d="M43.4238 52.0742C43.03 52.0742 43.4752 52.2647 36.3832 48.295C35.6791 47.9012 35.647 46.8954 36.3297 46.461L72.1961 23.4838C72.5406 23.2655 72.9793 23.2591 73.3239 23.4667L98.7214 38.7399C99.0338 38.9282 99.2286 39.2642 99.2393 39.628C99.2607 40.4048 98.9782 40.4091 95.2353 42.9428C94.7474 43.2745 94.0755 43.1483 93.748 42.6582C93.4185 42.1682 93.5426 41.5048 94.0327 41.1731L96.1855 39.7114L72.791 25.6431L38.9876 47.2977L43.946 50.069C44.9047 50.604 44.5216 52.0742 43.4238 52.0742Z" fill="black"/>
<path fill-rule="evenodd" clip-rule="evenodd" d="M90.2143 126.009L83.6659 129.596L83.2422 87.0035L109.673 73.5942L109.83 77.8657L116.269 74.5979L118.402 115.185L90.2614 130.6L90.2165 126.007L90.2143 126.009Z" fill="white"/>
<path d="M83.6635 130.668C83.0707 130.668 82.5999 130.191 82.5935 129.608L82.1719 87.016C82.1677 86.6094 82.3945 86.2349 82.7562 86.0509L109.187 72.6395C109.513 72.4747 109.902 72.4854 110.214 72.6716C110.884 73.0675 110.735 73.3093 110.897 77.8268C110.946 79.2221 108.809 79.3548 108.757 77.906L108.663 75.3059L84.3162 87.658L84.7164 127.8L89.6983 125.069C90.2141 124.785 90.8668 124.973 91.1514 125.493C91.436 126.011 91.2455 126.662 90.7277 126.946C83.6271 130.839 84.0509 130.668 83.6635 130.668Z" fill="black"/>
<path fill-rule="evenodd" clip-rule="evenodd" d="M30.644 112.091L24.0956 108.545L23.6719 65.4922L50.103 80.8745L50.2592 85.3171L56.6985 89.0643L58.8321 131.976L30.6911 116.734L30.644 112.091Z" fill="white"/>
<path d="M30.6457 113.161C30.2669 113.161 30.6906 113.336 23.5858 109.484C23.2456 109.3 23.0294 108.943 23.0252 108.553L22.6036 65.5007C22.595 64.679 23.4895 64.1461 24.2129 64.5656L50.644 79.9481C50.9607 80.1321 51.1619 80.4679 51.1747 80.836L51.3288 85.2786C51.378 86.6739 49.2402 86.8002 49.1888 85.3535L49.0561 81.5015L24.7628 67.3647L25.1609 107.905L31.1572 111.154C32.1287 111.68 31.7542 113.163 30.6478 113.163L30.6457 113.161Z" fill="black"/>
<path d="M67.5629 70.213C67.1263 70.213 67.4388 70.32 39.0367 54.4177C38.3326 54.0239 38.3027 53.0181 38.9832 52.5837L74.8474 29.6065C75.192 29.3882 75.6307 29.384 75.9752 29.5894L101.375 44.8626C102.038 45.2628 102.073 46.2108 101.437 46.6559C67.6613 70.3521 68.0872 70.213 67.5629 70.213ZM41.6411 53.4204L67.4987 67.8804L98.8625 45.8513L75.4423 31.7658L41.6411 53.4204Z" fill="black"/>
<path d="M90.2592 131.672C89.6664 131.672 89.1956 131.195 89.1892 130.612L88.7676 88.0222C88.7634 87.6156 88.9902 87.2411 89.3519 87.057L115.783 73.6457C116.472 73.2968 117.296 73.7719 117.337 74.5423L119.468 115.13C119.492 115.54 119.273 115.928 118.914 116.125C90.3341 131.802 90.6851 131.672 90.2592 131.672ZM90.9141 88.6642L91.3142 128.804L117.298 114.571L115.289 76.2971L90.9141 88.6642Z" fill="black"/>
<path d="M58.832 133.046C58.4105 133.046 58.74 133.161 30.1817 117.674C29.8415 117.49 29.6253 117.133 29.621 116.743L29.1973 73.6907C29.1888 72.8689 30.0833 72.3361 30.8066 72.7555L57.2377 88.1378C57.5502 88.3197 57.7492 88.6471 57.7663 89.0088L59.8999 131.92C59.932 132.53 59.4419 133.044 58.832 133.044V133.046ZM31.7568 116.095L57.6679 130.131L55.6584 89.6979L31.3587 75.5546L31.7589 116.095H31.7568Z" fill="black"/>
<path d="M90.728 47.2247C90.2978 47.2247 91.7209 47.9993 73.4945 36.9141C72.9895 36.606 72.829 35.9469 73.1372 35.4418C73.4453 34.9389 74.1023 34.7784 74.6073 35.0844L91.2844 45.2387C92.2046 45.7973 91.8065 47.2225 90.728 47.2225V47.2247Z" fill="black"/>
<path d="M93.7641 93.16C92.6406 93.16 92.2789 91.6363 93.2847 91.1334L110.745 82.3958C111.271 82.1347 111.916 82.3466 112.181 82.8752C112.444 83.4037 112.23 84.0457 111.702 84.3111C92.8011 93.7656 94.145 93.1621 93.7619 93.1621L93.7641 93.16Z" fill="black"/>
<path d="M51.6553 93.3915C51.2315 93.3915 52.6589 94.1704 33.6514 82.9611C33.1443 82.6615 32.9731 82.0067 33.2727 81.4952C33.5723 80.9837 34.2314 80.819 34.7386 81.1164L52.1988 91.3991C53.134 91.9512 52.7402 93.3915 51.6553 93.3915Z" fill="black"/>
<path d="M85.2866 50.7987C84.8564 50.7987 86.2795 51.5734 68.0531 40.4903C67.5481 40.1822 67.3876 39.5252 67.6958 39.018C68.0061 38.513 68.663 38.3546 69.1659 38.6606L85.843 48.8149C86.7632 49.3735 86.3651 50.7987 85.2866 50.7987Z" fill="black"/>
<path d="M51.7994 100.059C51.3757 100.059 52.8031 100.838 33.7956 89.629C32.5801 88.9121 33.6544 87.0674 34.8827 87.7864L52.343 98.0691C53.2782 98.6213 52.8844 100.059 51.7994 100.059Z" fill="black"/>
<path d="M93.9047 99.6702C92.7812 99.6702 92.4195 98.1465 93.4253 97.6436L110.886 88.906C111.41 88.6449 112.056 88.8546 112.322 89.3853C112.585 89.9139 112.371 90.5559 111.842 90.8213C92.9417 100.276 94.2856 99.6723 93.9026 99.6723L93.9047 99.6702Z" fill="black"/>
<path d="M79.8471 54.3746C79.417 54.3746 80.8401 55.1493 62.6137 44.0641C62.1086 43.7559 61.9481 43.0968 62.2563 42.5918C62.5623 42.0867 63.2236 41.9305 63.7265 42.2344L80.4035 52.3887C81.3237 52.9472 80.9257 54.3746 79.8471 54.3746Z" fill="black"/>
<path d="M94.0434 106.178C92.9199 106.178 92.5582 104.654 93.564 104.151L111.024 95.4138C111.546 95.1527 112.193 95.3624 112.46 95.8931C112.723 96.4217 112.509 97.0637 111.981 97.3291C93.0804 106.784 94.4243 106.18 94.0412 106.18L94.0434 106.178Z" fill="black"/>
<path d="M51.9346 106.713C51.5108 106.713 52.9382 107.492 33.9307 96.2829C33.4236 95.9833 33.2524 95.3284 33.552 94.817C33.8537 94.3055 34.5085 94.1407 35.0179 94.4382L52.4781 104.721C53.4133 105.273 53.0195 106.713 51.9346 106.713Z" fill="black"/>
<path d="M74.4037 57.9483C73.9736 57.9483 75.3967 58.723 57.1703 47.6378C56.6653 47.3297 56.5048 46.6705 56.8129 46.1655C57.1232 45.6605 57.7824 45.5042 58.2831 45.8081L74.9601 55.9624C75.8803 56.521 75.4823 57.9483 74.4037 57.9483Z" fill="black"/>
<path d="M94.182 112.688C93.0585 112.688 92.6969 111.164 93.7027 110.661L111.163 101.923C111.683 101.66 112.336 101.872 112.599 102.403C112.862 102.931 112.648 103.573 112.12 103.839C93.219 113.293 94.563 112.69 94.1799 112.69L94.182 112.688Z" fill="black"/>
<path d="M52.0732 113.375C51.6495 113.375 53.0769 114.154 34.0694 102.942C33.5622 102.642 33.391 101.988 33.6906 101.476C33.9881 100.965 34.6472 100.8 35.1565 101.097L52.6168 111.38C53.552 111.932 53.1582 113.375 52.0732 113.375Z" fill="black"/>
<path d="M68.9643 61.5245C68.5342 61.5245 69.9573 62.2992 51.7309 51.214C51.2258 50.9058 51.0653 50.2467 51.3735 49.7416C51.6817 49.2366 52.3408 49.0782 52.8437 49.3843L69.5207 59.5386C70.4409 60.0971 70.0429 61.5223 68.9643 61.5223V61.5245Z" fill="black"/>
<path d="M94.3227 119.196C93.1992 119.196 92.8375 117.672 93.8433 117.169L111.304 108.431C111.824 108.168 112.474 108.38 112.739 108.911C113.003 109.439 112.789 110.081 112.26 110.347C93.3597 119.801 94.7036 119.198 94.3205 119.198L94.3227 119.196Z" fill="black"/>
<path d="M52.214 120.035C51.7903 120.035 53.2177 120.813 34.2081 109.604C33.7009 109.305 33.5297 108.65 33.8293 108.138C34.1289 107.627 34.7837 107.462 35.2952 107.759L52.7576 118.042C53.6928 118.594 53.299 120.035 52.214 120.035Z" fill="black"/>
<path fill-rule="evenodd" clip-rule="evenodd" d="M297.875 47.3601L357.821 12.6792L416.851 47.8842L417.3 118.104L358.831 150.647L298.066 117.698L297.873 47.3621L297.875 47.3601Z" fill="#81F889"/>
<path d="M417.92 47.8778C417.92 47.5033 417.719 47.1587 417.398 46.9661L358.368 11.7611C358.039 11.5599 357.619 11.5599 357.285 11.7546L297.34 46.4354C297.008 46.6259 296.803 46.9811 296.805 47.3642L296.997 117.697C296.997 118.089 297.213 118.449 297.558 118.635L358.323 151.584C358.649 151.762 359.04 151.753 359.353 151.58L417.822 119.037C418.162 118.847 418.374 118.485 418.372 118.095L417.92 47.8778ZM357.812 13.9225L414.725 47.8649L357.591 80.4314L300.019 47.3599L357.812 13.9225ZM298.951 49.2131L356.53 82.289L357.731 148.83L299.137 117.058L298.953 49.2131H298.951ZM359.871 148.845L358.67 82.2804L415.793 49.7225L416.227 117.479L359.871 148.845Z" fill="black"/>
<path fill-rule="evenodd" clip-rule="evenodd" d="M322.662 70.855L322.565 77.4184L316.935 74.4673L316.678 82.7662L319.952 84.7479L319.315 107.22L316.04 106.276L315.801 113.925L321.296 117.276L321.966 122.604L325.709 124.567L326.302 119.735L328.23 120.644L329.298 126.208L332.961 128.258L333.011 123.493C333.011 123.493 340.948 128.186 344.188 125.113C347.428 122.04 346.285 110.644 337.015 102.591C337.015 102.591 343.715 104.618 343.895 98.1015C344.074 91.583 339.024 85.7836 333.95 81.876L333.969 76.6822L329.552 74.279L329.219 79.9992L326.933 78.8714L326.798 72.8751L322.659 70.8571L322.662 70.855ZM328.566 86.9071L328.572 93.4555C328.572 93.4555 337.19 98.2941 337.336 94.8893C337.481 91.4846 328.566 86.9071 328.566 86.9071ZM328.414 103.21L328.427 112.688C328.427 112.688 337.376 118.648 337.903 114.404C338.575 108.975 328.414 103.21 328.414 103.21Z" fill="black"/>
<path fill-rule="evenodd" clip-rule="evenodd" d="M380.032 78.4176L380.263 84.7777L374.701 87.3992L374.864 95.5697L378.112 94.2986L378.609 116.371L375.412 118.633L375.557 126.17L381.012 124.06L381.919 128.5L385.617 126.76L385.949 121.575L387.849 120.582L389.153 124.862L392.778 123.281L392.589 118.682C392.589 118.682 400.458 115.497 403.424 109.431C406.39 103.364 404.725 93.5902 395.408 94.8571C395.408 94.8571 401.954 90.3225 401.806 83.9239C401.659 77.5274 396.51 76.8683 391.436 78.0367L391.198 73.0591L386.831 75.03L386.792 80.8144L384.539 81.9444L384.113 76.3483L380.032 78.4176ZM386.505 88.0434L386.835 94.29C386.835 94.29 395.365 90.5857 395.337 87.1938C395.309 83.8019 386.505 88.0434 386.505 88.0434ZM387.165 103.755L387.644 112.792C387.644 112.792 396.551 109.837 396.846 105.277C397.225 99.4431 387.162 103.755 387.162 103.755H387.165Z" fill="black"/>
<path fill-rule="evenodd" clip-rule="evenodd" d="M331.352 35.7565L336.926 39.6128L331.724 43.1309L338.707 48.1321L341.96 46.2382L360.899 59.7266L358.534 62.2155L364.969 66.8293L370.451 63.6642L375.331 66.1038L378.791 63.767L374.935 60.4457L376.632 59.1831L381.903 61.3873L385.399 59.1724L381.342 56.3904C381.342 56.3904 389.134 51.738 388.042 46.9722C386.951 42.2065 376.649 36.7259 365.35 40.6871C365.35 40.6871 370.27 35.6495 364.776 31.7419C359.283 27.8342 351.913 29.1803 346.154 31.6349L341.716 28.6367L337.56 31.346L342.3 34.9369L340.248 36.4049L335.049 33.0879L331.354 35.7586L331.352 35.7565ZM347.902 39.5058L353.511 43.2593C353.511 43.2593 361.75 38.0591 358.904 35.9705C356.058 33.8819 347.902 39.5058 347.902 39.5058ZM361.789 49.0031L369.91 54.4323C369.91 54.4323 379.268 49.5681 375.883 46.6448C371.554 42.9062 361.789 49.0031 361.789 49.0031Z" fill="black"/>
<path fill-rule="evenodd" clip-rule="evenodd" d="M297.875 312.035L357.821 277.354L416.851 312.56L417.3 382.779L358.831 415.322L298.066 382.373L297.873 312.037L297.875 312.035Z" fill="#81F889"/>
<path d="M417.92 312.551C417.92 312.177 417.719 311.832 417.398 311.64L358.368 276.434C358.039 276.233 357.619 276.233 357.285 276.428L297.34 311.109C297.008 311.299 296.803 311.655 296.805 312.038L296.997 382.373C296.997 382.765 297.213 383.124 297.558 383.31L358.323 416.26C358.649 416.437 359.04 416.429 359.353 416.256L417.822 383.713C418.162 383.522 418.374 383.16 418.372 382.771L417.92 312.551ZM357.812 278.596L414.725 312.538L357.591 345.105L300.019 312.033L357.812 278.596ZM298.951 313.887L356.53 346.962L357.731 413.506L299.137 381.733L298.953 313.889L298.951 313.887ZM359.871 413.519L358.67 346.952L415.793 314.394L416.227 382.15L359.871 413.519Z" fill="black"/>
<path fill-rule="evenodd" clip-rule="evenodd" d="M367.518 312.94L370.36 311.188C373.335 309.354 382.331 305.928 371.991 300.982C366.662 298.433 358.209 303.995 358.209 303.995L354.952 305.855L349.797 302.709L358.209 297.851C358.209 297.851 366.594 293.064 374.822 297.333C388.758 304.565 383.842 309.386 380.75 311.171L372.121 316.153L367.516 312.94H367.518Z" fill="white"/>
<path fill-rule="evenodd" clip-rule="evenodd" d="M377.264 319.237L347.426 301.34L323.832 313.968L354.423 333.645L377.266 319.237H377.264Z" fill="white"/>
<path d="M385.248 306.394C385.173 303.088 381.925 299.814 375.317 296.383C366.669 291.896 358.04 296.713 357.674 296.923L349.763 301.492C347.912 300.381 347.597 300.034 346.921 300.394L323.327 313.02C322.613 313.403 322.566 314.421 323.255 314.862C354.338 334.814 353.936 334.711 354.424 334.711C354.905 334.711 354.518 334.826 377.835 320.135C378.507 319.712 378.501 318.723 377.814 318.312L374.234 316.166L381.287 312.093C383.889 310.591 385.295 308.566 385.248 306.39V306.394ZM354.43 332.376L325.943 314.051L347.398 302.57L375.225 319.258L354.43 332.376ZM357.071 305.876L358.8 304.888C358.884 304.836 366.842 299.647 371.542 301.952C375.186 303.651 375.764 304.894 375.781 305.481C375.828 306.934 372.894 308.547 371.141 309.512C369.834 310.233 370.221 310.015 367.142 311.918L357.071 305.876ZM380.219 310.244L372.137 314.911L369.209 313.157C371.225 311.913 371.041 312.01 372.175 311.387C374.638 310.032 378.015 308.175 377.923 305.41C377.859 303.465 376.066 301.699 372.466 300.021C366.682 297.182 357.987 302.859 357.681 303.067L354.969 304.616L351.864 302.754L358.74 298.782C358.819 298.737 366.744 294.344 374.332 298.286C381.054 301.774 386.753 306.476 380.219 310.246V310.244Z" fill="black"/>
<path d="M353.678 311.982C351.854 311.982 350.185 313.127 350.423 314.764L342.941 318.106C342.162 318.455 342.085 319.532 342.807 319.988L347.632 323.037C348.101 323.33 348.707 323.223 349.042 322.797L353.697 316.934C355.525 316.927 356.954 315.84 356.954 314.456C356.954 313.071 355.514 311.978 353.678 311.978V311.982Z" fill="black"/>
<path fill-rule="evenodd" clip-rule="evenodd" d="M332.772 361.829C332.772 361.829 332.867 359.135 332.961 355.758C333.055 352.381 334.181 349.124 328.355 345.762C321.533 341.822 320.788 348.484 320.788 348.484L320.581 355.585L316.301 353.224C316.301 353.224 316.305 348.003 316.517 345.405C316.735 342.717 318.308 334.311 329.798 340.943C339.605 346.605 338.454 351.112 338.298 356.798C338.142 362.484 337.973 364.453 337.973 364.453L332.775 361.829H332.772Z" fill="white"/>
<path d="M341.779 366.653C341.751 365.835 341.184 365.724 339.044 364.545C339.265 361.063 339.333 357.301 339.417 355.39C339.639 350.31 339.847 345.514 330.328 340.016C325.71 337.35 322.012 336.703 319.352 338.101C315.012 340.376 315.295 346.475 315.239 351.42C312.754 350.051 312.451 349.708 311.774 350.113C311.449 350.305 311.25 350.656 311.25 351.035L311.291 380.79C311.291 381.177 311.5 381.532 311.839 381.723C322.864 387.903 339.609 397.343 340.41 397.897C340.694 398.226 341.176 398.372 341.619 398.201C342.569 397.833 342.691 397.783 341.779 366.655V366.653ZM317.578 345.492C318.034 339.832 321.415 337.345 329.258 341.872C337.653 346.719 337.497 350.316 337.279 355.298C337.257 355.782 337.028 362.311 336.966 363.4L333.846 361.679C333.87 361.01 334.069 354.943 334.097 354.523C334.302 351.51 334.531 348.097 328.886 344.838C326.348 343.374 324.203 343.061 322.519 343.917C320.105 345.137 319.733 348.238 319.712 348.456L319.555 353.804L317.368 352.597C317.377 351.136 317.415 347.493 317.576 345.495L317.578 345.492ZM331.961 354.378C331.862 355.893 331.929 354.765 331.743 360.52L321.665 354.964L321.847 348.604C321.847 348.604 322.117 346.517 323.484 345.826C324.738 345.193 326.53 345.948 327.816 346.691C332.308 349.282 332.154 351.532 331.961 354.378ZM340.251 395.361C337.596 393.788 330.84 389.917 313.431 380.16L313.392 352.845L339.656 367.325C339.937 377.03 340.275 390.668 340.251 395.361Z" fill="black"/>
<path fill-rule="evenodd" clip-rule="evenodd" d="M399.852 354.069C399.852 354.069 399.848 348.848 399.636 346.25C399.417 343.562 397.845 335.156 386.355 341.788C376.547 347.45 377.699 351.957 377.855 357.643C378.011 363.329 378.18 365.298 378.18 365.298L383.378 362.674C383.378 362.674 383.284 359.98 383.19 356.603C383.096 353.226 381.97 349.969 387.795 346.607C394.617 342.668 395.362 349.329 395.362 349.329L395.57 356.43L399.852 354.069Z" fill="white"/>
<path d="M404.372 350.955C403.668 350.542 403.3 350.945 400.91 352.263C400.852 347.32 401.135 341.221 396.797 338.944C394.13 337.544 390.439 338.192 385.821 340.859C376.302 346.354 376.508 351.154 376.73 356.235C376.811 358.058 376.921 363.072 377.115 365.381C374.851 366.629 374.395 366.717 374.37 367.496C373.452 398.87 373.402 399.15 375.02 399.15C375.243 399.15 374.958 399.013 404.313 382.565C404.651 382.377 404.86 382.02 404.86 381.632L404.901 351.878C404.901 351.499 404.702 351.148 404.377 350.955H404.372ZM378.924 357.611C378.744 351.508 377.866 347.923 386.891 342.712C394.723 338.19 398.113 340.679 398.569 346.333C398.731 348.33 398.77 351.972 398.779 353.436L396.589 354.643L396.429 349.205C396.414 349.074 396.041 345.974 393.628 344.754C391.943 343.902 389.799 344.21 387.261 345.674C381.616 348.933 381.847 352.349 382.05 355.36C382.168 357.063 382.099 356.868 382.301 362.516L379.18 364.236C379.118 363.149 379.018 361.065 378.921 357.607L378.924 357.611ZM384.406 361.36C384.37 360.256 384.218 355.668 384.188 355.218C383.993 352.37 383.841 350.123 388.333 347.529C389.619 346.787 391.41 346.038 392.658 346.66C394.015 347.339 394.297 349.357 394.297 349.357L394.486 355.803L384.408 361.358L384.406 361.36ZM402.718 381.003C385.311 390.759 378.556 394.629 375.898 396.204C375.874 391.511 376.21 377.872 376.49 368.167L402.755 353.688L402.718 381.003Z" fill="black"/>
<path fill-rule="evenodd" clip-rule="evenodd" d="M11.8166 312.035L71.7623 277.354L130.792 312.56L131.241 382.779L72.7724 415.322L12.0071 382.373L11.8145 312.037L11.8166 312.035Z" fill="white"/>
<path fill-rule="evenodd" clip-rule="evenodd" d="M85.3105 356.811V364.688L122.395 343.275V335.4L85.3105 356.811Z" fill="#81F889"/>
<path fill-rule="evenodd" clip-rule="evenodd" d="M115.246 334.925V330.388L90.7407 344.538V349.073L87.627 350.87V355.473L118.021 337.925V333.322L115.246 334.925Z" fill="#81F889"/>
<path d="M99.0323 400.704V395.294L116.623 385.138V383.417L119.056 382.014V379.112L121.235 377.856V345.184L123.467 343.896V333.549L119.093 336.074V331.471L116.317 333.074V328.537L89.6719 343.922V348.458L86.5582 350.256V354.859L84.2427 356.197V366.543L86.0253 365.514V371.192L78.7793 375.375V384.186L85.8456 380.107V408.049L87.9856 406.857V376.402L80.9193 380.481V376.612L88.1653 372.428V364.279L92.2763 361.906V376.216L95.3536 374.438V377.879L99.6101 375.422V376.666L95.5355 379.02V382.279L92.8177 383.848V397.368L96.8923 395.014V401.901L99.0323 400.709V400.704ZM88.6961 351.489L91.8098 349.691V345.154L114.175 332.241V336.778L116.95 335.175V337.307L88.6961 353.618V351.489ZM90.468 357.476V360.474L86.3806 362.835V357.429L121.325 337.255V342.659L116.67 345.347V342.349L112.028 345.028V348.026L105.889 351.57V348.572L101.247 351.251V354.249L95.1096 357.793V354.795L90.468 357.476ZM94.9577 393.655V385.076L97.6755 383.507V380.248L101.75 377.894V371.709L97.4936 374.166V370.725L94.4163 372.503V360.667L119.095 346.417V376.619L116.916 377.875V380.777L114.483 382.18V383.901L99.0323 392.821V391.301L94.9577 393.655Z" fill="black"/>
<path fill-rule="evenodd" clip-rule="evenodd" d="M96.5286 316.369L68.4475 333.422L66.2433 332.213L63.7631 333.72L61.2999 332.37L59.8298 333.262L42.0185 323.497L43.3175 322.71L39.1895 320.448L48.6354 314.712L51.3853 316.219L54.1716 314.526L58.2997 316.79L61.4733 314.862L57.1633 312.5L60.1037 310.713L56.9857 309.003L69.372 301.483L96.5286 316.369Z" fill="white"/>
<path fill-rule="evenodd" clip-rule="evenodd" d="M26.0977 320.238L37.0352 326.523L43.3161 322.71L39.1902 320.448L48.634 314.713L51.386 316.219L54.1723 314.526L58.3004 316.791L61.474 314.862L57.164 312.5L60.1065 310.713L56.9886 309.003L69.3727 301.483L63.0469 298.014L55.925 302.339L48.5869 298.316L43.1684 301.607L50.3203 305.528L26.0977 320.238Z" fill="#81F889"/>
<path d="M93.3671 318.265L59.3668 299.625L55.793 301.798L66.7455 307.802L63.1353 309.996L72.6048 315.188L76.215 312.994L79.8722 314.999L76.2621 317.193L85.5753 322.297L89.1855 320.105L89.789 320.435L93.3671 318.265Z" fill="black"/>
<path d="M67.1861 329.496L52.709 321.558L56.0945 319.504L70.5673 327.441L67.1861 329.496Z" fill="black"/>
<path d="M66.8177 322.01L63.0898 319.966L66.5224 317.884L70.2503 319.927L66.8177 322.01Z" fill="black"/>
<path d="M72.8687 325.327L69.1387 323.283L72.5712 321.201L76.2991 323.245L72.8687 325.327Z" fill="black"/>
<path fill-rule="evenodd" clip-rule="evenodd" d="M67.8164 293.03L61.084 297.117L98.6346 317.704L105.365 313.614L67.8164 293.03Z" fill="#81F889"/>
<path fill-rule="evenodd" clip-rule="evenodd" d="M102.061 307.257L105.939 304.903L81.1253 291.301L77.2477 293.655L74.0954 291.926L70.1621 294.316L100.937 311.188L104.871 308.797L102.061 307.257Z" fill="#81F889"/>
<path d="M107.013 308.75L104.203 307.21L108.081 304.856L81.1018 290.064L77.2242 292.418L74.0698 290.689L70.1365 293.079L67.7889 291.793L58.9443 297.164L60.7504 298.155L55.8969 301.102L48.5589 297.081L41.0261 301.654L48.1801 305.577L25.541 319.324L26.6538 321.152L52.4622 305.481L45.3082 301.558L48.6145 299.551L55.9526 303.572L62.9183 299.341L67.0784 301.622L54.8483 309.048L57.9663 310.758L55.0238 312.545L59.3359 314.907L58.2745 315.551L54.1464 313.289L51.3601 314.982L48.6081 313.473L37.0521 320.49L41.1801 322.752L36.4957 325.599L37.6085 327.426L42.0511 324.73L59.8623 334.495L61.3325 333.602L63.7957 334.953L66.2759 333.446L68.478 334.655L96.405 317.698L98.6669 318.937L107.512 313.565L103.082 311.137L107.017 308.746L107.013 308.75ZM74.1233 293.163L77.2777 294.892L81.1553 292.538L103.801 304.952L99.9231 307.308L102.733 308.849L100.91 309.955L96.4435 307.505L72.3022 294.269L74.1233 293.163ZM68.4202 332.188L66.2181 330.979L63.7379 332.485L61.2747 331.135L59.8046 332.027L44.159 323.45L45.458 322.66L41.3299 320.398L48.6616 315.945L51.4136 317.454L54.1999 315.761L58.328 318.023L63.6159 314.813L59.3038 312.451L62.2463 310.664L59.1283 308.954L69.2462 302.81L94.235 316.508L68.4202 332.183V332.188ZM103.227 313.662L98.6092 316.469L93.8948 313.884L96.4563 312.329L91.7569 309.752L89.1932 311.308L82.9786 307.901L85.5402 306.345L80.8408 303.769L78.2792 305.324L72.0625 301.917L74.6241 300.362L69.9246 297.785L67.363 299.341L63.2243 297.072L67.8424 294.265L103.227 313.662Z" fill="black"/>
<path fill-rule="evenodd" clip-rule="evenodd" d="M24.2578 336.714V344.589L61.3419 366.002V358.125L24.2578 336.714Z" fill="#81F889"/>
<path fill-rule="evenodd" clip-rule="evenodd" d="M54.1931 349.393V344.859L29.6879 330.709V335.246L26.5742 333.448V338.051L56.9686 355.599V350.996L54.1931 349.393Z" fill="#81F889"/>
<path d="M37.9795 396.452V391.04L55.5703 401.196V399.476L58.0056 400.879V397.98L60.182 399.236V366.565L62.414 367.853V357.506L58.0399 354.981V350.378L55.2643 348.775V344.238L28.6192 328.854V333.39L25.5055 331.593V336.194L23.19 334.856V345.203L24.9726 346.232V351.912L17.7266 347.728V356.539L24.7928 360.618V389.296L26.9328 390.456V359.381L19.8666 355.302V351.433L27.1126 355.616V347.465L31.2235 349.838V364.146L34.3009 365.925V369.366L38.5573 371.823V373.066L34.4828 370.712V373.971L31.765 372.403V385.923L35.8395 388.275V395.281L37.9795 396.441V396.452ZM27.6433 335.301L30.757 337.099V332.564L53.1222 345.477V350.014L55.8977 351.617V353.748L27.6433 337.435V335.301ZM29.4152 343.335V346.333L25.3278 343.973V338.569L60.2719 358.743V364.149L55.6174 361.461V358.463L50.9779 355.783V358.781L44.8382 355.238V352.239L40.1966 349.56V352.558L34.0569 349.014V346.016L29.4152 343.337V343.335ZM33.905 384.697V376.118L36.6228 377.686V374.427L40.6973 376.781V370.596L36.4409 368.14V364.699L33.3635 362.92V351.084L58.042 365.334V395.534L55.8656 394.278V397.179L53.4303 395.776V397.494L37.9795 388.574V387.055L33.905 384.703V384.697Z" fill="black"/>
<path d="M131.862 312.551C131.862 312.177 131.661 311.832 131.34 311.64L72.3098 276.434C71.9781 276.233 71.5587 276.233 71.227 276.428L11.2792 311.109C10.9475 311.299 10.742 311.655 10.7442 312.038L10.9389 382.373C10.9389 382.765 11.155 383.124 11.4996 383.31L72.2649 416.26C72.4232 416.348 72.5987 416.39 72.7742 416.39C72.954 416.39 73.1337 416.345 73.2942 416.256L131.761 383.713C132.101 383.522 132.313 383.16 132.311 382.771L131.862 312.551ZM71.7534 278.596L128.667 312.538L71.5308 345.105L13.9584 312.033L71.7534 278.596ZM12.8906 313.887L70.6106 347.044L71.8133 413.583L13.0789 381.733L12.8927 313.889L12.8906 313.887ZM73.9512 413.441L72.7464 346.875L129.735 314.394L130.167 382.15L73.9512 413.441Z" fill="black"/>
</g>
<defs>
<clipPath id="clip0_469_62260">
<rect width="428" height="344" fill="white"/>
</clipPath>
</defs>
</svg>
