<svg width="656" height="428" viewBox="0 0 656 428" fill="none" xmlns="http://www.w3.org/2000/svg">
<path d="M127.413 59.9131C130.358 51.3677 119.981 48.3501 115.392 51.3634C117.541 41.2043 102.074 34.8675 95.7376 47.6867C93.2123 25.9604 68.5519 31.2678 70.1056 48.7182C60.4688 46.5097 49.4708 55.6243 56.0174 68.0005H141.85C141.564 62.9777 137.506 57.0454 127.413 59.9131Z" fill="white"/>
<path d="M141.834 68.5572C55.5214 68.555 55.7653 68.7264 55.5128 68.2578C49.1139 56.3674 58.9755 46.2147 69.4919 48.0253C68.6423 30.913 92.4167 25.7275 96.0399 45.975C102.82 35.0199 117.006 40.5713 116.097 50.3494C121.571 47.9803 130.068 51.6142 128.212 59.1217C136.858 57.0629 142.033 61.6125 142.392 67.9665C142.412 68.2939 142.151 68.5572 141.834 68.5572ZM56.3389 67.4488L141.239 67.4402C140.582 61.8974 135.816 58.0217 127.561 60.4443C127.131 60.5705 126.738 60.1489 126.885 59.7252C129.586 51.9181 120.043 48.9648 115.695 51.8218C115.277 52.0957 114.74 51.7255 114.843 51.244C116.887 41.6798 102.182 35.7261 96.2325 47.9311C95.9928 48.4212 95.2459 48.3099 95.1796 47.7513C92.6478 26.5686 69.1324 32.1329 70.6519 48.6716C70.6861 49.0482 70.3394 49.3457 69.9713 49.2622C65.1154 48.1729 59.8636 50.007 56.8889 53.8806C55.2068 56.072 52.9233 60.7268 56.3389 67.4488Z" fill="black"/>
<path d="M326.931 46.2258C331.216 36.2294 318.771 30.5131 312.241 34.7998C311.223 24.1913 295.104 20.9298 291.025 30.7207C296.377 0.778575 252.409 -0.933504 252.978 28.1911C239.275 25.0495 224.713 39.8953 232.707 58.4671H343.658C343.252 51.3256 338.759 45.4082 326.931 46.2258Z" fill="white"/>
<path d="M343.665 59.0268L232.713 59.0183C232.491 59.0183 232.292 58.8856 232.204 58.6801C224.29 39.9885 238.402 24.8751 252.428 27.501C252.574 -0.902328 294.361 0.291848 291.947 28.0917C297.561 21.0893 310.932 24.2267 312.685 33.9063C319.869 30.189 331.068 36.162 327.768 45.6277C337.15 45.2275 343.703 49.2851 344.221 58.4362C344.241 58.7615 343.982 59.0268 343.665 59.0268ZM233.082 57.9011L343.066 57.9054C342.424 50.8731 337.69 46.0664 326.976 46.7748C326.544 46.8026 326.27 46.3724 326.424 46.0043C327.991 42.2912 327.276 38.8029 324.413 36.4017C321.065 33.596 315.856 33.0974 312.554 35.2674C312.208 35.4943 311.732 35.2717 311.694 34.8523C310.769 24.7424 295.348 21.727 291.547 30.9316C291.297 31.5372 290.366 31.2804 290.485 30.6191C291.975 22.3626 289.702 15.5443 284.119 11.4311C278.349 7.17869 270.033 6.62227 263.424 10.0443C259.638 12.0046 253.432 16.9653 253.543 28.1751C253.547 28.5432 253.213 28.8043 252.863 28.7273C239.202 25.759 225.756 40.286 233.084 57.9033L233.082 57.9011Z" fill="black"/>
<path d="M42.2456 216.407C46.5022 216.407 49.9521 219.857 49.9521 224.114C49.9521 228.37 46.5022 231.82 42.2456 231.82C37.9889 231.82 34.5391 228.37 34.5391 224.114C34.5391 219.857 37.9889 216.407 42.2456 216.407Z" fill="white"/>
<path d="M42.2392 232.461C37.6379 232.461 33.8906 228.716 33.8906 224.112C33.8906 219.509 37.6358 215.764 42.2392 215.764C46.8425 215.764 50.5877 219.509 50.5877 224.112C50.5877 228.716 46.8425 232.461 42.2392 232.461ZM42.2392 217.048C38.3442 217.048 35.1747 220.215 35.1747 224.112C35.1747 228.009 38.342 231.177 42.2392 231.177C46.1363 231.177 49.3036 228.009 49.3036 224.112C49.3036 220.215 46.1363 217.048 42.2392 217.048Z" fill="black"/>
<path d="M84.5815 216.407C88.8382 216.407 92.288 219.857 92.288 224.114C92.288 228.37 88.8382 231.82 84.5815 231.82C80.3248 231.82 76.875 228.37 76.875 224.114C76.875 219.857 80.3248 216.407 84.5815 216.407Z" fill="white"/>
<path d="M84.5673 232.461C79.9661 232.461 76.2188 228.716 76.2188 224.112C76.2188 219.509 79.9639 215.764 84.5673 215.764C89.1706 215.764 92.9158 219.509 92.9158 224.112C92.9158 228.716 89.1706 232.461 84.5673 232.461ZM84.5673 217.048C80.6723 217.048 77.5028 220.215 77.5028 224.112C77.5028 228.009 80.6702 231.177 84.5673 231.177C88.4644 231.177 91.6318 228.009 91.6318 224.112C91.6318 220.215 88.4644 217.048 84.5673 217.048Z" fill="black"/>
<path d="M112.355 216.407C116.612 216.407 120.061 219.857 120.061 224.114C120.061 228.37 116.612 231.82 112.355 231.82C108.098 231.82 104.648 228.37 104.648 224.114C104.648 219.857 108.098 216.407 112.355 216.407Z" fill="white"/>
<path d="M112.341 232.461C107.737 232.461 103.992 228.716 103.992 224.112C103.992 219.509 107.737 215.764 112.341 215.764C116.944 215.764 120.689 219.509 120.689 224.112C120.689 228.716 116.944 232.461 112.341 232.461ZM112.341 217.048C108.446 217.048 105.276 220.215 105.276 224.112C105.276 228.009 108.444 231.177 112.341 231.177C116.238 231.177 119.405 228.009 119.405 224.112C119.405 220.215 116.238 217.048 112.341 217.048Z" fill="black"/>
<path d="M160.402 216.407C164.658 216.407 168.108 219.857 168.108 224.114C168.108 228.37 164.658 231.82 160.402 231.82C156.145 231.82 152.695 228.37 152.695 224.114C152.695 219.857 156.145 216.407 160.402 216.407Z" fill="white"/>
<path d="M160.395 232.461C155.794 232.461 152.047 228.716 152.047 224.112C152.047 219.509 155.792 215.764 160.395 215.764C164.999 215.764 168.744 219.509 168.744 224.112C168.744 228.716 164.999 232.461 160.395 232.461ZM160.395 217.048C156.5 217.048 153.331 220.215 153.331 224.112C153.331 228.009 156.498 231.177 160.395 231.177C164.293 231.177 167.46 228.009 167.46 224.112C167.46 220.215 164.293 217.048 160.395 217.048Z" fill="black"/>
<path d="M188.222 216.407C192.479 216.407 195.929 219.857 195.929 224.114C195.929 228.37 192.479 231.82 188.222 231.82C183.965 231.82 180.516 228.37 180.516 224.114C180.516 219.857 183.965 216.407 188.222 216.407Z" fill="white"/>
<path d="M188.231 232.461C183.628 232.461 179.883 228.716 179.883 224.112C179.883 219.509 183.628 215.764 188.231 215.764C192.835 215.764 196.58 219.509 196.58 224.112C196.58 228.716 192.835 232.461 188.231 232.461ZM188.231 217.048C184.336 217.048 181.167 220.215 181.167 224.112C181.167 228.009 184.334 231.177 188.231 231.177C192.128 231.177 195.296 228.009 195.296 224.112C195.296 220.215 192.128 217.048 188.231 217.048Z" fill="black"/>
<path d="M236.277 216.407C240.533 216.407 243.983 219.857 243.983 224.114C243.983 228.37 240.533 231.82 236.277 231.82C232.02 231.82 228.57 228.37 228.57 224.114C228.57 219.857 232.02 216.407 236.277 216.407Z" fill="white"/>
<path d="M236.286 232.461C231.683 232.461 227.938 228.716 227.938 224.112C227.938 219.509 231.683 215.764 236.286 215.764C240.889 215.764 244.635 219.509 244.635 224.112C244.635 228.716 240.889 232.461 236.286 232.461ZM236.286 217.048C232.391 217.048 229.222 220.215 229.222 224.112C229.222 228.009 232.389 231.177 236.286 231.177C240.183 231.177 243.351 228.009 243.351 224.112C243.351 220.215 240.183 217.048 236.286 217.048Z" fill="black"/>
<path d="M264.097 216.407C268.354 216.407 271.804 219.857 271.804 224.114C271.804 228.37 268.354 231.82 264.097 231.82C259.84 231.82 256.391 228.37 256.391 224.114C256.391 219.857 259.84 216.407 264.097 216.407Z" fill="white"/>
<path d="M264.106 232.461C259.505 232.461 255.758 228.716 255.758 224.112C255.758 219.509 259.505 215.764 264.106 215.764C268.708 215.764 272.455 219.509 272.455 224.112C272.455 228.716 268.71 232.461 264.106 232.461ZM264.106 217.048C260.211 217.048 257.042 220.215 257.042 224.112C257.042 228.009 260.209 231.177 264.106 231.177C268.003 231.177 271.171 228.009 271.171 224.112C271.171 220.215 268.003 217.048 264.106 217.048Z" fill="black"/>
<path d="M312.152 216.407C316.408 216.407 319.858 219.857 319.858 224.114C319.858 228.37 316.408 231.82 312.152 231.82C307.895 231.82 304.445 228.37 304.445 224.114C304.445 219.857 307.895 216.407 312.152 216.407Z" fill="white"/>
<path d="M312.153 232.461C307.552 232.461 303.805 228.716 303.805 224.112C303.805 219.509 307.55 215.764 312.153 215.764C316.757 215.764 320.502 219.509 320.502 224.112C320.502 228.716 316.757 232.461 312.153 232.461ZM312.153 217.048C308.258 217.048 305.089 220.215 305.089 224.112C305.089 228.009 308.256 231.177 312.153 231.177C316.05 231.177 319.218 228.009 319.218 224.112C319.218 220.215 316.05 217.048 312.153 217.048Z" fill="black"/>
<path d="M339.972 216.407C344.229 216.407 347.679 219.857 347.679 224.114C347.679 228.37 344.229 231.82 339.972 231.82C335.715 231.82 332.266 228.37 332.266 224.114C332.266 219.857 335.715 216.407 339.972 216.407Z" fill="white"/>
<path d="M339.981 232.461C335.38 232.461 331.633 228.716 331.633 224.112C331.633 219.509 335.378 215.764 339.981 215.764C344.585 215.764 348.33 219.509 348.33 224.112C348.33 228.716 344.585 232.461 339.981 232.461ZM339.981 217.048C336.086 217.048 332.917 220.215 332.917 224.112C332.917 228.009 336.084 231.177 339.981 231.177C343.878 231.177 347.046 228.009 347.046 224.112C347.046 220.215 343.878 217.048 339.981 217.048Z" fill="black"/>
<path d="M388.027 216.407C392.283 216.407 395.733 219.857 395.733 224.114C395.733 228.37 392.283 231.82 388.027 231.82C383.77 231.82 380.32 228.37 380.32 224.114C380.32 219.857 383.77 216.407 388.027 216.407Z" fill="white"/>
<path d="M388.028 232.461C383.425 232.461 379.68 228.716 379.68 224.112C379.68 219.509 383.425 215.764 388.028 215.764C392.632 215.764 396.377 219.509 396.377 224.112C396.377 228.716 392.632 232.461 388.028 232.461ZM388.028 217.048C384.133 217.048 380.964 220.215 380.964 224.112C380.964 228.009 384.131 231.177 388.028 231.177C391.925 231.177 395.093 228.009 395.093 224.112C395.093 220.215 391.925 217.048 388.028 217.048Z" fill="black"/>
<path d="M351.409 179.56H81.5234V223.378H351.409V179.56Z" fill="black"/>
<path d="M96.1769 225.342C96.1769 226.078 95.5777 226.677 94.8415 226.677H32.9904C25.3695 226.677 19.1953 219.754 19.1953 211.209V201.302C19.1953 193.399 23.2572 186.206 29.6283 182.824L51.2562 171.338C54.95 169.374 58.9926 168.359 63.0802 168.359H92.4403C94.4991 168.359 96.1726 170.234 96.1726 172.541V225.342H96.1769Z" fill="white"/>
<path d="M100.953 225.346C100.953 226.082 101.552 226.677 102.289 226.677H170.466C171.202 226.677 171.797 226.082 171.797 225.346V172.092C171.797 170.033 170.128 168.359 168.065 168.359H104.685C102.627 168.359 100.953 170.029 100.953 172.092V225.346Z" fill="white"/>
<path d="M170.467 227.324H102.286C101.198 227.324 100.312 226.438 100.312 225.35V172.096C100.312 169.686 102.273 167.722 104.687 167.722H168.066C170.476 167.722 172.44 169.682 172.44 172.096V225.35C172.44 226.438 171.554 227.324 170.467 227.324ZM104.683 169.006C102.979 169.006 101.597 170.393 101.597 172.096V225.35C101.597 225.731 101.905 226.039 102.286 226.039H170.463C170.844 226.039 171.152 225.731 171.152 225.35V172.096C171.152 170.393 169.765 169.006 168.062 169.006H104.683Z" fill="black"/>
<path d="M176.82 225.346C176.82 226.082 177.42 226.677 178.156 226.677H246.333C247.069 226.677 247.664 226.082 247.664 225.346V172.092C247.664 170.033 245.995 168.359 243.932 168.359H180.553C178.494 168.359 176.82 170.029 176.82 172.092V225.346Z" fill="white"/>
<path d="M246.338 227.324H178.161C177.073 227.324 176.188 226.438 176.188 225.35V172.096C176.188 169.686 178.148 167.722 180.562 167.722H243.941C246.351 167.722 248.315 169.682 248.315 172.096V225.35C248.315 226.438 247.429 227.324 246.338 227.324ZM180.562 169.006C178.858 169.006 177.472 170.393 177.472 172.096V225.35C177.472 225.731 177.78 226.039 178.161 226.039H246.338C246.719 226.039 247.031 225.731 247.031 225.35V172.096C247.031 170.393 245.644 169.006 243.941 169.006H180.562Z" fill="black"/>
<path d="M252.695 225.346C252.695 226.082 253.295 226.677 254.031 226.677H322.208C322.944 226.677 323.539 226.082 323.539 225.346V172.092C323.539 170.033 321.87 168.359 319.807 168.359H256.428C254.369 168.359 252.695 170.029 252.695 172.092V225.346Z" fill="white"/>
<path d="M314.211 176.069H262.065C261.158 176.069 260.422 176.805 260.422 177.713V200.195C260.422 201.103 261.158 201.838 262.065 201.838H314.211C315.119 201.838 315.855 201.103 315.855 200.195V177.713C315.855 176.805 315.119 176.069 314.211 176.069Z" fill="#81F889"/>
<path d="M322.217 227.324H254.036C252.949 227.324 252.062 226.438 252.062 225.35V172.096C252.062 169.686 254.023 167.722 256.437 167.722H319.816C322.226 167.722 324.19 169.682 324.19 172.096V225.35C324.19 226.438 323.304 227.324 322.217 227.324ZM256.433 169.006C254.729 169.006 253.347 170.393 253.347 172.096V225.35C253.347 225.731 253.655 226.039 254.036 226.039H322.213C322.594 226.039 322.902 225.731 322.902 225.35V172.096C322.902 170.393 321.515 169.006 319.812 169.006H256.433Z" fill="black"/>
<path d="M328.57 225.346C328.57 226.082 329.17 226.677 329.906 226.677H398.083C398.819 226.677 399.414 226.082 399.414 225.346V172.092C399.414 170.033 397.745 168.359 395.682 168.359H332.303C330.244 168.359 328.57 170.029 328.57 172.092V225.346Z" fill="white"/>
<path d="M390.086 176.069H337.94C337.033 176.069 336.297 176.805 336.297 177.713V200.195C336.297 201.103 337.033 201.838 337.94 201.838H390.086C390.994 201.838 391.73 201.103 391.73 200.195V177.713C391.73 176.805 390.994 176.069 390.086 176.069Z" fill="#81F889"/>
<path d="M398.088 227.324H329.915C328.828 227.324 327.938 226.438 327.938 225.35V172.096C327.938 169.686 329.898 167.722 332.312 167.722H395.691C398.101 167.722 400.065 169.682 400.065 172.096V225.35C400.065 226.438 399.179 227.324 398.088 227.324ZM332.316 169.006C330.613 169.006 329.226 170.393 329.226 172.096V225.35C329.226 225.731 329.534 226.039 329.919 226.039H398.096C398.477 226.039 398.79 225.731 398.79 225.35V172.096C398.79 170.393 397.403 169.006 395.7 169.006H332.316Z" fill="black"/>
<path d="M68.6942 200.19C68.6942 201.097 67.958 201.833 67.0506 201.833H32.9845C27.6792 201.833 25.156 193.917 33.2328 189.633C60.3157 175.266 56.6455 176.067 67.0506 176.067C67.958 176.067 68.6942 176.803 68.6942 177.71V200.19Z" fill="#81F889"/>
<path d="M67.0504 202.471L32.9842 202.479C27.0091 202.479 24.2547 193.671 32.9329 189.067C59.9367 174.739 56.4526 175.424 67.0504 175.424C68.313 175.424 69.336 176.451 69.336 177.71V200.185C69.336 201.448 68.3087 202.471 67.0504 202.471ZM55.1621 178.718L33.5342 190.204C26.1338 194.129 28.2867 201.197 32.9864 201.197H67.0525C67.6046 201.197 68.0541 200.748 68.0541 200.196V177.72C68.0541 177.168 67.6046 176.719 67.0525 176.719C62.4363 176.719 59.4894 176.426 55.1642 178.718H55.1621Z" fill="black"/>
<path d="M86.8193 176.069H78.0342C77.1266 176.069 76.3906 176.805 76.3906 177.713V200.195C76.3906 201.103 77.1266 201.838 78.0342 201.838H86.8193C87.7272 201.838 88.4629 201.103 88.4629 200.195V177.713C88.4629 176.805 87.7272 176.069 86.8193 176.069Z" fill="#81F889"/>
<path d="M86.8243 202.48H78.0434C76.7808 202.48 75.7578 201.453 75.7578 200.195V177.719C75.7578 176.457 76.7851 175.434 78.0434 175.434H86.8243C88.0869 175.434 89.1099 176.461 89.1099 177.719V200.195C89.1099 201.457 88.0827 202.48 86.8243 202.48ZM78.0434 176.711C77.4913 176.711 77.0419 177.161 77.0419 177.713V200.188C77.0419 200.74 77.4913 201.19 78.0434 201.19H86.8243C87.3764 201.19 87.8258 200.74 87.8258 200.188V177.713C87.8258 177.161 87.3764 176.711 86.8243 176.711H78.0434Z" fill="black"/>
<path d="M162.446 176.069H110.3C109.392 176.069 108.656 176.805 108.656 177.713V200.195C108.656 201.103 109.392 201.838 110.3 201.838H162.446C163.353 201.838 164.089 201.103 164.089 200.195V177.713C164.089 176.805 163.353 176.069 162.446 176.069Z" fill="#81F889"/>
<path d="M238.32 176.069H186.175C185.267 176.069 184.531 176.805 184.531 177.713V200.195C184.531 201.103 185.267 201.838 186.175 201.838H238.32C239.228 201.838 239.964 201.103 239.964 200.195V177.713C239.964 176.805 239.228 176.069 238.32 176.069Z" fill="#81F889"/>
<path d="M238.325 175.428H186.184C184.926 175.428 183.898 176.45 183.898 177.713V200.193C183.898 201.451 184.921 202.478 186.184 202.478H238.325C239.584 202.478 240.611 201.455 240.611 200.193V177.713C240.611 176.455 239.588 175.428 238.325 175.428ZM212.895 176.707H226.193V201.192H212.895V176.707ZM211.611 201.192H198.318V176.707H211.611V201.192ZM185.182 200.191V177.711C185.182 177.159 185.632 176.709 186.184 176.709H197.032V201.194H186.184C185.632 201.194 185.182 200.743 185.182 200.191ZM239.327 200.191C239.327 200.743 238.878 201.192 238.325 201.192H227.477V176.707H238.325C238.878 176.707 239.327 177.157 239.327 177.709V200.191Z" fill="black"/>
<path d="M314.193 175.428H262.051C260.793 175.428 259.766 176.45 259.766 177.713V200.193C259.766 201.451 260.789 202.478 262.051 202.478H314.193C315.451 202.478 316.478 201.455 316.478 200.193V177.713C316.478 176.455 315.455 175.428 314.193 175.428ZM288.762 176.707H302.058V201.192H288.762V176.707ZM287.478 201.192H274.184V176.707H287.478V201.192ZM261.05 200.191V177.711C261.05 177.159 261.499 176.709 262.051 176.709H272.899V201.194H262.051C261.499 201.194 261.05 200.743 261.05 200.191ZM315.194 200.191C315.194 200.743 314.745 201.192 314.193 201.192H303.345V176.707H314.193C314.745 176.707 315.194 177.157 315.194 177.709V200.191Z" fill="black"/>
<path d="M390.068 175.428H337.926C336.668 175.428 335.641 176.45 335.641 177.713V200.193C335.641 201.451 336.664 202.478 337.926 202.478H390.068C391.326 202.478 392.353 201.455 392.353 200.193V177.713C392.353 176.455 391.33 175.428 390.068 175.428ZM364.637 176.707H377.935V201.192H364.637V176.707ZM363.353 201.192H350.061V176.707H363.353V201.192ZM336.925 200.191V177.711C336.925 177.159 337.374 176.709 337.926 176.709H348.774V201.194H337.926C337.374 201.194 336.925 200.743 336.925 200.191ZM391.069 200.191C391.069 200.743 390.62 201.192 390.068 201.192H379.219V176.707H390.068C390.62 176.707 391.069 177.157 391.069 177.709V200.191Z" fill="black"/>
<path d="M162.45 175.428H110.309C109.051 175.428 108.023 176.45 108.023 177.713V200.193C108.023 201.451 109.046 202.478 110.309 202.478H162.45C163.709 202.478 164.736 201.455 164.736 200.193V177.713C164.736 176.455 163.713 175.428 162.45 175.428ZM137.02 176.707H150.318V201.192H137.02V176.707ZM135.736 201.192H122.443V176.707H135.736V201.192ZM109.307 200.191V177.711C109.307 177.159 109.757 176.709 110.309 176.709H121.157V201.194H110.309C109.757 201.194 109.307 200.743 109.307 200.191ZM163.452 200.191C163.452 200.743 163.003 201.192 162.45 201.192H151.602V176.707H162.45C163.003 176.707 163.452 177.157 163.452 177.709V200.191Z" fill="black"/>
<path d="M92.4387 167.716H63.0786C58.9075 167.716 54.713 168.773 50.9507 170.772L29.3228 182.258C22.7805 185.734 18.5517 193.209 18.5517 201.305V205.594H17.1264C16.3303 205.594 15.6797 206.24 15.6797 207.041V213.001C15.6797 213.797 16.326 214.447 17.1264 214.447H18.8449C20.191 221.786 26.0185 227.32 32.9888 227.32H94.8398C95.927 227.32 96.8173 226.426 96.8173 225.338V172.538C96.8173 169.88 94.8527 167.712 92.4429 167.712L92.4387 167.716ZM95.5247 225.353C95.5247 225.734 95.2165 226.043 94.8356 226.043H32.9824C25.7296 226.043 19.8314 219.389 19.8314 211.216V201.309C19.8314 193.684 23.7906 186.65 29.922 183.397L51.5499 171.911C55.1281 170.01 59.1151 169.005 63.0743 169.005L92.4344 169.013C94.1379 169.013 95.5247 170.601 95.5247 172.553V225.353Z" fill="black"/>
<path d="M7.02344 356.812C16.7631 346.978 76.5896 289.944 99.0179 291.318C121.878 292.718 173.361 362.357 185.412 370.226C197.463 378.095 208.565 365.374 228.952 349.638C256.339 328.498 282.219 301.058 303.783 292.853C319.018 287.055 337.429 304.925 411.618 365.034V406H7.60554L7.02344 356.814V356.812Z" fill="white"/>
<path d="M185.053 370.76C172.975 362.872 121.488 293.334 98.9719 291.957C77.9861 290.673 21.4339 343.117 7.47396 357.263C6.88115 357.862 5.96305 356.961 6.56227 356.355C21.7421 341 77.5024 289.351 99.0533 290.673C122.29 292.099 173.753 361.84 185.755 369.682C197.378 377.275 207.961 365.023 228.551 349.124C255.957 327.96 281.878 300.49 303.548 292.249C318.889 286.415 337.013 303.572 412.017 364.528C412.676 365.063 411.867 366.061 411.208 365.526C335.509 304.011 318.381 287.977 304.006 293.447C282.597 301.594 256.616 329.086 229.338 350.138C209.112 365.748 197.586 378.946 185.053 370.76Z" fill="black"/>
<path d="M7.43387 232.046C6.64203 232.046 6 232.688 6 233.48V245.312C6 246.104 6.64203 246.746 7.43387 246.746H59.8321C66.5841 246.746 72.0542 252.218 72.0542 258.968V404.187C72.0542 404.979 72.6963 405.621 73.4881 405.621H78.1C78.8918 405.621 79.5339 404.979 79.5339 404.187V258.971C79.5339 252.218 85.0061 246.748 91.756 246.748H148.841C155.593 246.748 161.063 252.221 161.063 258.971V404.189C161.063 404.981 161.705 405.623 162.497 405.623H167.107C167.899 405.623 168.541 404.981 168.541 404.189V258.971C168.541 252.218 174.013 246.748 180.763 246.748H237.848C244.6 246.748 250.07 252.221 250.07 258.971V404.189C250.07 404.981 250.712 405.623 251.504 405.623H256.114C256.905 405.623 257.548 404.981 257.548 404.189V258.971C257.548 252.218 263.02 246.748 269.77 246.748H326.855C333.607 246.748 339.077 252.221 339.077 258.971V404.189C339.077 404.981 339.719 405.623 340.511 405.623H345.123C345.914 405.623 346.556 404.981 346.556 404.189V258.971C346.556 252.218 352.027 246.748 358.779 246.748H411.177C411.969 246.748 412.611 246.106 412.611 245.315V233.482C412.611 232.69 411.969 232.048 411.177 232.048L7.43387 232.046Z" fill="black"/>
<path d="M105.569 119.224L98.5078 126.287L105.575 133.352L112.636 126.288L105.569 119.224Z" fill="white"/>
<path d="M105.586 133.987C105.201 133.987 105.736 134.407 98.0636 126.735C97.8111 126.484 97.8132 126.078 98.0636 125.827L105.128 118.763C105.381 118.51 105.787 118.51 106.035 118.763L113.1 125.827C113.352 126.075 113.352 126.486 113.1 126.735C105.556 134.216 105.973 133.987 105.586 133.987ZM99.4247 126.281L105.582 132.438L111.735 126.281L105.577 120.128L99.4247 126.281Z" fill="black"/>
<path d="M153.273 119.22L146.211 126.282L153.276 133.348L160.339 126.285L153.273 119.22Z" fill="white"/>
<path d="M153.262 133.986C152.881 133.986 153.436 134.425 145.744 126.734C145.492 126.481 145.492 126.075 145.744 125.826L152.809 118.762C153.048 118.522 153.476 118.522 153.716 118.762L160.78 125.826C161.033 126.079 161.031 126.485 160.78 126.734C153.237 134.213 153.65 133.986 153.262 133.986ZM147.105 126.28L153.262 132.437L159.415 126.28L153.258 120.123L147.105 126.28Z" fill="black"/>
<path d="M129.432 119.566L122.719 126.276L129.431 132.992L136.144 126.283L129.432 119.566Z" fill="white"/>
<path d="M129.425 133.636C129.047 133.636 129.534 134.011 122.258 126.734C122.008 126.484 122.008 126.077 122.258 125.827L128.972 119.113C129.211 118.874 129.639 118.874 129.879 119.113L136.593 125.827C136.845 126.079 136.845 126.486 136.593 126.734C129.338 133.925 129.806 133.636 129.425 133.636ZM123.619 126.281L129.425 132.087L135.231 126.281L129.425 120.474L123.619 126.281Z" fill="black"/>
<path d="M148.24 138.379L141.178 131.314L129.429 143.064L117.682 131.314L110.617 138.379L129.429 157.19L148.24 138.379Z" fill="white"/>
<path d="M110.166 138.831C109.913 138.579 109.913 138.172 110.166 137.924L117.23 130.859C117.483 130.607 117.89 130.607 118.138 130.859L129.431 142.153L140.724 130.859C140.977 130.607 141.384 130.609 141.632 130.859C149.112 138.403 148.885 137.99 148.885 138.377C148.885 138.791 148.998 138.51 129.885 157.638C129.198 158.328 129.414 158.079 110.166 138.831ZM111.531 138.377L129.431 156.282L147.335 138.382L141.178 132.225L129.885 143.518C129.632 143.771 129.226 143.771 128.977 143.518L117.684 132.225L111.531 138.377Z" fill="black"/>
<path d="M148.236 114.183L141.178 121.245L129.429 109.498L117.682 121.241L110.617 114.183L129.429 95.3711L148.236 114.183Z" fill="white"/>
<path d="M141.178 121.888C140.797 121.888 141.692 122.669 129.431 110.406L118.138 121.699C117.885 121.952 117.479 121.952 117.23 121.699L110.166 114.635C109.913 114.382 109.913 113.976 110.166 113.728L128.973 94.9161C129.213 94.6764 129.641 94.6764 129.881 94.9161L148.692 113.728C148.945 113.98 148.945 114.387 148.692 114.635C141.148 122.117 141.566 121.888 141.178 121.888ZM129.427 108.852C129.808 108.852 128.915 108.076 141.178 120.338L147.331 114.181L129.427 96.2772L111.527 114.181L117.68 120.334C129.778 108.236 129.04 108.852 129.427 108.852Z" fill="black"/>
<path d="M230.572 131.498L210.207 137.252C209.804 137.364 209.402 137.081 209.376 136.666L208.533 123.917L218.251 121.174C218.551 121.088 218.748 120.81 218.726 120.502L218.003 109.714C217.975 109.305 217.579 109.007 217.177 109.127L207.737 111.768L206.821 97.8617C206.795 97.4466 206.393 97.1641 205.991 97.2754L194.988 100.383C194.693 100.468 194.492 100.747 194.513 101.055L195.451 115.201L185.698 117.927C185.416 118.009 185.219 118.265 185.219 118.561L185.279 129.627C185.279 130.053 185.69 130.37 186.109 130.252L196.255 127.384L197.899 152.259C197.925 152.674 198.327 152.957 198.729 152.845L231.65 143.546C231.946 143.461 232.147 143.183 232.125 142.874L231.402 132.086C231.376 131.671 230.97 131.387 230.572 131.498Z" fill="white"/>
<path d="M232.762 142.823L232.039 132.035C231.974 131.207 231.178 130.65 230.391 130.875L210.013 136.617L209.204 124.39L218.421 121.788C219.016 121.621 219.401 121.073 219.358 120.457L218.635 109.669C218.582 108.849 217.79 108.284 216.991 108.509L208.313 110.936L207.449 97.8232C207.395 96.9971 206.593 96.4386 205.805 96.6633L194.803 99.7707C194.216 99.9333 193.823 100.494 193.861 101.102L194.76 114.73L185.508 117.315C184.948 117.469 184.562 117.987 184.562 118.569L184.622 129.636C184.631 130.496 185.459 131.108 186.27 130.873L195.655 128.223L197.247 152.306C197.292 152.999 197.872 153.517 198.535 153.517C198.798 153.517 198.563 153.594 231.822 144.163C232.409 143.996 232.803 143.435 232.764 142.827L232.762 142.823ZM198.525 152.216C196.847 126.847 196.999 127.132 196.611 126.858C196.252 126.61 196.937 126.522 185.909 129.619L185.857 118.544L195.61 115.817C195.901 115.736 196.098 115.462 196.076 115.158L195.152 100.999L206.167 97.9045L207.083 111.804C207.111 112.226 207.515 112.489 207.896 112.382L217.353 109.754L218.068 120.551L208.354 123.295C208.063 123.376 207.866 123.65 207.887 123.954L208.731 136.702C208.784 137.52 209.576 138.087 210.374 137.862L230.739 132.118L231.463 142.922L198.525 152.212V152.216Z" fill="black"/>
<path d="M301.05 123.035C295.954 126.909 284.545 133.01 284.545 133.01C284.545 133.01 272.665 127.114 267.039 123.853L283.89 91.6357L301.05 123.035Z" fill="white"/>
<path d="M300.708 127.996C295.412 131.99 284.807 137.937 284.713 137.586C284.615 137.222 272.179 131.313 266.758 128.172L284.722 157.099L300.708 127.996Z" fill="white"/>
<path d="M301.13 127.521C300.244 126.752 300.559 128.409 284.865 136.896C284.865 136.896 269.992 129.301 267.115 127.64C266.51 127.238 265.84 127.955 266.221 128.526L284.181 157.441C284.418 157.829 285.03 157.88 285.285 157.42L301.271 128.317C301.417 128.051 301.361 127.717 301.13 127.521ZM268.609 129.939C268.609 129.939 282.991 137.288 283.909 137.812L284.061 154.822L268.609 129.939ZM285.345 154.638L285.199 137.932C285.199 137.932 295.923 132.115 298.791 130.159L285.345 154.638Z" fill="black"/>
<path d="M301.604 122.727L284.445 91.3293C284.211 90.9077 283.561 90.865 283.31 91.3379L266.464 123.555C266.305 123.859 266.412 124.236 266.712 124.407C272.289 127.638 284.132 133.521 284.252 133.581C284.428 133.673 284.652 133.675 284.838 133.573C285.309 133.32 296.35 127.407 301.429 123.546C301.681 123.354 301.758 123.005 301.604 122.727ZM299.31 121.203L284.92 112.225C284.798 102.173 284.71 97.0242 284.642 94.3619L299.31 121.203ZM283.349 94.0473C283.426 97.0884 283.52 103.123 283.629 112.108L268.756 121.943L283.349 94.0473ZM268.266 123.814L283.649 113.638L283.848 131.942C281.072 130.553 273.053 126.515 268.266 123.814ZM284.939 113.753L299.896 123.086C295.524 126.23 287.764 130.525 285.138 131.955L284.939 113.753Z" fill="black"/>
<path d="M383.774 126.168C382.674 121.053 379.575 117.653 374.394 116.938C377.531 114.374 379.076 111.384 377.998 106.372C376.572 99.7444 371.28 95.5455 361.472 97.5016L356.963 98.4689L355.644 92.3418L348.948 93.7797L350.266 99.9071L346.078 100.806L344.76 94.6788L338.051 96.1212L339.369 102.248L334.32 103.331L336.028 111.29L341.03 110.216L347.456 140.115L342.455 141.19L344.163 149.148C345.947 148.763 347.617 148.408 349.19 148.074L350.465 154.009L357.162 152.571L355.886 146.64C357.418 146.315 358.809 146.024 360.072 145.75L361.343 151.667L368.053 150.225L366.781 144.308C372.891 142.964 373.951 142.6 376.144 141.624C382.389 138.846 385.101 132.355 383.769 126.168H383.774ZM350.183 108.255C359.959 106.156 362.732 105.33 365.716 105.666C367.5 105.991 368.624 107.233 369.08 109.36C369.493 111.29 369.161 112.765 368.087 113.783C365.917 115.838 363.417 115.981 352.353 118.359L350.183 108.255ZM372.196 133.956C370.28 135.469 368.151 135.672 356.603 138.15L353.979 125.937C364.551 123.664 367.468 122.748 370.004 123.309C374.644 124.332 375.575 131.285 372.196 133.956Z" fill="white"/>
<path d="M350.48 154.65C350.172 154.65 349.922 154.416 349.864 154.145L348.725 148.835L344.325 149.777C343.978 149.849 343.636 149.631 343.563 149.284L341.855 141.325C341.785 140.987 341.997 140.638 342.348 140.564L346.72 139.626L340.563 110.981C335.93 111.98 336.028 112.038 335.707 111.833C335.386 111.625 335.527 112.085 333.717 103.471C333.646 103.133 333.858 102.782 334.209 102.709L338.626 101.759L337.445 96.2613C337.372 95.9146 337.59 95.5722 337.937 95.4994L344.646 94.057C344.993 93.9843 345.335 94.2025 345.408 94.5492L346.589 100.047L349.517 99.418L348.336 93.9201C348.265 93.5755 348.481 93.2309 348.828 93.1582L355.524 91.72C355.875 91.6473 356.213 91.8656 356.286 92.2123L357.467 97.7102L361.345 96.8755C370.661 95.0179 376.955 98.4335 378.633 106.238C379.568 110.587 378.723 113.744 375.808 116.547C386.928 119.19 388.323 136.917 376.425 142.214C374.235 143.187 373.095 143.575 367.562 144.799L368.701 150.093C368.772 150.442 368.551 150.783 368.209 150.855L361.499 152.298C361.153 152.37 360.81 152.152 360.738 151.806L359.599 146.513C358.687 146.71 357.711 146.915 356.667 147.134L357.806 152.435C357.878 152.781 357.66 153.124 357.313 153.197C351.105 154.515 350.696 154.648 350.48 154.648V154.65ZM349.213 147.418C349.508 147.418 349.774 147.637 349.838 147.936L350.977 153.242L356.419 152.073L355.28 146.772C355.208 146.412 355.441 146.081 355.777 146.01C360.322 145.058 360.132 145.011 360.442 145.21C360.753 145.409 360.637 145.225 361.859 150.905L367.31 149.732L366.171 144.439C366.099 144.093 366.317 143.754 366.659 143.677C372.611 142.353 373.726 142 375.898 141.032C381.586 138.498 384.512 132.59 383.159 126.298C382.072 121.236 379.012 118.212 374.31 117.568C373.756 117.493 373.557 116.789 373.993 116.434C377.334 113.718 378.31 110.833 377.379 106.502C375.872 99.48 370.122 96.4283 361.606 98.1275L357.108 99.0948C356.757 99.1676 356.419 98.9493 356.346 98.6026L355.165 93.1047L349.722 94.2732L350.904 99.7711C350.977 100.118 350.758 100.46 350.412 100.533L346.226 101.432C345.879 101.505 345.536 101.286 345.464 100.94L344.282 95.4417L338.832 96.6144C340.094 102.489 340.128 102.273 339.923 102.596C339.722 102.913 339.79 102.816 335.101 103.824L336.544 110.525L340.914 109.583C341.265 109.511 341.603 109.735 341.676 110.076C348.132 140.427 348.237 140.106 348.013 140.459C347.816 140.769 347.886 140.677 343.24 141.674L344.678 148.375C348.578 147.536 349.046 147.418 349.213 147.418ZM356.62 138.796C356.325 138.796 356.055 138.59 355.991 138.291L353.367 126.077C353.296 125.737 353.508 125.39 353.859 125.315C364.53 123.047 367.466 122.094 370.154 122.687C375.348 123.83 376.39 131.475 372.611 134.464C371.541 135.312 369.991 135.941 367.879 136.395C357.065 138.719 356.836 138.796 356.62 138.796ZM354.75 126.432L357.108 137.392C367.586 135.138 370.013 134.869 371.806 133.454C374.781 131.106 373.963 124.838 369.876 123.937C367.609 123.438 365.296 124.168 354.75 126.432ZM352.37 119.004C352.044 119.004 351.798 118.769 351.741 118.499L349.571 108.396C349.498 108.049 349.716 107.707 350.063 107.634C358.548 105.832 362.383 104.693 365.848 105.04C367.261 105.301 369.084 106.238 369.726 109.232C370.188 111.39 369.792 113.078 368.549 114.26C367.387 115.362 365.741 116.151 363.642 116.601C352.828 118.921 352.586 119.004 352.37 119.004ZM350.953 108.751L352.858 117.6C363.411 115.332 365.681 115.197 367.659 113.32C368.568 112.458 368.834 111.21 368.463 109.498C367.35 104.362 363.017 106.157 350.953 108.751Z" fill="black"/>
</svg>
