<svg width="677" height="446" viewBox="0 0 677 446" fill="none" xmlns="http://www.w3.org/2000/svg">
<path fill-rule="evenodd" clip-rule="evenodd" d="M262.031 170.028L330.74 129.031L338.188 132.561L268.094 173.53L262.031 170.028Z" fill="black"/>
<path fill-rule="evenodd" clip-rule="evenodd" d="M273.14 272.465L348.088 311.275L341.058 315.341L266.82 275.937L273.138 272.463L273.14 272.465Z" fill="black"/>
<path fill-rule="evenodd" clip-rule="evenodd" d="M181.756 273.294L110.375 315.197L116.921 319.487L188.073 276.77L181.756 273.294Z" fill="black"/>
<path fill-rule="evenodd" clip-rule="evenodd" d="M182.537 173.953L111.891 133.321L118.437 129.031L188.854 170.476L182.537 173.953Z" fill="black"/>
<path fill-rule="evenodd" clip-rule="evenodd" d="M159.391 193.746L219.942 227.246V294.406L159.391 260.906V193.746Z" fill="#81F889"/>
<path fill-rule="evenodd" clip-rule="evenodd" d="M292.299 193.746L231.75 227.246V294.406L292.299 260.906V193.746Z" fill="black"/>
<path fill-rule="evenodd" clip-rule="evenodd" d="M286.875 184.392L224.65 220.317L163.617 185.044L225.845 149.116L286.875 184.392Z" fill="white"/>
<path d="M219.942 295.563C219.468 295.563 219.873 295.655 158.831 261.917C158.463 261.713 158.234 261.327 158.234 260.904V193.744C158.234 192.87 159.175 192.304 159.949 192.732L220.499 226.232C220.867 226.435 221.095 226.821 221.095 227.244V294.405C221.095 295.043 220.578 295.56 219.94 295.56L219.942 295.563ZM160.548 260.225L218.786 292.447V227.928L160.548 195.707V260.225Z" fill="black"/>
<path d="M231.749 295.561C231.112 295.561 230.594 295.044 230.594 294.406V227.245C230.594 226.825 230.823 226.436 231.19 226.233L291.74 192.733C292.528 192.305 293.455 192.879 293.455 193.745V260.905C293.455 261.326 293.226 261.714 292.858 261.918C231.826 295.652 232.221 295.564 231.747 295.564L231.749 295.561ZM232.905 227.927V292.446L291.143 260.223V195.706L232.905 227.927Z" fill="black"/>
<path d="M224.648 221.473C224.155 221.473 224.572 221.53 163.037 186.042C162.27 185.598 162.268 184.487 163.037 184.04L225.265 148.115C225.621 147.91 226.065 147.91 226.421 148.115L287.453 183.391C288.223 183.832 288.223 184.947 287.453 185.393C224.784 221.63 225.14 221.473 224.648 221.473ZM165.927 185.041L224.648 218.981L284.564 184.389L225.843 150.45L165.927 185.041Z" fill="black"/>
<path fill-rule="evenodd" clip-rule="evenodd" d="M5.65625 44.0402L70.4057 6.58008L134.166 44.6063L134.651 120.453L71.4967 155.604L5.86428 120.012L5.65625 44.0402Z" fill="white"/>
<path d="M135.321 44.5996C135.321 44.1951 135.104 43.8229 134.757 43.6149L70.997 5.58864C70.6387 5.37136 70.1856 5.37136 69.8274 5.58171L5.07789 43.0416C4.71961 43.2474 4.49771 43.6311 4.50002 44.0448L4.70805 120.014C4.70805 120.437 4.94151 120.826 5.31366 121.027L70.9484 156.617C71.2998 156.809 71.7228 156.799 72.0602 156.612L135.215 121.461C135.582 121.256 135.811 120.865 135.809 120.444L135.321 44.5996ZM70.396 7.92325L131.87 44.5857L70.1579 79.762L7.97188 44.0379L70.396 7.92325ZM6.81844 46.042L69.0114 81.7684L70.3081 153.642L7.01723 119.323L6.81844 46.042ZM72.6196 153.658L71.3229 81.7591L133.023 46.5921L133.493 119.778L72.6196 153.658Z" fill="black"/>
<path fill-rule="evenodd" clip-rule="evenodd" d="M40.9939 47.9766L33.9531 44.0401L72.6914 19.2217L100.126 35.7188L96.3056 38.3123L102.988 42.332L67.0629 67.5665L36.8147 50.6533L40.9939 47.9766Z" fill="white"/>
<path d="M40.9928 49.1317C40.5675 49.1317 41.0483 49.3375 33.388 45.0496C32.6275 44.6243 32.5928 43.5379 33.3302 43.0687L72.0708 18.2502C72.4429 18.0145 72.9168 18.0075 73.2889 18.2317L100.722 34.7288C101.059 34.9323 101.27 35.2952 101.281 35.6881C101.304 36.5272 100.999 36.5318 96.9563 39.2686C96.4293 39.6269 95.7035 39.4905 95.3498 38.9612C94.9938 38.4319 95.1279 37.7153 95.6572 37.357L97.9826 35.7783L72.7134 20.5825L36.2011 43.9725L41.5568 46.9659C42.5923 47.5437 42.1786 49.1317 40.9928 49.1317Z" fill="black"/>
<path fill-rule="evenodd" clip-rule="evenodd" d="M91.5386 128.992L84.4655 132.866L84.0078 86.8607L112.557 72.377L112.726 76.9907L119.681 73.461L121.986 117.301L91.5895 133.95L91.541 128.99L91.5386 128.992Z" fill="white"/>
<path d="M84.4706 134.024C83.8303 134.024 83.3217 133.509 83.3148 132.88L82.8594 86.8746C82.8548 86.4355 83.0998 86.0309 83.4905 85.8322L112.04 71.3461C112.391 71.1681 112.812 71.1796 113.149 71.3807C113.873 71.8083 113.711 72.0695 113.887 76.9491C113.94 78.4562 111.631 78.5995 111.575 77.0346L111.473 74.2262L85.1756 87.5681L85.6078 130.927L90.989 127.978C91.546 127.67 92.251 127.874 92.5585 128.435C92.8659 128.995 92.6602 129.697 92.1008 130.005C84.4313 134.209 84.8889 134.024 84.4706 134.024Z" fill="black"/>
<path fill-rule="evenodd" clip-rule="evenodd" d="M27.2027 113.958L20.1295 110.128L19.6719 63.625L48.2211 80.24L48.3898 85.0386L55.3451 89.0861L57.6497 135.436L27.2536 118.974L27.2027 113.958Z" fill="white"/>
<path d="M27.2023 115.115C26.7931 115.115 27.2508 115.304 19.5767 111.143C19.2091 110.945 18.9757 110.559 18.9711 110.138L18.5157 63.6353C18.5064 62.7477 19.4726 62.1721 20.2539 62.6252L48.8031 79.2404C49.1452 79.4392 49.3625 79.8018 49.3764 80.1994L49.5428 84.9981C49.596 86.5052 47.2868 86.6415 47.2313 85.079L47.088 80.9183L20.848 65.6486L21.2779 109.437L27.7547 112.947C28.8041 113.515 28.3996 115.117 27.2046 115.117L27.2023 115.115Z" fill="black"/>
<path d="M67.0743 68.7261C66.6027 68.7261 66.9402 68.8417 36.2621 51.665C35.5016 51.2397 35.4693 50.1533 36.2043 49.684L74.9426 24.8656C75.3147 24.6298 75.7886 24.6252 76.1607 24.8471L103.596 41.3442C104.312 41.7764 104.349 42.8004 103.663 43.2812C67.1806 68.8763 67.6406 68.7261 67.0743 68.7261ZM39.0752 50.5878L67.0049 66.2066L100.882 42.4121L75.5852 27.1978L39.0752 50.5878Z" fill="black"/>
<path d="M91.5799 135.108C90.9396 135.108 90.4311 134.593 90.4242 133.964L89.9688 87.9609C89.9642 87.5217 90.2092 87.1172 90.5998 86.9184L119.149 72.4323C119.893 72.0556 120.783 72.5687 120.827 73.4008L123.129 117.241C123.155 117.684 122.919 118.103 122.531 118.315C91.6608 135.249 92.0399 135.108 91.5799 135.108ZM92.2872 88.6544L92.7195 132.011L120.786 116.637L118.615 75.2963L92.2872 88.6544Z" fill="black"/>
<path d="M57.6346 136.593C57.1792 136.593 57.5352 136.718 26.6884 119.99C26.3208 119.791 26.0874 119.405 26.0827 118.985L25.6251 72.482C25.6158 71.5943 26.582 71.0188 27.3633 71.4718L55.9125 88.0868C56.25 88.2833 56.465 88.637 56.4835 89.0276L58.788 135.378C58.8227 136.036 58.2934 136.591 57.6346 136.591V136.593ZM28.3896 118.284L56.3771 133.445L54.2066 89.7719L27.9597 74.4953L28.3919 118.284H28.3896Z" fill="black"/>
<path d="M92.0916 43.895C91.627 43.895 93.1641 44.7318 73.4771 32.7583C72.9316 32.4254 72.7583 31.7135 73.0911 31.168C73.424 30.6248 74.1336 30.4514 74.6791 30.7819L92.6926 41.75C93.6865 42.3533 93.2566 43.8927 92.0916 43.8927V43.895Z" fill="black"/>
<path d="M95.3653 93.5101C94.1518 93.5101 93.7612 91.8643 94.8476 91.3211L113.707 81.8833C114.276 81.6013 114.971 81.8301 115.258 82.401C115.542 82.972 115.311 83.6654 114.74 83.9521C94.3252 94.1642 95.7768 93.5124 95.363 93.5124L95.3653 93.5101Z" fill="black"/>
<path d="M49.8902 93.761C49.4325 93.761 50.9743 94.6024 30.4436 82.4948C29.8958 82.1712 29.7109 81.4639 30.0345 80.9114C30.3581 80.359 31.07 80.181 31.6179 80.5023L50.4773 91.609C51.4874 92.2053 51.0621 93.761 49.8902 93.761Z" fill="black"/>
<path d="M86.2244 47.7556C85.7598 47.7556 87.2969 48.5923 67.61 36.6211C67.0644 36.2883 66.8911 35.5786 67.2239 35.0308C67.5591 34.4853 68.2687 34.3142 68.8119 34.6448L86.8254 45.6128C87.8193 46.2161 87.3894 47.7556 86.2244 47.7556Z" fill="black"/>
<path d="M50.0389 100.963C49.5812 100.963 51.123 101.805 30.5923 89.6969C29.2794 88.9226 30.4398 86.9301 31.7666 87.7067L50.626 98.8135C51.6361 99.4098 51.2108 100.963 50.0389 100.963Z" fill="black"/>
<path d="M95.5294 100.542C94.3159 100.542 93.9252 98.8959 95.0116 98.3527L113.871 88.9149C114.437 88.6329 115.135 88.8595 115.422 89.4327C115.706 90.0036 115.475 90.6971 114.904 90.9837C94.4892 101.196 95.9408 100.544 95.5271 100.544L95.5294 100.542Z" fill="black"/>
<path d="M80.3338 51.6172C79.8692 51.6172 81.4063 52.454 61.7193 40.4804C61.1738 40.1476 61.0005 39.4356 61.3333 38.8901C61.6639 38.3446 62.3781 38.1759 62.9213 38.5041L80.9347 49.4721C81.9287 50.0754 81.4988 51.6172 80.3338 51.6172Z" fill="black"/>
<path d="M95.6778 107.571C94.4643 107.571 94.0737 105.925 95.1601 105.382L114.02 95.9442C114.584 95.6622 115.282 95.8888 115.571 96.462C115.855 97.0329 115.624 97.7264 115.053 98.013C94.6377 108.225 96.0893 107.573 95.6755 107.573L95.6778 107.571Z" fill="black"/>
<path d="M50.1949 108.149C49.7372 108.149 51.279 108.99 30.7483 96.8825C30.2005 96.5589 30.0156 95.8515 30.3392 95.2991C30.6651 94.7467 31.3724 94.5687 31.9226 94.89L50.782 105.997C51.7921 106.593 51.3668 108.149 50.1949 108.149Z" fill="black"/>
<path d="M74.4666 55.4766C74.002 55.4766 75.5391 56.3133 55.8521 44.3398C55.3066 44.007 55.1333 43.295 55.4661 42.7495C55.8013 42.204 56.5132 42.0353 57.0541 42.3635L75.0676 53.3315C76.0615 53.9348 75.6316 55.4766 74.4666 55.4766Z" fill="black"/>
<path d="M95.8185 114.604C94.6049 114.604 94.2143 112.958 95.3007 112.415L114.16 102.977C114.722 102.693 115.427 102.922 115.711 103.495C115.995 104.066 115.764 104.76 115.193 105.046C94.7783 115.258 96.2299 114.607 95.8161 114.607L95.8185 114.604Z" fill="black"/>
<path d="M50.3355 115.345C49.8778 115.345 51.4196 116.187 30.8889 104.077C30.3411 103.753 30.1562 103.046 30.4798 102.493C30.8011 101.941 31.513 101.763 32.0632 102.084L50.9226 113.191C51.9327 113.787 51.5074 115.345 50.3355 115.345Z" fill="black"/>
<path d="M68.5838 59.3399C68.1192 59.3399 69.6563 60.1767 49.9693 48.2031C49.4238 47.8703 49.2505 47.1584 49.5833 46.6128C49.9162 46.0673 50.6281 45.8963 51.1713 46.2268L69.1847 57.1948C70.1787 57.7981 69.7488 59.3376 68.5838 59.3376V59.3399Z" fill="black"/>
<path d="M95.9825 121.634C94.769 121.634 94.3783 119.988 95.4647 119.445L114.324 110.007C114.886 109.722 115.589 109.951 115.875 110.525C116.16 111.095 115.928 111.789 115.357 112.076C94.9423 122.288 96.394 121.636 95.9802 121.636L95.9825 121.634Z" fill="black"/>
<path d="M50.5019 122.539C50.0442 122.539 51.586 123.381 31.053 111.273C30.5052 110.949 30.3203 110.242 30.6439 109.69C30.9675 109.137 31.6748 108.959 32.2272 109.281L51.089 120.387C52.0991 120.984 51.6738 122.539 50.5019 122.539Z" fill="black"/>
<path fill-rule="evenodd" clip-rule="evenodd" d="M315.846 44.0402L380.596 6.58008L444.356 44.6063L444.841 120.453L381.687 155.604L316.052 120.014L315.844 44.0423L315.846 44.0402Z" fill="#81F889"/>
<path d="M445.509 44.5996C445.509 44.1951 445.291 43.8229 444.945 43.6149L381.184 5.58864C380.829 5.37136 380.375 5.37136 380.015 5.58171L315.265 43.0416C314.907 43.2474 314.685 43.6311 314.688 44.0448L314.896 120.014C314.896 120.437 315.129 120.826 315.501 121.027L381.136 156.617C381.487 156.809 381.91 156.799 382.248 156.612L445.402 121.461C445.77 121.256 445.999 120.865 445.996 120.444L445.509 44.5996ZM380.584 7.92325L442.058 44.5857L380.345 79.762L318.159 44.0402L380.584 7.92325ZM317.006 46.042L379.199 81.7684L380.496 153.642L317.207 119.323L317.008 46.042H317.006ZM382.807 153.658L381.51 81.7591L443.211 46.5921L443.68 119.778L382.807 153.658Z" fill="black"/>
<path fill-rule="evenodd" clip-rule="evenodd" d="M342.614 69.417L342.51 76.5063L336.428 73.3188L336.151 82.2827L339.687 84.4232L338.999 108.696L335.462 107.677L335.203 115.938L341.139 119.558L341.863 125.313L345.905 127.433L346.546 122.214L348.628 123.196L349.782 129.206L353.739 131.42L353.792 126.273C353.792 126.273 362.365 131.342 365.865 128.023C369.365 124.703 368.13 112.395 358.117 103.696C358.117 103.696 365.354 105.885 365.548 98.8469C365.743 91.8061 360.287 85.5419 354.807 81.3212L354.828 75.7112L350.057 73.1154L349.696 79.294L347.227 78.0758L347.082 71.599L342.611 69.4193L342.614 69.417ZM348.991 86.7555L348.998 93.8286C348.998 93.8286 358.306 99.0549 358.464 95.3773C358.621 91.6998 348.991 86.7555 348.991 86.7555ZM348.827 104.364L348.841 114.602C348.841 114.602 358.508 121.039 359.076 116.456C359.802 110.592 348.827 104.364 348.827 104.364Z" fill="black"/>
<path fill-rule="evenodd" clip-rule="evenodd" d="M404.586 77.5868L404.836 84.4565L398.828 87.2881L399.004 96.1134L402.513 94.7404L403.049 118.581L399.596 121.024L399.753 129.165L405.645 126.886L406.625 131.683L410.619 129.803L410.977 124.203L413.03 123.13L414.438 127.753L418.353 126.045L418.15 121.077C418.15 121.077 426.649 117.638 429.853 111.085C433.057 104.532 431.258 93.9753 421.194 95.3437C421.194 95.3437 428.265 90.4456 428.105 83.5343C427.946 76.6252 422.385 75.9133 416.904 77.1754L416.647 71.7988L411.93 73.9277L411.888 80.1757L409.454 81.3961L408.994 75.3516L404.586 77.5868ZM411.578 87.9839L411.934 94.7311C411.934 94.7311 421.148 90.7299 421.118 87.0662C421.088 83.4025 411.578 87.9839 411.578 87.9839ZM412.29 104.955L412.808 114.716C412.808 114.716 422.428 111.524 422.747 106.598C423.157 100.297 412.288 104.955 412.288 104.955H412.29Z" fill="black"/>
<path fill-rule="evenodd" clip-rule="evenodd" d="M352 31.5077L358.021 35.673L352.402 39.4731L359.945 44.8751L363.458 42.8294L383.915 57.3987L381.361 60.087L388.311 65.0705L394.233 61.6519L399.503 64.2869L403.241 61.7628L399.076 58.1754L400.909 56.8116L406.602 59.1924L410.379 56.8L405.996 53.7951C405.996 53.7951 414.413 48.7699 413.234 43.6222C412.055 38.4745 400.927 32.5548 388.723 36.8334C388.723 36.8334 394.037 31.3921 388.103 27.1714C382.17 22.9506 374.209 24.4045 367.989 27.0558L363.195 23.8174L358.706 26.7437L363.826 30.6224L361.609 32.2081L355.994 28.6253L352.002 31.51L352 31.5077ZM369.877 35.5574L375.935 39.6118C375.935 39.6118 384.835 33.9949 381.76 31.7389C378.686 29.4828 369.877 35.5574 369.877 35.5574ZM384.876 45.8158L393.648 51.6801C393.648 51.6801 403.757 46.4261 400.1 43.2686C395.424 39.2304 384.876 45.8158 384.876 45.8158Z" fill="black"/>
<path fill-rule="evenodd" clip-rule="evenodd" d="M315.846 329.925L380.596 292.465L444.356 330.491L444.841 406.338L381.687 441.489L316.052 405.899L315.844 329.927L315.846 329.925Z" fill="#81F889"/>
<path d="M445.509 330.482C445.509 330.077 445.291 329.705 444.945 329.497L381.184 291.47C380.829 291.253 380.375 291.253 380.015 291.464L315.265 328.924C314.907 329.129 314.685 329.513 314.688 329.927L314.896 405.898C314.896 406.321 315.129 406.71 315.501 406.911L381.136 442.501C381.487 442.693 381.91 442.684 382.248 442.496L445.402 407.345C445.77 407.14 445.999 406.749 445.996 406.328L445.509 330.482ZM380.584 293.805L442.058 330.468L380.345 365.644L318.159 329.922L380.584 293.805ZM317.006 331.924L379.199 367.65L380.496 439.526L317.207 405.207L317.008 331.926L317.006 331.924ZM382.807 439.54L381.51 367.639L443.211 332.472L443.68 405.658L382.807 439.54Z" fill="black"/>
<path fill-rule="evenodd" clip-rule="evenodd" d="M391.079 330.902L394.149 329.009C397.362 327.028 407.079 323.328 395.91 317.986C390.154 315.233 381.024 321.24 381.024 321.24L377.506 323.249L371.938 319.851L381.024 314.604C381.024 314.604 390.08 309.433 398.968 314.045C414.02 321.855 408.711 327.063 405.371 328.991L396.051 334.372L391.077 330.902H391.079Z" fill="white"/>
<path fill-rule="evenodd" clip-rule="evenodd" d="M401.604 337.703L369.375 318.372L343.891 332.012L376.933 353.266L401.606 337.703H401.604Z" fill="white"/>
<path d="M410.226 323.831C410.145 320.259 406.637 316.723 399.499 313.018C390.158 308.17 380.838 313.373 380.443 313.6L371.897 318.535C369.898 317.335 369.558 316.961 368.828 317.349L343.343 330.987C342.571 331.401 342.52 332.501 343.265 332.977C376.839 354.527 376.405 354.416 376.932 354.416C377.452 354.416 377.033 354.541 402.219 338.673C402.945 338.215 402.938 337.147 402.196 336.703L398.329 334.385L405.948 329.986C408.759 328.364 410.277 326.177 410.226 323.826V323.831ZM376.939 351.894L346.168 332.101L369.343 319.7L399.399 337.725L376.939 351.894ZM379.791 323.271L381.659 322.203C381.749 322.148 390.345 316.543 395.421 319.032C399.358 320.867 399.982 322.21 400 322.844C400.051 324.413 396.882 326.156 394.989 327.199C393.577 327.978 393.995 327.742 390.669 329.797L379.791 323.271ZM404.794 327.989L396.064 333.03L392.902 331.135C395.079 329.792 394.88 329.896 396.105 329.223C398.766 327.76 402.413 325.754 402.314 322.767C402.245 320.666 400.308 318.759 396.42 316.947C390.172 313.88 380.78 320.012 380.45 320.236L377.521 321.91L374.167 319.899L381.594 315.609C381.679 315.56 390.239 310.815 398.435 315.072C405.696 318.84 411.851 323.919 404.794 327.991V327.989Z" fill="black"/>
<path d="M376.124 329.867C374.155 329.867 372.352 331.104 372.608 332.872L364.527 336.482C363.686 336.859 363.603 338.022 364.382 338.514L369.594 341.808C370.1 342.125 370.754 342.009 371.117 341.549L376.145 335.216C378.119 335.209 379.663 334.035 379.663 332.539C379.663 331.043 378.107 329.862 376.124 329.862V329.867Z" fill="black"/>
<path fill-rule="evenodd" clip-rule="evenodd" d="M353.542 383.708C353.542 383.708 353.643 380.798 353.745 377.151C353.847 373.503 355.063 369.985 348.771 366.354C341.402 362.098 340.597 369.294 340.597 369.294L340.373 376.964L335.75 374.414C335.75 374.414 335.755 368.774 335.983 365.968C336.219 363.065 337.918 353.985 350.329 361.148C360.922 367.265 359.679 372.133 359.51 378.274C359.341 384.416 359.158 386.542 359.158 386.542L353.544 383.708H353.542Z" fill="white"/>
<path fill-rule="evenodd" clip-rule="evenodd" d="M331.453 372.047L331.497 404.186C331.497 404.186 362.24 421.413 362.667 421.91C363.095 422.407 362.117 388.953 362.117 388.953L331.455 372.049L331.453 372.047Z" fill="white"/>
<path d="M363.273 388.919C363.243 388.036 362.63 387.916 360.319 386.642C360.557 382.881 360.631 378.818 360.721 376.753C360.961 371.266 361.185 366.086 350.904 360.148C345.916 357.267 341.921 356.569 339.048 358.079C334.36 360.536 334.666 367.124 334.606 372.466C331.922 370.986 331.594 370.616 330.863 371.053C330.512 371.261 330.297 371.64 330.297 372.049L330.341 404.188C330.341 404.607 330.567 404.99 330.933 405.196C342.841 411.872 360.929 422.068 361.793 422.666C362.101 423.022 362.621 423.18 363.099 422.995C364.126 422.597 364.257 422.544 363.273 388.921V388.919ZM337.132 366.063C337.624 359.949 341.276 357.263 349.748 362.152C358.816 367.387 358.647 371.273 358.412 376.654C358.388 377.176 358.141 384.229 358.074 385.405L354.704 383.547C354.729 382.823 354.944 376.27 354.974 375.817C355.196 372.563 355.444 368.876 349.346 365.355C346.604 363.774 344.288 363.437 342.469 364.361C339.862 365.679 339.46 369.028 339.437 369.264L339.268 375.04L336.905 373.737C336.915 372.158 336.956 368.224 337.13 366.065L337.132 366.063ZM352.667 375.66C352.561 377.297 352.633 376.078 352.432 382.294L341.547 376.293L341.743 369.424C341.743 369.424 342.035 367.17 343.512 366.423C344.866 365.739 346.801 366.555 348.19 367.357C353.042 370.156 352.876 372.586 352.667 375.66ZM361.622 419.927C358.754 418.228 351.456 414.047 332.652 403.509L332.611 374.005L360.98 389.645C361.282 400.127 361.648 414.858 361.622 419.927Z" fill="black"/>
<path d="M347.746 395.271C348.659 394.887 349.156 393.977 349.156 392.962C349.156 390.456 346.454 388.501 344.639 389.811C343.112 390.907 343.458 393.41 345.016 394.721C344.332 397.516 342.894 403.375 342.806 403.694C342.573 404.323 342.929 405.014 343.558 405.201C346.919 406.764 347.633 407.917 348.65 407.233C349.008 406.988 349.2 406.56 349.147 406.128L347.746 395.271Z" fill="black"/>
<path fill-rule="evenodd" clip-rule="evenodd" d="M425.999 375.326C425.999 375.326 425.995 369.686 425.766 366.88C425.53 363.977 423.831 354.897 411.421 362.06C400.827 368.177 402.071 373.045 402.239 379.186C402.408 385.328 402.591 387.454 402.591 387.454L408.205 384.621C408.205 384.621 408.104 381.71 408.002 378.063C407.9 374.415 406.684 370.897 412.976 367.266C420.345 363.01 421.15 370.206 421.15 370.206L421.374 377.876L425.999 375.326Z" fill="white"/>
<path fill-rule="evenodd" clip-rule="evenodd" d="M430.291 372.959L430.247 405.098C430.247 405.098 399.505 422.325 399.077 422.822C398.649 423.319 399.627 389.865 399.627 389.865L430.289 372.961L430.291 372.959Z" fill="white"/>
<path d="M430.879 371.964C430.118 371.518 429.721 371.953 427.139 373.377C427.076 368.037 427.381 361.449 422.696 358.99C419.816 357.478 415.829 358.179 410.84 361.059C400.559 366.995 400.781 372.179 401.021 377.667C401.109 379.636 401.227 385.052 401.437 387.546C398.992 388.894 398.499 388.989 398.472 389.83C397.48 423.719 397.427 424.021 399.174 424.021C399.415 424.021 399.107 423.874 430.814 406.107C431.179 405.904 431.406 405.518 431.406 405.1L431.45 372.961C431.45 372.552 431.235 372.172 430.883 371.964H430.879ZM403.391 379.153C403.196 372.561 402.249 368.689 411.996 363.061C420.456 358.176 424.118 360.865 424.61 366.972C424.786 369.128 424.827 373.062 424.837 374.643L422.472 375.947L422.299 370.074C422.282 369.933 421.88 366.583 419.273 365.266C417.454 364.346 415.138 364.679 412.396 366.26C406.298 369.78 406.548 373.469 406.768 376.721C406.895 378.561 406.821 378.351 407.038 384.451L403.668 386.309C403.601 385.135 403.492 382.884 403.388 379.148L403.391 379.153ZM409.313 383.203C409.273 382.01 409.109 377.054 409.077 376.569C408.866 373.492 408.702 371.065 413.554 368.264C414.943 367.462 416.878 366.653 418.226 367.325C419.691 368.058 419.996 370.238 419.996 370.238L420.2 377.2L409.315 383.201L409.313 383.203ZM429.092 404.42C410.29 414.958 402.993 419.137 400.122 420.839C400.097 415.769 400.46 401.038 400.762 390.556L429.131 374.916L429.092 404.42Z" fill="black"/>
<path d="M418.955 404.667C418.918 404.542 418.627 403.414 416.697 395.659C419.346 393.489 417.901 389.46 414.968 390.454C412.421 391.316 411.644 395.225 414.013 396.191L412.596 407.039C412.474 407.977 413.475 408.657 414.302 408.199C415.999 407.261 417.933 406.218 418.232 406.093C418.784 405.899 419.131 405.28 418.953 404.667H418.955Z" fill="black"/>
<path fill-rule="evenodd" clip-rule="evenodd" d="M6.8695 329.925L71.619 292.465L135.379 330.491L135.865 406.338L72.71 441.489L7.07522 405.899L6.86719 329.927L6.8695 329.925Z" fill="white"/>
<path fill-rule="evenodd" clip-rule="evenodd" d="M123.892 364.866V400.352L121.541 401.709V404.843L118.913 406.36V408.218L99.9124 419.189V417.547L95.509 420.088V408.153L98.4446 406.459V402.936L102.848 400.396V396.386L98.2481 399.039V395.322L94.9219 397.243V381.59L123.892 364.866Z" fill="white"/>
<path fill-rule="evenodd" clip-rule="evenodd" d="M99.9105 426.341V417.545L95.5071 420.086V408.152L98.4427 406.457V402.935L102.846 400.394V396.384L98.2462 399.037V395.32L94.92 397.241V381.588L88.1705 385.485V394.486L80.3438 399.005V405.852L87.9763 401.446V432.984L99.9105 426.341Z" fill="#81F889"/>
<path d="M123.869 368.848L87.6016 389.787V394.309L99.2885 387.561V392.122L109.39 386.29V381.727L113.291 379.476V384.036L123.226 378.302L123.869 368.848Z" fill="black"/>
<path d="M104.109 408.231V403.955L119.552 395.037V399.313L104.109 408.231Z" fill="black"/>
<path d="M108.461 397.75V393.418L112.439 391.123V395.455L108.461 397.75Z" fill="black"/>
<path d="M114.906 394.026V389.694L118.884 387.396V391.731L114.906 394.026Z" fill="black"/>
<path fill-rule="evenodd" clip-rule="evenodd" d="M86.25 378.289V386.797L126.306 363.668V355.162L86.25 378.289Z" fill="#81F889"/>
<path fill-rule="evenodd" clip-rule="evenodd" d="M118.574 354.649V349.749L92.1054 365.033V369.931L88.7422 371.872V376.844L121.572 357.89V352.918L118.574 354.649Z" fill="#81F889"/>
<path d="M101.063 425.699V419.856L120.064 408.886V407.027L122.692 405.511V402.376L125.045 401.02V365.73L127.456 364.339V353.163L122.731 355.89V350.918L119.733 352.649V347.749L90.953 364.366V369.267L87.5898 371.208V376.18L85.0887 377.625V388.801L87.0142 387.689V393.822L79.1875 398.341V407.857L86.82 403.451V433.632L89.1315 432.345V399.45L81.499 403.856V399.677L89.3257 395.158V386.356L93.7661 383.792V399.249L97.09 397.328V401.045L101.688 398.391V399.734L97.2865 402.277V405.797L94.3509 407.492V422.096L98.752 419.553V426.992L101.063 425.704V425.699ZM89.8989 372.54L93.2622 370.598V365.698L117.42 351.75V356.651L120.418 354.919V357.221L89.8989 374.84V372.54ZM91.8129 379.007V382.246L87.3979 384.795V378.956L125.142 357.166V363.003L120.115 365.906V362.667L115.101 365.561V368.8L108.469 372.628V369.389L103.456 372.283V375.522L96.8265 379.349V376.111L91.8129 379.007ZM96.6624 418.085V408.819L99.598 407.124V403.604L103.999 401.061V394.381L99.4015 397.035V393.318L96.0776 395.239V382.454L122.734 367.062V399.684L120.381 401.04V404.175L117.752 405.691V407.55L101.063 417.184V415.543L96.6624 418.085Z" fill="black"/>
<path fill-rule="evenodd" clip-rule="evenodd" d="M98.3638 334.604L68.0324 353.024L65.6515 351.718L62.9725 353.346L60.312 351.887L58.724 352.851L39.4855 342.304L40.8885 341.453L36.4297 339.01L46.6326 332.815L49.6029 334.442L52.6124 332.614L57.0713 335.059L60.4992 332.977L55.8439 330.425L59.0199 328.495L55.652 326.648L69.0309 318.525L98.3638 334.604Z" fill="white"/>
<path fill-rule="evenodd" clip-rule="evenodd" d="M22.2891 338.783L34.1031 345.572L40.8873 341.453L36.4308 339.01L46.6314 332.815L49.6039 334.442L52.6135 332.614L57.0724 335.059L60.5003 332.977L55.845 330.425L59.0233 328.495L55.6554 326.648L69.032 318.525L62.1992 314.778L54.5066 319.45L46.5805 315.104L40.7278 318.659L48.4528 322.894L22.2891 338.783Z" fill="#81F889"/>
<path d="M94.9445 336.652L58.2196 316.519L54.3594 318.865L66.1896 325.351L62.2901 327.72L72.5184 333.328L76.4179 330.958L80.3683 333.124L76.4688 335.494L86.5284 341.007L90.4279 338.64L91.0797 338.995L94.9445 336.652Z" fill="black"/>
<path d="M66.6763 348.783L51.0391 340.209L54.6958 337.99L70.3284 346.564L66.6763 348.783Z" fill="black"/>
<path d="M66.2766 340.698L62.25 338.49L65.9576 336.241L69.9842 338.449L66.2766 340.698Z" fill="black"/>
<path d="M72.818 344.28L68.7891 342.072L72.4967 339.823L76.5233 342.031L72.818 344.28Z" fill="black"/>
<path fill-rule="evenodd" clip-rule="evenodd" d="M67.3579 309.395L60.0859 313.809L100.646 336.046L107.915 331.629L67.3579 309.395Z" fill="#81F889"/>
<path fill-rule="evenodd" clip-rule="evenodd" d="M104.346 324.763L108.534 322.22L81.7324 307.528L77.544 310.071L74.1391 308.203L69.8906 310.785L103.132 329.009L107.381 326.427L104.346 324.763Z" fill="#81F889"/>
<path d="M109.696 326.375L106.661 324.711L110.849 322.168L81.7085 306.191L77.5201 308.734L74.113 306.866L69.8645 309.448L67.3288 308.059L57.7754 313.861L59.7263 314.931L54.4838 318.114L46.5577 313.771L38.4213 318.71L46.1486 322.947L21.6953 337.796L22.8973 339.77L50.7739 322.843L43.0465 318.606L46.6178 316.438L54.5439 320.782L62.0678 316.212L66.5613 318.676L53.3512 326.697L56.719 328.544L53.5407 330.474L58.1984 333.025L57.0519 333.721L52.593 331.278L49.5834 333.106L46.6109 331.477L34.1288 339.056L38.5877 341.499L33.5278 344.574L34.7298 346.548L39.5285 343.635L58.767 354.183L60.355 353.219L63.0155 354.677L65.6945 353.05L68.073 354.356L98.238 336.04L100.681 337.378L110.235 331.576L105.45 328.953L109.701 326.371L109.696 326.375ZM74.1708 309.538L77.5779 311.406L81.7663 308.863L106.227 322.272L102.038 324.817L105.073 326.482L103.104 327.677L98.2796 325.03L72.2037 310.733L74.1708 309.538ZM68.0106 351.691L65.6321 350.385L62.9531 352.012L60.2926 350.553L58.7046 351.517L41.8053 342.253L43.2083 341.4L38.7495 338.957L46.6687 334.147L49.6412 335.776L52.6508 333.948L57.1096 336.391L62.8213 332.924L58.1637 330.372L61.342 328.442L57.9741 326.595L68.9029 319.959L95.8941 334.754L68.0106 351.686V351.691ZM105.607 331.68L100.619 334.713L95.5266 331.921L98.2935 330.24L93.2174 327.457L90.4483 329.138L83.7357 325.458L86.5026 323.777L81.4265 320.994L78.6597 322.675L71.9448 318.995L74.7116 317.314L69.6356 314.531L66.8688 316.212L62.3983 313.762L67.3865 310.729L105.607 331.68Z" fill="black"/>
<path fill-rule="evenodd" clip-rule="evenodd" d="M57.9543 386.623V422.109L55.6035 420.753V423.887L52.9753 422.371V424.227L33.9749 413.256V411.615L29.5715 409.075V397.138L32.5071 398.833V395.312L36.9082 397.853V393.842L32.3106 391.189V387.469L28.9844 385.551V369.897L57.9543 386.623Z" fill="white"/>
<path fill-rule="evenodd" clip-rule="evenodd" d="M33.9808 420.478V411.616L29.5798 409.076V397.139L32.513 398.833V395.313L36.9141 397.853V393.843L32.3166 391.189V387.47L28.9926 385.552V369.898L22.2408 366.001V375.002L14.4141 370.483V377.332L22.0466 381.735V414.006L33.9808 420.478Z" fill="#81F889"/>
<path d="M57.9392 390.58L21.6719 369.641V374.16L33.3588 380.909V385.47L43.46 391.304V386.741L47.3618 388.995V393.555L57.2966 399.29L57.9392 390.58Z" fill="black"/>
<path d="M53.6251 416.073L38.1797 407.155V402.879L53.6251 411.797V416.073Z" fill="black"/>
<path d="M46.5093 403.997L42.5312 401.701V397.367L46.5093 399.662V403.997Z" fill="black"/>
<path d="M52.9523 407.723L48.9766 405.425V401.089L52.9523 403.386V407.723Z" fill="black"/>
<path fill-rule="evenodd" clip-rule="evenodd" d="M20.3203 356.579V365.085L60.3761 388.214V379.706L20.3203 356.579Z" fill="#81F889"/>
<path fill-rule="evenodd" clip-rule="evenodd" d="M52.6446 370.275V365.377L26.1757 350.094V354.994L22.8125 353.052V358.024L55.6426 376.979V372.007L52.6446 370.275Z" fill="#81F889"/>
<path d="M35.1338 421.105V415.259L54.1342 426.23V424.371L56.7647 425.888V422.756L59.1155 424.112V388.823L61.5263 390.214V379.038L56.8017 376.311V371.339L53.8037 369.608V364.707L25.0233 348.09V352.99L21.6601 351.049V356.018L19.159 354.574V365.75L21.0845 366.861V372.996L13.2578 368.477V377.994L20.8904 382.399V413.376L23.2018 414.628V381.063L15.5693 376.658V372.478L23.396 376.997V368.193L27.8364 370.756V386.211L31.1603 388.132V391.849L35.7579 394.502V395.845L31.3568 393.303V396.823L28.4212 395.129V409.733L32.8223 412.273V419.841L35.1338 421.094V421.105ZM23.9693 355.054L27.3325 356.996V352.098L51.4899 366.046V370.946L54.4879 372.677V374.979L23.9693 357.359V355.054ZM25.8832 363.732V366.97L21.4682 364.421V358.584L59.2125 380.374V386.213L54.1851 383.31V380.072L49.1737 377.178V380.416L42.5421 376.588V373.35L37.5285 370.456V373.694L30.8968 369.866V366.628L25.8832 363.734V363.732ZM30.7327 408.408V399.141L33.6683 400.836V397.315L38.0693 399.858V393.178L33.4718 390.524V386.807L30.1479 384.886V372.102L56.804 387.494V420.114L54.4532 418.757V421.891L51.8227 420.375V422.231L35.1338 412.597V410.955L30.7327 408.415V408.408Z" fill="black"/>
<path d="M136.534 330.482C136.534 330.077 136.317 329.705 135.97 329.497L72.2102 291.47C71.8519 291.253 71.3989 291.253 71.0406 291.464L6.28883 328.924C5.93055 329.129 5.70864 329.513 5.71096 329.927L5.9213 405.898C5.9213 406.321 6.15476 406.71 6.52691 406.911L72.1617 442.501C72.3327 442.596 72.5223 442.642 72.7118 442.642C72.906 442.642 73.1001 442.593 73.2735 442.496L136.426 407.345C136.793 407.14 137.022 406.749 137.02 406.328L136.534 330.482ZM71.6092 293.805L133.083 330.468L71.3688 365.644L9.18281 329.922L71.6092 293.805ZM8.02938 331.924L70.3749 367.738L71.6739 439.609L8.23279 405.207L8.03169 331.926L8.02938 331.924ZM73.9831 439.457L72.6818 367.555L134.237 332.472L134.704 405.658L73.9831 439.457Z" fill="black"/>
</svg>
